<?xml version="1.0" encoding="UTF-8"?>
<svg width="60px" height="60px" viewBox="0 0 60 60" version="1.1" xmlns="http://www.w3.org/2000/svg" xmlns:xlink="http://www.w3.org/1999/xlink">
    <!-- Generator: Sketch 49.3 (51167) - http://www.bohemiancoding.com/sketch -->
    <title>Icon/ 100% accurate</title>
    <desc>Created with Sketch.</desc>
    <defs></defs>
    <g id="Icon/-100%-accurate" stroke="none" stroke-width="1" fill="none" fill-rule="evenodd">
        <g id="100%-accurate">
            <g id="Group-3" fill="#4F5661">
                <path d="M22.5591,53.4121 C22.9441,53.4121 23.3221,53.4531 23.6871,53.5511 C24.9591,53.8901 26.0171,54.9461 27.0401,55.9671 C28.0421,56.9671 29.0781,58.0001 30.0001,58.0001 C30.9221,58.0001 31.9581,56.9671 32.9591,55.9671 C33.9831,54.9461 35.0411,53.8901 36.3131,53.5511 C37.6361,53.1971 39.1161,53.5881 40.5471,53.9661 C41.8801,54.3181 43.2611,54.6821 44.0021,54.2531 C44.7671,53.8091 45.1431,52.4171 45.5061,51.0701 C45.8881,49.6531 46.2831,48.1881 47.2351,47.2361 C48.1871,46.2831 49.6531,45.8891 51.0701,45.5071 C52.4171,45.1431 53.8091,44.7671 54.2521,44.0031 C54.6821,43.2601 54.3181,41.8811 53.9661,40.5471 C53.5881,39.1151 53.1971,37.6361 53.5501,36.3121 L53.5511,36.3111 C53.8901,35.0411 54.9461,33.9831 55.9671,32.9611 C56.9661,31.9591 58.0001,30.9231 58.0001,30.0001 C58.0001,29.0771 56.9661,28.0411 55.9671,27.0391 C54.9461,26.0161 53.8901,24.9581 53.5501,23.6861 C53.1971,22.3641 53.5881,20.8841 53.9661,19.4531 C54.3181,18.1191 54.6831,16.7401 54.2521,15.9971 C53.8101,15.2321 52.4171,14.8561 51.0701,14.4931 C49.6531,14.1111 48.1881,13.7171 47.2361,12.7651 C46.2841,11.8121 45.8891,10.3481 45.5071,8.9311 C45.1431,7.5831 44.7671,6.1901 44.0021,5.7471 C43.2581,5.3181 41.8801,5.6821 40.5471,6.0341 C39.1161,6.4121 37.6361,6.8041 36.3121,6.4491 C35.0411,6.1101 33.9831,5.0541 32.9591,4.0331 C31.9581,3.0331 30.9221,2.0001 30.0001,2.0001 C29.0781,2.0001 28.0421,3.0331 27.0401,4.0331 C26.0171,5.0541 24.9591,6.1101 23.6871,6.4491 C22.3671,6.8041 20.8851,6.4121 19.4531,6.0341 C18.1201,5.6821 16.7391,5.3181 15.9971,5.7471 C15.2321,6.1901 14.8571,7.5831 14.4941,8.9301 C14.1121,10.3471 13.7171,11.8111 12.7651,12.7641 C11.8121,13.7171 10.3471,14.1111 8.9301,14.4931 C7.5831,14.8561 6.1901,15.2321 5.7481,15.9971 C5.3181,16.7401 5.6821,18.1191 6.0341,19.4531 C6.4121,20.8851 6.8031,22.3641 6.4501,23.6871 C6.1101,24.9591 5.0541,26.0161 4.0331,27.0391 C3.0341,28.0411 2.0001,29.0771 2.0001,30.0001 C2.0001,30.9231 3.0341,31.9591 4.0331,32.9611 C5.0541,33.9831 6.1101,35.0411 6.4491,36.3111 C6.8031,37.6361 6.4121,39.1161 6.0341,40.5471 C5.6821,41.8811 5.3171,43.2601 5.7471,44.0021 C6.1901,44.7671 7.5831,45.1431 8.9311,45.5071 C10.3471,45.8891 11.8121,46.2831 12.7641,47.2351 C13.7161,48.1871 14.1111,49.6521 14.4931,51.0691 C14.8561,52.4171 15.2321,53.8091 15.9971,54.2531 C16.7411,54.6801 18.1191,54.3171 19.4531,53.9661 C20.4891,53.6921 21.5501,53.4121 22.5591,53.4121 M30.0001,60.0001 C28.2501,60.0001 26.8571,58.6091 25.6281,57.3831 C24.7901,56.5481 23.9251,55.6841 23.1711,55.4821 C22.3611,55.2671 21.1431,55.5891 19.9631,55.8991 C18.2371,56.3551 16.4521,56.8261 14.9961,55.9831 C13.5161,55.1271 13.0311,53.3291 12.5621,51.5901 C12.2481,50.4271 11.9241,49.2241 11.3501,48.6491 C10.7761,48.0751 9.5731,47.7511 8.4101,47.4371 C6.6711,46.9691 4.8721,46.4831 4.0161,45.0041 C3.1731,43.5471 3.6441,41.7631 4.1011,40.0361 C4.4121,38.8571 4.7341,37.6391 4.5171,36.8281 C4.3161,36.0751 3.4531,35.2101 2.6181,34.3731 C1.3911,33.1431 0.0001,31.7501 0.0001,30.0001 C0.0001,28.2501 1.3911,26.8561 2.6181,25.6271 C3.4531,24.7901 4.3161,23.9251 4.5171,23.1711 C4.7341,22.3611 4.4121,21.1421 4.1011,19.9641 C3.6451,18.2371 3.1741,16.4531 4.0171,14.9951 C4.8721,13.5161 6.6701,13.0311 8.4091,12.5621 C9.5731,12.2491 10.7761,11.9251 11.3511,11.3491 C11.9251,10.7751 12.2491,9.5721 12.5621,8.4091 C13.0311,6.6701 13.5161,4.8721 14.9961,4.0161 C16.4521,3.1731 18.2381,3.6441 19.9631,4.1001 C21.1431,4.4121 22.3631,4.7321 23.1711,4.5171 C23.9251,4.3151 24.7901,3.4521 25.6281,2.6171 C26.8571,1.3911 28.2501,0.0001 30.0001,0.0001 C31.7491,0.0001 33.1431,1.3911 34.3721,2.6171 C35.2091,3.4521 36.0751,4.3151 36.8291,4.5171 C37.6421,4.7321 38.8581,4.4121 40.0371,4.1001 C41.7621,3.6441 43.5471,3.1731 45.0041,4.0161 C46.4841,4.8731 46.9691,6.6711 47.4381,8.4101 C47.7511,9.5731 48.0761,10.7761 48.6501,11.3501 C49.2251,11.9251 50.4271,12.2491 51.5911,12.5621 C53.3301,13.0311 55.1271,13.5161 55.9831,14.9951 C56.8271,16.4531 56.3551,18.2371 55.8991,19.9641 C55.5881,21.1421 55.2661,22.3611 55.4821,23.1701 C55.6841,23.9251 56.5481,24.7901 57.3831,25.6271 C58.6091,26.8561 60.0001,28.2501 60.0001,30.0001 C60.0001,31.7501 58.6091,33.1431 57.3821,34.3731 C56.5471,35.2101 55.6841,36.0751 55.4821,36.8291 C55.2661,37.6391 55.5881,38.8571 55.8991,40.0361 C56.3551,41.7631 56.8261,43.5471 55.9831,45.0051 C55.1271,46.4841 53.3301,46.9691 51.5911,47.4371 C50.4271,47.7511 49.2241,48.0751 48.6491,48.6501 C48.0751,49.2251 47.7511,50.4281 47.4371,51.5911 C46.9691,53.3301 46.4841,55.1281 45.0041,55.9831 C43.5481,56.8271 41.7631,56.3551 40.0371,55.8991 C38.8581,55.5891 37.6401,55.2671 36.8291,55.4821 C36.0751,55.6841 35.2091,56.5481 34.3721,57.3831 C33.1431,58.6091 31.7491,60.0001 30.0001,60.0001" id="Fill-1"></path>
            </g>
            <path d="M12.4502,25.3896 L10.6262,25.3896 C10.4362,25.3896 10.2842,25.2186 10.2842,25.0296 L10.2842,23.8316 C10.2842,23.7566 10.3422,23.6046 10.3982,23.5476 L13.1722,21.3816 L14.9202,21.3816 C15.1092,21.3816 15.2622,21.5526 15.2622,21.7426 L15.2622,33.9386 C15.2622,34.1286 15.1092,34.2996 14.9202,34.2996 L12.8112,34.2996 C12.6022,34.2996 12.4502,34.1286 12.4502,33.9386 L12.4502,25.3896 Z" id="Fill-4" fill="#53C27C"></path>
            <path d="M35.0591,24.8408 C35.0591,22.3528 34.4381,20.9458 33.3241,20.9458 C32.2101,20.9458 31.5881,22.3528 31.5881,24.8408 C31.5881,27.3488 32.2101,28.7358 33.3241,28.7358 C34.4381,28.7358 35.0591,27.3488 35.0591,24.8408 M28.6471,24.8408 C28.6471,20.6808 30.3471,18.1918 33.3241,18.1918 C36.3011,18.1918 38.0001,20.6808 38.0001,24.8408 C38.0001,29.0008 36.3011,31.4898 33.3241,31.4898 C30.3471,31.4898 28.6471,29.0008 28.6471,24.8408" id="Fill-6" fill="#53C27C"></path>
            <path d="M24.0591,25.8408 C24.0591,23.3528 23.4381,21.9458 22.3241,21.9458 C21.2101,21.9458 20.5881,23.3528 20.5881,25.8408 C20.5881,28.3488 21.2101,29.7358 22.3241,29.7358 C23.4381,29.7358 24.0591,28.3488 24.0591,25.8408 M17.6471,25.8408 C17.6471,21.6808 19.3471,19.1918 22.3241,19.1918 C25.3011,19.1918 27.0001,21.6808 27.0001,25.8408 C27.0001,30.0008 25.3011,32.4898 22.3241,32.4898 C19.3471,32.4898 17.6471,30.0008 17.6471,25.8408" id="Fill-8" fill="#53C27C"></path>
            <path d="M14.999,46.5 C14.335,46.5 13.729,46.057 13.55,45.386 C13.337,44.585 13.814,43.764 14.614,43.551 C15.238,43.384 30.059,39.495 44.107,40.504 C44.934,40.563 45.555,41.281 45.496,42.107 C45.437,42.935 44.708,43.574 43.893,43.496 C30.333,42.524 15.533,46.41 15.386,46.449 C15.256,46.484 15.126,46.5 14.999,46.5" id="Fill-10" fill="#D3E5EF"></path>
            <path d="M18.167,40.167 C17.556,40.167 16.981,39.791 16.759,39.184 C16.473,38.406 16.872,37.545 17.649,37.259 C18.125,37.083 29.459,32.976 40.212,34.515 C41.032,34.632 41.602,35.392 41.485,36.212 C41.368,37.032 40.606,37.602 39.788,37.485 C29.799,36.058 18.793,40.035 18.684,40.075 C18.513,40.138 18.339,40.167 18.167,40.167" id="Fill-12" fill="#D3E5EF"></path>
            <path d="M41.7002,22.833 C40.7172,22.833 39.9182,21.936 39.9182,20.833 C39.9182,19.73 40.7172,18.833 41.7002,18.833 C42.6832,18.833 43.4822,19.73 43.4822,20.833 C43.4822,21.936 42.6832,22.833 41.7002,22.833" id="Fill-14" fill="#53C27C"></path>
            <path d="M48.7002,28.833 C47.7172,28.833 46.9182,27.936 46.9182,26.833 C46.9182,25.73 47.7172,24.833 48.7002,24.833 C49.6832,24.833 50.4822,25.73 50.4822,26.833 C50.4822,27.936 49.6832,28.833 48.7002,28.833" id="Fill-16" fill="#53C27C"></path>
            <path d="M41.7983,30.0049 C41.1933,29.6589 40.9093,28.8479 41.1623,28.1229 C41.2273,27.9349 44.5873,21.4819 47.7423,18.1139 C48.2773,17.5429 49.1223,17.5699 49.6323,18.1669 C50.1403,18.7679 50.1193,19.7169 49.5843,20.2879 C46.8543,23.1999 43.6653,29.1769 43.6513,29.2159 C43.3823,29.9879 42.6073,30.3679 41.9193,30.0669 C41.8773,30.0479 41.8373,30.0269 41.7983,30.0049" id="Fill-18" fill="#53C27C"></path>
        </g>
    </g>
</svg>