<?xml version="1.0" encoding="UTF-8"?>
<svg width="60px" height="40px" viewBox="0 0 60 40" version="1.1" xmlns="http://www.w3.org/2000/svg" xmlns:xlink="http://www.w3.org/1999/xlink">
    <!-- Generator: Sketch 49.3 (51167) - http://www.bohemiancoding.com/sketch -->
    <title>Icon/ 1099 Form</title>
    <desc>Created with Sketch.</desc>
    <defs>
        <polygon id="path-1" points="60 20.0002 60 40 0 40 0 20.0002 0 0.0004 60 0.0004"></polygon>
        <polygon id="path-3" points="0 40 60 40 60 0 0 0"></polygon>
    </defs>
    <g id="Icon/-1099-Form" stroke="none" stroke-width="1" fill="none" fill-rule="evenodd">
        <g id="1099-Form">
            <g id="Group-3">
                <mask id="mask-2" fill="white">
                    <use xlink:href="#path-1"></use>
                </mask>
                <g id="Clip-2"></g>
                <path d="M50,37.5234 L50,30.0004 L57.523,30.0004 L50,37.5234 Z M2,2.0004 L58,2.0004 L58,28.0004 L49,28.0004 C48.448,28.0004 48,28.4474 48,29.0004 L48,38.0004 L2,38.0004 L2,2.0004 Z M59,0.0004 L1,0.0004 C0.448,0.0004 0,0.4474 0,1.0004 L0,39.0004 C0,39.5524 0.448,40.0004 1,40.0004 L49.938,40.0004 C50.203,40.0004 50.457,39.8944 50.645,39.7074 L59.707,30.6444 C59.895,30.4574 60,30.2034 60,29.9374 L60,1.0004 C60,0.4474 59.552,0.0004 59,0.0004 Z" id="Fill-1" fill="#4F5661" mask="url(#mask-2)"></path>
            </g>
            <polygon id="Fill-4" fill="#53C27C" points="11.4204 16.6768 10.2574 16.6768 10.2574 9.6008 8.6494 10.9448 7.9664 10.1408 10.3774 8.1858 11.4204 8.1858"></polygon>
            <path d="M15.8735,12.4307 C15.8735,13.8697 16.1855,15.9097 17.5885,15.9097 C18.9675,15.9097 19.2915,13.8697 19.2915,12.4307 C19.2915,11.0037 18.9675,8.9417 17.5885,8.9417 C16.1855,8.9417 15.8735,11.0037 15.8735,12.4307 M20.4785,12.4307 C20.4785,14.9137 19.6035,16.8927 17.5885,16.8927 C15.5615,16.8927 14.6865,14.9137 14.6865,12.4307 C14.6865,9.9607 15.5615,7.9697 17.5885,7.9697 C19.6035,7.9697 20.4785,9.9607 20.4785,12.4307" id="Fill-6" fill="#53C27C"></path>
            <path d="M24.7402,8.9414 C23.6972,8.9414 22.9772,9.7094 22.9772,10.7634 C22.9772,11.7834 23.6732,12.5394 24.7282,12.5394 C25.7962,12.5394 26.5032,11.7954 26.5032,10.7524 C26.5032,9.7564 25.7962,8.9414 24.7402,8.9414 Z M25.5322,13.2474 L25.5202,13.2344 C25.4002,13.3064 25.2202,13.3664 25.0282,13.4024 C24.8362,13.4384 24.6322,13.4624 24.4522,13.4624 C22.9652,13.4624 21.8022,12.3464 21.8022,10.7994 C21.8022,9.1094 23.0732,7.9694 24.7402,7.9694 C26.4192,7.9694 27.6662,9.1574 27.6662,10.7634 C27.6662,11.6874 27.3312,12.3954 26.8512,13.1744 L24.6322,16.6764 L23.2532,16.6764 L25.5322,13.2474 Z" id="Fill-8" fill="#53C27C"></path>
            <path d="M31.8799,8.9414 C30.8369,8.9414 30.1169,9.7094 30.1169,10.7634 C30.1169,11.7834 30.8129,12.5394 31.8679,12.5394 C32.9359,12.5394 33.6429,11.7954 33.6429,10.7524 C33.6429,9.7564 32.9359,8.9414 31.8799,8.9414 Z M32.6719,13.2474 L32.6599,13.2344 C32.5399,13.3064 32.3599,13.3664 32.1679,13.4024 C31.9759,13.4384 31.7719,13.4624 31.5919,13.4624 C30.1049,13.4624 28.9419,12.3464 28.9419,10.7994 C28.9419,9.1094 30.2129,7.9694 31.8799,7.9694 C33.5589,7.9694 34.8059,9.1574 34.8059,10.7634 C34.8059,11.6874 34.4709,12.3954 33.9909,13.1744 L31.7719,16.6764 L30.3929,16.6764 L32.6719,13.2474 Z" id="Fill-10" fill="#53C27C"></path>
            <path d="M11.7607,23.8359 C12.5167,23.8359 13.1767,24.1719 13.5237,24.9759 C13.9077,24.2439 14.6517,23.8359 15.4547,23.8359 C16.9177,23.8359 17.5777,24.8789 17.5777,26.1499 L17.5777,29.6769 L16.4497,29.6769 L16.4497,26.5229 C16.4497,25.5989 16.1747,24.7829 15.1907,24.7829 C14.1597,24.7829 13.7517,25.7189 13.7517,26.6069 L13.7517,29.6769 L12.6247,29.6769 L12.6247,26.2949 C12.6247,25.4069 12.3247,24.7829 11.4247,24.7829 C10.5977,24.7829 9.9737,25.5269 9.9737,26.6539 L9.9737,29.6769 L8.8467,29.6769 L8.8467,25.2149 C8.8467,24.9149 8.8347,24.3629 8.7987,23.9919 L9.8657,23.9919 C9.8897,24.2789 9.9137,24.6879 9.9137,24.9279 L9.9497,24.9279 C10.2377,24.3279 10.8977,23.8359 11.7607,23.8359" id="Fill-12" fill="#4F5661"></path>
            <mask id="mask-4" fill="white">
                <use xlink:href="#path-3"></use>
            </mask>
            <g id="Clip-15"></g>
            <path d="M19.503,29.677 L20.63,29.677 L20.63,23.992 L19.503,23.992 L19.503,29.677 Z M20.066,22.66 C19.658,22.66 19.323,22.337 19.323,21.941 C19.323,21.533 19.658,21.209 20.066,21.209 C20.474,21.209 20.822,21.521 20.822,21.941 C20.822,22.349 20.474,22.66 20.066,22.66 Z" id="Fill-14" fill="#4F5661" mask="url(#mask-4)"></path>
            <path d="M25.6689,25.4307 C25.4169,25.0237 24.9249,24.7237 24.3499,24.7237 C23.8339,24.7237 23.2939,24.9277 23.2939,25.4667 C23.2939,25.9477 23.7259,26.1267 24.5889,26.3187 C25.6689,26.5587 26.4959,27.0017 26.4959,27.9977 C26.4959,29.3407 25.3809,29.8327 24.2299,29.8327 C23.3659,29.8327 22.4789,29.4967 21.9389,28.8137 L22.7419,28.1297 C23.0419,28.5737 23.6179,28.9207 24.2529,28.9207 C24.8169,28.9207 25.3809,28.7167 25.3809,28.0937 C25.3809,27.5667 24.8649,27.3737 23.8939,27.1467 C23.1379,26.9657 22.2389,26.6427 22.2389,25.5757 C22.2389,24.3517 23.3059,23.8357 24.3849,23.8357 C25.1889,23.8357 26.0409,24.1597 26.4479,24.7717 L25.6689,25.4307 Z" id="Fill-16" fill="#4F5661" mask="url(#mask-4)"></path>
            <path d="M31.9077,25.4307 C31.6677,25.0597 31.1397,24.7837 30.6007,24.7837 C29.4257,24.7837 28.7417,25.7427 28.7417,26.8337 C28.7417,27.9137 29.4257,28.8847 30.6127,28.8847 C31.1887,28.8847 31.6797,28.6457 31.9797,28.2617 L32.7357,28.9457 C32.2557,29.4967 31.5237,29.8327 30.6127,29.8327 C28.8617,29.8327 27.5537,28.6457 27.5537,26.8337 C27.5537,25.0467 28.8497,23.8357 30.5887,23.8357 C31.3917,23.8357 32.2557,24.1597 32.7237,24.7717 L31.9077,25.4307 Z" id="Fill-17" fill="#4F5661" mask="url(#mask-4)"></path>
            <path d="M52,10 L42,10 C41.448,10 41,9.553 41,9 C41,8.447 41.448,8 42,8 L52,8 C52.552,8 53,8.447 53,9 C53,9.553 52.552,10 52,10" id="Fill-18" fill="#D3E5EF" mask="url(#mask-4)"></path>
            <path d="M49,16 L42,16 C41.448,16 41,15.553 41,15 C41,14.447 41.448,14 42,14 L49,14 C49.552,14 50,14.447 50,15 C50,15.553 49.552,16 49,16" id="Fill-19" fill="#D3E5EF" mask="url(#mask-4)"></path>
            <path d="M53,22 L42,22 C41.448,22 41,21.553 41,21 C41,20.447 41.448,20 42,20 L53,20 C53.552,20 54,20.447 54,21 C54,21.553 53.552,22 53,22" id="Fill-20" fill="#D3E5EF" mask="url(#mask-4)"></path>
        </g>
    </g>
</svg>