<?xml version="1.0" encoding="UTF-8"?>
<svg width="60px" height="53px" viewBox="0 0 60 53" version="1.1" xmlns="http://www.w3.org/2000/svg" xmlns:xlink="http://www.w3.org/1999/xlink">
    <!-- Generator: Sketch 49.3 (51167) - http://www.bohemiancoding.com/sketch -->
    <title>Icon/ Access Completed Forms</title>
    <desc>Created with Sketch.</desc>
    <defs></defs>
    <g id="Icon/-Access-Completed-Forms" stroke="none" stroke-width="1" fill="none" fill-rule="evenodd">
        <g id="Page-1">
            <path d="M53,53 L1,53 C0.447,53 0,52.553 0,52 L0,8 C0,7.447 0.447,7 1,7 L4,7 C4.553,7 5,7.447 5,8 C5,8.553 4.553,9 4,9 L2,9 L2,51 L52,51 L52,48 C52,47.447 52.447,47 53,47 C53.553,47 54,47.447 54,48 L54,52 C54,52.553 53.553,53 53,53" id="Fill-1" fill="#4F5661"></path>
            <path d="M49,20 L15,20 C14.447,20 14,19.553 14,19 C14,18.448 14.447,18 15,18 L49,18 C49.553,18 50,18.448 50,19 C50,19.553 49.553,20 49,20" id="Fill-3" fill="#4F5661"></path>
            <path d="M39,26 L15,26 C14.447,26 14,25.553 14,25 C14,24.448 14.447,24 15,24 L39,24 C39.553,24 40,24.448 40,25 C40,25.553 39.553,26 39,26" id="Fill-5" fill="#4F5661"></path>
            <path d="M26,32 L15,32 C14.447,32 14,31.553 14,31 C14,30.448 14.447,30 15,30 L26,30 C26.553,30 27,30.448 27,31 C27,31.553 26.553,32 26,32" id="Fill-7" fill="#4F5661"></path>
            <path d="M8,44 L8,2 L48,2 L48,12 C48,12.553 48.447,13 49,13 L58,13 L58,44 L8,44 Z M50,3.477 L57.523,11 L50,11 L50,3.477 Z M59.707,10.355 L49.838,0.486 C49.662,0.2 49.36,0 49,0 C48.989,0 48.979,0.006 48.969,0.007 C48.958,0.006 48.948,0 48.938,0 L7,0 C6.447,0 6,0.447 6,1 L6,45 C6,45.553 6.447,46 7,46 L59,46 C59.553,46 60,45.553 60,45 L60,11.062 C60,10.797 59.895,10.543 59.707,10.355 Z" id="Fill-9" fill="#4F5661"></path>
            <path d="M27,7 L16,7 C14.897,7 14,7.897 14,9 L14,11 C14,12.103 14.897,13 16,13 L27,13 C28.103,13 29,12.103 29,11 L29,9 C29,7.897 28.103,7 27,7" id="Fill-11" fill="#D3E5EF"></path>
            <path d="M47.0674,36.1641 C46.9184,36.1641 46.7684,36.1471 46.6204,36.1141 C45.8134,35.9321 44.9524,35.1501 44.9134,33.5061 C44.6364,33.7671 44.2934,34.1711 43.9914,34.6851 C43.3794,35.7271 42.3684,36.1991 41.3624,35.9251 C40.1374,35.5921 39.3464,34.2871 39.3464,32.6011 C39.3464,32.4031 39.3304,32.2651 39.3114,32.1711 C39.0904,32.2931 38.7284,32.5951 38.4264,33.1071 C37.4974,34.6891 36.5974,36.0001 35.0004,36.0001 C34.4474,36.0001 34.0004,35.5531 34.0004,35.0001 C34.0004,34.4471 34.4474,34.0001 35.0004,34.0001 C35.4354,34.0001 35.8654,33.5191 36.7024,32.0941 C37.3874,30.9281 38.6954,29.8381 39.9364,30.1681 C40.4634,30.3111 41.3464,30.8181 41.3464,32.6011 C41.3464,33.5431 41.7114,33.9471 41.8864,33.9951 C41.9954,34.0271 42.1594,33.8561 42.2664,33.6721 C42.4424,33.3741 44.0364,30.7771 45.6954,31.2351 C46.2514,31.3861 46.9124,31.8831 46.9124,33.3901 C46.9124,33.9231 47.0534,34.1451 47.0904,34.1771 C47.1924,34.1711 47.9204,33.8441 48.7184,32.1701 C48.9554,31.6731 49.5514,31.4581 50.0514,31.6981 C50.5494,31.9351 50.7614,32.5321 50.5234,33.0311 C49.5704,35.0311 48.3054,36.1641 47.0674,36.1641" id="Fill-13" fill="#F4877A"></path>
            <path d="M52,39 L32,39 C31.447,39 31,38.553 31,38 C31,37.447 31.447,37 32,37 L52,37 C52.553,37 53,37.447 53,38 C53,38.553 52.553,39 52,39" id="Fill-15" fill="#4F5661"></path>
        </g>
    </g>
</svg>