<?xml version="1.0" encoding="UTF-8"?>
<svg width="60px" height="58px" viewBox="0 0 60 58" version="1.1" xmlns="http://www.w3.org/2000/svg" xmlns:xlink="http://www.w3.org/1999/xlink">
    <!-- Generator: Sketch 49.3 (51167) - http://www.bohemiancoding.com/sketch -->
    <title>Icon/ Accurate Reporting Investment sales</title>
    <desc>Created with Sketch.</desc>
    <defs>
        <polygon id="path-1" points="0 58 60 58 60 0 0 0"></polygon>
    </defs>
    <g id="Icon/-Accurate-Reporting-Investment-sales" stroke="none" stroke-width="1" fill="none" fill-rule="evenodd">
        <g id="Page-1">
            <path d="M58,1 C58.553,1 59,1.448 59,2 L59,6 C59,6.553 58.553,7 58,7 L2,7 C1.447,7 1,6.553 1,6 L1,2 C1,1.448 1.447,1 2,1 L58,1 Z" id="Fill-1" fill="#D3E5EF"></path>
            <path d="M18,30 L14,30 C13.447,30 13,30.447 13,31 L13,36 C13,36.553 13.447,37 14,37 L18,37 C18.553,37 19,36.553 19,36 L19,31 C19,30.447 18.553,30 18,30" id="Fill-3" fill="#53C27C"></path>
            <path d="M27,21 L23,21 C22.447,21 22,21.447 22,22 L22,36 C22,36.553 22.447,37 23,37 L27,37 C27.553,37 28,36.553 28,36 L28,22 C28,21.447 27.553,21 27,21" id="Fill-5" fill="#53C27C"></path>
            <path d="M45,15 L41,15 C40.447,15 40,15.447 40,16 L40,36 C40,36.553 40.447,37 41,37 L45,37 C45.553,37 46,36.553 46,36 L46,16 C46,15.447 45.553,15 45,15" id="Fill-7" fill="#53C27C"></path>
            <path d="M36,26 L32,26 C31.447,26 31,26.447 31,27 L31,36 C31,36.553 31.447,37 32,37 L36,37 C36.553,37 37,36.553 37,36 L37,27 C37,26.447 36.553,26 36,26" id="Fill-9" fill="#53C27C"></path>
            <mask id="mask-2" fill="white">
                <use xlink:href="#path-1"></use>
            </mask>
            <g id="Clip-12"></g>
            <path d="M6,44 L54,44 L54,8 L6,8 L6,44 Z M2,2 L58,2 L58,6 L55,6 L5,6 L2,6 L2,2 Z M58,8 C59.103,8 60,7.103 60,6 L60,2 C60,0.897 59.103,0 58,0 L2,0 C0.897,0 0,0.897 0,2 L0,6 C0,7.103 0.897,8 2,8 L4,8 L4,44 L1,44 C0.447,44 0,44.447 0,45 C0,45.553 0.447,46 1,46 L5,46 L24.382,46 L19.105,56.553 C18.858,57.047 19.059,57.647 19.553,57.895 C19.696,57.966 19.849,58 19.999,58 C20.366,58 20.719,57.798 20.895,57.447 L26.618,46 L33.382,46 L39.105,57.447 C39.281,57.798 39.634,58 40.001,58 C40.151,58 40.304,57.966 40.447,57.895 C40.941,57.647 41.142,57.047 40.895,56.553 L35.618,46 L55,46 L59,46 C59.553,46 60,45.553 60,45 C60,44.447 59.553,44 59,44 L56,44 L56,8 L58,8 Z" id="Fill-11" fill="#4F5661" mask="url(#mask-2)"></path>
        </g>
    </g>
</svg>