<?xml version="1.0" encoding="UTF-8"?>
<svg width="53px" height="57px" viewBox="0 0 53 57" version="1.1" xmlns="http://www.w3.org/2000/svg" xmlns:xlink="http://www.w3.org/1999/xlink">
    <!-- Generator: Sketch 49.3 (51167) - http://www.bohemiancoding.com/sketch -->
    <title>Icon/ Alert</title>
    <desc>Created with Sketch.</desc>
    <defs></defs>
    <g id="Icon/-Alert" stroke="none" stroke-width="1" fill="none" fill-rule="evenodd">
        <g id="Alert" transform="translate(-2.000000, -1.000000)">
            <path d="M54.7169826,51.805217 C56.6640439,54.876368 54.4719702,58.9108 50.8445,58.9108 L5.5975,58.9108 C1.97034735,58.9108 -0.221035271,54.8767898 1.72521115,51.8049116 L5.97697663,45.1062813 L24.3495107,16.13244 C26.1563718,13.2892533 30.2856282,13.2892533 32.0929773,16.1332087 L46.0789826,38.185217 L54.7169826,51.805217 Z M53.0279295,52.8762444 L44.3900227,39.2563913 L30.4045107,17.20516 C29.3833718,15.5983467 27.0586282,15.5983467 26.0380234,17.2043187 L7.66578885,46.1776884 L3.41422917,52.875994 C2.30883656,54.6207022 3.55287914,56.9108 5.5975,56.9108 L50.8445,56.9108 C52.8894411,56.9108 54.1338116,54.6205814 53.0279295,52.8762444 Z" id="Stroke-1" fill="#4B5E69" fill-rule="nonzero"></path>
            <path d="M28.3808,28 L25.9328,28 C25.4498,28 25.0668,28.495 25.0988,29.024 L25.8228,40.88 C25.8528,41.362 26.2168,41.759 26.6568,41.759 L28.3808,41.759 L30.1058,41.759 C30.5448,41.759 30.9098,41.385 30.9388,40.903 L31.6628,29.024 C31.6948,28.495 31.3128,28 30.8288,28 L28.3808,28 Z" id="Fill-3" fill="#5BBF89"></path>
            <path d="M31.3217,47.917 C31.3217,49.527 30.0157,50.833 28.4047,50.833 C26.7947,50.833 25.4887,49.527 25.4887,47.917 C25.4887,46.306 26.7947,45 28.4047,45 C30.0157,45 31.3217,46.306 31.3217,47.917" id="Fill-5" fill="#5BBF89"></path>
            <path d="M7.72516017,23.9393398 L4.22516017,20.4393398 C3.63937373,19.8535534 2.68962627,19.8535534 2.10383983,20.4393398 C1.51805339,21.0251263 1.51805339,21.9748737 2.10383983,22.5606602 L5.60383983,26.0606602 C6.18962627,26.6464466 7.13937373,26.6464466 7.72516017,26.0606602 C8.31094661,25.4748737 8.31094661,24.5251263 7.72516017,23.9393398 Z" id="Stroke-7" fill="#D3E5EF" fill-rule="nonzero"></path>
            <path d="M29.6645,7.5 L29.6645,1.5 C29.6645,0.671572875 28.9929271,0 28.1645,0 C27.3360729,0 26.6645,0.671572875 26.6645,1.5 L26.6645,7.5 C26.6645,8.32842712 27.3360729,9 28.1645,9 C28.9929271,9 29.6645,8.32842712 29.6645,7.5 Z" id="Stroke-9" fill="#D3E5EF" fill-rule="nonzero"></path>
            <path d="M15.5689938,13.9733148 L12.5689938,5.97331484 C12.2781136,5.19763435 11.4134953,4.80462605 10.6378148,5.09550623 C9.86213435,5.38638642 9.46912605,6.25100467 9.76000623,7.02668516 L12.7600062,15.0266852 C13.0508864,15.8023657 13.9155047,16.1953739 14.6911852,15.9044938 C15.4668657,15.6136136 15.8598739,14.7489953 15.5689938,13.9733148 Z" id="Stroke-11" fill="#D3E5EF" fill-rule="nonzero"></path>
            <path d="M50.7251602,26.0606602 L54.2251602,22.5606602 C54.8109466,21.9748737 54.8109466,21.0251263 54.2251602,20.4393398 C53.6393737,19.8535534 52.6896263,19.8535534 52.1038398,20.4393398 L48.6038398,23.9393398 C48.0180534,24.5251263 48.0180534,25.4748737 48.6038398,26.0606602 C49.1896263,26.6464466 50.1393737,26.6464466 50.7251602,26.0606602 Z" id="Stroke-13" fill="#D3E5EF" fill-rule="nonzero"></path>
            <path d="M42.557215,14.557086 L45.557215,7.05708601 C45.8648851,6.28791074 45.4907613,5.41495507 44.721586,5.10728496 C43.9524107,4.79961485 43.0794551,5.17373871 42.771785,5.94291399 L39.771785,13.442914 C39.4641149,14.2120893 39.8382387,15.0850449 40.607414,15.392715 C41.3765893,15.7003851 42.2495449,15.3262613 42.557215,14.557086 Z" id="Stroke-15" fill="#D3E5EF" fill-rule="nonzero"></path>
        </g>
    </g>
</svg>