<?xml version="1.0" encoding="UTF-8"?>
<svg width="60px" height="56px" viewBox="0 0 60 56" version="1.1" xmlns="http://www.w3.org/2000/svg" xmlns:xlink="http://www.w3.org/1999/xlink">
    <!-- Generator: Sketch 49.3 (51167) - http://www.bohemiancoding.com/sketch -->
    <title>Icon/ Amend</title>
    <desc>Created with Sketch.</desc>
    <defs>
        <polygon id="path-1" points="3.1672256e-16 10.0518 3.1672256e-16 0.0013 10.05055 0.0013 10.05055 10.0518"></polygon>
    </defs>
    <g id="Icon/-Amend" stroke="none" stroke-width="1" fill="none" fill-rule="evenodd">
        <g id="Page-1">
            <path d="M40.4302,44.1797 C38.6952,44.1797 36.9082,43.3277 35.2902,41.7057 C34.9002,41.3157 34.9012,40.6817 35.2922,40.2917 C35.6832,39.9027 36.3172,39.9027 36.7062,40.2937 C38.2132,41.8037 39.7562,42.4267 41.1702,42.0937 C42.5662,41.7647 43.7572,40.4907 44.3582,38.6847 C45.2442,36.0157 48.0032,35.0897 50.1582,35.7307 C52.1102,36.3137 53.7212,38.2487 52.9212,41.2567 C52.7802,41.7907 52.2332,42.1057 51.6982,41.9667 C51.1642,41.8247 50.8472,41.2767 50.9892,40.7427 C51.4012,39.1907 50.8772,38.0337 49.5852,37.6467 C48.3442,37.2757 46.7592,37.7977 46.2552,39.3157 C45.4352,41.7837 43.7052,43.5507 41.6292,44.0397 C41.2342,44.1337 40.8332,44.1797 40.4302,44.1797" id="Fill-1" fill="#D3E5EF"></path>
            <g id="Group-5" transform="translate(0.000000, 5.000000)">
                <mask id="mask-2" fill="white">
                    <use xlink:href="#path-1"></use>
                </mask>
                <g id="Clip-4"></g>
                <path d="M9.7573,3.0898 L7.5383,0.8698 C6.3803,-0.2882 4.4953,-0.2882 3.3373,0.8698 L0.8683,3.3388 C-0.2897,4.4968 -0.2897,6.3818 0.8683,7.5398 L3.0883,9.7588 C3.2833,9.9538 3.5393,10.0518 3.7953,10.0518 C4.0513,10.0518 4.3073,9.9538 4.5023,9.7588 L9.7573,4.5038 C10.1483,4.1128 10.1483,3.4808 9.7573,3.0898" id="Fill-3" fill="#F4877A" mask="url(#mask-2)"></path>
            </g>
            <path d="M29.6489,37.0586 L31.0569,37.0586 C31.6089,37.0586 32.0569,36.6116 32.0569,36.0586 L32.0569,34.6506 L33.3419,34.9076 L33.3419,37.0906 C32.9939,36.9746 32.5979,37.0456 32.3209,37.3226 C32.0439,37.5986 31.9739,37.9956 32.0889,38.3426 L29.9059,38.3426 L29.6489,37.0586 Z M28.4289,35.0586 C28.1289,35.0586 27.8459,35.1936 27.6559,35.4246 C27.4659,35.6566 27.3899,35.9606 27.4489,36.2546 L27.4579,36.2996 L5.5379,14.3806 L9.3789,10.5396 L31.2989,32.4586 L31.2529,32.4506 C30.9589,32.3926 30.6549,32.4676 30.4229,32.6576 C30.1909,32.8476 30.0569,33.1306 30.0569,33.4306 L30.0569,35.0586 L28.4289,35.0586 Z M35.7059,39.2926 L35.3419,38.9286 L35.3419,34.0876 C35.3419,34.0526 35.3249,34.0216 35.3219,33.9876 C35.3149,33.9206 35.3029,33.8596 35.2839,33.7956 C35.2649,33.7366 35.2419,33.6806 35.2119,33.6256 C35.1809,33.5666 35.1449,33.5126 35.1029,33.4606 C35.0819,33.4356 35.0719,33.4046 35.0489,33.3806 L10.7829,9.1156 C11.1219,8.7226 11.1159,8.1346 10.7429,7.7616 C10.3529,7.3716 9.7199,7.3716 9.3289,7.7616 L2.7599,14.3296 C2.3689,14.7206 2.3689,15.3536 2.7599,15.7446 C2.9549,15.9396 3.2109,16.0376 3.4669,16.0376 C3.6989,16.0376 3.9259,15.9456 4.1129,15.7846 L28.3789,40.0496 C28.3909,40.0616 28.4069,40.0656 28.4179,40.0756 C28.4819,40.1326 28.5529,40.1766 28.6279,40.2156 C28.6619,40.2336 28.6909,40.2566 28.7259,40.2706 C28.8389,40.3156 28.9599,40.3426 29.0859,40.3426 L29.0869,40.3426 L33.9269,40.3426 L34.2919,40.7066 C34.4869,40.9026 34.7429,40.9996 34.9989,40.9996 C35.2539,40.9996 35.5099,40.9026 35.7059,40.7066 C36.0959,40.3166 36.0959,39.6836 35.7059,39.2926 Z" id="Fill-6" fill="#4F5661"></path>
            <path d="M12.3853,15.9727 C11.9943,15.5817 11.3623,15.5817 10.9713,15.9727 C10.5803,16.3637 10.5803,16.9957 10.9713,17.3867 L27.1903,33.6067 C27.3853,33.8017 27.6413,33.8997 27.8973,33.8997 C28.1533,33.8997 28.4093,33.8017 28.6043,33.6067 C28.9953,33.2157 28.9953,32.5827 28.6043,32.1927 L12.3853,15.9727 Z" id="Fill-8" fill="#4F5661"></path>
            <path d="M51.9985,8 L51.9985,2 L52.5845,2 L57.9985,7.414 L57.9985,8 L51.9985,8 Z M59.7055,6.293 L53.7055,0.293 C53.5185,0.105 53.2635,0 52.9985,0 L19.9985,0 C19.4465,0 18.9985,0.447 18.9985,1 L18.9985,14 C18.9985,14.553 19.4465,15 19.9985,15 C20.5505,15 20.9985,14.553 20.9985,14 L20.9985,2 L49.9985,2 L49.9985,9 C49.9985,9.553 50.4465,10 50.9985,10 L57.9985,10 L57.9985,54 L20.9985,54 L20.9985,36 C20.9985,35.447 20.5505,35 19.9985,35 C19.4465,35 18.9985,35.447 18.9985,36 L18.9985,55 C18.9985,55.553 19.4465,56 19.9985,56 L58.9985,56 C59.5505,56 59.9985,55.553 59.9985,55 L59.9985,7 C59.9985,6.734 59.8935,6.48 59.7055,6.293 Z" id="Fill-10" fill="#4F5661"></path>
            <path d="M45.9985,18 L26.9985,18 C26.4465,18 25.9985,17.553 25.9985,17 C25.9985,16.447 26.4465,16 26.9985,16 L45.9985,16 C46.5505,16 46.9985,16.447 46.9985,17 C46.9985,17.553 46.5505,18 45.9985,18" id="Fill-12" fill="#D3E5EF"></path>
            <path d="M49.9985,24 L30.9985,24 C30.4465,24 29.9985,23.553 29.9985,23 C29.9985,22.447 30.4465,22 30.9985,22 L49.9985,22 C50.5505,22 50.9985,22.447 50.9985,23 C50.9985,23.553 50.5505,24 49.9985,24" id="Fill-14" fill="#D3E5EF"></path>
            <path d="M47.9985,30 L36.9985,30 C36.4465,30 35.9985,29.553 35.9985,29 C35.9985,28.447 36.4465,28 36.9985,28 L47.9985,28 C48.5505,28 48.9985,28.447 48.9985,29 C48.9985,29.553 48.5505,30 47.9985,30" id="Fill-16" fill="#D3E5EF"></path>
        </g>
    </g>
</svg>