<?xml version="1.0" encoding="UTF-8"?>
<svg width="60px" height="60px" viewBox="0 0 60 60" version="1.1" xmlns="http://www.w3.org/2000/svg" xmlns:xlink="http://www.w3.org/1999/xlink">
    <!-- Generator: Sketch 49.3 (51167) - http://www.bohemiancoding.com/sketch -->
    <title>Icon/ Answer Questions about Yourself</title>
    <desc>Created with Sketch.</desc>
    <defs>
        <polygon id="path-1" points="27.818 28 27.818 0 14.31815 7.10542736e-15 0.8183 0 0.8183 28 27.818 28"></polygon>
    </defs>
    <g id="Icon/-Answer-Questions-about-Yourself" stroke="none" stroke-width="1" fill="none" fill-rule="evenodd">
        <g id="Page-1">
            <path d="M29.4111,17.3887 C28.0401,13.0977 24.7381,9.9997 19.7841,9.9997 C13.7161,9.9997 9.6821,14.6977 9.6821,20.4767 C9.6821,20.4767 11.4191,21.5287 14.7151,18.3897 C15.9051,19.2427 17.7791,20.3357 20.2431,20.9927 C25.0841,22.2807 28.2641,21.0627 29.9531,20.4897" id="Fill-1" fill="#D3E5EF"></path>
            <polyline id="Fill-3" fill="#D3E5EF" points="13.5937 39.5742 9.6827 42.1082 15.3447 51.3982 18.9727 49.5682"></polyline>
            <polygon id="Fill-5" fill="#D3E5EF" points="26.2119 39.5742 29.9529 42.1082 24.1399 51.3982 20.3989 49.5682"></polygon>
            <g id="Group-9" transform="translate(0.000000, 9.000000)" fill="#4F5661">
                <path d="M20.8173,48.9678 L20.8173,41.0938 L26.5073,31.3398 L29.5773,33.1278 C29.7293,33.2168 29.9033,33.2638 30.0803,33.2638 C31.9413,33.2638 33.7813,34.3138 35.1303,36.1478 L37.4223,39.2448 C33.8193,44.9948 27.5753,48.6378 20.8173,48.9678 M2.2023,39.2298 L4.4883,36.1398 C5.8603,34.2848 7.6533,33.2638 9.5383,33.2638 C9.7143,33.2638 9.8873,33.2168 10.0403,33.1288 L13.1283,31.3368 L18.8173,41.0908 L18.8173,48.9678 C12.0483,48.6378 5.8013,44.9888 2.2023,39.2298 M19.8183,28.8608 C21.3283,28.8608 23.1213,28.2578 24.8183,27.2128 L24.8183,30.2658 L19.8183,38.8378 L14.8183,30.2658 L14.8183,27.2128 C16.5153,28.2578 18.3083,28.8608 19.8183,28.8608 M39.4293,38.5938 L36.7393,34.9598 C35.0763,32.6978 32.7633,31.3648 30.3593,31.2698 L26.8183,29.2058 L26.8183,25.7258 C29.0873,23.6958 30.8183,20.8248 30.8183,17.5358 L30.8183,11.5418 C30.8183,11.2198 30.6633,10.9168 30.4013,10.7298 C30.1373,10.5398 29.7993,10.4918 29.4973,10.5948 L29.2763,10.6708 C27.5933,11.2468 24.7763,12.2118 20.4953,11.0718 C18.1763,10.4548 16.4263,9.4188 15.3673,8.6578 C14.9793,8.3778 14.4433,8.4128 14.0943,8.7468 C12.5173,10.2488 11.4333,10.6188 10.8493,10.6908 C11.2173,5.7188 14.8623,2.1938 19.7853,2.1938 C23.8783,2.1938 26.9933,4.5968 28.3323,8.7868 C28.5003,9.3128 29.0593,9.6058 29.5883,9.4348 C30.1143,9.2668 30.4053,8.7038 30.2363,8.1778 C28.6393,3.1788 24.7323,0.1938 19.7853,0.1938 C13.5333,0.1938 8.8183,5.0668 8.8183,11.5298 C8.8183,11.8788 9.0013,12.2028 9.2993,12.3848 C9.5293,12.5228 11.5323,13.5898 14.8713,10.7388 C16.0793,11.5218 17.8093,12.4268 19.9813,13.0048 C23.9733,14.0688 26.9133,13.4988 28.8183,12.9238 L28.8183,17.5358 C28.8183,22.5928 23.2903,26.8608 19.8183,26.8608 C16.3463,26.8608 10.8183,22.5928 10.8183,17.5358 L10.8183,14.9998 C10.8183,14.4468 10.3713,13.9998 9.8183,13.9998 C9.2653,13.9998 8.8183,14.4468 8.8183,14.9998 L8.8183,17.5358 C8.8183,20.8248 10.5493,23.6958 12.8183,25.7258 L12.8183,29.2038 L9.2593,31.2698 C6.8603,31.3648 4.5483,32.6948 2.8803,34.9498 L0.1963,38.5778 C-0.0407,38.8998 -0.0657,39.3298 0.1353,39.6758 C4.1993,46.6608 11.7403,50.9998 19.8173,50.9998 C27.8813,50.9998 35.4203,46.6668 39.4893,39.6928 C39.6913,39.3468 39.6683,38.9148 39.4293,38.5938" id="Fill-7"></path>
            </g>
            <path d="M19.8173,32.1279 C18.2563,32.1279 16.8043,31.2879 16.0283,29.9369 C15.7533,29.4569 15.9193,28.8469 16.3973,28.5709 C16.8783,28.2979 17.4883,28.4619 17.7623,28.9399 C18.1833,29.6729 18.9703,30.1279 19.8173,30.1279 C20.6643,30.1279 21.4523,29.6729 21.8733,28.9399 C22.1493,28.4619 22.7583,28.2969 23.2393,28.5709 C23.7173,28.8469 23.8823,29.4579 23.6073,29.9379 C22.8303,31.2879 21.3783,32.1279 19.8173,32.1279" id="Fill-10" fill="#4F5661"></path>
            <g id="Group-14" transform="translate(32.000000, 0.000000)">
                <mask id="mask-2" fill="white">
                    <use xlink:href="#path-1"></use>
                </mask>
                <g id="Clip-13"></g>
                <path d="M3.3183,2 C3.0233,2 2.8183,2.188 2.8183,2.357 L2.8183,24.697 L7.6353,20.198 C7.8213,20.025 8.0643,19.929 8.3183,19.929 L25.3183,19.929 C25.6133,19.929 25.8183,19.74 25.8183,19.571 L25.8183,2 L3.3183,2 Z M1.8183,28 C1.6833,28 1.5473,27.973 1.4203,27.917 C1.0543,27.759 0.8183,27.398 0.8183,27 L0.8183,2.357 C0.8183,1.058 1.9393,0 3.3183,0 L26.8183,0 C27.3713,0 27.8183,0.447 27.8183,1 L27.8183,19.571 C27.8183,20.871 26.6973,21.929 25.3183,21.929 L8.7133,21.929 L2.5013,27.73 C2.3123,27.907 2.0663,28 1.8183,28 Z" id="Fill-12" fill="#4F5661" mask="url(#mask-2)"></path>
            </g>
            <polygon id="Fill-15" fill="#53C27C" points="44.8183 5.7217 43.6613 4.6007 39.8053 8.5767 37.8953 6.8237 36.8183 8.0217 39.4333 10.4087 39.4373 10.4067 39.8703 10.8257"></polygon>
            <path d="M53.8183,9 L46.8183,9 C46.2653,9 45.8183,8.553 45.8183,8 C45.8183,7.447 46.2653,7 46.8183,7 L53.8183,7 C54.3713,7 54.8183,7.447 54.8183,8 C54.8183,8.553 54.3713,9 53.8183,9" id="Fill-17" fill="#D3E5EF"></path>
            <polygon id="Fill-19" fill="#53C27C" points="44.8183 11.7217 43.6613 10.6007 39.8053 14.5767 37.8953 12.8237 36.8183 14.0217 39.4333 16.4087 39.4373 16.4067 39.8703 16.8257"></polygon>
            <path d="M51.8183,15 L46.8183,15 C46.2653,15 45.8183,14.553 45.8183,14 C45.8183,13.447 46.2653,13 46.8183,13 L51.8183,13 C52.3713,13 52.8183,13.447 52.8183,14 C52.8183,14.553 52.3713,15 51.8183,15" id="Fill-21" fill="#D3E5EF"></path>
        </g>
    </g>
</svg>