<?xml version="1.0" encoding="UTF-8"?>
<svg width="44px" height="60px" viewBox="0 0 44 60" version="1.1" xmlns="http://www.w3.org/2000/svg" xmlns:xlink="http://www.w3.org/1999/xlink">
    <!-- Generator: Sketch 49.3 (51167) - http://www.bohemiancoding.com/sketch -->
    <title>Icon/ App Pin</title>
    <desc>Created with Sketch.</desc>
    <defs>
        <polygon id="path-1" points="0 60 43.305 60 43.305 0 0 0"></polygon>
    </defs>
    <g id="Icon/-App-Pin" stroke="none" stroke-width="1" fill="none" fill-rule="evenodd">
        <g id="Page-1">
            <path d="M21,15 C24.309,15 27,17.691 27,21 C27,24.309 24.309,27 21,27 C17.691,27 15,24.309 15,21 C15,17.691 17.691,15 21,15 Z" id="Fill-1" fill="#53C27C"></path>
            <path d="M6,15 C2.691,15 0,17.691 0,21 C0,24.309 2.691,27 6,27 C9.309,27 12,24.309 12,21 C12,17.691 9.309,15 6,15" id="Fill-3" fill="#D3E5EF"></path>
            <path d="M36,15 C32.691,15 30,17.691 30,21 C30,24.309 32.691,27 36,27 C39.309,27 42,24.309 42,21 C42,17.691 39.309,15 36,15" id="Fill-5" fill="#D3E5EF"></path>
            <path d="M21,30 C17.691,30 15,32.691 15,36 C15,39.309 17.691,42 21,42 C24.309,42 27,39.309 27,36 C27,32.691 24.309,30 21,30" id="Fill-7" fill="#D3E5EF"></path>
            <path d="M6,30 C2.691,30 0,32.691 0,36 C0,39.309 2.691,42 6,42 C9.309,42 12,39.309 12,36 C12,32.691 9.309,30 6,30" id="Fill-9" fill="#D3E5EF"></path>
            <path d="M36,30 C32.691,30 30,32.691 30,36 C30,39.309 32.691,42 36,42 C39.309,42 42,39.309 42,36 C42,32.691 39.309,30 36,30" id="Fill-11" fill="#D3E5EF"></path>
            <path d="M21,0 C17.691,0 15,2.691 15,6 C15,9.309 17.691,12 21,12 C24.309,12 27,9.309 27,6 C27,2.691 24.309,0 21,0" id="Fill-13" fill="#D3E5EF"></path>
            <path d="M6,0 C2.691,0 0,2.691 0,6 C0,9.309 2.691,12 6,12 C9.309,12 12,9.309 12,6 C12,2.691 9.309,0 6,0" id="Fill-15" fill="#53C27C"></path>
            <path d="M36,0 C32.691,0 30,2.691 30,6 C30,9.309 32.691,12 36,12 C39.309,12 42,9.309 42,6 C42,2.691 39.309,0 36,0" id="Fill-17" fill="#D3E5EF"></path>
            <path d="M21,41 L21,23.5 C21,21.567 22.567,20 24.5,20 C26.433,20 28,21.567 28,23.5 L28,35 L39.335,38.022 C41.39,38.57 42.656,40.631 42.219,42.712 L39,54 L20,54 L10,40 L10.615,39.508 C13.015,37.589 16.525,38.034 18.369,40.492 L21,44 L21,41 Z" id="Fill-19" fill="#FFFFFF"></path>
            <mask id="mask-2" fill="white">
                <use xlink:href="#path-1"></use>
            </mask>
            <g id="Clip-22"></g>
            <polygon id="Fill-21" fill="#FFFFFF" mask="url(#mask-2)" points="20 59 39 59 39 54 20 54"></polygon>
            <path d="M41.2568,42.4375 L38.2448,53.0005 L20.5148,53.0005 L11.3658,40.1915 C12.2918,39.5025 13.4248,39.2055 14.5748,39.3505 C15.7778,39.5035 16.8418,40.1225 17.5698,41.0915 L20.1998,44.5995 C20.4578,44.9445 20.9068,45.0865 21.3168,44.9485 C21.7248,44.8125 21.9998,44.4305 21.9998,43.9995 L21.9998,23.5005 C21.9998,22.1215 23.1208,21.0005 24.4998,21.0005 C25.8788,21.0005 26.9998,22.1215 26.9998,23.5005 L26.9998,35.0005 C26.9998,35.4535 27.3048,35.8495 27.7418,35.9655 L39.0768,38.9885 C40.6178,39.3995 41.5688,40.9445 41.2568,42.4375 Z M20.9998,58.0005 L37.9998,58.0005 L37.9998,55.0005 L20.9998,55.0005 L20.9998,58.0005 Z M39.5928,37.0565 L28.9998,34.2315 L28.9998,23.5005 C28.9998,21.0185 26.9818,19.0005 24.4998,19.0005 C22.0188,19.0005 19.9998,21.0185 19.9998,23.5005 L19.9998,41.0005 L19.1688,39.8925 C18.1128,38.4855 16.5708,37.5875 14.8268,37.3665 C13.0798,37.1445 11.3638,37.6275 9.9898,38.7265 L9.3748,39.2185 C8.9608,39.5505 8.8778,40.1495 9.1868,40.5815 L18.9998,54.3205 L18.9998,58.9995 C18.9998,59.5525 19.4468,59.9995 19.9998,59.9995 L38.9998,59.9995 C39.5528,59.9995 39.9998,59.5525 39.9998,58.9995 L39.9998,54.1405 L43.1968,42.9175 C43.7438,40.3155 42.1608,37.7415 39.5928,37.0565 Z" id="Fill-23" fill="#4F5661" mask="url(#mask-2)"></path>
        </g>
    </g>
</svg>