<?xml version="1.0" encoding="UTF-8"?>
<svg width="58px" height="52px" viewBox="0 0 58 52" version="1.1" xmlns="http://www.w3.org/2000/svg" xmlns:xlink="http://www.w3.org/1999/xlink">
    <!-- Generator: Sketch 49.3 (51167) - http://www.bohemiancoding.com/sketch -->
    <title>Icon/ Assets</title>
    <desc>Created with Sketch.</desc>
    <defs></defs>
    <g id="Icon/-Assets" stroke="none" stroke-width="1" fill="none" fill-rule="evenodd">
        <g id="Assets" transform="translate(-1.000000, -1.000000)">
            <path d="M10.9998,37 C10.9998,37 12.9998,28 23.9998,23 L24.9998,26 C24.9998,26 16.9998,31 14.9998,38 L10.9998,37 Z" id="Fill-1" fill="#D3E5EF"></path>
            <path d="M47.9998,37 C47.9998,37 45.9998,28 34.9998,23 L33.9998,26 C33.9998,26 41.9998,31 43.9998,38 L47.9998,37 Z" id="Fill-3" fill="#D3E5EF"></path>
            <path d="M34.9998,42.666 C34.9998,40.457 33.5718,39.159 30.3678,38.458 C27.5728,37.857 27.3568,37.269 27.3568,36.503 C27.3568,35.628 28.2368,35.018 29.4958,35.018 C30.7108,35.018 31.7668,35.418 32.8178,36.278 L33.2888,36.666 L34.8408,34.604 L34.3978,34.246 C33.2598,33.33 32.1378,32.818 30.8118,32.627 L30.8118,30.846 C30.8118,30.38 30.4338,30 29.9678,30 L29.1248,30 C28.6588,30 28.2808,30.38 28.2808,30.846 L28.2808,32.68 C26.1758,33.121 24.7408,34.655 24.7408,36.667 C24.7408,39.517 27.0288,40.408 29.5038,40.948 C32.1658,41.512 32.3648,42.067 32.3648,42.849 C32.3648,43.788 31.4338,44.444 30.0998,44.444 C28.5638,44.444 27.4068,43.961 26.1038,42.78 L25.6548,42.372 L23.9998,44.337 L24.4258,44.718 C25.6228,45.792 26.8788,46.449 28.2808,46.742 L28.2808,48.615 C28.2808,49.082 28.6588,49.461 29.1248,49.461 L29.9678,49.461 C30.4338,49.461 30.8118,49.082 30.8118,48.615 L30.8118,46.865 C33.3088,46.582 34.9998,44.944 34.9998,42.666" id="Fill-5" fill="#5BBF89"></path>
            <path d="M29.5025937,51.9943557 C29.5005437,51.9943754 29.4746503,52.6600494 29.4249134,53.9913778 C29.5668385,53.9996987 29.6343119,54.0004 29.7456,54.0004 L29.7456,52.0004 L29.2536,52.0004 L29.2536,54.0004 C29.3216597,54.0003801 29.3335676,54.0002373 29.3961693,53.9994867 C29.4317877,53.998843 29.4658935,53.9978022 29.4994217,53.9962464 C29.5342741,53.9943412 29.5384069,53.3270732 29.5118202,51.9944425 C25.1893936,51.9529468 21.5896325,50.7691902 19.2033691,48.6514625 C15.9536662,45.7865981 15.0761001,41.3560467 17.0274357,35.938263 C17.8220394,33.7310305 19.2273938,31.7127621 21.0750147,29.9029079 C22.1368487,28.8627786 23.2774574,27.9570925 24.4172472,27.1930272 C24.8149895,26.9263981 25.1832275,26.6970645 25.5119716,26.5057313 C25.7048183,26.393492 25.8384807,26.3204221 25.9029803,26.2871562 L24.9862197,24.5096438 C24.892302,24.5580823 24.728932,24.6473927 24.5059334,24.7771807 C24.1416018,24.9892262 23.7375555,25.2408609 23.303607,25.531761 C22.0671374,26.3606361 20.8314869,27.341789 19.6754788,28.4741675 C17.627321,30.4804595 16.0522936,32.7424 15.1457126,35.2606805 C12.9300024,41.4124867 13.9798291,46.7127267 17.8783065,50.1495273 C20.6486716,52.6081395 24.7053853,53.9444934 29.4619439,53.9940488 C29.4689274,53.9941216 29.4824794,53.6609053 29.5026,52.9944 L29.430499,51.9970027 C29.3128375,52.0003864 29.3128375,52.0003864 29.2536,52.0004 L29.2536,54.0004 L29.7456,54.0004 L29.7456,52.0004 C29.6477886,52.0004 29.6094456,51.9996943 29.5802866,51.9974222 L29.5026,52.9944 L29.5118324,53.9943574 C34.2929159,53.9450532 38.3504354,52.6082221 41.1233691,50.1473375 C45.0193709,46.7127267 46.0691976,41.4124867 43.8534357,35.260537 C42.9835733,32.8442526 41.5809765,30.6574471 39.7960757,28.7031008 C38.7101589,27.5140949 37.5485707,26.482759 36.3857232,25.610829 C35.6826835,25.0836736 35.129006,24.7231075 34.7985468,24.5323439 L33.7986532,26.2644561 C33.8578809,26.2986464 33.9820743,26.3746254 34.1618767,26.4917163 C34.469194,26.6918477 34.8136552,26.9318439 35.1859043,27.2109648 C36.2538773,28.0117558 37.3231096,28.9610918 38.319292,30.0518446 C39.9368153,31.8229238 41.1982741,33.7896793 41.9717126,35.9381195 C43.9230999,41.3560467 43.0455338,45.7865981 39.7983065,48.6492727 C37.4099861,50.7688187 33.8105802,51.9529402 29.5025937,51.9943557 Z" id="Stroke-7" fill="#4B5E69" fill-rule="nonzero"></path>
            <path d="M26.3738,25.6738 L26.1108,25.7478 C26.1718,25.6928 26.2648,25.6678 26.3738,25.6738" id="Fill-9" fill="#4B5E69"></path>
            <path d="M33.9998,26.0645 C32.9908,26.4375 31.4328,26.8735 29.4998,26.8735 C28.4328,26.8735 26.8278,26.7405 24.9998,26.0645 L24.9998,22.0225 C26.0088,22.3955 27.5668,22.8305 29.4998,22.8305 C30.5668,22.8305 32.1718,22.6975 33.9998,22.0225 L33.9998,26.0645 Z" id="Fill-11" fill="#D3E5EF"></path>
            <path d="M32.9998,23.3843 C31.797913,23.6977217 30.6312564,23.8305 29.4998,23.8305 C28.2502755,23.8305 27.0879768,23.6684179 25.9998,23.3846114 L25.9998,25.3478519 C27.2080741,25.7199221 28.3743271,25.8735 29.4998,25.8735 C30.7633026,25.8735 31.9232285,25.6793813 32.9998,25.3478339 L32.9998,23.3843 Z M34.346539,27.0024616 C32.880587,27.5443844 31.2791556,27.8735 29.4998,27.8735 C27.9497721,27.8735 26.3345044,27.6242646 24.6529536,27.0024219 L23.9998,26.7608837 L23.9998,20.5866854 L25.346539,21.0845384 C26.6018115,21.5485786 27.9758096,21.8305 29.4998,21.8305 C30.8264967,21.8305 32.2106733,21.6171486 33.6534051,21.0844112 L34.9998,20.5872468 L34.9998,26.7609687 L34.346539,27.0024616 Z" id="Stroke-13" fill="#4B5E69" fill-rule="nonzero"></path>
            <path d="M29.9998,15 L21.9998,15 C21.1757547,15 20.7053728,15.9407637 21.1998,16.6 C21.2863437,16.7153917 21.4430877,16.9318475 21.6463578,17.22546 C21.9863304,17.7165315 22.3263069,18.2378288 22.6423071,18.7644958 C22.9007097,19.1951669 23.1315512,19.6106815 23.327595,20.0027692 C23.7634692,20.8745175 23.9998,21.5835099 23.9998,22 L25.9998,22 C25.9998,21.1942679 25.6805753,20.2365937 25.1164494,19.108342 C24.8958266,18.6670962 24.6405569,18.2076109 24.3572929,17.7355042 C24.2086506,17.487767 24.0556381,17.241987 23.9001642,17 L29.9998,17 C31.3331333,17 31.3331333,15 29.9998,15 L28.9998,15 C27.6664667,15 27.6664667,17 28.9998,17 L35.0994369,17 C34.9439619,17.241987 34.7909494,17.487767 34.6423071,17.7355042 C34.3590431,18.2076109 34.1037734,18.6670962 33.8831506,19.108342 C33.3190247,20.2365937 32.9998,21.1942679 32.9998,22 L34.9998,22 C34.9998,21.5835099 35.2361308,20.8745175 35.672005,20.0027692 C35.8680488,19.6106815 36.0988903,19.1951669 36.3572929,18.7644958 C36.6732931,18.2378288 37.0132696,17.7165315 37.3532422,17.22546 C37.5565123,16.9318475 37.7132563,16.7153917 37.7998,16.6 C38.2942272,15.9407637 37.8238453,15 36.9998,15 L28.9998,15 L28.9998,17 L29.9998,17 L29.9998,15 Z" id="Stroke-15" fill="#4B5E69" fill-rule="nonzero"></path>
            <path d="M10.9818166,9.51114546 C10.887975,9.55954512 10.7247527,9.64877742 10.5019631,9.77845055 C10.1379829,9.99030266 9.73432904,10.2417116 9.30080382,10.5323562 C8.06554766,11.3604983 6.83111194,12.3408266 5.67624012,13.4723069 C3.62788914,15.4791694 2.05327225,17.7421019 1.14808558,20.2618118 C-1.07093136,26.4127326 -0.0205418544,31.7103493 3.87868776,35.1498344 C5.67838887,36.7485017 8.03233374,37.8784604 10.7858719,38.4826617 C11.1694296,38.566367 11.5591556,38.639786 11.9530269,38.7024711 C12.4984473,38.7892754 13.0109668,38.4174936 13.0977711,37.8720731 C13.1845754,37.3266527 12.8127936,36.8141332 12.2673731,36.7273289 C11.9109629,36.6706058 11.5586128,36.6042279 11.2134139,36.5288945 C8.78079917,35.9951118 6.73771268,35.0143737 5.20431431,33.652269 C1.95327932,30.7845441 1.07538288,26.3568924 3.02985889,20.9392536 C3.82353413,18.7299536 5.22833471,16.7110695 7.07591173,14.9009144 C8.13659419,13.8617157 9.27596663,12.956882 10.4145186,12.1935724 C10.8118263,11.9272089 11.17966,11.6981099 11.5080406,11.5069783 C11.7006674,11.3948611 11.8341711,11.3218758 11.8985834,11.2886545 C12.389429,11.0354964 12.5821127,10.4323621 12.3289545,9.94151657 C12.0757964,9.45067099 11.4726621,9.25798728 10.9818166,9.51114546 Z" id="Stroke-17" fill="#4B5E69" fill-rule="nonzero"></path>
            <path d="M47.1565675,38.7029355 C47.5483998,38.6407399 47.9369614,38.5675403 48.3234531,38.4834277 C51.0761754,37.8791733 53.4304572,36.748781 55.2344428,35.1483496 C59.1311763,31.7100602 60.1816138,26.4122013 57.9614092,20.2608086 C57.0570361,17.7422974 55.4824134,15.4791093 53.4338877,13.4720664 C52.2792068,12.340768 51.0449756,11.3605988 49.809924,10.532592 C49.3764703,10.2419948 48.9728828,9.99062673 48.6089622,9.77880907 C48.3862084,9.64915658 48.2230115,9.55993814 48.1291834,9.51154546 C47.6383379,9.25838728 47.0352036,9.45107099 46.7820455,9.94191657 C46.5288873,10.4327621 46.721571,11.0358964 47.2124166,11.2890545 C47.2768151,11.3222687 47.410293,11.39524 47.6028839,11.5073363 C47.9312046,11.6984333 48.2989716,11.9274911 48.6962074,12.1938071 C49.8345543,12.9569808 50.9737217,13.8616547 52.0342128,14.9006707 C53.8819077,16.7109495 55.2866765,18.7300086 56.0796402,20.9382619 C58.0352593,26.3565865 57.1573199,30.7844549 53.9091784,33.6504621 C52.3716465,35.0145005 50.327828,35.995826 47.8963927,36.5295557 C47.5484796,36.6052706 47.1971821,36.6714502 46.8430325,36.7276645 C46.2975764,36.8142448 45.9255841,37.3266115 46.0121645,37.8720675 C46.0987448,38.4175236 46.6111115,38.7895159 47.1565675,38.7029355 Z" id="Stroke-19" fill="#4B5E69" fill-rule="nonzero"></path>
            <path d="M19.7987662,11.2654435 C19.8581163,11.2997855 19.9824805,11.3760274 20.1624953,11.493467 C20.4701314,11.6941653 20.8149382,11.934763 21.1875525,12.2144946 C22.2565322,13.0170063 23.326758,13.9677952 24.3238531,15.0595249 C24.7752895,15.5538072 25.2019594,16.0671152 25.5999161,16.598987 L27.2012839,15.400813 C26.7633363,14.815493 26.2950593,14.2521293 25.8006231,13.7107661 C24.7140641,12.5210813 23.5518033,11.4885286 22.3882963,10.6150527 C21.6848959,10.0869912 21.1309717,9.72561731 20.8004338,9.53435651 L19.7987662,11.2654435 Z" id="Stroke-21" fill="#4B5E69" fill-rule="nonzero"></path>
            <path d="M12.3738,10.6738 L12.1108,10.7478 C12.1718,10.6928 12.2648,10.6678 12.3738,10.6738" id="Fill-23" fill="#4B5E69"></path>
            <path d="M19.9998,11.0645 C18.9908,11.4375 17.4328,11.8735 15.4998,11.8735 C14.4328,11.8735 12.8278,11.7405 10.9998,11.0645 L10.9998,7.0225 C12.0088,7.3955 13.5668,7.8305 15.4998,7.8305 C16.5668,7.8305 18.1718,7.6975 19.9998,7.0225 L19.9998,11.0645 Z" id="Fill-25" fill="#D3E5EF"></path>
            <path d="M18.9998,8.38430004 C17.797913,8.69772172 16.6312564,8.8305 15.4998,8.8305 C14.2502755,8.8305 13.0879768,8.66841787 11.9998,8.3846114 L11.9998,10.3478519 C13.2080741,10.7199221 14.3743271,10.8735 15.4998,10.8735 C16.7633026,10.8735 17.9232285,10.6793813 18.9998,10.3478339 L18.9998,8.38430004 Z M20.346539,12.0024616 C18.880587,12.5443844 17.2791556,12.8735 15.4998,12.8735 C13.9497721,12.8735 12.3345044,12.6242646 10.6529536,12.0024219 L9.9998,11.7608837 L9.9998,5.58668537 L11.346539,6.08453836 C12.6018115,6.54857864 13.9758096,6.8305 15.4998,6.8305 C16.8264967,6.8305 18.2106733,6.61714862 19.6534051,6.08441122 L20.9998,5.58724679 L20.9998,11.7609687 L20.346539,12.0024616 Z" id="Stroke-27" fill="#4B5E69" fill-rule="nonzero"></path>
            <path d="M15.9998,2 C17.3331333,2 17.3331333,0 15.9998,0 L14.9998,0 C13.6664667,0 13.6664667,2 14.9998,2 L21.0994369,2 C20.9439619,2.24198698 20.7909494,2.487767 20.6423071,2.73550424 C20.3590431,3.20761091 20.1037734,3.66709625 19.8831506,4.10834196 C19.3190247,5.23659366 18.9998,6.19426787 18.9998,7 L20.9998,7 C20.9998,6.58350991 21.2361308,5.87451745 21.672005,5.00276915 C21.8680488,4.61068153 22.0988903,4.19516686 22.3572929,3.76449576 C22.6732931,3.23782882 23.0132696,2.71653151 23.3532422,2.22545998 C23.5565123,1.93184755 23.7132563,1.71539166 23.7998,1.6 C24.2942272,0.940763745 23.8238453,0 22.9998,0 L14.9998,0 L14.9998,2 L15.9998,2 L15.9998,0 L7.9998,0 C7.17575468,0 6.70537281,0.940763745 7.1998,1.6 C7.28634375,1.71539166 7.44308766,1.93184755 7.64635781,2.22545998 C7.9863304,2.71653151 8.32630691,3.23782882 8.64230707,3.76449576 C8.90070974,4.19516686 9.13155122,4.61068153 9.32759503,5.00276915 C9.76346918,5.87451745 9.9998,6.58350991 9.9998,7 L11.9998,7 C11.9998,6.19426787 11.6805753,5.23659366 11.1164494,4.10834196 C10.8958266,3.66709625 10.6405569,3.20761091 10.3572929,2.73550424 C10.2086506,2.487767 10.0556381,2.24198698 9.90016419,2 L15.9998,2 Z" id="Stroke-29" fill="#4B5E69" fill-rule="nonzero"></path>
            <path d="M34.2712363,16.5976779 C34.6722003,16.0598173 35.1026753,15.5409622 35.5585629,15.0415929 C36.5505911,13.954947 37.6153835,13.0086133 38.6789272,12.2098949 C39.0496369,11.931493 39.3926744,11.6920475 39.6987219,11.4923201 C39.8777816,11.3754652 40.0014622,11.2996188 40.0604451,11.265479 L39.0585549,9.53452095 C38.7294552,9.72500609 38.1780562,10.0848505 37.4779068,10.6106607 C36.3198261,11.4803761 35.162994,12.5085101 34.0815061,13.6931482 C33.5819611,14.2403388 33.1092693,14.8100783 32.6677637,15.4023221 L34.2712363,16.5976779 Z" id="Stroke-31" fill="#4B5E69" fill-rule="nonzero"></path>
            <path d="M47.4812,10.6738 L47.7432,10.7478 C47.6832,10.6928 47.5902,10.6678 47.4812,10.6738" id="Fill-33" fill="#4B5E69"></path>
            <path d="M39.8552,11.0645 C40.8642,11.4375 42.4212,11.8735 44.3552,11.8735 C45.4212,11.8735 47.0262,11.7405 48.8552,11.0645 L48.8552,7.0225 C47.8452,7.3955 46.2882,7.8305 44.3552,7.8305 C43.2882,7.8305 41.6832,7.6975 39.8552,7.0225 L39.8552,11.0645 Z" id="Fill-35" fill="#D3E5EF"></path>
            <path d="M39.508461,12.0024616 L38.8552,11.7609687 L38.8552,5.58717824 L40.2015949,6.08441122 C41.6443267,6.61714862 43.0285033,6.8305 44.3552,6.8305 C45.8788921,6.8305 47.2510449,6.54891078 48.508763,6.08442674 L49.8552,5.58717824 L49.8552,11.7610158 L49.2018796,12.0024836 C47.519661,12.6242331 45.9041891,12.8735 44.3552,12.8735 C42.5751556,12.8735 40.9749445,12.5445809 39.508461,12.0024616 Z M44.3552,10.8735 C45.4799113,10.8735 46.6463105,10.7198747 47.8552,10.3477461 L47.8552,8.38448878 C46.7665497,8.66848188 45.6049632,8.8305 44.3552,8.8305 C43.2237436,8.8305 42.057087,8.69772172 40.8552,8.38430004 L40.8552,10.3478604 C41.931856,10.6795026 43.0910924,10.8735 44.3552,10.8735 Z" id="Stroke-37" fill="#4B5E69" fill-rule="nonzero"></path>
            <path d="M44.8552,2 L44.8552,0 L43.8552,0 L43.8552,2 L49.9548369,2 C49.7993619,2.24198698 49.6463494,2.487767 49.4977071,2.73550424 C49.2144431,3.20761091 48.9591734,3.66709625 48.7385506,4.10834196 C48.1744247,5.23659366 47.8552,6.19426787 47.8552,7 L49.8552,7 C49.8552,6.58350991 50.0915308,5.87451745 50.527405,5.00276915 C50.7234488,4.61068153 50.9542903,4.19516686 51.2126929,3.76449576 C51.5286931,3.23782882 51.8686696,2.71653151 52.2086422,2.22545998 C52.4119123,1.93184755 52.5686563,1.71539166 52.6552,1.6 C53.1496272,0.940763745 52.6792453,0 51.8552,0 L43.8552,0 C42.5218667,0 42.5218667,2 43.8552,2 L44.8552,2 C46.1885333,2 46.1885333,0 44.8552,0 L36.8552,0 C36.0311547,0 35.5607728,0.940763745 36.0552,1.6 C36.1417437,1.71539166 36.2984877,1.93184755 36.5017578,2.22545998 C36.8417304,2.71653151 37.1817069,3.23782882 37.4977071,3.76449576 C37.7561097,4.19516686 37.9869512,4.61068153 38.182995,5.00276915 C38.6188692,5.87451745 38.8552,6.58350991 38.8552,7 L40.8552,7 C40.8552,6.19426787 40.5359753,5.23659366 39.9718494,4.10834196 C39.7512266,3.66709625 39.4959569,3.20761091 39.2126929,2.73550424 C39.0640506,2.487767 38.9110381,2.24198698 38.7555642,2 L44.8552,2 Z" id="Stroke-39" fill="#4B5E69" fill-rule="nonzero"></path>
        </g>
    </g>
</svg>