<?xml version="1.0" encoding="UTF-8"?>
<svg width="57px" height="62px" viewBox="0 0 57 62" version="1.1" xmlns="http://www.w3.org/2000/svg" xmlns:xlink="http://www.w3.org/1999/xlink">
    <!-- Generator: Sketch 49.3 (51167) - http://www.bohemiancoding.com/sketch -->
    <title>Icon/ Audit defence</title>
    <desc>Created with Sketch.</desc>
    <defs>
        <polygon id="path-1" points="0 61 0 0.999 56.16 0.999 56.16 61"></polygon>
    </defs>
    <g id="Icon/-Audit-defence" stroke="none" stroke-width="1" fill="none" fill-rule="evenodd">
        <g id="Audit-defence">
            <path d="M50.0831,12.4665 C50.0531,11.9585 49.6451,11.5545 49.1371,11.5285 C38.6911,10.9915 31.7031,8.7355 28.4671,7.4375 C28.2281,7.3415 27.9601,7.3425 27.7211,7.4375 C24.4981,8.7355 17.5231,10.9925 7.0241,11.5295 C6.5161,11.5555 6.1071,11.9595 6.0771,12.4685 C5.4961,22.1345 7.5081,40.3885 27.5171,54.0435 C27.6871,54.1595 27.8831,54.2175 28.0801,54.2175 C28.2771,54.2175 28.4741,54.1595 28.6441,54.0435 C48.6551,40.3875 50.6661,22.1325 50.0831,12.4665" id="Fill-1" fill="#D3E5EF"></path>
            <path d="M45.2452,15.2585 C39.0012,14.6805 33.3462,13.4855 28.4372,11.7055 C28.2172,11.6255 27.9752,11.6265 27.7552,11.7065 C22.8572,13.4875 17.1912,14.6825 10.9162,15.2605 C10.3912,15.3095 9.9952,15.7555 10.0082,16.2815 C10.2392,25.3755 13.4582,38.4495 27.4752,49.0875 C27.6542,49.2235 27.8672,49.2905 28.0802,49.2905 C28.2932,49.2905 28.5062,49.2235 28.6842,49.0875 C42.7062,38.4465 45.9232,25.3735 46.1522,16.2795 C46.1652,15.7535 45.7682,15.3075 45.2452,15.2585" id="Fill-3" fill="#53C27C"></path>
            <g id="Group-7" transform="translate(0.000000, 0.000700)">
                <mask id="mask-2" fill="white">
                    <use xlink:href="#path-1"></use>
                </mask>
                <g id="Clip-6"></g>
                <path d="M28.0899,3.001 C27.9529,3.001 27.8169,3.031 27.6929,3.09 C25.5189,4.114 17.3489,7.469 3.4169,7.641 C2.9389,7.647 2.5409,7.985 2.4729,8.447 C1.3629,15.903 -0.1051,41.575 27.5789,58.859 C27.8839,59.051 28.2769,59.051 28.5809,58.859 C56.2659,41.575 54.7969,15.903 53.6879,8.447 C53.6179,7.985 53.2219,7.647 52.7439,7.641 C39.2669,7.475 31.2919,4.402 28.4889,3.089 C28.3639,3.03 28.2269,3.001 28.0899,3.001 M28.0799,61 C27.5369,61 26.9939,60.852 26.5209,60.557 C-2.1961,42.627 -0.6601,15.913 0.4939,8.152 C0.7089,6.715 1.9279,5.658 3.3929,5.641 C16.9209,5.474 24.7589,2.262 26.8379,1.281 C27.6299,0.907 28.5409,0.904 29.3369,1.278 C31.4329,2.26 39.3149,5.475 52.7689,5.641 C54.2329,5.658 55.4509,6.715 55.6659,8.152 C56.8199,15.913 58.3569,42.627 29.6399,60.557 C29.1659,60.852 28.6229,61 28.0799,61" id="Fill-5" fill="#4F5661" mask="url(#mask-2)"></path>
            </g>
            <path d="M38.46,22.9138 L35.455,20.0018 L25.44,30.3308 L20.48,25.7748 L17.682,28.8878 L24.653,35.2938 C25.185,35.7818 26.007,35.7578 26.509,35.2408 L38.46,22.9138 Z" id="Fill-8" fill="#FFFFFF"></path>
        </g>
    </g>
</svg>