<?xml version="1.0" encoding="UTF-8"?>
<svg width="58px" height="62px" viewBox="0 0 58 62" version="1.1" xmlns="http://www.w3.org/2000/svg" xmlns:xlink="http://www.w3.org/1999/xlink">
    <!-- Generator: Sketch 49.3 (51167) - http://www.bohemiancoding.com/sketch -->
    <title>Icon/ Audit tool kit</title>
    <desc>Created with Sketch.</desc>
    <defs>
        <polygon id="path-1" points="55.8475068 0.761 0 0.761 0 61 27.9237534 61 55.8475068 61 55.8475068 0.761"></polygon>
    </defs>
    <g id="Icon/-Audit-tool-kit" stroke="none" stroke-width="1" fill="none" fill-rule="evenodd">
        <g id="Audit-tool-kit">
            <g id="Group-3" transform="translate(0.000000, 0.239400)">
                <mask id="mask-2" fill="white">
                    <use xlink:href="#path-1"></use>
                </mask>
                <g id="Clip-2"></g>
                <path d="M27.92,61 C27.741,61 27.564,60.952 27.404,60.857 C9.589,50.142 3.297,36.464 1.156,26.877 C-1.169,16.467 0.718,8.693 0.8,8.368 C0.911,7.921 1.35,7.638 1.775,7.61 C1.898,7.611 2.021,7.611 2.142,7.611 C18.844,7.611 27.183,1.074 27.263,1.008 C27.274,0.997 27.286,0.987 27.299,0.978 C27.663,0.687 28.181,0.689 28.545,0.979 C28.629,1.046 37.059,7.611 53.703,7.611 C53.826,7.611 53.931,7.594 54.07,7.61 C54.529,7.61 54.93,7.923 55.041,8.368 C55.168,8.879 58.091,21.039 51.959,35.296 C51.74,35.804 51.149,36.033 50.645,35.819 C50.138,35.601 49.903,35.013 50.121,34.505 C55.143,22.833 53.774,12.441 53.255,9.61 C38.552,9.514 30.21,4.572 27.928,3.003 C25.293,4.873 16.61,9.512 2.588,9.609 C1.732,14.404 -1.453,40.837 27.921,58.831 C29.413,57.919 30.896,56.933 32.437,55.827 C32.885,55.503 33.509,55.606 33.832,56.057 C34.154,56.506 34.051,57.13 33.603,57.452 C31.839,58.718 30.149,59.831 28.434,60.858 C28.275,60.953 28.098,61 27.92,61" id="Fill-1" fill="#4F5661" mask="url(#mask-2)"></path>
            </g>
            <path d="M15.75,43.5294 L27.3,31.8794 C30.21,33.1094 33.7,32.5494 36.07,30.1694 C38.45,27.7994 39.01,24.3094 37.78,21.3994 L32.54,26.6394 L28.29,22.3994 L33.54,17.1494 C30.62,15.9194 27.13,16.4894 24.76,18.8594 C22.39,21.2294 21.82,24.7294 23.05,27.6394 L12.16,38.5294 C5.99,28.4894 5.67,18.8394 6.09,13.7394 C16.31,13.1394 23.68,10.3294 27.939,7.9094 C31.77,10.0194 39.06,13.0994 49.75,13.7394 C50.11,18.0894 49.93,25.8094 45.99,34.2394 L45.92,34.2394 C37.65,34.2394 30.92,40.9694 30.92,49.2394 C30.92,50.1894 31.01,51.1194 31.18,52.0194 C30.15,52.7994 29.06,53.5694 27.92,54.3294 C22.77,50.9094 18.8,47.2394 15.75,43.5294" id="Fill-4" fill="#D3E5EF"></path>
            <path d="M16.75,44.5294 C16.495,44.5294 16.241,44.4324 16.046,44.2394 C15.653,43.8504 15.651,43.2174 16.04,42.8254 L27.59,31.1754 C27.877,30.8834 28.313,30.7974 28.689,30.9584 C31.333,32.0764 34.346,31.4884 36.361,29.4634 C38.014,27.8184 38.709,25.5144 38.307,23.2884 L34.247,27.3464 C33.856,27.7374 33.225,27.7364 32.834,27.3474 L28.584,23.1074 C28.396,22.9204 28.29,22.6654 28.29,22.4004 C28.29,22.1344 28.396,21.8804 28.583,21.6924 L32.65,17.6254 C30.426,17.2244 28.116,17.9184 26.467,19.5664 C24.441,21.5924 23.854,24.6074 24.971,27.2504 C25.129,27.6254 25.045,28.0584 24.757,28.3464 L13.867,39.2364 C13.477,39.6274 12.844,39.6274 12.453,39.2364 C12.063,38.8454 12.063,38.2134 12.453,37.8224 L22.886,27.3894 C21.795,24.1544 22.611,20.5934 25.053,18.1524 C27.653,15.5514 31.529,14.7964 34.929,16.2274 C35.235,16.3574 35.457,16.6314 35.521,16.9574 C35.585,17.2844 35.482,17.6214 35.247,17.8564 L30.705,22.3984 L33.539,25.2264 L38.073,20.6924 C38.309,20.4574 38.646,20.3504 38.972,20.4184 C39.299,20.4814 39.572,20.7044 39.701,21.0094 C41.138,24.4094 40.382,28.2824 37.776,30.8784 C35.345,33.3184 31.789,34.1354 28.553,33.0444 L17.46,44.2334 C17.265,44.4304 17.008,44.5294 16.75,44.5294" id="Fill-6" fill="#4F5661"></path>
            <path d="M57.92,49.2394 C57.92,55.8664 52.547,61.2394 45.92,61.2394 C39.293,61.2394 33.92,55.8664 33.92,49.2394 C33.92,42.6124 39.293,37.2394 45.92,37.2394 C52.547,37.2394 57.92,42.6124 57.92,49.2394" id="Fill-8" fill="#53C27C"></path>
            <path d="M52.7598,45.7355 L51.3618,44.3805 C51.1638,44.1885 50.8478,44.1925 50.6558,44.3895 L44.5308,50.6545 L41.6748,47.9655 C41.5768,47.8745 41.4508,47.8275 41.3118,47.8305 C41.1768,47.8365 41.0498,47.8955 40.9598,47.9965 L39.6568,49.4455 C39.4758,49.6475 39.4888,49.9595 39.6888,50.1445 L43.7548,53.9355 C43.7718,53.9515 43.7888,53.9655 43.8078,53.9785 L44.2758,54.4315 C44.3718,54.5255 44.4978,54.5725 44.6228,54.5725 C44.7528,54.5725 44.8828,54.5215 44.9808,54.4225 L52.7698,46.4445 C52.8628,46.3485 52.9138,46.2205 52.9118,46.0885 C52.9098,45.9555 52.8558,45.8285 52.7598,45.7355" id="Fill-10" fill="#FFFFFF"></path>
        </g>
    </g>
</svg>