<?xml version="1.0" encoding="UTF-8"?>
<svg width="58px" height="58px" viewBox="0 0 58 58" version="1.1" xmlns="http://www.w3.org/2000/svg" xmlns:xlink="http://www.w3.org/1999/xlink">
    <!-- Generator: Sketch 49.3 (51167) - http://www.bohemiancoding.com/sketch -->
    <title>Icon/ Bank</title>
    <desc>Created with Sketch.</desc>
    <defs></defs>
    <g id="Icon/-Bank" stroke="none" stroke-width="1" fill="none" fill-rule="evenodd">
        <g id="Bank">
            <polygon id="Fill-1" fill="#D3E5EF" points="11 53 19 53 19 28 11 28"></polygon>
            <polygon id="Fill-2" fill="#D3E5EF" points="25 53 33 53 33 28 25 28"></polygon>
            <polygon id="Fill-3" fill="#D3E5EF" points="39 53 47 53 47 28 39 28"></polygon>
            <g id="Group-12">
                <path d="M56,52 C57.6562847,52 59,53.3437153 59,55 L59,58 C59,58.5522847 58.5522847,59 58,59 L0,59 C-0.55228475,59 -1,58.5522847 -1,58 L-1,55 C-1,53.3437153 0.34371525,52 2,52 L4,52 L4,28 C4,27.4477153 4.44771525,27 5,27 L11,27 C11.5522847,27 12,27.4477153 12,28 L12,52 L18,52 L18,28 C18,27.4477153 18.4477153,27 19,27 L25,27 C25.5522847,27 26,27.4477153 26,28 L26,52 L32,52 L32,28 C32,27.4477153 32.4477153,27 33,27 L39,27 C39.5522847,27 40,27.4477153 40,28 L40,52 L46,52 L46,28 C46,27.4477153 46.4477153,27 47,27 L53,27 C53.5522847,27 54,27.4477153 54,28 L54,52 L56,52 Z M57,57 L57,55 C57,54.4482847 56.5517153,54 56,54 L53,54 C52.4477153,54 52,53.5522847 52,53 L52,29 L48,29 L48,53 C48,53.5522847 47.5522847,54 47,54 L39,54 C38.4477153,54 38,53.5522847 38,53 L38,29 L34,29 L34,53 C34,53.5522847 33.5522847,54 33,54 L25,54 C24.4477153,54 24,53.5522847 24,53 L24,29 L20,29 L20,53 C20,53.5522847 19.5522847,54 19,54 L11,54 C10.4477153,54 10,53.5522847 10,53 L10,29 L6,29 L6,53 C6,53.5522847 5.55228475,54 5,54 L2,54 C1.44828475,54 1,54.4482847 1,55 L1,57 L57,57 Z" id="Stroke-4" fill="#4B5E69" fill-rule="nonzero"></path>
                <path d="M33.6284,18.7002 C33.6284,16.5502 31.3734,15.5832 29.4204,14.9332 C27.7894,14.3832 27.0444,13.8492 27.0444,13.0662 C27.0444,12.5332 27.6684,11.9002 28.8164,11.9002 C29.9224,11.9002 31.4544,12.7332 31.6144,12.8162 C31.8564,12.9502 32.1584,12.8162 32.3194,12.6172 L33.0854,11.6672 C33.2254,11.5002 33.1654,11.2172 32.9634,11.1172 C32.6344,10.9122 31.5174,10.3022 30.0004,10.0842 L30.0004,8.5002 C30.0004,8.2232 29.7764,8.0002 29.5004,8.0002 L28.5004,8.0002 C28.2234,8.0002 28.0004,8.2232 28.0004,8.5002 L28.0004,10.0642 C25.4824,10.3682 24.4074,11.8732 24.4074,13.2002 C24.4074,15.1672 26.2994,16.1672 28.1924,16.8002 C29.8834,17.3672 30.7494,17.9502 30.7494,18.8002 C30.7494,19.5162 29.9634,20.0832 28.9174,20.0832 C27.6084,20.0832 25.9774,19.0992 25.8764,19.0502 C25.6954,18.9332 25.3534,18.9332 25.1924,19.1672 L24.4674,20.2002 C24.2864,20.4672 24.3864,20.5502 24.5674,20.7002 C24.9144,20.9722 26.0704,21.7342 28.0004,21.9432 L28.0004,23.5002 C28.0004,23.7762 28.2234,24.0002 28.5004,24.0002 L29.5004,24.0002 C29.7764,24.0002 30.0004,23.7762 30.0004,23.5002 L30.0004,21.9292 C32.2514,21.6052 33.6284,20.2052 33.6284,18.7002" id="Fill-6" fill="#5BBF89"></path>
                <path d="M56.9995,27 L0.9995,27 L0.9995,24 L10.9585,24 C11.5107847,24 11.9585,23.5522847 11.9585,23 C11.9585,22.4477153 11.5107847,22 10.9585,22 L-0.0005,22 C-0.55278475,22 -1.0005,22.4477153 -1.0005,23 L-1.0005,28 C-1.0005,28.5522847 -0.55278475,29 -0.0005,29 L57.9995,29 C58.5517847,29 58.9995,28.5522847 58.9995,28 L58.9995,23 C58.9995,22.4477153 58.5517847,22 57.9995,22 L46.9575,22 C46.4052153,22 45.9575,22.4477153 45.9575,23 C45.9575,23.5522847 46.4052153,24 46.9575,24 L56.9995,24 L56.9995,27 Z" id="Stroke-8" fill="#4B5E69" fill-rule="nonzero"></path>
                <path d="M28.9987242,1.33441083 L54.3379404,23.7490092 C54.7516068,24.1149308 55.3835877,24.0762259 55.7495092,23.6625596 C56.1154308,23.2488932 56.0767259,22.6169123 55.6630596,22.2509908 L29.6620596,-0.749009209 C29.284072,-1.08336998 28.7161879,-1.08370013 28.3378118,-0.749779083 L2.27581176,22.2502209 C1.86172021,22.6156612 1.82228059,23.2475967 2.18772092,23.6616882 C2.55316124,24.0757798 3.18509669,24.1152194 3.59918824,23.7497791 L28.9987242,1.33441083 Z" id="Stroke-10" fill="#4B5E69" fill-rule="nonzero"></path>
            </g>
        </g>
    </g>
</svg>