<?xml version="1.0" encoding="UTF-8"?>
<svg width="60px" height="56px" viewBox="0 0 60 56" version="1.1" xmlns="http://www.w3.org/2000/svg" xmlns:xlink="http://www.w3.org/1999/xlink">
    <!-- Generator: Sketch 49.3 (51167) - http://www.bohemiancoding.com/sketch -->
    <title>Icon/ Best Rental Depreciation Method</title>
    <desc>Created with Sketch.</desc>
    <defs>
        <polygon id="path-1" points="0 55.9932 59.857 55.9932 59.857 0.0002 0 0.0002"></polygon>
    </defs>
    <g id="Icon/-Best-Rental-Depreciation-Method" stroke="none" stroke-width="1" fill="none" fill-rule="evenodd">
        <g id="Page-1">
            <path d="M52.0184,52.9941 L50.8574,52.9941 L50.8574,47.9941 C54.2064,48.3621 57.0604,48.8681 58.4014,49.5461 C62.9654,51.8451 55.6644,52.9941 52.0184,52.9941 Z" id="Fill-1" fill="#D3E5EF"></path>
            <mask id="mask-2" fill="white">
                <use xlink:href="#path-1"></use>
            </mask>
            <g id="Clip-4"></g>
            <polygon id="Fill-3" fill="#D3E5EF" mask="url(#mask-2)" points="35.857 39.9942 44.857 39.9942 44.857 28.9942 35.857 28.9942"></polygon>
            <path d="M36.857,38.9942 L43.857,38.9942 L43.857,29.9942 L36.857,29.9942 L36.857,38.9942 Z M44.857,40.9942 L35.857,40.9942 C35.304,40.9942 34.857,40.5472 34.857,39.9942 L34.857,28.9942 C34.857,28.4412 35.304,27.9942 35.857,27.9942 L44.857,27.9942 C45.41,27.9942 45.857,28.4412 45.857,28.9942 L45.857,39.9942 C45.857,40.5472 45.41,40.9942 44.857,40.9942 Z" id="Fill-5" fill="#4F5661" mask="url(#mask-2)"></path>
            <path d="M25.8572,44.9941 C25.3042,44.9941 24.8572,44.5471 24.8572,43.9941 L24.8572,40.9941 C24.8572,40.4411 25.3042,39.9941 25.8572,39.9941 C26.4102,39.9941 26.8572,40.4411 26.8572,40.9941 L26.8572,43.9941 C26.8572,44.5471 26.4102,44.9941 25.8572,44.9941" id="Fill-6" fill="#4F5661" mask="url(#mask-2)"></path>
            <path d="M55.117,25.585 L31.5,5.786 C31.314,5.631 31.086,5.553 30.857,5.553 C30.629,5.553 30.4,5.631 30.215,5.786 L6.597,25.585 L4.833,23.48 L30.296,2.191 C30.623,1.932 31.095,1.931 31.404,2.181 L56.882,23.48 L55.117,25.585 Z M44.857,5.994 L49.857,5.994 L49.857,15.001 L44.857,10.82 L44.857,5.994 Z M19.857,50.994 L28.857,50.994 L28.857,34.994 L19.857,34.994 L19.857,50.994 Z M58.932,22.587 L51.857,16.673 L51.857,5.852 C51.857,4.827 51.016,3.994 49.982,3.994 L44.732,3.994 C43.698,3.994 42.857,4.827 42.857,5.852 L42.857,9.148 L32.673,0.635 C31.621,-0.214 30.094,-0.213 29.027,0.646 L2.782,22.587 C2.579,22.758 2.451,23.002 2.428,23.266 C2.404,23.53 2.487,23.793 2.657,23.997 L5.707,27.637 C5.878,27.84 6.122,27.967 6.386,27.99 C6.648,28.019 6.913,27.932 7.116,27.761 L9.857,25.463 L9.857,33.183 C9.857,33.735 10.304,34.183 10.857,34.183 C11.41,34.183 11.857,33.735 11.857,33.183 L11.857,23.994 C11.857,23.931 11.833,23.876 11.821,23.816 L30.857,7.857 L49.893,23.816 C49.882,23.876 49.857,23.931 49.857,23.994 L49.857,50.994 L30.857,50.994 L30.857,33.994 C30.857,33.441 30.41,32.994 29.857,32.994 L18.857,32.994 C18.304,32.994 17.857,33.441 17.857,33.994 L17.857,50.994 L15.046,50.994 C14.493,50.994 14.046,51.441 14.046,51.994 C14.046,52.547 14.493,52.994 15.046,52.994 L18.857,52.994 L29.857,52.994 L50.857,52.994 C51.41,52.994 51.857,52.547 51.857,51.994 L51.857,25.463 L54.598,27.761 C54.779,27.912 55.007,27.994 55.241,27.994 C55.27,27.994 55.3,27.993 55.329,27.99 C55.593,27.967 55.837,27.84 56.008,27.637 L59.057,23.997 C59.227,23.793 59.31,23.53 59.287,23.266 C59.263,23.002 59.136,22.758 58.932,22.587 Z" id="Fill-7" fill="#4F5661" mask="url(#mask-2)"></path>
            <path d="M0.241,47.6445 L7.097,55.6435 C7.497,56.1095 8.218,56.1095 8.617,55.6435 L15.473,47.6445 C15.728,47.3485 15.786,46.9305 15.623,46.5765 C15.46,46.2215 15.105,45.9945 14.715,45.9945 L10.857,45.9945 L10.857,36.9955 C10.857,36.4425 10.409,35.9945 9.856,35.9945 L5.858,35.9945 C5.305,35.9945 4.857,36.4425 4.857,36.9955 L4.857,45.9945 L1,45.9945 C0.609,45.9945 0.255,46.2215 0.092,46.5765 C-0.071,46.9305 -0.014,47.3485 0.241,47.6445" id="Fill-8" fill="#F4877A" mask="url(#mask-2)"></path>
        </g>
    </g>
</svg>