<?xml version="1.0" encoding="UTF-8"?>
<svg width="59px" height="60px" viewBox="0 0 59 60" version="1.1" xmlns="http://www.w3.org/2000/svg" xmlns:xlink="http://www.w3.org/1999/xlink">
    <!-- Generator: Sketch 49.3 (51167) - http://www.bohemiancoding.com/sketch -->
    <title>Icon/ Big Life Changes</title>
    <desc>Created with Sketch.</desc>
    <defs>
        <polygon id="path-1" points="0.843923046 0.224 4.55547695 0.224 4.55547695 8.1221 0.843923046 8.1221 0.843923046 0.224"></polygon>
        <polygon id="path-3" points="57.9997 58 0 58 0 0.00845 57.9997 0.00845"></polygon>
    </defs>
    <g id="Icon/-Big-Life-Changes" stroke="none" stroke-width="1" fill="none" fill-rule="evenodd">
        <g id="Page-1">
            <path d="M28.6172,54.038 C22.2992,60.356 12.0562,60.356 5.7382,54.038 C-0.5798,47.721 -0.5798,37.477 5.7382,31.159 L29.3832,7.515 C35.7002,1.197 45.9442,1.197 52.2622,7.515 C58.5792,13.833 58.5792,24.076 52.2622,30.393 L28.6172,54.038 Z" id="Fill-1" fill="#D3E5EF"></path>
            <path d="M33.3076,34.6962 C33.1456,34.7172 32.9846,34.7392 32.8236,34.7502 L32.7256,34.6642 L33.3076,34.6962 Z" id="Fill-3" fill="#4F5661"></path>
            <path d="M45.3979,12.9531 C47.1589,15.6371 43.7209,17.9001 41.0379,15.2171 C37.6179,11.7971 42.0159,6.4131 46.5329,8.6301 C50.2099,10.6991 52.6919,14.6391 52.6919,19.1571 C52.6919,25.8261 47.2869,31.2311 40.6189,31.2311 C33.9509,31.2311 28.5449,25.8261 28.5449,19.1571 C28.5449,13.8621 31.9549,9.3621 36.6979,7.7351" id="Fill-5" fill="#FFFFFF"></path>
            <path d="M40.6187,32.2314 C33.4107,32.2314 27.5457,26.3664 27.5457,19.1574 C27.5457,13.5704 31.0937,8.6004 36.3737,6.7894 C36.8967,6.6124 37.4657,6.8884 37.6437,7.4114 C37.8237,7.9334 37.5447,8.5024 37.0227,8.6814 C32.5507,10.2144 29.5457,14.4244 29.5457,19.1574 C29.5457,25.2634 34.5127,30.2314 40.6187,30.2314 C46.7247,30.2314 51.6927,25.2634 51.6927,19.1574 C51.6927,15.1634 49.5277,11.4624 46.0427,9.5014 C44.1267,8.5634 42.2947,9.4314 41.4257,10.6474 C40.7117,11.6454 40.4207,13.1844 41.7447,14.5094 C42.7887,15.5534 43.9357,15.6114 44.5307,15.1304 C44.9867,14.7594 44.9977,14.1664 44.5617,13.5024 C44.2587,13.0404 44.3877,12.4194 44.8497,12.1174 C45.3107,11.8134 45.9307,11.9434 46.2337,12.4044 C47.3917,14.1694 46.8467,15.8244 45.7927,16.6814 C44.5047,17.7314 42.2137,17.8074 40.3307,15.9234 C38.5387,14.1324 38.3257,11.5444 39.7987,9.4834 C41.1427,7.6044 43.9617,6.2524 46.9737,7.7324 C51.1377,10.0744 53.6927,14.4414 53.6927,19.1574 C53.6927,26.3664 47.8277,32.2314 40.6187,32.2314" id="Fill-7" fill="#4F5661"></path>
            <path d="M35.9233,16.8163 C35.7413,16.8163 35.5943,16.9633 35.5943,17.1453 C35.5943,17.3273 35.7413,17.4743 35.9233,17.4743 C36.1053,17.4743 36.2533,17.3273 36.2533,17.1453 C36.2533,16.9633 36.1053,16.8163 35.9233,16.8163 M35.9233,18.8163 C35.0023,18.8163 34.2533,18.0663 34.2533,17.1453 C34.2533,16.2243 35.0023,15.4743 35.9233,15.4743 C36.8443,15.4743 37.5943,16.2243 37.5943,17.1453 C37.5943,18.0663 36.8443,18.8163 35.9233,18.8163" id="Fill-9" fill="#4F5661"></path>
            <path d="M43.9727,20.8408 C43.7907,20.8408 43.6427,20.9878 43.6427,21.1698 C43.6427,21.3518 43.7907,21.4988 43.9727,21.4988 C44.1547,21.4988 44.3017,21.3518 44.3017,21.1698 C44.3017,20.9878 44.1547,20.8408 43.9727,20.8408 M43.9727,22.8408 C43.0517,22.8408 42.3017,22.0908 42.3017,21.1698 C42.3017,20.2488 43.0517,19.4988 43.9727,19.4988 C44.8937,19.4988 45.6427,20.2488 45.6427,21.1698 C45.6427,22.0908 44.8937,22.8408 43.9727,22.8408" id="Fill-11" fill="#4F5661"></path>
            <path d="M37.9697,25.3798 C37.5997,25.3798 37.2247,25.2988 36.8727,25.1388 C36.3067,24.8818 35.8547,24.4448 35.6007,23.9088 C35.3227,23.3238 35.3097,22.6668 35.5647,22.1058 C35.6747,21.8628 35.8757,21.6758 36.1237,21.5818 C36.3727,21.4898 36.6467,21.4988 36.8887,21.6088 L39.5227,22.8048 C39.7637,22.9138 39.9517,23.1148 40.0457,23.3628 C40.1377,23.6118 40.1287,23.8878 40.0187,24.1288 C39.7637,24.6908 39.2607,25.1128 38.6377,25.2888 C38.4207,25.3498 38.1967,25.3798 37.9697,25.3798" id="Fill-13" fill="#4F5661"></path>
            <path d="M7.0566,24.5331 C6.7446,24.5331 6.4296,24.4361 6.1606,24.2351 L1.3516,20.6461 C0.6876,20.1511 0.5506,19.2111 1.0466,18.5471 C1.5426,17.8841 2.4826,17.7461 3.1456,18.2421 L7.9546,21.8311 C8.6186,22.3261 8.7556,23.2661 8.2596,23.9301 C7.9656,24.3251 7.5136,24.5331 7.0566,24.5331" id="Fill-15" fill="#53C27C"></path>
            <g id="Group-19" transform="translate(19.000000, 0.776300)">
                <mask id="mask-2" fill="white">
                    <use xlink:href="#path-1"></use>
                </mask>
                <g id="Clip-18"></g>
                <path d="M3.0537,8.1221 C2.3207,8.1221 1.6797,7.5851 1.5717,6.8381 L0.8597,1.9391 C0.7407,1.1191 1.3077,0.3581 2.1277,0.2391 C2.9487,0.1211 3.7087,0.6861 3.8277,1.5081 L4.5397,6.4061 C4.6587,7.2261 4.0917,7.9871 3.2717,8.1061 C3.1987,8.1171 3.1257,8.1221 3.0537,8.1221" id="Fill-17" fill="#53C27C" mask="url(#mask-2)"></path>
            </g>
            <path d="M13.3828,15.4003 C12.9848,15.4003 12.5878,15.2433 12.2928,14.9313 L6.7408,9.0643 C6.1718,8.4633 6.1968,7.5123 6.7988,6.9433 C7.4018,6.3743 8.3508,6.4013 8.9198,7.0023 L14.4718,12.8693 C15.0408,13.4703 15.0148,14.4213 14.4138,14.9903 C14.1238,15.2643 13.7528,15.4003 13.3828,15.4003" id="Fill-20" fill="#53C27C"></path>
            <path d="M57.0547,42.5878 C56.7427,42.5878 56.4277,42.4908 56.1587,42.2898 L51.3497,38.7018 C50.6857,38.2068 50.5487,37.2668 51.0447,36.6028 C51.5397,35.9388 52.4797,35.8018 53.1437,36.2978 L57.9527,39.8858 C58.6167,40.3808 58.7537,41.3208 58.2577,41.9848 C57.9637,42.3798 57.5117,42.5878 57.0547,42.5878" id="Fill-22" fill="#53C27C"></path>
            <path d="M37.959,59.5331 C37.226,59.5331 36.585,58.9961 36.477,58.2491 L35.764,53.3501 C35.645,52.5311 36.213,51.7691 37.033,51.6501 C37.851,51.5321 38.614,52.0971 38.733,52.9191 L39.445,57.8171 C39.564,58.6371 38.997,59.3981 38.177,59.5171 C38.104,59.5281 38.031,59.5331 37.959,59.5331" id="Fill-24" fill="#53C27C"></path>
            <path d="M51.4751,53.999 C51.0771,53.999 50.6801,53.842 50.3851,53.53 L44.8331,47.663 C44.2641,47.062 44.2891,46.111 44.8911,45.542 C45.4941,44.973 46.4431,45 47.0121,45.601 L52.5641,51.468 C53.1331,52.069 53.1071,53.02 52.5061,53.589 C52.2161,53.863 51.8451,53.999 51.4751,53.999" id="Fill-26" fill="#53C27C"></path>
            <path d="M45,35.7763 L29.266,53.2583 C23.264,59.2823 13.522,59.2823 7.51,53.2583 C1.497,47.2343 1.497,37.4743 7.51,31.4613 L23,16.7763 C22.652,18.9523 24,25.7763 25,33.7763 C25,33.7873 30,49.7763 33,49.7763 C33,49.7763 24.976,38.8813 26,34.7763 C26,34.7763 37,36.7763 45,35.7763" id="Fill-28" fill="#FFFFFF"></path>
            <g id="Group-32" transform="translate(0.000000, 1.776300)">
                <mask id="mask-4" fill="white">
                    <use xlink:href="#path-3"></use>
                </mask>
                <g id="Clip-31"></g>
                <path d="M51.5547,27.9102 L47.4977,31.9672 C37.6227,33.2672 28.4107,31.3072 25.5627,30.5992 C23.2727,20.7432 24.7137,12.5332 24.8817,11.6532 L30.0897,6.4452 C33.0497,3.4862 36.9347,2.0082 40.8227,2.0082 C44.7087,2.0082 48.5967,3.4872 51.5547,6.4452 C54.4217,9.3122 55.9997,13.1242 55.9997,17.1782 C55.9997,21.2322 54.4217,25.0442 51.5547,27.9102 Z M17.1777,56.0002 C13.1237,56.0002 9.3117,54.4222 6.4457,51.5552 C3.5787,48.6882 1.9997,44.8772 1.9997,40.8222 C1.9997,36.7682 3.5787,32.9572 6.4457,30.0902 L11.1787,25.3562 C10.8467,26.8082 10.7467,28.4252 11.2517,29.9382 C11.3907,30.3572 11.7817,30.6222 12.2007,30.6222 C12.3047,30.6222 12.4117,30.6052 12.5167,30.5702 C13.0407,30.3962 13.3237,29.8302 13.1487,29.3062 C12.0737,26.0792 14.7767,21.8062 14.8047,21.7642 C14.8147,21.7472 14.8157,21.7272 14.8257,21.7102 L22.5147,14.0192 C21.8447,20.1422 21.5377,34.9612 31.4827,47.9812 L30.9157,48.5492 C30.7777,48.5272 30.6337,48.5292 30.4897,48.5712 C30.4487,48.5822 26.4057,49.6882 21.3257,47.3792 C20.8227,47.1482 20.2297,47.3722 20.0007,47.8752 C19.7717,48.3782 19.9947,48.9712 20.4967,49.1992 C23.3877,50.5142 25.9887,50.8472 27.8857,50.8472 C28.1517,50.8472 28.3997,50.8392 28.6377,50.8272 L27.9097,51.5552 C25.0437,54.4222 21.2317,56.0002 17.1777,56.0002 Z M32.9107,46.5542 C29.5287,42.0582 27.4167,37.3022 26.1337,32.7882 C28.9127,33.4152 34.3117,34.4062 40.6407,34.4062 C42.1327,34.4062 43.6797,34.3432 45.2507,34.2142 L32.9107,46.5542 Z M52.9687,5.0312 C46.2717,-1.6658 35.3727,-1.6658 28.6757,5.0312 L5.0317,28.6762 C1.7867,31.9212 -0.0003,36.2342 -0.0003,40.8222 C-0.0003,45.4112 1.7867,49.7242 5.0317,52.9692 C8.2757,56.2142 12.5897,58.0002 17.1777,58.0002 C21.7657,58.0002 26.0797,56.2142 29.3247,52.9692 L52.9687,29.3242 C56.2137,26.0802 57.9997,21.7662 57.9997,17.1782 C57.9997,12.5902 56.2137,8.2762 52.9687,5.0312 Z" id="Fill-30" fill="#4F5661" mask="url(#mask-4)"></path>
            </g>
        </g>
    </g>
</svg>