<?xml version="1.0" encoding="UTF-8"?>
<svg width="50px" height="59px" viewBox="0 0 50 59" version="1.1" xmlns="http://www.w3.org/2000/svg" xmlns:xlink="http://www.w3.org/1999/xlink">
    <!-- Generator: Sketch 49.3 (51167) - http://www.bohemiancoding.com/sketch -->
    <title>Icon/ Biggest Refund</title>
    <desc>Created with Sketch.</desc>
    <defs></defs>
    <g id="Icon/-Biggest-Refund" stroke="none" stroke-width="1" fill="none" fill-rule="evenodd">
        <g id="Biggest-Refund" transform="translate(0.000000, -1.000000)">
            <path d="M50,53.6748 C50,56.6138 38.802,59.9998 25,59.9998 C11.198,59.9998 0,56.6138 0,53.6748 C0,52.2578 2.616,51.9588 6.884,50.9998 C7.198,51.2878 7.523,51.5648 7.86,51.8308 C11.896,54.9838 17.884,56.7408 25,56.7938 C32.116,56.7408 38.104,54.9838 42.14,51.8308 C42.477,51.5648 42.802,51.2878 43.116,50.9998 C47.384,51.9588 50,52.2578 50,53.6748" id="Fill-1" fill="#D3E5EF"></path>
            <path d="M30.5,42.666 C30.5,40.457 29.072,39.159 25.869,38.458 C23.073,37.857 22.857,37.269 22.857,36.503 C22.857,35.628 23.737,35.018 24.996,35.018 C26.211,35.018 27.267,35.418 28.318,36.278 L28.79,36.666 L30.341,34.604 L29.898,34.246 C28.759,33.33 27.638,32.818 26.312,32.627 L26.312,30.846 C26.312,30.38 25.934,30 25.468,30 L24.625,30 C24.16,30 23.782,30.38 23.782,30.846 L23.782,32.68 C21.676,33.121 20.241,34.655 20.241,36.667 C20.241,39.517 22.529,40.408 25.004,40.948 C27.666,41.512 27.866,42.067 27.866,42.849 C27.866,43.788 26.933,44.444 25.599,44.444 C24.065,44.444 22.907,43.961 21.605,42.78 L21.155,42.372 L19.5,44.337 L19.926,44.718 C21.124,45.792 22.379,46.449 23.782,46.742 L23.782,48.615 C23.782,49.082 24.16,49.461 24.625,49.461 L25.468,49.461 C25.934,49.461 26.312,49.082 26.312,48.615 L26.312,46.865 C28.808,46.582 30.5,44.944 30.5,42.666" id="Fill-3" fill="#5BBF89"></path>
            <path d="M31.9541,18.6958 C31.9541,17.7827198 32.6914493,16.7295609 35.4126271,13.5122007 C35.9417576,12.8865881 36.307813,12.4449014 36.6611532,12.0003031 C38.4448924,9.75587337 39.3441,8.08668664 39.3441,6.4528 L39.3441,3.9378 C39.3441,1.75762626 37.5416463,-0.0002 35.3311,-0.0002 L17.7821,-0.0002 C16.1332869,-0.0002 14.7861,1.31388995 14.7861,2.9468 C14.7861,4.58047387 16.1330512,5.8948 17.7821,5.8948 L22.9741,5.8948 L22.9741,3.8948 L17.7821,3.8948 C17.2267941,3.8948 16.7861,3.46478011 16.7861,2.9468 C16.7861,2.42974673 17.2268755,1.9998 17.7821,1.9998 L35.3311,1.9998 C36.4481433,1.9998 37.3441,2.87357346 37.3441,3.9378 L37.3441,6.4528 C37.3441,7.48714393 36.6094547,8.8508559 35.0954066,10.7559408 C34.7574615,11.1811677 34.4026406,11.6092989 33.8855729,12.2206493 C30.6683578,16.0244945 29.9541,17.0446718 29.9541,18.6958 L31.9541,18.6958 Z" id="Stroke-5" fill="#4B5E69" fill-rule="nonzero"></path>
            <path d="M25.004695,55.992971 C25.003022,55.9929839 24.9831163,56.6590653 24.9449777,57.991215 C25.1027279,57.9990548 25.1977589,58 25.3737,58 L25.3737,56 L24.6257,56 L24.6257,58 C24.8026649,58 24.8987803,57.9990388 25.0031004,57.994343 C25.0299964,57.9930294 25.0330376,57.3259245 25.012224,55.9930283 C18.3061247,55.9414839 12.6872513,54.449396 8.95309763,51.7740959 C3.92689811,48.193545 2.59073345,42.7432673 5.56207323,36.0771232 C6.80614569,33.2849484 9.16480549,30.5929755 12.3186811,28.0792621 C14.0502576,26.6991548 15.9102459,25.4610026 17.7703535,24.3856498 C18.4211218,24.0094321 19.0247053,23.6808203 19.5651422,23.4021886 C19.8861818,23.2366711 20.1124644,23.1256684 20.2280656,23.0714909 C20.7281544,22.8371203 20.9435616,22.2417233 20.7091909,21.7416344 C20.4748203,21.2415456 19.8794233,21.0261384 19.3793344,21.2605091 C19.2415514,21.3250822 18.9927387,21.447137 18.6486448,21.6245406 C18.080526,21.9174441 17.4488616,22.2613441 16.7693629,22.6541713 C14.8287079,23.7760896 12.8879336,25.0680192 11.0721315,26.5152563 C7.689319,29.2114379 5.13024482,32.1321466 3.73526594,35.2630133 C0.385048785,42.7791614 1.97321846,49.2573792 7.79049192,53.4014683 C11.8905279,56.3389058 17.8989809,57.9359332 24.9723399,57.9927785 C24.9778581,57.9928228 24.9886448,57.6595633 25.0047,56.993 L24.94923,55.9945396 C24.8688135,55.9990072 24.7971921,56 24.6257,56 L24.6257,58 L25.3737,58 L25.3737,56 C25.2052105,56 25.1349903,55.999007 25.0644223,55.994785 L25.0047,56.993 L25.0122338,57.9929716 C32.1016339,57.9361907 38.1102484,56.3386362 42.2120976,53.3999041 C48.0268972,49.2575818 49.6144777,42.7794451 46.2640732,35.2628768 C44.8755817,32.1457054 42.353718,29.2349803 39.0290547,26.5463903 C37.2301157,25.0916236 35.3073194,23.7927644 33.3846103,22.6646689 C32.7113633,22.2696601 32.0854947,21.9238212 31.5225679,21.6292386 C31.1815678,21.4507915 30.9349467,21.3279894 30.7983039,21.2629826 C30.2995812,21.0257189 29.7029463,21.2376733 29.4656826,21.7363961 C29.2284189,22.2351188 29.4403733,22.8317537 29.9390961,23.0690174 C30.0534393,23.1234154 30.277417,23.2349425 30.5952552,23.4012689 C31.1303923,23.6813089 31.7280806,24.0115762 32.3725102,24.3896771 C34.2145915,25.4704666 36.0565855,26.7147433 37.7714508,28.1015213 C40.8716721,30.6086094 43.1969183,33.2923995 44.437224,36.0768925 C47.4088193,42.7436099 46.0731574,48.1937903 41.0494919,51.7725317 C37.3137976,54.4489311 31.6954614,55.9414754 25.004695,55.992971 Z" id="Stroke-7" fill="#4B5E69" fill-rule="nonzero"></path>
            <path d="M21.4746,21.3872 L21.1006,21.4802 C21.1866,21.4102 21.3196,21.3792 21.4746,21.3872" id="Fill-9" fill="#4B5E69"></path>
            <path d="M11.1953,7.392 L11.1953,7.174 C11.1953,6.47268206 11.7873409,5.895 12.5313,5.895 L19.7793,5.895 L19.7793,3.895 L12.5313,3.895 C10.6936122,3.895 9.1953,5.35697336 9.1953,7.174 L9.1953,7.392 C9.1953,8.51431045 9.5544713,9.60812125 10.2215485,10.5188909 L10.2959767,10.6089571 L18.4489767,19.3769571 L19.9136233,18.0150429 L11.8030752,9.292697 C11.4071827,8.73328044 11.1953,8.07044259 11.1953,7.392 Z" id="Stroke-11" fill="#4B5E69" fill-rule="nonzero"></path>
            <path d="M11.2036,10 L20.6466,10 C21.0161704,10 21.3946,10.4481992 21.3946,11.07 C21.3946,11.3523144 21.2989764,11.6222079 21.1483322,11.8059204 C21.0424755,11.9268496 20.8952368,12 20.7646,12 L18.1716,12 L18.1716,14 L20.7646,14 C21.5001426,14 22.1859959,13.6592576 22.6758233,13.096618 C23.1400442,12.5311816 23.3946,11.8127084 23.3946,11.07 C23.3946,9.41152835 22.2027996,8 20.6466,8 L11.2036,8 L11.2036,10 Z" id="Stroke-13" fill="#4B5E69" fill-rule="nonzero"></path>
            <path d="M19.3984,14 L29.1904,14 C31.067623,14 32.5894,12.4773467 32.5894,10.6 C32.5894,8.72193431 31.0679038,7.2 29.1904,7.2 L28.3914,7.2 C28.0600691,7.2 27.7924,6.93209957 27.7924,6.6 C27.7924,6.26790043 28.0600691,6 28.3914,6 L38.7844,6 L38.7844,4 L28.3914,4 C26.9551126,4 25.7924,5.16371754 25.7924,6.6 C25.7924,8.03628246 26.9551126,9.2 28.3914,9.2 L29.1904,9.2 C29.9632054,9.2 30.5894,9.82637493 30.5894,10.6 C30.5894,11.3730348 29.9627957,12 29.1904,12 L19.3984,12 L19.3984,14 Z" id="Stroke-15" fill="#4B5E69" fill-rule="nonzero"></path>
            <path d="M31,23 C29.654,23.461 27.578,24 25,24 C23.578,24 21.438,23.836 19,23 L19,18 C20.346,18.461 22.423,19 25,19 C26.423,19 28.562,18.836 31,18 L31,23 Z" id="Fill-17" fill="#D3E5EF"></path>
            <path d="M30,19.3494001 C28.2782769,19.808578 26.6128356,20 25,20 C23.2034719,20 21.5458932,19.7614222 20,19.3491868 L20,22.2709925 C21.7277565,22.7881604 23.3936581,23 25,23 C26.8129913,23 28.4674326,22.7294617 30,22.2708382 L30,19.3494001 Z M31.3240188,23.9460506 C29.4080833,24.6022514 27.3208725,25 25,25 C22.9776308,25 20.8711275,24.6987752 18.675636,23.9459323 L18,23.714254 L18,16.6004778 L19.3240188,17.0539494 C21.0433048,17.6427984 22.9179748,18 25,18 C26.8153246,18 28.7052942,17.7297058 30.675636,17.0540677 L32,16.5999379 L32,23.7145296 L31.3240188,23.9460506 Z" id="Stroke-19" fill="#4B5E69" fill-rule="nonzero"></path>
        </g>
    </g>
</svg>