<?xml version="1.0" encoding="UTF-8"?>
<svg width="56px" height="57px" viewBox="0 0 56 57" version="1.1" xmlns="http://www.w3.org/2000/svg" xmlns:xlink="http://www.w3.org/1999/xlink">
    <!-- Generator: Sketch 49.3 (51167) - http://www.bohemiancoding.com/sketch -->
    <title>Icon/ Calendar</title>
    <desc>Created with Sketch.</desc>
    <defs></defs>
    <g id="Icon/-Calendar" stroke="none" stroke-width="1" fill="none" fill-rule="evenodd">
        <g id="Calendar">
            <path d="M1,14 L1,7 C1,5.34 2.34,4 4,4 L52,4 C53.66,4 55,5.34 55,7 L55,14" id="Fill-1" fill="#D3E5EF"></path>
            <path d="M51.8125,14 L4.1245,14" id="Fill-3" fill="#D3E5EF"></path>
            <path d="M51.8125,15 L4.1245,15 C3.5725,15 3.1245,14.553 3.1245,14 C3.1245,13.447 3.5725,13 4.1245,13 L51.8125,13 C52.3655,13 52.8125,13.447 52.8125,14 C52.8125,14.553 52.3655,15 51.8125,15" id="Fill-5" fill="#4F5661"></path>
            <path d="M25,32 L21,32 C20.447,32 20,32.447 20,33 L20,37 C20,37.553 20.447,38 21,38 L25,38 C25.553,38 26,37.553 26,37 L26,33 C26,32.447 25.553,32 25,32" id="Fill-7" fill="#D3E5EF"></path>
            <path d="M36,31 L30,31 C29.447,31 29,31.447 29,32 L29,38 C29,38.553 29.447,39 30,39 L36,39 C36.553,39 37,38.553 37,38 L37,32 C37,31.447 36.553,31 36,31" id="Fill-9" fill="#53C27C"></path>
            <path d="M45,32 L41,32 C40.447,32 40,32.447 40,33 L40,37 C40,37.553 40.447,38 41,38 L45,38 C45.553,38 46,37.553 46,37 L46,33 C46,32.447 45.553,32 45,32" id="Fill-11" fill="#D3E5EF"></path>
            <path d="M15,41 L11,41 C10.447,41 10,41.447 10,42 L10,46 C10,46.553 10.447,47 11,47 L15,47 C15.553,47 16,46.553 16,46 L16,42 C16,41.447 15.553,41 15,41" id="Fill-13" fill="#D3E5EF"></path>
            <path d="M25,41 L21,41 C20.447,41 20,41.447 20,42 L20,46 C20,46.553 20.447,47 21,47 L25,47 C25.553,47 26,46.553 26,46 L26,42 C26,41.447 25.553,41 25,41" id="Fill-15" fill="#D3E5EF"></path>
            <path d="M35,41 L31,41 C30.447,41 30,41.447 30,42 L30,46 C30,46.553 30.447,47 31,47 L35,47 C35.553,47 36,46.553 36,46 L36,42 C36,41.447 35.553,41 35,41" id="Fill-17" fill="#D3E5EF"></path>
            <path d="M45,41 L41,41 C40.447,41 40,41.447 40,42 L40,46 C40,46.553 40.447,47 41,47 L45,47 C45.553,47 46,46.553 46,46 L46,42 C46,41.447 45.553,41 45,41" id="Fill-19" fill="#D3E5EF"></path>
            <path d="M15,23 L11,23 C10.447,23 10,23.447 10,24 L10,28 C10,28.553 10.447,29 11,29 L15,29 C15.553,29 16,28.553 16,28 L16,24 C16,23.447 15.553,23 15,23" id="Fill-21" fill="#D3E5EF"></path>
            <path d="M15,32 L11,32 C10.447,32 10,32.447 10,33 L10,37 C10,37.553 10.447,38 11,38 L15,38 C15.553,38 16,37.553 16,37 L16,33 C16,32.447 15.553,32 15,32" id="Fill-23" fill="#D3E5EF"></path>
            <path d="M35,23 L31,23 C30.447,23 30,23.447 30,24 L30,28 C30,28.553 30.447,29 31,29 L35,29 C35.553,29 36,28.553 36,28 L36,24 C36,23.447 35.553,23 35,23" id="Fill-25" fill="#D3E5EF"></path>
            <path d="M45,23 L41,23 C40.447,23 40,23.447 40,24 L40,28 C40,28.553 40.447,29 41,29 L45,29 C45.553,29 46,28.553 46,28 L46,24 C46,23.447 45.553,23 45,23" id="Fill-27" fill="#D3E5EF"></path>
            <path d="M54,14 L54,48 L48,48 C47.447,48 47,48.447 47,49 L47,55 L2,55 L2,14 L2,7 C2,5.897 2.897,5 4,5 L10,5 L10,8 C10,8.553 10.447,9 11,9 C11.553,9 12,8.553 12,8 L12,5 L27,5 L27,8 C27,8.553 27.447,9 28,9 C28.553,9 29,8.553 29,8 L29,5 L44,5 L44,8 C44,8.553 44.447,9 45,9 C45.553,9 46,8.553 46,8 L46,5 L52,5 C53.103,5 54,5.897 54,7 L54,14 Z M49,54.586 L49,50 L53.586,50 L49,54.586 Z M52,3 L46,3 L46,1 C46,0.447 45.553,0 45,0 C44.447,0 44,0.447 44,1 L44,3 L29,3 L29,1 C29,0.447 28.553,0 28,0 C27.447,0 27,0.447 27,1 L27,3 L12,3 L12,1 C12,0.447 11.553,0 11,0 C10.447,0 10,0.447 10,1 L10,3 L4,3 C1.794,3 0,4.794 0,7 L0,14 L0,56 C0,56.553 0.447,57 1,57 L49,57 C49.266,57 49.52,56.895 49.707,56.707 L55.707,50.707 C55.895,50.52 56,50.266 56,50 L56,14 L56,7 C56,4.794 54.206,3 52,3 Z" id="Fill-29" fill="#4F5661"></path>
            <path d="M25,23 L21,23 C20.447,23 20,23.447 20,24 L20,28 C20,28.553 20.447,29 21,29 L25,29 C25.553,29 26,28.553 26,28 L26,24 C26,23.447 25.553,23 25,23" id="Fill-31" fill="#D3E5EF"></path>
        </g>
    </g>
</svg>