<?xml version="1.0" encoding="UTF-8"?>
<svg width="58px" height="60px" viewBox="0 0 58 60" version="1.1" xmlns="http://www.w3.org/2000/svg" xmlns:xlink="http://www.w3.org/1999/xlink">
    <!-- Generator: Sketch 49.3 (51167) - http://www.bohemiancoding.com/sketch -->
    <title>Icon/ Call Us</title>
    <desc>Created with Sketch.</desc>
    <defs></defs>
    <g id="Icon/-Call-Us" stroke="none" stroke-width="1" fill="none" fill-rule="evenodd">
        <g id="Page-1">
            <polygon id="Fill-1" fill="#D3E5EF" points="4 51 26 51 26 22 4 22"></polygon>
            <g id="Group-48">
                <path d="M3,15 C2.448,15 2,15.448 2,16 L2,57 C2,57.552 2.448,58 3,58 L27,58 C27.552,58 28,57.552 28,57 L28,16 C28,15.448 27.552,15 27,15 L3,15 Z M27,60 L3,60 C1.346,60 0,58.654 0,57 L0,16 C0,14.346 1.346,13 3,13 L27,13 C28.654,13 30,14.346 30,16 L30,57 C30,58.654 28.654,60 27,60 Z" id="Fill-2" fill="#4F5661"></path>
                <path d="M26,23 L4,23 C3.447,23 3,22.553 3,22 C3,21.447 3.447,21 4,21 L26,21 C26.553,21 27,21.447 27,22 C27,22.553 26.553,23 26,23" id="Fill-4" fill="#4F5661"></path>
                <path d="M26,52 L4,52 C3.447,52 3,51.553 3,51 C3,50.447 3.447,50 4,50 L26,50 C26.553,50 27,50.447 27,51 C27,51.553 26.553,52 26,52" id="Fill-6" fill="#4F5661"></path>
                <path d="M17,56 L13,56 C12.447,56 12,55.553 12,55 C12,54.447 12.447,54 13,54 L17,54 C17.553,54 18,54.447 18,55 C18,55.553 17.553,56 17,56" id="Fill-8" fill="#4F5661"></path>
                <path d="M15,17.5 C14.725,17.5 14.5,17.725 14.5,18 C14.5,18.275 14.725,18.5 15,18.5 C15.275,18.5 15.5,18.275 15.5,18 C15.5,17.725 15.275,17.5 15,17.5 M15,19.5 C14.173,19.5 13.5,18.827 13.5,18 C13.5,17.173 14.173,16.5 15,16.5 C15.827,16.5 16.5,17.173 16.5,18 C16.5,18.827 15.827,19.5 15,19.5" id="Fill-10" fill="#4F5661"></path>
                <path d="M57,0 L34.5,0 C33.121,0 32,1.058 32,2.357 L32,25 C32,25.415 32.257,25.787 32.646,25.935 C32.761,25.979 32.881,26 33,26 C33.28,26 33.555,25.882 33.748,25.664 L37.949,20.929 L55.5,20.929 C56.879,20.929 58,19.871 58,18.571 L58,1 C58,0.447 57.553,0 57,0" id="Fill-12" fill="#F4877A"></path>
                <path d="M39,8.5 C37.897,8.5 37,9.397 37,10.5 C37,11.603 37.897,12.5 39,12.5 C40.103,12.5 41,11.603 41,10.5 C41,9.397 40.103,8.5 39,8.5" id="Fill-14" fill="#FFFFFF"></path>
                <path d="M45,8.5 C43.897,8.5 43,9.397 43,10.5 C43,11.603 43.897,12.5 45,12.5 C46.103,12.5 47,11.603 47,10.5 C47,9.397 46.103,8.5 45,8.5" id="Fill-16" fill="#FFFFFF"></path>
                <path d="M51,8.5 C49.897,8.5 49,9.397 49,10.5 C49,11.603 49.897,12.5 51,12.5 C52.103,12.5 53,11.603 53,10.5 C53,9.397 52.103,8.5 51,8.5" id="Fill-18" fill="#FFFFFF"></path>
                <path d="M23.4111,7.6904 C22.9201,7.6904 22.4381,7.4494 22.1511,7.0064 C20.5651,4.5604 17.8921,3.1004 15.0001,3.1004 C12.1071,3.1004 9.4341,4.5604 7.8481,7.0064 C7.3971,7.7014 6.4701,7.8984 5.7731,7.4494 C5.0791,6.9984 4.8811,6.0694 5.3311,5.3744 C7.4731,2.0724 11.0871,0.1004 15.0001,0.1004 C18.9131,0.1004 22.5271,2.0724 24.6691,5.3744 C25.1191,6.0694 24.9211,6.9984 24.2261,7.4494 C23.9731,7.6124 23.6911,7.6904 23.4111,7.6904" id="Fill-20" fill="#D3E5EF"></path>
                <path d="M19.7002,11.4004 C19.0852,11.4004 18.5092,11.0194 18.2892,10.4084 C17.7922,9.0284 16.4712,8.1004 15.0002,8.1004 C13.5292,8.1004 12.2082,9.0284 11.7112,10.4084 C11.4302,11.1874 10.5702,11.5904 9.7922,11.3114 C9.0122,11.0314 8.6082,10.1714 8.8882,9.3924 C9.8112,6.8254 12.2672,5.1004 15.0002,5.1004 C17.7322,5.1004 20.1882,6.8254 21.1112,9.3924 C21.3912,10.1714 20.9872,11.0314 20.2082,11.3114 C20.0402,11.3724 19.8692,11.4004 19.7002,11.4004" id="Fill-22" fill="#D3E5EF"></path>
                <path d="M17.5,27.5 C17.5,28.881 16.381,30 15,30 C13.619,30 12.5,28.881 12.5,27.5 C12.5,26.119 13.619,25 15,25 C16.381,25 17.5,26.119 17.5,27.5" id="Fill-24" fill="#FFFFFF"></path>
                <path d="M24.5,27.5 C24.5,28.881 23.381,30 22,30 C20.619,30 19.5,28.881 19.5,27.5 C19.5,26.119 20.619,25 22,25 C23.381,25 24.5,26.119 24.5,27.5" id="Fill-26" fill="#FFFFFF"></path>
                <path d="M10.5,27.5 C10.5,28.881 9.381,30 8,30 C6.619,30 5.5,28.881 5.5,27.5 C5.5,26.119 6.619,25 8,25 C9.381,25 10.5,26.119 10.5,27.5" id="Fill-28" fill="#FFFFFF"></path>
                <path d="M17.5,33.5 C17.5,34.881 16.381,36 15,36 C13.619,36 12.5,34.881 12.5,33.5 C12.5,32.119 13.619,31 15,31 C16.381,31 17.5,32.119 17.5,33.5" id="Fill-30" fill="#FFFFFF"></path>
                <path d="M24.5,33.5 C24.5,34.881 23.381,36 22,36 C20.619,36 19.5,34.881 19.5,33.5 C19.5,32.119 20.619,31 22,31 C23.381,31 24.5,32.119 24.5,33.5" id="Fill-32" fill="#FFFFFF"></path>
                <path d="M10.5,33.5 C10.5,34.881 9.381,36 8,36 C6.619,36 5.5,34.881 5.5,33.5 C5.5,32.119 6.619,31 8,31 C9.381,31 10.5,32.119 10.5,33.5" id="Fill-34" fill="#FFFFFF"></path>
                <path d="M17.5,39.5 C17.5,40.881 16.381,42 15,42 C13.619,42 12.5,40.881 12.5,39.5 C12.5,38.119 13.619,37 15,37 C16.381,37 17.5,38.119 17.5,39.5" id="Fill-36" fill="#FFFFFF"></path>
                <path d="M24.5,39.5 C24.5,40.881 23.381,42 22,42 C20.619,42 19.5,40.881 19.5,39.5 C19.5,38.119 20.619,37 22,37 C23.381,37 24.5,38.119 24.5,39.5" id="Fill-38" fill="#FFFFFF"></path>
                <path d="M10.5,39.5 C10.5,40.881 9.381,42 8,42 C6.619,42 5.5,40.881 5.5,39.5 C5.5,38.119 6.619,37 8,37 C9.381,37 10.5,38.119 10.5,39.5" id="Fill-40" fill="#FFFFFF"></path>
                <path d="M17.5,45.5 C17.5,46.881 16.381,48 15,48 C13.619,48 12.5,46.881 12.5,45.5 C12.5,44.119 13.619,43 15,43 C16.381,43 17.5,44.119 17.5,45.5" id="Fill-42" fill="#FFFFFF"></path>
                <path d="M24.5,45.5 C24.5,46.881 23.381,48 22,48 C20.619,48 19.5,46.881 19.5,45.5 C19.5,44.119 20.619,43 22,43 C23.381,43 24.5,44.119 24.5,45.5" id="Fill-44" fill="#FFFFFF"></path>
                <path d="M10.5,45.5 C10.5,46.881 9.381,48 8,48 C6.619,48 5.5,46.881 5.5,45.5 C5.5,44.119 6.619,43 8,43 C9.381,43 10.5,44.119 10.5,45.5" id="Fill-46" fill="#FFFFFF"></path>
            </g>
        </g>
    </g>
</svg>