<?xml version="1.0" encoding="UTF-8"?>
<svg width="58px" height="49px" viewBox="0 0 58 49" version="1.1" xmlns="http://www.w3.org/2000/svg" xmlns:xlink="http://www.w3.org/1999/xlink">
    <!-- Generator: Sketch 49.3 (51167) - http://www.bohemiancoding.com/sketch -->
    <title>Icon/ Camera</title>
    <desc>Created with Sketch.</desc>
    <defs></defs>
    <g id="Icon/-Camera" stroke="none" stroke-width="1" fill="none" fill-rule="evenodd">
        <g id="Camera">
            <polygon id="Fill-1" fill="#F4877A" points="7 11 11 11 11 8 7 8"></polygon>
            <polygon id="Stroke-2" stroke="#F4877A" stroke-width="2" stroke-linecap="round" stroke-linejoin="round" points="7 11 11 11 11 8 7 8"></polygon>
            <polygon id="Fill-3" fill="#F4877A" points="15 11 19 11 19 8 15 8"></polygon>
            <polygon id="Stroke-4" stroke="#F4877A" stroke-width="2" stroke-linecap="round" stroke-linejoin="round" points="15 11 19 11 19 8 15 8"></polygon>
            <g id="Group-7" transform="translate(28.000000, 4.000000)">
                <polyline id="Fill-5" fill="#D3E5EF" points="13.2261 6.7017 12.0761 -0.0003 1.9241 -0.0003 0.7741 6.7017"></polyline>
                <polyline id="Stroke-6" stroke="#4B5E69" stroke-width="2" stroke-linecap="round" stroke-linejoin="round" points="13.2261 6.7017 12.0761 -0.0003 1.9241 -0.0003 0.7741 6.7017"></polyline>
            </g>
            <g id="Group-20">
                <path d="M54,48 C55.6567153,48 57,46.6567153 57,45 L57,15 C57,13.3432847 55.6567153,12 54,12 L4,12 C2.34328475,12 1,13.3432847 1,15 L1,45 C1,46.6567153 2.34328475,48 4,48 L54,48 Z M54,50 L4,50 C1.23871525,50 -1,47.7612847 -1,45 L-1,15 C-1,12.2387153 1.23871525,10 4,10 L54,10 C56.7612847,10 59,12.2387153 59,15 L59,45 C59,47.7612847 56.7612847,50 54,50 Z" id="Stroke-8" fill="#4B5E69" fill-rule="nonzero"></path>
                <path d="M42.6772404,1 L45.1912482,11.2384619 C45.322947,11.7748143 45.8645096,12.1028507 46.4008619,11.9711518 C46.9372143,11.839453 47.2652507,11.2978904 47.1335518,10.7615381 L44.4325518,-0.238461922 C44.3227561,-0.685612148 43.9218329,-1 43.4614,-1 L26.5384,-1 C26.0779671,-1 25.6770439,-0.685612148 25.5672482,-0.238461922 L22.8662482,10.7615381 C22.7345493,11.2978904 23.0625857,11.839453 23.5989381,11.9711518 C24.1352904,12.1028507 24.676853,11.7748143 24.8085518,11.2384619 L27.3225596,1 L42.6772404,1 Z" id="Stroke-10" fill="#4B5E69" fill-rule="nonzero"></path>
                <path d="M35,43 C42.1667153,43 48,37.1667153 48,30 C48,22.8332847 42.1667153,17 35,17 C27.8332847,17 22,22.8332847 22,30 C22,37.1667153 27.8332847,43 35,43 Z M35,45 C26.7287153,45 20,38.2712847 20,30 C20,21.7287153 26.7287153,15 35,15 C43.2712847,15 50,21.7287153 50,30 C50,38.2712847 43.2712847,45 35,45 Z" id="Stroke-12" fill="#4B5E69" fill-rule="nonzero"></path>
                <path d="M42.0273,22.4902 C45.9803,26.4432 45.9803,32.8742 42.0273,36.8272 C38.0743,40.7802 31.6423,40.7802 27.6903,36.8272 C29.4483,36.3602 33.3903,35.0602 36.9313,31.4482 C40.3103,28.0012 41.5603,24.2482 42.0273,22.4902" id="Fill-14" fill="#D3E5EF"></path>
                <path d="M6.8667,17.1538 C8.1407,15.6808 10.3677,15.5208 11.8407,16.7948 C13.3137,18.0698 13.4737,20.2968 12.1997,21.7688 C10.9257,23.2418 8.6987,23.4028 7.2257,22.1278 C5.7527,20.8538 5.5927,18.6268 6.8667,17.1538" id="Fill-16" fill="#D3E5EF"></path>
                <path d="M7.62304944,17.8079678 C6.70999464,18.8636426 6.82498305,20.4590791 7.8801614,21.3717046 C8.93538089,22.2850819 10.5306623,22.1698832 11.4435704,21.1143781 C12.3563922,20.0596892 12.2414017,18.464224 11.1865322,17.5511494 C10.1308574,16.6380946 8.53542092,16.7530831 7.62304944,17.8079678 Z M6.11035056,16.4996322 C7.74551116,14.609058 10.6040012,14.4030371 12.4951614,16.0387046 C14.3854572,17.6749077 14.5914761,20.5333698 12.9560494,22.4229678 C11.3205684,24.3139125 8.46182349,24.5203487 6.57153219,22.8841494 C4.68095796,21.2489888 4.47493709,18.3904988 6.11035056,16.4996322 Z" id="Stroke-18" fill="#4B5E69" fill-rule="nonzero"></path>
            </g>
        </g>
    </g>
</svg>