<?xml version="1.0" encoding="UTF-8"?>
<svg width="49px" height="58px" viewBox="0 0 49 58" version="1.1" xmlns="http://www.w3.org/2000/svg" xmlns:xlink="http://www.w3.org/1999/xlink">
    <!-- Generator: Sketch 49.3 (51167) - http://www.bohemiancoding.com/sketch -->
    <title>Icon/ Charity Donations</title>
    <desc>Created with Sketch.</desc>
    <defs></defs>
    <g id="Icon/-Charity-Donations" stroke="none" stroke-width="1" fill="none" fill-rule="evenodd">
        <g id="Charity-Donations">
            <polygon id="Fill-1" fill="#5BBF89" points="20 37 28 37 28 27 20 27"></polygon>
            <polygon id="Fill-2" fill="#5BBF89" points="20 58 28 58 28 37 20 37"></polygon>
            <g id="Group-31">
                <path d="M46,36 L46,29 C46,28.4522847 45.5477153,28 45,28 L3,28 C2.45228475,28 2,28.4522847 2,29 L2,36 L46,36 Z M48,29 L48,37 C48,37.5522847 47.5522847,38 47,38 L1,38 C0.44771525,38 0,37.5522847 0,37 L0,29 C0,27.3477153 1.34771525,26 3,26 L45,26 C46.6522847,26 48,27.3477153 48,29 Z" id="Stroke-3" fill="#4B5E69" fill-rule="nonzero"></path>
                <path d="M44,40 L44,56 C44,56.5477153 43.5477153,57 43,57 L5,57 C4.44828475,57 4,56.5517153 4,56 L4,40 C4,39.4477153 3.55228475,39 3,39 C2.44771525,39 2,39.4477153 2,40 L2,56 C2,57.6562847 3.34371525,59 5,59 L43,59 C44.6522847,59 46,57.6522847 46,56 L46,40 C46,39.4477153 45.5522847,39 45,39 C44.4477153,39 44,39.4477153 44,40 Z" id="Stroke-5" fill="#4B5E69" fill-rule="nonzero"></path>
                <path d="M22.7856,26 C16.6302099,26 11.3535083,23.9989644 7.68689654,20.5296231 C7.28572964,20.1500397 6.65280646,20.1675365 6.27322306,20.5687035 C5.89363966,20.9698704 5.91113655,21.6027935 6.31230346,21.9823769 C10.3591888,25.8115325 16.1301457,28 22.7856,28 C23.3378847,28 23.7856,27.5522847 23.7856,27 C23.7856,26.4477153 23.3378847,26 22.7856,26 Z" id="Stroke-7" fill="#4B5E69" fill-rule="nonzero"></path>
                <path d="M25,26.2822 C25,26.8732473 24.490128,27.3353436 23.9019299,27.2773795 C20.1784524,26.9104488 16.6957115,25.2719869 14.6860068,23.0368045 C12.4626573,20.5640076 12.379843,17.6802924 14.8846415,15.7249526 C17.4667749,13.7091671 20.2230314,14.1988834 22.2203655,16.7120091 C23.9648867,18.9070353 25,22.4717477 25,26.2822 Z M20.6546345,17.9563909 C19.3104691,16.2651083 17.7891138,15.9948024 16.1153442,17.3014585 C14.6184456,18.4699938 14.6629546,20.0198609 16.1732432,21.6995955 C17.6392907,23.3301254 20.1618774,24.627476 22.9648329,25.1297253 C22.7850105,22.1937423 21.9269851,19.5573134 20.6546345,17.9563909 Z" id="Stroke-9" fill="#4B5E69" fill-rule="nonzero"></path>
                <path d="M25.2144,28 C31.8698543,28 37.6408112,25.8115325 41.6876965,21.9823769 C42.0888635,21.6027935 42.1063603,20.9698704 41.7267769,20.5687035 C41.3471935,20.1675365 40.7142704,20.1500397 40.3131035,20.5296231 C36.6464917,23.9989644 31.3697901,26 25.2144,26 C24.6621153,26 24.2144,26.4477153 24.2144,27 C24.2144,27.5522847 24.6621153,28 25.2144,28 Z" id="Stroke-11" fill="#4B5E69" fill-rule="nonzero"></path>
                <path d="M31.9363895,21.756235 C33.477214,20.0941088 33.5023623,18.5550094 31.8873615,17.3035632 C30.3278221,16.0947091 28.8007794,16.3851397 27.4297321,18.0522636 C26.1173463,19.648058 25.2264474,22.241567 25.0374912,25.1314074 C27.8791445,24.6324802 30.4549975,23.3542499 31.9363895,21.756235 Z M23,26.2822 C23,22.5036179 24.0828328,18.973252 25.8850179,16.7818864 C27.904357,14.3264727 30.6399682,13.8061825 33.1125168,15.7227424 C35.7344426,17.7544436 35.6870956,20.6521227 33.4031105,23.115915 C31.3762918,25.3022953 27.8418043,26.9084526 24.0980701,27.2773795 C23.509872,27.3353436 23,26.8732473 23,26.2822 Z" id="Stroke-13" fill="#4B5E69" fill-rule="nonzero"></path>
                <path d="M23,0 L23,11 C23,11.5522847 23.4477153,12 24,12 C24.5522847,12 25,11.5522847 25,11 L25,0 C25,-0.55228475 24.5522847,-1 24,-1 C23.4477153,-1 23,-0.55228475 23,0 Z" id="Stroke-15" fill="#D3E5EF" fill-rule="nonzero"></path>
                <path d="M25,3 L24,1.66666667 L23,3 L25,3 Z M20.2,3.4 L23.2,-0.6 C23.6,-1.13333333 24.4,-1.13333333 24.8,-0.6 L27.8,3.4 C28.2944272,4.05923625 27.8240453,5 27,5 L21,5 C20.1759547,5 19.7055728,4.05923625 20.2,3.4 Z" id="Stroke-17" fill="#D3E5EF" fill-rule="nonzero"></path>
                <polygon id="Fill-19" fill="#D3E5EF" points="43.772 6.1328 48.359 8.1208 45.166 11.9678"></polygon>
                <path d="M45.6738883,9.79012637 L46.7379519,8.50811798 L45.2093393,7.84561924 L45.6738883,9.79012637 Z M44.169658,5.21526627 L48.756658,7.20326627 C49.3683507,7.46837312 49.5542635,8.24647711 49.1284822,8.75946824 L45.9354822,12.6064682 C45.4091844,13.240564 44.384852,13.0016639 44.1933711,12.2001641 L42.7993711,6.36516412 C42.6078958,5.56368756 43.4135815,4.88758369 44.169658,5.21526627 Z" id="Stroke-21" fill="#D3E5EF" fill-rule="nonzero"></path>
                <path d="M38.8650943,14.5016093 C38.9547438,14.3469964 39.1661547,14.040251 39.5073704,13.6316287 C40.0908242,12.9329144 40.8209105,12.2303713 41.7057161,11.5727452 C42.6246737,10.8897358 43.6588459,10.2957023 44.8140066,9.8167456 C45.3241772,9.6052169 45.5662743,9.020164 45.3547456,8.50999339 C45.1432169,7.99982279 44.558164,7.75772569 44.0479934,7.9692544 C42.7376656,8.51254704 41.5607589,9.18856784 40.5126683,9.96755455 C38.7638308,11.2673669 37.6667075,12.5812254 37.1349057,13.4983907 C36.8578746,13.9761691 37.0206123,14.5880631 37.4983907,14.8650943 C37.9761691,15.1421254 38.5880631,14.9793877 38.8650943,14.5016093 Z" id="Stroke-23" fill="#D3E5EF" fill-rule="nonzero"></path>
                <polygon id="Fill-25" fill="#D3E5EF" points="4.5879 6.1328 -0.0001 8.1208 3.1929 11.9678"></polygon>
                <path d="M4.19031501,5.21523465 C4.94645243,4.88759707 5.75210526,5.56383929 5.56049118,6.3653218 L4.16549118,12.2003218 C3.97389777,13.0017179 2.94966792,13.2405065 2.42341778,12.6064682 L-0.769582216,8.75946824 C-1.19538468,8.24645162 -1.00942918,7.46830602 -0.397684987,7.20323465 L4.19031501,5.21523465 Z M1.62101866,8.50820298 L2.68527056,9.7904382 L3.15023498,7.84558702 L1.62101866,8.50820298 Z" id="Stroke-27" fill="#D3E5EF" fill-rule="nonzero"></path>
                <path d="M11.2244943,13.4983907 C10.6926925,12.5812254 9.59556918,11.2673669 7.8467317,9.96755455 C6.79864106,9.18856784 5.62173438,8.51254704 4.31140661,7.9692544 C3.801236,7.75772569 3.2161831,7.99982279 3.0046544,8.50999339 C2.79312569,9.020164 3.03522279,9.6052169 3.54539339,9.8167456 C4.70055405,10.2957023 5.73472632,10.8897358 6.65368393,11.5727452 C7.53848951,12.2303713 8.26857578,12.9329144 8.85202963,13.6316287 C9.19324534,14.040251 9.40465621,14.3469964 9.49430572,14.5016093 C9.77133688,14.9793877 10.3832309,15.1421254 10.8610093,14.8650943 C11.3387877,14.5880631 11.5015254,13.9761691 11.2244943,13.4983907 Z" id="Stroke-29" fill="#D3E5EF" fill-rule="nonzero"></path>
            </g>
        </g>
    </g>
</svg>