<?xml version="1.0" encoding="UTF-8"?>
<svg width="60px" height="60px" viewBox="0 0 60 60" version="1.1" xmlns="http://www.w3.org/2000/svg" xmlns:xlink="http://www.w3.org/1999/xlink">
    <!-- Generator: Sketch 49.3 (51167) - http://www.bohemiancoding.com/sketch -->
    <title>Icon/ Chat online</title>
    <desc>Created with Sketch.</desc>
    <defs></defs>
    <g id="Icon/-Chat-online" stroke="none" stroke-width="1" fill="none" fill-rule="evenodd">
        <g id="Chat-online">
            <path d="M3,2 C2.448,2 2,2.448 2,3 L2,37.137 L8.968,28.378 C9.157,28.139 9.445,28 9.75,28 L43,28 C43.552,28 44,27.552 44,27 L44,3 C44,2.448 43.552,2 43,2 L3,2 Z M1,41 C0.89,41 0.778,40.981 0.67,40.944 C0.269,40.804 0,40.425 0,40 L0,3 C0,1.346 1.346,0 3,0 L43,0 C44.654,0 46,1.346 46,3 L46,27 C46,28.654 44.654,30 43,30 L10.232,30 L1.782,40.622 C1.589,40.865 1.299,41 1,41 Z" id="Fill-1" fill="#4F5661"></path>
            <path d="M59,60 C58.735,60 58.475,59.895 58.283,59.697 L49.827,51 L17,51 C15.346,51 14,49.654 14,48 L14,33 C14,32.447 14.447,32 15,32 C15.553,32 16,32.447 16,33 L16,48 C16,48.552 16.448,49 17,49 L50.25,49 C50.521,49 50.778,49.109 50.967,49.303 L58,56.537 L58,31 C58,30.448 57.552,30 57,30 L49,30 C48.447,30 48,29.553 48,29 C48,28.447 48.447,28 49,28 L57,28 C58.654,28 60,29.346 60,31 L60,59 C60,59.407 59.753,59.773 59.376,59.927 C59.254,59.976 59.127,60 59,60" id="Fill-3" fill="#4F5661"></path>
            <path d="M34,10 L9,10 C8.447,10 8,9.553 8,9 C8,8.447 8.447,8 9,8 L34,8 C34.553,8 35,8.447 35,9 C35,9.553 34.553,10 34,10" id="Fill-5" fill="#53C27C"></path>
            <path d="M30,22 L9,22 C8.447,22 8,21.553 8,21 C8,20.447 8.447,20 9,20 L30,20 C30.553,20 31,20.447 31,21 C31,21.553 30.553,22 30,22" id="Fill-7" fill="#53C27C"></path>
            <path d="M20,16 L9,16 C8.447,16 8,15.553 8,15 C8,14.447 8.447,14 9,14 L20,14 C20.553,14 21,14.447 21,15 C21,15.553 20.553,16 20,16" id="Fill-9" fill="#53C27C"></path>
            <path d="M38,16 L25,16 C24.447,16 24,15.553 24,15 C24,14.447 24.447,14 25,14 L38,14 C38.553,14 39,14.447 39,15 C39,15.553 38.553,16 38,16" id="Fill-11" fill="#53C27C"></path>
            <path d="M48,38 L23,38 C22.447,38 22,37.553 22,37 C22,36.447 22.447,36 23,36 L48,36 C48.553,36 49,36.447 49,37 C49,37.553 48.553,38 48,38" id="Fill-13" fill="#D3E5EF"></path>
            <path d="M34,43 L23,43 C22.447,43 22,42.553 22,42 C22,41.447 22.447,41 23,41 L34,41 C34.553,41 35,41.447 35,42 C35,42.553 34.553,43 34,43" id="Fill-15" fill="#D3E5EF"></path>
            <path d="M52,43 L39,43 C38.447,43 38,42.553 38,42 C38,41.447 38.447,41 39,41 L52,41 C52.553,41 53,41.447 53,42 C53,42.553 52.553,43 52,43" id="Fill-17" fill="#D3E5EF"></path>
        </g>
    </g>
</svg>