<?xml version="1.0" encoding="UTF-8"?>
<svg width="46px" height="60px" viewBox="0 0 46 60" version="1.1" xmlns="http://www.w3.org/2000/svg" xmlns:xlink="http://www.w3.org/1999/xlink">
    <!-- Generator: Sketch 49.3 (51167) - http://www.bohemiancoding.com/sketch -->
    <title>Icon/ Chari</title>
    <desc>Created with Sketch.</desc>
    <defs></defs>
    <g id="Icon/-Chari" stroke="none" stroke-width="1" fill="none" fill-rule="evenodd">
        <g id="Chari">
            <path d="M45,57.7878 C45,58.8918 35.15,59.7878 23,59.7878 C10.85,59.7878 1,58.8918 1,57.7878 C1,56.6838 10.85,55.7878 23,55.7878 C35.15,55.7878 45,56.6838 45,57.7878" id="Fill-1" fill="#D3E5EF"></path>
            <path d="M34.208,30.7878 C33.655,30.7878 33.208,30.3408 33.208,29.7878 C33.208,25.9958 33.975,22.0738 34.717,18.2818 C35.875,12.3558 36.97,6.7598 34.405,3.9708 C31.903,1.2468 29.496,1.8918 26.71,2.6368 C25.498,2.9618 24.244,3.2968 23.005,3.2968 C21.756,3.2968 20.502,2.9618 19.29,2.6368 C16.503,1.8918 14.096,1.2478 11.594,3.9708 C9.029,6.7598 10.124,12.3558 11.282,18.2818 C12.024,22.0738 12.791,25.9948 12.791,29.7878 C12.791,30.3408 12.344,30.7878 11.791,30.7878 C11.238,30.7878 10.791,30.3408 10.791,29.7878 C10.791,26.1888 10.043,22.3638 9.319,18.6658 C8.062,12.2288 6.873,6.1498 10.121,2.6168 C13.444,-0.9972 16.973,-0.0542 19.808,0.7048 C20.944,1.0098 22.019,1.2968 22.995,1.2968 C23.981,1.2968 25.056,1.0098 26.192,0.7048 C29.028,-0.0532 32.557,-0.9982 35.878,2.6168 C39.127,6.1498 37.938,12.2288 36.68,18.6658 C35.956,22.3638 35.208,26.1888 35.208,29.7878 C35.208,30.3408 34.761,30.7878 34.208,30.7878" id="Fill-3" fill="#4F5661"></path>
            <path d="M44,23.7878 C44,24.3398 43.552,24.7878 43,24.7878 L41,24.7878 C40.448,24.7878 40,24.3398 40,23.7878 L40,22.7878 L44,22.7878 L44,23.7878 Z M41,33.1208 C41,34.8158 41,38.7878 26.714,38.7878 L19.286,38.7878 C5,38.7878 5,34.8158 5,33.1208 L5,32.8848 C7.132,34.2428 11.336,34.9548 19.286,34.9548 L26.714,34.9548 C34.664,34.9548 38.868,34.2428 41,32.8848 L41,33.1208 Z M25,54.7878 C25,55.8908 24.103,56.7878 23,56.7878 C21.897,56.7878 21,55.8908 21,54.7878 C21,53.6848 21.897,52.7878 23,52.7878 C24.103,52.7878 25,53.6848 25,54.7878 Z M3,24.7878 C2.448,24.7878 2,24.3398 2,23.7878 L2,22.7878 L6,22.7878 L6,23.7878 C6,24.3398 5.552,24.7878 5,24.7878 L3,24.7878 Z M37,53.7878 C37,54.8908 36.103,55.7878 35,55.7878 C33.897,55.7878 33,54.8908 33,53.7878 C33,52.6848 33.897,51.7878 35,51.7878 C36.103,51.7878 37,52.6848 37,53.7878 Z M13,53.7878 C13,54.8908 12.103,55.7878 11,55.7878 C9.897,55.7878 9,54.8908 9,53.7878 C9,52.6848 9.897,51.7878 11,51.7878 C12.103,51.7878 13,52.6848 13,53.7878 Z M45,20.7878 L39,20.7878 C38.447,20.7878 38,21.2348 38,21.7878 L38,23.7878 C38,25.4418 39.346,26.7878 41,26.7878 L41,28.9548 C41,30.5478 41,32.9548 26.714,32.9548 L19.286,32.9548 C5,32.9548 5,30.5478 5,28.9548 L5,26.7878 C6.654,26.7878 8,25.4418 8,23.7878 L8,21.7878 C8,21.2348 7.553,20.7878 7,20.7878 L1,20.7878 C0.447,20.7878 0,21.2348 0,21.7878 L0,23.7878 C0,25.4418 1.346,26.7878 3,26.7878 L3,33.1208 C3,36.6898 4.852,40.7878 19.286,40.7878 L22,40.7878 L22,44.8178 C18.16,44.9188 14.333,45.5888 10.676,46.8418 C10.271,46.9798 10,47.3598 10,47.7878 L10,49.9298 C8.279,50.3768 7,51.9298 7,53.7878 C7,55.9938 8.794,57.7878 11,57.7878 C13.206,57.7878 15,55.9938 15,53.7878 C15,51.9298 13.721,50.3768 12,49.9298 L12,48.5098 C15.239,47.4698 18.614,46.9278 22,46.8338 L22,50.9298 C20.279,51.3768 19,52.9298 19,54.7878 C19,56.9938 20.794,58.7878 23,58.7878 C25.206,58.7878 27,56.9938 27,54.7878 C27,52.9298 25.721,51.3768 24,50.9298 L24,46.8338 C27.386,46.9278 30.76,47.4698 34,48.5098 L34,49.9298 C32.279,50.3768 31,51.9298 31,53.7878 C31,55.9938 32.794,57.7878 35,57.7878 C37.206,57.7878 39,55.9938 39,53.7878 C39,51.9298 37.721,50.3768 36,49.9298 L36,47.7878 C36,47.3598 35.729,46.9798 35.324,46.8418 C31.667,45.5888 27.84,44.9188 24,44.8178 L24,40.7878 L26.714,40.7878 C41.148,40.7878 43,36.6898 43,33.1208 L43,26.7878 C44.654,26.7878 46,25.4418 46,23.7878 L46,21.7878 C46,21.2348 45.553,20.7878 45,20.7878 Z" id="Fill-5" fill="#4F5661"></path>
            <path d="M28,11.7878 L18,11.7878 C17.447,11.7878 17,11.3408 17,10.7878 C17,10.2348 17.447,9.7878 18,9.7878 L28,9.7878 C28.553,9.7878 29,10.2348 29,10.7878 C29,11.3408 28.553,11.7878 28,11.7878" id="Fill-7" fill="#F4877A"></path>
            <path d="M27,17.7878 L19,17.7878 C18.447,17.7878 18,17.3408 18,16.7878 C18,16.2348 18.447,15.7878 19,15.7878 L27,15.7878 C27.553,15.7878 28,16.2348 28,16.7878 C28,17.3408 27.553,17.7878 27,17.7878" id="Fill-9" fill="#F4877A"></path>
            <path d="M26,23.7878 L20,23.7878 C19.447,23.7878 19,23.3408 19,22.7878 C19,22.2348 19.447,21.7878 20,21.7878 L26,21.7878 C26.553,21.7878 27,22.2348 27,22.7878 C27,23.3408 26.553,23.7878 26,23.7878" id="Fill-11" fill="#F4877A"></path>
        </g>
    </g>
</svg>