<?xml version="1.0" encoding="UTF-8"?>
<svg width="50px" height="50px" viewBox="0 0 50 50" version="1.1" xmlns="http://www.w3.org/2000/svg" xmlns:xlink="http://www.w3.org/1999/xlink">
    <!-- Generator: Sketch 49.3 (51167) - http://www.bohemiancoding.com/sketch -->
    <title>Icon/ Checkmark</title>
    <desc>Created with Sketch.</desc>
    <defs></defs>
    <g id="Icon/-Checkmark" stroke="none" stroke-width="1" fill="none" fill-rule="evenodd">
        <g id="Page-1">
            <path d="M49,25 C49,38.25 38.25,49 25,49 C11.75,49 1,38.25 1,25 L1,24.86 C3.95,34.771 13.14,42 24,42 C37.2,42 47.92,31.33 48,18.141 C48.65,20.32 49,22.62 49,25" id="Fill-1" fill="#D3E5EF"></path>
            <path d="M25,50 C11.215,50 0,38.785 0,25 C0,11.215 11.215,0 25,0 C29.544,0 34.004,1.239 37.896,3.584 C38.369,3.869 38.521,4.483 38.236,4.956 C37.951,5.429 37.336,5.581 36.864,5.297 C33.283,3.14 29.181,2 25,2 C12.317,2 2,12.317 2,25 C2,37.683 12.317,48 25,48 C37.683,48 48,37.683 48,25 C48,22.338 47.549,19.732 46.658,17.259 C46.472,16.738 46.741,16.166 47.261,15.979 C47.781,15.79 48.354,16.062 48.541,16.581 C49.509,19.273 50,22.106 50,25 C50,38.785 38.785,50 25,50" id="Fill-3" fill="#4F5661"></path>
            <path d="M48.9668,7.3027 C48.5198,6.8697 48.0678,6.3377 47.5878,5.7757 C47.0988,5.2007 46.5928,4.6077 46.0758,4.1067 C45.7298,3.7717 45.1918,3.7327 44.7988,4.0117 C40.5128,7.0797 36.4708,10.5407 32.7858,14.2997 C29.2228,17.9357 25.9488,21.8917 23.0438,26.0737 L14.4408,18.1727 C14.2428,17.9917 13.9748,17.8907 13.7158,17.9097 C13.4488,17.9227 13.1978,18.0417 13.0198,18.2407 L10.3328,21.2307 C9.9708,21.6337 9.9958,22.2527 10.3908,22.6247 C10.5068,22.7357 21.9868,33.5757 22.7218,34.2887 C22.9088,34.4707 23.1588,34.5707 23.4168,34.5707 C23.4578,34.5707 23.4988,34.5677 23.5398,34.5627 C23.8408,34.5257 24.1088,34.3537 24.2678,34.0967 C27.8918,28.2387 32.2398,22.8627 37.1928,18.1167 C40.7638,14.6947 44.6768,11.5787 48.8208,8.8577 C49.0738,8.6907 49.2378,8.4177 49.2668,8.1147 C49.2958,7.8137 49.1858,7.5147 48.9668,7.3027" id="Fill-5" fill="#53C27C"></path>
        </g>
    </g>
</svg>