<?xml version="1.0" encoding="UTF-8"?>
<svg width="49px" height="55px" viewBox="0 0 49 55" version="1.1" xmlns="http://www.w3.org/2000/svg" xmlns:xlink="http://www.w3.org/1999/xlink">
    <!-- Generator: Sketch 49.3 (51167) - http://www.bohemiancoding.com/sketch -->
    <title>Icon/ Child-Dependent</title>
    <desc>Created with Sketch.</desc>
    <defs></defs>
    <g id="Icon/-Child-Dependent" stroke="none" stroke-width="1" fill="none" fill-rule="evenodd">
        <g id="Child-Dependent" transform="translate(-1.000000, -2.000000)">
            <path d="M7.8896,1.9998 C3.6506,6.0098 0.9996,11.6898 0.9996,17.9898 C0.9996,19.3598 1.1196,20.6898 1.3696,21.9898 L12.9996,21.9898" id="Fill-1" fill="#D3E5EF"></path>
            <path d="M1,21.99 L1.37,21.99" id="Fill-3" fill="#D3E5EF"></path>
            <path d="M18,21.3318 C18,21.3318 23,19.9898 20.611,14.3428 C20.611,14.3428 33.652,11.5238 38,21.8198 L18,21.3318 Z" id="Fill-5" fill="#5BBF89"></path>
            <path d="M12.1268393,14.7562441 C12.590866,14.0735573 13.2450176,13.530773 14.009857,13.2087354 C16.058791,12.3469076 18.2967448,13.291519 19.050276,15.3220207 C19.8163499,17.3833541 18.7588886,19.7705886 16.6799515,20.6453769 C16.2315258,20.8337312 15.7628635,20.9390941 15.2928136,20.9612045 C14.7411389,20.9871543 14.3149546,21.4554116 14.3409045,22.0070864 C14.3668543,22.5587611 14.8351116,22.9849454 15.3867864,22.9589955 C16.0901475,22.9259106 16.789215,22.7687489 17.45506,22.4890705 C20.5152867,21.2013693 22.0670365,17.6982713 20.9251606,14.6257393 C19.7728524,11.5206735 16.3248014,10.0652956 13.2340798,11.3653229 C12.1087516,11.8391452 11.1514241,12.6334907 10.4727607,13.6319559 C10.1622971,14.0887171 10.2808947,14.7106757 10.7376559,15.0211393 C11.1944171,15.3316029 11.8163757,15.2130053 12.1268393,14.7562441 Z" id="Stroke-7" fill="#4B5E69" fill-rule="nonzero"></path>
            <path d="M40.007,13.99 L43,13.99 L43,11.99 L40.007,11.99 C38.4591418,11.99 36.9728513,12.5939147 35.8642784,13.673631 L35.7576915,13.795788 L10.1956915,48.395788 L11.8043085,49.584212 L37.3152323,15.0533472 C38.0439981,14.3707124 39.0059554,13.99 40.007,13.99 Z" id="Stroke-9" fill="#4B5E69" fill-rule="nonzero"></path>
            <path d="M48,13.99 C48.5517153,13.99 49,13.5417153 49,12.99 C49,12.4382847 48.5517153,11.99 48,11.99 L44,11.99 L44,13.99 L48,13.99 Z M48,15.99 L43,15.99 C42.4477153,15.99 42,15.5422847 42,14.99 L42,10.99 C42,10.4377153 42.4477153,9.99 43,9.99 L48,9.99 C49.6562847,9.99 51,11.3337153 51,12.99 C51,14.6462847 49.6562847,15.99 48,15.99 Z" id="Stroke-11" fill="#4B5E69" fill-rule="nonzero"></path>
            <path d="M35,47.99 L26,28.99" id="Stroke-13" stroke="#4B5E69" stroke-width="2" stroke-linejoin="round"></path>
            <path d="M12,52.49 C12,50.5572847 10.4327153,48.99 8.5,48.99 C6.56728475,48.99 5,50.5572847 5,52.49 C5,54.4227153 6.56728475,55.99 8.5,55.99 C10.4327153,55.99 12,54.4227153 12,52.49 Z M14,52.49 C14,55.5272847 11.5372847,57.99 8.5,57.99 C5.46271525,57.99 3,55.5272847 3,52.49 C3,49.4527153 5.46271525,46.99 8.5,46.99 C11.5372847,46.99 14,49.4527153 14,52.49 Z" id="Stroke-15" fill="#4B5E69" fill-rule="nonzero"></path>
            <path d="M8.5,53.99 C7.673,53.99 7,53.317 7,52.49 C7,51.663 7.673,50.99 8.5,50.99 C9.327,50.99 10,51.663 10,52.49 C10,53.317 9.327,53.99 8.5,53.99" id="Fill-17" fill="#D3E5EF"></path>
            <path d="M40,52.49 C40,50.5572847 38.4327153,48.99 36.5,48.99 C34.5672847,48.99 33,50.5572847 33,52.49 C33,54.4227153 34.5672847,55.99 36.5,55.99 C38.4327153,55.99 40,54.4227153 40,52.49 Z M42,52.49 C42,55.5272847 39.5372847,57.99 36.5,57.99 C33.4627153,57.99 31,55.5272847 31,52.49 C31,49.4527153 33.4627153,46.99 36.5,46.99 C39.5372847,46.99 42,49.4527153 42,52.49 Z" id="Stroke-19" fill="#4B5E69" fill-rule="nonzero"></path>
            <path d="M36.5,53.99 C35.673,53.99 35,53.317 35,52.49 C35,51.663 35.673,50.99 36.5,50.99 C37.327,50.99 38,51.663 38,52.49 C38,53.317 37.327,53.99 36.5,53.99" id="Fill-21" fill="#D3E5EF"></path>
            <path d="M44.63,20.99 C45.2542183,20.99 45.7258697,21.5555832 45.6137313,22.1696462 C43.6354165,33.0027709 34.1443807,40.99 23,40.99 C10.2977153,40.99 0,30.6922847 0,17.99 C0,11.5818601 2.63721605,5.59145427 7.20287347,1.27346223 C7.82120304,0.688674118 8.84088353,1.09439021 8.88843771,1.94412381 C9.08300234,5.42075062 9.71408012,8.99476812 10.9480811,12.6719712 C12.1177652,16.1589367 13.3067178,18.8988535 14.558666,20.99 L44.63,20.99 Z M5,22.99 C4.44771525,22.99 4,22.5422847 4,21.99 C4,21.4377153 4.44771525,20.99 5,20.99 L14.558666,20.99 C14.6537187,21.1487679 14.7491346,21.3037961 14.8449327,21.4551274 C15.1403347,21.9217709 15.0015161,22.5395308 14.5348726,22.8349327 C14.3737584,22.9369238 14.1946302,22.9871532 14.0169749,22.99 C13.6591657,22.9847821 13.3423388,22.8207036 13.1550673,22.5248726 C12.8515417,22.0453963 12.5528822,21.5341835 12.2584137,20.99 C11.1415887,18.9260859 10.0850483,16.3879085 9.05195802,13.3081453 C8.02161574,10.2378252 7.39202086,7.2362568 7.07510138,4.30033872 C3.8343367,8.06527166 2,12.8807166 2,17.99 C2,29.5877153 11.4022847,38.99 23,38.99 C32.765503,38.99 41.1414892,32.2715773 43.3955666,22.99 L5,22.99 Z" id="Stroke-23" fill="#4B5E69" fill-rule="nonzero"></path>
        </g>
    </g>
</svg>