<?xml version="1.0" encoding="UTF-8"?>
<svg width="58px" height="47px" viewBox="0 0 58 47" version="1.1" xmlns="http://www.w3.org/2000/svg" xmlns:xlink="http://www.w3.org/1999/xlink">
    <!-- Generator: Sketch 49.3 (51167) - http://www.bohemiancoding.com/sketch -->
    <title>Icon/ College-Education Expense</title>
    <desc>Created with Sketch.</desc>
    <defs></defs>
    <g id="Icon/-College-Education-Expense" stroke="none" stroke-width="1" fill="none" fill-rule="evenodd">
        <g id="College-Education-Expense" transform="translate(-1.000000, -1.000000)">
            <polygon id="Fill-1" fill="#D3E5EF" points="12.1744 20 30.1184 28.444 47.0074 21.056 47.0074 17.889 30.1184 24.222 12.6184 17.086"></polygon>
            <path d="M30.1336675,23.1482824 L46.6562948,16.952664 C47.3100426,16.7075231 48.0074,17.1908021 48.0074,17.889 L48.0074,21.056 C48.0074,21.4533147 47.7721864,21.8129417 47.4081761,21.972176 L30.5191761,29.360176 C30.2549119,29.4757769 29.9536023,29.4716385 29.6926127,29.3488233 L11.7486127,20.9048233 C11.3480879,20.7163463 11.1191328,20.2869753 11.1858097,19.8493706 L11.6298097,16.9353706 C11.7272463,16.2958883 12.3970075,15.9157792 12.995986,16.1600255 L30.1336675,23.1482824 Z M30.1334821,27.3459091 L46.0074,20.4019512 L46.0074,19.3319705 L30.4695052,25.158336 C30.2339517,25.2466633 29.9737609,25.2429636 29.740814,25.1479745 L13.4158464,18.4911191 L13.2753947,19.4129125 L30.1334821,27.3459091 Z" id="Stroke-2" fill="#D3E5EF" fill-rule="nonzero"></path>
            <g id="Group-19">
                <path d="M30.3928013,25.3187491 C30.14619,25.4217503 29.86861,25.4217503 29.6219987,25.3187491 L1.61399873,13.6207491 C0.794533756,13.2784861 0.794533756,12.1175139 1.61399873,11.7752509 L29.6219987,0.0772509212 C29.86861,-0.0257503071 30.14619,-0.0257503071 30.3928013,0.0772509212 L58.4008013,11.7752509 C59.2202662,12.1175139 59.2202662,13.2784861 58.4008013,13.6207491 L30.3928013,25.3187491 Z M30.0074,23.3122818 L55.4207017,12.698 L30.0074,2.08371823 L4.59409826,12.698 L30.0074,23.3122818 Z" id="Stroke-3" fill="#4B5E69" fill-rule="nonzero"></path>
                <path d="M45.6084201,34.1564761 C45.1455371,34.4577363 45.0145159,35.0771968 45.3157761,35.5400799 C45.6170363,36.0029629 46.2364968,36.1339841 46.6993799,35.8327239 C47.3927221,35.3814729 48.0020312,34.9483615 48.6115544,34.4868461 C48.86121,34.2978133 49.0079,34.0027475 49.0079,33.6896 L49.0079,16.9996 C49.0079,16.4473153 48.5601847,15.9996 48.0079,15.9996 C47.4556153,15.9996 47.0079,16.4473153 47.0079,16.9996 L47.0079,33.1880661 C46.563322,33.5146524 46.1091812,33.8305636 45.6084201,34.1564761 Z" id="Stroke-5" fill="#4B5E69" fill-rule="nonzero"></path>
                <path d="M13.0074,17 C13.0074,16.4477153 12.5596847,16 12.0074,16 C11.4551153,16 11.0074,16.4477153 11.0074,17 L11.0074,32.658 C11.0074,32.9701069 11.1531218,33.2643163 11.4013892,33.4534564 C16.3297168,37.2080551 22.3411632,39.833 29.9514,39.833 C33.370034,39.833 36.632782,39.2456329 39.7040588,38.1841423 C40.2260465,38.0037336 40.502951,37.4343289 40.3225423,36.9123412 C40.1421336,36.3903535 39.5727289,36.113449 39.0507412,36.2938577 C36.1826918,37.285109 33.1392287,37.833 29.9514,37.833 C23.053041,37.833 17.5447744,35.5130199 13.0074,32.1582642 L13.0074,17 Z" id="Stroke-7" fill="#4B5E69" fill-rule="nonzero"></path>
                <path d="M28.0074,13 C28.0074,13.552 28.9034,14 30.0074,14 C31.1114,14 32.0074,13.552 32.0074,13 C32.0074,12.448 31.1114,12 30.0074,12 C28.9034,12 28.0074,12.448 28.0074,13" id="Fill-9" fill="#4B5E69"></path>
                <path d="M28.0074,13 C28.0074,13.552 28.9034,14 30.0074,14 C31.1114,14 32.0074,13.552 32.0074,13 C32.0074,12.448 31.1114,12 30.0074,12 C28.9034,12 28.0074,12.448 28.0074,13 Z" id="Stroke-11" stroke="#4B5E69" stroke-width="2" stroke-linecap="round" stroke-linejoin="round"></path>
                <path d="M42.0072,40.0003 C42.0072,40.5525847 42.4549153,41.0003 43.0072,41.0003 C43.5594847,41.0003 44.0072,40.5525847 44.0072,40.0003 L44.0072,18.9443 C44.0072,18.5642063 43.7917173,18.2169735 43.45113,18.0482385 L30.66813,11.7152385 C30.1732489,11.4700628 29.5733143,11.6724889 29.3281385,12.16737 C29.0829628,12.6622511 29.2853889,13.2621857 29.78027,13.5073615 L42.0072,19.5648713 L42.0072,40.0003 Z" id="Stroke-13" fill="#4B5E69" fill-rule="nonzero"></path>
                <g id="Group-18" transform="translate(40.000000, 39.000000)">
                    <path d="M3.4332,0 L2.3082,0 C1.7272,0 1.2382,0.335 1.1662,0.78 L0.0162,8.002 C-0.0678,8.533 0.4662,9 1.1582,9 L3.0072,9 L4.8572,9 C5.5482,9 6.0822,8.533 5.9982,8.002 L4.8482,0.78 C4.7772,0.335 4.2872,0 3.7062,0 L3.4332,0" id="Fill-15" fill="#F4877A"></path>
                    <path d="M3.4332,0 L2.3082,0 C1.7272,0 1.2382,0.335 1.1662,0.78 L0.0162,8.002 C-0.0678,8.533 0.4662,9 1.1582,9 L3.0072,9 L4.8572,9 C5.5482,9 6.0822,8.533 5.9982,8.002 L4.8482,0.78 C4.7772,0.335 4.2872,0 3.7062,0 L3.4332,0" id="Stroke-17" stroke="#F4877A" stroke-width="2" stroke-linecap="round" stroke-linejoin="round"></path>
                </g>
            </g>
        </g>
    </g>
</svg>