<?xml version="1.0" encoding="UTF-8"?>
<svg width="61px" height="60px" viewBox="0 0 61 60" version="1.1" xmlns="http://www.w3.org/2000/svg" xmlns:xlink="http://www.w3.org/1999/xlink">
    <!-- Generator: Sketch 49.3 (51167) - http://www.bohemiancoding.com/sketch -->
    <title>Icon/ Community</title>
    <desc>Created with Sketch.</desc>
    <defs></defs>
    <g id="Icon/-Community" stroke="none" stroke-width="1" fill="none" fill-rule="evenodd">
        <g id="Community">
            <path d="M33.3107,36 L26.1207,36 C25.5677,36 25.1207,35.553 25.1207,35 C25.1207,34.447 25.5677,34 26.1207,34 L33.3107,34 C33.8637,34 34.3107,34.447 34.3107,35 C34.3107,35.553 33.8637,36 33.3107,36" id="Fill-1" fill="#4F5661"></path>
            <path d="M36.3204,37 C38.2704,36.151 39.5704,33.434 41.5204,34.792 C43.4694,36.151 47.3704,37.51 51.9204,35.472 C51.9204,35.472 50.6204,28 43.4694,28 C36.3204,28 36.3204,37 36.3204,37" id="Fill-3" fill="#D3E5EF"></path>
            <path d="M46.1202,9 C48.1202,5 44.2302,2.705 40.8802,2.705 C37.5302,2.705 38.1202,0 34.1702,0 C29.1202,0 30.8202,1.526 26.3502,2.705 C21.8802,3.884 25.2302,7.41 21.8802,9.769 C18.5302,12.115 20.7602,16.821 25.2302,18 L27.4102,18 C27.1602,17.284 27.0102,16.516 27.0102,15.727 L27.0102,14.421 L27.0302,12.832 C27.0302,12.483 27.0602,12.144 27.1042,11.809 C29.0872,11.323 32.3862,9.855 34.0662,6.864 C35.7792,9.913 39.1722,11.378 41.1402,11.834 C41.1812,12.161 41.2102,12.492 41.2102,12.832 L41.2302,15.727 C41.2302,16.516 41.0802,17.284 40.8202,18 L42.0002,18 C50.9402,18 44.5432,12.154 46.1202,9" id="Fill-5" fill="#F4877A"></path>
            <path d="M36.7003,25.4131 C36.1083,26.5171 35.1563,27.1701 34.1203,27.1701 C33.0843,27.1701 32.1323,26.5171 31.5403,25.4131 L31.5403,24.4901 L31.5403,22.5591 C32.4383,22.9591 33.3323,23.1801 34.1203,23.1801 C34.9083,23.1801 35.8023,22.9591 36.7003,22.5591 L36.7003,24.4901 L36.7003,25.4131 Z M42.4713,24.2741 C41.2803,23.7541 40.0183,23.4901 38.7203,23.4901 L38.7003,23.4901 L38.7003,21.3541 C40.6473,19.8511 42.2263,17.5341 42.2263,14.8351 L42.2063,12.0781 C42.2023,11.5281 41.7553,11.0861 41.2063,11.0861 L41.1983,11.0861 C40.6463,11.0901 40.2023,11.5411 40.2063,12.0941 L40.2263,14.8431 C40.2263,18.2791 36.4753,21.1801 34.1203,21.1801 C31.7643,21.1801 28.0133,18.2791 28.0133,14.8431 L28.0343,12.1001 C28.0423,11.5471 27.5993,11.0941 27.0483,11.0861 L27.0343,11.0861 C26.4883,11.0861 26.0423,11.5241 26.0343,12.0721 L26.0133,14.8431 C26.0133,17.5371 27.5933,19.8521 29.5403,21.3541 L29.5403,23.4901 L29.5203,23.4901 C28.3183,23.4901 27.1463,23.7161 26.0373,24.1621 C25.5243,24.3681 25.2763,24.9501 25.4823,25.4631 C25.6873,25.9751 26.2693,26.2221 26.7833,26.0171 C27.6543,25.6681 28.5753,25.4901 29.5203,25.4901 L29.5403,25.6501 L29.5403,25.8761 L29.6373,26.0801 C30.5583,28.0151 32.2343,29.1701 34.1203,29.1701 C36.0063,29.1701 37.6813,28.0151 38.6033,26.0801 L38.7003,25.8761 L38.7003,25.6501 L38.7003,25.4901 L38.7203,25.4901 C39.7413,25.4901 40.7333,25.6971 41.6703,26.1061 C42.1783,26.3321 42.7663,26.0971 42.9863,25.5911 C43.2083,25.0851 42.9763,24.4951 42.4713,24.2741 Z" id="Fill-7" fill="#4F5661"></path>
            <path d="M9.1202,30 C9.1202,30 16.1202,30 18.1202,26 C18.1202,26 19.1202,29 23.1202,30 C23.1202,30 24.1202,22 16.1202,22 C8.1202,22 9.1202,30 9.1202,30" id="Fill-9" fill="#D3E5EF"></path>
            <path d="M27.0802,52 L1.0002,52 L2.4002,47.4 C3.7202,43.76 7.1902,41.34 11.0602,41.34 L12.1802,41.34 L12.1802,42.61 C13.0602,44.46 14.5902,45.39 16.1202,45.39 C17.6502,45.39 19.1802,44.46 20.0602,42.61 L20.0602,41.34 L21.1802,41.34 C25.0502,41.34 28.5202,43.76 29.8402,47.4 L30.0002,47.94 L30.0002,47.95" id="Fill-11" fill="#D3E5EF"></path>
            <path d="M16.1202,39.7979 C17.0162,39.7979 18.0372,39.5339 19.0582,39.0599 L19.0582,42.3769 C18.8912,42.6929 18.6992,42.9749 18.4862,43.2219 C18.4852,43.2229 18.4852,43.2229 18.4852,43.2239 C18.4492,43.2649 18.4102,43.2979 18.3742,43.3369 C17.7472,44.0059 16.9602,44.3869 16.1202,44.3869 C15.2802,44.3869 14.4932,44.0059 13.8662,43.3369 C13.8302,43.2979 13.7912,43.2649 13.7552,43.2239 C13.7552,43.2229 13.7552,43.2229 13.7542,43.2219 C13.5412,42.9749 13.3492,42.6929 13.1822,42.3769 L13.1822,39.0599 C14.2032,39.5339 15.2242,39.7979 16.1202,39.7979 M9.3032,30.7279 L9.3032,28.2619 C9.3132,24.8609 12.0892,22.0949 15.4902,22.0949 L16.7462,22.0949 C20.1482,22.0949 22.9252,24.8629 22.9332,28.2649 L22.9372,30.7279 C22.9372,34.5629 18.7502,37.7979 16.1202,37.7979 C13.4902,37.7979 9.3032,34.5629 9.3032,30.7279 M30.9592,47.6559 L30.7802,47.0599 C29.3232,43.0399 25.4662,40.3399 21.1802,40.3399 L21.0582,40.3399 L21.0582,37.8439 C23.1962,36.2099 24.9372,33.6779 24.9372,30.7259 L24.9332,28.2599 C24.9222,23.7579 21.2482,20.0949 16.7462,20.0949 L15.4902,20.0949 C10.9902,20.0949 7.3172,23.7559 7.3032,28.2589 L7.3032,30.7279 C7.3032,33.6789 9.0442,36.2099 11.1822,37.8439 L11.1822,40.3399 L11.0602,40.3399 C6.7742,40.3399 2.9172,43.0399 1.4432,47.1099 L0.0432,51.7089 C-0.0488,52.0119 0.0082,52.3409 0.1962,52.5959 C0.3852,52.8499 0.6832,52.9999 1.0002,52.9999 L27.0802,52.9999 C27.6332,52.9999 28.0802,52.5529 28.0802,51.9999 C28.0802,51.4469 27.6332,50.9999 27.0802,50.9999 L2.3492,50.9999 L3.3412,47.7409 C4.5122,44.5109 7.6132,42.3399 11.0602,42.3399 L11.1802,42.3399 L11.1802,42.6109 C11.1802,42.6129 11.1822,42.6159 11.1822,42.6189 L11.1822,42.8419 L11.2762,43.0389 L11.2762,43.0399 C11.2762,43.0409 11.2772,43.0409 11.2772,43.0419 L11.2792,43.0459 C11.3652,43.2259 11.4642,43.3899 11.5612,43.5569 C11.6052,43.6319 11.6422,43.7149 11.6882,43.7869 C11.8002,43.9619 11.9232,44.1209 12.0462,44.2799 C12.0892,44.3349 12.1262,44.3969 12.1692,44.4489 C12.2192,44.5089 12.2752,44.5589 12.3272,44.6149 C13.3372,45.7429 14.6692,46.3899 16.1202,46.3899 C17.5712,46.3899 18.9032,45.7429 19.9132,44.6149 C19.9652,44.5589 20.0212,44.5089 20.0712,44.4489 C20.1142,44.3969 20.1512,44.3339 20.1942,44.2789 C20.3172,44.1209 20.4402,43.9619 20.5522,43.7869 C20.5982,43.7149 20.6352,43.6319 20.6792,43.5569 C20.7762,43.3899 20.8752,43.2259 20.9612,43.0459 L20.9632,43.0419 C20.9632,43.0409 20.9642,43.0409 20.9642,43.0399 L20.9642,43.0389 L21.0582,42.8419 L21.0582,42.6189 C21.0582,42.6159 21.0602,42.6129 21.0602,42.6109 L21.0602,42.3399 L21.1802,42.3399 C24.6272,42.3399 27.7282,44.5109 28.8812,47.6849 L29.0222,48.1599 C29.1192,48.6109 29.5192,48.9449 30.0002,48.9449 C30.5532,48.9449 31.0002,48.4929 31.0002,47.9409 C31.0002,47.8439 30.9862,47.7479 30.9592,47.6559" id="Fill-13" fill="#4F5661"></path>
            <path d="M59.2355,59 L29.0055,59 L30.4035,54.4 C31.7225,50.759 35.1885,48.339 39.0605,48.339 L40.1815,48.339 L40.1815,49.615 C41.0625,51.463 42.5905,52.387 44.1205,52.387 C45.6495,52.387 47.1775,51.463 48.0585,49.615 L48.0585,48.339 L49.1795,48.339 C53.0515,48.339 56.5175,50.759 57.8375,54.4 L59.2355,59 Z" id="Fill-15" fill="#F4877A"></path>
            <path d="M30.3536,58 L31.3436,54.741 C32.5146,51.51 35.6156,49.339 39.0606,49.339 L39.1816,49.339 L39.1816,49.615 L39.1816,49.842 L39.2796,50.046 C40.2766,52.138 42.0856,53.387 44.1206,53.387 C46.1546,53.387 47.9636,52.138 48.9606,50.046 L49.0586,49.842 L49.0586,49.615 L49.0586,49.339 L49.1796,49.339 C52.6246,49.339 55.7256,51.51 56.8796,54.691 L57.8856,58 L30.3536,58 Z M44.1206,46.798 C45.0156,46.798 46.0376,46.534 47.0586,46.06 L47.0586,48.339 L47.0586,49.379 C46.3896,50.641 45.3046,51.387 44.1206,51.387 C42.9356,51.387 41.8506,50.641 41.1816,49.379 L41.1816,48.339 L41.1816,46.06 C42.2036,46.534 43.2246,46.798 44.1206,46.798 Z M37.3026,37.728 L37.3026,35.262 C37.3136,31.861 40.0886,29.095 43.4906,29.095 L44.7466,29.095 C48.1486,29.095 50.9246,31.863 50.9336,35.265 L50.9376,37.728 C50.9376,41.563 46.7496,44.798 44.1206,44.798 C41.4906,44.798 37.3026,41.563 37.3026,37.728 Z M60.1926,58.709 L58.7776,54.06 C57.3206,50.04 53.4636,47.339 49.1796,47.339 L49.0586,47.339 L49.0586,44.844 C51.1966,43.21 52.9376,40.678 52.9376,37.726 L52.9336,35.26 C52.9216,30.758 49.2486,27.095 44.7466,27.095 L43.4906,27.095 C38.9906,27.095 35.3176,30.756 35.3026,35.259 L35.3026,37.728 C35.3026,40.679 37.0436,43.21 39.1816,44.844 L39.1816,47.339 L39.0606,47.339 C34.7766,47.339 30.9196,50.04 29.4466,54.109 L28.0476,58.709 C27.9566,59.012 28.0126,59.341 28.2016,59.596 C28.3896,59.85 28.6886,60 29.0046,60 L59.2356,60 C59.5516,60 59.8506,59.85 60.0396,59.596 C60.2276,59.341 60.2846,59.012 60.1926,58.709 Z" id="Fill-17" fill="#4F5661"></path>
        </g>
    </g>
</svg>