<?xml version="1.0" encoding="UTF-8"?>
<svg width="53px" height="60px" viewBox="0 0 53 60" version="1.1" xmlns="http://www.w3.org/2000/svg" xmlns:xlink="http://www.w3.org/1999/xlink">
    <!-- Generator: Sketch 49.3 (51167) - http://www.bohemiancoding.com/sketch -->
    <title>Icon/ Confirmed health insurance</title>
    <desc>Created with Sketch.</desc>
    <defs></defs>
    <g id="Icon/-Confirmed-health-insurance" stroke="none" stroke-width="1" fill="none" fill-rule="evenodd">
        <g id="confirmed-health-insurance">
            <path d="M35,49.5002 C35,50.8812 30.971,52.0002 26,52.0002 C21.029,52.0002 17,50.8812 17,49.5002 C17,48.1192 21.029,47.0002 26,47.0002 C30.971,47.0002 35,48.1192 35,49.5002" id="Fill-1" fill="#D3E5EF"></path>
            <path d="M5,14.5002 C4.616,14.5002 4.232,14.3542 3.939,14.0612 L0.439,10.5612 C-0.146,9.9752 -0.146,9.0252 0.439,8.4392 C1.025,7.8542 1.975,7.8542 2.561,8.4392 L6.061,11.9392 C6.646,12.5252 6.646,13.4752 6.061,14.0612 C5.768,14.3542 5.384,14.5002 5,14.5002" id="Fill-3" fill="#D3E5EF"></path>
            <path d="M26.5,9.0002 C25.672,9.0002 25,8.3282 25,7.5002 L25,1.5002 C25,0.6722 25.672,0.0002 26.5,0.0002 C27.328,0.0002 28,0.6722 28,1.5002 L28,7.5002 C28,8.3282 27.328,9.0002 26.5,9.0002" id="Fill-5" fill="#D3E5EF"></path>
            <path d="M15.5,11.0002 C14.893,11.0002 14.321,10.6292 14.096,10.0262 L11.096,2.0262 C10.805,1.2512 11.197,0.3872 11.974,0.0962 C12.749,-0.1948 13.614,0.1982 13.904,0.9742 L16.904,8.9742 C17.195,9.7492 16.803,10.6132 16.026,10.9042 C15.854,10.9702 15.675,11.0002 15.5,11.0002" id="Fill-7" fill="#D3E5EF"></path>
            <path d="M48,14.5002 C47.616,14.5002 47.232,14.3542 46.939,14.0612 C46.354,13.4752 46.354,12.5252 46.939,11.9392 L50.439,8.4392 C51.025,7.8542 51.975,7.8542 52.561,8.4392 C53.146,9.0252 53.146,9.9752 52.561,10.5612 L49.061,14.0612 C48.768,14.3542 48.384,14.5002 48,14.5002" id="Fill-9" fill="#D3E5EF"></path>
            <path d="M37.5,10.5002 C37.314,10.5002 37.126,10.4662 36.943,10.3932 C36.174,10.0852 35.8,9.2122 36.107,8.4432 L39.107,0.9432 C39.415,0.1742 40.29,-0.1978 41.057,0.1072 C41.826,0.4152 42.2,1.2882 41.893,2.0572 L38.893,9.5572 C38.658,10.1442 38.095,10.5002 37.5,10.5002" id="Fill-11" fill="#D3E5EF"></path>
            <path d="M26,60.0002 C12.767,60.0002 2,49.2332 2,36.0002 C2,33.9682 2.253,31.9532 2.751,30.0112 C2.889,29.4762 3.435,29.1552 3.969,29.2912 C4.503,29.4292 4.825,29.9742 4.688,30.5092 C4.231,32.2882 4,34.1362 4,36.0002 C4,48.1312 13.869,58.0002 26,58.0002 C38.131,58.0002 48,48.1312 48,36.0002 C48,34.1362 47.769,32.2882 47.312,30.5092 C47.291,30.4272 47.28,30.3442 47.28,30.2602 C47.28,29.7072 47.728,29.2552 48.28,29.2552 C48.771,29.2552 49.181,29.6052 49.265,30.0722 C49.753,31.9952 50,33.9892 50,36.0002 C50,49.2332 39.233,60.0002 26,60.0002" id="Fill-13" fill="#4F5661"></path>
            <path d="M26.3701,49.5178 C26.3701,49.5178 46.3651,37.5928 46.3651,24.1788 C46.3651,18.0048 41.7291,12.9998 36.0101,12.9998 C31.1941,12.9998 27.1591,16.5538 26.0001,21.3608 C24.8411,16.5538 20.8061,12.9998 15.9901,12.9998 C10.2701,12.9998 5.6351,18.0048 5.6351,24.1788 C5.6351,37.5928 25.6301,49.5178 25.6301,49.5178" id="Fill-15" fill="#F4877A"></path>
            <path d="M10.2559,25.1789 C9.7029,25.1789 9.2559,24.7319 9.2559,24.1789 C9.2559,20.0109 12.2769,16.6199 15.9899,16.6199 C16.5429,16.6199 16.9899,17.0679 16.9899,17.6199 C16.9899,18.1729 16.5429,18.6199 15.9899,18.6199 C13.3799,18.6199 11.2559,21.1139 11.2559,24.1789 C11.2559,24.7319 10.8089,25.1789 10.2559,25.1789" id="Fill-17" fill="#FFFFFF"></path>
            <path d="M32,30.0002 L28,30.0002 L28,26.0002 C28,25.4472 27.553,25.0002 27,25.0002 L25,25.0002 C24.447,25.0002 24,25.4472 24,26.0002 L24,30.0002 L20,30.0002 C19.447,30.0002 19,30.4472 19,31.0002 L19,33.0002 C19,33.5532 19.447,34.0002 20,34.0002 L24,34.0002 L24,38.0002 C24,38.5532 24.447,39.0002 25,39.0002 L27,39.0002 C27.553,39.0002 28,38.5532 28,38.0002 L28,34.0002 L32,34.0002 C32.553,34.0002 33,33.5532 33,33.0002 L33,31.0002 C33,30.4472 32.553,30.0002 32,30.0002" id="Fill-19" fill="#FFFFFF"></path>
        </g>
    </g>
</svg>