<?xml version="1.0" encoding="UTF-8"?>
<svg width="60px" height="60px" viewBox="0 0 60 60" version="1.1" xmlns="http://www.w3.org/2000/svg" xmlns:xlink="http://www.w3.org/1999/xlink">
    <!-- Generator: Sketch 49.3 (51167) - http://www.bohemiancoding.com/sketch -->
    <title>Icon/ Corporation Partnership</title>
    <desc>Created with Sketch.</desc>
    <defs>
        <polygon id="path-1" points="60 24.5002 60 49 0 49 0 24.5002 0 0.0004 60 0.0004 60 24.5002"></polygon>
    </defs>
    <g id="Icon/-Corporation-Partnership" stroke="none" stroke-width="1" fill="none" fill-rule="evenodd">
        <g id="Page-1">
            <path d="M50,27.9998 L40,27.9998 C39.448,27.9998 39,28.4468 39,28.9998 L39,31.9998 C39,32.5528 39.448,32.9998 40,32.9998 L50,32.9998 C50.552,32.9998 51,32.5528 51,31.9998 L51,28.9998 C51,28.4468 50.552,27.9998 50,27.9998" id="Fill-1" fill="#D3E5EF"></path>
            <path d="M50,35.9998 L40,35.9998 C39.448,35.9998 39,36.4468 39,36.9998 L39,39.9998 C39,40.5528 39.448,40.9998 40,40.9998 L50,40.9998 C50.552,40.9998 51,40.5528 51,39.9998 L51,36.9998 C51,36.4468 50.552,35.9998 50,35.9998" id="Fill-3" fill="#D3E5EF"></path>
            <path d="M50,43.9998 L40,43.9998 C39.448,43.9998 39,44.4468 39,44.9998 L39,47.9998 C39,48.5528 39.448,48.9998 40,48.9998 L50,48.9998 C50.552,48.9998 51,48.5528 51,47.9998 L51,44.9998 C51,44.4468 50.552,43.9998 50,43.9998" id="Fill-5" fill="#D3E5EF"></path>
            <path d="M45.2012,12.9998 C44.8342,12.9998 44.4812,12.7978 44.3052,12.4468 C43.3512,10.5378 40.8292,9.9848 40.8042,9.9798 C40.2622,9.8718 39.9112,9.3458 40.0192,8.8038 C40.1272,8.2618 40.6532,7.9048 41.1962,8.0198 C41.3382,8.0478 44.6922,8.7478 46.0952,11.5528 C46.3422,12.0468 46.1412,12.6468 45.6472,12.8948 C45.5042,12.9658 45.3512,12.9998 45.2012,12.9998" id="Fill-7" fill="#D3E5EF"></path>
            <path d="M18.999,12.9998 C18.849,12.9998 18.696,12.9658 18.553,12.8948 C18.059,12.6468 17.858,12.0468 18.105,11.5528 C19.508,8.7478 22.862,8.0478 23.004,8.0198 C23.546,7.9058 24.072,8.2618 24.181,8.8038 C24.289,9.3438 23.939,9.8698 23.4,9.9788 C23.374,9.9848 20.854,10.5268 19.895,12.4468 C19.719,12.7978 19.366,12.9998 18.999,12.9998" id="Fill-9" fill="#D3E5EF"></path>
            <g id="Group-13" transform="translate(0.000000, 10.999800)">
                <mask id="mask-2" fill="white">
                    <use xlink:href="#path-1"></use>
                </mask>
                <g id="Clip-12"></g>
                <path d="M35,13.6904 L35,10.7634 L55,5.3094 L55,8.2364 L35,13.6904 Z M53,47.0004 L48.5,47.0004 L48.5,42.5004 C48.5,41.9474 48.052,41.5004 47.5,41.5004 L42,41.5004 C41.448,41.5004 41,41.9474 41,42.5004 L41,47.0004 L37,47.0004 L37,15.2184 L53,10.8544 L53,47.0004 Z M43,46.5004 L46.5,46.5004 L46.5,43.5004 L43,43.5004 L43,46.5004 Z M24,47.0004 L19,47.0004 L19,42.5004 C19,41.9474 18.552,41.5004 18,41.5004 L12,41.5004 C11.448,41.5004 11,41.9474 11,42.5004 L11,47.0004 L6,47.0004 L6,14.0004 L10,14.0004 L20,14.0004 L24,14.0004 L24,47.0004 Z M13,46.5004 L17,46.5004 L17,43.5004 L13,43.5004 L13,46.5004 Z M11,12.0004 L19,12.0004 L19,7.0004 L11,7.0004 L11,12.0004 Z M59,47.0004 L55,47.0004 L55,10.3094 L56.263,9.9644 C56.698,9.8454 57,9.4514 57,9.0004 L57,4.0004 C57,3.6884 56.854,3.3944 56.607,3.2054 C56.359,3.0154 56.039,2.9554 55.737,3.0354 L33.737,9.0354 C33.302,9.1544 33,9.5484 33,10.0004 L33,15.0004 C33,15.3114 33.146,15.6054 33.393,15.7944 C33.569,15.9294 33.783,16.0004 34,16.0004 C34.088,16.0004 34.176,15.9884 34.263,15.9644 L35,15.7634 L35,47.0004 L26,47.0004 L26,13.0004 C26,12.4474 25.552,12.0004 25,12.0004 L21,12.0004 L21,6.0004 C21,5.4474 20.552,5.0004 20,5.0004 L16,5.0004 L16,1.0004 C16,0.4474 15.552,0.0004 15,0.0004 C14.448,0.0004 14,0.4474 14,1.0004 L14,5.0004 L10,5.0004 C9.448,5.0004 9,5.4474 9,6.0004 L9,12.0004 L5,12.0004 C4.448,12.0004 4,12.4474 4,13.0004 L4,47.0004 L1,47.0004 C0.448,47.0004 0,47.4474 0,48.0004 C0,48.5524 0.448,49.0004 1,49.0004 L5,49.0004 L25,49.0004 L36,49.0004 L54,49.0004 L59,49.0004 C59.552,49.0004 60,48.5524 60,48.0004 C60,47.4474 59.552,47.0004 59,47.0004 Z" id="Fill-11" fill="#4F5661" mask="url(#mask-2)"></path>
            </g>
            <path d="M20,27.9998 L10,27.9998 C9.448,27.9998 9,28.4468 9,28.9998 L9,31.9998 C9,32.5528 9.448,32.9998 10,32.9998 L20,32.9998 C20.552,32.9998 21,32.5528 21,31.9998 L21,28.9998 C21,28.4468 20.552,27.9998 20,27.9998" id="Fill-14" fill="#D3E5EF"></path>
            <path d="M20,35.9998 L10,35.9998 C9.448,35.9998 9,36.4468 9,36.9998 L9,39.9998 C9,40.5528 9.448,40.9998 10,40.9998 L20,40.9998 C20.552,40.9998 21,40.5528 21,39.9998 L21,36.9998 C21,36.4468 20.552,35.9998 20,35.9998" id="Fill-16" fill="#D3E5EF"></path>
            <path d="M20,43.9998 L10,43.9998 C9.448,43.9998 9,44.4468 9,44.9998 L9,47.9998 C9,48.5528 9.448,48.9998 10,48.9998 L20,48.9998 C20.552,48.9998 21,48.5528 21,47.9998 L21,44.9998 C21,44.4468 20.552,43.9998 20,43.9998" id="Fill-18" fill="#D3E5EF"></path>
            <path d="M32.1304,12.9998 C32.1304,12.9998 39.1824,8.7548 39.1824,3.9788 C39.1824,1.7818 37.5474,-0.0002 35.5304,-0.0002 C33.8324,-0.0002 32.4084,1.2648 32.0004,2.9768 C31.5914,1.2648 30.1684,-0.0002 28.4694,-0.0002 C26.4534,-0.0002 24.8184,1.7818 24.8184,3.9788 C24.8184,8.7548 31.8694,12.9998 31.8694,12.9998" id="Fill-20" fill="#F4877A"></path>
        </g>
    </g>
</svg>