<?xml version="1.0" encoding="UTF-8"?>
<svg width="58px" height="57px" viewBox="0 0 58 57" version="1.1" xmlns="http://www.w3.org/2000/svg" xmlns:xlink="http://www.w3.org/1999/xlink">
    <!-- Generator: Sketch 49.3 (51167) - http://www.bohemiancoding.com/sketch -->
    <title>Icon/ Credit Score</title>
    <desc>Created with Sketch.</desc>
    <defs></defs>
    <g id="Icon/-Credit-Score" stroke="none" stroke-width="1" fill="none" fill-rule="evenodd">
        <g id="Page-1">
            <path d="M21.2122,11.574 C22.9912,10.78 24.9082,10.243 26.9242,10.031 L26.9242,0 C23.0912,0.261 19.4622,1.261 16.1832,2.868 L21.2122,11.574 Z" id="Fill-1" fill="#D3E5EF"></path>
            <path d="M30.9241,-0.0002 L30.9241,10.0308 C32.9391,10.2428 34.8541,10.7788 36.6321,11.5718 L41.6591,2.8648 C38.3811,1.2608 34.7551,0.2618 30.9241,-0.0002" id="Fill-3" fill="#D3E5EF"></path>
            <path d="M11.5711,21.2185 L2.8631,16.1935 C1.2591,19.4715 0.2601,23.0985 0.0001,26.9285 L10.0311,26.9275 C10.2421,24.9125 10.7791,22.9965 11.5711,21.2185" id="Fill-5" fill="#D3E5EF"></path>
            <path d="M46.2752,21.2146 C47.0682,22.9926 47.6052,24.9076 47.8172,26.9226 L57.8472,26.9216 C57.5862,23.0916 56.5872,19.4656 54.9822,16.1876 L46.2752,21.2146 Z" id="Fill-7" fill="#D3E5EF"></path>
            <path d="M40.0901,13.5828 C41.6901,14.7498 43.0971,16.1568 44.2641,17.7568 L52.9821,12.7238 C50.8931,9.6258 48.2211,6.9538 45.1231,4.8648 L40.0901,13.5828 Z" id="Fill-9" fill="#53C27C"></path>
            <path d="M13.5814,17.7605 C14.7484,16.1605 16.1554,14.7535 17.7544,13.5855 L12.7194,4.8685 C9.6224,6.9585 6.9514,9.6305 4.8624,12.7285 L13.5814,17.7605 Z" id="Fill-11" fill="#D3E5EF"></path>
            <polyline id="Fill-13" fill="#D3E5EF" points="34.3358 28.9334 39.9238 17.9234 29.0548 24.6084"></polyline>
            <path d="M33.9241,29.9236 C33.9241,32.6856 31.6851,34.9236 28.9241,34.9236 C26.1631,34.9236 23.9241,32.6856 23.9241,29.9236 C23.9241,27.1616 26.1631,24.9236 28.9241,24.9236 C31.6851,24.9236 33.9241,27.1616 33.9241,29.9236" id="Fill-15" fill="#FFFFFF"></path>
            <path d="M28.9241,25.9236 C26.7181,25.9236 24.9241,27.7176 24.9241,29.9236 C24.9241,32.1296 26.7181,33.9236 28.9241,33.9236 C31.1301,33.9236 32.9241,32.1296 32.9241,29.9236 C32.9241,27.7176 31.1301,25.9236 28.9241,25.9236 M28.9241,35.9236 C25.6151,35.9236 22.9241,33.2326 22.9241,29.9236 C22.9241,26.6146 25.6151,23.9236 28.9241,23.9236 C32.2331,23.9236 34.9241,26.6146 34.9241,29.9236 C34.9241,33.2326 32.2331,35.9236 28.9241,35.9236" id="Fill-17" fill="#4F5661"></path>
            <path d="M16.9232,50.9236 C16.7612,50.9236 16.5972,50.8846 16.4452,50.8016 C15.9602,50.5366 15.7812,49.9296 16.0462,49.4446 L21.2392,39.9236 L14.9242,39.9236 C14.3722,39.9236 13.9242,39.4766 13.9242,38.9236 C13.9242,38.3706 14.3722,37.9236 14.9242,37.9236 L22.9242,37.9236 C23.2772,37.9236 23.6042,38.1106 23.7842,38.4126 C23.9642,38.7166 23.9712,39.0926 23.8022,39.4026 L17.8022,50.4026 C17.6202,50.7356 17.2772,50.9236 16.9232,50.9236" id="Fill-19" fill="#4F5661"></path>
            <path d="M39.9276,43.2009 C40.5946,42.2539 41.7046,40.7999 42.7046,39.5489 C42.9456,39.2479 42.9916,38.8369 42.8256,38.4899 C42.6586,38.1439 42.3086,37.9239 41.9246,37.9239 L34.9246,37.9239 C34.3716,37.9239 33.9246,38.3709 33.9246,38.9239 C33.9246,39.4759 34.3716,39.9239 34.9246,39.9239 L39.8606,39.9239 C37.0846,43.5019 37.2356,43.8159 37.4856,44.3359 C37.5396,44.4489 37.6236,44.5449 37.7176,44.6309 C37.7176,44.6309 37.7176,44.6319 37.7176,44.6319 C37.7966,44.7039 37.8846,44.7629 37.9816,44.8089 C38.0146,44.8259 38.0466,44.8419 38.0816,44.8539 C38.1926,44.8949 38.3076,44.9239 38.4246,44.9239 C39.8026,44.9239 40.9246,46.0449 40.9246,47.4239 C40.9246,48.8029 39.8026,49.9239 38.4246,49.9239 C37.4776,49.9239 36.6226,49.3989 36.1936,48.5549 C35.9446,48.0619 35.3426,47.8689 34.8486,48.1159 C34.3566,48.3669 34.1606,48.9689 34.4106,49.4609 C35.1836,50.9799 36.7206,51.9239 38.4246,51.9239 C40.9056,51.9239 42.9246,49.9049 42.9246,47.4239 C42.9246,45.4719 41.6676,43.8229 39.9276,43.2009" id="Fill-21" fill="#4F5661"></path>
            <path d="M28.4241,49.9236 C27.0461,49.9236 25.9241,48.8026 25.9241,47.4236 C25.9241,47.0986 25.9911,46.7896 26.1041,46.5046 L26.4281,45.9346 C26.8841,45.3246 27.6061,44.9236 28.4241,44.9236 C29.8021,44.9236 30.9241,46.0446 30.9241,47.4236 C30.9241,48.8026 29.8021,49.9236 28.4241,49.9236 M28.4241,42.9236 C28.3201,42.9236 28.2221,42.9466 28.1191,42.9536 L30.1271,39.4176 C30.4001,38.9376 30.2321,38.3266 29.7511,38.0536 C29.2721,37.7836 28.6611,37.9496 28.3881,38.4296 L24.7441,44.8476 C24.5871,45.0716 24.4521,45.3136 24.3371,45.5656 L24.3171,45.6016 C24.3161,45.6026 24.3161,45.6046 24.3151,45.6056 C24.0681,46.1626 23.9241,46.7766 23.9241,47.4236 C23.9241,49.9046 25.9431,51.9236 28.4241,51.9236 C30.9051,51.9236 32.9241,49.9046 32.9241,47.4236 C32.9241,44.9426 30.9051,42.9236 28.4241,42.9236" id="Fill-23" fill="#4F5661"></path>
            <path d="M46.9241,56.9236 L10.9241,56.9236 C9.2701,56.9236 7.9241,55.5776 7.9241,53.9236 L7.9241,32.9236 C7.9241,31.2696 9.2701,29.9236 10.9241,29.9236 L19.9241,29.9236 C20.4761,29.9236 20.9241,30.3706 20.9241,30.9236 C20.9241,31.4766 20.4761,31.9236 19.9241,31.9236 L10.9241,31.9236 C10.3731,31.9236 9.9241,32.3716 9.9241,32.9236 L9.9241,53.9236 C9.9241,54.4756 10.3731,54.9236 10.9241,54.9236 L46.9241,54.9236 C47.4751,54.9236 47.9241,54.4756 47.9241,53.9236 L47.9241,32.9236 C47.9241,32.3716 47.4751,31.9236 46.9241,31.9236 L37.9241,31.9236 C37.3721,31.9236 36.9241,31.4766 36.9241,30.9236 C36.9241,30.3706 37.3721,29.9236 37.9241,29.9236 L46.9241,29.9236 C48.5781,29.9236 49.9241,31.2696 49.9241,32.9236 L49.9241,53.9236 C49.9241,55.5776 48.5781,56.9236 46.9241,56.9236" id="Fill-25" fill="#4F5661"></path>
            <path d="M33.9241,29.9236 C33.9241,32.6856 31.6851,34.9236 28.9241,34.9236 C26.1631,34.9236 23.9241,32.6856 23.9241,29.9236 C23.9241,27.1616 26.1631,24.9236 28.9241,24.9236 C31.6851,24.9236 33.9241,27.1616 33.9241,29.9236" id="Fill-27" fill="#FFFFFF"></path>
            <path d="M34.179,27.034 C33.535,25.868 32.517,24.938 31.286,24.409 L37.428,20.633 L34.179,27.034 Z M28.924,33.924 C26.719,33.924 24.924,32.13 24.924,29.924 C24.924,27.718 26.719,25.924 28.924,25.924 C31.13,25.924 32.924,27.718 32.924,29.924 C32.924,32.13 31.13,33.924 28.924,33.924 Z M40.602,17.188 C40.272,16.886 39.782,16.837 39.4,17.072 L28.175,23.975 C25.219,24.346 22.924,26.87 22.924,29.924 C22.924,33.232 25.616,35.924 28.924,35.924 C32.21,35.924 34.885,33.268 34.921,29.99 L40.816,18.376 C41.018,17.977 40.931,17.492 40.602,17.188 Z" id="Fill-29" fill="#4F5661"></path>
        </g>
    </g>
</svg>