<?xml version="1.0" encoding="UTF-8"?>
<svg width="60px" height="41px" viewBox="0 0 60 41" version="1.1" xmlns="http://www.w3.org/2000/svg" xmlns:xlink="http://www.w3.org/1999/xlink">
    <!-- Generator: Sketch 49.3 (51167) - http://www.bohemiancoding.com/sketch -->
    <title>Icon/ Credit Card</title>
    <desc>Created with Sketch.</desc>
    <defs>
        <polygon id="path-1" points="0 41 60 41 60 0 0 0"></polygon>
    </defs>
    <g id="Icon/-Credit-Card" stroke="none" stroke-width="1" fill="none" fill-rule="evenodd">
        <g id="Page-1">
            <path d="M44,29.7324 L44,29.7034 C44,26.7834 46.2,24.3904 49.356,24.3904 C51.077,24.3904 52.186,24.9014 53.08,25.6734 C53.264,25.8334 53.291,26.1084 53.132,26.2924 L52.248,27.3104 C52.093,27.4904 51.827,27.5034 51.643,27.3554 C50.951,26.8024 50.229,26.4744 49.341,26.4744 C47.609,26.4744 46.362,27.9134 46.362,29.6734 L46.362,29.8704 C46.362,31.4914 47.622,32.8954 49.243,32.9304 C50.323,32.9534 51.021,32.5914 51.735,31.9964 C51.91,31.8494 52.166,31.8544 52.326,32.0164 L53.18,32.8784 C53.346,33.0454 53.351,33.3214 53.181,33.4854 C52.197,34.4364 51.064,35.0154 49.268,35.0154 C46.245,35.0154 44,32.6824 44,29.7324 Z" id="Fill-1" fill="#53C27C"></path>
            <mask id="mask-2" fill="white">
                <use xlink:href="#path-1"></use>
            </mask>
            <g id="Clip-4"></g>
            <polygon id="Fill-3" fill="#D3E5EF" mask="url(#mask-2)" points="2 17 58 17 58 9 2 9"></polygon>
            <path d="M4,2 C2.897,2 2,2.897 2,4 L2,37 C2,38.103 2.897,39 4,39 L56,39 C57.103,39 58,38.103 58,37 L58,4 C58,2.897 57.103,2 56,2 L4,2 Z M56,41 L4,41 C1.794,41 0,39.206 0,37 L0,4 C0,1.794 1.794,0 4,0 L56,0 C58.206,0 60,1.794 60,4 L60,37 C60,39.206 58.206,41 56,41 Z" id="Fill-5" fill="#4F5661" mask="url(#mask-2)"></path>
            <path d="M27,35 L7,35 C6.447,35 6,34.553 6,34 C6,33.447 6.447,33 7,33 L27,33 C27.553,33 28,33.447 28,34 C28,34.553 27.553,35 27,35" id="Fill-6" fill="#4F5661" mask="url(#mask-2)"></path>
            <path d="M19,30 L7,30 C6.447,30 6,29.553 6,29 C6,28.447 6.447,28 7,28 L19,28 C19.553,28 20,28.447 20,29 C20,29.553 19.553,30 19,30" id="Fill-7" fill="#4F5661" mask="url(#mask-2)"></path>
        </g>
    </g>
</svg>