<?xml version="1.0" encoding="UTF-8"?>
<svg width="41px" height="60px" viewBox="0 0 41 60" version="1.1" xmlns="http://www.w3.org/2000/svg" xmlns:xlink="http://www.w3.org/1999/xlink">
    <!-- Generator: Sketch 49.3 (51167) - http://www.bohemiancoding.com/sketch -->
    <title>Icon/ Debt</title>
    <desc>Created with Sketch.</desc>
    <defs></defs>
    <g id="Icon/-Debt" stroke="none" stroke-width="1" fill="none" fill-rule="evenodd">
        <g id="Page-1">
            <path d="M41,53.6748 C41,56.6138 31.818,59.9998 20.5,59.9998 C9.182,59.9998 0,56.6138 0,53.6748 C0,52.2578 2.146,51.9588 5.645,50.9998 C5.902,51.2878 6.169,51.5648 6.445,51.8308 C9.754,54.9838 14.665,56.7408 20.5,56.7938 C26.335,56.7408 31.246,54.9838 34.555,51.8308 C34.831,51.5648 35.098,51.2878 35.355,50.9998 C38.854,51.9588 41,52.2578 41,53.6748" id="Fill-1" fill="#D3E5EF"></path>
            <path d="M26.5,43.666 C26.5,41.457 25.072,40.159 21.868,39.459 C19.073,38.857 18.857,38.269 18.857,37.503 C18.857,36.629 19.737,36.018 20.996,36.018 C22.211,36.018 23.267,36.419 24.318,37.278 L24.789,37.666 L26.341,35.604 L25.898,35.246 C24.76,34.329 23.638,33.818 22.312,33.628 L22.312,31.847 C22.312,31.38 21.934,31 21.468,31 L20.625,31 C20.159,31 19.781,31.38 19.781,31.847 L19.781,33.68 C17.676,34.121 16.241,35.655 16.241,37.668 C16.241,40.517 18.529,41.408 21.004,41.948 C23.666,42.513 23.865,43.067 23.865,43.85 C23.865,44.788 22.934,45.443 21.6,45.443 C20.064,45.443 18.907,44.962 17.604,43.78 L17.155,43.372 L15.5,45.337 L15.926,45.719 C17.123,46.792 18.379,47.449 19.781,47.741 L19.781,49.615 C19.781,50.082 20.159,50.462 20.625,50.462 L21.468,50.462 C21.934,50.462 22.312,50.082 22.312,49.615 L22.312,47.864 C24.809,47.582 26.5,45.943 26.5,43.666" id="Fill-3" fill="#F4877A"></path>
            <path d="M17.4746,22.3867 L17.1016,22.4807 C17.1866,22.4097 17.3196,22.3797 17.4746,22.3867" id="Fill-5" fill="#4F5661"></path>
            <path d="M27,24 C25.654,24.462 23.577,25 21,25 C19.577,25 17.437,24.836 15,24 L15,19 C16.346,19.462 18.423,20 21,20 C22.423,20 24.562,19.836 27,19 L27,24 Z" id="Fill-7" fill="#D3E5EF"></path>
            <path d="M33.835,51.8261 C30.741,54.4631 26.007,55.9421 20.504,55.9931 C14.996,55.9421 10.259,54.4631 7.163,51.8241 C2.874,48.1901 1.865,42.5781 4.323,36.0201 C6.478,30.2711 11.852,26.4141 14.394,24.8491 L14.676,24.9461 C16.715,25.6451 18.843,26.0001 21,26.0001 C23.159,26.0001 25.287,25.6451 27.324,24.9461 L27.473,24.8951 C29.796,26.4991 34.542,30.3231 36.677,36.0201 C39.135,42.5781 38.126,48.1901 33.835,51.8261 Z M16.647,10.0001 C17.045,10.0001 17.395,10.5001 17.395,11.0701 C17.395,11.3431 17.303,11.6181 17.168,11.7841 C17.048,11.9211 16.901,12.0001 16.765,12.0001 L15.398,12.0001 L14.172,12.0001 L14.172,14.0001 L15.398,14.0001 L16.765,14.0001 L25.19,14.0001 C27.064,14.0001 28.589,12.4741 28.589,10.6001 C28.589,8.7251 27.064,7.2001 25.19,7.2001 L24.392,7.2001 C24.061,7.2001 23.792,6.9311 23.792,6.6001 C23.792,6.2691 24.061,6.0001 24.392,6.0001 L33.344,6.0001 L33.344,6.4531 C33.344,8.1721 31.325,10.8251 29.545,13.1671 C28.132,15.0251 26.866,16.6951 26.289,18.1691 C22.73,19.2971 18.854,19.2641 15.324,18.0541 L15.027,17.9521 L8.389,10.0001 L16.647,10.0001 Z M7.194,7.3911 L7.194,7.1741 C7.194,6.4691 7.794,5.8951 8.531,5.8951 L13.782,5.8951 L15.779,5.8951 L18.974,5.8951 L18.974,3.8951 L15.779,3.8951 L13.782,3.8951 C13.232,3.8951 12.785,3.4701 12.785,2.9471 C12.785,2.4251 13.232,2.0001 13.782,2.0001 L31.331,2.0001 C32.44,2.0001 33.344,2.8691 33.344,3.9381 L33.344,4.0001 L24.392,4.0001 C22.958,4.0001 21.792,5.1671 21.792,6.6001 C21.792,8.0341 22.958,9.2001 24.392,9.2001 L25.19,9.2001 C25.962,9.2001 26.589,9.8281 26.589,10.6001 C26.589,11.3721 25.962,12.0001 25.19,12.0001 L19.251,12.0001 C19.34,11.7021 19.395,11.3901 19.395,11.0701 C19.395,9.3771 18.162,8.0001 16.647,8.0001 L7.258,8.0001 C7.22,7.8001 7.194,7.5971 7.194,7.3911 Z M26,20.3481 L26,23.2701 C22.759,24.2391 19.245,24.2391 16,23.2701 L16,20.3481 C19.256,21.2131 22.738,21.2151 26,20.3481 Z M38.55,35.3191 C36.001,28.5171 30.228,24.2721 28,22.8351 L28,19.4081 C28.227,18.2151 29.758,16.1901 31.137,14.3781 C33.205,11.6581 35.344,8.8461 35.344,6.4531 L35.344,3.9381 C35.344,1.7661 33.544,0.0001 31.331,0.0001 L13.782,0.0001 C12.13,0.0001 10.785,1.3221 10.785,2.9471 C10.785,3.2811 10.855,3.5971 10.958,3.8951 L8.531,3.8951 C6.691,3.8951 5.194,5.3661 5.194,7.1741 L5.194,7.3911 C5.194,8.5191 5.55,9.6001 6.261,10.5681 L14,19.8411 L14,22.7491 C11.617,24.1121 5.05,28.3801 2.45,35.3191 C-0.326,42.7261 0.889,49.1301 5.868,53.3471 C9.31,56.2821 14.256,57.8841 20.186,57.9891 L20.814,58.0001 L20.814,57.9891 C26.743,57.8861 31.689,56.2831 35.13,53.3491 C40.111,49.1301 41.326,42.7261 38.55,35.3191 Z" id="Fill-9" fill="#4F5661"></path>
        </g>
    </g>
</svg>