<?xml version="1.0" encoding="UTF-8"?>
<svg width="54px" height="58px" viewBox="0 0 54 58" version="1.1" xmlns="http://www.w3.org/2000/svg" xmlns:xlink="http://www.w3.org/1999/xlink">
    <!-- Generator: Sketch 49.3 (51167) - http://www.bohemiancoding.com/sketch -->
    <title>Icon/ Deductions &amp; Credits</title>
    <desc>Created with Sketch.</desc>
    <defs>
        <polygon id="path-1" points="1.1801 1 0.1801 1 0.1801 0.99 1.1801 0.99 1.1801 1"></polygon>
    </defs>
    <g id="Icon/-Deductions-&amp;-Credits" stroke="none" stroke-width="1" fill="none" fill-rule="evenodd">
        <g id="Deductions-&amp;-Credits">
            <path d="M51.01,15.5857864 L51.01,1 L7.01,1 L7.01,23 L43.5957864,23 L51.01,15.5857864 Z M44.01,25 L6.01,25 C5.45771525,25 5.01,24.5522847 5.01,24 L5.01,0 C5.01,-0.55228475 5.45771525,-1 6.01,-1 L52.01,-1 C52.5622847,-1 53.01,-0.55228475 53.01,0 L53.01,16 C53.01,16.2652165 52.9046432,16.5195704 52.7171068,16.7071068 L44.7171068,24.7071068 C44.5295704,24.8946432 44.2752165,25 44.01,25 Z" id="Stroke-1" fill="#4B5E69" fill-rule="nonzero"></path>
            <path d="M14.9099682,19 C14.5122545,17.0409592 12.9690408,15.4977455 11.01,15.1000318 L11.01,8.89996821 C12.9690408,8.50225453 14.5122545,6.95904082 14.9099682,5 L43.1100318,5 C43.5077455,6.95904082 45.0509592,8.50225453 47.01,8.89996821 L47.01,13 C47.01,13.5522847 47.4577153,14 48.01,14 C48.5622847,14 49.01,13.5522847 49.01,13 L49.01,8 C49.01,7.44771525 48.5622847,7 48.01,7 C46.3532847,7 45.01,5.65671525 45.01,4 C45.01,3.44771525 44.5622847,3 44.01,3 L14.01,3 C13.4577153,3 13.01,3.44771525 13.01,4 C13.01,5.65671525 11.6667153,7 10.01,7 C9.45771525,7 9.01,7.44771525 9.01,8 L9.01,16 C9.01,16.5522847 9.45771525,17 10.01,17 C11.6667153,17 13.01,18.3432847 13.01,20 C13.01,20.5522847 13.4577153,21 14.01,21 L40.01,21 C40.5622847,21 41.01,20.5522847 41.01,20 C41.01,19.4477153 40.5622847,19 40.01,19 L14.9099682,19 Z" id="Stroke-3" fill="#4B5E69" fill-rule="nonzero"></path>
            <path d="M17.51,14.5 C16.132,14.5 15.01,13.378 15.01,12 C15.01,10.622 16.132,9.5 17.51,9.5 C18.888,9.5 20.01,10.622 20.01,12 C20.01,13.378 18.888,14.5 17.51,14.5" id="Fill-5" fill="#5BBF89"></path>
            <path d="M40.51,14.5 C39.132,14.5 38.01,13.378 38.01,12 C38.01,10.622 39.132,9.5 40.51,9.5 C41.888,9.5 43.01,10.622 43.01,12 C43.01,13.378 41.888,14.5 40.51,14.5" id="Fill-7" fill="#5BBF89"></path>
            <path d="M33.01,12 C33.01,14.761 31.219,17 29.01,17 C26.801,17 25.01,14.761 25.01,12 C25.01,9.239 26.801,7 29.01,7 C31.219,7 33.01,9.239 33.01,12" id="Fill-9" fill="#5BBF89"></path>
            <path d="M52.01,17 L52.01,15 L43.01,15 C42.4577153,15 42.01,15.4477153 42.01,16 L42.01,25 L44.01,25 L44.01,17 L52.01,17 Z" id="Stroke-11" fill="#4B5E69" fill-rule="nonzero"></path>
            <g id="Group-15" transform="translate(27.000000, 56.000000)">
                <mask id="mask-2" fill="white">
                    <use xlink:href="#path-1"></use>
                </mask>
                <g id="Clip-14"></g>
                <path d="M0.8401,1 L0.1801,1 C0.2901,1 0.4001,1 0.5101,0.99 C0.6201,1 0.7301,1 0.8401,1" id="Fill-13" fill="#4B5E69" mask="url(#mask-2)"></path>
            </g>
            <path d="M9.0002,36.5962 L9.0002,50.5612 C9.0002,51.3982 8.3722,52.1262 7.4782,52.3262 L0.0002,54.0002 L0.0002,34.0002 L7.2382,34.7912 C8.2442,34.9012 9.0002,35.6762 9.0002,36.5962" id="Fill-16" fill="#D3E5EF"></path>
            <path d="M1.0002,52.7515937 L7.2598828,51.3503221 C7.71109971,51.2493788 8.0002,50.9141569 8.0002,50.5612 L8.0002,36.5962 C8.0002,36.2053467 7.64526294,35.8416701 7.12956247,35.7852814 L1.0002,35.1154381 L1.0002,52.7515937 Z M10.0002,36.5962 L10.0002,50.5612 C10.0002,51.8820552 9.03350108,53.0029763 7.69665009,53.3020481 L0.218650088,54.9760481 C-0.406269905,55.1159406 -0.9998,54.6405865 -0.9998,54.0002 L-0.9998,34.0002 C-0.9998,33.4049104 -0.48292882,32.9414478 0.108837526,33.0061186 L7.34689608,33.797125 C8.84271618,33.9606838 10.0002,35.146668 10.0002,36.5962 Z" id="Stroke-18" fill="#4B5E69" fill-rule="nonzero"></path>
            <path d="M52.3312312,37.625695 L52.39994,37.715686 L35.183068,49.14384 C34.4542847,49.6205677 32.5435486,50.02 31.2331,50.02 L16.0167428,49.9950013 C14.0836037,49.995 12.5322103,49.3432271 11.2977561,48.2491296 C10.7884552,47.797736 9.50634024,46 9.0001,46 C8.44781525,46 8.0001,46.4477153 8.0001,47 C8.0001,47.5522847 8.44781525,48 9.0001,48 C7.98674562,47.4107182 7.98674562,47.4107182 8.15346862,47.5342389 C8.18790236,47.5952085 8.20813791,47.6302469 8.2411947,47.6854452 C8.33742876,47.8461369 8.45011983,48.0193466 8.58242655,48.2048624 C8.95899608,48.7328748 9.41898101,49.2564437 9.9711939,49.7458704 C11.5546782,51.1493135 13.567638,51.995 16.0151,51.995 L31.2314572,52.0199987 C32.8969774,52.02 35.1643072,51.5460232 36.2835443,50.8138421 L54.396132,38.79116 C54.8779981,38.4713086 54.9888627,37.8105968 54.6377877,37.3509815 L53.9067877,36.3939815 C52.1925583,34.2507918 49.2178224,33.6335701 46.8135974,34.9085379 L46.7238302,34.9623405 L36.0118302,42.1703405 C35.553622,42.4786644 35.4321166,43.1000615 35.7404405,43.5582698 C36.0487644,44.016478 36.6701615,44.1379834 37.1283698,43.8296595 L47.7942906,36.6526657 C49.3414067,35.8584528 51.2412954,36.2632754 52.3312312,37.625695 Z" id="Stroke-20" fill="#4B5E69" fill-rule="nonzero"></path>
            <path d="M50.1977398,34.4249175 C49.7288045,34.7166675 49.5851674,35.3333249 49.8769175,35.8022602 C50.1686675,36.2711955 50.7853249,36.4148326 51.2542602,36.1230825 L53.5382602,34.7020825 C54.0159578,34.404881 54.1545538,33.7722507 53.8448682,33.3025501 L52.8868682,31.8495501 C51.1061265,29.57944 48.0605812,28.9423251 45.5907546,30.2655329 L45.3897068,30.384986 L32.4944785,38.1431233 C32.0212386,38.427838 31.8684087,39.0422815 32.1531233,39.5155215 C32.437838,39.9887614 33.0522815,40.1415913 33.5255215,39.8568767 L46.4205215,32.0988767 L46.5782932,32.004014 C48.1495894,31.1635835 50.1339931,31.5787121 51.2659364,33.0181456 L51.611814,33.5451454 L50.1977398,34.4249175 Z" id="Stroke-22" fill="#4B5E69" fill-rule="nonzero"></path>
            <path d="M10.0002,40 C10.0002,38.3432847 11.3434847,37 13.0002,37 L27.6672,37 C28.6595718,37 29.6308754,36.7161196 30.4716363,36.1803044 L41.1147388,30.2712151 C42.4895789,29.5254125 44.1885921,29.7970571 45.289898,30.9406606 C45.6729962,31.3384724 46.3060489,31.3504002 46.7038606,30.967302 C47.1016724,30.5842038 47.1136002,29.9511511 46.730502,29.5533394 C45.0080446,27.7647279 42.330108,27.3365694 40.1523468,28.518017 L29.4486612,34.4627849 C28.8767705,34.8250863 28.2782991,35 27.6672,35 L13.0002,35 C10.2389153,35 8.0002,37.2387153 8.0002,40 C8.0002,40.5522847 8.44791525,41 9.0002,41 C9.55248475,41 10.0002,40.5522847 10.0002,40 Z" id="Stroke-24" fill="#4B5E69" fill-rule="nonzero"></path>
            <path d="M22.01,46 L31.01,46 C32.1147153,46 33.01,46.8952847 33.01,48 C33.01,49.1047153 32.1147153,50 31.01,50 L19.01,50 C18.4577153,50 18.01,50.4477153 18.01,51 C18.01,51.5522847 18.4577153,52 19.01,52 L31.01,52 C33.2192847,52 35.01,50.2092847 35.01,48 C35.01,45.7907153 33.2192847,44 31.01,44 L22.01,44 C21.4577153,44 21.01,44.4477153 21.01,45 C21.01,45.5522847 21.4577153,46 22.01,46 Z" id="Stroke-26" fill="#4B5E69" fill-rule="nonzero"></path>
        </g>
    </g>
</svg>