<?xml version="1.0" encoding="UTF-8"?>
<svg width="48px" height="60px" viewBox="0 0 48 60" version="1.1" xmlns="http://www.w3.org/2000/svg" xmlns:xlink="http://www.w3.org/1999/xlink">
    <!-- Generator: Sketch 49.3 (51167) - http://www.bohemiancoding.com/sketch -->
    <title>Icon/ Document Checklist</title>
    <desc>Created with Sketch.</desc>
    <defs>
        <polygon id="path-1" points="0 60 48 60 48 0 0 0"></polygon>
    </defs>
    <g id="Icon/-Document-Checklist" stroke="none" stroke-width="1" fill="none" fill-rule="evenodd">
        <g id="Page-1">
            <path d="M35,23 C37.206,23 39,24.794 39,27 C39,29.206 37.206,31 35,31 C32.794,31 31,29.206 31,27 C31,24.794 32.794,23 35,23 Z" id="Fill-1" fill="#D3E5EF"></path>
            <path d="M35,11 C32.794,11 31,12.794 31,15 C31,17.206 32.794,19 35,19 C37.206,19 39,17.206 39,15 C39,12.794 37.206,11 35,11" id="Fill-3" fill="#D3E5EF"></path>
            <path d="M27,13 L18,13 C17.448,13 17,12.553 17,12 C17,11.448 17.448,11 18,11 L27,11 C27.552,11 28,11.448 28,12 C28,12.553 27.552,13 27,13" id="Fill-5" fill="#4F5661"></path>
            <path d="M25,18 L18,18 C17.448,18 17,17.553 17,17 C17,16.448 17.448,16 18,16 L25,16 C25.552,16 26,16.448 26,17 C26,17.553 25.552,18 25,18" id="Fill-7" fill="#4F5661"></path>
            <polygon id="Fill-9" fill="#53C27C" points="41.7241 10.6211 40.0521 9.0001 34.4771 14.7491 31.7161 12.2141 30.1581 13.9461 33.9401 17.3991 33.9441 17.3931 34.5701 18.0001"></polygon>
            <polygon id="Fill-11" fill="#53C27C" points="41.7241 22.6211 40.0521 21.0001 34.4771 26.7491 31.7161 24.2141 30.1581 25.9461 33.9401 29.3991 33.9441 29.3931 34.5701 30.0001"></polygon>
            <path d="M28,25 L18,25 C17.448,25 17,24.553 17,24 C17,23.448 17.448,23 18,23 L28,23 C28.552,23 29,23.448 29,24 C29,24.553 28.552,25 28,25" id="Fill-13" fill="#4F5661"></path>
            <path d="M26,30 L18,30 C17.448,30 17,29.553 17,29 C17,28.448 17.448,28 18,28 L26,28 C26.552,28 27,28.448 27,29 C27,29.553 26.552,30 26,30" id="Fill-15" fill="#4F5661"></path>
            <path d="M26,37 L18,37 C17.448,37 17,36.553 17,36 C17,35.448 17.448,35 18,35 L26,35 C26.552,35 27,35.448 27,36 C27,36.553 26.552,37 26,37" id="Fill-17" fill="#4F5661"></path>
            <path d="M27,42 L18,42 C17.448,42 17,41.553 17,41 C17,40.448 17.448,40 18,40 L27,40 C27.552,40 28,40.448 28,41 C28,41.553 27.552,42 27,42" id="Fill-19" fill="#4F5661"></path>
            <mask id="mask-2" fill="white">
                <use xlink:href="#path-1"></use>
            </mask>
            <g id="Clip-22"></g>
            <polygon id="Fill-21" fill="#D3E5EF" mask="url(#mask-2)" points="9 17 14 17 14 12 9 12"></polygon>
            <path d="M10,16 L13,16 L13,13 L10,13 L10,16 Z M14,18 L9,18 C8.448,18 8,17.553 8,17 L8,12 C8,11.447 8.448,11 9,11 L14,11 C14.552,11 15,11.447 15,12 L15,17 C15,17.553 14.552,18 14,18 Z" id="Fill-23" fill="#4F5661" mask="url(#mask-2)"></path>
            <polygon id="Fill-24" fill="#D3E5EF" mask="url(#mask-2)" points="9 29 14 29 14 24 9 24"></polygon>
            <path d="M10,28 L13,28 L13,25 L10,25 L10,28 Z M14,30 L9,30 C8.448,30 8,29.553 8,29 L8,24 C8,23.447 8.448,23 9,23 L14,23 C14.552,23 15,23.447 15,24 L15,29 C15,29.553 14.552,30 14,30 Z" id="Fill-25" fill="#4F5661" mask="url(#mask-2)"></path>
            <polygon id="Fill-26" fill="#D3E5EF" mask="url(#mask-2)" points="9 41 14 41 14 36 9 36"></polygon>
            <path d="M10,40 L13,40 L13,37 L10,37 L10,40 Z M14,42 L9,42 C8.448,42 8,41.553 8,41 L8,36 C8,35.447 8.448,35 9,35 L14,35 C14.552,35 15,35.447 15,36 L15,41 C15,41.553 14.552,42 14,42 Z" id="Fill-27" fill="#4F5661" mask="url(#mask-2)"></path>
            <path d="M45.5234,49 L38.0004,56.523 L38.0004,49 L45.5234,49 Z M2.0004,2 L46.0004,2 L46.0004,47 L37.0004,47 C36.4474,47 36.0004,47.447 36.0004,48 L36.0004,58 L2.0004,58 L2.0004,2 Z M47.0004,0 L1.0004,0 C0.4474,0 0.0004,0.447 0.0004,1 L0.0004,59 C0.0004,59.553 0.4474,60 1.0004,60 L36.9374,60 C36.9484,60 36.9584,59.994 36.9684,59.993 C36.9804,59.994 36.9894,60 37.0004,60 C37.3594,60 37.6614,59.8 37.8364,59.515 L47.7074,49.645 C47.8944,49.457 48.0004,49.203 48.0004,48.938 L48.0004,1 C48.0004,0.447 47.5524,0 47.0004,0 Z" id="Fill-28" fill="#4F5661" mask="url(#mask-2)"></path>
            <path d="M35,35 C32.794,35 31,36.794 31,39 C31,41.206 32.794,43 35,43 C37.206,43 39,41.206 39,39 C39,36.794 37.206,35 35,35" id="Fill-29" fill="#D3E5EF" mask="url(#mask-2)"></path>
        </g>
    </g>
</svg>