<?xml version="1.0" encoding="UTF-8"?>
<svg width="54px" height="54px" viewBox="0 0 54 54" version="1.1" xmlns="http://www.w3.org/2000/svg" xmlns:xlink="http://www.w3.org/1999/xlink">
    <!-- Generator: Sketch 49.3 (51167) - http://www.bohemiancoding.com/sketch -->
    <title>Icon/ don't ask</title>
    <desc>Created with Sketch.</desc>
    <defs></defs>
    <g id="Icon/-don't-ask" stroke="none" stroke-width="1" fill="none" fill-rule="evenodd">
        <g id="don't-ask" transform="translate(-1.000000, -1.000000)">
            <path d="M41,14 L38,14 C36.2412441,14 34.66875,13.1014319 33.8944272,11.5527864 C33.6474379,11.0588079 33.0467649,10.8585836 32.5527864,11.1055728 C32.0588079,11.3525621 31.8585836,11.9532351 32.1055728,12.4472136 C33.23125,14.6985681 35.5087559,16 38,16 L41,16 C41.5522847,16 42,15.5522847 42,15 C42,14.4477153 41.5522847,14 41,14 Z" id="Stroke-1" fill="#4B5E69" fill-rule="nonzero"></path>
            <path d="M15,16 L18,16 C20.4912441,16 22.76875,14.6985681 23.8944272,12.4472136 C24.1414164,11.9532351 23.9411921,11.3525621 23.4472136,11.1055728 C22.9532351,10.8585836 22.3525621,11.0588079 22.1055728,11.5527864 C21.33125,13.1014319 19.7587559,14 18,14 L15,14 C14.4477153,14 14,14.4477153 14,15 C14,15.5522847 14.4477153,16 15,16 Z" id="Stroke-3" fill="#4B5E69" fill-rule="nonzero"></path>
            <path d="M36.9568725,35.5190947 C35.0994137,32.13263 31.7285805,30 28.0001,30 C24.2716195,30 20.9007863,32.13263 19.0433275,35.5190947 C18.7777308,36.0033228 18.9549666,36.6111758 19.4391947,36.8767725 C19.9234228,37.1423692 20.5312758,36.9651334 20.7968725,36.4809053 C22.3134797,33.7158715 25.0255848,32 28.0001,32 C30.9746152,32 33.6867203,33.7158715 35.2033275,36.4809053 C35.4689242,36.9651334 36.0767772,37.1423692 36.5610053,36.8767725 C37.0452334,36.6111758 37.2224692,36.0033228 36.9568725,35.5190947 Z" id="Stroke-5" fill="#4B5E69" fill-rule="nonzero"></path>
            <path d="M54.9775,29.0459 L54.9775,29.1029 C54.3925,43.5029 42.5355,54.9999 27.9995,54.9999 C13.4645,54.9999 1.6075,43.5029 1.0225,29.1029 L1.0225,29.0459 C1.0785,27.9329 1.1915,26.8299 1.3825,25.7499 C3.5195,38.5189 14.6345,48.2499 27.9995,48.2499 C41.3655,48.2499 52.4795,38.5189 54.6175,25.7499 C54.8085,26.8299 54.9215,27.9329 54.9775,29.0459" id="Fill-7" fill="#D3E5EF"></path>
            <path d="M54,28 C54,13.6462847 42.3537153,2 28,2 C13.6462847,2 2,13.6462847 2,28 C2.00028776,28.2799401 2.00151467,28.3333609 2.02117582,29.0624085 C2.58609973,42.9682277 14.0432829,54 28,54 C41.9654399,54 53.4141718,42.9595618 53.9785035,29.01427 C53.9867236,28.7534673 53.9900553,28.6408378 53.9934051,28.4993337 C53.9977691,28.3149859 54,28.1533782 54,28 Z M56,28 C56,28.1706575 55.9975575,28.3475942 55.9928449,28.5466663 C55.9893296,28.6951616 55.9858966,28.8112171 55.9774965,29.07773 C55.3692222,44.1108406 43.040382,56 28,56 C12.9690682,56 0.631252701,44.1202937 0.0223668295,29.1300837 C0.00159292988,28.3633379 0.0003160966,28.3077434 9.98766508e-06,28.0188046 C0,12.5417153 12.5417153,0 28,0 C43.4582847,0 56,12.5417153 56,28 Z" id="Stroke-9" fill="#4B5E69" fill-rule="nonzero"></path>
            <path d="M22,21.5 C22,23.433 20.657,25 19,25 C17.343,25 16,23.433 16,21.5 C16,19.567 17.343,18 19,18 C20.657,18 22,19.567 22,21.5" id="Fill-11" fill="#F4877A"></path>
            <path d="M40,21.5 C40,23.433 38.657,25 37,25 C35.343,25 34,23.433 34,21.5 C34,19.567 35.343,18 37,18 C38.657,18 40,19.567 40,21.5" id="Fill-13" fill="#F4877A"></path>
        </g>
    </g>
</svg>