<?xml version="1.0" encoding="UTF-8"?>
<svg width="50px" height="58px" viewBox="0 0 50 58" version="1.1" xmlns="http://www.w3.org/2000/svg" xmlns:xlink="http://www.w3.org/1999/xlink">
    <!-- Generator: Sketch 49.3 (51167) - http://www.bohemiancoding.com/sketch -->
    <title>Icon/ Double Check</title>
    <desc>Created with Sketch.</desc>
    <defs></defs>
    <g id="Icon/-Double-Check" stroke="none" stroke-width="1" fill="none" fill-rule="evenodd">
        <g id="Double-Check" transform="translate(-1.000000, -1.000000)">
            <path d="M43.9701,15 L43.9701,53 L6.9701,53 L6.9701,15 L12.0801,15 C12.6323847,15 13.0801,14.5522847 13.0801,14 C13.0801,13.4477153 12.6323847,13 12.0801,13 L5.9701,13 C5.41781525,13 4.9701,13.4477153 4.9701,14 L4.9701,54 C4.9701,54.5522847 5.41781525,55 5.9701,55 L44.9701,55 C45.5223847,55 45.9701,54.5522847 45.9701,54 L45.9701,14 C45.9701,13.4477153 45.5223847,13 44.9701,13 L39.8601,13 C39.3078153,13 38.8601,13.4477153 38.8601,14 C38.8601,14.5522847 39.3078153,15 39.8601,15 L43.9701,15 Z" id="Stroke-1" fill="#4B5E69" fill-rule="nonzero"></path>
            <g id="Group-20">
                <path d="M35.6199,9 L49.0899,9 C49.5597412,9 49.9399,9.37448478 49.9399,9.82 L49.9399,57.18 C49.9399,57.6255152 49.5597412,58 49.0899,58 L2.8499,58 C2.38005879,58 1.9999,57.6255152 1.9999,57.18 L1.9999,9.82 C1.9999,9.37448478 2.38005879,9 2.8499,9 L16.1399,9 C16.6921847,9 17.1399,8.55228475 17.1399,8 C17.1399,7.44771525 16.6921847,7 16.1399,7 L2.8499,7 C1.28216545,7 -9.99999993e-05,8.26312716 -9.99999993e-05,9.82 L-9.99999993e-05,57.18 C-9.99999993e-05,58.7368728 1.28216545,60 2.8499,60 L49.0899,60 C50.6576345,60 51.9399,58.7368728 51.9399,57.18 L51.9399,9.82 C51.9399,8.26312716 50.6576345,7 49.0899,7 L35.6199,7 C35.0676153,7 34.6199,7.44771525 34.6199,8 C34.6199,8.55228475 35.0676153,9 35.6199,9 Z" id="Stroke-2" fill="#4B5E69" fill-rule="nonzero"></path>
                <path d="M22.97,27 L13.97,27 C13.418,27 12.97,26.553 12.97,26 C12.97,25.447 13.418,25 13.97,25 L22.97,25 C23.522,25 23.97,25.447 23.97,26 C23.97,26.553 23.522,27 22.97,27" id="Fill-4" fill="#D3E5EF"></path>
                <path d="M20.97,31 L13.97,31 C13.418,31 12.97,30.553 12.97,30 C12.97,29.447 13.418,29 13.97,29 L20.97,29 C21.522,29 21.97,29.447 21.97,30 C21.97,30.553 21.522,31 20.97,31" id="Fill-6" fill="#D3E5EF"></path>
                <path d="M22.97,40 L13.97,40 C13.418,40 12.97,39.553 12.97,39 C12.97,38.447 13.418,38 13.97,38 L22.97,38 C23.522,38 23.97,38.447 23.97,39 C23.97,39.553 23.522,40 22.97,40" id="Fill-8" fill="#D3E5EF"></path>
                <path d="M20.97,44 L13.97,44 C13.418,44 12.97,43.553 12.97,43 C12.97,42.447 13.418,42 13.97,42 L20.97,42 C21.522,42 21.97,42.447 21.97,43 C21.97,43.553 21.522,44 20.97,44" id="Fill-10" fill="#D3E5EF"></path>
                <path d="M19.2049,6.6479 C19.2049,2.98111525 22.1861153,-0.0001 25.8519,-0.0001 C29.5183669,-0.0001 32.4989,2.98079744 32.4989,6.6479 C32.4989,9.61705176 34.3200891,11.2939 37.1459,11.2939 L37.2639,11.2939 C39.3756847,11.2939 41.0879,13.0061153 41.0879,15.1169 L41.0879,16.9999 C41.0879,17.5521847 40.6401847,17.9999 40.0879,17.9999 L11.8519,17.9999 C11.2996153,17.9999 10.8519,17.5521847 10.8519,16.9999 L10.8519,15.1169 C10.8519,13.0064058 12.5648247,11.2939 14.6759,11.2939 L14.7939,11.2939 C17.3649448,11.2939 19.0135103,9.88076839 19.2358674,7.27082387 C19.2154926,7.05918307 19.2049,6.85234612 19.2049,6.6479 Z M39.0879,15.1169 C39.0879,14.1106847 38.2711153,13.2939 37.2639,13.2939 L37.1459,13.2939 C33.2507109,13.2939 30.4989,10.7601876 30.4989,6.6479 C30.4989,4.08531222 28.4137427,1.9999 25.8519,1.9999 C23.2906847,1.9999 21.2049,4.08568475 21.2049,6.6479 C21.2049,6.8076395 21.2147083,6.97417577 21.2339633,7.15009705 L21.2372658,7.3314357 C20.9653774,11.0699013 18.4138233,13.2939 14.7939,13.2939 L14.6759,13.2939 C13.6692847,13.2939 12.8519,14.1110848 12.8519,15.1169 L12.8519,15.9999 L39.0879,15.9999 L39.0879,15.1169 Z" id="Stroke-12" fill="#4B5E69" fill-rule="nonzero"></path>
                <path d="M25.8548,4.6875 C26.8718,4.6875 27.6988,5.5145 27.6988,6.5315 C27.6988,7.5475 26.8718,8.3755 25.8548,8.3755 C24.8378,8.3755 24.0108,7.5475 24.0108,6.5315 C24.0108,5.5145 24.8378,4.6875 25.8548,4.6875" id="Fill-14" fill="#4B5E69"></path>
                <polygon id="Fill-16" fill="#5BBF89" points="39.6941 24.8818 37.8541 23.0988 31.7211 29.4238 28.6831 26.6338 26.9701 28.5398 31.1301 32.3388 31.1351 32.3328 31.8231 32.9998"></polygon>
                <polygon id="Fill-18" fill="#5BBF89" points="39.6941 36.8818 37.8541 35.0988 31.7211 41.4238 28.6831 38.6338 26.9701 40.5398 31.1301 44.3388 31.1351 44.3328 31.8231 44.9998"></polygon>
            </g>
        </g>
    </g>
</svg>