<?xml version="1.0" encoding="UTF-8"?>
<svg width="58px" height="60px" viewBox="0 0 58 60" version="1.1" xmlns="http://www.w3.org/2000/svg" xmlns:xlink="http://www.w3.org/1999/xlink">
    <!-- Generator: Sketch 49.3 (51167) - http://www.bohemiancoding.com/sketch -->
    <title>Icon/ e-file</title>
    <desc>Created with Sketch.</desc>
    <defs>
        <polygon id="path-1" points="57.3806332 -9.56343887e-05 57.3806332 47.8170987 0.000191268777 47.8170987 0.000191268777 -9.56343887e-05"></polygon>
    </defs>
    <g id="Icon/-e-file" stroke="none" stroke-width="1" fill="none" fill-rule="evenodd">
        <g id="e-file" transform="translate(0.503534, 1.118862)">
            <path d="M48.7735382,20.0668681 C48.24468,20.0668681 47.8171943,19.6393824 47.8171943,19.1105243 L47.8171943,17.1978365 L35.5444332,17.1978365 C35.0155751,17.1978365 34.5880893,16.7703508 34.5880893,16.2414926 C34.5880893,15.7126344 35.0155751,15.2851487 35.5444332,15.2851487 L48.7735382,15.2851487 C49.3023964,15.2851487 49.7298821,15.7126344 49.7298821,16.2414926 L49.7298821,19.1105243 C49.7298821,19.6393824 49.3023964,20.0668681 48.7735382,20.0668681" id="Fill-1" fill="#4F5661"></path>
            <path d="M52.5989138,21.9795559 L52.5989138,27.7176192 L10.5197828,27.7176192 C9.19046475,30.7683562 7.88983706,34.0581792 6.69440721,37.5775247 C5.97714929,39.6814812 5.33639889,41.7567475 4.78171943,43.7650696 L4.78171943,21.9795559 L52.5989138,21.9795559 Z" id="Fill-3" fill="#D3E5EF"></path>
            <g id="Group-7" transform="translate(0.000000, 9.547085)">
                <mask id="mask-2" fill="white">
                    <use xlink:href="#path-1"></use>
                </mask>
                <g id="Clip-6"></g>
                <path d="M50.7198893,31.3641585 C49.4183053,36.1277074 48.4753502,41.015581 47.915889,45.9044109 L11.1129072,45.9044109 L3.05188461,45.9044109 C3.80165822,41.7653546 4.78573608,37.6425561 5.96490809,33.5780946 C6.09879623,33.1123551 6.23459707,32.6447029 6.3770923,32.1741817 C6.76632427,30.8888556 7.16894504,29.6073547 7.60025614,28.3373301 C8.6302385,25.3038073 9.82279933,22.2090784 11.148292,19.1267821 L52.599105,19.1267821 L54.9689252,19.1267821 C53.2781092,23.1204742 51.8502878,27.2308402 50.7198893,31.3641585 M5.73825459,27.8725469 L5.73825459,13.3887188 L51.6427611,13.3887188 L51.6427611,17.2140943 L10.519974,17.2140943 C10.1393492,17.2140943 9.79506535,17.4397915 9.64300668,17.788857 C8.19701472,21.1073703 6.90116875,24.4507485 5.78894081,27.7224009 C5.78511544,27.7338771 5.78224641,27.7453532 5.77842103,27.755873 C5.76407587,27.7950831 5.7516434,27.8333368 5.73825459,27.8725469 M57.2258968,17.6482744 C57.0489731,17.3776291 56.7477248,17.2140943 56.4244806,17.2140943 L53.5554489,17.2140943 L53.5554489,12.4323749 C53.5554489,11.9035167 53.1279632,11.476031 52.599105,11.476031 L4.7819107,11.476031 C4.25305253,11.476031 3.82556681,11.9035167 3.82556681,12.4323749 L3.82556681,34.0887822 C3.1083089,36.6441331 2.46468946,39.2195672 1.91287904,41.8083901 L1.91287904,1.91259214 L12.2987736,1.91259214 C13.2618119,1.91259214 14.1550371,2.38980774 14.6867643,3.18739854 L16.2360414,5.52279031 C17.1244849,6.85497734 18.6135123,7.65065546 20.2163447,7.65065546 L23.9087884,7.65065546 C24.4376466,7.65065546 24.8651323,7.22316974 24.8651323,6.69431157 C24.8651323,6.1654534 24.4376466,5.73796768 23.9087884,5.73796768 L20.2163447,5.73796768 C19.2542627,5.73796768 18.3610375,5.26075209 17.828354,4.46316128 L16.2790769,2.12872586 C15.3915898,0.795582479 13.9025623,-9.56343887e-05 12.2987736,-9.56343887e-05 L0.956535155,-9.56343887e-05 C0.427676986,-9.56343887e-05 0.000191268777,0.427390083 0.000191268777,0.956248252 L0.000191268777,46.8607548 C0.000191268777,47.389613 0.427676986,47.8170987 0.956535155,47.8170987 L1.91287904,47.8170987 L11.1129072,47.8170987 L48.7737295,47.8170987 C49.2633776,47.8170987 49.6736491,47.4469936 49.7243353,46.9611709 C50.2589315,41.8896793 51.2143191,36.8105369 52.565633,31.8681517 C53.7974039,27.360903 55.3906728,22.8823445 57.2995352,18.5558448 C57.4305543,18.2612909 57.401864,17.9189198 57.2258968,17.6482744" id="Fill-5" fill="#4F5661" mask="url(#mask-2)"></path>
            </g>
            <path d="M33.8605985,40.4779244 C33.625338,38.176961 32.2673296,36.3761655 29.9061166,36.3761655 C27.7227835,36.3761655 26.1897642,38.0583744 25.8646073,40.4779244 L33.8605985,40.4779244 Z M22.3242222,41.6293625 L22.3242222,41.5700692 C22.3242222,37.1135066 25.4811134,33.4554913 29.9357632,33.4554913 C34.8934499,33.4554913 37.40194,37.3497236 37.40194,41.8349764 C37.40194,42.1601333 37.3722933,42.4852903 37.3426466,42.8391375 L25.894254,42.8391375 C26.2777479,45.3763178 28.0775871,46.7926631 30.3785505,46.7926631 C32.1200527,46.7926631 33.3594744,46.1433056 34.5979397,44.9335306 L36.6932891,46.7926631 C35.2186069,48.5628557 33.1815944,49.7133374 30.3202135,49.7133374 C25.805314,49.7133374 22.3242222,46.4378595 22.3242222,41.6293625 Z" id="Fill-8" fill="#53C27C"></path>
            <path d="M36.9303668,7.96873543 L30.3727168,0.317984342 C30.0102624,-0.105675999 29.2834411,-0.105675999 28.9209867,0.317984342 L22.3633367,7.96873543 C22.119469,8.25181322 22.0640011,8.65156497 22.2198851,8.99011071 C22.3757692,9.32961279 22.7152713,9.54670285 23.0882454,9.54670285 L26.7778201,9.54670285 L26.7778201,18.1537978 C26.7778201,18.682656 27.2053058,19.1101417 27.734164,19.1101417 L31.5595395,19.1101417 C32.0883977,19.1101417 32.5158834,18.682656 32.5158834,18.1537978 L32.5158834,9.54670285 L36.2045018,9.54670285 C36.5784322,9.54670285 36.916978,9.32961279 37.072862,8.99011071 C37.2287461,8.65156497 37.1742345,8.25181322 36.9303668,7.96873543" id="Fill-10" fill="#D3E5EF"></path>
        </g>
    </g>
</svg>