<?xml version="1.0" encoding="UTF-8"?>
<svg width="57px" height="49px" viewBox="0 0 57 49" version="1.1" xmlns="http://www.w3.org/2000/svg" xmlns:xlink="http://www.w3.org/1999/xlink">
    <!-- Generator: Sketch 49.3 (51167) - http://www.bohemiancoding.com/sketch -->
    <title>Icon/ Email</title>
    <desc>Created with Sketch.</desc>
    <defs>
        <polygon id="path-1" points="0.74756364 0.75 25.2498232 0.75 25.2498232 25.2512 0.74756364 25.2512 0.74756364 0.75"></polygon>
        <polygon id="path-3" points="57 7.10542736e-15 57 36 28.50005 36 0.0001 36 0.0001 0 57 0"></polygon>
    </defs>
    <g id="Icon/-Email" stroke="none" stroke-width="1" fill="none" fill-rule="evenodd">
        <g id="Page-1">
            <g id="Group-3" transform="translate(15.000000, 0.250400)">
                <mask id="mask-2" fill="white">
                    <use xlink:href="#path-1"></use>
                </mask>
                <g id="Clip-2"></g>
                <path d="M15.7891,13.6582 L15.7891,13.6592 C15.4601,15.6752 13.7501,17.0822 11.9771,16.7902 C10.2051,16.5002 9.0301,14.6252 9.3581,12.6092 C9.5211,11.6112 10.0221,10.7352 10.7691,10.1422 C11.3501,9.6822 12.0221,9.4412 12.7041,9.4412 C12.8601,9.4412 13.0161,9.4532 13.1711,9.4782 C14.0081,9.6152 14.7411,10.1092 15.2361,10.8722 C15.7561,11.6712 15.9521,12.6602 15.7891,13.6582 M15.5111,1.0012 C11.4761,0.1982 7.4771,1.3382 4.5441,4.1372 C1.6131,6.9332 0.2821,10.8572 0.8931,14.9022 C1.6961,20.2112 5.9761,24.4182 11.3041,25.1352 C11.8781,25.2132 12.4501,25.2512 13.0181,25.2512 C15.2581,25.2512 17.4211,24.6492 19.3521,23.4762 L18.0551,21.3402 C16.1281,22.5092 13.9081,22.9652 11.6381,22.6572 C7.4041,22.0882 4.0031,18.7452 3.3661,14.5292 C2.8781,11.3012 3.9361,8.1722 6.2701,5.9452 C8.6041,3.7172 11.7961,2.8082 15.0211,3.4522 C19.1901,4.2842 22.8011,8.7902 22.7491,13.0962 C22.7301,14.6382 22.2501,15.7772 21.4311,16.2212 C20.7221,16.6042 19.7671,16.4772 18.8131,15.8712 C18.5171,15.6812 18.3581,15.3322 18.3931,15.0602 L19.7231,8.7582 L17.2771,8.2422 L17.0831,9.1652 C16.2071,8.0032 14.9771,7.2402 13.5731,7.0122 C12.0341,6.7602 10.4851,7.1762 9.2161,8.1842 C7.9791,9.1652 7.1541,10.5932 6.8921,12.2072 C6.3411,15.5832 8.4411,18.7452 11.5751,19.2572 C11.8651,19.3042 12.1541,19.3272 12.4401,19.3272 C14.0831,19.3272 15.6131,18.5552 16.7101,17.3122 C16.9271,17.5672 17.1811,17.7942 17.4711,17.9792 C19.1851,19.0722 21.1101,19.2372 22.6211,18.4202 C23.5851,17.8972 25.2091,16.5152 25.2491,13.1252 C25.3151,7.6202 20.8551,2.0672 15.5111,1.0012" id="Fill-1" fill="#53C27C" mask="url(#mask-2)"></path>
            </g>
            <polygon id="Fill-4" fill="#D3E5EF" points="2 21.2504 25 35.2504 1.738 16.1884"></polygon>
            <polygon id="Fill-6" fill="#D3E5EF" points="55.7285 21.2504 31.8695 35.2504 55.9995 16.1884"></polygon>
            <g id="Group-10" transform="translate(0.000000, 12.250400)">
                <mask id="mask-4" fill="white">
                    <use xlink:href="#path-3"></use>
                </mask>
                <g id="Clip-9"></g>
                <path d="M54.0361,34 L2.9641,34 C2.4321,34 2.0001,33.552 2.0001,33 L2.0001,5.396 L24.6771,22.7 C25.8201,23.573 27.1601,24.009 28.5001,24.009 C29.8401,24.009 31.1801,23.573 32.3231,22.7 L55.0001,5.396 L55.0001,33 C55.0001,33.552 54.5671,34 54.0361,34 M54.0361,0 L43.3701,0 C42.8171,0 42.3701,0.447 42.3701,1 C42.3701,1.553 42.8171,2 43.3701,2 L54.0361,2 C54.5321,2 54.9271,2.396 54.9791,2.896 L31.1101,21.11 C29.5481,22.302 27.4521,22.302 25.8901,21.11 L2.0201,2.896 C2.0731,2.396 2.4681,2 2.9641,2 L13.0001,2 C13.5531,2 14.0001,1.553 14.0001,1 C14.0001,0.447 13.5531,0 13.0001,0 L2.9641,0 C1.3301,0 0.0001,1.346 0.0001,3 L0.0001,33 C0.0001,34.654 1.3301,36 2.9641,36 L54.0361,36 C55.6701,36 57.0001,34.654 57.0001,33 L57.0001,3 C57.0001,1.346 55.6701,0 54.0361,0" id="Fill-8" fill="#4F5661" mask="url(#mask-4)"></path>
            </g>
            <path d="M4.9287,44.2504 C4.6757,44.2504 4.4227,44.1544 4.2277,43.9644 C3.8337,43.5764 3.8277,42.9434 4.2147,42.5494 L15.0187,31.5494 C15.4067,31.1544 16.0377,31.1504 16.4337,31.5364 C16.8267,31.9244 16.8327,32.5574 16.4467,32.9514 L5.6427,43.9514 C5.4467,44.1504 5.1877,44.2504 4.9287,44.2504" id="Fill-11" fill="#4F5661"></path>
            <path d="M52.0713,44.2504 C51.8123,44.2504 51.5533,44.1504 51.3573,43.9514 L40.5533,32.9514 C40.1673,32.5574 40.1733,31.9244 40.5663,31.5364 C40.9613,31.1504 41.5923,31.1544 41.9813,31.5494 L52.7853,42.5494 C53.1723,42.9434 53.1663,43.5764 52.7723,43.9644 C52.5773,44.1544 52.3243,44.2504 52.0713,44.2504" id="Fill-13" fill="#4F5661"></path>
        </g>
    </g>
</svg>