<?xml version="1.0" encoding="UTF-8"?>
<svg width="60px" height="58px" viewBox="0 0 60 58" version="1.1" xmlns="http://www.w3.org/2000/svg" xmlns:xlink="http://www.w3.org/1999/xlink">
    <!-- Generator: Sketch 49.3 (51167) - http://www.bohemiancoding.com/sketch -->
    <title>Icon/ Employment Expenses</title>
    <desc>Created with Sketch.</desc>
    <defs>
        <polygon id="path-1" points="0 58 60 58 60 0 0 0"></polygon>
    </defs>
    <g id="Icon/-Employment-Expenses" stroke="none" stroke-width="1" fill="none" fill-rule="evenodd">
        <g id="Employment-Expenses" transform="translate(-1.000000, 0.000000)">
            <path d="M12,49 C12,45.134 8.866,42 5,42 L5,49 L12,49 Z" id="Fill-1" fill="#D3E5EF"></path>
            <mask id="mask-2" fill="white">
                <use xlink:href="#path-1"></use>
            </mask>
            <g id="Clip-4"></g>
            <polygon id="Fill-3" fill="#D3E5EF" mask="url(#mask-2)" points="44 31 54 31 54 28 44 28"></polygon>
            <path d="M38,5 C38,3.34628475 36.6537153,2 35,2 L23,2 C21.3462847,2 20,3.34628475 20,5 L20,10 L22,10 L22,5 C22,4.44771525 22.4477153,4 23,4 L35,4 C35.5522847,4 36,4.44771525 36,5 L36,10 L38,10 L38,5 Z M24,6 L24,11 C24,11.5522847 23.5522847,12 23,12 L19,12 C18.4477153,12 18,11.5522847 18,11 L18,5 C18,2.24171525 20.2417153,0 23,0 L35,0 C37.7582847,0 40,2.24171525 40,5 L40,11 C40,11.5522847 39.5522847,12 39,12 L35,12 C34.4477153,12 34,11.5522847 34,11 L34,6 L24,6 Z" id="Stroke-5" fill="#4B5E69" fill-rule="nonzero" mask="url(#mask-2)"></path>
            <path d="M14,26 L3,26 C2.45228475,26 2,25.5477153 2,25 L2,13 C2,12.4522847 2.45228475,12 3,12 L55,12 C55.5477153,12 56,12.4522847 56,13 L56,25 C56,25.5477153 55.5477153,26 55,26 L44,26 C43.4477153,26 43,26.4477153 43,27 C43,27.5522847 43.4477153,28 44,28 L55,28 C56.6522847,28 58,26.6522847 58,25 L58,13 C58,11.3477153 56.6522847,10 55,10 L3,10 C1.34771525,10 0,11.3477153 0,13 L0,25 C0,26.6522847 1.34771525,28 3,28 L14,28 C14.5522847,28 15,27.5522847 15,27 C15,26.4477153 14.5522847,26 14,26 Z" id="Stroke-6" fill="#4B5E69" fill-rule="nonzero" mask="url(#mask-2)"></path>
            <path d="M38,26 L20,26 C19.4477153,26 19,26.4477153 19,27 C19,27.5522847 19.4477153,28 20,28 L38,28 C38.5522847,28 39,27.5522847 39,27 C39,26.4477153 38.5522847,26 38,26 Z" id="Stroke-7" fill="#4B5E69" fill-rule="nonzero" mask="url(#mask-2)"></path>
            <path d="M25,26 L20,26 C19.4477153,26 19,26.4477153 19,27 C19,27.5522847 19.4477153,28 20,28 L25,28 C25.5522847,28 26,27.5522847 26,27 C26,26.4477153 25.5522847,26 25,26 Z" id="Stroke-8" fill="#4B5E69" fill-rule="nonzero" mask="url(#mask-2)"></path>
            <path d="M38,26 L33,26 C32.4477153,26 32,26.4477153 32,27 C32,27.5522847 32.4477153,28 33,28 L38,28 C38.5522847,28 39,27.5522847 39,27 C39,26.4477153 38.5522847,26 38,26 Z" id="Stroke-9" fill="#4B5E69" fill-rule="nonzero" mask="url(#mask-2)"></path>
            <path d="M5,28 L14,28 C14.5522847,28 15,27.5522847 15,27 C15,26.4477153 14.5522847,26 14,26 L4,26 C3.44771525,26 3,26.4477153 3,27 L3,48 C3,49.6468647 4.30180949,51 5.93,51 L35.32,51 C35.8722847,51 36.32,50.5522847 36.32,50 C36.32,49.4477153 35.8722847,49 35.32,49 L5.93,49 C5.42405258,49 5,48.5592285 5,48 L5,28 Z" id="Stroke-10" fill="#4B5E69" fill-rule="nonzero" mask="url(#mask-2)"></path>
            <path d="M53,33.93 C53,34.4822847 53.4477153,34.93 54,34.93 C54.5522847,34.93 55,34.4822847 55,33.93 L55,27 C55,26.4477153 54.5522847,26 54,26 L44,26 C43.4477153,26 43,26.4477153 43,27 C43,27.5522847 43.4477153,28 44,28 L53,28 L53,33.93 Z" id="Stroke-11" fill="#4B5E69" fill-rule="nonzero" mask="url(#mask-2)"></path>
            <polygon id="Fill-12" fill="#D3E5EF" mask="url(#mask-2)" points="5 31 14 31 14 28 5 28"></polygon>
            <polygon id="Fill-13" fill="#D3E5EF" mask="url(#mask-2)" points="20 31 38 31 38 28 20 28"></polygon>
            <path d="M19,24 L15,24 L15,30 L19,30 L19,24 Z M19.25,32 L14.75,32 C13.711,32 13,31.052 13,30 L13,24 C13,22.948 13.711,22 14.75,22 L19.25,22 C20.289,22 21,22.948 21,24 L21,30 C21,31.052 20.289,32 19.25,32 Z" id="Stroke-14" fill="#4B5E69" fill-rule="nonzero" mask="url(#mask-2)"></path>
            <path d="M59,47 C59,52.523 54.522,57 49,57 C43.478,57 39,52.523 39,47 C39,41.477 43.478,37 49,37 C54.522,37 59,41.477 59,47" id="Fill-15" fill="#5BBF89" mask="url(#mask-2)"></path>
            <path d="M58,47 C58,42.0296456 53.9700761,38 49,38 C44.0299239,38 40,42.0296456 40,47 C40,51.9703544 44.0299239,56 49,56 C53.9700761,56 58,51.9703544 58,47 Z M60,47 C60,53.0749549 55.0746147,58 49,58 C42.9253853,58 38,53.0749549 38,47 C38,40.9250451 42.9253853,36 49,36 C55.0746147,36 60,40.9250451 60,47 Z" id="Stroke-16" fill="#5BBF89" fill-rule="nonzero" mask="url(#mask-2)"></path>
            <path d="M43,24 L39,24 L39,30 L43,30 L43,24 Z M43.25,32 L38.75,32 C37.711,32 37,31.052 37,30 L37,24 C37,22.948 37.711,22 38.75,22 L43.25,22 C44.289,22 45,22.948 45,24 L45,30 C45,31.052 44.289,32 43.25,32 Z" id="Stroke-17" fill="#4B5E69" fill-rule="nonzero" mask="url(#mask-2)"></path>
            <path d="M53.0498,49.3628 C53.0498,47.4818 51.0758,46.6358 49.3678,46.0668 C47.9408,45.5858 47.2888,45.1188 47.2888,44.4338 C47.2888,43.9668 47.8348,43.4128 48.8388,43.4128 C49.8078,43.4128 51.1478,44.1418 51.2878,44.2148 C51.4998,44.3318 51.7638,44.2148 51.9038,44.0398 L52.5738,43.2088 C52.6968,43.0628 52.6448,42.8148 52.4678,42.7268 C52.1808,42.5488 51.2018,42.0138 49.8748,41.8238 L49.8748,40.4378 C49.8748,40.1958 49.6788,39.9998 49.4378,39.9998 L48.5628,39.9998 C48.3208,39.9998 48.1248,40.1958 48.1248,40.4378 L48.1248,41.8068 C45.9218,42.0718 44.9818,43.3888 44.9818,44.5498 C44.9818,46.2708 46.6368,47.1458 48.2928,47.6998 C49.7738,48.1958 50.5298,48.7068 50.5298,49.4498 C50.5298,50.0768 49.8438,50.5728 48.9278,50.5728 C47.7818,50.5728 46.3558,49.7128 46.2668,49.6688 C46.1088,49.5668 45.8088,49.5668 45.6678,49.7708 L45.0338,50.6748 C44.8748,50.9078 44.9638,50.9818 45.1218,51.1128 C45.4248,51.3508 46.4368,52.0178 48.1248,52.2008 L48.1248,53.5628 C48.1248,53.8038 48.3208,53.9998 48.5628,53.9998 L49.4378,53.9998 C49.6788,53.9998 49.8748,53.8038 49.8748,53.5628 L49.8748,52.1878 C51.8448,51.9048 53.0498,50.6788 53.0498,49.3628" id="Fill-18" fill="#FFFFFF" mask="url(#mask-2)"></path>
        </g>
    </g>
</svg>