<?xml version="1.0" encoding="UTF-8"?>
<svg width="48px" height="60px" viewBox="0 0 48 60" version="1.1" xmlns="http://www.w3.org/2000/svg" xmlns:xlink="http://www.w3.org/1999/xlink">
    <!-- Generator: Sketch 49.3 (51167) - http://www.bohemiancoding.com/sketch -->
    <title>Icon/ Employee Stock Plan</title>
    <desc>Created with Sketch.</desc>
    <defs></defs>
    <g id="Icon/-Employee-Stock-Plan" stroke="none" stroke-width="1" fill="none" fill-rule="evenodd">
        <g id="Page-1">
            <path d="M38,9 L32,9 C31.447,9 31,9.447 31,10 L31,34 C31,34.553 31.447,35 32,35 L38,35 C38.553,35 39,34.553 39,34 L39,10 C39,9.447 38.553,9 38,9" id="Fill-1" fill="#53C27C"></path>
            <path d="M16,28 L10,28 C9.447,28 9,28.447 9,29 L9,34 C9,34.553 9.447,35 10,35 L16,35 C16.553,35 17,34.553 17,34 L17,29 C17,28.447 16.553,28 16,28" id="Fill-3" fill="#D3E5EF"></path>
            <path d="M46,58 L2,58 L2,13 L11,13 C11.553,13 12,12.553 12,12 L12,2 L46,2 L46,58 Z M10,3.477 L10,11 L2.477,11 L10,3.477 Z M47,0 L11.062,0 C11.052,0 11.042,0.006 11.031,0.007 C11.021,0.006 11.011,0 11,0 C10.64,0 10.339,0.2 10.162,0.485 L0.293,10.355 C0.105,10.543 0,10.797 0,11.062 L0,59 C0,59.553 0.447,60 1,60 L47,60 C47.553,60 48,59.553 48,59 L48,1 C48,0.447 47.553,0 47,0 Z" id="Fill-5" fill="#4F5661"></path>
            <path d="M33,43 L15,43 C14.447,43 14,42.553 14,42 C14,41.447 14.447,41 15,41 L33,41 C33.553,41 34,41.447 34,42 C34,42.553 33.553,43 33,43" id="Fill-7" fill="#4F5661"></path>
            <path d="M28,48 L20,48 C19.447,48 19,47.553 19,47 C19,46.447 19.447,46 20,46 L28,46 C28.553,46 29,46.447 29,47 C29,47.553 28.553,48 28,48" id="Fill-9" fill="#4F5661"></path>
            <path d="M27,20 L21,20 C20.447,20 20,20.447 20,21 L20,34 C20,34.553 20.447,35 21,35 L27,35 C27.553,35 28,34.553 28,34 L28,21 C28,20.447 27.553,20 27,20" id="Fill-11" fill="#D3E5EF"></path>
        </g>
    </g>
</svg>