<?xml version="1.0" encoding="UTF-8"?>
<svg width="54px" height="60px" viewBox="0 0 54 60" version="1.1" xmlns="http://www.w3.org/2000/svg" xmlns:xlink="http://www.w3.org/1999/xlink">
    <!-- Generator: Sketch 49.3 (51167) - http://www.bohemiancoding.com/sketch -->
    <title>Icon/ Enter Income Easier</title>
    <desc>Created with Sketch.</desc>
    <defs>
        <polygon id="path-1" points="0 60.0001 54 60.0001 54 0.0001 0 0.0001"></polygon>
    </defs>
    <g id="Icon/-Enter-Income-Easier" stroke="none" stroke-width="1" fill="none" fill-rule="evenodd">
        <g id="Page-1">
            <path d="M42,57 C42,58.657 35.284,60 27,60 C18.716,60 12,58.657 12,57 C12,55.344 18.716,54 27,54 C35.284,54 42,55.344 42,57 Z" id="Fill-1" fill="#D3E5EF"></path>
            <mask id="mask-2" fill="white">
                <use xlink:href="#path-1"></use>
            </mask>
            <g id="Clip-4"></g>
            <polygon id="Fill-3" fill="#D3E5EF" mask="url(#mask-2)" points="3 28.0001 51 28.0001 51 26.0001 3 26.0001"></polygon>
            <polygon id="Fill-5" fill="#D3E5EF" mask="url(#mask-2)" points="5 35.0001 49 35.0001 49 33.0001 5 33.0001"></polygon>
            <path d="M3,2 C2.449,2 2,2.448 2,3 L2,23 C2,23.552 2.449,24 3,24 L51,24 C51.551,24 52,23.552 52,23 L52,3 C52,2.448 51.551,2 51,2 L3,2 Z M51,26 L3,26 C1.346,26 0,24.654 0,23 L0,3 C0,1.346 1.346,0 3,0 L51,0 C52.654,0 54,1.346 54,3 L54,23 C54,24.654 52.654,26 51,26 Z" id="Fill-6" fill="#4F5661" mask="url(#mask-2)"></path>
            <path d="M49,33 L5,33 C3.483,33 2.25,31.767 2.25,30.25 L2.25,28 C2.25,27.447 2.698,27 3.25,27 C3.802,27 4.25,27.447 4.25,28 L4.25,30.25 C4.25,30.671 4.58,31 5,31 L49,31 C49.42,31 49.75,30.671 49.75,30.25 L49.75,28 C49.75,27.447 50.198,27 50.75,27 C51.302,27 51.75,27.447 51.75,28 L51.75,30.25 C51.75,31.767 50.517,33 49,33" id="Fill-7" fill="#4F5661" mask="url(#mask-2)"></path>
            <path d="M20.9175,40 L7.0005,40 C5.4835,40 4.2505,38.767 4.2505,37.25 L4.2505,35 C4.2505,34.447 4.6975,34 5.2505,34 C5.8025,34 6.2505,34.447 6.2505,35 L6.2505,37.25 C6.2505,37.671 6.5795,38 7.0005,38 L20.9175,38 C21.4695,38 21.9175,38.447 21.9175,39 C21.9175,39.553 21.4695,40 20.9175,40" id="Fill-8" fill="#4F5661" mask="url(#mask-2)"></path>
            <path d="M47,40 L33,40 C32.448,40 32,39.553 32,39 C32,38.447 32.448,38 33,38 L47,38 C47.42,38 47.75,37.671 47.75,37.25 L47.75,35 C47.75,34.447 48.198,34 48.75,34 C49.302,34 49.75,34.447 49.75,35 L49.75,37.25 C49.75,38.767 48.517,40 47,40" id="Fill-9" fill="#4F5661" mask="url(#mask-2)"></path>
            <path d="M17.6284,15.7002 C17.6284,13.5502 15.3734,12.5842 13.4204,11.9332 C11.7894,11.3842 11.0444,10.8502 11.0444,10.0672 C11.0444,9.5332 11.6684,8.9002 12.8164,8.9002 C13.9224,8.9002 15.4544,9.7332 15.6144,9.8162 C15.8564,9.9502 16.1584,9.8162 16.3194,9.6172 L17.0854,8.6672 C17.2254,8.5002 17.1654,8.2172 16.9634,8.1172 C16.6344,7.9122 15.5174,7.3032 14.0004,7.0842 L14.0004,5.5002 C14.0004,5.2232 13.7754,5.0002 13.5004,5.0002 L12.5004,5.0002 C12.2234,5.0002 12.0004,5.2232 12.0004,5.5002 L12.0004,7.0642 C9.4824,7.3682 8.4074,8.8732 8.4074,10.2002 C8.4074,12.1672 10.2994,13.1672 12.1914,13.8002 C13.8834,14.3672 14.7494,14.9502 14.7494,15.8002 C14.7494,16.5162 13.9634,17.0842 12.9174,17.0842 C11.6074,17.0842 9.9774,16.1002 9.8764,16.0502 C9.6954,15.9332 9.3534,15.9332 9.1924,16.1672 L8.4674,17.2002 C8.2864,17.4672 8.3864,17.5502 8.5674,17.7002 C8.9144,17.9722 10.0704,18.7342 12.0004,18.9432 L12.0004,20.5002 C12.0004,20.7762 12.2234,21.0002 12.5004,21.0002 L13.5004,21.0002 C13.7754,21.0002 14.0004,20.7762 14.0004,20.5002 L14.0004,18.9292 C16.2514,18.6062 17.6284,17.2052 17.6284,15.7002" id="Fill-10" fill="#53C27C" mask="url(#mask-2)"></path>
            <path d="M45,10 L25,10 C24.448,10 24,10.447 24,11 C24,11.553 24.448,12 25,12 L45,12 C45.552,12 46,11.553 46,11 C46,10.447 45.552,10 45,10" id="Fill-11" fill="#D3E5EF" mask="url(#mask-2)"></path>
            <path d="M41,15 L25,15 C24.448,15 24,15.447 24,16 C24,16.553 24.448,17 25,17 L41,17 C41.552,17 42,16.553 42,16 C42,15.447 41.552,15 41,15" id="Fill-12" fill="#D3E5EF" mask="url(#mask-2)"></path>
            <path d="M35.0947,46.5927 C34.9337,46.2327 34.5757,45.9997 34.1817,45.9997 L29.9997,45.9997 L29.9997,37.9997 C29.9997,37.4467 29.5527,36.9997 28.9997,36.9997 L24.9997,36.9997 C24.4477,36.9997 23.9997,37.4467 23.9997,37.9997 L23.9997,45.9997 L19.8177,45.9997 C19.4237,45.9997 19.0657,46.2327 18.9047,46.5927 C18.7437,46.9527 18.8097,47.3737 19.0737,47.6677 L26.2557,55.6677 C26.4457,55.8787 26.7167,55.9997 26.9997,55.9997 C27.2837,55.9997 27.5547,55.8787 27.7437,55.6677 L34.9257,47.6677 C35.1897,47.3737 35.2557,46.9527 35.0947,46.5927" id="Fill-13" fill="#53C27C" mask="url(#mask-2)"></path>
        </g>
    </g>
</svg>