<?xml version="1.0" encoding="UTF-8"?>
<svg width="58px" height="61px" viewBox="0 0 58 61" version="1.1" xmlns="http://www.w3.org/2000/svg" xmlns:xlink="http://www.w3.org/1999/xlink">
    <!-- Generator: Sketch 49.3 (51167) - http://www.bohemiancoding.com/sketch -->
    <title>Icon/ Estimated Taxes Paid</title>
    <desc>Created with Sketch.</desc>
    <defs></defs>
    <g id="Icon/-Estimated-Taxes-Paid" stroke="none" stroke-width="1" fill="none" fill-rule="evenodd">
        <g id="Estimated-Taxes-Paid">
            <g id="Page-1" transform="translate(6.000000, 0.000000)">
                <path d="M5,37 L1,37 C0.447,37 0,36.552 0,36 L0,32 C0,31.448 0.447,31 1,31 L5,31 C5.553,31 6,31.448 6,32 L6,36 C6,36.552 5.553,37 5,37" id="Fill-3" fill="#D3E5EF"></path>
                <path d="M14,37 L10,37 C9.447,37 9,36.552 9,36 L9,32 C9,31.448 9.447,31 10,31 L14,31 C14.553,31 15,31.448 15,32 L15,36 C15,36.552 14.553,37 14,37" id="Fill-5" fill="#D3E5EF"></path>
                <path d="M24,32 L24,36 C24,36.55 23.55,37 23,37 L19,37 C18.45,37 18,36.55 18,36 L18,32 C18,31.45 18.45,31 19,31 L23.08,31.01 C23.59,31.05 24,31.48 24,32" id="Fill-7" fill="#D3E5EF"></path>
                <path d="M5,46 L1,46 C0.447,46 0,45.552 0,45 L0,41 C0,40.448 0.447,40 1,40 L5,40 C5.553,40 6,40.448 6,41 L6,45 C6,45.552 5.553,46 5,46" id="Fill-9" fill="#D3E5EF"></path>
                <path d="M14,46 L10,46 C9.447,46 9,45.552 9,45 L9,41 C9,40.448 9.447,40 10,40 L14,40 C14.553,40 15,40.448 15,41 L15,45 C15,45.552 14.553,46 14,46" id="Fill-11" fill="#D3E5EF"></path>
                <path d="M23,46 L19,46 C18.447,46 18,45.552 18,45 L18,41 C18,40.448 18.447,40 19,40 L23,40 C23.553,40 24,40.448 24,41 L24,45 C24,45.552 23.553,46 23,46" id="Fill-13" fill="#D3E5EF"></path>
                <path d="M5,55 L1,55 C0.447,55 0,54.552 0,54 L0,50 C0,49.448 0.447,49 1,49 L5,49 C5.553,49 6,49.448 6,50 L6,54 C6,54.552 5.553,55 5,55" id="Fill-15" fill="#D3E5EF"></path>
                <path d="M14,55 L10,55 C9.447,55 9,54.552 9,54 L9,50 C9,49.448 9.447,49 10,49 L14,49 C14.553,49 15,49.448 15,50 L15,54 C15,54.552 14.553,55 14,55" id="Fill-17" fill="#D3E5EF"></path>
                <path d="M23,55 L19,55 C18.447,55 18,54.552 18,54 L18,50 C18,49.448 18.447,49 19,49 L23,49 C23.553,49 24,49.448 24,50 L24,54 C24,54.552 23.553,55 23,55" id="Fill-19" fill="#D3E5EF"></path>
                <path d="M39,1 C32.373,1 27,6.373 27,13 C27,15.358 27.69,17.551 28.865,19.405 L27,25 L32.8,23.26 C34.611,24.357 36.728,25 39,25 C45.627,25 51,19.627 51,13 C51,6.373 45.627,1 39,1" id="Fill-21" fill="#5BBF89"></path>
                <path d="M26,13 C26,5.82071525 31.8207153,0 39,0 C46.1792847,0 52,5.82071525 52,13 C52,20.1792847 46.1792847,26 39,26 C36.7589856,26 34.5979407,25.4217152 32.6717254,24.342513 L27.2873479,25.9578263 C26.51136,26.1906226 25.7951232,25.4523528 26.0513167,24.6837722 L27.7697408,19.5285 C26.6188768,17.5572426 26,15.3220823 26,13 Z M32.5126521,22.3021737 C32.7835513,22.220904 33.0761957,22.2581482 33.3181028,22.4046817 C35.0318667,23.4427816 36.9766361,24 39,24 C45.0747153,24 50,19.0747153 50,13 C50,6.92528475 45.0747153,2 39,2 C32.9252847,2 28,6.92528475 28,13 C28,15.1016913 28.5988832,17.1170328 29.7096543,18.8696878 C29.8705048,19.1234894 29.9087034,19.4361675 29.8136833,19.7212278 L28.557892,23.4886018 L32.5126521,22.3021737 Z" id="Stroke-23" fill="#5BBF89" fill-rule="nonzero"></path>
                <path d="M43.6279,15.7002 C43.6279,13.5502 41.3729,12.5832 39.4199,11.9332 C37.7889,11.3832 37.0449,10.8502 37.0449,10.0672 C37.0449,9.5332 37.6679,8.9002 38.8159,8.9002 C39.9229,8.9002 41.4539,9.7332 41.6149,9.8162 C41.8569,9.9502 42.1579,9.8162 42.3189,9.6172 L43.0849,8.6672 C43.2259,8.5002 43.1649,8.2172 42.9639,8.1172 C42.6349,7.9122 41.5169,7.3022 39.9999,7.0842 L39.9999,5.5002 C39.9999,5.2232 39.7759,5.0002 39.4999,5.0002 L38.4999,5.0002 C38.2239,5.0002 37.9999,5.2232 37.9999,5.5002 L37.9999,7.0642 C35.4819,7.3682 34.4069,8.8722 34.4069,10.2002 C34.4069,12.1672 36.2999,13.1662 38.1919,13.8002 C39.8839,14.3672 40.7489,14.9502 40.7489,15.8002 C40.7489,16.5162 39.9639,17.0832 38.9169,17.0832 C37.6079,17.0832 35.9779,16.1002 35.8769,16.0502 C35.6949,15.9332 35.3539,15.9332 35.1919,16.1672 L34.4679,17.2002 C34.2859,17.4672 34.3869,17.5502 34.5679,17.7002 C34.9139,17.9722 36.0699,18.7342 37.9999,18.9432 L37.9999,20.5002 C37.9999,20.7762 38.2239,21.0002 38.4999,21.0002 L39.4999,21.0002 C39.7759,21.0002 39.9999,20.7762 39.9999,20.5002 L39.9999,18.9292 C42.2509,18.6062 43.6279,17.2042 43.6279,15.7002" id="Fill-25" fill="#FFFFFF"></path>
                <path d="M1,28 C0.44771525,28 0,27.5522847 0,27 L0,19 C0,18.4477153 0.44771525,18 1,18 L23,18 C23.5522847,18 24,18.4477153 24,19 L24,27 C24,27.5522847 23.5522847,28 23,28 L1,28 Z M2,26 L22,26 L22,20 L2,20 L2,26 Z" id="Stroke-27" fill="#4F5661" fill-rule="nonzero"></path>
            </g>
            <path d="M35,27 C34.447,27 34,27.448 34,28 L34,58 C34,58.551 33.552,59 33,59 L3,59 C2.448,59 2,58.551 2,58 L2,15 C2,14.449 2.448,14 3,14 L29,14 C29.553,14 30,13.552 30,13 C30,12.448 29.553,12 29,12 L3,12 C1.346,12 0,13.346 0,15 L0,58 C0,59.654 1.346,61 3,61 L33,61 C34.654,61 36,59.654 36,58 L36,28 C36,27.448 35.553,27 35,27" id="Page-1" fill="#4F5661"></path>
        </g>
    </g>
</svg>