<?xml version="1.0" encoding="UTF-8"?>
<svg width="60px" height="58px" viewBox="0 0 60 58" version="1.1" xmlns="http://www.w3.org/2000/svg" xmlns:xlink="http://www.w3.org/1999/xlink">
    <!-- Generator: Sketch 49.3 (51167) - http://www.bohemiancoding.com/sketch -->
    <title>Icon/ Expenses</title>
    <desc>Created with Sketch.</desc>
    <defs></defs>
    <g id="Icon/-Expenses" stroke="none" stroke-width="1" fill="none" fill-rule="evenodd">
        <g id="Expenses">
            <path d="M60,19 C60,25.075 55.075,30 49,30 C42.925,30 38,25.075 38,19 C38,12.925 42.925,8 49,8 C55.075,8 60,12.925 60,19" id="Fill-1" fill="#53C27C"></path>
            <path d="M1,10 L1,4 C1,2.34 2.34,1 4,1 C5.66,1 7,2.34 7,4 L7,10 L1,10 Z" id="Fill-3" fill="#D3E5EF"></path>
            <path d="M50,47.417 C49.448,47.417 49,46.97 49,46.417 L49,33.188 C49,32.635 49.448,32.188 50,32.188 C50.552,32.188 51,32.635 51,33.188 L51,46.417 C51,46.97 50.552,47.417 50,47.417" id="Fill-5" fill="#4F5661"></path>
            <path d="M7,54 C7,55.657 8.343,57 10,57 C11.657,57 13,55.657 13,54 L13,50 L37,50 L54,50 L54,54 C54,55.657 52.657,57 51,57 L10,57" id="Fill-7" fill="#D3E5EF"></path>
            <path d="M53,54 C53,55.103 52.103,56 51,56 L13.463,56 C13.805,55.411 14,54.728 14,54 L14,51 L53,51 L53,54 Z M6,9 L2,9 L2,4 C2,2.897 2.897,2 4,2 C5.103,2 6,2.897 6,4 L6,9 Z M54,49 L13,49 C12.448,49 12,49.447 12,50 L12,54 C12,55.103 11.103,56 10,56 C8.897,56 8,55.103 8,54 L8,4 C8,3.269 7.788,2.591 7.444,2 L45,2 C46.654,2 48,3.346 48,5 C48,5.553 48.448,6 49,6 C49.552,6 50,5.553 50,5 L50,4.688 C50,4.603 49.989,4.52 49.969,4.439 C49.689,1.945 47.568,0 45,0 L4,0 C1.794,0 0,1.794 0,4 L0,10 C0,10.553 0.448,11 1,11 L6,11 L6,54 C6,56.206 7.794,58 10,58 L51,58 C53.206,58 55,56.206 55,54 L55,50 C55,49.447 54.552,49 54,49 Z" id="Fill-9" fill="#4F5661"></path>
            <path d="M35,14 L25,14 C24.448,14 24,13.553 24,13 C24,12.447 24.448,12 25,12 L35,12 C35.552,12 36,12.447 36,13 C36,13.553 35.552,14 35,14" id="Fill-11" fill="#4F5661"></path>
            <path d="M34,18 L25,18 C24.448,18 24,17.553 24,17 C24,16.447 24.448,16 25,16 L34,16 C34.552,16 35,16.447 35,17 C35,17.553 34.552,18 34,18" id="Fill-13" fill="#4F5661"></path>
            <path d="M19,18 L15,18 C14.448,18 14,17.553 14,17 L14,13 C14,12.447 14.448,12 15,12 L19,12 C19.552,12 20,12.447 20,13 L20,17 C20,17.553 19.552,18 19,18" id="Fill-15" fill="#D3E5EF"></path>
            <path d="M35,25 L25,25 C24.448,25 24,24.553 24,24 C24,23.447 24.448,23 25,23 L35,23 C35.552,23 36,23.447 36,24 C36,24.553 35.552,25 35,25" id="Fill-17" fill="#4F5661"></path>
            <path d="M38,29 L25,29 C24.448,29 24,28.553 24,28 C24,27.447 24.448,27 25,27 L38,27 C38.552,27 39,27.447 39,28 C39,28.553 38.552,29 38,29" id="Fill-19" fill="#4F5661"></path>
            <path d="M19,29 L15,29 C14.448,29 14,28.553 14,28 L14,24 C14,23.447 14.448,23 15,23 L19,23 C19.552,23 20,23.447 20,24 L20,28 C20,28.553 19.552,29 19,29" id="Fill-21" fill="#D3E5EF"></path>
            <path d="M35,36 L25,36 C24.448,36 24,35.553 24,35 C24,34.447 24.448,34 25,34 L35,34 C35.552,34 36,34.447 36,35 C36,35.553 35.552,36 35,36" id="Fill-23" fill="#4F5661"></path>
            <path d="M40,40 L25,40 C24.448,40 24,39.553 24,39 C24,38.447 24.448,38 25,38 L40,38 C40.552,38 41,38.447 41,39 C41,39.553 40.552,40 40,40" id="Fill-25" fill="#4F5661"></path>
            <path d="M19,40 L15,40 C14.448,40 14,39.553 14,39 L14,35 C14,34.447 14.448,34 15,34 L19,34 C19.552,34 20,34.447 20,35 L20,39 C20,39.553 19.552,40 19,40" id="Fill-27" fill="#D3E5EF"></path>
            <path d="M53.5,21.7002 C53.5,19.5502 51.307,18.5832 49.409,17.9332 C47.823,17.3832 47.099,16.8492 47.099,16.0662 C47.099,15.5332 47.706,14.9002 48.821,14.9002 C49.897,14.9002 51.386,15.7332 51.542,15.8162 C51.777,15.9502 52.071,15.8162 52.228,15.6172 L52.972,14.6672 C53.108,14.5002 53.049,14.2172 52.854,14.1172 C52.534,13.9122 51.447,13.3022 49.972,13.0842 L49.972,11.5002 C49.972,11.2232 49.754,11.0002 49.486,11.0002 L48.514,11.0002 C48.246,11.0002 48.028,11.2232 48.028,11.5002 L48.028,13.0642 C45.58,13.3682 44.534,14.8732 44.534,16.2002 C44.534,18.1672 46.375,19.1672 48.214,19.8002 C49.859,20.3672 50.701,20.9502 50.701,21.8002 C50.701,22.5162 49.937,23.0832 48.919,23.0832 C47.646,23.0832 46.061,22.0992 45.963,22.0502 C45.787,21.9332 45.454,21.9332 45.298,22.1672 L44.593,23.2002 C44.417,23.4672 44.515,23.5502 44.691,23.7002 C45.028,23.9722 46.151,24.7342 48.028,24.9432 L48.028,26.5002 C48.028,26.7762 48.246,27.0002 48.514,27.0002 L49.486,27.0002 C49.754,27.0002 49.972,26.7762 49.972,26.5002 L49.972,24.9292 C52.161,24.6052 53.5,23.2052 53.5,21.7002" id="Fill-29" fill="#FFFFFF"></path>
        </g>
    </g>
</svg>