<?xml version="1.0" encoding="UTF-8"?>
<svg width="50px" height="58px" viewBox="0 0 50 58" version="1.1" xmlns="http://www.w3.org/2000/svg" xmlns:xlink="http://www.w3.org/1999/xlink">
    <!-- Generator: Sketch 49.3 (51167) - http://www.bohemiancoding.com/sketch -->
    <title>Icon/ Explore</title>
    <desc>Created with Sketch.</desc>
    <defs></defs>
    <g id="Icon/-Explore" stroke="none" stroke-width="1" fill="none" fill-rule="evenodd">
        <g id="Explore" transform="translate(-1.000000, -1.000000)">
            <path d="M41.5098,33.5098 C41.5098,33.9998 41.1698,34.4098 40.6998,34.4998 L31.5798,36.1998 L34.8898,41.0098 C35.1598,41.4098 35.1098,41.9398 34.7698,42.2798 C34.5798,42.4798 34.3198,42.5798 34.0598,42.5798 C33.8698,42.5798 33.6698,42.5198 33.4998,42.3998 L28.6798,39.0998 L26.9798,48.2098 C26.8998,48.6898 26.4798,49.0298 25.9998,49.0298 C25.5198,49.0298 25.0998,48.6898 25.0198,48.2098 L23.5898,40.5298 L29.7498,37.7298 L22.2498,30.2298 L19.6098,36.0398 L11.2998,34.4998 C10.8298,34.4098 10.4898,33.9998 10.4898,33.5098 C10.4898,33.0298 10.8298,32.6198 11.2998,32.5298 L20.4198,30.8298 L17.1098,26.0198 C16.8398,25.6198 16.8898,25.0898 17.2298,24.7498 C17.5698,24.3998 18.1098,24.3598 18.4998,24.6298 L23.3198,27.9298 L25.0198,18.8198 C25.0998,18.3398 25.5198,17.9998 25.9998,17.9998 C26.4798,17.9998 26.8998,18.3398 26.9798,18.8198 L29.1398,30.3798 L40.6998,32.5298 C41.1698,32.6198 41.5098,33.0298 41.5098,33.5098" id="Fill-1" fill="#D3E5EF"></path>
            <polygon id="Fill-3" fill="#5BBF89" points="22.25 30.2314 29.75 37.7314 36 23.9814"></polygon>
            <path d="M21.5428932,30.9385068 C21.0491869,30.4448005 21.2005736,29.6099533 21.8361971,29.3210335 L35.5861971,23.0710335 C36.4273762,22.6886793 37.2927207,23.5540238 36.9103665,24.3952029 L30.6603665,38.1452029 C30.3714467,38.7808264 29.5365995,38.9322131 29.0428932,38.4385068 L21.5428932,30.9385068 Z M29.4367514,36.0039378 L33.986159,25.995241 L23.9774622,30.5446486 L29.4367514,36.0039378 Z" id="Stroke-5" fill="#4B5E69" fill-rule="nonzero"></path>
            <path d="M50,34 C50,20.7452847 39.2547153,10 26,10 C12.7452847,10 2,20.7452847 2,34 C2,47.2547153 12.7452847,58 26,58 C39.2547153,58 50,47.2547153 50,34 Z M52,34 C52,48.3592847 40.3592847,60 26,60 C11.6407153,60 0,48.3592847 0,34 C0,19.6407153 11.6407153,8 26,8 C40.3592847,8 52,19.6407153 52,34 Z" id="Stroke-7" fill="#4B5E69" fill-rule="nonzero"></path>
            <path d="M26,52 C35.9247153,52 44,43.9247153 44,34 C44,24.0752847 35.9247153,16 26,16 C16.0752847,16 8,24.0752847 8,34 C8,43.9247153 16.0752847,52 26,52 Z M26,54 C14.9707153,54 6,45.0292847 6,34 C6,22.9707153 14.9707153,14 26,14 C37.0292847,14 46,22.9707153 46,34 C46,45.0292847 37.0292847,54 26,54 Z" id="Stroke-9" fill="#4B5E69" fill-rule="nonzero"></path>
            <path d="M29,5 C29,3.34328475 27.6567153,2 26,2 C24.3432847,2 23,3.34328475 23,5 C23,6.65671525 24.3432847,8 26,8 C27.6567153,8 29,6.65671525 29,5 Z M31,5 C31,7.76128475 28.7612847,10 26,10 C23.2387153,10 21,7.76128475 21,5 C21,2.23871525 23.2387153,0 26,0 C28.7612847,0 31,2.23871525 31,5 Z" id="Stroke-11" fill="#4B5E69" fill-rule="nonzero"></path>
            <path d="M30.4571068,37.0242932 C30.9508131,37.5179995 30.7994264,38.3528467 30.1638029,38.6417665 L16.4138029,44.8917665 C15.5726238,45.2741207 14.7072793,44.4087762 15.0896335,43.5675971 L21.3396335,29.8175971 C21.6285533,29.1819736 22.4634005,29.0305869 22.9571068,29.5242932 L30.4571068,37.0242932 Z M22.5632486,31.9588622 L18.013841,41.967559 L28.0225378,37.4181514 L22.5632486,31.9588622 Z" id="Stroke-13" fill="#4B5E69" fill-rule="nonzero"></path>
        </g>
    </g>
</svg>