<?xml version="1.0" encoding="UTF-8"?>
<svg width="53px" height="61px" viewBox="0 0 53 61" version="1.1" xmlns="http://www.w3.org/2000/svg" xmlns:xlink="http://www.w3.org/1999/xlink">
    <!-- Generator: Sketch 49.3 (51167) - http://www.bohemiancoding.com/sketch -->
    <title>Icon/ Federal Tax</title>
    <desc>Created with Sketch.</desc>
    <defs>
        <polygon id="path-1" points="0 61 53 61 53 0 0 0"></polygon>
    </defs>
    <g id="Icon/-Federal-Tax" stroke="none" stroke-width="1" fill="none" fill-rule="evenodd">
        <g id="Federal-Tax">
            <path d="M40,2.771 L40,8.621 C40,8.946 39.858,9.316 39.548,9.429 C33.44,11.661 32.611,6.426 27,9.178 L27,1.561 C32.407,-1.072 33.388,3.768 39.032,2.013 C39.561,1.843 40,2.226 40,2.771 Z" id="Fill-1" fill="#F4877A"></path>
            <path d="M43.3374029,24.2346411 C40.8307317,18.5190856 35.0526914,14.5303363 28.3534791,14.0542326 C27.9311385,14.0174684 27.4839477,14 27.0002,14 C19.7585981,14 13.3467486,18.1004551 10.653894,24.2348763 C10.2582465,25.1363776 9.9496357,26.0619459 9.73416865,27 L44.2601653,27 C44.0371575,26.0400399 43.7292865,25.1162053 43.3374029,24.2346411 Z M7.37157173,29 L7.53981777,27.8546632 C7.76157434,26.3450527 8.19596476,24.8587272 8.82253916,23.4310482 C11.8375312,16.5627863 18.9723244,12 27.0002,12 C27.5392523,12 28.0437302,12.0197062 28.511071,12.0605145 C35.9277441,12.5874669 42.3608691,17.0284401 45.1669773,23.4267845 C45.6833545,24.5883691 46.0710226,25.8170935 46.3280559,27.1023712 C46.3812579,27.3778396 46.424461,27.6206973 46.4594734,27.8473054 L46.6375722,29 L7.37157173,29 Z" id="Stroke-3" fill="#4B5E69" fill-rule="nonzero"></path>
            <path d="M33.7829284,24.0266455 C32.6591918,18.3334289 30.1363761,14.463247 27.4581221,14.0398077 C27.3200858,14.013112 27.1690354,14 27,14 C24.1876555,14 21.4155942,17.9393534 20.2130647,24.0266802 C20.0222493,24.9932335 19.874817,25.9888977 19.7741457,27 L34.2235911,27 C34.1191824,25.9661478 33.9719572,24.9718036 33.7829284,24.0266455 Z M17.6196038,29 L17.6901845,27.9339377 C17.7870415,26.4709935 17.9767698,25.0280734 18.2509592,23.6391989 C19.6169946,16.7241882 22.9413319,12 27,12 C27.2911246,12 27.5683321,12.0240631 27.8039468,12.0702346 C31.5048336,12.6545247 34.4767603,17.2136754 35.7445807,23.6368839 C35.9706844,24.7674023 36.1402752,25.9612599 36.2523362,27.2064776 C36.2774874,27.4994888 36.2951226,27.7199286 36.3096506,27.9314918 L36.3830245,29 L17.6196038,29 Z" id="Stroke-5" fill="#4B5E69" fill-rule="nonzero"></path>
            <path d="M49,31 L49,30 C49,29.4482847 48.5517153,29 48,29 L6,29 C5.44828475,29 5,29.4482847 5,30 L5,31 L49,31 Z M51,30 L51,32 C51,32.5522847 50.5522847,33 50,33 L4,33 C3.44771525,33 3,32.5522847 3,32 L3,30 C3,28.3437153 4.34371525,27 6,27 L48,27 C49.6562847,27 51,28.3437153 51,30 Z" id="Stroke-7" fill="#4B5E69" fill-rule="nonzero"></path>
            <path d="M26,1 L26,13 C26,13.5522847 26.4477153,14 27,14 C27.5522847,14 28,13.5522847 28,13 L28,1 C28,0.44771525 27.5522847,0 27,0 C26.4477153,0 26,0.44771525 26,1 Z" id="Stroke-9" fill="#4B5E69" fill-rule="nonzero"></path>
            <polygon id="Stroke-11" fill="#4B5E69" fill-rule="nonzero" points="13 33 13 50 15 50 15 31 7 31 7 50 9 50 9 33"></polygon>
            <path d="M4,57 L49,57 C49.5522847,57 50,56.5522847 50,56 C50,55.4477153 49.5522847,55 49,55 L4,55 C3.44771525,55 3,55.4477153 3,56 C3,56.5522847 3.44771525,57 4,57 Z" id="Stroke-13" fill="#4B5E69" fill-rule="nonzero"></path>
            <path d="M1,61 L52,61 C52.5522847,61 53,60.5522847 53,60 C53,59.4477153 52.5522847,59 52,59 L1,59 C0.44771525,59 0,59.4477153 0,60 C0,60.5522847 0.44771525,61 1,61 Z" id="Stroke-15" fill="#4B5E69" fill-rule="nonzero"></path>
            <mask id="mask-2" fill="white">
                <use xlink:href="#path-1"></use>
            </mask>
            <g id="Clip-18"></g>
            <polygon id="Fill-17" fill="#D3E5EF" mask="url(#mask-2)" points="15 55 23 55 23 33 15 33"></polygon>
            <polygon id="Fill-19" fill="#D3E5EF" mask="url(#mask-2)" points="31 55 39 55 39 33 31 33"></polygon>
            <path d="M14,49 C15.1042847,49 16,49.8957153 16,51 L16,57 L6,57 L6,51 C6,49.8957153 6.89571525,49 8,49 L14,49 Z M14,55 L14,51 L8,51 L8,55 L14,55 Z" id="Stroke-20" fill="#4B5E69" fill-rule="nonzero" mask="url(#mask-2)"></path>
            <polygon id="Stroke-21" fill="#4B5E69" fill-rule="nonzero" mask="url(#mask-2)" points="25 33 29 33 29 50 31 50 31 31 23 31 23 50 25 50"></polygon>
            <path d="M30,49 C31.1042847,49 32,49.8957153 32,51 L32,57 L22,57 L22,51 C22,49.8957153 22.8957153,49 24,49 L30,49 Z M30,55 L30,51 L24,51 L24,55 L30,55 Z" id="Stroke-22" fill="#4B5E69" fill-rule="nonzero" mask="url(#mask-2)"></path>
            <polygon id="Stroke-23" fill="#4B5E69" fill-rule="nonzero" mask="url(#mask-2)" points="45 33 45 50 47 50 47 31 39 31 39 50 41 50 41 33"></polygon>
            <path d="M46,49 C47.1042847,49 48,49.8957153 48,51 L48,57 L38,57 L38,51 C38,49.8957153 38.8957153,49 40,49 L46,49 Z M46,55 L46,51 L40,51 L40,55 L46,55 Z" id="Stroke-24" fill="#4B5E69" fill-rule="nonzero" mask="url(#mask-2)"></path>
        </g>
    </g>
</svg>