<?xml version="1.0" encoding="UTF-8"?>
<svg width="57px" height="54px" viewBox="0 0 57 54" version="1.1" xmlns="http://www.w3.org/2000/svg" xmlns:xlink="http://www.w3.org/1999/xlink">
    <!-- Generator: Sketch 49.3 (51167) - http://www.bohemiancoding.com/sketch -->
    <title>Icon/ File Taxes</title>
    <desc>Created with Sketch.</desc>
    <defs></defs>
    <g id="Icon/-File-Taxes" stroke="none" stroke-width="1" fill="none" fill-rule="evenodd">
        <g id="File-Taxes">
            <path d="M1,47 L1,1 L11.86,1 C12.8644746,1 13.8027658,1.50192432 14.3579497,2.3347002 L15.9769006,4.77312335 C16.9041459,6.16399446 18.4669644,7 20.14,7 L47,7 L47,9 C47,9.55228475 47.4477153,10 48,10 C48.5522847,10 49,9.55228475 49,9 L49,6 C49,5.44771525 48.5522847,5 48,5 L20.14,5 C19.1355254,5 18.1972342,4.49807568 17.6420503,3.6652998 L16.0230994,1.22687665 C15.0958541,-0.16399446 13.5330356,-1 11.86,-1 L0,-1 C-0.55228475,-1 -1,-0.55228475 -1,0 L-1,48 C-1,48.5522847 -0.55228475,49 0,49 L31.26,49 C31.8122847,49 32.26,48.5522847 32.26,48 C32.26,47.4477153 31.8122847,47 31.26,47 L1,47 Z" id="Stroke-1" fill="#4B5E69" fill-rule="nonzero"></path>
            <path d="M54.4790816,19 C53.1695485,22.0920723 52.0193548,25.2077967 51.0243765,28.4354093 C50.8616785,28.9631856 51.157633,29.5229256 51.6854093,29.6856235 C52.2131856,29.8483215 52.7729256,29.552367 52.9356235,29.0245907 C54.0573867,25.3857003 55.3816719,21.8892942 56.9153577,18.4026415 C57.2060687,17.7417447 56.7220093,17 56,17 L10,17 C9.60216461,17 9.24217001,17.2358229 9.08325006,17.6005384 C7.5921759,21.0225 6.2479307,24.4708902 5.05313319,27.988374 C2.78967378,34.6566569 1.13835668,41.2744924 0.0143777452,47.8310362 C-0.0789383932,48.3753803 0.286692044,48.8923061 0.831036185,48.9856223 C1.37538033,49.0789384 1.89230612,48.713308 1.98562225,48.1689638 C3.09228109,41.7134539 4.71819679,35.1974173 6.94693521,28.6314245 C8.05340195,25.3739865 9.29068201,22.1751323 10.6567249,19 L54.4790816,19 Z" id="Stroke-3" fill="#4B5E69" fill-rule="nonzero"></path>
            <path d="M52,12 L52,18 L10,18 C8.61,21.19 7.25,24.63 6,28.31 C5.25,30.51 4.58,32.68 4,34.78 L4,12 L52,12 Z" id="Fill-5" fill="#D3E5EF"></path>
            <path d="M5,13 L5,28.1445728 C5.01766853,28.0925175 5.03537965,28.0404511 5.05313319,27.988374 C6.2479307,24.4708902 7.5921759,21.0225 9.08325006,17.6005384 C9.24217001,17.2358229 9.60216461,17 10,17 L51,17 L51,13 L5,13 Z M10.6567249,19 C9.29068058,22.1751365 8.05337676,25.3740605 6.94651019,28.6326739 C6.20594711,30.8049923 5.54108645,32.9564515 4.96391142,35.0462232 C4.65381878,36.1689724 3,35.9447847 3,34.78 L3,12 C3,11.4477153 3.44771525,11 4,11 L52,11 C52.5522847,11 53,11.4477153 53,12 L53,18 C53,18.5522847 52.5522847,19 52,19 L10.6567249,19 Z" id="Stroke-7" fill="#4B5E69" fill-rule="nonzero"></path>
            <path d="M57,42 C57,48.627 51.627,54 45,54 C38.373,54 33,48.627 33,42 C33,35.373 38.373,30 45,30 C51.627,30 57,35.373 57,42" id="Fill-9" fill="#5BBF89"></path>
            <polygon id="Fill-11" fill="#FFFFFF" points="51.4927 38.856 50.0937 37.5 43.6247 44.115 40.4127 41.091 39.1097 42.54 43.1757 46.331 43.1797 46.326 43.7027 46.834"></polygon>
            <polygon id="Stroke-13" stroke="#FFFFFF" stroke-linejoin="round" points="51.4927 38.856 50.0937 37.5 43.6247 44.115 40.4127 41.091 39.1097 42.54 43.1757 46.331 43.1797 46.326 43.7027 46.834"></polygon>
        </g>
    </g>
</svg>