<?xml version="1.0" encoding="UTF-8"?>
<svg width="60px" height="60px" viewBox="0 0 60 60" version="1.1" xmlns="http://www.w3.org/2000/svg" xmlns:xlink="http://www.w3.org/1999/xlink">
    <!-- Generator: Sketch 49.3 (51167) - http://www.bohemiancoding.com/sketch -->
    <title>Icon/ Finished Celebration</title>
    <desc>Created with Sketch.</desc>
    <defs></defs>
    <g id="Icon/-Finished-Celebration" stroke="none" stroke-width="1" fill="none" fill-rule="evenodd">
        <g id="Page-1">
            <path d="M41.4175,11.6423 C40.2145,7.8763 37.3165,5.1593 32.9695,5.1593 C27.6445,5.1593 24.1045,9.2813 24.1045,14.3523 C24.1045,14.3523 25.6285,15.2763 28.5215,12.5213 C29.5645,13.2703 31.2095,14.2293 33.3725,14.8043 C37.6205,15.9353 40.4105,14.8673 41.8935,14.3633" id="Fill-1" fill="#D3E5EF"></path>
            <path d="M51.793,7.5075 C51.773,7.4945 51.75,7.4955 51.73,7.4855 C51.547,7.2865 51.291,7.1585 51,7.1585 C50.622,7.1585 50.25,6.6635 50.25,6.1585 C50.25,5.2565 51.474,5.1585 52,5.1585 C52.552,5.1585 53,4.7115 53,4.1585 C53,3.6065 52.552,3.1585 52,3.1585 C51.611,3.1585 51.259,3.2025 50.924,3.2665 C50.938,2.9625 51.008,2.6195 51.234,2.3865 C51.632,1.9755 52.545,1.8895 53.804,2.1395 C54.869,2.3525 56.229,2.7905 56.658,3.6665 C57.088,4.5455 56.548,5.8255 56.105,6.7115 C56.089,6.7435 56.091,6.7785 56.079,6.8105 C56.04,6.8375 56,6.8615 55.965,6.8945 C55.944,6.9145 53.859,8.8695 51.793,7.5075 M57.955,7.4805 C58.573,6.2185 59.248,4.4105 58.454,2.7875 C57.822,1.4945 56.389,0.6165 54.196,0.1785 C52.179,-0.2235 50.694,0.0545 49.782,1.0105 C48.689,2.1565 48.901,3.7665 49,4.2635 C48.523,4.7785 48.25,5.4335 48.25,6.1585 C48.25,7.4355 49.031,8.5465 50.086,8.9695 C49.312,13.2905 50.211,19.9375 50.549,22.1235 C48.644,23.1715 42.929,26.4255 39,29.8315 L39,27.3185 C41.183,25.4835 42.893,22.8035 42.893,19.7055 L42.893,14.3745 C42.893,14.0525 42.738,13.7495 42.476,13.5625 C42.214,13.3735 41.878,13.3255 41.572,13.4275 L41.376,13.4945 C39.891,14.0025 37.405,14.8555 33.629,13.8495 C31.584,13.3055 30.039,12.3915 29.104,11.7205 C28.714,11.4395 28.179,11.4775 27.832,11.8085 C26.555,13.0235 25.658,13.3895 25.143,13.4885 C25.523,9.1985 28.697,6.1705 32.969,6.1705 C37.636,6.1705 39.567,9.5035 40.304,11.4895 C40.496,12.0085 41.072,12.2735 41.588,12.0795 C42.106,11.8885 42.371,11.3135 42.179,10.7945 C40.619,6.5845 37.263,4.1705 32.969,4.1705 C27.345,4.1705 23.105,8.5525 23.105,14.3625 C23.105,14.7125 23.287,15.0365 23.586,15.2185 C23.795,15.3455 25.615,16.3155 28.607,13.7985 C29.686,14.4875 31.211,15.2765 33.115,15.7825 C36.596,16.7085 39.182,16.2505 40.893,15.7525 L40.893,19.7055 C40.893,24.1435 36.044,27.8885 32.999,27.8885 C29.953,27.8885 25.105,24.1435 25.105,19.7055 L25.105,17.7005 C25.105,17.1485 24.657,16.7005 24.105,16.7005 C23.552,16.7005 23.105,17.1485 23.105,17.7005 L23.105,19.7055 C23.105,22.8045 24.816,25.4855 27,27.3205 L27,32.1585 C27,32.7115 27.448,33.1585 28,33.1585 C28.552,33.1585 29,32.7115 29,32.1585 L29,28.7075 C30.374,29.4645 31.789,29.8885 32.999,29.8885 C34.21,29.8885 35.625,29.4645 37,28.7055 L37,32.1585 C37,32.5695 37.25,32.9375 37.631,33.0885 C38.01,33.2385 38.446,33.1445 38.727,32.8455 C42.827,28.5025 52.025,23.5975 52.118,23.5485 C52.5,23.3455 52.709,22.9195 52.635,22.4935 C52.62,22.4085 51.284,14.5875 51.977,9.7875 C53.772,10.3355 55.498,9.6765 56.606,8.9295 C57.463,10.7235 57.846,17.7235 57.442,25.3035 C57.46,25.7415 57.35,26.3715 56.361,27.3835 L50.445,31.3265 C49.986,31.6335 49.862,32.2535 50.168,32.7135 C50.361,33.0025 50.678,33.1585 51.001,33.1585 C51.191,33.1585 51.384,33.1045 51.555,32.9905 L57.555,28.9905 C57.609,28.9545 57.661,28.9125 57.707,28.8655 C58.938,27.6355 59.489,26.4795 59.44,25.3195 C59.816,18.3435 59.8,10.1205 57.955,7.4805" id="Fill-3" fill="#3E444E"></path>
            <path d="M35.7476,20.4948 C35.5576,20.2808 35.2856,20.1588 34.9996,20.1588 L30.9996,20.1588 C30.7066,20.1588 30.4296,20.2868 30.2396,20.5098 C30.0496,20.7328 29.9666,21.0268 30.0126,21.3158 C30.0756,21.7098 30.6926,25.1588 32.9996,25.1588 C35.4636,25.1588 35.9466,21.6738 35.9936,21.2758 C36.0266,20.9928 35.9366,20.7078 35.7476,20.4948" id="Fill-5" fill="#3E444E"></path>
            <path d="M51,56.1589 C51,56.7109 50.551,57.1589 50,57.1589 L16,57.1589 C15.449,57.1589 15,56.7109 15,56.1589 L15,55.1589 L17,55.1589 L49,55.1589 L51,55.1589 L51,56.1589 Z M18,37.1589 C18,36.6069 18.449,36.1589 19,36.1589 L47,36.1589 C47.551,36.1589 48,36.6069 48,37.1589 L48,53.1589 L18,53.1589 L18,37.1589 Z M52,53.1589 L50,53.1589 L50,37.1589 C50,35.5049 48.654,34.1589 47,34.1589 L19,34.1589 C17.346,34.1589 16,35.5049 16,37.1589 L16,53.1589 L14,53.1589 C13.448,53.1589 13,53.6059 13,54.1589 L13,56.1589 C13,57.8129 14.346,59.1589 16,59.1589 L50,59.1589 C51.654,59.1589 53,57.8129 53,56.1589 L53,54.1589 C53,53.6059 52.552,53.1589 52,53.1589 Z" id="Fill-7" fill="#3E444E"></path>
            <path d="M19.8452,26.4304 C20.5902,24.9954 21.0002,23.3734 21.0002,21.6594 C21.0002,15.8614 16.2962,11.1594 10.5002,11.1594 C4.7042,11.1594 0.0002,15.8614 0.0002,21.6594 C0.0002,27.4574 4.7042,32.1594 10.5002,32.1594 C12.5892,32.1594 14.5322,31.5524 16.1592,30.4914 L16.0382,30.4614 L21.0002,32.1594 L19.9502,26.3264" id="Fill-9" fill="#53C27C"></path>
            <path d="M16.0591,18.7683 L14.3991,17.1593 L8.8661,22.8663 L6.1241,20.3483 L4.5791,22.0683 L8.4311,25.6083 C8.7241,25.8773 9.1791,25.8653 9.4551,25.5793 L16.0591,18.7683 Z" id="Fill-11" fill="#FFFFFF"></path>
        </g>
    </g>
</svg>