<?xml version="1.0" encoding="UTF-8"?>
<svg width="57px" height="58px" viewBox="0 0 57 58" version="1.1" xmlns="http://www.w3.org/2000/svg" xmlns:xlink="http://www.w3.org/1999/xlink">
    <!-- Generator: Sketch 49.3 (51167) - http://www.bohemiancoding.com/sketch -->
    <title>Icon/ Financial savings</title>
    <desc>Created with Sketch.</desc>
    <defs></defs>
    <g id="Icon/-Financial-savings" stroke="none" stroke-width="1" fill="none" fill-rule="evenodd">
        <g id="Financial-savings">
            <path d="M55.4525431,34.4755262 L55.4525431,39.2637937 C55.4525431,41.3802079 53.8015485,43.0944077 51.7636618,43.0944077 C50.1682111,43.0944077 47.725237,43.7168825 45.1884129,45.5268476 C44.3495084,46.4270419 43.4272881,47.2506239 42.4227095,47.9975936 C42.1909574,48.2274305 41.979316,48.380655 41.7944888,48.4476908 C37.9868585,51.0908145 33.1076139,52.6709427 27.786891,52.6709427 C15.56819,52.6709427 5.65456088,44.3106276 5.65456088,33.9966994 C5.65456088,33.1826939 5.71872367,32.3878415 5.83843035,31.6025656 C7.23085855,40.7864628 16.5277588,47.8826752 27.786891,47.8826752 C33.1076139,47.8826752 37.9868585,46.3025469 41.7944888,43.6594233 C41.979316,43.5923875 42.1909574,43.439163 42.4227095,43.2093261 C43.4272881,42.4623564 44.3495084,41.6387744 45.1884129,40.7385801 C47.725237,38.928615 50.1682111,38.3061402 51.7636618,38.3061402 C53.8015485,38.3061402 55.4525431,36.5919404 55.4525431,34.4755262" id="Fill-1" fill="#D3E5EF"></path>
            <path d="M44.2478056,24.0180457 C42.859208,22.3517286 41.2886563,21.0110137 40.5139146,20.3885389 C40.6671391,19.6224161 40.9065525,18.8658698 41.2407736,18.1284766 C42.3324986,15.7151898 44.2765352,13.9531073 46.5557505,13.0146069 C44.8319742,16.3472411 43.9988157,20.139549 44.2478056,24.0180457" id="Fill-3" fill="#D3E5EF"></path>
            <path d="M33.4957509,22.8537305 C33.4038161,22.8537305 33.3099661,22.8403234 33.2170737,22.8125514 C29.70057,21.7428525 25.6602299,21.7428525 22.1437262,22.8125514 C21.6361699,22.965776 21.1037145,22.6803952 20.9485746,22.1747542 C20.7953501,21.6691131 21.0807308,21.1337848 21.5863719,20.9796026 C25.4658262,19.8007312 29.8949737,19.8007312 33.774428,20.9796026 C34.2800691,21.1337848 34.5654498,21.6691131 34.4122253,22.1747542 C34.285815,22.5884605 33.9065842,22.8537305 33.4957509,22.8537305" id="Fill-5" fill="#4F5661"></path>
            <path d="M32.468859,11.4871496 L32.468859,11.4919378 C32.468859,14.1388921 30.3275458,16.2802053 27.6805915,16.2802053 C25.0384255,16.2802053 22.892324,14.1388921 22.892324,11.4919378 L22.892324,11.4612929 C22.892324,8.82774577 25.0470443,6.7036703 27.6805915,6.7036703 C30.3275458,6.7036703 32.468859,8.84019526 32.468859,11.4871496" id="Fill-7" fill="#53C27C"></path>
            <path d="M43.9607011,27.7719516 C42.9044092,27.7719516 42.045394,28.6309668 42.045394,29.6872586 C42.045394,30.7435505 42.9044092,31.6025656 43.9607011,31.6025656 C45.0169929,31.6025656 45.8760081,30.7435505 45.8760081,29.6872586 C45.8760081,28.6309668 45.0169929,27.7719516 43.9607011,27.7719516" id="Fill-9" fill="#4F5661"></path>
            <path d="M35.741161,55.5439033 C34.6762503,54.44739 34.1457103,53.6601988 33.853626,52.9524929 C36.1261377,52.4439789 38.2942653,51.6500841 40.279481,50.5995382 C40.1444518,52.4487671 40.4825035,54.3401328 40.7793761,55.5439033 L35.741161,55.5439033 Z M20.9004047,55.5439033 L15.5030695,55.5439033 C13.4335803,53.3259777 12.5487085,50.589004 12.16852,48.5894235 C14.5549926,50.4060922 17.4097576,51.8100122 20.5671413,52.6690274 C20.4713759,53.8153387 20.6504571,54.8026794 20.9004047,55.5439033 Z M55.3625237,31.3449569 C53.59278,31.3449569 51.5568087,30.5194595 49.7430129,29.0724451 C48.9586947,27.0278549 47.7482207,25.1144632 46.1403204,23.376322 C45.9746464,19.9393036 46.7388539,16.51665 48.3601613,13.4550317 L48.3563306,13.4531164 C48.4013404,13.3736312 48.4386888,13.2931883 48.4597572,13.2261525 C48.545946,12.9685438 48.5191317,12.6879513 48.3860179,12.4523685 C48.2519464,12.2167858 48.0259402,12.0482387 47.7625855,11.9888642 C45.8827116,11.5655814 43.9233526,11.6335748 42.098065,12.1842255 C39.5842245,12.9311953 37.2532959,15.0897463 35.8742749,17.0902844 C34.7892534,16.7551057 33.6755024,16.4898357 32.5368524,16.2944744 C32.0178042,16.2044549 31.520782,16.5549561 31.4317203,17.0759196 C31.3417008,17.5968831 31.6912444,18.09199 32.2131655,18.1810518 C33.6620953,18.4300417 35.0698459,18.8025689 36.421095,19.2928875 L39.1839254,20.4995309 C39.6598792,20.7102147 40.2105299,20.4985733 40.4317479,20.0331537 C40.6539235,19.5667764 40.4652658,19.0075068 40.0046344,18.7709663 C39.2749025,18.3955662 38.5250598,18.0555992 37.758937,17.7529807 C38.9368508,16.201582 40.7621384,14.579317 42.6477581,14.018132 C43.7873658,13.6743344 44.9509148,13.5584583 46.122125,13.6638002 C44.6626611,16.8527864 44.0181603,20.3463064 44.2489548,23.8426993 C44.2633196,24.0677479 44.3571696,24.280347 44.5132671,24.4412327 C46.1259556,26.1247876 47.310573,27.9883813 48.037432,29.9803006 C48.0948912,30.1392711 48.1944872,30.2800462 48.3256857,30.388261 C49.4834888,31.3487875 51.7167368,32.8934826 54.4048702,33.20472 L54.4048702,39.8067832 C54.4048702,41.305511 53.1857773,42.5246039 51.6870495,42.5246039 C50.6451225,42.5246039 47.8669697,42.7688055 44.5879641,45.0317407 C44.5372085,45.0690892 44.4883681,45.1093107 44.4443161,45.1543204 C43.6561672,45.9692835 42.7732107,46.7287027 41.8203455,47.4115097 C41.7839546,47.4373663 41.7475638,47.4660959 41.7150036,47.4986562 C41.5196423,47.6853986 41.4248346,47.7237047 41.4248346,47.7237047 C41.3549259,47.7495614 41.2888478,47.7830793 41.227558,47.8233007 C37.4582338,50.3323529 32.6881617,51.7132892 27.7964676,51.7132892 C25.7260207,51.7132892 23.7254825,51.4681299 21.8331592,51.0180328 C21.8312439,51.0180328 21.8302862,51.0161175 21.8283709,51.0161175 L21.8235827,51.0161175 C13.0936133,48.9399247 6.70223382,42.4364997 6.70223382,34.7532457 C6.70223382,26.9522002 13.2755675,20.1854206 22.6873861,18.2978855 C23.2064343,18.1944589 23.5425707,17.6897755 23.4381865,17.171685 C23.3338022,16.6516791 22.8272035,16.3126698 22.3119859,16.419927 C14.3452664,18.017293 8.25075953,22.8812152 5.87769415,29.028393 C5.71489305,28.8981521 5.51570112,28.8081327 5.29065255,28.8081327 C4.19126633,28.8081327 2.93482493,27.4329423 2.30373127,25.5396613 C1.7099861,23.7574681 1.62858555,21.2148981 3.35619247,19.9191929 C4.30331179,19.2095716 4.93057483,19.1157216 5.17764944,19.258412 C5.34236584,19.3503467 5.43334292,19.6165744 5.40365566,19.9211082 C5.36343422,20.350137 5.07613817,20.8892959 4.39428887,21.1181751 C3.89247843,21.2848068 3.62146249,21.8268387 3.78905186,22.3286491 C3.95664122,22.8304595 4.49388483,23.1014755 4.99952589,22.9338861 C6.300977,22.5010267 7.18680649,21.4150477 7.31130144,20.1021047 C7.41377037,19.0218716 6.95505434,18.0584721 6.11423456,17.5873066 C5.50708224,17.2473396 4.19222398,16.8987537 2.20700827,18.3869473 C0.114535359,19.9565414 -0.560610361,23.0028372 0.487062572,26.145856 C1.39970636,28.8837873 3.33033583,30.7234397 5.29065255,30.7234397 C5.30597501,30.7234397 5.31746685,30.7157785 5.3327893,30.7148208 C4.98707639,32.0220179 4.78692681,33.370394 4.78692681,34.7532457 C4.78692681,39.2819891 6.74149761,43.4410783 9.99368891,46.6971002 C10.1191415,48.6133648 10.8000332,53.5586875 14.4199634,57.1786178 C14.6000023,57.3586566 14.8432463,57.4592103 15.0970244,57.4592103 L22.4134972,57.4592103 C22.7745326,57.4592103 23.104923,57.2561877 23.2677241,56.9344161 C23.4314829,56.6126446 23.3989227,56.2276679 23.1863236,55.9355835 C23.1777047,55.923134 22.4077513,54.7959759 22.4565916,53.109548 C24.171749,53.4456844 25.9577728,53.6285962 27.7964676,53.6285962 C29.193684,53.6285962 30.5813239,53.5155931 31.9440649,53.3096976 C32.3683054,54.5613508 33.1717767,55.6942549 34.6666738,57.1805331 C34.845755,57.3596143 35.0880413,57.4592103 35.3418195,57.4592103 L42.045394,57.4592103 C42.3537585,57.4592103 42.6439275,57.310774 42.8239663,57.0589111 C43.0040052,56.8070482 43.0518879,56.484319 42.9513343,56.1931923 C42.5577387,55.0373046 41.7399026,51.658703 42.4236672,49.3488427 C42.609452,49.2406279 42.7961944,49.1094294 42.9886828,48.9293905 C43.9875154,48.2092351 44.9164393,47.4115097 45.7524708,46.5563251 C48.6330925,44.5931354 51.019565,44.4399109 51.6870495,44.4399109 C54.2420691,44.4399109 56.3201772,42.3618028 56.3201772,39.8067832 L56.3201772,32.3026104 C56.3201772,31.7739856 55.8921061,31.3449569 55.3625237,31.3449569 Z" id="Fill-11" fill="#4F5661"></path>
            <path d="M39.1724335,32.5602191 C38.6428511,32.5602191 38.21478,32.132148 38.21478,31.6025656 C38.21478,28.9402889 39.0718799,25.902612 39.6589215,24.1290377 C36.763935,24.8597273 34.1342184,27.4607142 34.1035735,27.4913592 C33.729131,27.8658017 33.123894,27.8658017 32.7494515,27.4913592 C32.375009,27.1169166 32.375009,26.5116796 32.7494515,26.1372371 C32.9170408,25.9686901 36.9085407,22.0260306 41.0877405,22.0260306 C41.4056815,22.0260306 41.7025541,22.1840434 41.8806776,22.4464405 C42.0588012,22.7097952 42.095192,23.0440163 41.9774007,23.3389736 C41.9582476,23.3849409 40.130087,28.0056191 40.130087,31.6025656 C40.130087,32.132148 39.7020159,32.5602191 39.1724335,32.5602191" id="Fill-13" fill="#4F5661"></path>
            <path d="M27.6805915,5.74592103 C27.1510091,5.74592103 26.722938,5.31784991 26.722938,4.78826752 L26.722938,0.957653504 C26.722938,0.428071116 27.1510091,0 27.6805915,0 C28.2101739,0 28.638245,0.428071116 28.638245,0.957653504 L28.638245,4.78826752 C28.638245,5.31784991 28.2101739,5.74592103 27.6805915,5.74592103" id="Fill-15" fill="#D3E5EF"></path>
            <path d="M23.8499775,6.70357453 C23.3203951,6.70357453 22.892324,6.27550341 22.892324,5.74592103 L22.892324,2.87296051 C22.892324,2.34337813 23.3203951,1.91530701 23.8499775,1.91530701 C24.3795599,1.91530701 24.807631,2.34337813 24.807631,2.87296051 L24.807631,5.74592103 C24.807631,6.27550341 24.3795599,6.70357453 23.8499775,6.70357453" id="Fill-17" fill="#D3E5EF"></path>
            <path d="M31.5112055,6.70357453 C30.9816231,6.70357453 30.553552,6.27550341 30.553552,5.74592103 L30.553552,2.87296051 C30.553552,2.34337813 30.9816231,1.91530701 31.5112055,1.91530701 C32.0407879,1.91530701 32.468859,2.34337813 32.468859,2.87296051 L32.468859,5.74592103 C32.468859,6.27550341 32.0407879,6.70357453 31.5112055,6.70357453" id="Fill-19" fill="#D3E5EF"></path>
        </g>
    </g>
</svg>