<?xml version="1.0" encoding="UTF-8"?>
<svg width="57px" height="58px" viewBox="0 0 57 58" version="1.1" xmlns="http://www.w3.org/2000/svg" xmlns:xlink="http://www.w3.org/1999/xlink">
    <!-- Generator: Sketch 49.3 (51167) - http://www.bohemiancoding.com/sketch -->
    <title>Icon/ Finished</title>
    <desc>Created with Sketch.</desc>
    <defs></defs>
    <g id="Icon/-Finished" stroke="none" stroke-width="1" fill="none" fill-rule="evenodd">
        <g id="Finished" transform="translate(-1.000000, -1.000000)">
            <path d="M17,18.3105 L17,28.2475 C13.573,27.7405 10.309,27.5715 7,28.5255 L7,18.5885 C10.309,17.6345 13.573,17.8035 17,18.3105" id="Fill-1" fill="#D3E5EF"></path>
            <path d="M29,11.1182 L29,20.1482 C24.634,19.7952 20.72,18.8572 17,18.3122 L17,9.2822 C20.711,9.8572 24.615,10.8152 29,11.1182" id="Fill-3" fill="#D3E5EF"></path>
            <path d="M29,30.0688 L29,38.9578 C24.615,38.6548 20.711,37.6958 17,37.1208 L17,28.2328 C20.72,28.7768 24.634,29.7158 29,30.0688" id="Fill-5" fill="#D3E5EF"></path>
            <path d="M41,19.1499 L41,29.2389 C36.588,30.3289 32.628,30.4399 29,30.1479 L29,20.0579 C32.628,20.3509 36.588,20.2399 41,19.1499" id="Fill-7" fill="#D3E5EF"></path>
            <path d="M50,15.7026 C46.778,17.3356 43.79,18.4176 41,19.0966 L41,9.9966 C43.439,9.3076 46.022,8.2946 48.785,6.8486 C49.343,6.5636 50,6.9666 50,7.6066 L50,15.7026 Z" id="Fill-9" fill="#D3E5EF"></path>
            <path d="M41,37.6128 L41,29.2408 C43.79,28.5628 46.778,27.4808 50,25.8468 L50,32.7828 C50,33.4118 49.658,34.0028 49.109,34.2978 C46.22,35.8318 43.529,36.8948 41,37.6128" id="Fill-11" fill="#D3E5EF"></path>
            <path d="M8,5 C8,3.34328475 6.65671525,2 5,2 C3.34328475,2 2,3.34328475 2,5 C2,6.65671525 3.34328475,8 5,8 C6.65671525,8 8,6.65671525 8,5 Z M10,5 C10,7.76128475 7.76128475,10 5,10 C2.23871525,10 0,7.76128475 0,5 C0,2.23871525 2.23871525,0 5,0 C7.76128475,0 10,2.23871525 10,5 Z" id="Stroke-13" fill="#4B5E69" fill-rule="nonzero"></path>
            <path d="M8,10.3288965 C10.5748901,9.70906873 13.2719091,9.73501429 16.8525081,10.2689633 C18.1187037,10.4573848 18.2813263,10.4860777 21.3298337,11.0381668 C29.7860154,12.5695934 34.6888815,12.775872 41.2491215,11.0883722 C44.0847137,10.3634852 46.9816402,9.26183705 49.9819025,7.74196732 C49.9859589,7.74033999 49.9919914,12.7796509 50,22.8599 C50,23.4121847 50.4477153,23.8599 51,23.8599 C51.5522847,23.8599 52,23.4121847 52,22.8599 L52,7.5199 C52,6.12401573 50.5223768,5.22986428 49.2865428,5.85862197 C49.2290985,5.89009261 49.206766,5.90046129 49.1360807,5.93075497 C46.2057846,7.41288591 43.4454647,8.46258502 40.7523258,9.15105663 C34.5354931,10.7502201 29.8819292,10.5544304 21.6862391,9.07017916 C18.6100737,8.51308116 18.4459432,8.48412226 17.2991987,8.31109277 C12.9715374,7.66810668 9.84333423,7.69403753 6.72144879,8.59947862 C6.29405807,8.72343484 6,9.11489666 6,9.5599 L6,37.3199 C6,37.9859381 6.63887398,38.4658471 7.27855121,38.2803214 C10.0772096,37.4686259 12.9250754,37.4450011 16.8529288,38.0290259 C18.0056351,38.1994533 18.2617206,38.2443888 21.3025368,38.7940414 C24.6445243,39.3981332 26.6309149,39.693846 28.9246995,39.8670609 C29.6754586,39.9314632 30.4032451,39.9699026 31.1161125,39.9798036 C31.6683439,39.9874734 32.1222337,39.546019 32.1299036,38.9937875 C32.1375734,38.4415561 31.696119,37.9876663 31.1438875,37.9799964 C30.480976,37.9707893 29.8005353,37.9348506 29.0854011,37.8735534 C26.8680073,37.7060556 24.9369381,37.4185785 21.6582882,36.8259355 C18.5884042,36.2710286 18.3293816,36.2255777 17.1462595,36.0506537 C13.5301726,35.5129845 10.712498,35.4590115 8,36.0377646 L8,10.3288965 Z" id="Stroke-15" fill="#4B5E69" fill-rule="nonzero"></path>
            <path d="M4,58 L4,8.46 C4,7.90771525 3.55228475,7.46 3,7.46 C2.44771525,7.46 2,7.90771525 2,8.46 L2,59 C2,59.5522847 2.44771525,60 3,60 L7,60 C7.55228475,60 8,59.5522847 8,59 L8,8.46 C8,7.90771525 7.55228475,7.46 7,7.46 C6.44771525,7.46 6,7.90771525 6,8.46 L6,58 L4,58 Z" id="Stroke-17" fill="#4B5E69" fill-rule="nonzero"></path>
            <path d="M58,37 C58,43.627 52.627,49 46,49 C39.373,49 34,43.627 34,37 C34,30.373 39.373,25 46,25 C52.627,25 58,30.373 58,37" id="Fill-19" fill="#5BBF89"></path>
            <polygon id="Fill-21" fill="#FFFFFF" points="52.4927 33.856 51.0937 32.5 44.6247 39.115 41.4127 36.091 40.1097 37.54 44.1757 41.331 44.1797 41.326 44.7027 41.834"></polygon>
            <polygon id="Stroke-23" stroke="#FFFFFF" stroke-linejoin="round" points="52.4927 33.856 51.0937 32.5 44.6247 39.115 41.4127 36.091 40.1097 37.54 44.1757 41.331 44.1797 41.326 44.7027 41.834"></polygon>
        </g>
    </g>
</svg>