<?xml version="1.0" encoding="UTF-8"?>
<svg width="58px" height="47px" viewBox="0 0 58 47" version="1.1" xmlns="http://www.w3.org/2000/svg" xmlns:xlink="http://www.w3.org/1999/xlink">
    <!-- Generator: Sketch 49.3 (51167) - http://www.bohemiancoding.com/sketch -->
    <title>Icon/ Find your cost basis</title>
    <desc>Created with Sketch.</desc>
    <defs>
        <polygon id="path-1" points="0 46.9993 58 46.9993 58 0.0003 0 0.0003"></polygon>
    </defs>
    <g id="Icon/-Find-your-cost-basis" stroke="none" stroke-width="1" fill="none" fill-rule="evenodd">
        <g id="Page-1">
            <path d="M13,31.9993 C13.553,31.9993 14,32.4463 14,32.9993 L14,45.9993 C14,46.5523 13.553,46.9993 13,46.9993 L5,46.9993 C4.447,46.9993 4,46.5523 4,45.9993 L4,32.9993 C4,32.4463 4.447,31.9993 5,31.9993 L13,31.9993 Z" id="Fill-1" fill="#53C27C"></path>
            <mask id="mask-2" fill="white">
                <use xlink:href="#path-1"></use>
            </mask>
            <g id="Clip-4"></g>
            <path d="M45,44.9993 L51,44.9993 L51,6.9993 L45,6.9993 L45,44.9993 Z M32,44.9993 L38,44.9993 L38,16.9993 L32,16.9993 L32,44.9993 Z M19,44.9993 L25,44.9993 L25,25.9993 L19,25.9993 L19,44.9993 Z M57,44.9993 L53,44.9993 L53,5.9993 C53,5.4463 52.553,4.9993 52,4.9993 L44,4.9993 C43.447,4.9993 43,5.4463 43,5.9993 L43,44.9993 L40,44.9993 L40,15.9993 C40,15.4463 39.553,14.9993 39,14.9993 L31,14.9993 C30.447,14.9993 30,15.4463 30,15.9993 L30,44.9993 L27,44.9993 L27,24.9993 C27,24.4463 26.553,23.9993 26,23.9993 L18,23.9993 C17.447,23.9993 17,24.4463 17,24.9993 L17,44.9993 L1,44.9993 C0.447,44.9993 0,45.4463 0,45.9993 C0,46.5523 0.447,46.9993 1,46.9993 L18,46.9993 L26,46.9993 L31,46.9993 L39,46.9993 L44,46.9993 L52,46.9993 L57,46.9993 C57.553,46.9993 58,46.5523 58,45.9993 C58,45.4463 57.553,44.9993 57,44.9993 Z" id="Fill-3" fill="#4F5661" mask="url(#mask-2)"></path>
            <path d="M19.9072,0.5784 C19.6882,0.1064 19.1432,-0.1156 18.6582,0.0594 C9.0642,3.5484 6.0182,10.6264 5.2462,12.9994 L1.0002,12.9994 C0.6062,12.9994 0.2492,13.2304 0.0882,13.5904 C-0.0728,13.9484 -0.0088,14.3694 0.2532,14.6634 L8.2532,23.6634 C8.4422,23.8774 8.7152,23.9994 9.0002,23.9994 C9.2852,23.9994 9.5572,23.8774 9.7472,23.6634 L17.7472,14.6634 C18.0092,14.3694 18.0732,13.9484 17.9122,13.5904 C17.7512,13.2304 17.3932,12.9994 17.0002,12.9994 L13.0312,12.9994 C13.5042,5.4194 19.2442,2.0134 19.4962,1.8674 C19.9472,1.6094 20.1262,1.0504 19.9072,0.5784" id="Fill-5" fill="#D3E5EF" mask="url(#mask-2)"></path>
        </g>
    </g>
</svg>