<?xml version="1.0" encoding="UTF-8"?>
<svg width="58px" height="48px" viewBox="0 0 58 48" version="1.1" xmlns="http://www.w3.org/2000/svg" xmlns:xlink="http://www.w3.org/1999/xlink">
    <!-- Generator: Sketch 49.3 (51167) - http://www.bohemiancoding.com/sketch -->
    <title>Icon/ Folder</title>
    <desc>Created with Sketch.</desc>
    <defs></defs>
    <g id="Icon/-Folder" stroke="none" stroke-width="1" fill="none" fill-rule="evenodd">
        <g id="Folder" transform="translate(-1.000000, -1.000000)">
            <path d="M2.0001,2 L12.8601,2 C13.8645746,2 14.8028658,2.50192432 15.3580497,3.3347002 L16.9770006,5.77312335 C17.9042459,7.16399446 19.4670644,8 21.1401,8 L50.0001,8 L50.0001,10 C50.0001,10.5522847 50.4478153,11 51.0001,11 C51.5523847,11 52.0001,10.5522847 52.0001,10 L52.0001,7 C52.0001,6.44771525 51.5523847,6 51.0001,6 L21.1401,6 C20.1356254,6 19.1973342,5.49807568 18.6421503,4.6652998 L17.0231994,2.22687665 C16.0959541,0.83600554 14.5331356,0 12.8601,0 L1.0001,0 C0.44781525,0 9.99999993e-05,0.44771525 9.99999993e-05,1 L9.99999993e-05,49 C9.99999993e-05,49.5522847 0.44781525,50 1.0001,50 L11.6201,50 C12.1723847,50 12.6201,49.5522847 12.6201,49 C12.6201,48.4477153 12.1723847,48 11.6201,48 L2.0001,48 L2.0001,2 Z" id="Stroke-1" fill="#4B5E69" fill-rule="nonzero"></path>
            <path d="M50.1036665,48 C50.6716457,43.0246119 51.6245423,37.9577436 53.0354031,32.7962713 C54.2563934,28.3304575 55.7519062,24.0722103 57.4778681,19.9999992 L11.6567249,20 C10.290682,23.1751323 9.05340195,26.3739865 7.94693521,29.6314245 C5.85264767,35.8013172 4.29064489,41.9270993 3.19159059,48 L50.1036665,48 Z M1.01437775,48.8310362 C2.13835668,42.2744924 3.78967378,35.6566569 6.05313319,28.988374 C7.2479307,25.4708902 8.5921759,22.0225 10.0832501,18.6005384 C10.24217,18.2358229 10.6021646,18 11,18 L59,18 C59.7225592,18 60.2066191,18.7427801 59.9148434,19.4038087 C57.9696181,23.8107881 56.2995465,28.441105 54.9646125,33.3236717 C53.4984622,38.687414 52.5368957,43.9464434 51.9945171,49.1045737 C51.9409962,49.6135689 51.5118013,50 51,50 L2,50 C1.38018489,50 0.90965142,49.4419397 1.01437775,48.8310362 Z" id="Stroke-3" fill="#4B5E69" fill-rule="nonzero"></path>
            <path d="M24.1001,34 C24.3721,32.413 24.7901,30.643 25.4331,28.749 C25.7671,27.768 26.1291,26.851 26.5001,26 L40.9001,26 C40.4281,27.069 39.9561,28.325 39.5671,29.749 C39.1371,31.32 38.8971,32.758 38.7671,34 L24.1001,34 Z" id="Fill-5" fill="#F4877A"></path>
            <path d="M37.8811977,33 C38.0403489,31.8467457 38.2768828,30.6749212 38.6024457,29.4854814 C38.8362165,28.6297239 39.1068497,27.8018856 39.4101708,27 L27.1614767,27 C26.8792826,27.680804 26.6185207,28.3699638 26.3800189,29.0704725 C25.9326208,30.388314 25.5786345,31.6978976 25.3074996,33 L37.8811977,33 Z M23.1144718,33.8310707 C23.420868,32.0433845 23.8699673,30.2426268 24.4864626,28.4266994 C24.8138867,27.4650137 25.1801199,26.525468 25.5834243,25.6003682 C25.742385,25.2357439 26.102332,25 26.5001,25 L40.9001,25 C41.6227089,25 42.1067688,25.7428737 41.8148969,26.4039141 C41.3104167,27.5464764 40.8774635,28.7469919 40.5316226,30.0130004 C40.1508678,31.4040836 39.9014956,32.7681972 39.7616667,34.1041012 C39.7083687,34.6133025 39.279083,35 38.7671,35 L24.1001,35 C23.4802991,35 23.0097693,34.4419639 23.1144718,33.8310707 Z" id="Stroke-7" fill="#F4877A" fill-rule="nonzero"></path>
            <path d="M55,13 L55,19 L11,19 C9.61,22.19 8.25,25.63 7,29.31 C6.25,31.51 5.58,33.68 5,35.78 L5,13 L55,13 Z" id="Fill-9" fill="#D3E5EF"></path>
            <path d="M54,14 L6,14 L6,29.1445728 C6.01766853,29.0925175 6.03537965,29.0404511 6.05313319,28.988374 C7.2479307,25.4708902 8.5921759,22.0225 10.0832501,18.6005384 C10.24217,18.2358229 10.6021646,18 11,18 L54,18 L54,14 Z M11.6567249,20 C10.2906806,23.1751365 9.05337676,26.3740605 7.94651019,29.6326739 C7.20594711,31.8049923 6.54108645,33.9564515 5.96391142,36.0462232 C5.65381878,37.1689724 4,36.9447847 4,35.78 L4,13 C4,12.4477153 4.44771525,12 5,12 L55,12 C55.5522847,12 56,12.4477153 56,13 L56,19 C56,19.5522847 55.5522847,20 55,20 L11.6567249,20 Z" id="Stroke-11" fill="#4B5E69" fill-rule="nonzero"></path>
            <path d="M29,31 L36,31 C36.5522847,31 37,30.5522847 37,30 C37,29.4477153 36.5522847,29 36,29 L29,29 C28.4477153,29 28,29.4477153 28,30 C28,30.5522847 28.4477153,31 29,31 Z" id="Stroke-13" fill="#FFFFFF" fill-rule="nonzero"></path>
        </g>
    </g>
</svg>