<?xml version="1.0" encoding="UTF-8"?>
<svg width="48px" height="60px" viewBox="0 0 48 60" version="1.1" xmlns="http://www.w3.org/2000/svg" xmlns:xlink="http://www.w3.org/1999/xlink">
    <!-- Generator: Sketch 49.3 (51167) - http://www.bohemiancoding.com/sketch -->
    <title>Icon/ Form Template</title>
    <desc>Created with Sketch.</desc>
    <defs></defs>
    <g id="Icon/-Form-Template" stroke="none" stroke-width="1" fill="none" fill-rule="evenodd">
        <g id="Page-1">
            <path d="M2,58 L2,2 L36,2 L36,12 C36,12.553 36.447,13 37,13 L46,13 L46,58 L2,58 Z M38,3.477 L45.523,11 L38,11 L38,3.477 Z M47.707,10.355 L37.838,0.486 C37.662,0.2 37.36,0 37,0 C36.989,0 36.979,0.006 36.969,0.007 C36.958,0.006 36.948,0 36.938,0 L1,0 C0.447,0 0,0.447 0,1 L0,59 C0,59.553 0.447,60 1,60 L47,60 C47.553,60 48,59.553 48,59 L48,11.062 C48,10.797 47.895,10.543 47.707,10.355 Z" id="Fill-1" fill="#4F5661"></path>
            <path d="M34,28 L10,28 C9.447,28 9,27.553 9,27 C9,26.447 9.447,26 10,26 L34,26 C34.553,26 35,26.447 35,27 C35,27.553 34.553,28 34,28" id="Fill-3" fill="#4F5661"></path>
            <path d="M35,42 L10,42 C9.447,42 9,41.553 9,41 C9,40.447 9.447,40 10,40 L35,40 C35.553,40 36,40.447 36,41 C36,41.553 35.553,42 35,42" id="Fill-5" fill="#4F5661"></path>
            <path d="M38,35 L10,35 C9.447,35 9,34.553 9,34 C9,33.447 9.447,33 10,33 L38,33 C38.553,33 39,33.447 39,34 C39,34.553 38.553,35 38,35" id="Fill-7" fill="#4F5661"></path>
            <path d="M29,49 L10,49 C9.447,49 9,48.553 9,48 C9,47.447 9.447,47 10,47 L29,47 C29.553,47 30,47.447 30,48 C30,48.553 29.553,49 29,49" id="Fill-9" fill="#4F5661"></path>
            <path d="M22,12 L10,12 C9.447,12 9,12.447 9,13 L9,20 C9,20.553 9.447,21 10,21 L22,21 C22.553,21 23,20.553 23,20 L23,13 C23,12.447 22.553,12 22,12" id="Fill-11" fill="#D3E5EF"></path>
        </g>
    </g>
</svg>