<?xml version="1.0" encoding="UTF-8"?>
<svg width="60px" height="61px" viewBox="0 0 60 61" version="1.1" xmlns="http://www.w3.org/2000/svg" xmlns:xlink="http://www.w3.org/1999/xlink">
    <!-- Generator: Sketch 49.3 (51167) - http://www.bohemiancoding.com/sketch -->
    <title>Icon/ Gambling</title>
    <desc>Created with Sketch.</desc>
    <defs>
        <polygon id="path-1" points="0.000175313355 0.206 11.7208247 0.206 11.7208247 11.9268311 0.000175313355 11.9268311 0.000175313355 0.206"></polygon>
        <polygon id="path-3" points="-0.00028195891 0.206 8.79468196 0.206 8.79468196 8.99989351 -0.00028195891 8.99989351 -0.00028195891 0.206"></polygon>
        <polygon id="path-5" points="8.794 0.205036461 8.794 8.99989351 -0.00028195891 8.99989351 -0.00028195891 0.205036461 8.794 0.205036461"></polygon>
        <polygon id="path-7" points="9.99961288 10 0.000305789988 10 0.000305789988 0.000205789988 9.99961288 0.000205789988 9.99961288 10"></polygon>
    </defs>
    <g id="Icon/-Gambling" stroke="none" stroke-width="1" fill="none" fill-rule="evenodd">
        <g id="Gambling">
            <g id="Group-3" transform="translate(48.000000, 0.794400)">
                <mask id="mask-2" fill="white">
                    <use xlink:href="#path-1"></use>
                </mask>
                <g id="Clip-2"></g>
                <path d="M6.7955,0.8511 L7.7955,3.5511 C7.8975,3.8181 8.1085,4.0301 8.3755,4.1311 L11.0755,5.1311 C11.5915,5.3271 11.8515,5.9041 11.6555,6.4211 C11.5545,6.6881 11.3435,6.9001 11.0755,7.0011 L8.3755,8.0011 C8.1085,8.1021 7.8975,8.3141 7.7955,8.5811 L6.7955,11.2811 C6.5995,11.7971 6.0225,12.0581 5.5055,11.8611 C5.2385,11.7601 5.0265,11.5491 4.9255,11.2811 L3.9255,8.5811 C3.8245,8.3141 3.6125,8.1021 3.3455,8.0011 L0.6455,7.0011 C0.1295,6.8051 -0.1305,6.2281 0.0655,5.7111 C0.1665,5.4441 0.3785,5.2331 0.6455,5.1311 L3.3455,4.1311 C3.6125,4.0301 3.8245,3.8181 3.9255,3.5511 L4.9255,0.8511 C5.1215,0.3351 5.6985,0.0751 6.2155,0.2711 C6.4835,0.3721 6.6935,0.5831 6.7955,0.8511" id="Fill-1" fill="#D3E5EF" mask="url(#mask-2)"></path>
            </g>
            <g id="Group-6" transform="translate(2.000000, 0.794400)">
                <mask id="mask-4" fill="white">
                    <use xlink:href="#path-3"></use>
                </mask>
                <g id="Clip-5"></g>
                <path d="M5.0987,0.6899 L5.8487,2.7159 C5.9257,2.9169 6.0837,3.0749 6.2847,3.1509 L8.3097,3.9009 C8.6977,4.0479 8.8927,4.4819 8.7457,4.8689 C8.6697,5.0699 8.5107,5.2279 8.3097,5.3039 L6.2847,6.0549 C6.0837,6.1309 5.9257,6.2889 5.8487,6.4899 L5.0987,8.5159 C4.9517,8.9029 4.5187,9.0979 4.1307,8.9509 C3.9307,8.8749 3.7717,8.7159 3.6957,8.5159 L2.9457,6.4899 C2.8697,6.2889 2.7107,6.1309 2.5107,6.0549 L0.4847,5.3039 C0.0967,5.1569 -0.0983,4.7239 0.0487,4.3369 C0.1247,4.1359 0.2837,3.9779 0.4847,3.9009 L2.5107,3.1509 C2.7107,3.0749 2.8697,2.9169 2.9457,2.7159 L3.6957,0.6899 C3.8427,0.3029 4.2757,0.1069 4.6627,0.2539 C4.8647,0.3309 5.0227,0.4889 5.0987,0.6899" id="Fill-4" fill="#D3E5EF" mask="url(#mask-4)"></path>
            </g>
            <g id="Group-9" transform="translate(51.000000, 50.794400)">
                <mask id="mask-6" fill="white">
                    <use xlink:href="#path-5"></use>
                </mask>
                <g id="Clip-8"></g>
                <path d="M5.0987,0.6899 L5.8487,2.7159 C5.9257,2.9169 6.0837,3.0749 6.2847,3.1509 L8.3097,3.9009 C8.6977,4.0479 8.8927,4.4819 8.7457,4.8689 C8.6697,5.0699 8.5107,5.2279 8.3097,5.3039 L6.2847,6.0549 C6.0837,6.1309 5.9257,6.2889 5.8487,6.4899 L5.0987,8.5159 C4.9517,8.9029 4.5187,9.0979 4.1307,8.9509 C3.9307,8.8749 3.7717,8.7159 3.6957,8.5159 L2.9457,6.4899 C2.8697,6.2889 2.7107,6.1309 2.5107,6.0549 L0.4847,5.3039 C0.0967,5.1569 -0.0983,4.7239 0.0487,4.3369 C0.1247,4.1359 0.2837,3.9779 0.4847,3.9009 L2.5107,3.1509 C2.7107,3.0749 2.8697,2.9169 2.9457,2.7159 L3.6957,0.6899 C3.8427,0.3029 4.2757,0.1069 4.6627,0.2539 C4.8647,0.3309 5.0227,0.4889 5.0987,0.6899" id="Fill-7" fill="#D3E5EF" mask="url(#mask-6)"></path>
            </g>
            <g id="Group-12" transform="translate(0.000000, 50.794400)">
                <mask id="mask-8" fill="white">
                    <use xlink:href="#path-7"></use>
                </mask>
                <g id="Clip-11"></g>
                <path d="M5.7979,0.5508 L6.6509,2.8548 C6.7369,3.0828 6.9179,3.2628 7.1459,3.3488 L9.4489,4.2018 C9.8899,4.3698 10.1109,4.8618 9.9439,5.3028 C9.8579,5.5308 9.6769,5.7108 9.4489,5.7978 L7.1459,6.6508 C6.9179,6.7378 6.7369,6.9178 6.6509,7.1458 L5.7979,9.4488 C5.6309,9.8898 5.1379,10.1118 4.6969,9.9448 C4.4689,9.8578 4.2889,9.6768 4.2019,9.4488 L3.3489,7.1458 C3.2629,6.9178 3.0829,6.7378 2.8549,6.6508 L0.5509,5.7978 C0.1109,5.6308 -0.1111,5.1378 0.0559,4.6968 C0.1419,4.4688 0.3219,4.2888 0.5509,4.2018 L2.8549,3.3488 C3.0829,3.2628 3.2629,3.0828 3.3489,2.8548 L4.2019,0.5508 C4.3689,0.1108 4.8619,-0.1112 5.3029,0.0558 C5.5309,0.1418 5.7109,0.3228 5.7979,0.5508" id="Fill-10" fill="#D3E5EF" mask="url(#mask-8)"></path>
            </g>
            <path d="M24.3721,15.5141 L23.0421,7.7851 C19.4321,8.8241 16.1721,10.6541 13.4421,13.0741 L19.7321,17.9641 C21.1321,16.9141 22.6921,16.0841 24.3721,15.5141 Z M12.8521,48.4841 C11.1121,46.8441 9.5821,44.9241 8.3321,42.7441 C8.3021,42.6841 8.2721,42.6241 8.2421,42.5641 L8.1221,42.3841 C7.0421,40.4941 6.2321,38.5141 5.6921,36.5041 L12.8621,33.5841 C12.8021,32.9941 12.7721,32.4041 12.7721,31.7941 C12.7721,30.2641 12.9721,28.7741 13.3521,27.3641 L6.0521,24.6541 C5.3721,26.9141 5.0121,29.3141 5.0121,31.7941 C5.0121,43.6841 13.3021,53.6241 24.4221,56.1541 L25.4821,48.4341 C22.6421,47.6641 20.0921,46.1741 18.0321,44.1841 L12.8521,48.4841 Z M46.3921,12.6941 C43.5821,10.2851 40.2321,8.5041 36.5421,7.5541 L35.4721,15.4441 C37.1721,16.0041 38.7521,16.8341 40.1721,17.8741 L46.3921,12.6941 Z M55.0121,31.3741 C55.0121,28.8741 54.6421,26.4641 53.9521,24.1941 L46.6221,27.1941 C47.0321,28.6541 47.2521,30.2041 47.2521,31.7941 C47.2521,32.3341 47.2321,32.8641 47.1721,33.3841 L54.3521,36.0351 C53.8021,38.3541 52.9021,40.6441 51.6521,42.8141 C51.6121,42.8741 51.5721,42.9341 51.5421,42.9941 C51.5021,43.0541 51.4721,43.1141 51.4421,43.1741 C50.3521,45.0641 49.0421,46.7541 47.5721,48.2241 L42.1521,44.0241 C40.5621,45.6041 38.6721,46.8741 36.5721,47.7341 L37.9021,55.5141 C47.8421,52.2141 55.0121,42.8441 55.0121,31.7941 C55.0121,31.7241 55.0121,31.6541 55.0021,31.5841 C55.0121,31.5141 55.0121,31.4441 55.0121,31.3741 Z" id="Fill-13" fill="#D3E5EF"></path>
            <path d="M23.3193298,8.74531896 C19.900534,9.7302352 16.7628231,11.4674437 14.1048396,13.8236038 C10.7540644,16.7858833 8.2828472,20.6398937 7.01009273,24.9425252 C6.35064208,27.1342289 6.0125,29.4384256 6.0125,31.7944 C6.0125,43.0525443 13.8163095,52.7157452 24.6497296,55.1805588 C26.3940239,55.5875608 28.1882338,55.7944 30.0125,55.7944 C32.6183927,55.7944 35.162963,55.3767428 37.5874182,54.5653355 C47.3162816,51.3354311 54.0125,42.2094894 54.0125,31.7944 C53.9991498,31.6320166 53.9991498,31.5367834 54.0125505,31.4429786 C54.0125,29.0087681 53.6675512,26.6954398 52.9964931,24.4877443 C51.6766265,20.1863085 49.1465857,16.3541136 45.7414862,13.4534659 C43.0119063,11.1124383 39.7893409,9.42316078 36.2987943,8.52424923 C34.3827638,8.04278517 32.4149745,7.7944 30.4325,7.7944 C30.2722982,7.80743852 30.1793122,7.80774292 30.0876256,7.7952627 C27.7076363,7.7944 25.4615555,8.11526868 23.3193298,8.74531896 Z M56.0125,31.7944 C56.0125,43.0776755 48.7583307,52.9640207 38.2198747,56.4627002 C35.593859,57.3415684 32.8349888,57.7944 30.0125,57.7944 C28.0351383,57.7944 26.0884478,57.5699826 24.2006515,57.1294811 C12.4669147,54.459845 4.0125,43.991021 4.0125,31.7944 C4.0125,29.2435172 4.37913404,26.7451681 5.09357385,24.3707441 C6.47202994,19.7107396 9.14972954,15.5347076 12.7791576,12.326084 C15.6575559,9.77453679 19.0589266,7.89135177 22.7603337,6.8250345 C25.0812223,6.14242021 27.5173637,5.7944 30.0125,5.7944 C30.1036208,5.7944 30.1488563,5.79511802 30.2158645,5.79937251 C30.2801137,5.79535383 30.3438067,5.7944 30.4325,5.7944 C32.5809963,5.7944 34.7123749,6.0634343 36.7918857,6.58599577 C40.5859259,7.56304596 44.0829278,9.39618384 47.0409665,11.9331568 C50.7324023,15.0777132 53.4764883,19.2341174 54.9092759,23.9035738 C55.6383269,26.302046 56.0125,28.8113605 56.0125,31.3744 C56.0125,31.4611745 56.011587,31.5240187 56.0076026,31.5844 C56.011587,31.6447813 56.0125,31.7076255 56.0125,31.7944 Z" id="Stroke-15" fill="#4B5E69" fill-rule="nonzero"></path>
            <path d="M30.0123,43.7256 C36.5900153,43.7256 41.9433,38.3723153 41.9433,31.7946 C41.9433,25.2162419 36.5903724,19.8636 30.0123,19.8636 C23.4342276,19.8636 18.0813,25.2162419 18.0813,31.7946 C18.0813,38.3723153 23.4345847,43.7256 30.0123,43.7256 Z M30.0123,45.7256 C22.3300153,45.7256 16.0813,39.4768847 16.0813,31.7946 C16.0813,24.1116485 22.329682,17.8636 30.0123,17.8636 C37.694918,17.8636 43.9433,24.1116485 43.9433,31.7946 C43.9433,39.4768847 37.6945847,45.7256 30.0123,45.7256 Z" id="Stroke-17" fill="#4B5E69" fill-rule="nonzero"></path>
            <path d="M33.2989,38.6909 C30.9709,36.9259 30.7439,33.5239 30.7439,33.5239 L32.1079,34.9829 C33.3999,36.2989 35.4999,36.2989 36.7979,34.9829 C38.0949,33.6609 38.0949,31.5209 36.7979,30.2049 L35.8079,29.1559 L30.0009,23.2599 L24.2079,29.1559 L23.2249,30.2049 C21.9329,31.5209 21.9269,33.6609 23.2249,34.9829 C24.5219,36.2989 26.6229,36.2989 27.9139,34.9829 L29.2779,33.5239 C29.2779,33.5239 29.0509,36.9259 26.7229,38.6909 L33.2989,38.6909 Z" id="Fill-19" fill="#5BBF89"></path>
            <path d="M30.0123,48.0356 C38.9670153,48.0356 46.2533,40.7493153 46.2533,31.7946 C46.2533,22.8398847 38.9670153,15.5536 30.0123,15.5536 C21.0575847,15.5536 13.7713,22.8398847 13.7713,31.7946 C13.7713,40.7493153 21.0575847,48.0356 30.0123,48.0356 Z M30.0123,50.0356 C19.9530153,50.0356 11.7713,41.8538847 11.7713,31.7946 C11.7713,21.7353153 19.9530153,13.5536 30.0123,13.5536 C40.0715847,13.5536 48.2533,21.7353153 48.2533,31.7946 C48.2533,41.8538847 40.0715847,50.0356 30.0123,50.0356 Z" id="Stroke-21" fill="#4B5E69" fill-rule="nonzero"></path>
        </g>
    </g>
</svg>