<?xml version="1.0" encoding="UTF-8"?>
<svg width="59px" height="59px" viewBox="0 0 59 59" version="1.1" xmlns="http://www.w3.org/2000/svg" xmlns:xlink="http://www.w3.org/1999/xlink">
    <!-- Generator: Sketch 49.3 (51167) - http://www.bohemiancoding.com/sketch -->
    <title>Icon/ Get help paying</title>
    <desc>Created with Sketch.</desc>
    <defs>
        <polygon id="path-1" points="0.000176724413 36.7509349 58.1951055 36.7509349 58.1951055 0.110518384 0.000176724413 0.110518384"></polygon>
    </defs>
    <g id="Icon/-Get-help-paying" stroke="none" stroke-width="1" fill="none" fill-rule="evenodd">
        <g id="Get-help-paying" transform="translate(0.000000, 0.500000)">
            <path d="M17.5757478,11.6055584 C17.5757478,5.19638877 22.7721366,0 29.1813062,0 C35.5904758,0 40.7868646,5.19638877 40.7868646,11.6055584 C40.7868646,18.014728 35.5904758,23.2111168 29.1813062,23.2111168 C22.7721366,23.2111168 17.5757478,18.014728 17.5757478,11.6055584" id="Fill-1" fill="#53C27C"></path>
            <path d="M33.6570865,14.2170025 C33.6570865,12.1376733 31.4762086,11.2024587 29.587404,10.5738243 C28.0100152,10.0419028 27.2904706,9.52545548 27.2904706,8.7681928 C27.2904706,8.25271258 27.8929925,7.64051937 29.0032576,7.64051937 C30.0738703,7.64051937 31.5545462,8.44613855 31.7102541,8.52641033 C31.9442995,8.65600573 32.2354056,8.52641033 32.3911135,8.33395149 L33.131935,7.41517811 C33.2683003,7.25366743 33.2093054,6.97996967 33.0149123,6.88325669 C32.6967265,6.68499507 31.6154753,6.09504585 30.1483393,5.88421154 L30.1483393,4.35227783 C30.1483393,4.08438285 29.9317022,3.86871289 29.6647744,3.86871289 L28.6976445,3.86871289 C28.4307167,3.86871289 28.2140796,4.08438285 28.2140796,4.35227783 L28.2140796,5.86486894 C25.7788466,6.15887642 24.739182,7.61440687 24.739182,8.8977882 C24.739182,10.8001326 26.5699588,11.7672625 28.3997685,12.3794557 C30.0361523,12.9278184 30.8727196,13.4916551 30.8727196,14.3137155 C30.8727196,15.0061804 30.1135227,15.5545431 29.1009377,15.5545431 C27.8349647,15.5545431 26.258543,14.6028873 26.1608629,14.5554979 C25.9848453,14.4423437 25.655054,14.4423437 25.4983789,14.6686521 L24.7981769,15.6676973 C24.6221593,15.9259209 24.7198394,16.0061927 24.8948899,16.1512622 C25.2295168,16.4143215 26.347519,17.1512745 28.2140796,17.3534046 L28.2140796,18.8592258 C28.2140796,19.1261537 28.4307167,19.3427908 28.6976445,19.3427908 L29.6647744,19.3427908 C29.9317022,19.3427908 30.1483393,19.1261537 30.1483393,18.8592258 L30.1483393,17.3398648 C32.3253487,17.0265147 33.6570865,15.6725329 33.6570865,14.2170025" id="Fill-3" fill="#FFFFFF"></path>
            <path d="M9.10862251,43.716301 L13.6415602,28.7422292 C13.8669015,27.9965721 13.4993921,27.1996571 12.7856503,26.8882413 L6.34843387,24.2644179 L0.967323293,42.7143544 L7.16565861,44.7346887 C7.98481761,44.9967809 8.85910301,44.5383613 9.10862251,43.716301" id="Fill-5" fill="#D3E5EF"></path>
            <path d="M57.2280723,41.1238126 L51.6361274,21.9514302 L44.9474573,24.6777692 C44.2056687,25.0027249 43.8246195,25.830588 44.0586649,26.6042919 L48.7685874,42.1644444 C49.0277782,43.0193872 49.9368803,43.4961822 50.7869874,43.2234516 L57.2280723,41.1238126 Z" id="Fill-7" fill="#D3E5EF"></path>
            <g id="Group-11" transform="translate(0.000000, 20.872597)">
                <mask id="mask-2" fill="white">
                    <use xlink:href="#path-1"></use>
                </mask>
                <g id="Clip-10"></g>
                <path d="M50.4912391,21.429857 C50.3297284,21.482082 50.1575793,21.4656408 50.0047728,21.3873033 C49.8539005,21.3079987 49.7436477,21.1745347 49.6943241,21.0110898 L44.9844016,5.45190449 C44.8915572,5.14629145 45.0424294,4.81940155 45.3132258,4.70044458 L51.0076864,2.3793329 L56.0367618,19.6222913 L50.4912391,21.429857 Z M23.2162426,17.5178167 L24.9377338,18.3572854 C25.5547626,18.6590299 26.2075753,18.8021652 26.8516838,18.8021652 C28.2298438,18.8021652 29.5654502,18.1406483 30.4039518,16.9327031 L32.5113277,13.8988167 C34.0945193,15.88917 35.5326414,17.16288 36.6245311,18.1251743 L37.0848849,18.5323359 C39.4301748,20.6368105 42.045294,22.472423 44.8577076,23.9879155 C44.9602234,24.0594831 45.0675748,24.1339521 45.1517151,24.2132568 C45.4534596,24.5062971 45.619806,24.8950833 45.619806,25.3080478 C45.619806,25.7210122 45.4534596,26.1097984 45.1517151,26.4038059 C44.5269492,27.0082621 43.5250027,27.0276047 42.8547817,26.4405569 C42.8460775,26.4279842 42.8364062,26.4163786 42.827702,26.4067073 C42.5201547,26.0682119 42.0162801,25.9937429 41.6236253,26.2229526 C41.2290364,26.4540967 41.0501173,26.9299246 41.1942197,27.3641659 C41.3789415,27.9173642 41.2309706,28.5169847 40.8083349,28.9280149 C40.1787333,29.5402081 39.1603456,29.5527808 38.5191385,28.9715357 C38.2589805,28.6504486 37.8111994,28.5237546 37.4098405,28.6852653 C36.9349798,28.8748227 36.6902959,29.3999742 36.8508395,29.8845063 C37.0355613,30.4464088 36.8895246,31.0508649 36.467856,31.460928 C35.8334188,32.0769897 34.8092283,32.086661 34.1747911,31.5034817 C34.1428758,31.4657636 34.1090263,31.4299798 34.077111,31.4009659 C33.749254,31.1040571 33.265689,31.066339 32.8991468,31.3061872 C32.5297032,31.5470026 32.3701268,32.0063892 32.5093935,32.4222551 C32.6970167,32.9841575 32.5529143,33.5799095 32.1244758,33.9861041 C31.8227313,34.2791444 31.0103422,34.342975 30.234704,34.089587 L32.3536856,31.1678876 C32.8614288,30.4686527 33.0664603,29.6117757 32.9310621,28.7568329 C32.7946968,27.9038243 32.3353101,27.156233 31.6370423,26.6484898 C30.9407088,26.1388123 30.085766,25.9318465 29.2346918,26.0653105 C29.0934908,26.0865873 28.960994,26.1310753 28.8275301,26.1707276 C28.6224985,25.5063094 28.2221068,24.9231301 27.6485988,24.5082314 C26.9512981,23.9995211 26.0953882,23.7944895 25.2452811,23.9269863 C25.1050472,23.9482632 24.9735176,23.9927512 24.8410208,24.0314364 C24.6408249,23.3853936 24.2491373,22.7944773 23.6620895,22.3689401 C22.9676902,21.8592627 22.1175831,21.6513298 21.2626403,21.7867279 C21.1224064,21.8089719 20.9889425,21.8524928 20.8545115,21.8931122 C20.6504471,21.228694 20.2500553,20.6464818 19.6784815,20.2315831 C18.9802138,19.7199714 18.1262381,19.515907 17.2722624,19.6484038 C16.4163525,19.783802 15.6619912,20.2441558 15.1523138,20.9482263 L12.2702668,24.9192616 L10.0178213,23.1639209 C10.0216898,23.1494139 10.0294269,23.1387755 10.0342625,23.1242685 L14.1938881,9.38135313 C14.2451459,9.36974758 14.2964038,9.37168184 14.3476617,9.35233924 C16.1300821,8.65987425 20.6852637,7.51285823 25.177582,8.13182135 C25.5383214,8.18307923 25.8942252,8.24400841 26.2452933,8.3117075 L22.7539545,16.2595807 C22.5450545,16.7354086 22.7491189,17.2905412 23.2162426,17.5178167 Z M26.2452933,34.7491695 C26.1176322,34.707583 25.9986752,34.6466538 25.8884224,34.5654149 C25.6060205,34.3603833 25.4203316,34.0596059 25.3661723,33.7153077 C25.3274871,33.4744924 25.378745,33.2423812 25.4696552,33.0218756 L28.3671763,29.0285964 C28.4890346,28.86225 28.5896161,28.6842981 28.6766578,28.5015106 C28.8826565,28.2171744 29.1873024,28.0305184 29.5335349,27.9763591 C29.601234,27.9657207 29.6689331,27.960885 29.7366322,27.960885 C30.0074285,27.960885 30.271455,28.0459924 30.4938948,28.2094374 C30.494862,28.2104045 30.4967962,28.2113716 30.4977634,28.2123388 C30.7801653,28.4164032 30.9658542,28.7181477 31.0200135,29.0614788 C31.0751399,29.405777 30.9929339,29.7510424 30.7879023,30.0334443 L27.7085608,34.2752759 C27.3739339,34.7385311 26.7820504,34.9251872 26.2452933,34.7491695 Z M22.258784,32.6108454 C22.13209,32.5692588 22.013133,32.5073625 21.900946,32.4261236 C21.6195112,32.2220592 21.4347894,31.9203147 21.379663,31.5760164 C21.3419449,31.3352011 21.3932028,31.1030899 21.484113,30.8825843 L24.3816341,26.8902722 C24.4986568,26.7287616 24.5934355,26.5575796 24.6766087,26.3834962 L24.6911156,26.3622193 C24.8971143,26.0788503 25.2007931,25.8921942 25.5450913,25.8380349 C25.6137575,25.8273965 25.6824238,25.8215937 25.7501228,25.8215937 C26.0218863,25.8215937 26.2859128,25.9076683 26.5093198,26.0711132 C26.5102869,26.0720804 26.511254,26.0720804 26.5122212,26.0730475 C26.793656,26.2771119 26.9783778,26.5788564 27.0335042,26.9231547 C27.0712222,27.16397 27.0199644,27.3960812 26.9300213,27.6156196 L24.0325002,31.6088989 C23.9106418,31.7762123 23.8090932,31.9541642 23.7220515,32.1369518 C23.3874246,32.5992398 22.7994096,32.7916987 22.258784,32.6108454 Z M18.2693733,30.470587 C18.1446136,30.4299676 18.0266237,30.3680712 17.9144367,30.2868323 C17.6330019,30.0827679 17.4482801,29.7810234 17.3931537,29.4367252 C17.3544685,29.196877 17.4066935,28.9647658 17.4976037,28.7452273 L20.3951248,24.7519481 C20.5169831,24.5846346 20.6175646,24.4066827 20.7036392,24.2248623 L20.7046063,24.2238952 C20.9115721,23.9385919 21.2152509,23.7519358 21.5624505,23.6977766 C21.6291825,23.6871381 21.6978487,23.6823025 21.7645807,23.6823025 C22.035377,23.6823025 22.2994035,23.7674099 22.5218433,23.9308549 C22.5228105,23.931822 22.5247447,23.9327891 22.5257119,23.9337562 C23.0237837,24.2944957 23.1659518,24.937637 22.9396434,25.4821312 L20.046958,29.4696076 C19.9260668,29.6359539 19.8254853,29.8119716 19.7394107,29.9928249 L19.7365093,29.9966934 C19.4018824,30.4589815 18.8158017,30.6504732 18.2693733,30.470587 Z M14.2857654,28.33323 C14.1590714,28.2906763 14.0401144,28.2297471 13.9288945,28.1485082 C13.3476494,27.7268396 13.218054,26.9096148 13.6397227,26.3274027 L16.718097,22.0836368 C16.9240957,21.8002678 17.2268073,21.6136117 17.5730398,21.5594524 C17.6407389,21.548814 17.7094051,21.5430112 17.7761371,21.5430112 C18.0488677,21.5430112 18.3128942,21.6290858 18.5372683,21.7934978 C18.5382354,21.7934978 18.5392026,21.794465 18.5401697,21.7954321 C18.8216045,21.9994965 19.0063263,22.301241 19.0614527,22.6455393 C19.1001379,22.8853875 19.0479129,23.1174986 18.9579698,23.3370371 L16.0594816,27.3312835 C15.9376232,27.4985969 15.8360746,27.6765488 15.7490329,27.8603035 C15.414406,28.3225916 14.8273581,28.5150504 14.2857654,28.33323 Z M7.46556558,22.941481 L2.15795687,21.2122528 L6.977165,4.69174041 L12.3979279,6.90163216 C12.6629215,7.01768774 12.7992868,7.31266235 12.7151465,7.58829436 L8.18317594,22.5633332 C8.13868797,22.710337 8.03810646,22.8312282 7.90174115,22.9027958 C7.76344158,22.9743634 7.6087008,22.9869361 7.46556558,22.941481 Z M58.1567104,19.9801293 L52.5647655,0.807746865 C52.4873951,0.544687541 52.3026733,0.327083321 52.0560552,0.208126347 C51.8094371,0.0882022439 51.5251009,0.0775638153 51.2707458,0.182980971 L44.5588645,2.91899136 C43.5898004,3.34452851 43.0153252,4.30585559 43.0337007,5.31940769 L37.4833424,6.07376899 L31.4097668,4.92385158 C29.7637118,4.61146863 28.1573091,5.26524842 27.1795408,6.53799133 C26.6157041,6.41323157 26.0392947,6.30007738 25.4454769,6.21690421 C21.2539361,5.63662629 17.0130716,6.47512788 14.6610118,7.20240954 C14.5817071,6.3136172 14.0275417,5.50219524 13.1513221,5.12017894 L6.71410567,2.49635561 C6.45878339,2.39190559 6.17444721,2.40157689 5.92879622,2.52053386 C5.68217811,2.63949083 5.4974563,2.85806218 5.42008591,3.12015438 L0.0389753336,21.571058 C-0.107061276,22.0720312 0.171472125,22.599117 0.667609747,22.7615948 L6.86981358,24.7828963 C7.12320161,24.8641352 7.38239241,24.9037875 7.63868183,24.9037875 C8.02263238,24.9037875 8.40174729,24.8090088 8.75474969,24.6329911 L11.4878587,26.7645454 C11.3766388,27.8738433 11.8263542,29.0121552 12.7905826,29.7113901 C13.0604119,29.9096517 13.3582879,30.0634253 13.6784078,30.1688425 C14.014969,30.2800624 14.3602344,30.3342217 14.699697,30.3342217 C15.0082114,30.3342217 15.3080217,30.2752268 15.6000949,30.1910865 C15.8060936,30.8555047 16.2064853,31.4377169 16.7761248,31.8497142 C17.0478883,32.048943 17.3467314,32.2036837 17.6629829,32.3071666 C18.0005112,32.4193537 18.3457766,32.473513 18.6862063,32.473513 C18.9947207,32.473513 19.294531,32.414518 19.5866042,32.3303777 C19.7916357,32.994796 20.1929946,33.5770081 20.7645684,33.9909397 C21.0353647,34.1882342 21.3332407,34.3420079 21.6504593,34.4464579 C21.9870205,34.5576778 22.3322859,34.6118371 22.6717485,34.6118371 C22.9802629,34.6118371 23.2800732,34.5538093 23.5721464,34.4677347 C23.7771779,35.132153 24.1785368,35.7153323 24.7491434,36.1282967 C25.0189727,36.3255912 25.3178158,36.480332 25.6369686,36.5857492 C25.9735298,36.6969691 26.3178281,36.7511284 26.6572907,36.7511284 C27.5547872,36.7511284 28.4068286,36.3594408 29.0267588,35.6795485 C29.7153553,36.0122411 30.4619796,36.1872917 31.1689515,36.1872917 C32.0770864,36.1872917 32.9146209,35.9164953 33.4639507,35.3826396 C33.9436471,34.9271214 34.2695698,34.3632847 34.4233435,33.7539929 C35.6013077,34.0402633 36.8972617,33.739486 37.8160351,32.8487594 C38.2870273,32.3893727 38.6071473,31.825536 38.7599538,31.2191455 C39.9398522,31.5121859 41.2387077,31.20754 42.157481,30.3148791 C42.6275061,29.8574267 42.946659,29.2964914 43.1013998,28.6949366 C44.2783968,28.9879769 45.5801536,28.683331 46.498927,27.7906701 C47.1797864,27.1301204 47.5540657,26.248098 47.5540657,25.3080478 C47.5540657,24.3670304 47.1797864,23.4859751 46.4853872,22.8128527 C46.3045339,22.6426379 46.1014366,22.4966013 45.9099449,22.3641045 C45.8799639,22.3437947 45.8499829,22.3263864 45.8200018,22.3089781 C43.125578,20.8611847 40.6207117,19.1068111 38.3760033,17.0922796 L37.9030767,16.6735123 C36.7870089,15.6899413 35.2898918,14.3601377 33.6680151,12.2314849 L34.0239189,11.7208403 C34.3285648,11.2827305 34.2202462,10.6802085 33.7811693,10.3745955 C33.3430594,10.0689825 32.7405375,10.1782681 32.4349245,10.6173451 L28.8159245,15.829208 C28.1350651,16.8108448 26.8594208,17.1425703 25.7859066,16.6193531 L24.8990486,16.187046 L28.3981244,8.21983016 C28.8517083,7.18596834 29.9503679,6.61052607 31.0480603,6.82329464 L37.2773437,8.00319307 C37.3798595,8.0235028 37.4852766,8.02737132 37.5877924,8.01189724 L43.4959888,7.21014658 L47.8432375,21.5720251 C48.0444005,22.2354762 48.4931488,22.7790032 49.1063091,23.1010574 C49.4796213,23.2964177 49.8848487,23.3950649 50.2939446,23.3950649 C50.5589382,23.3950649 50.825866,23.3534783 51.086024,23.2703052 L57.5271089,21.1706662 C58.0242136,21.0081884 58.302747,20.4820697 58.1567104,19.9801293 Z" id="Fill-9" fill="#4F5661" mask="url(#mask-2)"></path>
            </g>
            <path d="M43.9895151,44.2263652 C43.5784849,44.2263652 43.1984029,43.9642731 43.0678404,43.5513086 C42.9063297,43.0416312 43.1887316,42.4990713 43.6974419,42.3375606 C44.8763732,41.9632814 46.9953548,41.0802918 47.6607401,40.3027194 C48.009874,39.8955577 48.6201329,39.8520369 49.0243932,40.1973022 C49.4305878,40.5445018 49.4779771,41.1547608 49.1298104,41.5609553 C47.890917,43.0087487 44.6471634,44.0658217 44.2815884,44.1809101 C44.1839082,44.2118583 44.0862281,44.2263652 43.9895151,44.2263652" id="Fill-12" fill="#4F5661"></path>
        </g>
    </g>
</svg>