<?xml version="1.0" encoding="UTF-8"?>
<svg width="60px" height="61px" viewBox="0 0 60 61" version="1.1" xmlns="http://www.w3.org/2000/svg" xmlns:xlink="http://www.w3.org/1999/xlink">
    <!-- Generator: Sketch 49.3 (51167) - http://www.bohemiancoding.com/sketch -->
    <title>Icon/ Good Job</title>
    <desc>Created with Sketch.</desc>
    <defs>
        <polygon id="path-1" points="12.632 0.355643264 12.632 12.3556755 0.632024468 12.3556755 0.632024468 0.355643264 12.632 0.355643264"></polygon>
        <polygon id="path-3" points="0.632296483 0.356 9.63177799 0.356 9.63177799 9.35557799 0.632296483 9.35557799 0.632296483 0.356"></polygon>
        <polygon id="path-5" points="57.8982086 51 0 51 0 0.946589445 57.8982086 0.946589445"></polygon>
    </defs>
    <g id="Icon/-Good-Job" stroke="none" stroke-width="1" fill="none" fill-rule="evenodd">
        <g id="Page-1">
            <path d="M6.1491,58.3153 C6.1491,58.3153 0.3741,51.9143 1.0001,39.7363 L11.0301,38.1263 L16.6261,54.5703" id="Fill-1" fill="#53C27C"></path>
            <path d="M5.9319,59.6444 L18.0379,53.0274" id="Fill-3" fill="#D3E5EF"></path>
            <path d="M11.4826,38.0389 L1.0006,39.7359" id="Fill-5" fill="#D3E5EF"></path>
            <path d="M22.468,35.2499 L27.491,49.8229 C27.933,51.1049 27.352,52.5159 26.136,53.1149 L17.52,57.4449 L10.365,34.4449 L19.699,33.4429 C20.926,33.3419 22.067,34.0849 22.468,35.2499" id="Fill-7" fill="#53C27C"></path>
            <path d="M14.4299,12.5506 L15.2829,14.8546 C15.3689,15.0826 15.5499,15.2626 15.7779,15.3496 L18.0809,16.2016 C18.5219,16.3686 18.7429,16.8626 18.5759,17.3026 C18.4899,17.5306 18.3099,17.7106 18.0809,17.7976 L15.7779,18.6516 C15.5499,18.7376 15.3689,18.9176 15.2829,19.1456 L14.4299,21.4486 C14.2629,21.8896 13.7699,22.1116 13.3289,21.9446 C13.1009,21.8576 12.9209,21.6776 12.8339,21.4486 L11.9809,19.1456 C11.8949,18.9176 11.7149,18.7376 11.4869,18.6516 L9.1829,17.7976 C8.7429,17.6306 8.5209,17.1376 8.6879,16.6966 C8.7739,16.4696 8.9539,16.2886 9.1829,16.2016 L11.4869,15.3496 C11.7149,15.2626 11.8949,15.0826 11.9809,14.8546 L12.8339,12.5506 C13.0019,12.1106 13.4939,11.8886 13.9349,12.0556 C14.1629,12.1426 14.3429,12.3216 14.4299,12.5506" id="Fill-9" fill="#D3E5EF"></path>
            <g id="Group-13" transform="translate(47.000000, 7.644400)">
                <mask id="mask-2" fill="white">
                    <use xlink:href="#path-1"></use>
                </mask>
                <g id="Clip-12"></g>
                <path d="M7.5891,1.0166 L8.6131,3.7816 C8.7171,4.0546 8.9331,4.2706 9.2071,4.3746 L11.9711,5.3986 C12.5001,5.5986 12.7661,6.1906 12.5651,6.7186 C12.4611,6.9926 12.2451,7.2086 11.9711,7.3126 L9.2071,8.3366 C8.9331,8.4406 8.7171,8.6566 8.6131,8.9306 L7.5891,11.6946 C7.3891,12.2236 6.7971,12.4896 6.2691,12.2886 C5.9951,12.1846 5.7781,11.9686 5.6751,11.6946 L4.6511,8.9306 C4.5471,8.6566 4.3311,8.4406 4.0571,8.3366 L1.2931,7.3126 C0.7641,7.1126 0.4981,6.5216 0.6991,5.9926 C0.8031,5.7186 1.0191,5.5016 1.2931,5.3986 L4.0571,4.3746 C4.3311,4.2706 4.5471,4.0546 4.6511,3.7816 L5.6751,1.0166 C5.8751,0.4886 6.4661,0.2216 6.9951,0.4226 C7.2691,0.5266 7.4851,0.7426 7.5891,1.0166" id="Fill-11" fill="#D3E5EF" mask="url(#mask-2)"></path>
            </g>
            <g id="Group-16" transform="translate(32.000000, 0.644400)">
                <mask id="mask-4" fill="white">
                    <use xlink:href="#path-3"></use>
                </mask>
                <g id="Clip-15"></g>
                <path d="M5.8498,0.8516 L6.6178,2.9246 C6.6958,3.1296 6.8578,3.2916 7.0628,3.3706 L9.1368,4.1376 C9.5328,4.2886 9.7318,4.7316 9.5818,5.1276 C9.5038,5.3326 9.3418,5.4956 9.1368,5.5736 L7.0628,6.3416 C6.8578,6.4186 6.6958,6.5806 6.6178,6.7876 L5.8498,8.8606 C5.6998,9.2566 5.2558,9.4556 4.8598,9.3056 C4.6538,9.2276 4.4918,9.0656 4.4138,8.8606 L3.6458,6.7876 C3.5688,6.5806 3.4068,6.4186 3.2008,6.3416 L1.1278,5.5736 C0.7308,5.4226 0.5318,4.9796 0.6828,4.5826 C0.7598,4.3776 0.9218,4.2156 1.1278,4.1376 L3.2008,3.3706 C3.4068,3.2916 3.5688,3.1296 3.6458,2.9246 L4.4138,0.8516 C4.5648,0.4556 5.0078,0.2546 5.4048,0.4056 C5.6098,0.4836 5.7718,0.6456 5.8498,0.8516" id="Fill-14" fill="#D3E5EF" mask="url(#mask-4)"></path>
            </g>
            <g id="Group-19" transform="translate(0.000000, 9.644400)">
                <mask id="mask-6" fill="white">
                    <use xlink:href="#path-5"></use>
                </mask>
                <g id="Clip-18"></g>
                <path d="M54.0608,36.4834 C53.4898,37.5484 52.5478,38.2994 51.4028,38.5994 L45.7148,40.1274 C44.6358,40.3974 43.5138,39.6614 43.2108,38.4784 C43.0608,37.8924 43.1308,37.2714 43.3978,36.7784 C43.6578,36.3064 44.0948,35.9614 44.6598,35.8074 C44.8888,35.7864 45.1178,35.7544 45.3478,35.6954 L52.5928,33.8634 C53.2868,33.6834 53.9358,33.4084 54.5268,33.0474 C54.7878,34.2464 54.6368,35.4544 54.0608,36.4834 Z M42.2118,30.2664 C42.5758,29.6554 43.1198,29.2064 43.6678,29.0654 C43.7268,29.0504 43.7718,29.0144 43.8248,28.9904 C44.0448,28.9674 44.2658,28.9434 44.4838,28.8864 L51.3488,27.1294 C52.9628,26.7134 54.3008,25.7644 55.2298,24.5234 C55.4498,24.9094 55.6208,25.3274 55.7338,25.7664 C56.0738,27.0754 55.8808,28.4344 55.1878,29.6024 C54.5148,30.7584 53.4148,31.5844 52.0968,31.9254 L44.8548,33.7564 C44.7088,33.7944 44.5628,33.8134 44.4178,33.8234 C44.3978,33.8234 44.3788,33.8264 44.3588,33.8284 C43.2638,33.8724 42.2498,33.1534 41.9708,32.0584 C41.8138,31.4414 41.9008,30.8014 42.2118,30.2664 Z M17.0128,42.8034 L11.6818,25.6654 L19.7818,24.7954 C20.5488,24.7324 21.2698,25.1984 21.5228,25.9314 L26.5458,40.5044 C26.8228,41.3084 26.4568,42.1984 25.6868,42.5774 L18.1248,46.3784 L17.6188,44.7524 L17.0128,42.8034 Z M57.6698,25.2644 C57.4088,24.2554 56.9228,23.3334 56.2698,22.5474 C56.6958,21.2944 56.7778,19.9084 56.4238,18.5334 C55.9538,16.7064 54.7998,15.1724 53.1758,14.2134 C51.5528,13.2554 49.6528,12.9894 47.7978,13.4644 L38.8178,16.0624 L36.3348,6.0404 C35.8158,4.0234 34.6448,2.5104 32.9518,1.6664 C31.3608,0.8734 29.4368,0.7324 27.3908,1.2594 L26.2278,1.5574 C25.7008,1.6924 25.3788,2.2244 25.5028,2.7544 L26.9768,9.0434 C28.1068,13.4314 27.5798,16.0524 25.1548,18.0894 C23.5278,19.4574 21.9068,20.9874 20.8348,22.9054 C20.4388,22.8044 20.0208,22.7684 19.5918,22.8044 L10.2578,23.8064 C9.9608,23.8384 9.6928,24.0024 9.5288,24.2524 C9.3648,24.5024 9.3208,24.8124 9.4098,25.0974 L10.1858,27.5904 L0.8408,29.1044 C0.2948,29.1934 -0.0752,29.7064 0.0128,30.2524 C0.0928,30.7434 0.5178,31.0914 0.9988,31.0914 C1.0518,31.0914 1.1058,31.0874 1.1598,31.0794 L10.7858,29.5204 L15.2228,43.7824 L5.4528,49.1224 C4.9678,49.3874 4.7898,49.9954 5.0548,50.4794 C5.2358,50.8114 5.5788,51.0004 5.9328,51.0004 C6.0948,51.0004 6.2588,50.9614 6.4118,50.8784 L15.8288,45.7304 L16.5648,48.0974 C16.6528,48.3784 16.8588,48.6064 17.1288,48.7204 C17.2538,48.7744 17.3878,48.8004 17.5198,48.8004 C17.6748,48.8004 17.8288,48.7654 17.9698,48.6944 L26.5788,44.3674 C27.4088,43.9584 28.0228,43.2704 28.3548,42.4644 C29.7778,43.1904 31.2878,43.5884 32.8598,43.5874 C33.7018,43.5874 34.5598,43.4804 35.4288,43.2624 L39.3908,42.7834 C39.9388,42.7164 40.3298,42.2174 40.2628,41.6704 C40.1968,41.1204 39.6928,40.7284 39.1498,40.7964 L35.1248,41.2844 C35.0818,41.2904 35.0378,41.2974 34.9958,41.3084 C32.4348,41.9714 30.3028,41.4254 28.5488,40.3134 C28.5178,40.1594 28.4888,40.0044 28.4358,39.8524 L23.4138,25.2794 C23.2338,24.7574 22.9388,24.3054 22.5738,23.9264 C23.4738,22.2744 24.8958,20.9204 26.4418,19.6214 C30.3218,16.3614 29.8008,11.9894 28.9188,8.5654 L27.6738,3.2524 L27.8878,3.1974 C29.4628,2.7914 30.9058,2.8804 32.0588,3.4564 C33.2188,4.0344 34.0278,5.1004 34.3958,6.5304 L37.1268,17.5514 C37.1918,17.8164 37.3618,18.0424 37.5978,18.1774 C37.8338,18.3144 38.1148,18.3484 38.3748,18.2724 L48.3258,15.3944 C49.6328,15.0584 50.9958,15.2494 52.1598,15.9364 C53.3228,16.6244 54.1498,17.7224 54.4868,19.0314 C55.1828,21.7324 53.5508,24.4974 50.8508,25.1924 L43.9858,26.9494 C43.3738,27.1064 42.7378,27.0174 42.1928,26.6954 C41.6488,26.3744 41.2628,25.8604 41.1048,25.2494 C40.7798,23.9854 41.5428,22.6924 42.7808,22.3734 L49.1208,20.9134 C49.6588,20.7894 49.9948,20.2524 49.8708,19.7134 C49.7468,19.1754 49.2128,18.8414 48.6708,18.9634 L42.3068,20.4294 C39.9758,21.0304 38.5678,23.4164 39.1678,25.7474 C39.4558,26.8634 40.1578,27.7994 41.1428,28.3934 C40.9018,28.6534 40.6768,28.9344 40.4878,29.2534 C39.9068,30.2534 39.7458,31.4244 40.0338,32.5534 C40.3318,33.7224 41.0878,34.6514 42.0568,35.2194 C41.9038,35.4074 41.7618,35.6034 41.6438,35.8184 C41.1278,36.7684 40.9958,37.8884 41.2728,38.9734 C41.7638,40.8914 43.4438,42.1814 45.2648,42.1814 C45.5818,42.1814 45.9018,42.1424 46.2218,42.0614 L51.9148,40.5334 C53.5998,40.0914 54.9878,38.9894 55.8148,37.4444 C56.6668,35.9214 56.8858,34.1114 56.4298,32.3424 C56.3618,32.0834 56.2848,31.8424 56.1978,31.6154 C56.4618,31.3044 56.7038,30.9734 56.9118,30.6164 C57.8748,28.9944 58.1438,27.0934 57.6698,25.2644 Z" id="Fill-17" fill="#4F5661" mask="url(#mask-6)"></path>
            </g>
        </g>
    </g>
</svg>