<?xml version="1.0" encoding="UTF-8"?>
<svg width="54px" height="54px" viewBox="0 0 54 54" version="1.1" xmlns="http://www.w3.org/2000/svg" xmlns:xlink="http://www.w3.org/1999/xlink">
    <!-- Generator: Sketch 49.3 (51167) - http://www.bohemiancoding.com/sketch -->
    <title>Icon/ good</title>
    <desc>Created with Sketch.</desc>
    <defs></defs>
    <g id="Icon/-good" stroke="none" stroke-width="1" fill="none" fill-rule="evenodd">
        <g id="good">
            <path d="M0,27.0003 C0,12.0943 12.094,0.0003 27,0.0003 C41.906,0.0003 54,12.0943 54,27.0003 C54,27.3493 53.989,27.6973 53.978,28.0463 L53.978,28.1033 C53.393,42.5023 41.535,54.0003 27,54.0003 C12.465,54.0003 0.607,42.5023 0.022,28.1033 L0,27.0003 Z" id="Fill-1" fill="#FFFFFF"></path>
            <path d="M0.3823,24.7503 C2.5203,37.5193 13.6343,47.2503 27.0003,47.2503 C40.3653,47.2503 51.4803,37.5193 53.6173,24.7503 C53.8083,25.8303 53.9213,26.9323 53.9773,28.0463 L53.9773,28.1033 C53.3923,42.5023 41.5353,54.0003 27.0003,54.0003 C12.4653,54.0003 0.6073,42.5023 0.0223,28.1033" id="Fill-3" fill="#D3E5EF"></path>
            <path d="M0,27.0003 C0,12.0943 12.094,0.0003 27,0.0003 C41.906,0.0003 54,12.0943 54,27.0003 C54,27.3493 53.989,27.6973 53.978,28.0463 L53.978,28.1033 C53.393,42.5023 41.535,54.0003 27,54.0003 C12.465,54.0003 0.607,42.5023 0.022,28.1033 L0,27.0003 Z" id="Stroke-5" stroke="#4F5661" stroke-width="2"></path>
            <path d="M12.5347,14.0892 C12.9377,12.8442 13.8077,11.7762 15.0487,11.1832 C16.4767,10.5002 18.0847,10.5942 19.4307,11.2952" id="Stroke-7" stroke="#4F5661" stroke-width="2" stroke-linecap="round"></path>
            <path d="M41.4023,14.0882 C41.0003,12.8402 40.1313,11.7712 38.8903,11.1782 C37.4623,10.4942 35.8533,10.5902 34.5063,11.2942" id="Stroke-9" stroke="#4F5661" stroke-width="2" stroke-linecap="round"></path>
            <path d="M21,20.5003 C21,22.4333 19.657,24.0003 18,24.0003 C16.343,24.0003 15,22.4333 15,20.5003 C15,18.5663 16.343,17.0003 18,17.0003 C19.657,17.0003 21,18.5663 21,20.5003" id="Fill-11" fill="#53C27C"></path>
            <path d="M39,20.5003 C39,22.4333 37.657,24.0003 36,24.0003 C34.343,24.0003 33,22.4333 33,20.5003 C33,18.5663 34.343,17.0003 36,17.0003 C37.657,17.0003 39,18.5663 39,20.5003" id="Fill-13" fill="#53C27C"></path>
            <path d="M18.9199,30.0003 C20.5599,32.9893 23.5599,35.0003 26.9999,35.0003 C30.4399,35.0003 33.4399,32.9893 35.0799,30.0003" id="Stroke-15" stroke="#4F5661" stroke-width="2" stroke-linecap="round"></path>
        </g>
    </g>
</svg>