<?xml version="1.0" encoding="UTF-8"?>
<svg width="58px" height="59px" viewBox="0 0 58 59" version="1.1" xmlns="http://www.w3.org/2000/svg" xmlns:xlink="http://www.w3.org/1999/xlink">
    <!-- Generator: Sketch 49.3 (51167) - http://www.bohemiancoding.com/sketch -->
    <title>Icon/ Guide me</title>
    <desc>Created with Sketch.</desc>
    <defs></defs>
    <g id="Icon/-Guide-me" stroke="none" stroke-width="1" fill="none" fill-rule="evenodd">
        <g id="Guide-me" transform="translate(0.000000, -1.000000)">
            <polygon id="Fill-1" fill="#D3E5EF" points="51 31.9999 32 31.9999 32 21.9999 51 21.9999 47 26.9999"></polygon>
            <polygon id="Fill-2" fill="#D3E5EF" points="5.0004 21.9995 0.0004 27.5555 5.0004 32.0005 26.0004 32.0005 26.0004 21.9995"></polygon>
            <polygon id="Fill-3" fill="#5BBF89" points="7 7.9999 26 7.9999 26 17.9999 7 17.9999 11 12.9999"></polygon>
            <polygon id="Fill-4" fill="#5BBF89" points="32 7.9999 53 7.9999 58 12.4439 53 17.9999 32 17.9999"></polygon>
            <g id="Group-21" transform="translate(9.000000, 0.000200)" fill-rule="nonzero">
                <path d="M22,5.33303333 L20,2.66636667 L18,5.33303333 L18,57.9997 L22,57.9997 L22,5.33303333 Z M23,59.9997 L17,59.9997 C16.4477153,59.9997 16,59.5519847 16,58.9997 L16,4.9997 C16,4.78332979 16.0701779,4.57279617 16.2,4.3997 L19.2,0.3997 C19.6,-0.133633333 20.4,-0.133633333 20.8,0.3997 L23.8,4.3997 C23.9298221,4.57279617 24,4.78332979 24,4.9997 L24,58.9997 C24,59.5519847 23.5522847,59.9997 23,59.9997 Z" id="Stroke-5" fill="#4B5E69"></path>
                <path d="M6,59.9997 L34,59.9997 C34.5522847,59.9997 35,59.5519847 35,58.9997 C35,58.4474153 34.5522847,57.9997 34,57.9997 L6,57.9997 C5.44771525,57.9997 5,58.4474153 5,58.9997 C5,59.5519847 5.44771525,59.9997 6,59.9997 Z" id="Stroke-7" fill="#4B5E69"></path>
                <path d="M23.9071079,59.4210981 C23.9286232,59.3747289 24.0158019,59.2341829 24.1867336,59.0279098 C24.5012172,58.6484042 24.9368946,58.2595454 25.5147662,57.8886394 C26.4595923,57.2822042 27.6756429,56.7949486 29.202338,56.4795158 C29.7431991,56.3677676 30.0910639,55.8387232 29.9793158,55.297862 C29.8675676,54.7570009 29.3385232,54.4091361 28.797662,54.5208842 C27.0346696,54.8851389 25.5892749,55.4642896 24.4344525,56.2055106 C23.1255832,57.0456065 22.3960161,57.9260173 22.0928921,58.5793019 C21.8604365,59.0802838 22.07812,59.6748523 22.5791019,59.9073079 C23.0800838,60.1397635 23.6746523,59.92208 23.9071079,59.4210981 Z" id="Stroke-9" fill="#4B5E69"></path>
                <path d="M24.8745921,59.0282598 C24.8759578,58.9804604 24.8824984,58.8721867 24.8979653,58.7123932 C24.9247358,58.4358186 24.967862,58.1250563 25.0309317,57.7891414 C25.2110605,56.82976 25.5129022,55.8718424 25.9607446,54.9869927 C26.4026518,54.1138695 26.9646643,53.359387 27.6585046,52.7522767 C28.0741412,52.3885946 28.1162587,51.756832 27.7525767,51.3411954 C27.3888946,50.9255588 26.757132,50.8834413 26.3414954,51.2471233 C25.443499,52.0328702 24.7285435,52.9926734 24.1762817,54.0838359 C23.6356036,55.1521111 23.2780521,56.2868275 23.0652782,57.42008 C22.9370128,58.103233 22.8847902,58.6427615 22.8754079,58.9711402 C22.8596348,59.5231997 23.2943808,59.983519 23.8464402,59.9992921 C24.3984997,60.0150652 24.858819,59.5803192 24.8745921,59.0282598 Z" id="Stroke-11" fill="#4B5E69"></path>
                <path d="M17.9071079,58.5793019 C17.6039839,57.9260173 16.8744168,57.0456065 15.5655475,56.2055106 C14.4107251,55.4642896 12.9653304,54.8851389 11.202338,54.5208842 C10.6614768,54.4091361 10.1324324,54.7570009 10.0206842,55.297862 C9.90893607,55.8387232 10.2568009,56.3677676 10.797662,56.4795158 C12.3243571,56.7949486 13.5404077,57.2822042 14.4852338,57.8886394 C15.0631054,58.2595454 15.4987828,58.6484042 15.8132664,59.0279098 C15.9841981,59.2341829 16.0713768,59.3747289 16.0928921,59.4210981 C16.3253477,59.92208 16.9199162,60.1397635 17.4208981,59.9073079 C17.92188,59.6748523 18.1395635,59.0802838 17.9071079,58.5793019 Z" id="Stroke-13" fill="#4B5E69"></path>
                <path d="M17.1245921,58.9711402 C17.1152098,58.6427615 17.0629872,58.103233 16.9347218,57.42008 C16.7219479,56.2868275 16.3643964,55.1521111 15.8237183,54.0838359 C15.2714565,52.9926734 14.556501,52.0328702 13.6585046,51.2471233 C13.242868,50.8834413 12.6111054,50.9255588 12.2474233,51.3411954 C11.8837413,51.756832 11.9258588,52.3885946 12.3414954,52.7522767 C13.0353357,53.359387 13.5973482,54.1138695 14.0392554,54.9869927 C14.4870978,55.8718424 14.7889395,56.82976 14.9690683,57.7891414 C15.032138,58.1250563 15.0752642,58.4358186 15.1020347,58.7123932 C15.1175016,58.8721867 15.1240422,58.9804604 15.1254079,59.0282598 C15.141181,59.5803192 15.6015003,60.0150652 16.1535598,59.9992921 C16.7056192,59.983519 17.1403652,59.5231997 17.1245921,58.9711402 Z" id="Stroke-15" fill="#4B5E69"></path>
                <path d="M30,13.9997 L40,13.9997 C40.5522847,13.9997 41,13.5519847 41,12.9997 C41,12.4474153 40.5522847,11.9997 40,11.9997 L30,11.9997 C29.4477153,11.9997 29,12.4474153 29,12.9997 C29,13.5519847 29.4477153,13.9997 30,13.9997 Z" id="Stroke-17" fill="#FFFFFF"></path>
                <path d="M1,27.9997 L11,27.9997 C11.5522847,27.9997 12,27.5519847 12,26.9997 C12,26.4474153 11.5522847,25.9997 11,25.9997 L1,25.9997 C0.44771525,25.9997 0,26.4474153 0,26.9997 C0,27.5519847 0.44771525,27.9997 1,27.9997 Z" id="Stroke-19" fill="#FFFFFF"></path>
            </g>
        </g>
    </g>
</svg>