<?xml version="1.0" encoding="UTF-8"?>
<svg width="49px" height="60px" viewBox="0 0 49 60" version="1.1" xmlns="http://www.w3.org/2000/svg" xmlns:xlink="http://www.w3.org/1999/xlink">
    <!-- Generator: Sketch 49.3 (51167) - http://www.bohemiancoding.com/sketch -->
    <title>Icon/ Hand 2</title>
    <desc>Created with Sketch.</desc>
    <defs>
        <polygon id="path-1" points="48.1096 2.84217094e-14 0.000443763595 7.10542736e-15 0.000443763595 59.9996 48.1096 59.9996 48.1096 0"></polygon>
    </defs>
    <g id="Icon/-Hand-2" stroke="none" stroke-width="1" fill="none" fill-rule="evenodd">
        <g id="Page-1">
            <polyline id="Fill-1" fill="#53C27C" points="4.1096 59 5.1096 51 20.1096 51 21.1096 59"></polyline>
            <g id="Group-11">
                <g id="Group-4">
                    <mask id="mask-2" fill="white">
                        <use xlink:href="#path-1"></use>
                    </mask>
                    <g id="Clip-3"></g>
                    <path d="M38.1096,2.4766 L45.6326,9.9996 L38.1096,9.9996 L38.1096,2.4766 Z M9.1096,36.4646 L6.5546,38.1676 C6.2766,38.3536 6.1096,38.6656 6.1096,38.9996 C6.1096,41.4636 9.2026,43.5966 9.5546,43.8316 C9.8906,44.0566 10.3286,44.0566 10.6646,43.8316 C13.9126,41.6666 15.0126,38.4526 15.0586,38.3166 C15.0926,38.2136 15.1096,38.1076 15.1096,37.9996 L15.1096,29.9996 C15.1096,28.8976 16.0066,27.9996 17.1096,27.9996 C18.2126,27.9996 19.1096,28.8976 19.1096,29.9996 L19.1096,37.9996 C19.1096,38.9286 19.4586,40.0196 19.8616,41.2836 C21.1386,45.2776 21.7446,48.2526 17.8996,49.9996 L6.6176,49.9996 C4.8816,47.5636 1.3856,41.7206 2.0896,38.1966 C2.3996,36.6476 6.0116,34.2306 9.1096,32.6116 L9.1096,36.4646 Z M47.8166,9.3556 L38.7546,0.2926 C38.5666,0.1056 38.3126,-0.0004 38.0476,-0.0004 L10.1096,-0.0004 C9.5576,-0.0004 9.1096,0.4476 9.1096,0.9996 L9.1096,30.3706 C6.8636,31.4646 0.7496,34.7026 0.1296,37.8036 C-0.7044,41.9736 2.7086,47.7526 4.4056,50.3036 C4.2556,50.4556 4.1456,50.6496 4.1176,50.8756 L3.1176,58.8756 C3.0486,59.4236 3.4376,59.9236 3.9856,59.9926 C4.5256,60.0546 5.0336,59.6726 5.1016,59.1236 L5.9926,51.9996 L6.1096,51.9996 L18.1096,51.9996 L19.2266,51.9996 L20.1176,59.1236 C20.1806,59.6296 20.6116,59.9996 21.1086,59.9996 C21.1496,59.9996 21.1916,59.9976 21.2336,59.9926 C21.7816,59.9236 22.1706,59.4236 22.1016,58.8756 L21.1016,50.8756 C21.0796,50.6966 20.9986,50.5426 20.8956,50.4076 C23.9606,47.5816 22.6306,43.3726 21.7676,40.6746 C21.4286,39.6166 21.1096,38.6176 21.1096,37.9996 L21.1096,29.9996 C21.1096,27.7936 19.3156,25.9996 17.1096,25.9996 C14.9036,25.9996 13.1096,27.7936 13.1096,29.9996 L13.1096,37.8186 C12.8996,38.3416 12.0336,40.2586 10.1156,41.7616 C9.3906,41.1776 8.4856,40.2776 8.1996,39.4746 L10.6646,37.8316 C10.6916,37.8136 10.7066,37.7856 10.7316,37.7646 C10.7856,37.7206 10.8316,37.6736 10.8756,37.6206 C10.9156,37.5706 10.9496,37.5216 10.9796,37.4656 C11.0086,37.4106 11.0316,37.3536 11.0506,37.2916 C11.0706,37.2266 11.0846,37.1636 11.0906,37.0936 C11.0936,37.0616 11.1096,37.0336 11.1096,36.9996 L11.1096,1.9996 L36.1096,1.9996 L36.1096,10.9996 C36.1096,11.5526 36.5576,11.9996 37.1096,11.9996 L46.1096,11.9996 L46.1096,44.9996 L25.1096,44.9996 C24.5576,44.9996 24.1096,45.4476 24.1096,45.9996 C24.1096,46.5526 24.5576,46.9996 25.1096,46.9996 L47.1096,46.9996 C47.6616,46.9996 48.1096,46.5526 48.1096,45.9996 L48.1096,10.0626 C48.1096,9.7966 48.0046,9.5426 47.8166,9.3556 Z" id="Fill-2" fill="#4F5661" mask="url(#mask-2)"></path>
                </g>
                <path d="M30.1096,14 L18.1096,14 C17.5576,14 17.1096,13.553 17.1096,13 C17.1096,12.447 17.5576,12 18.1096,12 L30.1096,12 C30.6616,12 31.1096,12.447 31.1096,13 C31.1096,13.553 30.6616,14 30.1096,14" id="Fill-5" fill="#4F5661"></path>
                <path d="M40.1096,20 L18.1096,20 C17.5576,20 17.1096,19.553 17.1096,19 C17.1096,18.447 17.5576,18 18.1096,18 L40.1096,18 C40.6616,18 41.1096,18.447 41.1096,19 C41.1096,19.553 40.6616,20 40.1096,20" id="Fill-7" fill="#4F5661"></path>
                <path d="M40.1096,26 L24.1096,26 C23.5576,26 23.1096,25.553 23.1096,25 C23.1096,24.447 23.5576,24 24.1096,24 L40.1096,24 C40.6616,24 41.1096,24.447 41.1096,25 C41.1096,25.553 40.6616,26 40.1096,26" id="Fill-9" fill="#4F5661"></path>
            </g>
        </g>
    </g>
</svg>