<?xml version="1.0" encoding="UTF-8"?>
<svg width="60px" height="57px" viewBox="0 0 60 57" version="1.1" xmlns="http://www.w3.org/2000/svg" xmlns:xlink="http://www.w3.org/1999/xlink">
    <!-- Generator: Sketch 49.3 (51167) - http://www.bohemiancoding.com/sketch -->
    <title>Icon/ Hand</title>
    <desc>Created with Sketch.</desc>
    <defs>
        <polygon id="path-1" points="30.0000539 57 60 57 60 0 30.0000539 0 0.000107794791 0 0.000107794791 57"></polygon>
    </defs>
    <g id="Icon/-Hand" stroke="none" stroke-width="1" fill="none" fill-rule="evenodd">
        <g id="Page-1">
            <path d="M35.925,39.2842 C35.966,41.3242 34.323,43.0002 32.283,43.0002 L28,43.0002 C28,43.0002 28,49.0002 21,50.0002 L15,48.0002 L21,45.8432 C21,45.8432 26,43.0002 26,40.0002 C26,40.0002 33.849,40.5672 35.925,39.2842" id="Fill-1" fill="#D3E5EF"></path>
            <polyline id="Fill-3" fill="#53C27C" points="1.0002 56 10.0002 54 10.0002 40 1.0002 40"></polyline>
            <g id="Group-7">
                <mask id="mask-2" fill="white">
                    <use xlink:href="#path-1"></use>
                </mask>
                <g id="Clip-6"></g>
                <path d="M50.0002,10 L50.0002,2.477 L57.5232,10 L50.0002,10 Z M59.7072,9.355 L50.6452,0.293 C50.4572,0.105 50.2032,0 49.9382,0 L21.0002,0 C20.4482,0 20.0002,0.447 20.0002,1 L20.0002,30.875 C20.0002,31.428 20.4482,31.875 21.0002,31.875 C21.5522,31.875 22.0002,31.428 22.0002,30.875 L22.0002,2 L48.0002,2 L48.0002,11 C48.0002,11.553 48.4482,12 49.0002,12 L58.0002,12 L58.0002,49 L21.0002,49 C20.4472,49 20.0002,49.447 20.0002,50 C20.0002,50.553 20.4472,51 21.0002,51 L30.3162,51 C29.1912,52.574 26.5592,55 21.0002,55 C13.9162,55 11.5502,53.187 11.0002,52.646 L11.0002,40.352 C11.9032,39.28 15.9222,35 22.4752,35 L34.0002,35 C35.1032,35 36.0002,35.897 36.0002,37 C36.0002,38.103 35.1032,39 34.0002,39 L25.5332,39 C25.0152,39 24.5832,39.402 24.5372,39.918 C24.5152,40.166 23.8932,46 15.0002,46 C14.4482,46 14.0002,46.447 14.0002,47 C14.0002,47.553 14.4482,48 15.0002,48 C23.5452,48 25.7822,43.091 26.3472,41 L34.0002,41 C36.2062,41 38.0002,39.206 38.0002,37 C38.0002,34.794 36.2062,33 34.0002,33 L22.4752,33 C15.1342,33 10.7122,37.584 9.5212,39 L1.0002,39 C0.4482,39 0.0002,39.447 0.0002,40 C0.0002,40.553 0.4482,41 1.0002,41 L9.0002,41 L9.0002,53 L9.0002,53.198 L0.7832,55.023 C0.2442,55.144 -0.0958,55.678 0.0242,56.217 C0.1272,56.683 0.5412,57 0.9992,57 C1.0712,57 1.1442,56.992 1.2172,56.977 L10.2172,54.977 C10.3432,54.948 10.4562,54.894 10.5582,54.823 C12.0952,55.819 15.1462,57 21.0002,57 C28.8672,57 31.7972,52.708 32.6522,51 L59.0002,51 C59.5522,51 60.0002,50.553 60.0002,50 L60.0002,10.062 C60.0002,9.797 59.8952,9.543 59.7072,9.355 Z" id="Fill-5" fill="#4F5661" mask="url(#mask-2)"></path>
            </g>
            <path d="M40.0002,15 L28.0002,15 C27.4482,15 27.0002,14.553 27.0002,14 C27.0002,13.447 27.4482,13 28.0002,13 L40.0002,13 C40.5522,13 41.0002,13.447 41.0002,14 C41.0002,14.553 40.5522,15 40.0002,15" id="Fill-8" fill="#4F5661"></path>
            <path d="M52.0002,21 L28.0002,21 C27.4482,21 27.0002,20.553 27.0002,20 C27.0002,19.447 27.4482,19 28.0002,19 L52.0002,19 C52.5522,19 53.0002,19.447 53.0002,20 C53.0002,20.553 52.5522,21 52.0002,21" id="Fill-10" fill="#4F5661"></path>
            <path d="M46.0002,27 L28.0002,27 C27.4482,27 27.0002,26.553 27.0002,26 C27.0002,25.447 27.4482,25 28.0002,25 L46.0002,25 C46.5522,25 47.0002,25.447 47.0002,26 C47.0002,26.553 46.5522,27 46.0002,27" id="Fill-12" fill="#4F5661"></path>
        </g>
    </g>
</svg>