<?xml version="1.0" encoding="UTF-8"?>
<svg width="60px" height="62px" viewBox="0 0 60 62" version="1.1" xmlns="http://www.w3.org/2000/svg" xmlns:xlink="http://www.w3.org/1999/xlink">
    <!-- Generator: Sketch 49.3 (51167) - http://www.bohemiancoding.com/sketch -->
    <title>Icon/ Health plan options</title>
    <desc>Created with Sketch.</desc>
    <defs>
        <polygon id="path-1" points="11.700641 61 -6.77626358e-21 61 -6.77626358e-21 0.934 59.971 0.934 59.971 61 11.700641 61 23.4012819 61 23.4012819 22.0727389 -3.41641825e-05 22.0727389 -3.41641825e-05 61"></polygon>
        <polygon id="path-3" points="35.971 0.0729477173 35.971 39 17.998194 39 0.0253879351 39 0.0253879351 0.0729477173 35.971 0.0729477173"></polygon>
        <polygon id="path-5" points="0.9854 0.934 3.9854 0.934 3.9854 9.9336 0.9854 9.9336 0.9854 0.934"></polygon>
    </defs>
    <g id="Icon/-Health-plan-options" stroke="none" stroke-width="1" fill="none" fill-rule="evenodd">
        <g id="Health-plan-options">
            <path d="M11.0147,48.46 C10.5137,48.46 10.0807,48.085 10.0227,47.575 C9.9587,47.026 10.3517,46.53 10.9007,46.467 L14.8697,46.007 C15.4257,45.939 15.9157,46.337 15.9787,46.885 C16.0417,47.434 15.6497,47.93 15.1007,47.993 L11.1307,48.453 C11.0917,48.458 11.0527,48.46 11.0147,48.46" id="Fill-1" fill="#D3E5EF"></path>
            <path d="M14.9854,41.4101 C14.1854,41.0191 8.3654,38.0401 7.9354,34.0701 C7.7254,32.0991 9.0054,30.3601 10.7954,30.1601 C12.3054,30.0001 13.6954,30.9901 14.2254,32.4801 C14.3154,31.7901 14.5854,31.1501 14.9854,30.6501 L14.9854,41.4101 Z" id="Fill-3" fill="#D3E5EF"></path>
            <path d="M48.8838,48.46 C48.8458,48.46 48.8068,48.458 48.7678,48.453 L44.7978,47.993 C44.2488,47.93 43.8568,47.434 43.9198,46.885 C43.9838,46.337 44.4808,45.94 45.0288,46.007 L48.9978,46.467 C49.5468,46.53 49.9398,47.026 49.8758,47.575 C49.8178,48.085 49.3848,48.46 48.8838,48.46" id="Fill-5" fill="#D3E5EF"></path>
            <path d="M44.9131,30.6504 C45.3121,31.1504 45.5831,31.7904 45.6731,32.4804 C46.2031,30.9904 47.5931,30.0004 49.1021,30.1604 C50.8921,30.3604 52.1731,32.0994 51.9631,34.0704 C51.5331,38.0404 45.7131,41.0194 44.9131,41.4104 L44.9131,30.6504 Z" id="Fill-7" fill="#D3E5EF"></path>
            <g id="Group-11" transform="translate(0.000000, 0.066400)">
                <mask id="mask-2" fill="white">
                    <use xlink:href="#path-1"></use>
                </mask>
                <g id="Clip-10"></g>
                <path d="M7.1944,61 C6.5374,61 5.9014,60.785 5.3714,60.379 C4.7324,59.89 4.3254,59.184 4.2234,58.391 L0.0244,26.675 C-0.1846,25.037 0.9704,23.526 2.5994,23.303 L11.8544,22.082 C12.3994,22.007 12.9044,22.396 12.9764,22.942 C13.0484,23.49 12.6644,23.992 12.1164,24.064 L2.8664,25.285 C2.3254,25.359 1.9374,25.867 2.0074,26.417 L6.2074,58.133 C6.2414,58.396 6.3764,58.629 6.5884,58.791 C6.8004,58.955 7.0664,59.028 7.3274,58.991 L22.2704,57.016 C22.8184,56.943 23.3204,57.329 23.3924,57.876 C23.4654,58.423 23.0804,58.926 22.5324,58.998 L7.5864,60.975 C7.4554,60.991 7.3244,61 7.1944,61" id="Fill-9" fill="#4F5661" mask="url(#mask-2)"></path>
            </g>
            <g id="Group-14" transform="translate(24.000000, 22.066400)">
                <mask id="mask-4" fill="white">
                    <use xlink:href="#path-3"></use>
                </mask>
                <g id="Clip-13"></g>
                <path d="M28.7764,39 C28.6474,39 28.5174,38.992 28.3874,38.976 L2.6034,35.564 C1.3004,35.387 0.2724,34.4 0.0414,33.109 C-0.0566,32.566 0.3054,32.047 0.8494,31.949 C1.3954,31.853 1.9124,32.214 2.0094,32.757 C2.0864,33.185 2.4404,33.523 2.8714,33.582 L28.6464,36.992 C28.9114,37.021 29.1714,36.954 29.3824,36.791 C29.5944,36.629 29.7294,36.396 29.7624,36.137 L33.9634,4.413 C34.0334,3.867 33.6454,3.359 33.0994,3.285 L23.8544,2.064 C23.3064,1.992 22.9224,1.49 22.9944,0.942 C23.0664,0.396 23.5564,0.008 24.1164,0.082 L33.3664,1.303 C35.0004,1.526 36.1554,3.037 35.9474,4.671 L31.7464,36.395 C31.6454,37.184 31.2384,37.89 30.5994,38.379 C30.0694,38.785 29.4334,39 28.7764,39" id="Fill-12" fill="#4F5661" mask="url(#mask-4)"></path>
            </g>
            <path d="M16.9854,17 C16.4334,17 15.9854,17.448 15.9854,18 L15.9854,50 C15.9854,50.552 16.4334,51 16.9854,51 L42.9854,51 C43.5374,51 43.9854,50.552 43.9854,50 L43.9854,18 C43.9854,17.448 43.5374,17 42.9854,17 L16.9854,17 Z M42.9854,53 L16.9854,53 C15.3314,53 13.9854,51.654 13.9854,50 L13.9854,18 C13.9854,16.346 15.3314,15 16.9854,15 L42.9854,15 C44.6394,15 45.9854,16.346 45.9854,18 L45.9854,50 C45.9854,51.654 44.6394,53 42.9854,53 Z" id="Fill-15" fill="#4F5661"></path>
            <g id="Group-19" transform="translate(28.000000, 0.066400)">
                <mask id="mask-6" fill="white">
                    <use xlink:href="#path-5"></use>
                </mask>
                <g id="Clip-18"></g>
                <path d="M2.4854,9.9336 C1.6574,9.9336 0.9854,9.2616 0.9854,8.4336 L0.9854,2.4336 C0.9854,1.6056 1.6574,0.9336 2.4854,0.9336 C3.3134,0.9336 3.9854,1.6056 3.9854,2.4336 L3.9854,8.4336 C3.9854,9.2616 3.3134,9.9336 2.4854,9.9336" id="Fill-17" fill="#D3E5EF" mask="url(#mask-6)"></path>
            </g>
            <path d="M19.4863,12 C18.9363,12 18.4063,11.696 18.1433,11.171 L16.1433,7.171 C15.7733,6.43 16.0733,5.529 16.8143,5.158 C17.5573,4.79 18.4573,5.089 18.8273,5.829 L20.8273,9.829 C21.1973,10.57 20.8973,11.471 20.1563,11.842 C19.9403,11.949 19.7123,12 19.4863,12" id="Fill-20" fill="#D3E5EF"></path>
            <path d="M41.4844,11.5 C41.2314,11.5 40.9754,11.437 40.7414,11.303 C40.0214,10.892 39.7714,9.975 40.1824,9.256 L42.1824,5.756 C42.5944,5.037 43.5134,4.789 44.2294,5.197 C44.9494,5.608 45.1994,6.525 44.7884,7.244 L42.7884,10.744 C42.5104,11.229 42.0054,11.5 41.4844,11.5" id="Fill-22" fill="#D3E5EF"></path>
            <path d="M30.1651,38 C30.1651,38 39.8861,32.122 39.8861,25.51 C39.8861,22.467 37.6321,20 34.8521,20 C32.5111,20 30.5491,21.752 29.9851,24.121 C29.4221,21.752 27.4601,20 25.1191,20 C22.3391,20 20.0851,22.467 20.0851,25.51 C20.0851,32.122 29.8061,38 29.8061,38" id="Fill-24" fill="#F4877A"></path>
            <path d="M35.9854,44 L23.9854,44 C23.4324,44 22.9854,43.553 22.9854,43 C22.9854,42.447 23.4324,42 23.9854,42 L35.9854,42 C36.5384,42 36.9854,42.447 36.9854,43 C36.9854,43.553 36.5384,44 35.9854,44" id="Fill-26" fill="#D3E5EF"></path>
            <path d="M33.9854,48 L25.9854,48 C25.4324,48 24.9854,47.553 24.9854,47 C24.9854,46.447 25.4324,46 25.9854,46 L33.9854,46 C34.5384,46 34.9854,46.447 34.9854,47 C34.9854,47.553 34.5384,48 33.9854,48" id="Fill-28" fill="#D3E5EF"></path>
        </g>
    </g>
</svg>