<?xml version="1.0" encoding="UTF-8"?>
<svg width="60px" height="60px" viewBox="0 0 60 60" version="1.1" xmlns="http://www.w3.org/2000/svg" xmlns:xlink="http://www.w3.org/1999/xlink">
    <!-- Generator: Sketch 49.3 (51167) - http://www.bohemiancoding.com/sketch -->
    <title>Icon/ Head Start</title>
    <desc>Created with Sketch.</desc>
    <defs>
        <polygon id="path-1" points="8.8817842e-16 23.9999 8.8817842e-16 0.8079 59.9997 0.8079 59.9997 23.9999"></polygon>
    </defs>
    <g id="Icon/-Head-Start" stroke="none" stroke-width="1" fill="none" fill-rule="evenodd">
        <g id="Page-1">
            <path d="M14.75,6.5 C8.271,6.5 3,12.012 3,18.786 L3,58.5 C3,59.328 3.672,60 4.5,60 L25,60 C25.828,60 26.5,59.328 26.5,58.5 L26.5,18.786 C26.5,12.012 21.229,6.5 14.75,6.5" id="Fill-1" fill="#D3E5EF"></path>
            <path d="M44.5,5.4619 L35.36,7.8399 C34.994,4.6839 36.286,1.9019 38.547,1.3149 C40.798,0.7289 43.281,2.5269 44.5,5.4619" id="Fill-3" fill="#53C27C"></path>
            <path d="M45.7305,7.2461 L34.5795,7.2461 L45.7305,7.2461 Z" id="Fill-5" fill="#D3E5EF"></path>
            <path d="M30.9385,60 C30.6465,60 30.3585,59.873 30.1605,59.63 L28.1075,57.096 C27.7595,56.666 27.8265,56.036 28.2545,55.688 C28.6865,55.342 29.3135,55.408 29.6625,55.836 L31.7145,58.37 C32.0625,58.8 31.9965,59.43 31.5675,59.777 C31.3815,59.927 31.1595,60 30.9385,60" id="Fill-7" fill="#4F5661"></path>
            <path d="M18.0166,30.7617 C16.7996,30.7617 15.5796,30.6787 14.4076,30.4787 C13.5906,30.3397 13.0406,29.5647 13.1806,28.7477 C13.3206,27.9317 14.1016,27.3837 14.9116,27.5217 C20.9146,28.5427 28.7756,25.9727 28.8536,25.9457 C29.6326,25.6867 30.4876,26.1107 30.7486,26.8967 C31.0106,27.6827 30.5846,28.5317 29.7996,28.7927 C29.5106,28.8887 23.7966,30.7617 18.0166,30.7617" id="Fill-9" fill="#53C27C"></path>
            <path d="M19.3672,36.624 C19.1772,36.624 18.9862,36.622 18.7942,36.618 C17.9662,36.601 17.3082,35.916 17.3252,35.087 C17.3442,34.259 18.0382,33.629 18.8562,33.618 C23.9892,33.753 28.5072,32.159 28.5522,32.143 C29.3322,31.866 30.1892,32.274 30.4662,33.056 C30.7422,33.836 30.3352,34.692 29.5552,34.97 C29.3582,35.04 24.8362,36.624 19.3672,36.624" id="Fill-11" fill="#53C27C"></path>
            <path d="M19.0117,24.2666 C18.8227,24.2666 18.6317,24.2646 18.4397,24.2606 C17.6117,24.2436 16.9537,23.5586 16.9707,22.7296 C16.9887,21.9006 17.6627,21.2656 18.5017,21.2606 C23.6667,21.3836 28.1507,19.7996 28.1957,19.7856 C28.9747,19.5036 29.8327,19.9136 30.1117,20.6956 C30.3887,21.4766 29.9817,22.3336 29.2007,22.6116 C29.0047,22.6816 24.4817,24.2666 19.0117,24.2666" id="Fill-13" fill="#53C27C"></path>
            <path d="M40.1543,15.6152 C37.5673,15.6152 35.4623,12.5612 35.4623,8.8072 C35.4623,8.6012 35.4703,8.3982 35.4833,8.1972 C35.5733,8.2232 35.6653,8.2462 35.7613,8.2462 C35.8213,8.2462 35.8813,8.2412 35.9413,8.2292 L44.6033,6.6542 C44.7593,7.3322 44.8473,8.0542 44.8473,8.8072 C44.8473,9.6722 44.7313,10.4962 44.5283,11.2582 L42.1193,11.7432 C41.5433,11.8592 41.2503,12.5542 41.6153,13.0182 C42.0123,13.5252 42.6333,13.8612 43.1293,14.0682 C42.3193,15.0342 41.2823,15.6152 40.1543,15.6152 M40.1543,2.0002 C41.6933,2.0002 43.0563,3.0842 43.9133,4.7482 L35.8163,6.2202 C36.5193,3.7472 38.1983,2.0002 40.1543,2.0002 M56.3923,15.8372 C55.1403,15.0432 53.4093,15.1272 52.1783,16.0392 C50.8413,17.0272 47.8323,18.7402 45.2453,19.6852 C44.4783,18.4912 43.4713,17.6542 42.2473,17.1682 C44.9153,16.0092 46.8473,12.7022 46.8473,8.8072 C46.8473,7.9352 46.7473,7.0942 46.5673,6.2982 L50.2563,5.6272 C50.8003,5.5282 51.1603,5.0082 51.0603,4.4652 C50.9633,3.9212 50.4433,3.5532 49.8983,3.6602 L45.9313,4.3822 C44.7693,1.7652 42.6183,0.0002 40.1543,0.0002 C36.4643,0.0002 33.4623,3.9512 33.4623,8.8072 C33.4623,12.5732 35.2703,15.7862 37.8013,17.0432 C36.4783,17.5682 35.4003,18.6702 34.6163,20.3462 C32.2953,25.3922 33.4423,34.2212 33.4923,34.5942 C33.5593,35.0962 33.9893,35.4622 34.4823,35.4622 C34.5263,35.4622 34.5713,35.4592 34.6163,35.4532 C35.1633,35.3802 35.5483,34.8772 35.4743,34.3292 C35.4633,34.2432 34.3513,25.7082 36.4113,21.2272 C36.4183,21.2152 36.4593,21.1232 36.4663,21.1102 C37.3383,19.2452 38.5643,18.4862 40.3373,18.7212 C41.9463,18.9322 43.1093,19.7922 43.8923,21.3482 C44.1133,21.7862 44.6203,21.9982 45.0853,21.8522 C48.1573,20.8892 51.8433,18.7732 53.3683,17.6462 C53.9313,17.2282 54.7713,17.1772 55.3213,17.5262 C55.5933,17.6992 55.7533,17.9432 55.7673,18.2152 C55.7853,18.5212 55.6193,18.8392 55.3133,19.0852 C55.1663,19.2042 54.9983,19.3202 54.8163,19.4472 C54.6193,19.5852 54.4093,19.7312 54.1933,19.8972 C47.1553,25.2632 42.5833,25.9642 40.8053,24.9332 C39.7793,24.3372 39.7023,23.1812 39.8183,22.3162 C39.8913,21.7692 39.5083,21.2652 38.9603,21.1922 C38.4113,21.1242 37.9093,21.5032 37.8363,22.0512 C37.5613,24.0962 38.2773,25.7772 39.8003,26.6632 C41.1343,27.4362 42.9113,27.5472 45.0163,27.0462 C45.0663,30.7212 44.2873,34.2002 44.2783,34.2392 C44.1553,34.7772 44.4923,35.3132 45.0303,35.4362 C45.1053,35.4542 45.1793,35.4622 45.2543,35.4622 C45.7103,35.4622 46.1223,35.1482 46.2273,34.6842 C46.2683,34.5102 47.1563,30.5602 47.0043,26.4272 C49.4973,25.4802 52.3413,23.8252 55.4073,21.4862 C55.6003,21.3392 55.7873,21.2092 55.9623,21.0872 C56.1833,20.9312 56.3873,20.7882 56.5673,20.6432 C57.3823,19.9882 57.8183,19.0622 57.7643,18.1022 C57.7133,17.1832 57.2133,16.3572 56.3923,15.8372" id="Fill-15" fill="#4F5661"></path>
            <path d="M54.8936,54.3193 L48.7246,57.5073 C47.8546,57.9583 46.7796,57.7163 46.1966,56.9303 C42.4896,51.9363 41.0286,44.3193 41.0286,44.3193 L37.2136,50.1473 C36.8696,50.6733 36.4286,51.1313 35.9146,51.4943 L28.8846,56.4653 L27.2396,54.1883 C26.3556,53.3133 26.4766,51.8523 27.4926,51.1343 L33.3526,46.9903 L35.5776,37.8073 L44.9376,37.8073 C48.4996,50.9373 51.9996,55.7823 51.9996,55.7823" id="Fill-17" fill="#D3E5EF"></path>
            <g id="Group-21" transform="translate(0.000000, 36.000000)">
                <mask id="mask-2" fill="white">
                    <use xlink:href="#path-1"></use>
                </mask>
                <g id="Clip-20"></g>
                <path d="M42.0107,8.1309 C41.9337,7.7309 41.6207,7.4169 41.2217,7.3389 C41.1567,7.3249 41.0927,7.3189 41.0287,7.3189 C40.6957,7.3189 40.3787,7.4859 40.1917,7.7719 L36.3767,13.5999 C36.0997,14.0239 35.7497,14.3859 35.3377,14.6779 L29.1147,19.0779 L28.0497,17.6029 C28.0177,17.5589 27.9817,17.5169 27.9427,17.4779 C27.6547,17.1929 27.6357,16.8589 27.6507,16.6859 C27.6637,16.5119 27.7387,16.1859 28.0697,15.9509 L33.9297,11.8069 C34.1267,11.6669 34.2677,11.4609 34.3237,11.2259 L36.3647,2.8079 L44.1747,2.8079 C46.8467,12.4319 49.4447,17.4819 50.5867,19.4189 L48.2647,20.6199 C47.8287,20.8429 47.2847,20.7219 46.9987,20.3349 C43.4757,15.5879 42.0247,8.2049 42.0107,8.1309 M58.9997,21.9999 L49.9507,21.9999 L55.3527,19.2079 C55.8437,18.9539 56.0347,18.3509 55.7817,17.8599 C55.5287,17.3699 54.9247,17.1779 54.4347,17.4309 L52.3707,18.4979 C51.3347,16.7489 48.6297,11.5979 45.9027,1.5459 C45.7837,1.1099 45.3887,0.8079 44.9377,0.8079 L35.5767,0.8079 C35.1147,0.8079 34.7137,1.1239 34.6057,1.5719 L32.4687,10.3909 L26.9147,14.3179 C26.1887,14.8309 25.7307,15.6339 25.6567,16.5209 C25.5857,17.3759 25.8827,18.2149 26.4727,18.8339 L28.0737,21.0519 C28.3947,21.4949 29.0147,21.5999 29.4617,21.2819 L36.4917,16.3109 C37.1107,15.8729 37.6347,15.3299 38.0507,14.6949 L40.5937,10.8089 C41.3257,13.5199 42.8357,18.0809 45.3937,21.5269 C45.5267,21.7049 45.6787,21.8599 45.8397,21.9999 L0.9997,21.9999 C0.4477,21.9999 -0.0003,22.4469 -0.0003,22.9999 C-0.0003,23.5529 0.4477,23.9999 0.9997,23.9999 L58.9997,23.9999 C59.5527,23.9999 59.9997,23.5529 59.9997,22.9999 C59.9997,22.4469 59.5527,21.9999 58.9997,21.9999" id="Fill-19" fill="#4F5661" mask="url(#mask-2)"></path>
            </g>
        </g>
    </g>
</svg>