<?xml version="1.0" encoding="UTF-8"?>
<svg width="58px" height="61px" viewBox="0 0 58 61" version="1.1" xmlns="http://www.w3.org/2000/svg" xmlns:xlink="http://www.w3.org/1999/xlink">
    <!-- Generator: Sketch 49.3 (51167) - http://www.bohemiancoding.com/sketch -->
    <title>Icon/ Healthcare</title>
    <desc>Created with Sketch.</desc>
    <defs></defs>
    <g id="Icon/-Healthcare" stroke="none" stroke-width="1" fill="none" fill-rule="evenodd">
        <g id="Healthcare" transform="translate(-1.000000, -1.000000)">
            <polygon id="Fill-1" fill="#EA5C6D" points="36.9747 61 37.0057 61 36.9897 60.985"></polygon>
            <g id="Group-18">
                <path d="M30.3701,52.5171 C30.3701,52.5171 50.3651,40.5931 50.3651,27.1791 C50.3651,21.0051 45.7291,16.0001 40.0101,16.0001 C35.1941,16.0001 31.1591,19.5531 30.0001,24.3601 C28.8411,19.5531 24.8061,16.0001 19.9901,16.0001 C14.2701,16.0001 9.6351,21.0051 9.6351,27.1791 C9.6351,40.5931 29.6301,52.5171 29.6301,52.5171" id="Fill-2" fill="#F4877A"></path>
                <path d="M19.9902,20.6206 C16.8282,20.6206 14.2562,23.5626 14.2562,27.1786" id="Stroke-4" stroke="#FFFFFF" stroke-width="2"></path>
                <path d="M33.0628073,43.092812 C33.4030872,44.0070805 34.7171997,43.9428752 34.9667325,42.9997895 L39.1382526,27.2339223 L43.063851,36.3939099 C43.2214275,36.7615988 43.5829682,37 43.983,37 L59,37 C59.5522847,37 60,36.5522847 60,36 C60,35.4477153 59.5522847,35 59,35 L44.6424035,35 L39.833149,23.7780901 C39.4585816,22.9040748 38.1904968,22.9969483 37.9472675,23.9162105 L33.8387636,39.443914 L30.5691927,30.659188 C30.2641857,29.839691 29.1284268,29.778765 28.7375011,30.5609298 L26.5188553,35 L1,35 C0.44771525,35 0,35.4477153 0,36 C0,36.5522847 0.44771525,37 1,37 L27.137,37 C27.5158298,37 27.8621353,36.7859331 28.0314989,36.4470702 L29.4975844,33.513724 L33.0628073,43.092812 Z" id="Stroke-6" fill="#4B5E69" fill-rule="nonzero"></path>
                <path d="M10.0606602,11.9393398 L6.56066017,8.43933983 C5.97487373,7.85355339 5.02512627,7.85355339 4.43933983,8.43933983 C3.85355339,9.02512627 3.85355339,9.97487373 4.43933983,10.5606602 L7.93933983,14.0606602 C8.52512627,14.6464466 9.47487373,14.6464466 10.0606602,14.0606602 C10.6464466,13.4748737 10.6464466,12.5251263 10.0606602,11.9393398 Z" id="Stroke-8" fill="#D3E5EF" fill-rule="nonzero"></path>
                <path d="M32,7.5 L32,1.5 C32,0.671572875 31.3284271,0 30.5,0 C29.6715729,0 29,0.671572875 29,1.5 L29,7.5 C29,8.32842712 29.6715729,9 30.5,9 C31.3284271,9 32,8.32842712 32,7.5 Z" id="Stroke-10" fill="#D3E5EF" fill-rule="nonzero"></path>
                <path d="M20.9044938,8.97331484 L17.9044938,0.973314838 C17.6136136,0.197634349 16.7489953,-0.195373949 15.9733148,0.0955062336 C15.1976343,0.386386417 14.8046261,1.25100467 15.0955062,2.02668516 L18.0955062,10.0266852 C18.3863864,10.8023657 19.2510047,11.1953739 20.0266852,10.9044938 C20.8023657,10.6136136 21.1953739,9.74899533 20.9044938,8.97331484 Z" id="Stroke-12" fill="#D3E5EF" fill-rule="nonzero"></path>
                <path d="M53.0606602,14.0606602 L56.5606602,10.5606602 C57.1464466,9.97487373 57.1464466,9.02512627 56.5606602,8.43933983 C55.9748737,7.85355339 55.0251263,7.85355339 54.4393398,8.43933983 L50.9393398,11.9393398 C50.3535534,12.5251263 50.3535534,13.4748737 50.9393398,14.0606602 C51.5251263,14.6464466 52.4748737,14.6464466 53.0606602,14.0606602 Z" id="Stroke-14" fill="#D3E5EF" fill-rule="nonzero"></path>
                <path d="M42.892715,9.55708601 L45.892715,2.05708601 C46.2003851,1.28791074 45.8262613,0.414955074 45.057086,0.107284964 C44.2879107,-0.200385146 43.4149551,0.17373871 43.107285,0.942913985 L40.107285,8.44291399 C39.7996149,9.21208926 40.1737387,10.0850449 40.942914,10.392715 C41.7120893,10.7003851 42.5850449,10.3262613 42.892715,9.55708601 Z" id="Stroke-16" fill="#D3E5EF" fill-rule="nonzero"></path>
            </g>
        </g>
    </g>
</svg>