<?xml version="1.0" encoding="UTF-8"?>
<svg width="60px" height="60px" viewBox="0 0 60 60" version="1.1" xmlns="http://www.w3.org/2000/svg" xmlns:xlink="http://www.w3.org/1999/xlink">
    <!-- Generator: Sketch 49.3 (51167) - http://www.bohemiancoding.com/sketch -->
    <title>Icon/ Help</title>
    <desc>Created with Sketch.</desc>
    <defs></defs>
    <g id="Icon/-Help" stroke="none" stroke-width="1" fill="none" fill-rule="evenodd">
        <g id="Page-1">
            <path d="M38.7537,48.1523 C34.9657,54.6443 27.9317,59.0003 19.8807,59.0003 C11.8207,59.0003 4.7787,54.6353 0.9997,48.1353 L4.5417,44.4913 C5.9407,42.6013 8.4657,41.4583 10.5587,41.2463 L13.9747,41.2463 L17.6867,47.6103 C18.6687,49.2883 21.0927,49.2883 22.0757,47.6103 L25.7877,41.2463 L29.2027,41.2463 C31.2957,41.4653 33.8137,42.6103 35.2027,44.5003 L38.7537,48.1523 Z" id="Fill-1" fill="#D3E5EF"></path>
            <path d="M57.3817,22 L40.8817,22 C40.3287,22 39.8817,22.447 39.8817,23 L39.8817,36.571 C39.8817,37.871 41.0027,38.929 42.3817,38.929 L53.9967,38.929 L58.2107,42.741 C58.3987,42.911 58.6387,43 58.8817,43 C59.0197,43 59.1567,42.972 59.2867,42.914 C59.6487,42.754 59.8817,42.396 59.8817,42 L59.8817,24.357 C59.8817,23.058 58.7607,22 57.3817,22" id="Fill-3" fill="#D3E5EF"></path>
            <g id="Group-7" transform="translate(0.000000, 40.000000)" fill="#4F5661">
                <path d="M19.8807,20 C11.7767,20 4.2097,15.646 0.1357,8.639 C-0.0903,8.251 -0.0293,7.761 0.2827,7.438 L3.7787,3.841 C5.5347,1.514 8.4677,0.453 10.4577,0.251 C11.0177,0.206 11.4967,0.597 11.5537,1.146 C11.6097,1.695 11.2087,2.186 10.6587,2.241 C8.9337,2.416 6.6207,3.363 5.3457,5.086 C5.3187,5.122 5.2897,5.156 5.2587,5.188 L2.2557,8.278 C6.0537,14.294 12.7377,18 19.8807,18 C27.0117,18 33.6927,14.3 37.4967,8.294 L34.4857,5.197 C34.4537,5.164 34.4247,5.129 34.3977,5.093 C33.1337,3.374 30.8247,2.422 29.0987,2.24 C28.5497,2.183 28.1517,1.691 28.2087,1.142 C28.2667,0.592 28.7637,0.194 29.3077,0.252 C31.2967,0.461 34.2247,1.528 35.9657,3.851 L39.4707,7.455 C39.7837,7.777 39.8437,8.269 39.6167,8.656 C35.5347,15.653 27.9727,20 19.8807,20" id="Fill-5"></path>
            </g>
            <path d="M19.8807,34.5762 C18.3157,34.5762 16.8597,33.7342 16.0817,32.3802 C15.8067,31.9012 15.9727,31.2902 16.4507,31.0142 C16.9307,30.7402 17.5417,30.9042 17.8167,31.3842 C18.2387,32.1192 19.0297,32.5762 19.8807,32.5762 C20.7437,32.5762 21.5167,32.1302 21.9457,31.3832 C22.2227,30.9052 22.8327,30.7412 23.3127,31.0142 C23.7907,31.2912 23.9557,31.9022 23.6807,32.3812 C22.9017,33.7352 21.4447,34.5762 19.8807,34.5762" id="Fill-8" fill="#4F5661"></path>
            <path d="M7.7713,31.6904 C7.6663,31.6904 7.5583,31.6734 7.4523,31.6374 C4.6853,30.7064 2.8283,28.9234 2.3563,26.7474 C1.9113,24.6924 2.7143,22.5804 4.6193,20.7994 C5.2933,20.1674 5.2943,19.3334 5.2413,18.0254 C5.1623,16.0884 5.0523,13.4354 9.3453,12.4364 C11.9343,11.8374 13.3203,10.6754 14.6613,9.5524 C16.1583,8.2974 17.7073,7.0004 20.5723,7.0004 C23.3663,7.0004 24.7413,8.7354 25.8463,10.1284 C26.8563,11.4034 27.6543,12.4104 29.3323,12.4104 C29.5583,12.4104 29.7743,12.4124 29.9903,12.4354 C30.5393,12.4954 30.9353,12.9884 30.8753,13.5384 C30.8163,14.0864 30.3233,14.4854 29.7733,14.4234 C29.6283,14.4074 29.4823,14.4104 29.3323,14.4104 C26.6873,14.4104 25.4083,12.7954 24.2793,11.3714 C23.2283,10.0464 22.3993,9.0004 20.5723,9.0004 C18.4333,9.0004 17.3903,9.8754 15.9453,11.0864 C14.5673,12.2414 12.8523,13.6784 9.7973,14.3844 C7.1193,15.0074 7.1643,16.1134 7.2393,17.9434 C7.2943,19.2914 7.3633,20.9664 5.9863,22.2594 C4.6153,23.5414 4.0203,24.9844 4.3113,26.3244 C4.6293,27.7944 6.0073,29.0414 8.0903,29.7434 C8.6143,29.9194 8.8953,30.4864 8.7183,31.0094 C8.5783,31.4264 8.1893,31.6904 7.7713,31.6904" id="Fill-10" fill="#4F5661"></path>
            <path d="M32.6629,32 C32.3659,32 32.0729,31.869 31.8759,31.618 C31.5339,31.184 31.6099,30.555 32.0439,30.214 C35.2769,27.673 34.9349,26.415 34.8069,25.942 C34.6609,25.409 34.9759,24.859 35.5089,24.715 C36.0399,24.566 36.5909,24.884 36.7359,25.417 C37.3029,27.498 36.2359,29.462 33.2799,31.786 C33.0969,31.931 32.8789,32 32.6629,32" id="Fill-12" fill="#4F5661"></path>
            <path d="M19.033,37.9658 L20.728,37.9658 C21.112,37.9658 21.424,38.2778 21.424,38.6608 C21.424,39.0448 21.112,39.3568 20.728,39.3568 L19.033,39.3568 C18.65,39.3568 18.339,39.0448 18.339,38.6608 C18.339,38.2778 18.65,37.9658 19.033,37.9658 M30.449,21.1758 C30.177,20.9898 29.833,20.9458 29.524,21.0668 C29.139,21.2128 28.734,21.3878 28.306,21.5728 C26.222,22.4738 23.86,23.4918 20.658,22.7288 C17.728,22.0148 15.495,20.8088 14.138,19.9228 C13.908,19.7718 13.628,19.7228 13.357,19.7868 C13.09,19.8518 12.86,20.0248 12.723,20.2628 C12.127,21.3058 11.415,21.9998 9.882,21.9998 C9.329,21.9998 8.882,22.4468 8.882,22.9998 L8.882,31.2398 C8.882,35.5828 13.174,38.9668 16.503,39.5558 C16.874,40.6008 17.862,41.3568 19.033,41.3568 L20.728,41.3568 C22.215,41.3568 23.424,40.1478 23.424,38.6608 C23.424,37.1748 22.215,35.9658 20.728,35.9658 L19.033,35.9658 C17.949,35.9658 17.018,36.6128 16.592,37.5378 C14.081,36.9788 10.882,34.3168 10.882,31.2398 L10.882,23.9108 C12.344,23.6668 13.271,22.9108 13.887,22.1198 C15.388,23.0038 17.526,24.0248 20.189,24.6728 C23.915,25.5598 26.768,24.4128 28.882,23.5028 L28.882,30.7498 C28.882,33.1058 27.06,35.0678 25.357,36.1178 C25.061,36.3008 24.882,36.6228 24.882,36.9698 L24.882,40.7118 L20.679,47.4028 C20.491,47.6958 20.183,47.8678 19.834,47.8738 C19.506,47.9088 19.172,47.7198 19.002,47.4748 L14.803,40.6748 C14.513,40.2038 13.895,40.0578 13.427,40.3498 C12.957,40.6398 12.811,41.2558 13.101,41.7258 L17.328,48.5678 C17.893,49.3888 18.82,49.8738 19.815,49.8738 L19.869,49.8738 C20.885,49.8568 21.817,49.3348 22.368,48.4728 L26.728,41.5318 C26.829,41.3728 26.882,41.1888 26.882,40.9998 L26.882,37.5098 C28.895,36.1108 30.882,33.6968 30.882,30.7498 L30.882,21.9998 C30.882,21.6708 30.72,21.3628 30.449,21.1758" id="Fill-14" fill="#4F5661"></path>
            <path d="M49.8817,33 C49.3287,33 48.8817,32.553 48.8817,32 L48.8817,31.408 C48.8817,30.397 49.5817,29.499 50.6637,29.12 C51.3607,28.876 52.0277,28.218 51.8537,27.347 C51.7247,26.705 51.0607,26.151 50.2737,26.03 C49.5857,25.923 48.9097,26.1 48.4327,26.51 C48.0767,26.814 47.8817,27.211 47.8817,27.625 C47.8817,28.178 47.4347,28.625 46.8817,28.625 C46.3287,28.625 45.8817,28.178 45.8817,27.625 C45.8817,26.633 46.3367,25.673 47.1297,24.992 C48.0517,24.201 49.3077,23.856 50.5767,24.054 C52.1907,24.302 53.5217,25.494 53.8147,26.952 C54.1597,28.676 53.1127,30.381 51.3247,31.007 C51.0687,31.098 50.8817,31.266 50.8817,31.408 L50.8817,32 C50.8817,32.553 50.4347,33 49.8817,33" id="Fill-16" fill="#FFFFFF"></path>
            <path d="M49.8817,35 C49.6067,35 49.3817,35.225 49.3817,35.5 C49.3817,35.775 49.6067,36 49.8817,36 C50.1567,36 50.3817,35.775 50.3817,35.5 C50.3817,35.225 50.1567,35 49.8817,35 M49.8817,37 C49.0547,37 48.3817,36.327 48.3817,35.5 C48.3817,34.673 49.0547,34 49.8817,34 C50.7087,34 51.3817,34.673 51.3817,35.5 C51.3817,36.327 50.7087,37 49.8817,37" id="Fill-18" fill="#FFFFFF"></path>
            <path d="M53.8817,0 L35.3817,0 C34.0027,0 32.8817,1.058 32.8817,2.357 L32.8817,22 C32.8817,22.396 33.1147,22.754 33.4767,22.914 C33.6067,22.972 33.7437,23 33.8817,23 C34.1247,23 34.3647,22.911 34.5527,22.741 L38.7667,18.929 L52.3817,18.929 C53.7607,18.929 54.8817,17.871 54.8817,16.571 L54.8817,1 C54.8817,0.447 54.4347,0 53.8817,0" id="Fill-20" fill="#53C27C"></path>
            <polygon id="Fill-22" fill="#FFFFFF" points="51.0096 5.4736 49.0756 3.6006 42.6346 10.2446 39.4446 7.3136 37.6446 9.3156 42.0136 13.3056 42.0196 13.2996 42.7416 13.9996"></polygon>
        </g>
    </g>
</svg>