<?xml version="1.0" encoding="UTF-8"?>
<svg width="58px" height="59px" viewBox="0 0 58 59" version="1.1" xmlns="http://www.w3.org/2000/svg" xmlns:xlink="http://www.w3.org/1999/xlink">
    <!-- Generator: Sketch 49.3 (51167) - http://www.bohemiancoding.com/sketch -->
    <title>Icon/ Home Office</title>
    <desc>Created with Sketch.</desc>
    <defs></defs>
    <g id="Icon/-Home-Office" stroke="none" stroke-width="1" fill="none" fill-rule="evenodd">
        <g id="Page-1">
            <path d="M56.4335,56.4949 C56.4335,57.8759 44.3455,58.9949 29.4335,58.9949 C14.5215,58.9949 2.4335,57.8759 2.4335,56.4949 C2.4335,55.1139 14.5215,53.9949 29.4335,53.9949 C44.3455,53.9949 56.4335,55.1139 56.4335,56.4949" id="Fill-1" fill="#D3E5EF"></path>
            <path d="M30.4335,53.9949 C30.4335,54.5479 29.9865,54.9949 29.4335,54.9949 C28.8805,54.9949 28.4335,54.5479 28.4335,53.9949 C28.4335,53.4429 28.8805,52.9949 29.4335,52.9949 C29.9865,52.9949 30.4335,53.4429 30.4335,53.9949" id="Fill-3" fill="#4F5661"></path>
            <path d="M21.9335,53.9949 C21.9335,54.5479 21.4865,54.9949 20.9335,54.9949 C20.3805,54.9949 19.9335,54.5479 19.9335,53.9949 C19.9335,53.4429 20.3805,52.9949 20.9335,52.9949 C21.4865,52.9949 21.9335,53.4429 21.9335,53.9949" id="Fill-5" fill="#4F5661"></path>
            <path d="M38.9335,53.9949 C38.9335,54.5479 38.4865,54.9949 37.9335,54.9949 C37.3805,54.9949 36.9335,54.5479 36.9335,53.9949 C36.9335,53.4429 37.3805,52.9949 37.9335,52.9949 C38.4865,52.9949 38.9335,53.4429 38.9335,53.9949" id="Fill-7" fill="#4F5661"></path>
            <path d="M48.5585,4.9949 L43.3085,4.9949 C42.2745,4.9949 41.4335,5.8279 41.4335,6.8519 L41.4335,11.9949 C41.4335,12.5479 41.8805,12.9949 42.4335,12.9949 C42.7385,12.9949 43.0005,12.8519 43.1835,12.6389 L48.4335,17.1389 L48.4335,17.9949 C48.4335,18.5479 48.8805,18.9949 49.4335,18.9949 C49.9865,18.9949 50.4335,18.5479 50.4335,17.9949 L50.4335,6.8519 C50.4335,5.8279 49.5925,4.9949 48.5585,4.9949" id="Fill-9" fill="#F4877A"></path>
            <g id="Group-13" transform="translate(0.000000, 0.995000)" fill="#4F5661">
                <path d="M53.6933,25.5907 L30.0763,5.7917 C29.7113,5.4867 29.1773,5.4797 28.8063,5.7787 L4.1863,25.6067 L2.4213,23.4997 L28.8723,2.1967 C29.1993,1.9367 29.6713,1.9367 29.9803,2.1867 L55.4583,23.4857 L53.6933,25.5907 Z M57.5083,22.5927 L31.2493,0.6407 C30.1983,-0.2073 28.6693,-0.2063 27.6183,0.6397 L0.3733,22.5807 C0.1643,22.7497 0.0313,22.9947 0.0053,23.2627 C-0.0217,23.5297 0.0603,23.7967 0.2333,24.0027 L3.2833,27.6427 C3.4803,27.8777 3.7643,27.9997 4.0503,27.9997 C4.2703,27.9997 4.4923,27.9277 4.6763,27.7787 L7.4333,25.5597 L7.4333,54.9997 C7.4333,55.5527 7.8803,55.9997 8.4333,55.9997 C8.9863,55.9997 9.4333,55.5527 9.4333,54.9997 L9.4333,23.9997 C9.4333,23.9847 9.4253,23.9717 9.4243,23.9557 L29.4213,7.8527 L48.4693,23.8217 C48.4583,23.8817 48.4333,23.9367 48.4333,23.9997 L48.4333,54.9997 C48.4333,55.5527 48.8813,55.9997 49.4333,55.9997 C49.9863,55.9997 50.4333,55.5527 50.4333,54.9997 L50.4333,25.4687 L53.1743,27.7667 C53.3783,27.9367 53.6413,28.0227 53.9053,27.9957 C54.1693,27.9727 54.4133,27.8457 54.5843,27.6427 L57.6333,24.0027 C57.8033,23.7987 57.8863,23.5357 57.8633,23.2717 C57.8393,23.0077 57.7123,22.7637 57.5083,22.5927 Z" id="Fill-11"></path>
            </g>
            <path d="M31.4335,30.9949 L27.4335,30.9949 C26.8805,30.9949 26.4335,30.5479 26.4335,29.9949 C26.4335,29.4429 26.8805,28.9949 27.4335,28.9949 L31.4335,28.9949 C31.9865,28.9949 32.4335,29.4429 32.4335,29.9949 C32.4335,30.5479 31.9865,30.9949 31.4335,30.9949" id="Fill-14" fill="#4F5661"></path>
            <path d="M30.4335,33.9949 L28.4335,33.9949 C27.8805,33.9949 27.4335,33.5479 27.4335,32.9949 C27.4335,32.4429 27.8805,31.9949 28.4335,31.9949 L30.4335,31.9949 C30.9865,31.9949 31.4335,32.4429 31.4335,32.9949 C31.4335,33.5479 30.9865,33.9949 30.4335,33.9949" id="Fill-16" fill="#4F5661"></path>
            <path d="M30.4335,36.9949 L28.4335,36.9949 C27.8805,36.9949 27.4335,36.5479 27.4335,35.9949 C27.4335,35.4429 27.8805,34.9949 28.4335,34.9949 L30.4335,34.9949 C30.9865,34.9949 31.4335,35.4429 31.4335,35.9949 C31.4335,36.5479 30.9865,36.9949 30.4335,36.9949" id="Fill-18" fill="#4F5661"></path>
            <path d="M31.3886,44.7078 L27.4786,44.7078 C25.0536,44.7078 23.4766,44.4028 22.4336,43.9588 C22.4346,43.0738 22.5066,41.9948 27.8696,41.9948 L30.9966,41.9948 C36.3606,41.9948 36.4326,43.0738 36.4336,43.9588 C35.3906,44.4028 33.8136,44.7078 31.3886,44.7078 M22.9836,30.0578 C22.7336,29.0038 22.8746,28.1278 23.4066,27.4558 C24.1286,26.5408 25.5686,25.9948 27.2546,25.9948 L28.2166,25.1458 C28.2886,25.6268 28.7036,25.9948 29.2046,25.9948 L31.4706,25.9948 C33.1586,25.9948 34.5966,26.5408 35.3206,27.4558 C35.8516,28.1278 35.9926,29.0038 35.7426,30.0578 C35.3916,31.5348 35.0376,32.6138 34.7256,33.5658 C34.1066,35.4518 33.6176,36.9418 33.6176,39.9948 C33.6176,40.0378 33.6366,40.0738 33.6426,40.1148 C32.8666,40.0368 31.9956,39.9948 30.9966,39.9948 L27.8696,39.9948 C26.8126,39.9948 25.8896,40.0378 25.0816,40.1268 C25.0876,40.0818 25.1086,40.0418 25.1086,39.9948 C25.1086,36.9418 24.6196,35.4518 24.0006,33.5658 C23.6886,32.6138 23.3346,31.5348 22.9836,30.0578 M41.4336,35.9948 L38.4336,35.9948 C37.8806,35.9948 37.4336,36.4418 37.4336,36.9948 C37.4336,37.5478 37.8806,37.9948 38.4336,37.9948 L38.4336,40.9448 C38.4336,41.3498 38.4276,41.8988 38.1716,42.4528 C37.7846,41.4688 36.9206,40.8268 35.4996,40.4438 C35.5696,40.3078 35.6176,40.1588 35.6176,39.9948 C35.6176,37.2618 36.0406,35.9738 36.6256,34.1888 C36.9506,33.1998 37.3186,32.0788 37.6886,30.5198 C38.1856,28.4278 37.5286,27.0248 36.8896,26.2158 C35.7736,24.8048 33.7986,23.9948 31.4706,23.9948 L29.2046,23.9948 C28.7036,23.9948 28.2886,24.3628 28.2166,24.8438 L27.2546,23.9948 C24.9276,23.9948 22.9526,24.8048 21.8366,26.2158 C21.1986,27.0238 20.5406,28.4278 21.0376,30.5198 C21.4086,32.0788 21.7766,33.1998 22.1006,34.1888 C22.6856,35.9738 23.1086,37.2618 23.1086,39.9948 C23.1086,40.1728 23.1666,40.3308 23.2476,40.4758 C21.8976,40.8628 21.0726,41.4958 20.6956,42.4528 C20.4396,41.8988 20.4336,41.3498 20.4336,40.9448 L20.4336,37.9948 C20.9866,37.9948 21.4336,37.5478 21.4336,36.9948 C21.4336,36.4418 20.9866,35.9948 20.4336,35.9948 L17.4336,35.9948 C16.8806,35.9948 16.4336,36.4418 16.4336,36.9948 C16.4336,37.5478 16.8806,37.9948 17.4336,37.9948 L18.4336,37.9948 L18.4336,40.9448 C18.4336,43.4188 19.3706,46.7078 27.4786,46.7078 L28.4336,46.7078 L28.4336,49.0418 C25.7556,49.1398 23.0896,49.6028 20.5366,50.4768 C20.1326,50.6148 19.8616,50.9948 19.8616,51.4228 L19.8616,52.3118 C19.3056,52.6678 18.9336,53.2878 18.9336,53.9948 C18.9336,55.0978 19.8306,55.9948 20.9336,55.9948 C22.0356,55.9948 22.9336,55.0978 22.9336,53.9948 C22.9336,53.2288 22.4946,52.5698 21.8616,52.2338 L21.8616,52.1468 C23.9936,51.4808 26.2086,51.1228 28.4336,51.0358 L28.4336,52.2728 C27.8386,52.6198 27.4336,53.2588 27.4336,53.9948 C27.4336,55.0978 28.3306,55.9948 29.4336,55.9948 C30.5356,55.9948 31.4336,55.0978 31.4336,53.9948 C31.4336,53.2588 31.0286,52.6198 30.4336,52.2728 L30.4336,51.0358 C32.6586,51.1228 34.8726,51.4808 37.0056,52.1468 L37.0056,52.2338 C36.3716,52.5698 35.9336,53.2288 35.9336,53.9948 C35.9336,55.0978 36.8306,55.9948 37.9336,55.9948 C39.0356,55.9948 39.9336,55.0978 39.9336,53.9948 C39.9336,53.2878 39.5616,52.6678 39.0056,52.3118 L39.0056,51.4228 C39.0056,50.9948 38.7346,50.6148 38.3296,50.4768 C35.7786,49.6018 33.1126,49.1388 30.4336,49.0418 L30.4336,46.7078 L31.3886,46.7078 C39.4956,46.7078 40.4336,43.4188 40.4336,40.9448 L40.4336,37.9948 L41.4336,37.9948 C41.9866,37.9948 42.4336,37.5478 42.4336,36.9948 C42.4336,36.4418 41.9866,35.9948 41.4336,35.9948" id="Fill-20" fill="#4F5661"></path>
        </g>
    </g>
</svg>