<?xml version="1.0" encoding="UTF-8"?>
<svg width="60px" height="59px" viewBox="0 0 60 59" version="1.1" xmlns="http://www.w3.org/2000/svg" xmlns:xlink="http://www.w3.org/1999/xlink">
    <!-- Generator: Sketch 49.3 (51167) - http://www.bohemiancoding.com/sketch -->
    <title>Icon/ Home Sold</title>
    <desc>Created with Sketch.</desc>
    <defs>
        <polygon id="path-1" points="59.9995 0.021 0 0.021 0 55.9996 59.9995 55.9996 59.9995 0.021"></polygon>
    </defs>
    <g id="Icon/-Home-Sold" stroke="none" stroke-width="1" fill="none" fill-rule="evenodd">
        <g id="Page-1">
            <path d="M60,56.9785 C60,58.0825 46.792,58.9785 30.5,58.9785 C14.208,58.9785 1,58.0825 1,56.9785 C1,55.8745 14.208,54.9785 30.5,54.9785 C46.792,54.9785 60,55.8745 60,56.9785" id="Fill-1" fill="#D3E5EF"></path>
            <path d="M10,11.9785 L8,11.9785" id="Stroke-3" stroke="#4F5661" stroke-width="2" stroke-linecap="round" stroke-linejoin="round"></path>
            <g id="Group-7" transform="translate(0.000000, 0.978900)">
                <mask id="mask-2" fill="white">
                    <use xlink:href="#path-1"></use>
                </mask>
                <g id="Clip-6"></g>
                <path d="M54.6665,12.9996 L50.9995,12.9996 L24.9995,12.9996 L20.9995,12.9996 L1.9995,12.9996 L1.9995,8.9996 L54.6665,8.9996 L57.3335,10.9996 L54.6665,12.9996 Z M51.9995,17.9996 L53.9995,17.9996 L53.9995,14.9996 L51.9995,14.9996 L51.9995,17.9996 Z M21.9995,17.9996 L23.9995,17.9996 L23.9995,14.9996 L21.9995,14.9996 L21.9995,17.9996 Z M6.9995,53.9996 L10.9995,53.9996 L10.9995,14.9996 L6.9995,14.9996 L6.9995,53.9996 Z M6.9995,6.8956 L6.9995,5.2696 L8.9995,2.6476 L10.9995,5.2696 L10.9995,6.8956 C10.9995,6.9326 11.0175,6.9636 11.0205,6.9996 L6.9785,6.9996 C6.9825,6.9636 6.9995,6.9326 6.9995,6.8956 Z M59.9995,10.9996 C59.9995,10.6856 59.8525,10.3886 59.6005,10.1996 L55.6005,7.1996 C55.4265,7.0696 55.2165,6.9996 54.9995,6.9996 L12.9785,6.9996 C12.9825,6.9636 12.9995,6.9326 12.9995,6.8956 L12.9995,4.9316 C12.9995,4.7126 12.9275,4.4986 12.7945,4.3246 L9.7945,0.3936 C9.4165,-0.1034 8.5835,-0.1034 8.2055,0.3936 L5.2055,4.3246 C5.0725,4.4986 4.9995,4.7126 4.9995,4.9316 L4.9995,6.8956 C4.9995,6.9326 5.0175,6.9636 5.0205,6.9996 L0.9995,6.9996 C0.4475,6.9996 -0.0005,7.4466 -0.0005,7.9996 L-0.0005,13.9996 C-0.0005,14.5526 0.4475,14.9996 0.9995,14.9996 L4.9995,14.9996 L4.9995,54.9996 C4.9995,55.5526 5.4475,55.9996 5.9995,55.9996 L11.9995,55.9996 C12.5525,55.9996 12.9995,55.5526 12.9995,54.9996 L12.9995,14.9996 L19.9995,14.9996 L19.9995,18.9996 C19.9995,19.5526 20.4475,19.9996 20.9995,19.9996 L24.9995,19.9996 C25.5525,19.9996 25.9995,19.5526 25.9995,18.9996 L25.9995,14.9996 L49.9995,14.9996 L49.9995,18.9996 C49.9995,19.5526 50.4475,19.9996 50.9995,19.9996 L54.9995,19.9996 C55.5525,19.9996 55.9995,19.5526 55.9995,18.9996 L55.9995,14.4996 L59.6005,11.7996 C59.8525,11.6106 59.9995,11.3136 59.9995,10.9996 Z" id="Fill-5" fill="#4F5661" mask="url(#mask-2)"></path>
            </g>
            <path d="M57,43.9785 L19,43.9785 C17.895,43.9785 17,43.0825 17,41.9785 L17,18.9785 L59,18.9785 L59,41.9785 C59,43.0825 58.104,43.9785 57,43.9785" id="Fill-8" fill="#F4877A"></path>
            <path d="M27.6382,28.958 C27.2902,28.514 26.6552,28.227 26.1262,28.227 C25.5992,28.227 24.9392,28.406 24.9392,29.078 C24.9392,29.642 25.4432,29.821 26.2462,30.073 C27.3982,30.445 28.8852,30.937 28.8852,32.628 C28.8852,34.583 27.3142,35.458 25.6352,35.458 C24.4232,35.458 23.2012,35.015 22.4562,34.235 L23.8002,32.868 C24.2072,33.384 24.9632,33.768 25.6352,33.768 C26.2582,33.768 26.8102,33.527 26.8102,32.844 C26.8102,32.196 26.1622,31.992 25.0472,31.633 C23.9682,31.284 22.8762,30.733 22.8762,29.198 C22.8762,27.314 24.5792,26.535 26.1622,26.535 C27.1222,26.535 28.2012,26.895 28.9452,27.579 L27.6382,28.958 Z" id="Fill-10" fill="#FFFFFF"></path>
            <path d="M34.0825,28.3701 C32.6435,28.3701 31.6595,29.4741 31.6595,30.9611 C31.6595,32.4961 32.6545,33.5991 34.0825,33.5991 C35.5095,33.5991 36.5175,32.4961 36.5175,30.9611 C36.5175,29.4741 35.5205,28.3701 34.0825,28.3701 M34.0825,35.4711 C31.4315,35.4711 29.4645,33.6471 29.4645,30.9611 C29.4645,28.2381 31.4315,26.5231 34.0825,26.5231 C36.7445,26.5231 38.7115,28.2381 38.7115,30.9611 C38.7115,33.6471 36.7445,35.4711 34.0825,35.4711" id="Fill-12" fill="#FFFFFF"></path>
            <polygon id="Fill-14" fill="#FFFFFF" points="39.689 35.2422 39.689 26.7512 41.752 26.7512 41.752 33.4552 45.038 33.4552 45.038 35.2422"></polygon>
            <path d="M48.6382,28.502 L47.6192,28.502 L47.6192,33.468 L48.5902,33.468 C50.0542,33.468 51.4092,32.868 51.4092,30.973 C51.4092,29.065 50.0542,28.502 48.6382,28.502 M48.7832,35.242 L45.6172,35.242 L45.6172,26.751 L48.6872,26.751 C51.0972,26.751 53.5432,27.759 53.5432,30.973 C53.5432,33.959 51.1212,35.242 48.7832,35.242" id="Fill-16" fill="#FFFFFF"></path>
        </g>
    </g>
</svg>