<?xml version="1.0" encoding="UTF-8"?>
<svg width="60px" height="58px" viewBox="0 0 60 58" version="1.1" xmlns="http://www.w3.org/2000/svg" xmlns:xlink="http://www.w3.org/1999/xlink">
    <!-- Generator: Sketch 49.3 (51167) - http://www.bohemiancoding.com/sketch -->
    <title>Icon/ ID protection</title>
    <desc>Created with Sketch.</desc>
    <defs></defs>
    <g id="Icon/-ID-protection" stroke="none" stroke-width="1" fill="none" fill-rule="evenodd">
        <g id="ID-protection">
            <path d="M38.4697,38.6387 L37.1107,34.1987 C35.7497,30.4577 32.1907,27.9687 28.2097,27.9687 L27.0497,27.9687 L27.0497,29.2787 C26.1507,31.1787 22.9997,34.1277 22.9997,34.1277 C22.9997,34.1277 19.8497,31.1787 18.9497,29.2787 L18.9497,27.9687 L17.7897,27.9687 C13.8097,27.9687 10.2497,30.4577 8.8897,34.1987 L7.5307,38.6387 C7.6507,38.7577 7.7697,38.8777 7.9007,38.9887 C11.8397,42.7077 17.1507,44.9887 22.9997,44.9887 C24.0447,44.9887 25.0637,44.8917 26.0697,44.7507 L35.9997,48.9887 C35.9997,48.9887 34.1217,42.0187 34.0617,42.0037 C33.9997,41.9887 36.8777,40.1417 38.0997,38.9887 C38.2307,38.8777 38.3497,38.7577 38.4697,38.6387" id="Fill-1" fill="#D3E5EF"></path>
            <path d="M31.5732,7.5918 C30.3472,3.7558 27.3962,0.9878 22.9692,0.9878 C17.5452,0.9878 13.9402,5.1868 13.9402,10.3518 C13.9402,10.3518 15.4922,11.2918 18.4382,8.4868 C19.5022,9.2488 21.1772,10.2268 23.3792,10.8128 C27.7062,11.9638 30.5482,10.8748 32.0572,10.3628" id="Fill-3" fill="#D3E5EF"></path>
            <path d="M22.999,20.8711 C21.566,20.8711 20.233,20.1001 19.52,18.8601 C19.244,18.3821 19.409,17.7701 19.888,17.4941 C20.366,17.2211 20.978,17.3841 21.254,17.8621 C21.617,18.4941 22.27,18.8711 22.999,18.8711 C23.728,18.8711 24.381,18.4941 24.743,17.8631 C25.018,17.3841 25.628,17.2201 26.108,17.4941 C26.587,17.7691 26.753,18.3811 26.478,18.8591 C25.765,20.1001 24.432,20.8711 22.999,20.8711" id="Fill-5" fill="#4F5661"></path>
            <path d="M34.1133,40.7373 C33.2983,41.2983 32.9603,41.5303 33.0763,42.1793 C33.0913,42.2613 33.1163,42.3413 33.1493,42.4153 C33.2843,42.8253 33.9163,45.1263 34.4963,47.2593 L26.4623,43.8313 C26.3373,43.7783 26.2043,43.7513 26.0693,43.7513 C26.0233,43.7513 25.9763,43.7543 25.9303,43.7603 C24.8203,43.9163 23.8883,43.9883 23.0003,43.9883 C17.6733,43.9883 12.6033,41.9963 8.6683,38.3393 L9.8293,34.5403 C11.0413,31.2083 14.2403,28.9683 17.7903,28.9683 L17.9503,28.9683 L17.9503,29.2783 C17.9503,29.4263 17.9833,29.5723 18.0463,29.7063 C19.0153,31.7553 22.1823,34.7323 22.3163,34.8583 C22.7013,35.2173 23.2993,35.2173 23.6833,34.8583 C23.8173,34.7323 26.9843,31.7553 27.9543,29.7063 C28.0163,29.5723 28.0503,29.4263 28.0503,29.2783 L28.0503,28.9683 L28.2103,28.9683 C31.7593,28.9683 34.9593,31.2083 36.1543,34.4913 L37.3313,38.3373 C36.5093,39.0883 34.9593,40.1543 34.1133,40.7373 M22.9993,26.1553 C23.9323,26.1553 24.9863,25.9003 26.0503,25.4443 L26.0503,27.9643 C26.0503,27.9663 26.0503,27.9663 26.0503,27.9683 L26.0503,29.0403 C25.4443,30.1573 23.9883,31.7383 23.0003,32.7313 C22.0113,31.7393 20.5553,30.1593 19.9503,29.0403 L19.9503,27.9683 C19.9503,27.9663 19.9493,27.9663 19.9493,27.9643 L19.9493,25.4453 C21.0123,25.9003 22.0653,26.1553 22.9993,26.1553 M36.5223,4.3813 C36.0763,4.0563 35.4513,4.1543 35.1253,4.6003 C34.8003,5.0483 34.8983,5.6733 35.3443,5.9983 C40.7643,9.9423 44.0003,16.2943 44.0003,22.9883 C44.0003,28.0493 42.1873,32.8523 38.9093,36.6603 L38.0503,33.8563 C36.5513,29.7363 32.5973,26.9683 28.2103,26.9683 L28.0513,26.9683 L28.0513,24.3433 C30.7483,22.5103 33.0573,19.4353 33.0573,15.8033 L33.0573,10.3743 C33.0573,10.0513 32.9023,9.7493 32.6393,9.5613 C32.3773,9.3723 32.0383,9.3233 31.7363,9.4263 L31.5393,9.4943 C30.0263,10.0133 27.4933,10.8833 23.6353,9.8563 C21.5503,9.3013 19.9753,8.3703 19.0213,7.6853 C18.6303,7.4053 18.0953,7.4423 17.7493,7.7733 C16.4273,9.0313 15.5033,9.3983 14.9773,9.4943 C15.3553,5.1023 18.5993,2.0003 22.9683,2.0003 C26.6323,2.0003 29.4213,4.1533 30.6213,7.9073 C30.7893,8.4323 31.3483,8.7263 31.8783,8.5543 C32.4033,8.3863 32.6943,7.8243 32.5253,7.2983 C31.0653,2.7283 27.4923,0.0003 22.9683,0.0003 C17.2523,0.0003 12.9403,4.4553 12.9403,10.3623 C12.9403,10.7123 13.1233,11.0363 13.4223,11.2163 C13.6343,11.3453 15.4823,12.3313 18.5243,9.7633 C19.6243,10.4673 21.1793,11.2723 23.1223,11.7903 C26.6793,12.7353 29.3183,12.2613 31.0573,11.7533 L31.0573,15.8033 C31.0573,20.3333 26.1073,24.1553 22.9993,24.1553 C19.8903,24.1553 14.9403,20.3333 14.9403,15.8033 L14.9403,13.0893 C14.9403,12.5363 14.4933,12.0893 13.9403,12.0893 C13.3873,12.0893 12.9403,12.5363 12.9403,13.0893 L12.9403,15.8033 C12.9403,19.4363 15.2513,22.5113 17.9493,24.3443 L17.9493,26.9683 L17.7903,26.9683 C13.4023,26.9683 9.4483,29.7363 7.9333,33.9053 L7.0883,36.6673 C3.8063,32.8593 2.0003,28.0663 2.0003,22.9883 C2.0003,16.1933 5.3123,9.7873 10.8623,5.8493 C11.3123,5.5303 11.4183,4.9063 11.0983,4.4553 C10.7783,4.0063 10.1543,3.8983 9.7043,4.2183 C3.6283,8.5303 0.0003,15.5473 0.0003,22.9883 C0.0003,29.1313 2.3923,34.9073 6.7363,39.2523 C6.7503,39.2653 6.7683,39.2693 6.7823,39.2823 C6.8073,39.3133 6.8273,39.3493 6.8553,39.3783 C6.9843,39.5063 7.1153,39.6333 7.2143,39.7163 C11.4983,43.7603 17.1043,45.9883 23.0003,45.9883 C23.9073,45.9883 24.8443,45.9223 25.9303,45.7793 L35.6073,49.9083 C35.7343,49.9623 35.8673,49.9883 36.0003,49.9883 C36.2363,49.9883 36.4703,49.9043 36.6563,49.7433 C36.9453,49.4923 37.0653,49.0973 36.9663,48.7283 C36.0473,45.3173 35.5433,43.4483 35.2083,42.4113 C35.2203,42.4023 35.2343,42.3933 35.2473,42.3843 C36.1663,41.7523 37.8763,40.5743 38.7443,39.7533 C38.8843,39.6333 39.0153,39.5063 39.1443,39.3783 L38.9733,39.1903 C38.9853,39.1893 38.9973,39.1843 39.0093,39.1833 L39.1743,39.3483 C39.2573,39.2653 39.3173,39.1693 39.3663,39.0663 C39.4503,39.0183 39.5373,38.9733 39.6073,38.9003 C43.7293,34.5993 46.0003,28.9483 46.0003,22.9883 C46.0003,15.6573 42.4573,8.7013 36.5223,4.3813" id="Fill-7" fill="#4F5661"></path>
            <path d="M56,47.9883 C55.447,47.9883 55,47.5413 55,46.9883 L55,44.0583 C55,42.9063 54.517,41.8033 53.675,41.0323 C52.844,40.2703 51.771,39.9033 50.641,40.0043 C48.599,40.1833 47,42.0803 47,44.3213 L47,46.9883 C47,47.5413 46.553,47.9883 46,47.9883 C45.447,47.9883 45,47.5413 45,46.9883 L45,44.3213 C45,41.0523 47.4,38.2813 50.465,38.0113 C52.157,37.8653 53.775,38.4123 55.025,39.5573 C56.28,40.7063 57,42.3463 57,44.0583 L57,46.9883 C57,47.5413 56.553,47.9883 56,47.9883" id="Fill-9" fill="#4F5661"></path>
            <path d="M59,46.9883 L43,46.9883 C42.447,46.9883 42,47.4353 42,47.9883 L42,56.9883 C42,57.5413 42.447,57.9883 43,57.9883 L59,57.9883 C59.553,57.9883 60,57.5413 60,56.9883 L60,47.9883 C60,47.4353 59.553,46.9883 59,46.9883" id="Fill-11" fill="#53C27C"></path>
            <path d="M51,54.9883 C50.447,54.9883 50,54.5413 50,53.9883 L50,51.9883 C50,51.4353 50.447,50.9883 51,50.9883 C51.553,50.9883 52,51.4353 52,51.9883 L52,53.9883 C52,54.5413 51.553,54.9883 51,54.9883" id="Fill-13" fill="#FFFFFF"></path>
        </g>
    </g>
</svg>