<?xml version="1.0" encoding="UTF-8"?>
<svg width="63px" height="60px" viewBox="0 0 63 60" version="1.1" xmlns="http://www.w3.org/2000/svg" xmlns:xlink="http://www.w3.org/1999/xlink">
    <!-- Generator: Sketch 49.3 (51167) - http://www.bohemiancoding.com/sketch -->
    <title>Icon/ ID Theft Restoration</title>
    <desc>Created with Sketch.</desc>
    <defs></defs>
    <g id="Icon/-ID-Theft-Restoration" stroke="none" stroke-width="1" fill="none" fill-rule="evenodd">
        <g id="Page-1">
            <path d="M38.4697,39.6387 L37.1107,35.1987 C35.7497,31.4587 32.1907,28.9687 28.2097,28.9687 L27.0497,28.9687 L27.0497,30.2787 C26.1507,32.1787 22.9997,35.1287 22.9997,35.1287 C22.9997,35.1287 19.8497,32.1787 18.9497,30.2787 L18.9497,28.9687 L17.7897,28.9687 C13.8097,28.9687 10.2497,31.4587 8.8897,35.1987 L7.5307,39.6387 C7.6507,39.7587 7.7707,39.8787 7.9007,39.9887 C11.8397,43.7087 17.1507,45.9887 22.9997,45.9887 C24.0447,45.9887 25.0637,45.8917 26.0697,45.7507 L35.9997,49.9887 C35.9997,49.9887 34.1217,43.0197 34.0617,43.0037 C33.9997,42.9887 36.8777,41.1427 38.0997,39.9887 C38.2307,39.8787 38.3497,39.7587 38.4697,39.6387" id="Fill-1" fill="#D3E5EF"></path>
            <path d="M31.5732,8.5918 C30.3472,4.7568 27.3962,1.9878 22.9692,1.9878 C17.5452,1.9878 13.9402,6.1868 13.9402,11.3518 C13.9402,11.3518 15.4922,12.2918 18.4382,9.4878 C19.5022,10.2498 21.1772,11.2268 23.3792,11.8128 C27.7062,12.9638 30.5482,11.8748 32.0572,11.3628" id="Fill-3" fill="#D3E5EF"></path>
            <path d="M22.999,21.8721 C21.567,21.8721 20.234,21.1011 19.52,19.8611 C19.244,19.3831 19.409,18.7711 19.888,18.4961 C20.367,18.2201 20.978,18.3851 21.253,18.8631 C21.611,19.4851 22.28,19.8721 22.999,19.8721 C23.718,19.8721 24.386,19.4851 24.743,18.8641 C25.019,18.3851 25.631,18.2211 26.108,18.4951 C26.588,18.7701 26.753,19.3821 26.478,19.8601 C25.764,21.1011 24.432,21.8721 22.999,21.8721" id="Fill-5" fill="#4F5661"></path>
            <g id="Group-9" transform="translate(0.000000, 0.921400)" fill="#4F5661">
                <path d="M34.1113,40.8169 C33.2973,41.3779 32.9603,41.6089 33.0763,42.2569 C33.0903,42.3399 33.1163,42.4199 33.1493,42.4939 C33.2833,42.9029 33.9163,45.2039 34.4963,47.3379 L26.4623,43.9099 C26.3373,43.8569 26.2043,43.8299 26.0693,43.8299 C26.0233,43.8299 25.9763,43.8329 25.9303,43.8389 C24.8203,43.9949 23.8883,44.0669 23.0003,44.0669 C17.6723,44.0669 12.6033,42.0749 8.6683,38.4179 L9.8293,34.6189 C11.0423,31.2869 14.2413,29.0469 17.7903,29.0469 L17.9503,29.0469 L17.9503,29.3569 C17.9503,29.5049 17.9833,29.6509 18.0463,29.7849 C19.0153,31.8339 22.1823,34.8119 22.3163,34.9369 C22.7013,35.2979 23.2983,35.2979 23.6833,34.9369 C23.8173,34.8119 26.9843,31.8339 27.9543,29.7849 C28.0163,29.6509 28.0493,29.5049 28.0493,29.3569 L28.0493,29.0469 L28.2103,29.0469 C31.7583,29.0469 34.9583,31.2869 36.1543,34.5699 L37.3313,38.4159 C36.5083,39.1679 34.9583,40.2349 34.1113,40.8169 M22.9993,26.2349 C23.9323,26.2349 24.9863,25.9799 26.0503,25.5239 L26.0503,28.0429 C26.0503,28.0449 26.0493,28.0459 26.0493,28.0469 L26.0493,29.1189 C25.4443,30.2359 23.9883,31.8179 23.0003,32.8109 C22.0113,31.8179 20.5553,30.2379 19.9503,29.1189 L19.9503,28.0469 C19.9503,28.0459 19.9493,28.0449 19.9493,28.0429 L19.9493,25.5249 C21.0123,25.9799 22.0653,26.2349 22.9993,26.2349 M39.4253,38.4239 L38.0493,33.9349 C36.5513,29.8149 32.5963,27.0469 28.2103,27.0469 L28.0503,27.0469 L28.0503,24.4229 C30.7483,22.5899 33.0573,19.5149 33.0573,15.8829 L33.0573,10.4529 C33.0573,10.1299 32.9023,9.8279 32.6393,9.6399 C32.3773,9.4509 32.0393,9.4019 31.7363,9.5049 L31.5383,9.5739 C30.0243,10.0939 27.4903,10.9629 23.6353,9.9359 C21.5523,9.3819 19.9763,8.4489 19.0213,7.7639 C18.6303,7.4839 18.0963,7.5199 17.7493,7.8519 C16.4283,9.1099 15.5043,9.4779 14.9773,9.5739 C15.3553,5.1809 18.5993,2.0789 22.9683,2.0789 C26.6323,2.0789 29.4213,4.2319 30.6213,7.9869 C30.7893,8.5119 31.3483,8.8059 31.8783,8.6339 C32.4033,8.4659 32.6943,7.9039 32.5253,7.3779 C31.0653,2.8069 27.4933,0.0789 22.9683,0.0789 C17.2523,0.0789 12.9403,4.5339 12.9403,10.4419 C12.9403,10.7919 13.1233,11.1159 13.4223,11.2969 C13.6353,11.4249 15.4813,12.4109 18.5243,9.8419 C19.6243,10.5469 21.1803,11.3529 23.1223,11.8699 C26.6793,12.8139 29.3173,12.3419 31.0573,11.8319 L31.0573,15.8829 C31.0573,20.4129 26.1073,24.2349 22.9993,24.2349 C19.8903,24.2349 14.9403,20.4129 14.9403,15.8829 L14.9403,13.1679 C14.9403,12.6149 14.4933,12.1679 13.9403,12.1679 C13.3873,12.1679 12.9403,12.6149 12.9403,13.1679 L12.9403,15.8829 C12.9403,19.5169 15.2513,22.5909 17.9493,24.4239 L17.9493,27.0469 L17.7903,27.0469 C13.4033,27.0469 9.4483,29.8149 7.9333,33.9839 L7.0883,36.7459 C3.8063,32.9379 2.0003,28.1439 2.0003,23.0669 C2.0003,16.2729 5.3123,9.8669 10.8623,5.9279 C11.3123,5.6089 11.4183,4.9849 11.0983,4.5339 C10.7783,4.0849 10.1553,3.9769 9.7043,4.2969 C3.6283,8.6099 0.0003,15.6269 0.0003,23.0669 C0.0003,29.2099 2.3923,34.9859 6.7363,39.3309 C6.7463,39.3389 6.7583,39.3429 6.7683,39.3519 C6.7883,39.3759 6.8013,39.4019 6.8233,39.4239 C6.9643,39.5649 7.1043,39.7039 7.2143,39.7939 C11.4973,43.8389 17.1033,46.0669 23.0003,46.0669 C23.9073,46.0669 24.8443,46.0009 25.9303,45.8579 L35.6073,49.9869 C35.7343,50.0409 35.8673,50.0669 36.0003,50.0669 C36.2363,50.0669 36.4703,49.9829 36.6563,49.8219 C36.9453,49.5709 37.0653,49.1759 36.9653,48.8069 C36.0453,45.3909 35.5423,43.5239 35.2093,42.4899 C35.2203,42.4809 35.2333,42.4729 35.2453,42.4639 C36.1653,41.8319 37.8763,40.6539 38.7413,39.8349 C38.8893,39.7109 39.0253,39.5759 39.1623,39.4389 L38.4693,38.7169 L39.1763,39.4239 C39.4383,39.1629 39.5343,38.7779 39.4253,38.4239" id="Fill-7"></path>
            </g>
            <path d="M38.8857,40.209 C38.6367,40.209 38.3877,40.117 38.1947,39.931 C37.7947,39.549 37.7817,38.916 38.1637,38.518 C41.9277,34.59 43.9997,29.43 43.9997,23.988 C43.9997,17.294 40.7647,10.943 35.3447,6.999 C34.8987,6.674 34.7997,6.049 35.1247,5.602 C35.4477,5.155 36.0747,5.057 36.5227,5.382 C42.4567,9.701 45.9997,16.656 45.9997,23.988 C45.9997,29.948 43.7297,35.6 39.6077,39.9 C39.4107,40.105 39.1487,40.209 38.8857,40.209" id="Fill-10" fill="#4F5661"></path>
            <path d="M59.0762,41.3545 L53.0422,36.5515 C52.9672,36.4915 52.8622,36.4805 52.7782,36.5225 C52.6912,36.5635 52.6372,36.6515 52.6372,36.7475 L52.6372,39.3385 C46.9092,39.4735 42.2912,44.2335 42.2912,50.0655 C42.2912,50.7415 42.3542,51.4175 42.4812,52.0775 C42.5042,52.1945 42.6062,52.2805 42.7262,52.2805 L42.7272,52.2805 C42.8472,52.2795 42.9502,52.1945 42.9722,52.0755 C43.8562,47.3425 47.8982,43.8855 52.6372,43.7685 L52.6372,46.3535 C52.6372,46.4505 52.6912,46.5375 52.7782,46.5795 C52.8632,46.6205 52.9682,46.6085 53.0422,46.5495 L59.0762,41.7465 C59.1362,41.6985 59.1712,41.6255 59.1712,41.5495 C59.1712,41.4735 59.1362,41.4025 59.0762,41.3545" id="Fill-12" fill="#53C27C"></path>
            <path d="M62.0986,44.3418 C62.0766,44.2238 61.9736,44.1388 61.8536,44.1388 L61.8526,44.1388 C61.7326,44.1398 61.6296,44.2248 61.6076,44.3428 C60.7236,49.0748 56.6816,52.5318 51.9436,52.6508 L51.9436,50.0658 C51.9436,49.9688 51.8886,49.8818 51.8016,49.8398 C51.7156,49.7988 51.6136,49.8098 51.5376,49.8688 L45.5036,54.6728 C45.4446,54.7198 45.4096,54.7918 45.4096,54.8678 C45.4096,54.9448 45.4446,55.0168 45.5036,55.0638 L51.5376,59.8668 C51.5826,59.9038 51.6376,59.9208 51.6936,59.9208 C51.7306,59.9208 51.7676,59.9128 51.8016,59.8968 C51.8886,59.8548 51.9436,59.7678 51.9436,59.6708 L51.9436,57.0798 C57.6706,56.9458 62.2886,52.1848 62.2886,46.3538 C62.2886,45.6768 62.2256,45.0008 62.0986,44.3418" id="Fill-14" fill="#53C27C"></path>
        </g>
    </g>
</svg>