<?xml version="1.0" encoding="UTF-8"?>
<svg width="60px" height="59px" viewBox="0 0 60 59" version="1.1" xmlns="http://www.w3.org/2000/svg" xmlns:xlink="http://www.w3.org/1999/xlink">
    <!-- Generator: Sketch 49.3 (51167) - http://www.bohemiancoding.com/sketch -->
    <title>Icon/ ID Theft Monitoring</title>
    <desc>Created with Sketch.</desc>
    <defs></defs>
    <g id="Icon/-ID-Theft-Monitoring" stroke="none" stroke-width="1" fill="none" fill-rule="evenodd">
        <g id="Page-1">
            <polygon id="Fill-1" fill="#4F5661" points="17.948 28.9643 19.948 28.9643 19.948 25.0153 17.948 25.0153"></polygon>
            <polygon id="Fill-2" fill="#4F5661" points="26.051 28.9643 28.051 28.9643 28.051 25.0153 26.051 25.0153"></polygon>
            <g id="Group-19" transform="translate(0.000000, 0.988300)">
                <path d="M38.4697,38.6504 L37.1097,34.2104 C35.7497,30.4704 32.1897,27.9804 28.2097,27.9804 L27.0497,27.9804 L27.0497,29.2904 C26.1497,31.1904 22.9997,34.1404 22.9997,34.1404 C22.9997,34.1404 19.8497,31.1904 18.9487,29.2904 L18.9487,27.9804 L17.7897,27.9804 C13.8097,27.9804 10.2497,30.4704 8.8897,34.2104 L7.5297,38.6504 C7.6497,38.7704 7.7697,38.8904 7.8997,39.0004 C11.8397,42.7204 17.1497,45.0004 22.9997,45.0004 C24.0437,45.0004 25.0637,44.9034 26.0697,44.7624 L35.9997,49.0004 C35.9997,49.0004 34.1217,42.0314 34.0607,42.0154 C33.9997,42.0004 36.8777,40.1544 38.0997,39.0004 C38.2297,38.8904 38.3497,38.7704 38.4697,38.6504" id="Fill-3" fill="#D3E5EF"></path>
                <path d="M31.5723,7.6035 C30.3473,3.7685 27.3963,0.9995 22.9683,0.9995 C17.5453,0.9995 13.9393,5.1985 13.9393,10.3635 C13.9393,10.3635 15.4923,11.3035 18.4383,8.4995 C19.5013,9.2615 21.1763,10.2385 23.3793,10.8245 C27.7053,11.9755 30.5473,10.8865 32.0563,10.3745" id="Fill-5" fill="#D3E5EF"></path>
                <path d="M22.998,20.8838 C21.565,20.8838 20.233,20.1128 19.519,18.8718 C19.244,18.3938 19.409,17.7818 19.889,17.5068 C20.366,17.2338 20.977,17.3968 21.254,17.8758 C21.611,18.4968 22.279,18.8838 22.998,18.8838 C23.717,18.8838 24.386,18.4968 24.743,17.8758 C25.019,17.3968 25.63,17.2328 26.108,17.5068 C26.588,17.7818 26.753,18.3938 26.477,18.8718 C25.764,20.1128 24.431,20.8838 22.998,20.8838" id="Fill-7" fill="#4F5661"></path>
                <path d="M22.998,26.168 C26.955,26.168 33.057,21.723 33.057,15.816 L33.057,10.386 C33.057,10.064 32.901,9.761 32.639,9.573 C32.376,9.384 32.037,9.335 31.735,9.439 L31.537,9.507 C30.022,10.027 27.487,10.897 23.636,9.869 C21.55,9.314 19.976,8.382 19.021,7.697 C18.634,7.417 18.097,7.452 17.749,7.785 C16.428,9.044 15.503,9.411 14.977,9.507 C15.354,5.114 18.599,2.012 22.968,2.012 C26.632,2.012 29.421,4.165 30.62,7.919 C30.787,8.445 31.351,8.739 31.876,8.567 C32.402,8.4 32.692,7.837 32.524,7.312 C31.065,2.74 27.493,0.012 22.968,0.012 C17.251,0.012 12.939,4.467 12.939,10.375 C12.939,10.725 13.122,11.049 13.422,11.23 C13.634,11.357 15.48,12.344 18.524,9.776 C19.623,10.48 21.179,11.285 23.122,11.803 C26.679,12.748 29.315,12.274 31.057,11.765 L31.057,15.816 C31.057,20.346 26.106,24.168 22.998,24.168 C19.89,24.168 14.939,20.346 14.939,15.816 L14.939,13.101 C14.939,12.548 14.492,12.101 13.939,12.101 C13.387,12.101 12.939,12.548 12.939,13.101 L12.939,15.816 C12.939,21.723 19.041,26.168 22.998,26.168" id="Fill-9" fill="#4F5661"></path>
                <path d="M34.1064,40.7539 C33.2954,41.3109 32.9604,41.5419 33.0754,42.1889 C33.0894,42.2729 33.1154,42.3529 33.1494,42.4279 C33.2844,42.8379 33.9164,45.1379 34.4964,47.2719 L26.4614,43.8429 C26.3364,43.7899 26.2044,43.7629 26.0694,43.7629 C26.0234,43.7629 25.9764,43.7659 25.9304,43.7729 C24.8204,43.9279 23.8884,43.9999 23.0004,43.9999 C17.6714,43.9999 12.6034,42.0079 8.6674,38.3509 L9.8294,34.5519 C11.0424,31.2199 14.2414,28.9809 17.7904,28.9809 L17.9494,28.9809 L17.9494,29.2899 C17.9494,29.4389 17.9824,29.5839 18.0454,29.7179 C19.0164,31.7669 22.1824,34.7449 22.3164,34.8699 C22.7014,35.2319 23.2984,35.2319 23.6834,34.8699 C23.8184,34.7449 26.9824,31.7669 27.9534,29.7179 C28.0164,29.5839 28.0494,29.4389 28.0494,29.2899 L28.0494,28.9809 L28.2104,28.9809 C31.7594,28.9809 34.9584,31.2199 36.1534,34.5029 L37.3314,38.3489 C36.5064,39.1019 34.9534,40.1709 34.1064,40.7539 M46.0004,22.9999 C46.0004,15.6689 42.4574,8.7139 36.5224,4.3939 C36.0744,4.0679 35.4494,4.1669 35.1254,4.6129 C34.7994,5.0609 34.8984,5.6859 35.3444,6.0109 C40.7644,9.9549 44.0004,16.3069 44.0004,22.9999 C44.0004,28.0609 42.1874,32.8639 38.9094,36.6719 L38.0484,33.8679 C36.5514,29.7479 32.5974,26.9809 28.2104,26.9809 L27.0494,26.9809 C26.4974,26.9809 26.0494,27.4279 26.0494,27.9809 L26.0494,29.0509 C25.4444,30.1689 23.9874,31.7509 23.0004,32.7439 C22.0114,31.7509 20.5554,30.1709 19.9494,29.0509 L19.9494,27.9809 C19.9494,27.4279 19.5024,26.9809 18.9494,26.9809 L17.7904,26.9809 C13.4034,26.9809 9.4484,29.7479 7.9334,33.9169 L7.0874,36.6779 C3.8054,32.8709 2.0004,28.0779 2.0004,22.9999 C2.0004,16.2059 5.3124,9.7989 10.8614,5.8609 C11.3114,5.5419 11.4174,4.9179 11.0974,4.4669 C10.7784,4.0179 10.1544,3.9099 9.7034,4.2309 C3.6274,8.5419 0.0004,15.5589 0.0004,22.9999 C0.0004,29.1439 2.3924,34.9199 6.7364,39.2639 C6.7454,39.2729 6.7564,39.2749 6.7664,39.2829 C6.7864,39.3079 6.7994,39.3349 6.8224,39.3579 C6.9624,39.4979 7.1034,39.6369 7.2124,39.7279 C11.4974,43.7729 17.1034,45.9999 23.0004,45.9999 C23.9074,45.9999 24.8444,45.9339 25.9304,45.7909 L35.6074,49.9199 C35.7344,49.9739 35.8674,49.9999 36.0004,49.9999 C36.2364,49.9999 36.4704,49.9159 36.6564,49.7549 C36.9454,49.5039 37.0654,49.1089 36.9654,48.7399 C36.0444,45.3249 35.5424,43.4579 35.2094,42.4229 C35.2184,42.4149 35.2294,42.4079 35.2394,42.4009 C36.1604,41.7679 37.8744,40.5889 38.7444,39.7649 C38.8954,39.6369 39.0364,39.4979 39.1764,39.3579 C39.2584,39.2749 39.3184,39.1789 39.3664,39.0779 C39.4504,39.0299 39.5364,38.9859 39.6064,38.9129 C43.7294,34.6109 46.0004,28.9599 46.0004,22.9999" id="Fill-11" fill="#4F5661"></path>
                <path d="M56,48 C55.447,48 55,47.553 55,47 L55,44.071 C55,42.919 54.517,41.815 53.674,41.044 C52.842,40.282 51.763,39.922 50.64,40.017 C48.599,40.196 47,42.093 47,44.334 L47,47 C47,47.553 46.553,48 46,48 C45.447,48 45,47.553 45,47 L45,44.334 C45,41.065 47.4,38.294 50.464,38.024 C52.155,37.874 53.773,38.423 55.024,39.569 C56.28,40.719 57,42.359 57,44.071 L57,47 C57,47.553 56.553,48 56,48" id="Fill-13" fill="#4F5661"></path>
                <path d="M59,47 L43,47 C42.447,47 42,47.447 42,48 L42,57 C42,57.553 42.447,58 43,58 L59,58 C59.553,58 60,57.553 60,57 L60,48 C60,47.447 59.553,47 59,47" id="Fill-15" fill="#53C27C"></path>
                <path d="M51,55 C50.447,55 50,54.553 50,54 L50,52 C50,51.447 50.447,51 51,51 C51.553,51 52,51.447 52,52 L52,54 C52,54.553 51.553,55 51,55" id="Fill-17" fill="#FFFFFF"></path>
            </g>
        </g>
    </g>
</svg>