<?xml version="1.0" encoding="UTF-8"?>
<svg width="50px" height="60px" viewBox="0 0 50 60" version="1.1" xmlns="http://www.w3.org/2000/svg" xmlns:xlink="http://www.w3.org/1999/xlink">
    <!-- Generator: Sketch 49.3 (51167) - http://www.bohemiancoding.com/sketch -->
    <title>Icon/ Import W2</title>
    <desc>Created with Sketch.</desc>
    <defs>
        <polygon id="path-1" points="0 60 50 60 50 0 0 0"></polygon>
    </defs>
    <g id="Icon/-Import-W2" stroke="none" stroke-width="1" fill="none" fill-rule="evenodd">
        <g id="Import-W2" transform="translate(-1.000000, 0.000000)">
            <path d="M38,47 L12,47 C11.447,47 11,46.552 11,46 L11,34 C11,33.448 11.447,33 12,33 L38,33 C38.553,33 39,33.448 39,34 L39,46 C39,46.552 38.553,47 38,47 Z" id="Fill-1" fill="#D3E5EF"></path>
            <path d="M36,0 C36.2652165,0 36.5195704,0.10535684 36.7071068,0.292893219 L41.7071068,5.29289322 C41.8946432,5.4804296 42,5.73478351 42,6 L42,21 C42,21.5522847 41.5522847,22 41,22 L9,22 C8.44771525,22 8,21.5522847 8,21 L8,1 C8,0.44771525 8.44771525,0 9,0 L36,0 Z M10,2 L10,20 L40,20 L40,6.41421356 L35.5857864,2 L10,2 Z" id="Stroke-3" fill="#4B5E69" fill-rule="nonzero"></path>
            <path d="M36,1 C36,0.44771525 35.5522847,0 35,0 C34.4477153,0 34,0.44771525 34,1 L34,7 C34,7.55228475 34.4477153,8 35,8 L41,8 C41.5522847,8 42,7.55228475 42,7 C42,6.44771525 41.5522847,6 41,6 L36,6 L36,1 Z" id="Stroke-5" fill="#4B5E69" fill-rule="nonzero"></path>
            <polygon id="Fill-7" fill="#5BBF89" points="14.3926 7.2148 16.2066 7.2148 17.8026 12.4288 19.5296 7.1928 20.9816 7.1928 22.7086 12.4288 24.3036 7.2148 26.0746 7.2148 23.4456 14.9698 21.9716 14.9698 20.2336 9.9318 18.4956 14.9698 17.0216 14.9698"></polygon>
            <path d="M27.1631,13.5757 L29.7261,11.4777 C29.9681,11.2807 30.1731,11.1027 30.3421,10.9457 C30.5111,10.7877 30.6481,10.6377 30.7551,10.4947 C30.8601,10.3527 30.9371,10.2137 30.9851,10.0777 C31.0331,9.9427 31.0571,9.7947 31.0571,9.6337 C31.0571,9.3047 30.9621,9.0547 30.7711,8.8867 C30.5801,8.7187 30.3311,8.6347 30.0231,8.6347 C29.7231,8.6347 29.4561,8.7187 29.2261,8.8877 C28.9941,9.0557 28.7361,9.3157 28.4501,9.6677 L27.2621,8.7107 C27.4521,8.4527 27.6451,8.2237 27.8401,8.0247 C28.0341,7.8257 28.2431,7.6577 28.4671,7.5207 C28.6901,7.3837 28.9371,7.2807 29.2091,7.2107 C29.4801,7.1397 29.7881,7.1047 30.1331,7.1047 C30.5291,7.1047 30.8901,7.1617 31.2171,7.2757 C31.5431,7.3887 31.8211,7.5487 32.0531,7.7537 C32.2831,7.9597 32.4631,8.2087 32.5921,8.5017 C32.7201,8.7957 32.7841,9.1217 32.7841,9.4807 L32.7841,9.5027 C32.7841,9.8257 32.7421,10.1137 32.6571,10.3667 C32.5731,10.6197 32.4481,10.8577 32.2831,11.0817 C32.1181,11.3047 31.9071,11.5287 31.6511,11.7527 C31.3941,11.9767 31.0981,12.2207 30.7601,12.4837 L29.5061,13.4517 L32.8611,13.4517 L32.8611,14.9147 L27.1631,14.9147 L27.1631,13.5757 Z" id="Fill-9" fill="#5BBF89"></path>
            <path d="M43,29 L43,52 L7,52 L7,29 L21.167,29 C21.7192847,29 22.167,28.5522847 22.167,28 C22.167,27.4477153 21.7192847,27 21.167,27 L6,27 C5.44771525,27 5,27.4477153 5,28 L5,53 C5,53.5522847 5.44771525,54 6,54 L44,54 C44.5522847,54 45,53.5522847 45,53 L45,28 C45,27.4477153 44.5522847,27 44,27 L29.083,27 C28.5307153,27 28.083,27.4477153 28.083,28 C28.083,28.5522847 28.5307153,29 29.083,29 L43,29 Z" id="Stroke-11" fill="#4B5E69" fill-rule="nonzero"></path>
            <path d="M24,25 L24,38 C24,38.5522847 24.4477153,39 25,39 C25.5522847,39 26,38.5522847 26,38 L26,25 C26,24.4477153 25.5522847,24 25,24 C24.4477153,24 24,24.4477153 24,25 Z" id="Stroke-13" fill="#4B5E69" fill-rule="nonzero"></path>
            <path d="M20.7071068,34.2928932 C20.3165825,33.9023689 19.6834175,33.9023689 19.2928932,34.2928932 C18.9023689,34.6834175 18.9023689,35.3165825 19.2928932,35.7071068 L24.2928932,40.7071068 C24.6834175,41.0976311 25.3165825,41.0976311 25.7071068,40.7071068 L30.7071068,35.7071068 C31.0976311,35.3165825 31.0976311,34.6834175 30.7071068,34.2928932 C30.3165825,33.9023689 29.6834175,33.9023689 29.2928932,34.2928932 L25,38.5857864 L20.7071068,34.2928932 Z" id="Stroke-15" fill="#4B5E69" fill-rule="nonzero"></path>
            <path d="M2,54 L2,56 C2,57.1047153 2.89528475,58 4,58 L46,58 C47.1047153,58 48,57.1047153 48,56 L48,54 L2,54 Z M46,60 L4,60 C1.79071525,60 0,58.2092847 0,56 L0,53 C0,52.4477153 0.44771525,52 1,52 L49,52 C49.5522847,52 50,52.4477153 50,53 L50,56 C50,58.2092847 48.2092847,60 46,60 Z" id="Stroke-17" fill="#4B5E69" fill-rule="nonzero"></path>
            <mask id="mask-2" fill="white">
                <use xlink:href="#path-1"></use>
            </mask>
            <g id="Clip-20"></g>
            <path d="M21,57 C20.4477153,57 20,56.5522847 20,56 L20,53 C20,52.4477153 20.4477153,52 21,52 L29,52 C29.5522847,52 30,52.4477153 30,53 L30,56 C30,56.5522847 29.5522847,57 29,57 L21,57 Z M28,55 L28,54 L22,54 L22,55 L28,55 Z" id="Stroke-19" fill="#4B5E69" fill-rule="nonzero" mask="url(#mask-2)"></path>
        </g>
    </g>
</svg>