<?xml version="1.0" encoding="UTF-8"?>
<svg width="58px" height="46px" viewBox="0 0 58 46" version="1.1" xmlns="http://www.w3.org/2000/svg" xmlns:xlink="http://www.w3.org/1999/xlink">
    <!-- Generator: Sketch 49.3 (51167) - http://www.bohemiancoding.com/sketch -->
    <title>Icon/ Income</title>
    <desc>Created with Sketch.</desc>
    <defs></defs>
    <g id="Icon/-Income" stroke="none" stroke-width="1" fill="none" fill-rule="evenodd">
        <g id="Income" transform="translate(-1.000000, 0.000000)">
            <g id="Icon/-Income">
                <path d="M7,14 C9.209,14 11,12.209 11,10 L47,10 C47,12.209 48.791,14 51,14" id="Fill-1" fill="#D3E5EF"></path>
                <path d="M10,7 C12.209,7 14,5.209 14,3 L44,3 C44,5.209 45.791,7 48,7" id="Fill-3" fill="#D3E5EF"></path>
                <path d="M58,36.5857864 L58,15 L2,15 L2,45 L49.5857864,45 L58,36.5857864 Z M50,47 L1,47 C0.44771525,47 0,46.5522847 0,46 L0,14 C0,13.4477153 0.44771525,13 1,13 L59,13 C59.5522847,13 60,13.4477153 60,14 L60,37 C60,37.2652165 59.8946432,37.5195704 59.7071068,37.7071068 L50.7071068,46.7071068 C50.5195704,46.8946432 50.2652165,47 50,47 Z" id="Stroke-5" fill="#4B5E69" fill-rule="nonzero"></path>
                <path d="M5,8 L55,8 L55,11 C55,11.5522847 55.4477153,12 56,12 C56.5522847,12 57,11.5522847 57,11 L57,7 C57,6.44771525 56.5522847,6 56,6 L4,6 C3.44771525,6 3,6.44771525 3,7 L3,11 C3,11.5522847 3.44771525,12 4,12 C4.55228475,12 5,11.5522847 5,11 L5,8 Z" id="Stroke-7" fill="#4B5E69" fill-rule="nonzero"></path>
                <path d="M8,1 L52,1 L52,4 C52,4.55228475 52.4477153,5 53,5 C53.5522847,5 54,4.55228475 54,4 L54,0 C54,-0.55228475 53.5522847,-1 53,-1 L7,-1 C6.44771525,-1 6,-0.55228475 6,0 L6,4 C6,4.55228475 6.44771525,5 7,5 C7.55228475,5 8,4.55228475 8,4 L8,1 Z" id="Stroke-9" fill="#4B5E69" fill-rule="nonzero"></path>
                <path d="M6,37.1000318 L6,22.8999682 C7.95904082,22.5022545 9.50225453,20.9590408 9.89996821,19 L50.1000318,19 C50.4977455,20.9590408 52.0409592,22.5022545 54,22.8999682 L54,33 C54,33.5522847 54.4477153,34 55,34 C55.5522847,34 56,33.5522847 56,33 L56,22 C56,21.4477153 55.5522847,21 55,21 C53.3432847,21 52,19.6567153 52,18 C52,17.4477153 51.5522847,17 51,17 L9,17 C8.44771525,17 8,17.4477153 8,18 C8,19.6567153 6.65671525,21 5,21 C4.44771525,21 4,21.4477153 4,22 L4,38 C4,38.5522847 4.44771525,39 5,39 C6.65671525,39 8,40.3432847 8,42 C8,42.5522847 8.44771525,43 9,43 L46,43 C46.5522847,43 47,42.5522847 47,42 C47,41.4477153 46.5522847,41 46,41 L9.89996821,41 C9.50225453,39.0409592 7.95904082,37.4977455 6,37.1000318 Z" id="Stroke-11" fill="#4B5E69" fill-rule="nonzero"></path>
                <path d="M13,33 C11.346,33 10,31.654 10,30 C10,28.346 11.346,27 13,27 C14.654,27 16,28.346 16,30 C16,31.654 14.654,33 13,33" id="Fill-13" fill="#5BBF89"></path>
                <path d="M47,33 C45.346,33 44,31.654 44,30 C44,28.346 45.346,27 47,27 C48.654,27 50,28.346 50,30 C50,31.654 48.654,33 47,33" id="Fill-15" fill="#5BBF89"></path>
                <path d="M38,30 C38,34.971 34.418,39 30,39 C25.582,39 22,34.971 22,30 C22,25.029 25.582,21 30,21 C34.418,21 38,25.029 38,30" id="Fill-17" fill="#5BBF89"></path>
                <path d="M59,37 C59.5522847,37 60,36.5522847 60,36 C60,35.4477153 59.5522847,35 59,35 L49,35 C48.4477153,35 48,35.4477153 48,36 L48,46 C48,46.5522847 48.4477153,47 49,47 C49.5522847,47 50,46.5522847 50,46 L50,37 L59,37 Z" id="Stroke-19" fill="#4B5E69" fill-rule="nonzero"></path>
            </g>
        </g>
    </g>
</svg>