<?xml version="1.0" encoding="UTF-8"?>
<svg width="53px" height="59px" viewBox="0 0 53 59" version="1.1" xmlns="http://www.w3.org/2000/svg" xmlns:xlink="http://www.w3.org/1999/xlink">
    <!-- Generator: Sketch 49.3 (51167) - http://www.bohemiancoding.com/sketch -->
    <title>Icon/ Income summary</title>
    <desc>Created with Sketch.</desc>
    <defs></defs>
    <g id="Icon/-Income-summary" stroke="none" stroke-width="1" fill="none" fill-rule="evenodd">
        <g id="Income-summary" transform="translate(-1.000000, -1.000000)">
            <path d="M1,11 L1,5 C1,3.34 2.34,2 4,2 C5.66,2 7,3.34 7,5 L7,11 L1,11 Z" id="Fill-1" fill="#D3E5EF"></path>
            <path d="M22.0498,19.3628 C22.0498,17.4818 20.0758,16.6358 18.3678,16.0668 C16.9408,15.5858 16.2888,15.1188 16.2888,14.4338 C16.2888,13.9668 16.8348,13.4128 17.8388,13.4128 C18.8078,13.4128 20.1478,14.1418 20.2878,14.2148 C20.4998,14.3318 20.7628,14.2148 20.9038,14.0398 L21.5738,13.2088 C21.6968,13.0628 21.6438,12.8148 21.4678,12.7268 C21.1798,12.5488 20.2018,12.0138 18.8748,11.8238 L18.8748,10.4378 C18.8748,10.1958 18.6788,9.9998 18.4378,9.9998 L17.5628,9.9998 C17.3208,9.9998 17.1248,10.1958 17.1248,10.4378 L17.1248,11.8068 C14.9218,12.0718 13.9818,13.3888 13.9818,14.5498 C13.9818,16.2708 15.6368,17.1458 17.2928,17.6998 C18.7738,18.1958 19.5298,18.7068 19.5298,19.4498 C19.5298,20.0768 18.8428,20.5728 17.9268,20.5728 C16.7818,20.5728 15.3558,19.7128 15.2668,19.6688 C15.1088,19.5668 14.8088,19.5668 14.6688,19.7708 L14.0338,20.6748 C13.8758,20.9078 13.9638,20.9818 14.1218,21.1128 C14.4248,21.3508 15.4368,22.0178 17.1248,22.2008 L17.1248,23.5628 C17.1248,23.8038 17.3208,23.9998 17.5628,23.9998 L18.4378,23.9998 C18.6788,23.9998 18.8748,23.8038 18.8748,23.5628 L18.8748,22.1878 C20.8448,21.9048 22.0498,20.6788 22.0498,19.3628" id="Fill-3" fill="#5BBF89"></path>
            <path d="M50,49.4165 L50,5.9995 C50,3.23890854 47.7609781,0.9995 45,0.9995 L4,0.9995 C3.44771525,0.9995 3,1.44721525 3,1.9995 C3,2.55178475 3.44771525,2.9995 4,2.9995 L45,2.9995 C46.6563313,2.9995 48,4.34340074 48,5.9995 L48,49.4165 C48,49.9687847 48.4477153,50.4165 49,50.4165 C49.5522847,50.4165 50,49.9687847 50,49.4165 Z" id="Stroke-5" fill="#4B5E69" fill-rule="nonzero"></path>
            <g id="Group-10" transform="translate(7.000000, 53.000000)">
                <path d="M0,4 C0,5.657 1.343,7 3,7 C4.657,7 6,5.657 6,4 L6,0 L30,0 L47,0 L47,4 C47,5.657 45.657,7 44,7 L3,7" id="Fill-7" fill="#D3E5EF"></path>
                <path d="M0,4 C0,5.657 1.343,7 3,7 C4.657,7 6,5.657 6,4 L6,0 L30,0 L47,0 L47,4 C47,5.657 45.657,7 44,7 L3,7" id="Stroke-9" stroke="#4B5E69" stroke-width="2" stroke-linejoin="round"></path>
            </g>
            <path d="M6,12 L1,12 C0.44771525,12 0,11.5522847 0,11 L0,5 C0,2.79071525 1.79071525,1 4,1 C6.20928475,1 8,2.79071525 8,5 L8,57 L6,57 L6,12 Z M6,5 C6,3.89528475 5.10471525,3 4,3 C2.89528475,3 2,3.89528475 2,5 L2,10 L6,10 L6,5 Z" id="Stroke-11" fill="#4B5E69" fill-rule="nonzero"></path>
            <path d="M27,16 L37,16 C37.5522847,16 38,15.5522847 38,15 C38,14.4477153 37.5522847,14 37,14 L27,14 C26.4477153,14 26,14.4477153 26,15 C26,15.5522847 26.4477153,16 27,16 Z" id="Stroke-13" fill="#4B5E69" fill-rule="nonzero"></path>
            <path d="M27,20 L42,20 C42.5522847,20 43,19.5522847 43,19 C43,18.4477153 42.5522847,18 42,18 L27,18 C26.4477153,18 26,18.4477153 26,19 C26,19.5522847 26.4477153,20 27,20 Z" id="Stroke-15" fill="#4B5E69" fill-rule="nonzero"></path>
            <path d="M22.0498,39.3628 C22.0498,37.4818 20.0758,36.6358 18.3678,36.0668 C16.9408,35.5858 16.2888,35.1188 16.2888,34.4338 C16.2888,33.9668 16.8348,33.4128 17.8388,33.4128 C18.8078,33.4128 20.1478,34.1418 20.2878,34.2148 C20.4998,34.3318 20.7628,34.2148 20.9038,34.0398 L21.5738,33.2088 C21.6968,33.0628 21.6438,32.8148 21.4678,32.7268 C21.1798,32.5488 20.2018,32.0138 18.8748,31.8238 L18.8748,30.4378 C18.8748,30.1958 18.6788,29.9998 18.4378,29.9998 L17.5628,29.9998 C17.3208,29.9998 17.1248,30.1958 17.1248,30.4378 L17.1248,31.8068 C14.9218,32.0718 13.9818,33.3888 13.9818,34.5498 C13.9818,36.2708 15.6368,37.1458 17.2928,37.6998 C18.7738,38.1958 19.5298,38.7068 19.5298,39.4498 C19.5298,40.0768 18.8428,40.5728 17.9268,40.5728 C16.7818,40.5728 15.3558,39.7128 15.2668,39.6688 C15.1088,39.5668 14.8088,39.5668 14.6688,39.7708 L14.0338,40.6748 C13.8758,40.9078 13.9638,40.9818 14.1218,41.1128 C14.4248,41.3508 15.4368,42.0178 17.1248,42.2008 L17.1248,43.5628 C17.1248,43.8038 17.3208,43.9998 17.5628,43.9998 L18.4378,43.9998 C18.6788,43.9998 18.8748,43.8038 18.8748,43.5628 L18.8748,42.1878 C20.8448,41.9048 22.0498,40.6788 22.0498,39.3628" id="Fill-17" fill="#5BBF89"></path>
            <path d="M27,36 L37,36 C37.5522847,36 38,35.5522847 38,35 C38,34.4477153 37.5522847,34 37,34 L27,34 C26.4477153,34 26,34.4477153 26,35 C26,35.5522847 26.4477153,36 27,36 Z" id="Stroke-19" fill="#4B5E69" fill-rule="nonzero"></path>
            <path d="M27,40 L42,40 C42.5522847,40 43,39.5522847 43,39 C43,38.4477153 42.5522847,38 42,38 L27,38 C26.4477153,38 26,38.4477153 26,39 C26,39.5522847 26.4477153,40 27,40 Z" id="Stroke-21" fill="#4B5E69" fill-rule="nonzero"></path>
        </g>
    </g>
</svg>