<?xml version="1.0" encoding="UTF-8"?>
<svg width="60px" height="60px" viewBox="0 0 60 60" version="1.1" xmlns="http://www.w3.org/2000/svg" xmlns:xlink="http://www.w3.org/1999/xlink">
    <!-- Generator: Sketch 49.3 (51167) - http://www.bohemiancoding.com/sketch -->
    <title>Icon/ insured through employer</title>
    <desc>Created with Sketch.</desc>
    <defs>
        <polygon id="path-1" points="27 0.115 27 24 13.50005 24 0.0001 24 0.0001 0.115 27 0.115"></polygon>
        <polygon id="path-3" points="0 60 60 60 60 0 0 0"></polygon>
    </defs>
    <g id="Icon/-insured-through-employer" stroke="none" stroke-width="1" fill="none" fill-rule="evenodd">
        <g id="insured-through-employer">
            <g id="Group-3" transform="translate(33.000000, 36.000000)">
                <mask id="mask-2" fill="white">
                    <use xlink:href="#path-1"></use>
                </mask>
                <g id="Clip-2"></g>
                <path d="M13.7451,24 C13.7451,24 27.0001,16.201 27.0001,7.427 C27.0001,3.389 23.9271,0.115 20.1361,0.115 C16.9431,0.115 14.2681,2.439 13.5001,5.583 C12.7311,2.439 10.0571,0.115 6.8641,0.115 C3.0731,0.115 0.0001,3.389 0.0001,7.427 C0.0001,16.201 13.2551,24 13.2551,24" id="Fill-1" fill="#F4877A" mask="url(#mask-2)"></path>
            </g>
            <path d="M51.2139,47 L47.9999,47 L47.9999,43.786 C47.9999,43.352 47.6489,43 47.2139,43 L45.7859,43 C45.3519,43 44.9999,43.352 44.9999,43.786 L44.9999,47 L41.7859,47 C41.3519,47 40.9999,47.352 40.9999,47.786 L40.9999,49.214 C40.9999,49.648 41.3519,50 41.7859,50 L44.9999,50 L44.9999,53.214 C44.9999,53.648 45.3519,54 45.7859,54 L47.2139,54 C47.6489,54 47.9999,53.648 47.9999,53.214 L47.9999,50 L51.2139,50 C51.6489,50 51.9999,49.648 51.9999,49.214 L51.9999,47.786 C51.9999,47.352 51.6489,47 51.2139,47" id="Fill-4" fill="#FFFFFF"></path>
            <path d="M12,49 C12,45.134 8.866,42 5,42 L5,49 L12,49 Z" id="Fill-6" fill="#D3E5EF"></path>
            <mask id="mask-4" fill="white">
                <use xlink:href="#path-3"></use>
            </mask>
            <g id="Clip-9"></g>
            <polygon id="Fill-8" fill="#D3E5EF" mask="url(#mask-4)" points="44 31 54 31 54 28 44 28"></polygon>
            <polygon id="Fill-10" fill="#D3E5EF" mask="url(#mask-4)" points="5 31 14 31 14 28 5 28"></polygon>
            <polygon id="Fill-11" fill="#D3E5EF" mask="url(#mask-4)" points="20 31 38 31 38 28 20 28"></polygon>
            <path d="M38,10 L36,10 L36,5 C36,4.447 35.553,4 35,4 L23,4 C22.447,4 22,4.447 22,5 L22,10 L20,10 L20,5 C20,3.346 21.346,2 23,2 L35,2 C36.654,2 38,3.346 38,5 L38,10 Z M24,10 L34,10 L34,6 L24,6 L24,10 Z M15,30 L19,30 L19,24 L15,24 L15,30 Z M55,10 L40,10 L40,5 C40,2.243 37.757,0 35,0 L23,0 C20.243,0 18,2.243 18,5 L18,10 L3,10 C1.346,10 0,11.346 0,13 L0,25 C0,26.654 1.346,28 3,28 L3,48 C3,49.654 4.314,51 5.93,51 L32,51 C32.553,51 33,50.553 33,50 C33,49.447 32.553,49 32,49 L5.93,49 C5.417,49 5,48.552 5,48 L5,28 L13,28 L13,30 C13,31.121 13.769,32 14.75,32 L19.25,32 C20.231,32 21,31.121 21,30 L21,28 L25,28 L33,28 L38,28 C38.553,28 39,27.553 39,27 C39,26.447 38.553,26 38,26 L33,26 L25,26 L21,26 L21,24 C21,22.879 20.231,22 19.25,22 L14.75,22 C13.769,22 13,22.879 13,24 L13,26 L4,26 L3,26 C2.448,26 2,25.552 2,25 L2,13 C2,12.448 2.448,12 3,12 L19,12 L23,12 L35,12 L39,12 L55,12 C55.552,12 56,12.448 56,13 L56,25 C56,25.552 55.552,26 55,26 L54,26 L44,26 C43.447,26 43,26.447 43,27 C43,27.553 43.447,28 44,28 L53,28 L53,33.93 C53,34.482 53.447,34.93 54,34.93 C54.553,34.93 55,34.482 55,33.93 L55,28 C56.654,28 58,26.654 58,25 L58,13 C58,11.346 56.654,10 55,10 Z" id="Fill-12" fill="#4F5661" mask="url(#mask-4)"></path>
            <path d="M39,30 L43,30 L43,24 L39,24 L39,30 Z M43.25,32 L38.75,32 C37.769,32 37,31.121 37,30 L37,24 C37,22.879 37.769,22 38.75,22 L43.25,22 C44.231,22 45,22.879 45,24 L45,30 C45,31.121 44.231,32 43.25,32 Z" id="Fill-13" fill="#4F5661" mask="url(#mask-4)"></path>
        </g>
    </g>
</svg>