<?xml version="1.0" encoding="UTF-8"?>
<svg width="60px" height="60px" viewBox="0 0 60 60" version="1.1" xmlns="http://www.w3.org/2000/svg" xmlns:xlink="http://www.w3.org/1999/xlink">
    <!-- Generator: Sketch 49.3 (51167) - http://www.bohemiancoding.com/sketch -->
    <title>Icon/ Internet &amp; phone bill</title>
    <desc>Created with Sketch.</desc>
    <defs></defs>
    <g id="Icon/-Internet-&amp;-phone-bill" stroke="none" stroke-width="1" fill="none" fill-rule="evenodd">
        <g id="Internet-&amp;-phone-bill">
            <polygon id="Fill-1" fill="#D3E5EF" points="4 51 32 51 32 12 4 12"></polygon>
            <g id="Group-18">
                <path d="M33,60 L3,60 C1.346,60 0,58.654 0,57 L0,6 C0,4.346 1.346,3 3,3 L32,3 C32.552,3 33,3.447 33,4 C33,4.553 32.552,5 32,5 L3,5 C2.449,5 2,5.448 2,6 L2,57 C2,57.552 2.449,58 3,58 L33,58 C33.551,58 34,57.552 34,57 L34,32.66 C34,32.107 34.448,31.66 35,31.66 C35.552,31.66 36,32.107 36,32.66 L36,57 C36,58.654 34.654,60 33,60" id="Fill-2" fill="#4F5661"></path>
                <path d="M32,13 L4,13 C3.448,13 3,12.553 3,12 C3,11.447 3.448,11 4,11 L32,11 C32.552,11 33,11.447 33,12 C33,12.553 32.552,13 32,13" id="Fill-4" fill="#4F5661"></path>
                <path d="M32,52 L4,52 C3.448,52 3,51.553 3,51 C3,50.447 3.448,50 4,50 L32,50 C32.552,50 33,50.447 33,51 C33,51.553 32.552,52 32,52" id="Fill-6" fill="#4F5661"></path>
                <path d="M20,56 L16,56 C15.448,56 15,55.553 15,55 C15,54.447 15.448,54 16,54 L20,54 C20.552,54 21,54.447 21,55 C21,55.553 20.552,56 20,56" id="Fill-8" fill="#4F5661"></path>
                <path d="M21.3613,40.4062 C22.0233,39.1802 22.5203,37.6142 22.8423,35.8952 L26.7103,35.8952 C25.5363,37.9762 23.6383,39.5902 21.3613,40.4062 Z M9.2893,35.8952 L13.1573,35.8952 C13.4803,37.6142 13.9763,39.1802 14.6383,40.4062 C12.3613,39.5902 10.4643,37.9762 9.2893,35.8952 Z M14.6383,21.5942 C13.9893,22.7952 13.4993,24.3222 13.1763,26.0002 L9.3533,26.0002 C10.5313,23.9702 12.4003,22.3962 14.6383,21.5942 Z M26.6473,26.0002 L22.8233,26.0002 C22.5003,24.3222 22.0103,22.7952 21.3613,21.5942 C23.5993,22.3962 25.4683,23.9702 26.6473,26.0002 Z M23.1243,28.0002 L27.5383,28.0002 C27.8373,28.9472 28.0003,29.9552 28.0003,31.0002 C28.0003,32.0072 27.8473,32.9782 27.5693,33.8952 L23.1343,33.8952 C23.2353,32.9392 23.2913,31.9662 23.2913,31.0002 C23.2913,29.9992 23.2323,28.9892 23.1243,28.0002 Z M18.0003,21.0002 C18.9253,21.0002 20.1383,22.8512 20.8033,26.0002 L15.1963,26.0002 C15.8613,22.8512 17.0743,21.0002 18.0003,21.0002 Z M8.0003,31.0002 C8.0003,29.9552 8.1623,28.9472 8.4613,28.0002 L12.8763,28.0002 C12.7673,28.9892 12.7083,29.9992 12.7083,31.0002 C12.7083,31.9662 12.7643,32.9392 12.8653,33.8952 L8.4313,33.8952 C8.1533,32.9782 8.0003,32.0072 8.0003,31.0002 Z M14.8673,33.8952 C14.7683,32.9972 14.7083,32.0332 14.7083,31.0002 C14.7083,29.9272 14.7713,28.9272 14.8783,28.0002 L21.1223,28.0002 C21.2283,28.9272 21.2913,29.9272 21.2913,31.0002 C21.2913,32.0332 21.2323,32.9972 21.1323,33.8952 L14.8673,33.8952 Z M18.0003,41.0002 C17.0653,41.0002 15.8373,39.1052 15.1773,35.8952 L20.8223,35.8952 C20.1623,39.1052 18.9353,41.0002 18.0003,41.0002 Z M18.0003,19.0002 C11.3833,19.0002 6.0003,24.3832 6.0003,31.0002 C6.0003,37.6172 11.3833,43.0002 18.0003,43.0002 C24.6163,43.0002 30.0003,37.6172 30.0003,31.0002 C30.0003,24.3832 24.6163,19.0002 18.0003,19.0002 Z" id="Fill-10" fill="#4F5661"></path>
                <path d="M59,0 L37,0 C35.346,0 34,1.346 34,3 L34,29 C34,29.404 34.244,29.77 34.617,29.924 C34.741,29.976 34.871,30 35,30 C35.26,30 35.516,29.898 35.707,29.707 L41.414,24 L57,24 C58.654,24 60,22.654 60,21 L60,1 C60,0.447 59.552,0 59,0" id="Fill-12" fill="#53C27C"></path>
                <path d="M51.5,14.7002 C51.5,12.5502 49.307,11.5832 47.409,10.9332 C45.823,10.3832 45.099,9.8492 45.099,9.0662 C45.099,8.5332 45.706,7.9002 46.821,7.9002 C47.897,7.9002 49.386,8.7332 49.542,8.8162 C49.777,8.9502 50.071,8.8162 50.228,8.6172 L50.972,7.6672 C51.108,7.5002 51.049,7.2172 50.854,7.1172 C50.534,6.9122 49.447,6.3022 47.972,6.0842 L47.972,4.5002 C47.972,4.2232 47.754,4.0002 47.486,4.0002 L46.514,4.0002 C46.246,4.0002 46.028,4.2232 46.028,4.5002 L46.028,6.0642 C43.58,6.3682 42.534,7.8732 42.534,9.2002 C42.534,11.1672 44.375,12.1672 46.214,12.8002 C47.859,13.3672 48.701,13.9502 48.701,14.8002 C48.701,15.5162 47.937,16.0832 46.919,16.0832 C45.646,16.0832 44.061,15.0992 43.963,15.0502 C43.787,14.9332 43.454,14.9332 43.298,15.1672 L42.593,16.2002 C42.417,16.4672 42.515,16.5502 42.691,16.7002 C43.028,16.9722 44.151,17.7342 46.028,17.9432 L46.028,19.5002 C46.028,19.7762 46.246,20.0002 46.514,20.0002 L47.486,20.0002 C47.754,20.0002 47.972,19.7762 47.972,19.5002 L47.972,17.9292 C50.161,17.6052 51.5,16.2052 51.5,14.7002" id="Fill-14" fill="#FFFFFF"></path>
                <path d="M18,7.5 C17.724,7.5 17.5,7.725 17.5,8 C17.5,8.275 17.724,8.5 18,8.5 C18.276,8.5 18.5,8.275 18.5,8 C18.5,7.725 18.276,7.5 18,7.5 M18,9.5 C17.173,9.5 16.5,8.827 16.5,8 C16.5,7.173 17.173,6.5 18,6.5 C18.827,6.5 19.5,7.173 19.5,8 C19.5,8.827 18.827,9.5 18,9.5" id="Fill-16" fill="#4F5661"></path>
            </g>
        </g>
    </g>
</svg>