<?xml version="1.0" encoding="UTF-8"?>
<svg width="69px" height="67px" viewBox="0 0 69 67" version="1.1" xmlns="http://www.w3.org/2000/svg" xmlns:xlink="http://www.w3.org/1999/xlink">
    <!-- Generator: Sketch 49.3 (51167) - http://www.bohemiancoding.com/sketch -->
    <title>Icon/ Investment Icon</title>
    <desc>Created with Sketch.</desc>
    <defs></defs>
    <g id="Icon/-Investment-Icon" stroke="none" stroke-width="1" fill="none" fill-rule="evenodd">
        <g id="Page-1">
            <path d="M48,28 L41,28 C40.448,28 40,28.447 40,29 L40,51 C40,51.553 40.448,52 41,52 L48,52 C48.552,52 49,51.553 49,51 L49,29 C49,28.447 48.552,28 48,28" id="Fill-1" fill="#D3E5EF"></path>
            <path d="M58,0 L50,0 C49.448,0 49,0.447 49,1 C49,1.553 49.448,2 50,2 L55.675,2 C40.179,19.979 20.952,24.981 20.757,25.03 C20.222,25.164 19.896,25.707 20.03,26.243 C20.144,26.697 20.551,27 21,27 C21.08,27 21.161,26.99 21.243,26.97 C21.442,26.92 41.103,21.826 57,3.526 L57,9 C57,9.553 57.448,10 58,10 C58.552,10 59,9.553 59,9 L59,1 C59,0.447 58.552,0 58,0" id="Fill-3" fill="#4F5661"></path>
            <path d="M68,58 L26.396,58 C25.843,58 25.396,57.553 25.396,57 C25.396,56.447 25.843,56 26.396,56 L68,56 C68.552,56 69,56.447 69,57 C69,57.553 68.552,58 68,58" id="Fill-5" fill="#4F5661"></path>
            <path d="M24.0835,42 L17.0835,42 C16.5315,42 16.0835,42.447 16.0835,43 L16.0835,51 C16.0835,51.553 16.5315,52 17.0835,52 L24.0835,52 C24.6355,52 25.0835,51.553 25.0835,51 L25.0835,43 C25.0835,42.447 24.6355,42 24.0835,42" id="Fill-7" fill="#D3E5EF"></path>
            <path d="M11,45 C4.935,45 0,49.935 0,56 C0,62.065 4.935,67 11,67 C17.065,67 22,62.065 22,56 C22,49.935 17.065,45 11,45" id="Fill-9" fill="#53C27C"></path>
            <path d="M15.0498,58.3633 C15.0498,56.4813 13.0758,55.6353 11.3678,55.0673 C9.9408,54.5863 9.2888,54.1193 9.2888,53.4333 C9.2888,52.9673 9.8348,52.4133 10.8398,52.4133 C11.8078,52.4133 13.1478,53.1423 13.2878,53.2153 C13.4998,53.3323 13.7638,53.2153 13.9038,53.0403 L14.5738,52.2093 C14.6968,52.0633 14.6448,51.8153 14.4678,51.7273 C14.1798,51.5493 13.2028,51.0143 11.8748,50.8243 L11.8748,49.4373 C11.8748,49.1963 11.6788,49.0003 11.4378,49.0003 L10.5628,49.0003 C10.3208,49.0003 10.1248,49.1963 10.1248,49.4373 L10.1248,50.8063 C7.9218,51.0723 6.9818,52.3883 6.9818,53.5513 C6.9818,55.2713 8.6368,56.1463 10.2938,56.7003 C11.7738,57.1963 12.5298,57.7073 12.5298,58.4503 C12.5298,59.0773 11.8428,59.5733 10.9278,59.5733 C9.7818,59.5733 8.3558,58.7133 8.2668,58.6693 C8.1088,58.5673 7.8088,58.5673 7.6688,58.7713 L7.0338,59.6753 C6.8758,59.9093 6.9638,59.9813 7.1218,60.1133 C7.4248,60.3513 8.4368,61.0183 10.1248,61.2013 L10.1248,62.5623 C10.1248,62.8043 10.3208,63.0003 10.5628,63.0003 L11.4378,63.0003 C11.6788,63.0003 11.8748,62.8043 11.8748,62.5623 L11.8748,61.1883 C13.8448,60.9053 15.0498,59.6793 15.0498,58.3633" id="Fill-11" fill="#FFFFFF"></path>
            <path d="M10,41.7334 C9.448,41.7334 9,41.2864 9,40.7334 L9,10.0004 C9,9.4474 9.448,9.0004 10,9.0004 C10.552,9.0004 11,9.4474 11,10.0004 L11,40.7334 C11,41.2864 10.552,41.7334 10,41.7334" id="Fill-13" fill="#4F5661"></path>
            <path d="M36,38 L29,38 C28.448,38 28,38.447 28,39 L28,51 C28,51.553 28.448,52 29,52 L36,52 C36.552,52 37,51.553 37,51 L37,39 C37,38.447 36.552,38 36,38" id="Fill-15" fill="#D3E5EF"></path>
            <path d="M63,16 C63,15.447 62.552,15 62,15 L53,15 C52.448,15 52,15.447 52,16 L52,51 C52,51.553 52.448,52 53,52 L62,52 C62.552,52 63,51.553 63,51 L63,16 Z" id="Fill-17" fill="#53C27C"></path>
        </g>
    </g>
</svg>