<?xml version="1.0" encoding="UTF-8"?>
<svg width="60px" height="51px" viewBox="0 0 60 51" version="1.1" xmlns="http://www.w3.org/2000/svg" xmlns:xlink="http://www.w3.org/1999/xlink">
    <!-- Generator: Sketch 49.3 (51167) - http://www.bohemiancoding.com/sketch -->
    <title>Icon/ Inventory</title>
    <desc>Created with Sketch.</desc>
    <defs>
        <polygon id="path-1" points="0 51 60 51 60 0 0 0"></polygon>
    </defs>
    <g id="Icon/-Inventory" stroke="none" stroke-width="1" fill="none" fill-rule="evenodd">
        <g id="Inventory">
            <polygon id="Fill-1" fill="#D3E5EF" points="4 23 56 23 56 20 4 20"></polygon>
            <g id="Group-15">
                <path d="M4,20 L4,48 C4,48.5517153 4.44828475,49 5,49 L55,49 C55.5517153,49 56,48.5517153 56,48 L56,20 L4,20 Z M55,51 L5,51 C3.34371525,51 2,49.6562847 2,48 L2,19 C2,18.4477153 2.44771525,18 3,18 L57,18 C57.5522847,18 58,18.4477153 58,19 L58,48 C58,49.6562847 56.6562847,51 55,51 Z" id="Stroke-2" fill="#4B5E69" fill-rule="nonzero"></path>
                <path d="M39,34.9697 L39,35.0297 C39,35.5497 38.87,36.0297 38.62,36.4497 C38.1,37.3797 37.09,37.9997 35.93,37.9997 L24.07,37.9997 C22.38,37.9997 21,36.6697 21,35.0297 L21,34.9697 C21,34.5197 21.1,34.0897 21.3,33.6997 C21.79,32.6897 22.85,31.9997 24.07,31.9997 L35.93,31.9997 C37.62,31.9997 39,33.3297 39,34.9697" id="Fill-4" fill="#D3E5EF"></path>
                <path d="M38,34.9697 C38,33.8915445 37.0770447,32.9997 35.93,32.9997 L24.07,32.9997 C23.2553061,32.9997 22.5321432,33.4509688 22.1898175,34.1560166 C22.0642531,34.4008671 22,34.6739429 22,34.9697 L22,35.0297 C22,36.1078555 22.9229553,36.9997 24.07,36.9997 L35.93,36.9997 C36.7042625,36.9997 37.3924428,36.5960916 37.7607071,35.9382161 C37.9185447,35.673049 38,35.3695881 38,35.0297 L38,34.9697 Z M40,34.9697 L40,35.0297 C40,35.7254982 39.8235642,36.382808 39.4928259,36.9377317 C38.7845545,38.2044478 37.4285946,38.9997 35.93,38.9997 L24.07,38.9997 C21.83344,38.9997 20,37.2280613 20,35.0297 L20,34.9697 C20,34.3604571 20.1379208,33.7742938 20.4002919,33.2632079 C21.0677134,31.8875025 22.4904261,30.9997 24.07,30.9997 L35.93,30.9997 C38.16656,30.9997 40,32.7713387 40,34.9697 Z" id="Stroke-6" fill="#4B5E69" fill-rule="nonzero"></path>
                <polygon id="Fill-8" fill="#F4877A" points="35 9 25 9 27 1 33 1"></polygon>
                <mask id="mask-2" fill="white">
                    <use xlink:href="#path-1"></use>
                </mask>
                <g id="Clip-11"></g>
                <polygon id="Fill-10" fill="#F4877A" mask="url(#mask-2)" points="25 19 35 19 35 9 25 9"></polygon>
                <polygon id="Fill-12" fill="#F4877A" mask="url(#mask-2)" points="35 29 30 26 25 29 25 19 35 19"></polygon>
                <path d="M1,20 C0.44771525,20 0,19.5522847 0,19 L0,9 C0,8.44771525 0.44771525,8 1,8 L59,8 C59.5522847,8 60,8.44771525 60,9 L60,19 C60,19.5522847 59.5522847,20 59,20 L1,20 Z M58,18 L58,10 L2,10 L2,18 L58,18 Z" id="Stroke-13" fill="#4B5E69" fill-rule="nonzero" mask="url(#mask-2)"></path>
                <path d="M48.6492189,2 L11.3507811,2 L3.85078106,8 L56.1492189,8 L48.6492189,2 Z M59,10 L1,10 C0.0547223662,10 -0.362832868,8.80964145 0.375304952,8.21913119 L10.375305,0.219131191 C10.552618,0.0772807521 10.7729285,0 11,0 L49,0 C49.2270715,0 49.447382,0.0772807521 49.624695,0.219131191 L59.624695,8.21913119 C60.3628329,8.80964145 59.9452776,10 59,10 Z" id="Stroke-14" fill="#4B5E69" fill-rule="nonzero" mask="url(#mask-2)"></path>
            </g>
        </g>
    </g>
</svg>