<?xml version="1.0" encoding="UTF-8"?>
<svg width="60px" height="49px" viewBox="0 0 60 49" version="1.1" xmlns="http://www.w3.org/2000/svg" xmlns:xlink="http://www.w3.org/1999/xlink">
    <!-- Generator: Sketch 49.3 (51167) - http://www.bohemiancoding.com/sketch -->
    <title>Icon/ Investment Income 2</title>
    <desc>Created with Sketch.</desc>
    <defs></defs>
    <g id="Icon/-Investment-Income-2" stroke="none" stroke-width="1" fill="none" fill-rule="evenodd">
        <g id="Page-1">
            <path d="M53,6 L44,6 C43.448,6 43,6.447 43,7 L43,42 C43,42.553 43.448,43 44,43 L53,43 C53.552,43 54,42.553 54,42 L54,7 C54,6.447 53.552,6 53,6" id="Fill-1" fill="#53C27C"></path>
            <path d="M39,19 L32,19 C31.448,19 31,19.447 31,20 L31,42 C31,42.553 31.448,43 32,43 L39,43 C39.552,43 40,42.553 40,42 L40,20 C40,19.447 39.552,19 39,19" id="Fill-3" fill="#D3E5EF"></path>
            <path d="M15,33 L8,33 C7.448,33 7,33.447 7,34 L7,42 C7,42.553 7.448,43 8,43 L15,43 C15.552,43 16,42.553 16,42 L16,34 C16,33.447 15.552,33 15,33" id="Fill-5" fill="#D3E5EF"></path>
            <path d="M59,49 L3,49 C1.346,49 0,47.654 0,46 L0,1 C0,0.447 0.448,0 1,0 C1.552,0 2,0.447 2,1 L2,46 C2,46.552 2.449,47 3,47 L59,47 C59.552,47 60,47.447 60,48 C60,48.553 59.552,49 59,49" id="Fill-7" fill="#4F5661"></path>
            <path d="M25.5,13.1807 C25.5,10.9717 24.072,9.6737 20.869,8.9737 C18.073,8.3717 17.858,7.7837 17.858,7.0177 C17.858,6.1437 18.737,5.5327 19.997,5.5327 C21.211,5.5327 22.267,5.9337 23.318,6.7927 L23.79,7.1807 L25.341,5.1187 L24.898,4.7607 C23.76,3.8437 22.638,3.3327 21.312,3.1427 L21.312,1.3617 C21.312,0.8947 20.934,0.5147 20.468,0.5147 L19.625,0.5147 C19.16,0.5147 18.782,0.8947 18.782,1.3617 L18.782,3.1947 C16.676,3.6357 15.241,5.1697 15.241,7.1827 C15.241,10.0317 17.529,10.9227 20.004,11.4627 C22.667,12.0277 22.866,12.5817 22.866,13.3647 C22.866,14.3027 21.934,14.9577 20.599,14.9577 C19.065,14.9577 17.907,14.4767 16.605,13.2947 L16.155,12.8867 L14.5,14.8517 L14.926,15.2337 C16.124,16.3067 17.379,16.9637 18.782,17.2557 L18.782,19.1297 C18.782,19.5967 19.16,19.9767 19.625,19.9767 L20.468,19.9767 C20.934,19.9767 21.312,19.5967 21.312,19.1297 L21.312,17.3787 C23.808,17.0967 25.5,15.4577 25.5,13.1807" id="Fill-9" fill="#53C27C"></path>
            <path d="M27,29 L20,29 C19.448,29 19,29.447 19,30 L19,42 C19,42.553 19.448,43 20,43 L27,43 C27.552,43 28,42.553 28,42 L28,30 C28,29.447 27.552,29 27,29" id="Fill-11" fill="#D3E5EF"></path>
        </g>
    </g>
</svg>