<?xml version="1.0" encoding="UTF-8"?>
<svg width="57px" height="59px" viewBox="0 0 57 59" version="1.1" xmlns="http://www.w3.org/2000/svg" xmlns:xlink="http://www.w3.org/1999/xlink">
    <!-- Generator: Sketch 49.3 (51167) - http://www.bohemiancoding.com/sketch -->
    <title>Icon/ IRS Confirmation</title>
    <desc>Created with Sketch.</desc>
    <defs></defs>
    <g id="Icon/-IRS-Confirmation" stroke="none" stroke-width="1" fill="none" fill-rule="evenodd">
        <g id="Page-1">
            <polygon id="Fill-1" fill="#D3E5EF" points="2 32 25 46 1.738 26.938"></polygon>
            <polygon id="Fill-2" fill="#D3E5EF" points="55.728 32 31.869 46 56 26.938"></polygon>
            <g id="Group-23">
                <path d="M40,22.5 C40,28.852 34.851,34 28.5,34 C22.149,34 17,28.852 17,22.5 C17,16.148 22.149,11 28.5,11 C34.851,11 40,16.148 40,22.5" id="Fill-3" fill="#53C27C"></path>
                <path d="M34.8408,18.4971 L33.4418,17.1411 C33.2448,16.9501 32.9288,16.9531 32.7368,17.1501 L26.6108,23.4151 L23.7558,20.7261 C23.6578,20.6351 23.5338,20.5831 23.3918,20.5911 C23.2578,20.5971 23.1308,20.6561 23.0408,20.7571 L21.7378,22.2061 C21.5558,22.4081 21.5698,22.7201 21.7688,22.9051 L25.8348,26.6961 C25.8518,26.7121 25.8688,26.7261 25.8878,26.7391 L26.3548,27.1921 C26.4518,27.2861 26.5768,27.3331 26.7028,27.3331 C26.8328,27.3331 26.9628,27.2821 27.0608,27.1831 L34.8508,19.2061 C34.9438,19.1101 34.9948,18.9821 34.9928,18.8501 C34.9908,18.7171 34.9358,18.5901 34.8408,18.4971" id="Fill-5" fill="#FFFFFF"></path>
                <path d="M55,56 C55,56.552 54.567,57 54.036,57 L2.964,57 C2.433,57 2,56.552 2,56 L2,28.396 L24.677,45.7 C25.82,46.573 27.16,47.009 28.5,47.009 C29.84,47.009 31.18,46.573 32.323,45.7 L55,28.396 L55,56 Z M54.036,23 L43.37,23 C42.817,23 42.37,23.447 42.37,24 C42.37,24.553 42.817,25 43.37,25 L54.036,25 C54.532,25 54.927,25.396 54.979,25.896 L31.11,44.11 C29.549,45.302 27.451,45.302 25.89,44.11 L2.021,25.896 C2.073,25.396 2.468,25 2.964,25 L13.612,25 C14.165,25 14.612,24.553 14.612,24 C14.612,23.447 14.165,23 13.612,23 L2.964,23 C1.33,23 0,24.346 0,26 L0,56 C0,57.654 1.33,59 2.964,59 L54.036,59 C55.67,59 57,57.654 57,56 L57,26 C57,24.346 55.67,23 54.036,23 Z" id="Fill-7" fill="#4F5661"></path>
                <path d="M4.9287,55 C4.6757,55 4.4227,54.904 4.2277,54.714 C3.8337,54.326 3.8277,53.693 4.2157,53.299 L15.0187,42.299 C15.4057,41.904 16.0377,41.9 16.4327,42.286 C16.8267,42.674 16.8327,43.307 16.4457,43.701 L5.6417,54.701 C5.4467,54.9 5.1877,55 4.9287,55" id="Fill-9" fill="#4F5661"></path>
                <path d="M52.0713,55 C51.8123,55 51.5533,54.9 51.3583,54.701 L40.5543,43.701 C40.1673,43.307 40.1733,42.674 40.5673,42.286 C40.9613,41.9 41.5933,41.904 41.9813,42.299 L52.7843,53.299 C53.1723,53.693 53.1663,54.326 52.7723,54.714 C52.5773,54.904 52.3243,55 52.0713,55" id="Fill-11" fill="#4F5661"></path>
                <path d="M18.501,11 C18.061,11 17.625,10.808 17.329,10.438 L13.329,5.438 C12.811,4.79 12.916,3.847 13.563,3.329 C14.21,2.812 15.154,2.916 15.671,3.563 L19.671,8.562 C20.189,9.21 20.084,10.153 19.437,10.671 C19.161,10.893 18.83,11 18.501,11" id="Fill-13" fill="#D3E5EF"></path>
                <path d="M13.4995,18.0762 C13.3075,18.0762 13.1125,18.0402 12.9245,17.9622 L7.9245,15.8862 C7.1595,15.5672 6.7965,14.6892 7.1145,13.9252 C7.4335,13.1602 8.3125,12.7972 9.0755,13.1142 L14.0755,15.1902 C14.8405,15.5092 15.2035,16.3872 14.8855,17.1512 C14.6455,17.7282 14.0875,18.0762 13.4995,18.0762" id="Fill-15" fill="#D3E5EF"></path>
                <path d="M38.499,11 C38.17,11 37.839,10.893 37.563,10.671 C36.916,10.153 36.811,9.21 37.329,8.562 L41.329,3.563 C41.847,2.916 42.791,2.812 43.437,3.329 C44.084,3.847 44.189,4.79 43.671,5.438 L39.671,10.438 C39.375,10.808 38.939,11 38.499,11" id="Fill-17" fill="#D3E5EF"></path>
                <path d="M43.5005,18.0762 C42.9125,18.0762 42.3545,17.7282 42.1145,17.1512 C41.7965,16.3872 42.1595,15.5092 42.9245,15.1902 L47.9245,13.1142 C48.6885,12.7962 49.5675,13.1592 49.8855,13.9252 C50.2035,14.6892 49.8405,15.5672 49.0755,15.8862 L44.0755,17.9622 C43.8875,18.0402 43.6925,18.0762 43.5005,18.0762" id="Fill-19" fill="#D3E5EF"></path>
                <path d="M28.5,8 C27.671,8 27,7.328 27,6.5 L27,1.5 C27,0.672 27.671,0 28.5,0 C29.329,0 30,0.672 30,1.5 L30,6.5 C30,7.328 29.329,8 28.5,8" id="Fill-21" fill="#D3E5EF"></path>
            </g>
        </g>
    </g>
</svg>