<?xml version="1.0" encoding="UTF-8"?>
<svg width="60px" height="57px" viewBox="0 0 60 57" version="1.1" xmlns="http://www.w3.org/2000/svg" xmlns:xlink="http://www.w3.org/1999/xlink">
    <!-- Generator: Sketch 49.3 (51167) - http://www.bohemiancoding.com/sketch -->
    <title>Icon/ its something else</title>
    <desc>Created with Sketch.</desc>
    <defs></defs>
    <g id="Icon/-its-something-else" stroke="none" stroke-width="1" fill="none" fill-rule="evenodd">
        <g id="its-something-else">
            <path d="M12.5,40 C10.019,40 8,42.019 8,44.5 C8,46.981 10.019,49 12.5,49 C14.981,49 17,46.981 17,44.5 C17,42.019 14.981,40 12.5,40" id="Fill-1" fill="#D3E5EF"></path>
            <path d="M47.5,40 C45.019,40 43,42.019 43,44.5 C43,46.981 45.019,49 47.5,49 C49.981,49 52,46.981 52,44.5 C52,42.019 49.981,40 47.5,40" id="Fill-3" fill="#D3E5EF"></path>
            <path d="M49.8901,6 L40.1201,6 C40.6001,3.3 42.6101,1.28 45.0001,1.28 C47.3901,1.28 49.4001,3.3 49.8901,6" id="Fill-5" fill="#D3E5EF"></path>
            <path d="M37.8691,13.5107 C36.8101,10.5297 34.3381,7.9997 29.0001,7.9997 C21.4871,7.9997 16.9821,13.6757 15.3621,17.6227 C14.3071,20.1907 16.2461,22.9997 19.0221,22.9997 L24.0001,22.9997 C24.0001,22.9997 25.0001,14.9997 34.0001,13.9997" id="Fill-7" fill="#D3E5EF"></path>
            <path d="M45,12 C42.794,12 41,9.757 41,7 C41,6.905 41.018,6.817 41.022,6.724 L48.978,6.724 C48.982,6.817 49,6.905 49,7 C49,9.757 47.206,12 45,12 M45,2 C46.546,2 47.875,3.114 48.541,4.724 L41.459,4.724 C42.125,3.114 43.454,2 45,2 M53.447,3.105 C52.953,2.86 52.352,3.059 52.105,3.553 C51.708,4.349 51.098,4.615 50.661,4.701 C49.843,1.969 47.617,0 45,0 C41.691,0 39,3.141 39,7 C39,10.859 41.691,14 45,14 C48.309,14 51,10.859 51,7 C51,6.888 50.99,6.779 50.985,6.669 C51.886,6.51 53.12,5.997 53.895,4.447 C54.142,3.953 53.941,3.353 53.447,3.105" id="Fill-9" fill="#4F5661"></path>
            <path d="M47.5,55 C41.71,55 37,50.29 37,44.5 C37,40.717 39.019,37.404 42.028,35.556 L47.11,45.457 C47.288,45.802 47.638,46 48.001,46 C48.154,46 48.311,45.965 48.457,45.89 C48.948,45.638 49.142,45.034 48.89,44.543 L43.825,34.677 C44.971,34.246 46.206,34 47.5,34 C53.29,34 58,38.71 58,44.5 C58,50.29 53.29,55 47.5,55 M47.5,32 C45.877,32 44.33,32.32 42.906,32.886 L39.392,26.041 C39.232,25.73 38.921,25.525 38.573,25.501 C38.224,25.474 37.887,25.636 37.686,25.921 L35.568,28.921 C35.25,29.372 35.357,29.996 35.808,30.315 C36.259,30.633 36.883,30.525 37.202,30.075 L38.367,28.424 L41.114,33.774 C37.46,35.958 35,39.942 35,44.5 C35,51.393 40.607,57 47.5,57 C54.393,57 60,51.393 60,44.5 C60,37.607 54.393,32 47.5,32" id="Fill-11" fill="#4F5661"></path>
            <path d="M22.8804,43 L15.0084,43 L19.6594,36.841 C21.3624,38.434 22.5324,40.583 22.8804,43 M12.5004,55 C6.7104,55 2.0004,50.29 2.0004,44.5 C2.0004,38.71 6.7104,34 12.5004,34 C14.5494,34 16.4574,34.6 18.0754,35.618 L12.2024,43.397 C11.9734,43.7 11.9354,44.106 12.1054,44.445 C12.2744,44.785 12.6204,45 13.0004,45 L22.9744,45 C22.7114,50.557 18.1204,55 12.5004,55 M30.0004,31 L23.0094,31 L21.2144,27 L24.0004,27 C24.5524,27 25.0004,26.553 25.0004,26 C25.0004,25.447 24.5524,25 24.0004,25 L19.6514,25 L19.6454,25 L16.0004,25 C15.4474,25 15.0004,25.447 15.0004,26 C15.0004,26.553 15.4474,27 16.0004,27 L19.0224,27 L21.0864,31.6 C21.0784,31.616 21.0764,31.635 21.0704,31.652 L19.2854,34.017 C17.3284,32.746 15.0014,32 12.5004,32 C5.6074,32 0.0004,37.607 0.0004,44.5 C0.0004,51.393 5.6074,57 12.5004,57 C19.2234,57 24.7094,51.66 24.9744,45 L27.0004,45 C27.5524,45 28.0004,44.553 28.0004,44 C28.0004,43.447 27.5524,43 27.0004,43 L24.9014,43 C24.5324,39.934 23.0474,37.213 20.8674,35.24 L22.5594,33 L30.0004,33 C30.5524,33 31.0004,32.553 31.0004,32 C31.0004,31.447 30.5524,31 30.0004,31" id="Fill-13" fill="#4F5661"></path>
            <path d="M48.5,28 L48,28 C47.448,28 47,27.553 47,27 C47,26.447 47.448,26 48,26 L48.5,26 C49.327,26 50,25.327 50,24.5 C50,23.673 49.327,23 48.5,23 L43,23 C42.448,23 42,22.553 42,22 C42,21.447 42.448,21 43,21 L48.5,21 C50.43,21 52,22.57 52,24.5 C52,26.43 50.43,28 48.5,28" id="Fill-15" fill="#4F5661"></path>
            <path d="M18.0474,16.9785 C11.0004,25.9995 2.8394,23.7345 0.5244,17.1275 C-0.6686,13.7255 5.7274,8.6585 9.8504,8.6825" id="Fill-17" fill="#F4877A"></path>
            <path d="M34.2651,13.0537 C34.2251,13.0417 34.1931,13.0177 34.1521,13.0117 C22.7011,11.2457 17.8601,14.7857 16.5791,15.9957 C13.2811,15.9377 11.0571,15.1817 10.1371,13.8017 C9.3391,12.6047 9.6761,11.1467 9.8451,10.6077 C15.3631,6.3267 21.5621,6.4937 25.7271,7.3557 C21.7661,8.2287 19.0051,10.5757 17.2781,12.6167 C16.9211,13.0377 16.9741,13.6687 17.3951,14.0267 C17.8181,14.3817 18.4481,14.3297 18.8051,13.9077 C20.7001,11.6687 24.0061,8.9997 29.0001,8.9997 C32.1131,8.9997 34.4051,9.9257 35.8111,11.7527 C36.0971,12.1237 36.3271,12.5277 36.5321,12.9437 C35.7341,12.9357 34.9741,12.9697 34.2651,13.0537 M45.4961,26.1317 L39.1401,22.4987 C39.5671,20.3997 40.4161,14.4647 37.4011,10.5387 C36.0361,8.7637 34.0861,7.6527 31.5871,7.2147 C31.5391,7.1787 31.5021,7.1327 31.4471,7.1057 C31.3221,7.0437 18.7561,0.9167 8.3751,9.2187 C8.2461,9.3227 8.1451,9.4547 8.0811,9.6067 C8.0351,9.7137 7.0571,12.0667 8.1381,14.3127 L6.5531,15.1057 C6.0581,15.3527 5.8581,15.9527 6.1051,16.4477 C6.2811,16.7977 6.6341,16.9997 7.0011,16.9997 C7.1511,16.9997 7.3041,16.9657 7.4471,16.8947 L9.3911,15.9227 C10.9541,17.2947 13.4941,17.9997 17.0001,17.9997 C17.3041,17.9997 17.5911,17.8627 17.7811,17.6247 C17.8121,17.5847 20.6401,14.2237 29.3811,14.5527 C25.3971,16.6937 23.7811,20.3777 23.2471,21.9997 L19.0221,21.9997 C18.1551,21.9997 17.3641,21.6397 16.7941,20.9857 C16.4311,20.5697 15.7991,20.5267 15.3831,20.8887 C14.9671,21.2507 14.9231,21.8827 15.2861,22.2997 C16.2271,23.3797 17.5891,23.9997 19.0221,23.9997 L24.0001,23.9997 C28.7421,23.9997 31.9841,26.8287 32.9441,31.7807 L27.1681,40.4457 C26.8731,40.8867 26.9751,41.4817 27.4001,41.7997 L31.4001,44.7997 C31.5801,44.9347 31.7901,44.9997 31.9991,44.9997 C32.3031,44.9997 32.6031,44.8627 32.8001,44.5997 C33.1311,44.1577 33.0421,43.5317 32.6001,43.1997 L29.3571,40.7677 L34.8321,32.5547 C34.9731,32.3437 35.0281,32.0857 34.9861,31.8357 C34.0401,26.1577 30.4711,22.5967 25.3331,22.0747 C25.6581,21.2147 26.2421,19.9847 27.2651,18.7697 C29.5771,16.0227 32.9421,14.7597 37.2461,14.9697 C38.0871,18.6427 37.0481,22.6897 37.0341,22.7427 C36.9171,23.1817 37.1101,23.6437 37.5041,23.8677 L44.5041,27.8677 C44.6601,27.9577 44.8311,27.9997 44.9991,27.9997 C45.3461,27.9997 45.6831,27.8197 45.8681,27.4957 C46.1421,27.0167 45.9751,26.4067 45.4961,26.1317" id="Fill-19" fill="#4F5661"></path>
        </g>
    </g>
</svg>