<?xml version="1.0" encoding="UTF-8"?>
<svg width="53px" height="62px" viewBox="0 0 53 62" version="1.1" xmlns="http://www.w3.org/2000/svg" xmlns:xlink="http://www.w3.org/1999/xlink">
    <!-- Generator: Sketch 49.3 (51167) - http://www.bohemiancoding.com/sketch -->
    <title>Icon/ Its a side job</title>
    <desc>Created with Sketch.</desc>
    <defs></defs>
    <g id="Icon/-Its-a-side-job" stroke="none" stroke-width="1" fill="none" fill-rule="evenodd">
        <g id="Its-a-side-job">
            <path d="M21.7374,38.3745 L27.1644,48.4535 C27.6424,49.3405 27.3854,50.4435 26.5664,51.0295 L20.0004,56.0055 L12.0004,40.0055 L19.4914,37.3825 C20.3784,37.1605 21.3034,37.5685 21.7374,38.3745" id="Fill-1" fill="#53C27C"></path>
            <path d="M9.0001,59.0054 C9.0001,59.0054 2.0001,56.0054 1.0001,47.0054 L12.9281,42.6234 L19.0001,54.0054" id="Fill-3" fill="#53C27C"></path>
            <path d="M9.0001,60.0054 L19.8501,52.7054" id="Fill-5" fill="#D3E5EF"></path>
            <path d="M13.2501,42.5054 L1.0001,47.0054" id="Fill-7" fill="#D3E5EF"></path>
            <path d="M48.2066,43.6353 L51.2226,50.4963 C52.1116,52.5193 51.1926,54.8793 49.1706,55.7683 C47.1476,56.6563 44.7886,55.7383 43.8986,53.7153 L40.1616,45.2133" id="Fill-9" fill="#D3E5EF"></path>
            <path d="M36.3751,6.7759 C35.0241,3.7029 31.9761,1.9089 28.8151,2.0019 L31.7981,8.7879 L26.3051,11.2019 L23.3221,4.4159 C21.1171,6.6809 20.3771,10.1409 21.7281,13.2129 C22.9181,15.9229 25.4311,17.6339 28.1741,17.9399 L34.6441,32.6599 L41.9681,29.4409 L35.4981,14.7209 C37.1281,12.4929 37.5661,9.4849 36.3751,6.7759" id="Fill-11" fill="#D3E5EF"></path>
            <g id="Group-15" transform="translate(20.000000, 0.005400)" fill="#4F5661">
                <path d="M30.3566,53.1895 C30.0656,53.9365 29.5016,54.5245 28.7686,54.8475 C27.2546,55.5135 25.4806,54.8235 24.8146,53.3075 L21.8586,46.5845 C21.8956,46.5855 21.9316,46.5915 21.9686,46.5915 C22.4386,46.5915 22.9146,46.4975 23.3716,46.2955 L27.4906,44.4855 L30.3076,50.8935 C30.6296,51.6275 30.6476,52.4425 30.3566,53.1895 Z M18.5776,39.1185 C18.4176,38.7535 18.4076,38.3355 18.5496,37.9695 C18.6946,37.5975 18.9786,37.3035 19.3486,37.1405 C19.3486,37.1405 19.3496,37.1395 19.3506,37.1395 L25.7556,34.3245 C27.2876,33.6515 28.3566,32.3575 28.8046,30.8685 C29.1706,31.1975 29.4726,31.5975 29.6736,32.0565 C30.0526,32.9175 30.0726,33.8665 29.7266,34.7395 C29.3956,35.6045 28.7396,36.2905 27.8776,36.6685 L21.0126,39.6865 L20.5546,39.8875 L20.5536,39.8875 C19.7956,40.2175 18.9096,39.8755 18.5776,39.1185 Z M16.4796,35.7375 C16.1056,35.5915 15.8116,35.3095 15.6506,34.9435 C15.4896,34.5765 15.4806,34.1685 15.6256,33.7955 C15.7716,33.4215 16.0536,33.1275 16.4196,32.9655 L24.2016,29.5455 C24.7076,29.3245 24.9366,28.7345 24.7146,28.2285 C24.4926,27.7235 23.9026,27.4955 23.3966,27.7155 L22.4816,28.1185 L21.6756,26.2865 L21.6766,26.2865 L22.1336,26.0855 C23.9006,25.3085 25.9696,26.1145 26.7466,27.8805 C27.5236,29.6475 26.7176,31.7165 24.9506,32.4945 L18.5436,35.3105 L18.5416,35.3105 C18.5406,35.3105 18.5396,35.3115 18.5386,35.3125 L17.6276,35.7125 C17.2606,35.8745 16.8526,35.8815 16.4796,35.7375 Z M9.0896,17.5325 C8.9466,17.2065 8.6396,16.9805 8.2856,16.9405 C5.8046,16.6645 3.6426,15.0805 2.6436,12.8055 C1.7046,10.6695 1.8936,8.2685 3.0786,6.3405 L5.3896,11.5985 C5.6116,12.1045 6.2026,12.3355 6.7076,12.1115 L12.2006,9.6975 C12.4426,9.5905 12.6336,9.3925 12.7296,9.1455 C12.8266,8.8975 12.8196,8.6235 12.7136,8.3795 L10.4016,3.1225 C12.6236,3.5525 14.5216,5.0375 15.4596,7.1725 C16.4596,9.4475 16.1646,12.1115 14.6906,14.1255 C14.4806,14.4135 14.4396,14.7925 14.5826,15.1185 L20.6496,28.9225 L15.1576,31.3365 L9.0896,17.5325 Z M29.9076,40.1215 C29.5766,40.9875 28.9196,41.6725 28.0596,42.0515 L22.5666,44.4645 C21.8106,44.7985 20.9226,44.4535 20.5896,43.6955 C20.4276,43.3265 20.4176,42.9185 20.5616,42.5465 C20.7046,42.1805 20.9946,41.8785 21.3586,41.7195 L21.8166,41.5185 C21.8186,41.5175 21.8196,41.5165 21.8216,41.5155 L28.6826,38.4995 C29.1486,38.2945 29.5596,38.0135 29.9416,37.7035 C30.2176,38.4915 30.2186,39.3355 29.9076,40.1215 Z M32.1386,50.0885 L29.3016,43.6355 C30.4326,43.0125 31.3116,42.0485 31.7716,40.8465 C32.3116,39.4835 32.2816,37.9875 31.6866,36.6335 C31.5836,36.3995 31.4666,36.1775 31.3376,35.9685 C31.4226,35.8015 31.5226,35.6425 31.5906,35.4645 C32.1306,34.1015 32.1006,32.6055 31.5046,31.2525 C31.0006,30.1035 30.0976,29.1825 28.9986,28.6105 C28.9346,28.0935 28.7976,27.5775 28.5776,27.0765 C27.3566,24.2995 24.1046,23.0345 21.3296,24.2545 L20.8716,24.4565 L16.6366,14.8205 C18.2386,12.2995 18.4976,9.1135 17.2906,6.3685 C15.8086,2.9975 12.4726,0.9295 8.7856,0.9965 C8.4536,1.0055 8.1476,1.1805 7.9696,1.4615 C7.7926,1.7435 7.7656,2.0935 7.8996,2.3985 L10.4806,8.2695 L6.8176,9.8785 L4.2376,4.0075 C4.1036,3.7035 3.8276,3.4855 3.4996,3.4255 C3.1706,3.3645 2.8366,3.4745 2.6056,3.7125 C0.0346,6.3545 -0.6694,10.2395 0.8126,13.6105 C2.0186,16.3565 4.5416,18.3205 7.4816,18.8445 L13.7286,33.0565 C13.7356,33.0725 13.7466,33.0835 13.7546,33.0975 C13.4256,33.9605 13.4476,34.9015 13.8196,35.7485 C14.1956,36.6035 14.8826,37.2615 15.7536,37.6005 C16.0076,37.7005 16.2696,37.7575 16.5336,37.7945 C16.3866,38.5035 16.4526,39.2535 16.7466,39.9225 C17.1406,40.8185 17.8686,41.4595 18.7196,41.7795 C18.7136,41.7935 18.7036,41.8065 18.6976,41.8215 C18.3596,42.6895 18.3816,43.6415 18.7586,44.5005 C18.8686,44.7505 19.0116,44.9745 19.1686,45.1835 C19.1646,45.3265 19.1856,45.4705 19.2466,45.6105 L22.9836,54.1125 C23.8066,55.9845 25.6446,57.1005 27.5686,57.1005 C28.2396,57.1005 28.9206,56.9645 29.5726,56.6775 C30.7956,56.1405 31.7356,55.1595 32.2206,53.9155 C32.7046,52.6695 32.6756,51.3115 32.1386,50.0885 Z" id="Fill-13"></path>
            </g>
            <path d="M47.1578,51.19 L47.1578,51.191 L47.1578,51.19 Z M47.1588,53.192 C46.9138,53.192 46.6688,53.146 46.4328,53.055 C45.9348,52.861 45.5428,52.485 45.3278,51.996 C44.8848,50.986 45.3448,49.804 46.3538,49.36 C47.3628,48.917 48.5468,49.378 48.9898,50.386 C49.2048,50.876 49.2168,51.419 49.0218,51.917 C48.8278,52.415 48.4518,52.807 47.9628,53.022 C47.7048,53.135 47.4318,53.192 47.1588,53.192 Z" id="Fill-16" fill="#4F5661"></path>
            <path d="M25.962,50.2329 L20.356,54.4809 L13.402,40.5739 L19.733,38.3519 C20.179,38.2459 20.64,38.4459 20.857,38.8479 L26.284,48.9279 C26.522,49.3699 26.393,49.9239 25.962,50.2329 M38.447,46.2819 C38.225,45.7759 37.635,45.5469 37.129,45.7689 L33.467,47.3789 C31.688,48.1609 29.729,48.2609 27.889,47.6909 L23.006,38.6219 C23.534,37.0869 24.445,35.5839 25.484,34.3749 C27.675,31.8249 28.184,28.1139 26.779,24.9199 L25.716,22.4989 C27.501,22.1729 29.346,23.0919 30.108,24.8229 L32.119,29.3999 C32.341,29.9069 32.931,30.1369 33.437,29.9129 C33.943,29.6909 34.172,29.1009 33.95,28.5949 L31.939,24.0179 C30.641,21.0689 27.245,19.6809 24.271,20.8399 C23.988,20.8579 23.721,20.9959 23.543,21.2249 C23.318,21.5149 23.27,21.9049 23.418,22.2409 L24.948,25.7239 C26.045,28.2179 25.66,31.1019 23.968,33.0719 C23.08,34.1049 22.235,35.3989 21.596,36.8029 C20.91,36.3679 20.043,36.2149 19.161,36.4389 L11.67,39.0619 C11.399,39.1569 11.181,39.3639 11.073,39.6289 C10.965,39.8959 10.977,40.1959 11.106,40.4529 L11.856,41.9529 L0.655,46.0669 C0.137,46.2569 -0.129,46.8319 0.062,47.3499 C0.21,47.7539 0.593,48.0049 1,48.0049 C1.115,48.0049 1.231,47.9859 1.345,47.9439 L12.755,43.7529 L17.44,53.1219 L8.442,59.1749 C7.983,59.4839 7.862,60.1049 8.17,60.5639 C8.363,60.8499 8.679,61.0049 9.001,61.0049 C9.193,61.0049 9.387,60.9509 9.558,60.8359 L18.342,54.9249 L19.106,56.4529 C19.239,56.7179 19.483,56.9119 19.773,56.9789 C19.848,56.9969 19.924,57.0049 20,57.0049 C20.216,57.0049 20.429,56.9349 20.604,56.8019 L27.148,51.8429 C27.828,51.3569 28.238,50.6279 28.357,49.8489 C28.984,49.9739 29.616,50.0599 30.251,50.0599 C31.618,50.0589 32.983,49.7759 34.272,49.2089 L37.934,47.5989 C38.439,47.3779 38.669,46.7879 38.447,46.2819" id="Fill-18" fill="#4F5661"></path>
        </g>
    </g>
</svg>