<?xml version="1.0" encoding="UTF-8"?>
<svg width="60px" height="48px" viewBox="0 0 60 48" version="1.1" xmlns="http://www.w3.org/2000/svg" xmlns:xlink="http://www.w3.org/1999/xlink">
    <!-- Generator: Sketch 49.3 (51167) - http://www.bohemiancoding.com/sketch -->
    <title>Icon/ Laptop</title>
    <desc>Created with Sketch.</desc>
    <defs></defs>
    <g id="Icon/-Laptop" stroke="none" stroke-width="1" fill="none" fill-rule="evenodd">
        <g id="Page-1">
            <path d="M58,44 C58,45.103 57.103,46 56,46 L4,46 C2,46 2,45.469 2,45 L2,43 L58,43 L58,44 Z M34.402,41 L25.598,41 L26.613,39 L33.387,39 L34.402,41 Z M8.489,34 L51.511,34 L56.955,41 L36.646,41 L34.892,37.547 C34.721,37.212 34.377,37 34,37 L26,37 C25.623,37 25.279,37.212 25.108,37.547 L23.354,41 L3.045,41 L8.489,34 Z M9,4 C9,2.897 9.897,2 11,2 L49,2 C50.103,2 51,2.897 51,4 L51,32 L9,32 L9,4 Z M59.928,41.643 C59.912,41.602 59.888,41.567 59.867,41.529 C59.841,41.481 59.823,41.43 59.789,41.386 L53,32.657 L53,4 C53,1.794 51.206,0 49,0 L11,0 C8.794,0 7,1.794 7,4 L7,32.657 L0.211,41.386 C0.074,41.562 0,41.777 0,42 L0,45 C0,46.99 1.346,48 4,48 L56,48 C58.206,48 60,46.206 60,44 L60,42 C60,41.876 59.972,41.757 59.928,41.643 Z" id="Fill-1" fill="#4F5661"></path>
            <path d="M48,4 L12,4 C11.447,4 11,4.447 11,5 L11,29 C11,29.553 11.447,30 12,30 L48,30 C48.553,30 49,29.553 49,29 L49,5 C49,4.447 48.553,4 48,4" id="Fill-3" fill="#D3E5EF"></path>
        </g>
    </g>
</svg>