<?xml version="1.0" encoding="UTF-8"?>
<svg width="60px" height="60px" viewBox="0 0 60 60" version="1.1" xmlns="http://www.w3.org/2000/svg" xmlns:xlink="http://www.w3.org/1999/xlink">
    <!-- Generator: Sketch 49.3 (51167) - http://www.bohemiancoding.com/sketch -->
    <title>Icon/ Life Answers</title>
    <desc>Created with Sketch.</desc>
    <defs>
        <polygon id="path-1" points="19.8767691 60 0 60 0 0 59.882 0 59.882 60 19.8767691 60 39.7535381 60 39.7535381 40.2453428 -5.68386299e-05 40.2453428 -5.68386299e-05 60"></polygon>
    </defs>
    <g id="Icon/-Life-Answers" stroke="none" stroke-width="1" fill="none" fill-rule="evenodd">
        <g id="Page-1">
            <path d="M38.7537,48.1523 C34.9657,54.6443 27.9317,59.0003 19.8807,59.0003 C11.8207,59.0003 4.7787,54.6353 0.9997,48.1353 L4.5417,44.4913 C5.9407,42.6013 8.4657,41.4583 10.5587,41.2463 L13.9747,41.2463 L17.6867,47.6103 C18.6687,49.2883 21.0927,49.2883 22.0757,47.6103 L25.7877,41.2463 L29.2027,41.2463 C31.2957,41.4653 33.8137,42.6103 35.2027,44.5003 L38.7537,48.1523 Z" id="Fill-1" fill="#D3E5EF"></path>
            <path d="M58.8817,0 L40.3817,0 C39.0027,0 37.8817,1.058 37.8817,2.357 L37.8817,22 C37.8817,22.396 38.1147,22.754 38.4767,22.914 C38.6067,22.972 38.7437,23 38.8817,23 C39.1247,23 39.3647,22.911 39.5527,22.741 L43.7667,18.929 L57.3817,18.929 C58.7607,18.929 59.8817,17.871 59.8817,16.571 L59.8817,1 C59.8817,0.447 59.4347,0 58.8817,0" id="Fill-3" fill="#F4877A"></path>
            <g id="Group-7">
                <mask id="mask-2" fill="white">
                    <use xlink:href="#path-1"></use>
                </mask>
                <g id="Clip-6"></g>
                <path d="M19.8807,60 C11.7767,60 4.2097,55.646 0.1357,48.639 C-0.0903,48.251 -0.0293,47.761 0.2827,47.438 L3.7787,43.841 C5.5347,41.514 8.4677,40.453 10.4577,40.251 C11.0197,40.212 11.4977,40.596 11.5537,41.146 C11.6097,41.695 11.2087,42.186 10.6587,42.241 C8.9337,42.416 6.6207,43.363 5.3457,45.086 C5.3187,45.122 5.2897,45.156 5.2587,45.188 L2.2557,48.278 C6.0537,54.294 12.7377,58 19.8807,58 C27.0117,58 33.6927,54.3 37.4967,48.294 L34.4857,45.197 C34.4537,45.164 34.4247,45.129 34.3977,45.093 C33.1337,43.374 30.8247,42.422 29.0987,42.24 C28.5497,42.183 28.1517,41.691 28.2087,41.142 C28.2667,40.593 28.7697,40.188 29.3077,40.252 C31.2967,40.461 34.2247,41.528 35.9657,43.851 L39.4707,47.455 C39.7837,47.777 39.8437,48.269 39.6167,48.656 C35.5347,55.653 27.9727,60 19.8807,60" id="Fill-5" fill="#4F5661" mask="url(#mask-2)"></path>
            </g>
            <path d="M19.8807,34.5762 C18.3157,34.5762 16.8597,33.7342 16.0817,32.3802 C15.8067,31.9012 15.9727,31.2902 16.4507,31.0142 C16.9307,30.7402 17.5417,30.9042 17.8167,31.3842 C18.2387,32.1192 19.0297,32.5762 19.8807,32.5762 C20.7437,32.5762 21.5167,32.1302 21.9457,31.3832 C22.2227,30.9042 22.8327,30.7412 23.3127,31.0142 C23.7907,31.2912 23.9557,31.9022 23.6807,32.3812 C22.9017,33.7352 21.4447,34.5762 19.8807,34.5762" id="Fill-8" fill="#4F5661"></path>
            <path d="M32.6658,32 C32.3688,32 32.0758,31.869 31.8788,31.618 C31.5378,31.185 31.6118,30.556 32.0468,30.214 C35.8528,27.22 35.0858,26.047 33.9258,24.272 C33.1328,23.06 32.1458,21.55 32.8898,19.515 C33.3238,18.324 33.6908,16.688 32.9698,15.656 C32.2498,14.627 30.5968,14.411 29.3358,14.411 C26.6878,14.411 25.4078,12.797 24.2788,11.372 C23.2288,10.047 22.3988,9 20.5688,9 C18.4338,9 17.3898,9.875 15.9428,11.085 C14.5638,12.239 12.8478,13.677 9.7948,14.385 C7.1178,15.007 7.1628,16.111 7.2378,17.941 C7.2938,19.291 7.3618,20.971 5.9798,22.265 C4.6128,23.543 4.0208,24.983 4.3118,26.321 C4.6308,27.791 6.0098,29.036 8.0948,29.737 C8.6178,29.914 8.8988,30.481 8.7238,31.005 C8.5478,31.527 7.9858,31.811 7.4558,31.634 C4.6878,30.702 2.8288,28.92 2.3568,26.746 C1.9108,24.693 2.7128,22.583 4.6128,20.804 C5.2918,20.169 5.2938,19.334 5.2398,18.023 C5.1598,16.086 5.0518,13.433 9.3418,12.438 C11.9308,11.836 13.3178,10.675 14.6588,9.552 C16.1578,8.297 17.7068,7 20.5688,7 C23.3658,7 24.7408,8.735 25.8468,10.13 C26.8568,11.404 27.6548,12.411 29.3358,12.411 C31.8598,12.411 33.6348,13.117 34.6078,14.511 C35.5838,15.906 35.6378,17.82 34.7688,20.2 C34.3878,21.243 34.8128,21.975 35.5998,23.178 C37.1438,25.539 38.1278,27.975 33.2828,31.786 C33.0998,31.93 32.8818,32 32.6658,32" id="Fill-10" fill="#4F5661"></path>
            <path d="M19.033,37.9658 L20.728,37.9658 C21.112,37.9658 21.424,38.2778 21.424,38.6608 C21.424,39.0448 21.112,39.3568 20.728,39.3568 L19.033,39.3568 C18.65,39.3568 18.339,39.0448 18.339,38.6608 C18.339,38.2778 18.65,37.9658 19.033,37.9658 M30.449,21.1758 C30.177,20.9888 29.833,20.9468 29.524,21.0668 C29.139,21.2128 28.734,21.3878 28.306,21.5728 C26.222,22.4728 23.86,23.4908 20.658,22.7288 C17.728,22.0148 15.495,20.8088 14.138,19.9228 C13.907,19.7718 13.627,19.7218 13.357,19.7868 C13.09,19.8518 12.86,20.0248 12.723,20.2628 C12.127,21.3058 11.415,21.9998 9.882,21.9998 C9.329,21.9998 8.882,22.4468 8.882,22.9998 L8.882,31.2398 C8.882,35.5828 13.174,38.9668 16.503,39.5558 C16.874,40.6008 17.862,41.3568 19.033,41.3568 L20.728,41.3568 C22.215,41.3568 23.424,40.1478 23.424,38.6608 C23.424,37.1748 22.215,35.9658 20.728,35.9658 L19.033,35.9658 C17.949,35.9658 17.018,36.6128 16.592,37.5378 C14.081,36.9788 10.882,34.3168 10.882,31.2398 L10.882,23.9108 C12.344,23.6668 13.271,22.9108 13.887,22.1198 C15.388,23.0038 17.526,24.0248 20.189,24.6728 C23.914,25.5598 26.768,24.4138 28.882,23.5028 L28.882,30.7498 C28.882,33.1058 27.06,35.0678 25.357,36.1178 C25.061,36.3008 24.882,36.6228 24.882,36.9698 L24.882,40.7118 L20.679,47.4028 C20.491,47.6958 20.183,47.8678 19.834,47.8738 C19.478,47.9068 19.172,47.7188 19.002,47.4748 L14.803,40.6748 C14.513,40.2038 13.896,40.0588 13.427,40.3498 C12.957,40.6398 12.811,41.2558 13.101,41.7258 L17.328,48.5678 C17.893,49.3888 18.82,49.8738 19.815,49.8738 L19.869,49.8738 C20.885,49.8568 21.817,49.3348 22.368,48.4728 L26.728,41.5318 C26.829,41.3728 26.882,41.1888 26.882,40.9998 L26.882,37.5098 C28.895,36.1108 30.882,33.6968 30.882,30.7498 L30.882,21.9998 C30.882,21.6708 30.72,21.3628 30.449,21.1758" id="Fill-12" fill="#4F5661"></path>
            <path d="M54.8817,8 L44.8817,8 C44.3287,8 43.8817,7.553 43.8817,7 C43.8817,6.447 44.3287,6 44.8817,6 L54.8817,6 C55.4347,6 55.8817,6.447 55.8817,7 C55.8817,7.553 55.4347,8 54.8817,8" id="Fill-14" fill="#FFFFFF"></path>
            <path d="M51.8817,13 L44.8817,13 C44.3287,13 43.8817,12.553 43.8817,12 C43.8817,11.447 44.3287,11 44.8817,11 L51.8817,11 C52.4347,11 52.8817,11.447 52.8817,12 C52.8817,12.553 52.4347,13 51.8817,13" id="Fill-16" fill="#FFFFFF"></path>
        </g>
    </g>
</svg>