<?xml version="1.0" encoding="UTF-8"?>
<svg width="60px" height="59px" viewBox="0 0 60 59" version="1.1" xmlns="http://www.w3.org/2000/svg" xmlns:xlink="http://www.w3.org/1999/xlink">
    <!-- Generator: Sketch 49.3 (51167) - http://www.bohemiancoding.com/sketch -->
    <title>Icon/ Live Tax Advice</title>
    <desc>Created with Sketch.</desc>
    <defs>
        <polygon id="path-1" points="20.279 0.0268 20.279 23.9998 0.3305 23.9998 0.3305 0.0268 20.279 0.0268"></polygon>
    </defs>
    <g id="Icon/-Live-Tax-Advice" stroke="none" stroke-width="1" fill="none" fill-rule="evenodd">
        <g id="Page-1">
            <path d="M1.4314,47 C1.4314,47 8.4314,55 15.4314,56 L11.4314,46 L13.4314,42 L11.4314,42 L12.8274,37.729 C12.8274,37.729 7.6364,38.273 4.2884,42.98 L1.4314,47 Z" id="Fill-1" fill="#D3E5EF"></path>
            <path d="M23.4315,26.8672 C22.4985,26.8672 21.6055,26.5832 20.8485,26.0462 C20.3275,25.6752 19.8825,25.1852 19.5645,24.6312 C19.2885,24.1512 19.4545,23.5402 19.9335,23.2652 C20.4135,22.9912 21.0245,23.1552 21.2985,23.6352 C21.4745,23.9412 21.7195,24.2112 22.0065,24.4152 C22.8445,25.0112 24.0375,25.0062 24.8685,24.4062 C25.1555,24.1992 25.3885,23.9392 25.5645,23.6342 C25.8405,23.1552 26.4515,22.9912 26.9305,23.2652 C27.4095,23.5412 27.5745,24.1522 27.2985,24.6322 C26.9805,25.1832 26.5565,25.6532 26.0395,26.0272 C25.2785,26.5772 24.3765,26.8672 23.4315,26.8672" id="Fill-3" fill="#4F5661"></path>
            <path d="M32.6063,34 C32.0533,34 31.6063,33.553 31.6063,33 C31.6063,32.447 32.0533,32 32.6063,32 C34.2743,32 36.3793,31.31 37.5933,30.852 C36.7703,29.123 35.3793,25.483 36.1903,21.965 C38.4423,12.182 36.9323,8.753 35.8313,7.579 C35.0393,6.734 33.9183,6.429 32.5113,6.656 C32.1473,6.723 31.7893,6.574 31.5633,6.288 C30.1393,4.479 28.1893,2 22.4313,2 C18.2113,2 15.0083,3.272 12.9133,5.782 C10.1273,9.118 9.3963,14.578 10.7423,22.012 C11.4833,26.111 10.1853,29.372 9.3533,30.941 C10.3963,31.383 12.2343,32 14.3713,32 C14.9233,32 15.3713,32.447 15.3713,33 C15.3713,33.553 14.9233,34 14.3713,34 C10.4973,34 7.5513,32.302 7.4283,32.229 C7.1843,32.087 7.0123,31.848 6.9553,31.571 C6.8963,31.295 6.9593,31.007 7.1253,30.778 C7.1483,30.745 9.6463,27.194 8.7733,22.367 C7.3173,14.323 8.1943,8.312 11.3773,4.5 C13.8363,1.556 17.6593,0 22.4313,0 C28.2813,0 30.8243,2.215 32.7803,4.608 C34.6003,4.451 36.1533,4.999 37.2903,6.211 C39.7303,8.812 40.0153,14.263 38.1393,22.414 C37.2253,26.383 39.8213,30.811 39.8473,30.854 C39.9933,31.101 40.0273,31.396 39.9413,31.668 C39.8553,31.939 39.6573,32.162 39.3973,32.278 C39.2403,32.349 35.5223,34 32.6063,34" id="Fill-5" fill="#4F5661"></path>
            <path d="M33.4627,17.917 C32.9097,17.917 32.4627,17.47 32.4627,16.917 L32.4627,12.941 C32.4627,12.389 32.9097,11.941 33.4627,11.941 C34.0157,11.941 34.4627,12.389 34.4627,12.941 L34.4627,16.917 C34.4627,17.47 34.0157,17.917 33.4627,17.917" id="Fill-7" fill="#4F5661"></path>
            <path d="M45.5701,47 C45.5701,47 38.5701,55 31.5701,56 L35.5701,46 L33.5701,42 L35.5701,42 L34.1741,37.729 C34.1741,37.729 39.3651,38.273 42.7121,42.98 L45.5701,47 Z" id="Fill-9" fill="#D3E5EF"></path>
            <g id="Group-13" transform="translate(0.000000, 8.972900)" fill="#4F5661">
                <path d="M30.4422,46.1687 C29.3542,46.4437 28.2492,46.6517 27.1332,46.7957 L30.1262,28.3727 L33.6902,29.6477 L33.6962,29.6517 L34.2892,32.0267 L32.5702,32.0267 C32.1912,32.0267 31.8452,32.2407 31.6752,32.5797 C31.5062,32.9187 31.5432,33.3237 31.7702,33.6267 L34.4192,37.1587 L30.4422,46.1687 Z M25.0772,46.9807 C24.5752,47.0077 24.0732,47.0267 23.5702,47.0267 L23.4312,47.0267 C22.9212,47.0267 22.4152,47.0057 21.9072,46.9787 L19.9722,36.1387 C20.9582,36.5767 22.2472,37.0267 23.4312,37.0267 C23.7822,37.0267 25.2042,36.9717 26.8132,36.2877 L25.0772,46.9807 Z M16.5572,46.1647 L12.5832,37.1587 L15.2312,33.6267 C15.4592,33.3237 15.4952,32.9187 15.3262,32.5797 C15.1562,32.2407 14.8102,32.0267 14.4312,32.0267 L12.7132,32.0267 L13.3052,29.6537 L13.3222,29.6407 L16.5592,28.3957 L19.8432,46.7957 C18.7342,46.6527 17.6382,46.4387 16.5572,46.1647 Z M9.6842,43.4167 L9.1912,44.2867 L9.5742,43.3567 C6.8522,41.8137 4.4352,39.8287 2.3482,37.4397 L6.0892,33.5587 C7.3902,32.0427 9.2092,30.8997 11.0662,30.3677 L10.4622,32.7847 C10.3862,33.0837 10.4542,33.3997 10.6432,33.6427 C10.8332,33.8857 11.1242,34.0267 11.4312,34.0267 L12.4312,34.0267 L10.6312,36.4277 C10.4152,36.7167 10.3712,37.1007 10.5162,37.4307 L14.0292,45.3897 C12.5302,44.8557 11.0722,44.2037 9.6842,43.4167 Z M18.3312,22.2867 C20.0292,23.3777 21.8382,24.0157 23.4332,24.0157 C24.9362,24.0157 26.6822,23.4197 28.3312,22.4047 L28.3312,26.9447 L27.2202,33.7837 C25.5112,34.9777 23.6472,35.0267 23.4312,35.0267 C22.1142,35.0267 20.2512,34.0967 19.5332,33.6757 L18.3312,26.9387 L18.3312,22.2867 Z M38.0752,44.1547 C37.8142,43.6687 37.2102,43.4857 36.7212,43.7447 C35.5162,44.3897 34.2592,44.9307 32.9722,45.3897 L36.4852,37.4307 C36.6302,37.1007 36.5872,36.7167 36.3702,36.4277 L34.5702,34.0267 L35.5702,34.0267 C35.8782,34.0267 36.1692,33.8857 36.3582,33.6427 C36.5472,33.3997 36.6152,33.0837 36.5402,32.7847 L35.9382,30.3797 C36.2222,30.4617 36.5062,30.5417 36.7932,30.6527 C37.3032,30.8547 37.8862,30.6007 38.0882,30.0847 C38.2892,29.5707 38.0342,28.9907 37.5192,28.7897 C36.6712,28.4587 35.8182,28.2327 34.9802,28.1187 L34.8152,27.9837 C34.7122,27.8987 34.5902,27.8377 34.4622,27.7997 L30.3312,26.3227 L30.3312,21.0267 C30.3312,20.9907 30.3142,20.9617 30.3102,20.9267 C30.5492,20.7137 30.7882,20.4987 31.0132,20.2697 C33.2382,17.9997 34.4632,15.2417 34.4632,12.5027 L34.4632,6.7037 C34.4632,6.1507 34.0152,5.7037 33.4632,5.7037 C32.9102,5.7037 32.4632,6.1507 32.4632,6.7037 L32.4632,12.5027 C32.4632,14.7147 31.4412,16.9767 29.5872,18.8677 C27.7362,20.7507 25.2632,22.0157 23.4332,22.0157 C21.5982,22.0157 19.1292,20.7577 17.2892,18.8847 C15.4282,16.9967 14.4042,14.7307 14.4042,12.5027 L14.4042,7.4147 L14.4042,6.7037 L14.4042,5.6737 C15.3682,5.2277 16.7902,4.3497 17.9282,3.1007 C19.1792,3.9097 20.9462,4.8337 23.1552,5.4297 C27.5032,6.6007 31.6432,5.8667 33.8672,4.8827 C34.3722,4.6597 34.6002,4.0687 34.3772,3.5647 C34.1532,3.0587 33.5602,2.8277 33.0582,3.0547 C31.1322,3.9037 27.5192,4.5327 23.6752,3.4977 C21.2542,2.8457 19.4282,1.7507 18.3242,0.9467 C18.1092,0.7907 17.8402,0.7257 17.5782,0.7687 C17.3162,0.8107 17.0812,0.9547 16.9252,1.1707 C15.7012,2.8667 13.6312,3.8697 13.1362,4.0477 C12.9742,4.0927 12.8252,4.1787 12.7032,4.2987 C12.5112,4.4867 12.4042,4.7437 12.4042,5.0117 L12.4042,6.7037 L12.4042,7.4147 L12.4042,12.5027 C12.4042,15.2587 13.6322,18.0227 15.8642,20.2877 C16.0312,20.4577 16.2092,20.6127 16.3812,20.7727 C16.3602,20.8567 16.3312,20.9377 16.3312,21.0267 L16.3312,26.3407 L12.5422,27.7977 C12.4132,27.8347 12.2922,27.8977 12.1872,27.9837 L12.0232,28.1177 C9.2962,28.4837 6.4672,30.0477 4.6092,32.2147 L0.2712,36.7127 C0.2362,36.7487 0.2212,36.7957 0.1932,36.8357 C0.1532,36.8917 0.1122,36.9427 0.0852,37.0047 C0.0592,37.0627 0.0472,37.1217 0.0342,37.1837 C0.0192,37.2477 0.0032,37.3087 0.0002,37.3737 C-0.0018,37.4367 0.0102,37.4957 0.0192,37.5577 C0.0302,37.6227 0.0372,37.6857 0.0602,37.7487 C0.0832,37.8097 0.1192,37.8617 0.1542,37.9187 C0.1802,37.9627 0.1922,38.0107 0.2252,38.0507 L0.3422,38.1907 C0.4732,38.3487 0.6022,38.5047 0.7132,38.6197 C2.9522,41.2237 5.6012,43.4017 8.5882,45.0977 L8.6982,45.1567 C10.8392,46.3707 13.1282,47.3027 15.4982,47.9517 C15.5402,47.9677 15.5832,47.9807 15.6272,47.9897 C18.1592,48.6717 20.7852,49.0267 23.4312,49.0267 L23.5702,49.0267 C26.1942,49.0267 28.8012,48.6707 31.3202,47.9977 C31.3952,47.9847 31.4662,47.9657 31.5372,47.9367 C33.6622,47.3527 35.7232,46.5477 37.6652,45.5087 C38.1522,45.2477 38.3362,44.6427 38.0752,44.1547 Z" id="Fill-11"></path>
            </g>
            <g id="Group-16" transform="translate(39.000000, 34.972900)">
                <mask id="mask-2" fill="white">
                    <use xlink:href="#path-1"></use>
                </mask>
                <g id="Clip-15"></g>
                <path d="M10.3055,23.9998 C18.4095,21.5298 20.2795,16.2088 20.2795,16.2088 L20.2795,4.2228 L10.3055,0.0268 L0.3305,4.2228 L0.3305,16.2088 C0.3305,16.2088 2.2015,22.1108 10.3055,23.9998" id="Fill-14" fill="#53C27C" mask="url(#mask-2)"></path>
            </g>
            <path d="M56.1717,43.4971 L54.7727,42.1411 C54.5747,41.9491 54.2587,41.9531 54.0677,42.1501 L47.9417,48.4151 L45.0857,45.7261 C44.9877,45.6351 44.8527,45.5961 44.7227,45.5911 C44.5877,45.5971 44.4607,45.6561 44.3707,45.7571 L43.0687,47.2061 C42.8877,47.4081 42.9007,47.7201 43.1007,47.9051 L47.1657,51.6961 C47.1827,51.7121 47.1997,51.7261 47.2187,51.7391 L47.6857,52.1921 C47.7827,52.2871 47.9077,52.3341 48.0337,52.3341 C48.1637,52.3341 48.2937,52.2831 48.3917,52.1841 L56.1817,44.2061 C56.2747,44.1101 56.3257,43.9821 56.3237,43.8501 C56.3217,43.7171 56.2677,43.5901 56.1717,43.4971" id="Fill-17" fill="#FFFFFF"></path>
        </g>
    </g>
</svg>