<?xml version="1.0" encoding="UTF-8"?>
<svg width="58px" height="60px" viewBox="0 0 58 60" version="1.1" xmlns="http://www.w3.org/2000/svg" xmlns:xlink="http://www.w3.org/1999/xlink">
    <!-- Generator: Sketch 49.3 (51167) - http://www.bohemiancoding.com/sketch -->
    <title>Icon/ Loan</title>
    <desc>Created with Sketch.</desc>
    <defs>
        <polygon id="path-1" points="0.4695978 0 19.950233 0 19.950233 21.0005 0.4695978 21.0005 0.4695978 7.10542736e-15"></polygon>
    </defs>
    <g id="Icon/-Loan" stroke="none" stroke-width="1" fill="none" fill-rule="evenodd">
        <g id="Page-1">
            <path d="M5.52,26 C7.77,25.682 8.859,24.557 8.549,22.369 L41.136,17.751 C41.446,19.938 43.52,21.453 45.77,21.135 L45.937,23.329 L5.52,26 Z" id="Fill-1" fill="#D3E5EF"></path>
            <path d="M50.6485,19.9404 C50.1585,19.9404 49.7305,19.5804 49.6595,19.0804 L49.0295,14.6104 L35.1405,16.5804 C34.5915,16.6584 34.0875,16.2774 34.0095,15.7304 C33.9325,15.1834 34.3125,14.6774 34.8595,14.5994 L49.7395,12.4904 C50.0035,12.4504 50.2695,12.5214 50.4815,12.6814 C50.6935,12.8404 50.8335,13.0784 50.8705,13.3404 L51.6405,18.8004 C51.7175,19.3474 51.3365,19.8534 50.7895,19.9304 C50.7425,19.9374 50.6955,19.9404 50.6485,19.9404" id="Fill-3" fill="#4F5661"></path>
            <path d="M1.439,23.8701 C0.963,23.8701 0.542,23.5301 0.456,23.0461 L0.016,20.5861 C-0.032,20.3191 0.031,20.0441 0.19,19.8241 C0.349,19.6031 0.591,19.4581 0.86,19.4201 L19.48,16.7801 C20.025,16.7031 20.533,17.0831 20.61,17.6301 C20.688,18.1771 20.307,18.6831 19.76,18.7611 L2.167,21.2551 L2.424,22.6941 C2.522,23.2371 2.16,23.7571 1.616,23.8541 C1.557,23.8651 1.497,23.8701 1.439,23.8701" id="Fill-5" fill="#4F5661"></path>
            <path d="M6.52,32 C8.91,31.85 10.193,30.304 10.055,28.099 L44.676,25.919 C44.815,28.124 46.865,29.789 49.255,29.639 L49.244,31.84 L6.52,32 Z" id="Fill-7" fill="#D3E5EF"></path>
            <path d="M2.4605,29.0664 C1.9395,29.0664 1.4995,28.6624 1.4635,28.1334 L1.2945,25.6494 C1.2765,25.3844 1.3655,25.1234 1.5405,24.9224 C1.7165,24.7224 1.9635,24.6004 2.2295,24.5844 L54.1615,21.3134 C54.4325,21.3054 54.6925,21.3884 54.8925,21.5664 C55.0915,21.7464 55.2105,21.9974 55.2235,22.2644 L55.4795,27.7664 C55.5045,28.3184 55.0785,28.7874 54.5265,28.8124 C53.9745,28.8534 53.5065,28.4114 53.4815,27.8604 L53.2735,23.3734 L3.3585,26.5164 L3.4595,27.9994 C3.4965,28.5494 3.0805,29.0264 2.5295,29.0644 C2.5065,29.0654 2.4835,29.0664 2.4605,29.0664" id="Fill-9" fill="#4F5661"></path>
            <path d="M43.52,56 L10.52,56 C9.968,56 9.52,55.553 9.52,55 C9.52,53.346 8.174,52 6.52,52 C5.968,52 5.52,51.553 5.52,51 L5.52,39 C5.52,38.447 5.968,38 6.52,38 C8.174,38 9.52,36.654 9.52,35 C9.52,34.447 9.968,34 10.52,34 L48.52,34 C49.072,34 49.52,34.447 49.52,35 C49.52,36.654 50.866,38 52.52,38 C53.072,38 53.52,38.447 53.52,39 L53.52,46 C53.52,46.553 53.072,47 52.52,47 C51.968,47 51.52,46.553 51.52,46 L51.52,39.899 C49.564,39.501 48.019,37.956 47.621,36 L11.419,36 C11.021,37.956 9.476,39.501 7.52,39.899 L7.52,50.101 C9.476,50.499 11.021,52.044 11.419,54 L43.52,54 C44.072,54 44.52,54.447 44.52,55 C44.52,55.553 44.072,56 43.52,56" id="Fill-11" fill="#4F5661"></path>
            <path d="M14.52,49 C12.866,49 11.52,47.654 11.52,46 C11.52,44.346 12.866,43 14.52,43 C16.174,43 17.52,44.346 17.52,46 C17.52,47.654 16.174,49 14.52,49" id="Fill-13" fill="#D3E5EF"></path>
            <path d="M44.52,49 C42.866,49 41.52,47.654 41.52,46 C41.52,44.346 42.866,43 44.52,43 C46.174,43 47.52,44.346 47.52,46 C47.52,47.654 46.174,49 44.52,49" id="Fill-15" fill="#D3E5EF"></path>
            <path d="M35.52,45 C35.52,48.866 32.833,52 29.52,52 C26.207,52 23.52,48.866 23.52,45 C23.52,41.134 26.207,38 29.52,38 C32.833,38 35.52,41.134 35.52,45" id="Fill-17" fill="#D3E5EF"></path>
            <path d="M47.52,57.5859 L47.52,49.9999 L55.106,49.9999 L47.52,57.5859 Z M3.52,31.9999 L55.52,31.9999 L55.52,47.9999 L46.52,47.9999 C45.968,47.9999 45.52,48.4469 45.52,48.9999 L45.52,57.9999 L3.52,57.9999 L3.52,31.9999 Z M56.52,29.9999 L2.52,29.9999 C1.968,29.9999 1.52,30.4469 1.52,30.9999 L1.52,58.9999 C1.52,59.5529 1.968,59.9999 2.52,59.9999 L47.52,59.9999 C47.785,59.9999 48.04,59.8949 48.227,59.7069 L57.227,50.7069 C57.415,50.5199 57.52,50.2659 57.52,49.9999 L57.52,30.9999 C57.52,30.4469 57.072,29.9999 56.52,29.9999 Z" id="Fill-19" fill="#4F5661"></path>
            <g id="Group-23" transform="translate(13.000000, 0.000000)">
                <mask id="mask-2" fill="white">
                    <use xlink:href="#path-1"></use>
                </mask>
                <g id="Clip-22"></g>
                <path d="M19.8496,12.5625 C19.6826,12.2185 19.3326,12.0005 18.9506,12.0005 L16.6656,12.0005 C16.1546,5.2965 10.5416,-0.0005 3.7166,-0.0005 C2.9016,-0.0005 2.0816,0.0785 1.2796,0.2335 C0.8086,0.3245 0.4686,0.7365 0.4696,1.2165 C0.4706,1.6965 0.8116,2.1085 1.2836,2.1975 C6.1246,3.1155 9.7246,7.1565 10.1626,12.0005 L7.9626,12.0005 C7.5796,12.0005 7.2306,12.2185 7.0626,12.5625 C6.8956,12.9075 6.9396,13.3165 7.1756,13.6175 L12.6696,20.6175 C12.8596,20.8595 13.1496,21.0005 13.4566,21.0005 C13.7636,21.0005 14.0536,20.8595 14.2436,20.6175 L19.7366,13.6175 C19.9736,13.3165 20.0166,12.9075 19.8496,12.5625" id="Fill-21" fill="#53C27C" mask="url(#mask-2)"></path>
            </g>
        </g>
    </g>
</svg>