<?xml version="1.0" encoding="UTF-8"?>
<svg width="38px" height="60px" viewBox="0 0 38 60" version="1.1" xmlns="http://www.w3.org/2000/svg" xmlns:xlink="http://www.w3.org/1999/xlink">
    <!-- Generator: Sketch 49.3 (51167) - http://www.bohemiancoding.com/sketch -->
    <title>Icon/ Lock</title>
    <desc>Created with Sketch.</desc>
    <defs></defs>
    <g id="Icon/-Lock" stroke="none" stroke-width="1" fill="none" fill-rule="evenodd">
        <g id="Page-1">
            <path d="M19,54.7646 C11.404,54.7646 5.235,48.5956 5.235,40.9996 C5.235,33.4046 11.404,27.2356 19,27.2356 C26.596,27.2356 32.765,33.4046 32.765,40.9996 C32.765,48.5956 26.596,54.7646 19,54.7646 M19,22.9996 C9.058,22.9996 1,31.0576 1,40.9996 C1,50.9426 9.058,58.9996 19,58.9996 C28.942,58.9996 37,50.9426 37,40.9996 C37,31.0576 28.942,22.9996 19,22.9996" id="Fill-1" fill="#D3E5EF"></path>
            <path d="M23,39 C23,36.794 21.206,35 19,35 C16.794,35 15,36.794 15,39 C15,40.475 15.81,41.75 17,42.443 L17,47 L21,47 L21,42.443 C22.19,41.75 23,40.475 23,39" id="Fill-3" fill="#F4877A"></path>
            <path d="M19,58 C9.626,58 2,50.374 2,41 C2,31.626 9.626,24 19,24 C28.374,24 36,31.626 36,41 C36,50.374 28.374,58 19,58 Z M30,25.537 C26.892,23.319 23.101,22 19,22 C14.899,22 11.108,23.319 8,25.537 L8,18 C8,11.935 12.935,7 19,7 C25.065,7 30,11.935 30,18 L30,25.537 Z M3,18 C3,9.178 10.178,2 19,2 C27.822,2 35,9.178 35,18 L35,30.794 C34.151,29.468 33.143,28.257 32,27.182 L32,18 C32,10.832 26.168,5 19,5 C11.832,5 6,10.832 6,18 L6,27.182 C4.857,28.257 3.849,29.468 3,30.794 L3,18 Z M36.836,34.516 C36.931,34.363 37,34.193 37,34 L37,18 C37,8.075 28.925,0 19,0 C9.075,0 1,8.075 1,18 L1,34 C1,34.193 1.069,34.363 1.164,34.516 C0.424,36.543 0,38.72 0,41 C0,51.477 8.523,60 19,60 C29.477,60 38,51.477 38,41 C38,38.72 37.576,36.543 36.836,34.516 Z" id="Fill-5" fill="#4F5661"></path>
        </g>
    </g>
</svg>