<?xml version="1.0" encoding="UTF-8"?>
<svg width="58px" height="60px" viewBox="0 0 58 60" version="1.1" xmlns="http://www.w3.org/2000/svg" xmlns:xlink="http://www.w3.org/1999/xlink">
    <!-- Generator: Sketch 49.3 (51167) - http://www.bohemiancoding.com/sketch -->
    <title>Icon/ Married</title>
    <desc>Created with Sketch.</desc>
    <defs>
        <polygon id="path-1" points="0.987774346 0.206 7.78183725 0.206 7.78183725 7.00021945 0.987774346 7.00021945 0.987774346 0.206"></polygon>
    </defs>
    <g id="Icon/-Married" stroke="none" stroke-width="1" fill="none" fill-rule="evenodd">
        <g id="Married">
            <path d="M28,56.479 C28,56.479 31,56.034 32,53.933 L28.385,52.312 L25.911,54.396 L28,56.479 Z" id="Fill-1" fill="#D3E5EF"></path>
            <path d="M32.7002,31.7944 C32.7002,31.7944 33.9002,30.5944 37.5002,29.3944 L35.0992,25.7944 L31.5002,28.1944 L32.7002,31.7944 Z" id="Fill-3" fill="#D3E5EF"></path>
            <polygon id="Fill-5" fill="#F4877A" points="20.1729 16.7827 27.5349 11.3867 22.9599 7.7947 15.0399 7.7947 10.4649 11.3867 17.8389 16.7947"></polygon>
            <polygon id="Stroke-7" stroke="#F4877A" stroke-width="2" stroke-linecap="round" stroke-linejoin="round" points="20.1729 16.7827 27.5349 11.3867 22.9599 7.7947 15.0399 7.7947 10.4649 11.3867 17.8389 16.7947"></polygon>
            <path d="M30.7971317,28.2633459 C32.2269814,30.4992854 32.9996,33.0922221 32.9996,35.7946 C32.9996,40.8949829 30.2387418,45.520882 25.8680836,47.9942968 C24.7585589,48.6201815 23.5808586,49.0906063 22.3504758,49.393611 C21.2618681,49.658891 20.1410986,49.7946 18.9996,49.7946 C11.2825293,49.7946 4.9996,43.5119598 4.9996,35.7946 C4.9996,28.0772402 11.2825293,21.7946 18.9996,21.7946 C22.4986663,21.7946 25.7844808,23.0811995 28.3412535,25.3784501 L29.6779465,23.8907499 C26.7578277,21.2670341 22.9974146,19.7946 18.9996,19.7946 C10.1779804,19.7946 2.9996,26.9726501 2.9996,35.7946 C2.9996,44.6165499 10.1779804,51.7946 18.9996,51.7946 C20.3013083,51.7946 21.5810194,51.6396454 22.8263615,51.3361678 C24.237201,50.9887253 25.5843701,50.4506073 26.8519212,49.7355785 C31.844354,46.910294 34.9996,41.6235865 34.9996,35.7946 C34.9996,32.7067302 34.1157727,29.7405731 32.4820683,27.1858541 L30.7971317,28.2633459 Z M34.5481376,26.7307212 C36.1463801,29.4542271 36.9996,32.5586034 36.9996,35.7946 C36.9996,42.0983554 33.7289474,47.8443068 28.4641372,51.1044018 C27.3007987,51.8211937 26.0780457,52.4015316 24.8191961,52.827319 C22.9508514,53.4662289 20.9998985,53.7946 18.9996,53.7946 C9.06188475,53.7946 0.9996,45.7323153 0.9996,35.7946 C0.9996,25.8568847 9.06188475,17.7946 18.9996,17.7946 C24.0495506,17.7946 28.7579476,19.8817087 32.1292826,23.4966373 L33.5919174,22.1325627 C29.8457626,18.115732 24.6094225,15.7946 18.9996,15.7946 C7.95731525,15.7946 -1.0004,24.7523153 -1.0004,35.7946 C-1.0004,46.8368847 7.95731525,55.7946 18.9996,55.7946 C21.2214319,55.7946 23.3909362,55.4294438 25.4631722,54.7208035 C26.8643604,54.2468781 28.2236767,53.6017251 29.515172,52.8059661 C35.3647981,49.1837421 38.9996,42.7980455 38.9996,35.7946 C38.9996,32.2007156 38.0504264,28.7472193 36.2730624,25.7184788 L34.5481376,26.7307212 Z" id="Stroke-9" fill="#4B5E69" fill-rule="nonzero"></path>
            <path d="M23.4522624,49.8580788 C21.8535141,47.133711 20.9998,44.0292959 20.9998,40.7942 C20.9998,34.4908481 24.2710642,28.7447337 29.5362628,25.4843982 C30.6986446,24.7675981 31.9212601,24.1873254 33.1809926,23.7615525 C35.0481056,23.1227342 37.0000273,22.7942 38.9998,22.7942 C48.9375153,22.7942 56.9998,30.8564847 56.9998,40.7942 C56.9998,50.7319153 48.9375153,58.7942 38.9998,58.7942 C33.9500869,58.7942 29.2426367,56.7072889 25.8711174,53.0921627 L24.4084826,54.4562373 C28.1548028,58.4732454 33.3901854,60.7942 38.9998,60.7942 C50.0420847,60.7942 58.9998,51.8364847 58.9998,40.7942 C58.9998,29.7519153 50.0420847,20.7942 38.9998,20.7942 C36.7784422,20.7942 34.6078596,21.1595377 32.5370777,21.8680479 C31.1350305,22.3419139 29.7754822,22.9871771 28.4849113,23.7830291 C22.6352559,27.4052721 18.9998,33.7911047 18.9998,40.7942 C18.9998,44.3872859 19.9495172,47.8408031 21.7273376,50.8703212 L23.4522624,49.8580788 Z M28.3215925,52.698175 C31.2427225,55.3218129 35.0030154,56.7942 38.9998,56.7942 C47.8220847,56.7942 54.9998,49.6164847 54.9998,40.7942 C54.9998,31.9719153 47.8220847,24.7942 38.9998,24.7942 C37.6991245,24.7942 36.4195148,24.9491423 35.1732328,25.2525849 C33.7627813,25.5999313 32.4166156,26.1378623 31.1484788,26.8532215 C26.1552936,29.6783122 22.9998,34.9649415 22.9998,40.7942 C22.9998,43.882601 23.8839272,46.8488464 25.5184958,49.4032024 L27.2031042,48.3251976 C25.7726233,46.0897714 24.9998,43.4969503 24.9998,40.7942 C24.9998,35.6936078 27.7608373,31.06784 32.1322346,28.5945495 C33.2425041,27.9682445 34.4192164,27.4980275 35.6489242,27.195189 C36.738464,26.9299133 37.8592687,26.7942 38.9998,26.7942 C46.7175153,26.7942 52.9998,33.0764847 52.9998,40.7942 C52.9998,48.5119153 46.7175153,54.7942 38.9998,54.7942 C35.5017037,54.7942 32.2158736,53.5075944 29.6580075,51.210225 L28.3215925,52.698175 Z" id="Stroke-11" fill="#4B5E69" fill-rule="nonzero"></path>
            <g id="Group-15" transform="translate(25.000000, 0.794400)">
                <mask id="mask-2" fill="white">
                    <use xlink:href="#path-1"></use>
                </mask>
                <g id="Clip-14"></g>
                <path d="M4.9268,0.5796 L5.5068,2.1446 C5.5658,2.2996 5.6878,2.4226 5.8428,2.4806 L7.4078,3.0606 C7.7068,3.1746 7.8578,3.5096 7.7438,3.8086 C7.6858,3.9636 7.5638,4.0856 7.4078,4.1446 L5.8428,4.7246 C5.6878,4.7836 5.5658,4.9056 5.5068,5.0606 L4.9268,6.6256 C4.8138,6.9256 4.4788,7.0756 4.1798,6.9626 C4.0248,6.9036 3.9018,6.7806 3.8428,6.6256 L3.2638,5.0606 C3.2038,4.9056 3.0818,4.7836 2.9268,4.7246 L1.3628,4.1446 C1.0628,4.0316 0.9118,3.6966 1.0258,3.3966 C1.0838,3.2426 1.2068,3.1196 1.3628,3.0606 L2.9268,2.4806 C3.0818,2.4226 3.2038,2.2996 3.2638,2.1446 L3.8428,0.5796 C3.9558,0.2806 4.2908,0.1296 4.5908,0.2436 C4.7458,0.3026 4.8678,0.4246 4.9268,0.5796" id="Fill-13" fill="#D3E5EF" mask="url(#mask-2)"></path>
            </g>
            <path d="M8.6143,2.0512 L9.1173,3.5332 C9.1683,3.6792 9.2793,3.7982 9.4233,3.8572 L10.8753,4.4412 C11.1523,4.5552 11.2853,4.8722 11.1713,5.1502 C11.1113,5.2942 10.9933,5.4052 10.8463,5.4572 L9.3643,5.9592 C9.2183,6.0102 9.0993,6.1222 9.0413,6.2652 L8.4573,7.7172 C8.3433,7.9942 8.0253,8.1272 7.7473,8.0132 C7.6033,7.9532 7.4923,7.8362 7.4403,7.6892 L6.9383,6.2072 C6.8873,6.0602 6.7753,5.9422 6.6323,5.8832 L5.1803,5.2992 C4.9033,5.1852 4.7703,4.8672 4.8853,4.5902 C4.9443,4.4462 5.0613,4.3342 5.2093,4.2832 L6.6903,3.7802 C6.8373,3.7302 6.9553,3.6182 7.0143,3.4742 L7.5983,2.0232 C7.7133,1.7452 8.0303,1.6132 8.3073,1.7272 C8.4523,1.7862 8.5633,1.9042 8.6143,2.0512" id="Fill-16" fill="#D3E5EF"></path>
            <path d="M18.7568,1.7944 C19.7278,1.7944 20.5138,2.5814 20.5138,3.5514 C20.5138,4.5214 19.7278,5.3084 18.7568,5.3084 C17.7858,5.3084 16.9998,4.5214 16.9998,3.5514 C16.9998,2.5814 17.7858,1.7944 18.7568,1.7944" id="Fill-18" fill="#D3E5EF"></path>
            <path d="M4.2568,9.7944 C4.9508,9.7944 5.5138,10.3564 5.5138,11.0514 C5.5138,11.7454 4.9508,12.3084 4.2568,12.3084 C3.5628,12.3084 2.9998,11.7454 2.9998,11.0514 C2.9998,10.3564 3.5628,9.7944 4.2568,9.7944" id="Fill-20" fill="#D3E5EF"></path>
            <path d="M33.5,8.3081 C34.328,8.3081 35,8.9791 35,9.8081 C35,10.6371 34.328,11.3081 33.5,11.3081 C32.672,11.3081 32,10.6371 32,9.8081 C32,8.9791 32.672,8.3081 33.5,8.3081" id="Fill-22" fill="#D3E5EF"></path>
        </g>
    </g>
</svg>