<?xml version="1.0" encoding="UTF-8"?>
<svg width="58px" height="60px" viewBox="0 0 58 60" version="1.1" xmlns="http://www.w3.org/2000/svg" xmlns:xlink="http://www.w3.org/1999/xlink">
    <!-- Generator: Sketch 49.3 (51167) - http://www.bohemiancoding.com/sketch -->
    <title>Icon/ Maximum Refund Guaranteed</title>
    <desc>Created with Sketch.</desc>
    <defs>
        <polygon id="path-1" points="0 12.0000755 0 4.32641656e-05 12.0005391 4.32641656e-05 12.0005391 12.0000755"></polygon>
    </defs>
    <g id="Icon/-Maximum-Refund-Guaranteed" stroke="none" stroke-width="1" fill="none" fill-rule="evenodd">
        <g id="Page-1">
            <path d="M55,53.6748 C55,56.6138 43.803,59.9998 30,59.9998 C16.197,59.9998 5,56.6138 5,53.6748 C5,52.2578 7.616,51.9588 11.884,50.9998 C12.197,51.2878 12.523,51.5648 12.86,51.8308 C16.896,54.9838 22.884,56.7408 30,56.7938 C37.116,56.7408 43.104,54.9838 47.14,51.8308 C47.477,51.5648 47.803,51.2878 48.116,50.9998 C52.384,51.9588 55,52.2578 55,53.6748" id="Fill-1" fill="#D3E5EF"></path>
            <path d="M35.5,42.666 C35.5,40.457 34.072,39.159 30.868,38.459 C28.073,37.857 27.857,37.269 27.857,36.503 C27.857,35.629 28.737,35.018 29.996,35.018 C31.211,35.018 32.267,35.419 33.318,36.278 L33.789,36.666 L35.341,34.604 L34.898,34.246 C33.76,33.329 32.638,32.818 31.312,32.628 L31.312,30.847 C31.312,30.38 30.934,30 30.468,30 L29.625,30 C29.159,30 28.781,30.38 28.781,30.847 L28.781,32.68 C26.676,33.121 25.241,34.655 25.241,36.668 C25.241,39.517 27.529,40.408 30.004,40.948 C32.666,41.513 32.865,42.067 32.865,42.85 C32.865,43.788 31.934,44.443 30.6,44.443 C29.064,44.443 27.907,43.962 26.604,42.78 L26.155,42.372 L24.5,44.337 L24.926,44.719 C26.123,45.792 27.379,46.449 28.781,46.741 L28.781,48.615 C28.781,49.082 29.159,49.462 29.625,49.462 L30.468,49.462 C30.934,49.462 31.312,49.082 31.312,48.615 L31.312,46.864 C33.809,46.582 35.5,44.943 35.5,42.666" id="Fill-3" fill="#53C27C"></path>
            <path d="M26.4746,21.3867 L26.1016,21.4807 C26.1866,21.4097 26.3196,21.3797 26.4746,21.3867" id="Fill-5" fill="#4F5661"></path>
            <path d="M36,23 C34.654,23.462 32.577,24 30,24 C28.577,24 26.437,23.836 24,23 L24,18 C25.346,18.462 27.423,19 30,19 C31.423,19 33.562,18.836 36,18 L36,23 Z" id="Fill-7" fill="#D3E5EF"></path>
            <path d="M46.0479,51.7744 C42.3209,54.4444 36.6239,55.9424 30.0049,55.9934 C23.3789,55.9424 17.6789,54.4444 13.9499,51.7724 C8.8679,48.1524 7.6649,42.5784 10.5629,36.0774 C13.1809,30.1994 20.3609,25.7114 23.6019,23.9204 L23.6759,23.9464 C25.7149,24.6454 27.8429,25.0004 29.9999,25.0004 C32.1589,25.0004 34.2869,24.6454 36.3239,23.9464 L36.4899,23.8894 C39.6589,25.6574 46.8009,30.1574 49.4379,36.0774 C52.3349,42.5784 51.1319,48.1524 46.0479,51.7744 Z M25.6469,10.0004 C26.0449,10.0004 26.3949,10.5004 26.3949,11.0704 C26.3949,11.3424 26.3029,11.6184 26.1679,11.7844 C26.0479,11.9204 25.9019,12.0004 25.7649,12.0004 L24.3989,12.0004 L24.1719,12.0004 C23.6189,12.0004 23.1719,12.4474 23.1719,13.0004 C23.1719,13.5524 23.6189,14.0004 24.1719,14.0004 L24.3989,14.0004 L25.7649,14.0004 L34.1909,14.0004 C36.0649,14.0004 37.5889,12.4744 37.5889,10.6004 C37.5889,8.7254 36.0649,7.2004 34.1909,7.2004 L33.3919,7.2004 C33.0609,7.2004 32.7919,6.9314 32.7919,6.6004 C32.7919,6.2694 33.0609,6.0004 33.3919,6.0004 L42.3439,6.0004 L42.3439,6.4534 C42.3439,8.1414 40.3429,10.5024 38.5779,12.5844 C37.1609,14.2544 35.8939,15.7584 35.3059,17.1644 C31.7399,18.2984 27.8589,18.2674 24.3239,17.0534 L23.8769,16.9004 L17.4609,10.0004 L25.6469,10.0004 Z M16.1939,7.3914 L16.1939,7.1734 C16.1939,6.4684 16.7939,5.8954 17.5309,5.8954 L22.7819,5.8954 L24.7789,5.8954 L26.9739,5.8954 C27.5269,5.8954 27.9739,5.4484 27.9739,4.8954 C27.9739,4.3424 27.5269,3.8954 26.9739,3.8954 L24.7789,3.8954 L22.7819,3.8954 C22.2329,3.8954 21.7849,3.4694 21.7849,2.9474 C21.7849,2.4244 22.2329,2.0004 22.7819,2.0004 L40.3309,2.0004 C41.4409,2.0004 42.3439,2.8694 42.3439,3.9384 L42.3439,4.0004 L33.3919,4.0004 C31.9579,4.0004 30.7919,5.1674 30.7919,6.6004 C30.7919,8.0344 31.9579,9.2004 33.3919,9.2004 L34.1909,9.2004 C34.9619,9.2004 35.5889,9.8284 35.5889,10.6004 C35.5889,11.3724 34.9619,12.0004 34.1909,12.0004 L28.2509,12.0004 C28.3399,11.7024 28.3949,11.3904 28.3949,11.0704 C28.3949,9.3774 27.1619,8.0004 25.6469,8.0004 L16.2579,8.0004 C16.2199,7.7994 16.1939,7.5974 16.1939,7.3914 Z M25.7079,21.7414 C25.5689,21.4444 25.2989,21.2644 24.9999,21.2034 L24.9999,19.3484 C28.2559,20.2134 31.7379,20.2134 34.9999,19.3484 L34.9999,21.2434 C34.7749,21.3344 34.5769,21.4994 34.4649,21.7364 C34.3589,21.9604 34.3549,22.2004 34.4139,22.4224 C31.5869,23.1594 28.5859,23.1734 25.7499,22.4644 C25.8219,22.2334 25.8189,21.9774 25.7079,21.7414 Z M51.2639,35.2624 C48.2199,28.4284 40.0899,23.5424 36.9999,21.8794 L36.9999,18.4184 C37.2269,17.2814 38.7399,15.4844 40.1039,13.8774 C42.1889,11.4184 44.3439,8.8764 44.3439,6.4534 L44.3439,3.9384 C44.3439,1.7664 42.5439,0.0004 40.3309,0.0004 L22.7819,0.0004 C21.1299,0.0004 19.7849,1.3224 19.7849,2.9474 C19.7849,3.2814 19.8549,3.5964 19.9579,3.8954 L17.5309,3.8954 C15.6919,3.8954 14.1939,5.3664 14.1939,7.1734 L14.1939,7.3914 C14.1939,8.5194 14.5499,9.6004 15.2219,10.5184 L22.9999,18.8934 L22.9999,21.9624 C19.7539,23.7014 11.7309,28.5394 8.7359,35.2624 C5.4089,42.7274 6.8489,49.1694 12.7879,53.3994 C16.8349,56.2994 22.6519,57.8834 29.6259,57.9894 L30.3739,58.0004 L30.3739,57.9894 C37.3469,57.8854 43.1629,56.3004 47.2099,53.4014 C53.1519,49.1694 54.5909,42.7274 51.2639,35.2624 Z" id="Fill-9" fill="#4F5661"></path>
            <path d="M53.7979,18.5507 L54.6509,20.8547 C54.7369,21.0827 54.9179,21.2627 55.1459,21.3497 L57.4489,22.2017 C57.8899,22.3687 58.1109,22.8627 57.9439,23.3027 C57.8579,23.5307 57.6779,23.7107 57.4489,23.7977 L55.1459,24.6517 C54.9179,24.7377 54.7369,24.9177 54.6509,25.1457 L53.7979,27.4487 C53.6309,27.8897 53.1379,28.1117 52.6969,27.9447 C52.4689,27.8577 52.2889,27.6777 52.2019,27.4487 L51.3499,25.1457 C51.2629,24.9177 51.0819,24.7377 50.8549,24.6517 L48.5509,23.7977 C48.1109,23.6307 47.8889,23.1377 48.0559,22.6967 C48.1429,22.4697 48.3219,22.2887 48.5509,22.2017 L50.8549,21.3497 C51.0819,21.2627 51.2629,21.0827 51.3499,20.8547 L52.2019,18.5507 C52.3689,18.1107 52.8619,17.8887 53.3029,18.0557 C53.5309,18.1427 53.7109,18.3217 53.7979,18.5507" id="Fill-11" fill="#D3E5EF"></path>
            <g id="Group-15" transform="translate(0.000000, 14.000100)">
                <mask id="mask-2" fill="white">
                    <use xlink:href="#path-1"></use>
                </mask>
                <g id="Clip-14"></g>
                <path d="M6.957,0.661 L7.981,3.426 C8.085,3.699 8.301,3.915 8.575,4.019 L11.339,5.043 C11.868,5.243 12.134,5.835 11.934,6.363 C11.829,6.637 11.613,6.853 11.339,6.957 L8.575,7.981 C8.301,8.085 8.085,8.301 7.981,8.575 L6.957,11.339 C6.757,11.868 6.166,12.134 5.637,11.933 C5.363,11.829 5.146,11.613 5.043,11.339 L4.019,8.575 C3.915,8.301 3.699,8.085 3.425,7.981 L0.661,6.957 C0.132,6.757 -0.134,6.166 0.066,5.637 C0.171,5.363 0.387,5.146 0.661,5.043 L3.425,4.019 C3.699,3.915 3.915,3.699 4.019,3.426 L5.043,0.661 C5.243,0.133 5.834,-0.134 6.363,0.067 C6.637,0.171 6.853,0.387 6.957,0.661" id="Fill-13" fill="#D3E5EF" mask="url(#mask-2)"></path>
            </g>
            <path d="M53.2178,3.4961 L53.9858,5.5691 C54.0638,5.7741 54.2258,5.9361 54.4308,6.0151 L56.5038,6.7821 C56.9008,6.9331 57.1008,7.3761 56.9498,7.7721 C56.8718,7.9771 56.7098,8.1401 56.5038,8.2181 L54.4308,8.9861 C54.2258,9.0631 54.0638,9.2251 53.9858,9.4321 L53.2178,11.5051 C53.0678,11.9011 52.6238,12.1001 52.2278,11.9501 C52.0228,11.8721 51.8608,11.7101 51.7818,11.5051 L51.0148,9.4321 C50.9368,9.2251 50.7748,9.0631 50.5698,8.9861 L48.4958,8.2181 C48.0998,8.0671 47.8998,7.6241 48.0498,7.2271 C48.1278,7.0221 48.2898,6.8601 48.4958,6.7821 L50.5698,6.0151 C50.7748,5.9361 50.9368,5.7741 51.0148,5.5691 L51.7818,3.4961 C51.9328,3.1001 52.3758,2.8991 52.7728,3.0501 C52.9778,3.1281 53.1398,3.2901 53.2178,3.4961" id="Fill-16" fill="#D3E5EF"></path>
        </g>
    </g>
</svg>