<?xml version="1.0" encoding="UTF-8"?>
<svg width="56px" height="63px" viewBox="0 0 56 63" version="1.1" xmlns="http://www.w3.org/2000/svg" xmlns:xlink="http://www.w3.org/1999/xlink">
    <!-- Generator: Sketch 49.3 (51167) - http://www.bohemiancoding.com/sketch -->
    <title>Icon/ Maximizing Refinancing Tax Credits</title>
    <desc>Created with Sketch.</desc>
    <defs>
        <polygon id="path-1" points="1.1798 1 0.1798 1 0.1798 0.9899 1.1798 0.9899"></polygon>
    </defs>
    <g id="Icon/-Maximizing-Refinancing-Tax-Credits" stroke="none" stroke-width="1" fill="none" fill-rule="evenodd">
        <g id="Page-1">
            <path d="M39.7119,41.0947 C37.3179,42.3027 33.7489,42.9737 29.5099,42.9997 C25.2709,42.9737 21.7009,42.3027 19.3079,41.0947 C16.5519,39.7137 15.3239,37.6217 16.3939,34.9997 C16.8969,36.3877 17.9029,36.5627 19.3079,37.4917 C21.7009,39.0857 25.2709,39.9757 29.5099,40.0017 C33.7489,39.9757 37.3179,39.0857 39.7119,37.4917 C41.1159,36.5627 42.1229,36.3877 42.6259,34.9997 C43.6949,37.6217 42.4679,39.7137 39.7119,41.0947" id="Fill-1" fill="#D3E5EF"></path>
            <path d="M10,38.5966 L10,52.5616 C10,53.3986 9.371,54.1266 8.478,54.3266 L1,55.9996 L1,35.9996 L8.238,36.7906 C9.243,36.9016 10,37.6756 10,38.5966" id="Fill-3" fill="#D3E5EF"></path>
            <path d="M9,52.5615 C9,52.9285 8.695,53.2535 8.259,53.3515 L2,54.7515 L2,37.1155 L8.129,37.7855 C8.626,37.8395 9,38.1885 9,38.5965 L9,52.5615 Z M55.637,39.3505 L54.893,38.3765 C54.533,37.9275 54.107,37.5615 53.651,37.2505 L54.538,36.6995 C54.768,36.5565 54.93,36.3275 54.987,36.0635 C55.044,35.7995 54.993,35.5235 54.844,35.2985 L53.836,33.7835 C52.103,31.5765 49.054,30.9405 46.585,32.2705 C46.099,32.5325 45.917,33.1385 46.18,33.6245 C46.441,34.1115 47.049,34.2935 47.534,34.0305 C49.145,33.1655 51.132,33.5775 52.216,34.9525 L52.608,35.5445 L51.339,36.3355 C50.162,36.1515 48.927,36.3185 47.813,36.9085 C47.782,36.9245 47.752,36.9425 47.723,36.9615 L37.011,44.1695 C36.553,44.4785 36.432,45.0995 36.739,45.5585 C37.049,46.0165 37.669,46.1375 38.128,45.8305 L48.793,38.6525 C50.341,37.8585 52.242,38.2645 53.317,39.6095 L53.398,39.7155 L36.189,51.1395 C36.072,51.2155 35.921,51.2885 35.757,51.3585 C35.911,50.9315 36.01,50.4785 36.01,49.9995 C36.01,47.7935 34.216,45.9995 32.01,45.9995 L23.01,45.9995 C22.457,45.9995 22.01,46.4475 22.01,46.9995 C22.01,47.5525 22.457,47.9995 23.01,47.9995 L32.01,47.9995 C33.112,47.9995 34.01,48.8975 34.01,49.9995 C34.01,51.1025 33.112,51.9995 32.01,51.9995 L20.01,51.9995 L20.009,51.9995 L17.015,51.9955 C13.343,51.9955 11.524,49.5735 11,48.7275 L11,41.9995 C11,40.3455 12.346,38.9995 14,38.9995 C14.553,38.9995 15,38.5525 15,37.9995 C15,37.4475 14.553,36.9995 14,36.9995 C12.846,36.9995 11.794,37.4095 10.947,38.0695 C10.707,36.8795 9.669,35.9425 8.347,35.7965 L1.108,35.0055 C0.825,34.9715 0.544,35.0655 0.332,35.2555 C0.121,35.4455 0,35.7155 0,35.9995 L0,55.9995 C0,56.3035 0.138,56.5905 0.375,56.7805 C0.554,56.9235 0.774,56.9995 1,56.9995 C1.073,56.9995 1.146,56.9925 1.219,56.9755 L8.696,55.3025 C10.053,54.9995 11,53.8725 11,52.5615 L11,51.7645 C12.277,52.8915 14.232,53.9955 17.013,53.9955 L32.232,54.0205 C33.562,54.0205 36.009,53.6465 37.289,52.8095 L55.396,40.7905 C55.627,40.6375 55.783,40.3965 55.829,40.1235 C55.875,39.8495 55.806,39.5705 55.637,39.3505 Z" id="Fill-5" fill="#4F5661"></path>
            <g id="Group-9" transform="translate(26.000000, 60.000100)">
                <mask id="mask-2" fill="white">
                    <use xlink:href="#path-1"></use>
                </mask>
                <g id="Clip-8"></g>
                <path d="M0.8398,0.9999 L0.1798,0.9999 C0.2898,0.9999 0.3998,0.9999 0.5098,0.9899 C0.6198,0.9999 0.7298,0.9999 0.8398,0.9999" id="Fill-7" fill="#4F5661" mask="url(#mask-2)"></path>
            </g>
            <path d="M35.0098,28.666 C35.0098,26.457 33.5818,25.159 30.3778,24.459 C27.5828,23.857 27.3668,23.269 27.3668,22.503 C27.3668,21.629 28.2468,21.018 29.5058,21.018 C30.7208,21.018 31.7768,21.419 32.8278,22.278 L33.2988,22.666 L34.8508,20.604 L34.4078,20.246 C33.2698,19.329 32.1478,18.818 30.8218,18.628 L30.8218,16.847 C30.8218,16.38 30.4438,16 29.9778,16 L29.1348,16 C28.6688,16 28.2908,16.38 28.2908,16.847 L28.2908,18.68 C26.1858,19.121 24.7508,20.655 24.7508,22.668 C24.7508,25.517 27.0388,26.408 29.5138,26.948 C32.1758,27.513 32.3748,28.067 32.3748,28.85 C32.3748,29.788 31.4438,30.443 30.1098,30.443 C28.5738,30.443 27.4168,29.962 26.1138,28.78 L25.6648,28.372 L24.0098,30.337 L24.4358,30.719 C25.6328,31.792 26.8888,32.449 28.2908,32.741 L28.2908,34.615 C28.2908,35.082 28.6688,35.462 29.1348,35.462 L29.9778,35.462 C30.4438,35.462 30.8218,35.082 30.8218,34.615 L30.8218,32.864 C33.3188,32.582 35.0098,30.943 35.0098,28.666" id="Fill-10" fill="#53C27C"></path>
            <path d="M26.2148,11.1972 L25.9388,11.2742 C26.0018,11.2172 26.0998,11.1902 26.2148,11.1972" id="Fill-12" fill="#4F5661"></path>
            <path d="M34.2529,11.6084 C33.1899,12.0024 31.5469,12.4614 29.5099,12.4614 C28.3849,12.4614 26.6939,12.3214 24.7669,11.6084 L24.7669,7.3474 C25.8299,7.7404 27.4729,8.1994 29.5099,8.1994 C30.6349,8.1994 32.3249,8.0594 34.2529,7.3474 L34.2529,11.6084 Z" id="Fill-14" fill="#D3E5EF"></path>
            <path d="M43.3945,30.6875 C42.8865,32.5505 41.8785,34.1565 40.3965,35.4605 C37.8715,37.6985 34.0045,38.9515 29.5095,38.9905 C25.0145,38.9515 21.1485,37.6985 18.6215,35.4585 C17.1405,34.1565 16.1325,32.5505 15.6235,30.6815 C14.9155,28.1405 15.1465,25.2195 16.3105,21.9995 C18.0435,17.1915 22.3115,13.9365 24.4435,12.5535 C26.0775,13.1555 27.7815,13.4605 29.5095,13.4605 C31.2475,13.4605 32.9595,13.1535 34.5995,12.5455 L35.0075,12.3955 C36.8435,13.6885 40.9035,16.9925 42.7085,21.9995 C43.8735,25.2195 44.1045,28.1405 43.3945,30.6875 M33.2525,8.7115 L33.2525,10.8925 C30.8215,11.6465 28.2005,11.6465 25.7665,10.8925 L25.7665,8.7115 C28.2145,9.3585 30.8085,9.3605 33.2525,8.7115 M23.5125,2.0005 L35.5065,2.0005 C34.6675,3.2975 33.6315,5.1255 33.3395,6.5905 C30.8455,7.3815 28.1745,7.3815 25.6795,6.5905 C25.3875,5.1255 24.3515,3.2975 23.5125,2.0005 M44.5895,21.3215 C42.1865,14.6535 36.3565,10.8315 35.2525,10.1545 L35.2525,7.3245 C35.2525,6.0345 37.0705,3.1285 38.2145,1.5995 C38.4425,1.2965 38.4785,0.8915 38.3095,0.5525 C38.1395,0.2135 37.7935,0.0005 37.4155,0.0005 L21.6045,0.0005 C21.2255,0.0005 20.8795,0.2135 20.7095,0.5525 C20.5405,0.8915 20.5775,1.2965 20.8045,1.5995 C21.9495,3.1285 23.7665,6.0345 23.7665,7.3245 L23.7665,10.6075 C21.5875,11.9485 16.5015,15.5755 14.4295,21.3205 C13.1215,24.9385 12.8745,28.2685 13.6955,31.2125 C14.3075,33.4605 15.5205,35.3945 17.2965,36.9585 C20.1785,39.5105 24.3065,40.9015 29.2495,40.9875 L29.7695,41.0005 L29.7695,40.9875 C34.7125,40.9015 38.8405,39.5105 41.7205,36.9605 C43.4985,35.3945 44.7115,33.4605 45.3225,31.2185 C46.1445,28.2685 45.8985,24.9385 44.5895,21.3215" id="Fill-16" fill="#4F5661"></path>
        </g>
    </g>
</svg>