<?xml version="1.0" encoding="UTF-8"?>
<svg width="54px" height="61px" viewBox="0 0 54 61" version="1.1" xmlns="http://www.w3.org/2000/svg" xmlns:xlink="http://www.w3.org/1999/xlink">
    <!-- Generator: Sketch 49.3 (51167) - http://www.bohemiancoding.com/sketch -->
    <title>Icon/ Maximize your deductions and credits</title>
    <desc>Created with Sketch.</desc>
    <defs>
        <polygon id="path-1" points="1.1801 1 0.1801 1 0.1801 0.99 1.1801 0.99 1.1801 1"></polygon>
    </defs>
    <g id="Icon/-Maximize-your-deductions-and-credits" stroke="none" stroke-width="1" fill="none" fill-rule="evenodd">
        <g id="Maximize-your-deductions-and-credits" transform="translate(-1.000000, -1.000000)">
            <path d="M39.7117,41.0947 C37.3177,42.3027 33.7497,42.9737 29.5097,42.9997 C25.2707,42.9737 21.7017,42.3027 19.3087,41.0947 C16.5527,39.7137 15.3247,37.6227 16.3937,34.9997 C16.8967,36.3877 17.9037,36.5627 19.3087,37.4917 C21.7017,39.0857 25.2707,39.9747 29.5097,40.0017 C33.7497,39.9747 37.3177,39.0857 39.7117,37.4917 C41.1167,36.5627 42.1237,36.3877 42.6267,34.9997 C43.6957,37.6227 42.4677,39.7137 39.7117,41.0947" id="Fill-1" fill="#D3E5EF"></path>
            <path d="M10.0002,38.5962 L10.0002,52.5612 C10.0002,53.3982 9.3722,54.1262 8.4782,54.3262 L1.0002,56.0002 L1.0002,36.0002 L8.2382,36.7912 C9.2442,36.9012 10.0002,37.6762 10.0002,38.5962" id="Fill-3" fill="#D3E5EF"></path>
            <path d="M8.2598828,53.3503221 C8.71109971,53.2493788 9.0002,52.9141569 9.0002,52.5612 L9.0002,38.5962 C9.0002,38.2053467 8.64526294,37.8416701 8.12956247,37.7852814 L2.0002,37.1154381 L2.0002,54.7515937 L8.2598828,53.3503221 Z M11.0002,38.5962 L11.0002,52.5612 C11.0002,53.8820552 10.0335011,55.0029763 8.69665009,55.3020481 L1.21865009,56.9760481 C0.593730095,57.1159406 0.0002,56.6405865 0.0002,56.0002 L0.0002,36.0002 C0.0002,35.4049104 0.51707118,34.9414478 1.10883753,35.0061186 L8.34689608,35.797125 C9.84271618,35.9606838 11.0002,37.146668 11.0002,38.5962 Z" id="Stroke-5" fill="#4B5E69" fill-rule="nonzero"></path>
            <path d="M53.3312312,39.625695 L53.39994,39.715686 L36.183068,51.14384 C35.4542847,51.6205677 33.5435486,52.02 32.2331,52.02 L17.0167428,51.9950013 C15.0836037,51.995 13.5322103,51.3432271 12.2977561,50.2491296 C11.7884552,49.797736 10.5063402,48 10.0001,48 C9.44781525,48 9.0001,48.4477153 9.0001,49 C9.0001,49.5522847 9.44781525,50 10.0001,50 C8.98674562,49.4107182 8.98674562,49.4107182 9.15346862,49.5342389 C9.18790236,49.5952085 9.20813791,49.6302469 9.2411947,49.6854452 C9.33742876,49.8461369 9.45011983,50.0193466 9.58242655,50.2048624 C9.95899608,50.7328748 10.418981,51.2564437 10.9711939,51.7458704 C12.5546782,53.1493135 14.567638,53.995 17.0151,53.995 L32.2314572,54.0199987 C33.8969774,54.02 36.1643072,53.5460232 37.2835443,52.8138421 L55.396132,40.79116 C55.8779981,40.4713086 55.9888627,39.8105968 55.6377877,39.3509815 L54.9067877,38.3939815 C53.1925583,36.2507918 50.2178224,35.6335701 47.8135974,36.9085379 L47.7238302,36.9623405 L37.0118302,44.1703405 C36.553622,44.4786644 36.4321166,45.1000615 36.7404405,45.5582698 C37.0487644,46.016478 37.6701615,46.1379834 38.1283698,45.8296595 L48.7942906,38.6526657 C50.3414067,37.8584528 52.2412954,38.2632754 53.3312312,39.625695 Z" id="Stroke-7" fill="#4B5E69" fill-rule="nonzero"></path>
            <path d="M51.2011403,36.4210661 C50.7323423,36.7130368 50.5889954,37.3297617 50.8809661,37.7985597 C51.1729368,38.2673577 51.7896617,38.4107046 52.2584597,38.1187339 L54.5384597,36.6987339 C55.0164972,36.4010087 55.1545095,35.7674363 54.8436154,35.2978567 L53.8836154,33.8478567 C52.1044797,31.5781747 49.0518136,30.9396617 46.5851857,32.2697061 C46.099068,32.5318284 45.9174839,33.1383967 46.1796061,33.6245143 C46.4417284,34.110632 47.0482967,34.2922161 47.5344143,34.0300939 C49.1439081,33.1622296 51.1323913,33.578152 52.2634817,35.0177216 L52.6101148,35.5435469 L51.2011403,36.4210661 Z" id="Stroke-9" fill="#4B5E69" fill-rule="nonzero"></path>
            <path d="M11.0002,42 C11.0002,40.3422847 12.3424847,39 14.0002,39 C14.5524847,39 15.0002,38.5522847 15.0002,38 C15.0002,37.4477153 14.5524847,37 14.0002,37 C11.2379153,37 9.0002,39.2377153 9.0002,42 C9.0002,42.5522847 9.44791525,43 10.0002,43 C10.5524847,43 11.0002,42.5522847 11.0002,42 Z" id="Stroke-11" fill="#4B5E69" fill-rule="nonzero"></path>
            <path d="M23.01,48 L32.01,48 C33.1147153,48 34.01,48.8952847 34.01,50 C34.01,51.1047153 33.1147153,52 32.01,52 L20.01,52 C19.4577153,52 19.01,52.4477153 19.01,53 C19.01,53.5522847 19.4577153,54 20.01,54 L32.01,54 C34.2192847,54 36.01,52.2092847 36.01,50 C36.01,47.7907153 34.2192847,46 32.01,46 L23.01,46 C22.4577153,46 22.01,46.4477153 22.01,47 C22.01,47.5522847 22.4577153,48 23.01,48 Z" id="Stroke-13" fill="#4B5E69" fill-rule="nonzero"></path>
            <g id="Group-17" transform="translate(26.000000, 60.000000)">
                <mask id="mask-2" fill="white">
                    <use xlink:href="#path-1"></use>
                </mask>
                <g id="Clip-16"></g>
                <path d="M0.8401,1 L0.1801,1 C0.2901,1 0.4001,1 0.5101,0.99 C0.6201,1 0.7301,1 0.8401,1" id="Fill-15" fill="#4B5E69" mask="url(#mask-2)"></path>
            </g>
            <path d="M35.01,28.666 C35.01,26.457 33.582,25.159 30.379,24.458 C27.583,23.857 27.367,23.269 27.367,22.503 C27.367,21.628 28.247,21.018 29.506,21.018 C30.721,21.018 31.777,21.418 32.828,22.278 L33.3,22.666 L34.851,20.604 L34.408,20.246 C33.269,19.33 32.148,18.818 30.822,18.627 L30.822,16.846 C30.822,16.38 30.444,16 29.978,16 L29.135,16 C28.67,16 28.292,16.38 28.292,16.846 L28.292,18.68 C26.186,19.121 24.751,20.655 24.751,22.667 C24.751,25.517 27.039,26.408 29.514,26.948 C32.176,27.512 32.376,28.067 32.376,28.849 C32.376,29.788 31.443,30.444 30.109,30.444 C28.575,30.444 27.417,29.961 26.115,28.78 L25.665,28.372 L24.01,30.337 L24.436,30.718 C25.634,31.792 26.889,32.449 28.292,32.742 L28.292,34.615 C28.292,35.082 28.67,35.461 29.135,35.461 L29.978,35.461 C30.444,35.461 30.822,35.082 30.822,34.615 L30.822,32.865 C33.318,32.582 35.01,30.944 35.01,28.666" id="Fill-18" fill="#5BBF89"></path>
            <path d="M29.77,41.0002 L29.77,39.0002 L29.25,39.0002 L29.25,41.0002 C29.3638655,41.0002 29.4387687,40.999237 29.51,40.9945481 C29.5812313,40.999237 29.6561345,41.0002 29.77,41.0002 Z M29.518333,38.9902347 L29.6340347,38.9979221 C29.6445069,38.9992311 29.678417,39.0002 29.77,39.0002 L29.77,41.0002 L29.25,41.0002 L29.25,39.0002 C29.341583,39.0002 29.3754931,38.9992311 29.3859653,38.9979221 L29.501667,38.9902347 C29.5044449,38.9902116 29.5072226,38.990188 29.51,38.9901639 C29.5127774,38.990188 29.5155551,38.9902116 29.518333,38.9902347 Z M17.2991593,36.9607262 C15.5389407,35.4108481 14.3088355,33.4631817 13.6966931,31.2186023 C12.8839082,28.3014841 13.1190512,24.9446163 14.4293023,21.3209541 C15.3833523,18.6754609 17.0391048,16.2989823 19.1918933,14.1911585 C20.4090376,12.9994365 21.7101918,11.9670406 23.0121677,11.0951487 C23.4690468,10.7891914 23.8943878,10.5246032 24.2778332,10.3017235 C24.512308,10.1654338 24.6838826,10.0717729 24.7821881,10.0211509 L25.6978119,11.7992491 C25.6289768,11.8346954 25.4871626,11.9121104 25.2828931,12.0308431 C24.9350981,12.2330008 24.5456284,12.4752748 24.1250189,12.7569436 C22.9198848,13.5639836 21.713929,14.5208446 20.5911039,15.6202176 C18.6387738,17.5317699 17.152655,19.6647754 16.3104124,22.0002361 C15.1344367,25.252544 14.9287441,28.1889831 15.6247638,30.6870826 C16.1343645,32.5556183 17.1512607,34.165704 18.622991,35.4615726 C21.1479314,37.6976822 24.9608562,38.9507648 29.51,38.9901639 C34.0591438,38.9507648 37.8720699,37.697681 40.3991593,35.4596738 C41.8687393,34.165704 42.8856355,32.5556183 43.3966931,30.6817977 C44.0912559,28.1889831 43.8855633,25.252544 42.7093023,21.9994459 C41.8903758,19.7286377 40.5579563,17.651237 38.8509536,15.7813802 C37.7978619,14.6278198 36.6676667,13.62422 35.5387386,12.7778504 C35.1451628,12.4827823 34.7809016,12.2290644 34.4558195,12.0174549 C34.2653688,11.8934827 34.1335792,11.812902 34.0703156,11.7764075 L35.0696844,10.0439925 C35.4164892,10.2440519 35.9987174,10.6230483 36.7384425,11.1776283 C37.9624003,12.0952428 39.1850909,13.1809774 40.328026,14.4329526 C42.2020739,16.4857913 43.675371,18.782837 44.5904124,21.3201639 C45.9009488,24.9446163 46.1360918,28.3014841 45.3247638,31.2133174 C44.7111645,33.4631817 43.4810593,35.4108481 41.722991,36.9588274 C38.815737,39.5335172 34.5534781,40.938838 29.5695594,40.9896905 C29.4901166,40.9932392 29.4705193,40.9916401 29.4504406,40.9896905 C24.4665219,40.9388381 20.2042703,39.5335237 17.2991593,36.9607262 Z" id="Stroke-20" fill="#4B5E69" fill-rule="nonzero"></path>
            <path d="M26.2151,11.1968 L25.9391,11.2748 C26.0021,11.2168 26.1001,11.1908 26.2151,11.1968" id="Fill-22" fill="#4B5E69"></path>
            <path d="M34.2532,11.6084 C33.1892,12.0014 31.5472,12.4604 29.5102,12.4604 C28.3852,12.4604 26.6942,12.3204 24.7672,11.6084 L24.7672,7.3474 C25.8312,7.7404 27.4722,8.1994 29.5102,8.1994 C30.6342,8.1994 32.3262,8.0594 34.2532,7.3474 L34.2532,11.6084 Z" id="Fill-24" fill="#D3E5EF"></path>
            <path d="M33.2532,8.71289922 C31.9672623,9.05495065 30.7196698,9.1994 29.5102,9.1994 C28.1717433,9.1994 26.9299818,9.02241386 25.7672,8.71299977 L25.7672,10.8926726 C27.0598643,11.2947808 28.3067115,11.4604 29.5102,11.4604 C30.8625343,11.4604 32.1028092,11.2505051 33.2532,10.8926456 L33.2532,8.71289922 Z M34.5996815,12.5464568 C33.0600998,13.1151181 31.3784637,13.4604 29.5102,13.4604 C27.8822919,13.4604 26.1867436,13.1989788 24.420615,12.5464186 L23.7672,12.3049907 L23.7672,5.91200557 L25.1136815,6.4093432 C26.4455079,6.90126781 27.8972821,7.1994 29.5102,7.1994 C30.9147025,7.1994 32.3796772,6.97356396 33.906615,6.40938142 L35.2532,5.91183679 L35.2532,12.3050726 L34.5996815,12.5464568 Z" id="Stroke-26" fill="#4B5E69" fill-rule="nonzero"></path>
            <path d="M30.0372,2.0002 C31.3705333,2.0002 31.3705333,0.0002 30.0372,0.0002 L28.9832,0.0002 C27.6498667,0.0002 27.6498667,2.0002 28.9832,2.0002 L35.5112802,2.0002 C35.3292479,2.28159634 35.1501413,2.56814712 34.9767071,2.85720424 C34.6788181,3.35368591 34.4104234,3.83679625 34.1785506,4.30054196 C33.5874247,5.48279366 33.2532,6.48546787 33.2532,7.3242 L35.2532,7.3242 C35.2532,6.87470991 35.5045308,6.12071745 35.967405,5.19496915 C36.1746988,4.78038153 36.4186653,4.34124186 36.6916929,3.88619576 C37.0254118,3.32999757 37.3843727,2.77959088 37.7433297,2.26109748 C37.9579905,1.95103192 38.1235938,1.72234166 38.2152,1.6002 C38.7096272,0.940963745 38.2392453,0.0002 37.4152,0.0002 L28.9832,0.0002 L28.9832,2.0002 L30.0372,2.0002 L30.0372,0.0002 L21.6052,0.0002 C20.7811547,0.0002 20.3107728,0.940963745 20.8052,1.6002 C20.8968062,1.72234166 21.0624095,1.95103192 21.2770703,2.26109748 C21.6360273,2.77959088 21.9949882,3.32999757 22.3287071,3.88619576 C22.6017347,4.34124186 22.8457012,4.78038153 23.052995,5.19496915 C23.5158692,6.12071745 23.7672,6.87470991 23.7672,7.3242 L25.7672,7.3242 C25.7672,6.48546787 25.4329753,5.48279366 24.8418494,4.30054196 C24.6099766,3.83679625 24.3415819,3.35368591 24.0436929,2.85720424 C23.8702587,2.56814712 23.6911521,2.28159634 23.5091211,2.0002 L30.0372,2.0002 Z" id="Stroke-28" fill="#4B5E69" fill-rule="nonzero"></path>
        </g>
    </g>
</svg>