<?xml version="1.0" encoding="UTF-8"?>
<svg width="60px" height="50px" viewBox="0 0 60 50" version="1.1" xmlns="http://www.w3.org/2000/svg" xmlns:xlink="http://www.w3.org/1999/xlink">
    <!-- Generator: Sketch 49.3 (51167) - http://www.bohemiancoding.com/sketch -->
    <title>Icon/ Medical Expenses</title>
    <desc>Created with Sketch.</desc>
    <defs>
        <polygon id="path-1" points="0 50 60 50 60 0 0 0"></polygon>
    </defs>
    <g id="Icon/-Medical-Expenses" stroke="none" stroke-width="1" fill="none" fill-rule="evenodd">
        <g id="Medical-Expenses">
            <polygon id="Fill-1" fill="#D3E5EF" points="7 49 13 49 13 11 7 11"></polygon>
            <polygon id="Fill-2" fill="#D3E5EF" points="47 49 53 49 53 11 47 11"></polygon>
            <g id="Group-14">
                <path d="M40,5 C40,3.34628475 38.6537153,2 37,2 L23,2 C21.3462847,2 20,3.34628475 20,5 L20,10 L22,10 L22,5 C22,4.44771525 22.4477153,4 23,4 L37,4 C37.5522847,4 38,4.44771525 38,5 L38,10 L40,10 L40,5 Z M24,6 L24,11 C24,11.5522847 23.5522847,12 23,12 L19,12 C18.4477153,12 18,11.5522847 18,11 L18,5 C18,2.24171525 20.2417153,0 23,0 L37,0 C39.7582847,0 42,2.24171525 42,5 L42,11 C42,11.5522847 41.5522847,12 41,12 L37,12 C36.4477153,12 36,11.5522847 36,11 L36,6 L24,6 Z" id="Stroke-3" fill="#4B5E69" fill-rule="nonzero"></path>
                <path d="M57,48 C57.5419806,48 58,47.5302932 58,46.949 L58,13.051 C58,12.4697068 57.5419806,12 57,12 L3,12 C2.45801942,12 2,12.4697068 2,13.051 L2,46.949 C2,47.5302932 2.45801942,48 3,48 L57,48 Z M3,50 C1.3420142,50 0,48.6237413 0,46.949 L0,13.051 C0,11.3762587 1.3420142,10 3,10 L57,10 C58.6579858,10 60,11.3762587 60,13.051 L60,46.949 C60,48.6237413 58.6579858,50 57,50 L3,50 Z" id="Stroke-5" fill="#4B5E69" fill-rule="nonzero"></path>
                <polygon id="Fill-7" fill="#F4877A" points="38 29 32 29 32 23 28 23 28 29 22 29 22 33 28 33 28 39 32 39 32 33 38 33"></polygon>
                <path d="M38,28 C38.5522847,28 39,28.4477153 39,29 L39,33 C39,33.5522847 38.5522847,34 38,34 L33,34 L33,39 C33,39.5522847 32.5522847,40 32,40 L28,40 C27.4477153,40 27,39.5522847 27,39 L27,34 L22,34 C21.4477153,34 21,33.5522847 21,33 L21,29 C21,28.4477153 21.4477153,28 22,28 L27,28 L27,23 C27,22.4477153 27.4477153,22 28,22 L32,22 C32.5522847,22 33,22.4477153 33,23 L33,28 L38,28 Z M32,30 C31.4477153,30 31,29.5522847 31,29 L31,24 L29,24 L29,29 C29,29.5522847 28.5522847,30 28,30 L23,30 L23,32 L28,32 C28.5522847,32 29,32.4477153 29,33 L29,38 L31,38 L31,33 C31,32.4477153 31.4477153,32 32,32 L37,32 L37,30 L32,30 Z" id="Stroke-9" fill="#F4877A" fill-rule="nonzero"></path>
                <mask id="mask-2" fill="white">
                    <use xlink:href="#path-1"></use>
                </mask>
                <g id="Clip-12"></g>
                <path d="M7,12 C6.44771525,12 6,11.5522847 6,11 L6,7 C6,6.44771525 6.44771525,6 7,6 L13,6 C13.5522847,6 14,6.44771525 14,7 L14,11 C14,11.5522847 13.5522847,12 13,12 L7,12 Z M8,10 L12,10 L12,8 L8,8 L8,10 Z" id="Stroke-11" fill="#4B5E69" fill-rule="nonzero" mask="url(#mask-2)"></path>
                <path d="M47,12 C46.4477153,12 46,11.5522847 46,11 L46,7 C46,6.44771525 46.4477153,6 47,6 L53,6 C53.5522847,6 54,6.44771525 54,7 L54,11 C54,11.5522847 53.5522847,12 53,12 L47,12 Z M48,10 L52,10 L52,8 L48,8 L48,10 Z" id="Stroke-13" fill="#4B5E69" fill-rule="nonzero" mask="url(#mask-2)"></path>
            </g>
        </g>
    </g>
</svg>