<?xml version="1.0" encoding="UTF-8"?>
<svg width="58px" height="58px" viewBox="0 0 58 58" version="1.1" xmlns="http://www.w3.org/2000/svg" xmlns:xlink="http://www.w3.org/1999/xlink">
    <!-- Generator: Sketch 49.3 (51167) - http://www.bohemiancoding.com/sketch -->
    <title>Icon/ Military</title>
    <desc>Created with Sketch.</desc>
    <defs></defs>
    <g id="Icon/-Military" stroke="none" stroke-width="1" fill="none" fill-rule="evenodd">
        <g id="Military" transform="translate(-2.000000, -1.000000)">
            <path d="M58.7622735,29.4475381 C58.4411809,30.5713619 57.889875,31.3839203 57.245678,31.9997663 C56.978195,32.2554774 56.8737899,32.6379979 56.9742734,32.9941418 C57.262807,34.0167926 57.34043,35.1712029 56.9752735,36.4475381 C56.7001187,37.4105795 56.2551876,38.1460237 55.7290116,38.7226 L48.9997,38.7226 C48.4474153,38.7226 47.9997,39.1703153 47.9997,39.7226 C47.9997,40.2748847 48.4474153,40.7226 48.9997,40.7226 L56.1487,40.7226 C56.405708,40.7226 56.6528493,40.6236475 56.8388398,40.446276 C57.7194841,39.6064421 58.4677416,38.5040094 58.8982239,36.9973211 C59.3143961,35.5426709 59.2966011,34.2208453 59.0402101,33.0199777 C59.7397446,32.2402339 60.3239206,31.2618829 60.6852239,29.9973211 C61.1684503,28.3082958 61.0667367,26.7915665 60.6856764,25.4494674 C60.5635608,25.0193747 60.1707928,24.7226 59.7237,24.7226 L48.9997,24.7226 C48.4474153,24.7226 47.9997,25.1703153 47.9997,25.7226 C47.9997,26.2748847 48.4474153,26.7226 48.9997,26.7226 L58.9249759,26.7226 C59.0621351,27.5532027 59.0431606,28.4657505 58.7622735,29.4475381 Z" id="Stroke-1" fill="#4B5E69" fill-rule="nonzero"></path>
            <path d="M45.9997,42.4131 C45.1397,44.2631 41.4697,50.8031 30.8597,54.5221 C20.3107,51.5531 16.7697,44.3921 15.9997,42.4921 L15.9997,21.9631 L30.9997,15.3731 L45.9997,21.9631 L45.9997,42.4131 Z M30.9997,11.0031 L11.9997,19.3431 L11.9997,43.1921 C11.9997,43.1921 15.5607,54.9331 30.9997,58.6921 C46.4387,53.7821 49.9997,43.1921 49.9997,43.1921 L49.9997,19.3431 L30.9997,11.0031 Z" id="Fill-3" fill="#D3E5EF"></path>
            <path d="M31.3029107,59.6481917 C31.1280929,59.7038372 30.9413363,59.7103187 30.7630814,59.666927 C24.9704472,58.2568532 20.371366,55.6655008 16.8420544,52.2326214 C14.8952565,50.3390163 13.3960898,48.3081377 12.2872474,46.2732535 C11.6151439,45.0398475 11.2193207,44.0669908 11.0426551,43.4845697 C11.0141079,43.3904568 10.9996,43.2926473 10.9996,43.1943 L10.9996,19.3463 C10.9996,18.9495389 11.2341666,18.5903032 11.5974267,18.4307365 L30.5974267,10.0847365 C30.8537239,9.97215452 31.1454761,9.97215452 31.4017733,10.0847365 L50.4017733,18.4307365 C50.7650334,18.5903032 50.9996,18.9495389 50.9996,19.3463 L50.9996,43.1943 C50.9996,43.3027225 50.9819676,43.4104233 50.9473933,43.5131854 C50.7351803,44.1439262 50.2541967,45.195119 49.430447,46.5258097 C48.0743444,48.7164668 46.2282371,50.9009241 43.8196345,52.9348444 C40.4899398,55.7465716 36.3449937,58.0432691 31.3029107,59.6481917 Z M42.5292769,51.4067811 C44.7713595,49.513477 46.4812568,47.490194 47.7299103,45.4731108 C48.1632741,44.7730521 48.5075053,44.126109 48.7712717,43.5496457 C48.8754559,43.3219505 48.9506603,43.1426169 48.9996,43.0171093 L48.9996,19.9992603 L30.9996,12.0925235 L12.9996,19.9992603 L12.9996,43.0344031 C13.0404743,43.1516987 13.1032092,43.3194801 13.1899046,43.5325605 C13.4075506,44.067492 13.689889,44.667469 14.0434355,45.3162773 C15.0601487,47.1820912 16.4404238,49.0519108 18.2365462,50.7989573 C21.4586995,53.933071 25.6530311,56.3184394 30.9639065,57.6562593 C35.6329632,56.1363089 39.4582692,54.0000627 42.5292769,51.4067811 Z" id="Stroke-5" fill="#4B5E69" fill-rule="nonzero"></path>
            <path d="M30.9997,7.09194464 L49.5974863,15.2622458 C50.1031283,15.4843823 50.6931093,15.2545557 50.9152458,14.7489137 C51.1373823,14.2432717 50.9075557,13.6532907 50.4019137,13.4311542 L31.4019137,5.0841542 C31.1455933,4.9715486 30.8538067,4.9715486 30.5974863,5.0841542 L11.5974863,13.4311542 C11.0918443,13.6532907 10.8620177,14.2432717 11.0841542,14.7489137 C11.3062907,15.2545557 11.8962717,15.4843823 12.4019137,15.2622458 L30.9997,7.09194464 Z" id="Stroke-7" fill="#4B5E69" fill-rule="nonzero"></path>
            <path d="M49.5974863,10.2622458 C50.1031283,10.4843823 50.6931093,10.2545557 50.9152458,9.74891373 C51.1373823,9.24327174 50.9075557,8.6532907 50.4019137,8.4311542 L31.4019137,0.0841541969 C31.1455933,-0.028451399 30.8538067,-0.028451399 30.5974863,0.0841541969 L11.5974863,8.4311542 C11.0918443,8.6532907 10.8620177,9.24327174 11.0841542,9.74891373 C11.3062907,10.2545557 11.8962717,10.4843823 12.4019137,10.2622458 L30.9997,2.09194464 L49.5974863,10.2622458 Z" id="Stroke-9" fill="#4B5E69" fill-rule="nonzero"></path>
            <polygon id="Fill-11" fill="#5BBF89" points="30.9996 21.7226 33.6056 29.7436 42.0396 29.7436 35.2166 34.7016 37.8226 42.7226 30.9996 37.7656 24.1766 42.7226 26.7826 34.7016 19.9596 29.7436 28.3936 29.7436"></polygon>
            <path d="M50.7868,33.7226 L57.9358,33.7226 C58.4880847,33.7226 58.9358,33.2748847 58.9358,32.7226 C58.9358,32.1703153 58.4880847,31.7226 57.9358,31.7226 L50.7868,31.7226 C50.2345153,31.7226 49.7868,32.1703153 49.7868,32.7226 C49.7868,33.2748847 50.2345153,33.7226 50.7868,33.7226 Z" id="Stroke-13" fill="#4B5E69" fill-rule="nonzero"></path>
            <path d="M3.09788118,36.9966382 C3.53292097,38.505411 4.28584619,39.6152785 5.16038623,40.4471581 C5.34628311,40.6239868 5.59303412,40.7226 5.8496,40.7226 L11.9996,40.7226 C12.5518847,40.7226 12.9996,40.2748847 12.9996,39.7226 C12.9996,39.1703153 12.5518847,38.7226 11.9996,38.7226 L6.26905068,38.7226 C5.74643921,38.1494807 5.29827117,37.4090384 5.02045377,36.445544 C4.65744296,35.1715635 4.73527325,33.9977986 5.02112395,32.9973211 C5.12335653,32.6395071 5.01844516,32.2545206 4.74881377,31.9980419 C4.11221066,31.3924926 3.55887464,30.5738022 3.24201011,29.4509996 C2.95620255,28.4664737 2.93709507,27.5555807 3.07659658,26.7226 L11.9996,26.7226 C12.5518847,26.7226 12.9996,26.2748847 12.9996,25.7226 C12.9996,25.1703153 12.5518847,24.7226 11.9996,24.7226 L2.2796,24.7226 C1.83311964,24.7226 1.44073364,25.0185773 1.31807605,25.4478789 C0.932086831,26.7988411 0.828990709,28.3127263 1.31925377,30.0014102 C1.67424826,31.2594122 2.25906019,32.2432763 2.95536676,33.0199196 C2.70148049,34.2100913 2.68451556,35.5459588 3.09788118,36.9966382 Z" id="Stroke-15" fill="#4B5E69" fill-rule="nonzero"></path>
            <path d="M11.2125,31.7226 L4.0635,31.7226 C3.51121525,31.7226 3.0635,32.1703153 3.0635,32.7226 C3.0635,33.2748847 3.51121525,33.7226 4.0635,33.7226 L11.2125,33.7226 C11.7647847,33.7226 12.2125,33.2748847 12.2125,32.7226 C12.2125,32.1703153 11.7647847,31.7226 11.2125,31.7226 Z" id="Stroke-17" fill="#4B5E69" fill-rule="nonzero"></path>
        </g>
    </g>
</svg>