<?xml version="1.0" encoding="UTF-8"?>
<svg width="41px" height="59px" viewBox="0 0 41 59" version="1.1" xmlns="http://www.w3.org/2000/svg" xmlns:xlink="http://www.w3.org/1999/xlink">
    <!-- Generator: Sketch 49.3 (51167) - http://www.bohemiancoding.com/sketch -->
    <title>Icon/ Misc Income</title>
    <desc>Created with Sketch.</desc>
    <defs></defs>
    <g id="Icon/-Misc-Income" stroke="none" stroke-width="1" fill="none" fill-rule="evenodd">
        <g id="Misc-Income">
            <path d="M41,52.6748 C41,55.6138 31.818,58.9998 20.5,58.9998 C9.182,58.9998 0,55.6138 0,52.6748 C0,51.2578 2.146,50.9588 5.645,49.9998 C5.902,50.2878 6.169,50.5648 6.445,50.8308 C9.754,53.9838 14.665,55.7408 20.5,55.7938 C26.335,55.7408 31.246,53.9838 34.555,50.8308 C34.831,50.5648 35.098,50.2878 35.355,49.9998 C38.854,50.9588 41,51.2578 41,52.6748" id="Fill-1" fill="#D3E5EF"></path>
            <path d="M26.5,42.666 C26.5,40.457 25.072,39.159 21.868,38.458 C19.073,37.857 18.857,37.269 18.857,36.503 C18.857,35.628 19.737,35.018 20.996,35.018 C22.211,35.018 23.267,35.418 24.318,36.278 L24.789,36.666 L26.341,34.604 L25.898,34.246 C24.76,33.33 23.638,32.818 22.312,32.627 L22.312,30.846 C22.312,30.38 21.934,30 21.468,30 L20.625,30 C20.159,30 19.781,30.38 19.781,30.846 L19.781,32.68 C17.676,33.121 16.241,34.655 16.241,36.667 C16.241,39.517 18.529,40.408 21.004,40.948 C23.666,41.512 23.865,42.067 23.865,42.849 C23.865,43.788 22.934,44.444 21.6,44.444 C20.064,44.444 18.907,43.961 17.604,42.78 L17.155,42.372 L15.5,44.337 L15.926,44.718 C17.123,45.792 18.379,46.449 19.781,46.742 L19.781,48.615 C19.781,49.082 20.159,49.461 20.625,49.461 L21.468,49.461 C21.934,49.461 22.312,49.082 22.312,48.615 L22.312,46.865 C24.809,46.582 26.5,44.944 26.5,42.666" id="Fill-3" fill="#5BBF89"></path>
            <path d="M27.9541,18.6958 C27.9541,17.7558537 28.7029269,16.5849714 31.4456758,12.9709637 C31.7639789,12.5515487 32.0066685,12.2287492 32.2396452,11.9135791 C34.3461767,9.06387041 35.3441,7.200665 35.3441,5.4528 L35.3441,2.9378 C35.3441,0.757626262 33.5416463,-1.0002 31.3311,-1.0002 L13.7821,-1.0002 C12.1332467,-1.0002 10.7851,0.313916716 10.7851,1.9468 C10.7851,3.58044698 12.133011,4.8948 13.7821,4.8948 L18.9741,4.8948 L18.9741,2.8948 L13.7821,2.8948 C13.2264529,2.8948 12.7851,2.46443518 12.7851,1.9468 C12.7851,1.43009165 13.2265344,0.9998 13.7821,0.9998 L31.3311,0.9998 C32.4481433,0.9998 33.3441,1.87357346 33.3441,2.9378 L33.3441,5.4528 C33.3441,6.60775782 32.4746174,8.23115394 30.6313536,10.7247148 C30.4042508,11.0319388 30.1661743,11.3486025 29.8525242,11.7618863 C26.6568802,15.9726554 25.9541,17.071538 25.9541,18.6958 L27.9541,18.6958 Z" id="Stroke-5" fill="#4B5E69" fill-rule="nonzero"></path>
            <path d="M20.5039936,54.9929587 C20.5020043,54.9929771 20.4782574,55.6588104 20.432753,56.9904587 C20.5857422,56.9991137 20.6686224,57 20.814,57 L20.814,55 L20.186,55 L20.186,57 C20.3725737,56.9991731 20.4374601,56.9976955 20.5009944,56.994704 C20.5331155,56.9929953 20.5370996,56.325774 20.5129466,54.99304 C14.9305288,54.9415616 10.2663892,53.4683314 7.16561549,50.8258838 C2.94348542,47.2494168 1.80641173,41.7344155 4.32335518,35.0210541 C5.34928695,32.2824155 7.16204482,29.7808536 9.5434232,27.5395318 C10.9103858,26.2529647 12.3782921,25.1331088 13.8455352,24.1881589 C14.3580169,23.8581049 14.8328386,23.5740121 15.2572716,23.3366992 C15.507613,23.196726 15.6824105,23.1049278 15.7689512,23.062051 L14.8810488,21.269949 C14.7654974,21.3271993 14.5613724,21.4343994 14.2812222,21.5910396 C13.8215025,21.8480823 13.3111254,22.1534483 12.7626239,22.5067003 C11.1984863,23.5140533 9.63501192,24.7068174 8.17268586,26.0831393 C5.58415973,28.5194258 3.5948199,31.2646665 2.45055197,34.3191937 C-0.349486469,41.787645 0.972858584,48.201244 5.87064821,52.3500396 C9.35366509,55.3182367 14.4622874,56.9339069 20.4658986,56.9926868 C20.4723759,56.9927503 20.4850764,56.6595213 20.504,55.993 L20.438719,54.9951331 C20.3965487,54.9978919 20.348772,54.9992941 20.2844173,54.9997678 C20.2532855,54.9999211 20.2204797,55.6666652 20.186,57 L20.814,57 L20.814,55 C20.6795136,55 20.6247733,54.9990789 20.575247,54.9955413 L20.504,55.993 L20.512959,56.9929599 C26.5371486,56.9344207 31.6464177,55.3181662 35.1316155,52.3481162 C40.0271414,48.201244 41.3494865,41.787645 38.5493552,34.3189459 C37.4501245,31.3846419 35.6768283,28.7282369 33.4193418,26.353589 C32.0454485,24.9083919 30.5756849,23.6547922 29.1048223,22.595363 C28.5886072,22.223545 28.1081031,21.9019634 27.6750976,21.6311061 C27.4107703,21.4657619 27.2177791,21.3523547 27.107915,21.2914387 L26.138085,23.0405613 C26.2179578,23.0848481 26.3807233,23.1804938 26.6144555,23.3266999 C27.0115491,23.5750932 27.4560125,23.8725543 27.9359163,24.2182182 C29.3111077,25.2087375 30.6873981,26.3826115 31.9698219,27.7315919 C34.0536205,29.9235377 35.6793736,32.3589225 36.676552,35.0208063 C39.1935883,41.7344155 38.0565146,47.2494168 33.8366482,50.8239604 C30.7341796,53.4678467 26.0705143,54.9415527 20.5039936,54.9929587 Z" id="Stroke-7" fill="#4B5E69" fill-rule="nonzero"></path>
            <path d="M17.4746,21.3872 L17.1016,21.4802 C17.1866,21.4102 17.3196,21.3792 17.4746,21.3872" id="Fill-9" fill="#4B5E69"></path>
            <path d="M15.7793,2.895 L8.5313,2.895 C6.6942689,2.895 5.1943,4.35729237 5.1943,6.174 L5.1943,6.392 C5.1943,7.51376384 5.55414255,8.60767241 6.22154855,9.51889093 L14.4135815,19.3367872 L15.9490185,18.0552128 L7.79601855,8.2872128 C7.41805759,7.76778165 7.1943,7.08756653 7.1943,6.392 L7.1943,6.174 C7.1943,5.47340887 7.78761179,4.895 8.5313,4.895 L15.7793,4.895 L15.7793,2.895 Z" id="Stroke-11" fill="#4B5E69" fill-rule="nonzero"></path>
            <path d="M7.2041,9 L16.6461,9 C17.0156704,9 17.3941,9.44819925 17.3941,10.07 C17.3941,10.3532621 17.2988176,10.6230114 17.1488322,10.8059204 C17.0433121,10.9264629 16.8952009,11 16.7651,11 L14.1721,11 L14.1721,13 L16.7651,13 C17.4998966,13 18.1867313,12.6589872 18.6763233,12.096618 C19.1403216,11.531453 19.3941,10.8129936 19.3941,10.07 C19.3941,8.41152835 18.2022996,7 16.6461,7 L7.2041,7 L7.2041,9 Z" id="Stroke-13" fill="#4B5E69" fill-rule="nonzero"></path>
            <path d="M15.3984,13 L25.1904,13 C27.0675614,13 28.5884,11.4774088 28.5884,9.6 C28.5884,7.72187225 27.067842,6.2 25.1904,6.2 L24.3914,6.2 C24.0600691,6.2 23.7924,5.93209957 23.7924,5.6 C23.7924,5.26790043 24.0600691,5 24.3914,5 L34.7844,5 L34.7844,3 L24.3914,3 C22.9551126,3 21.7924,4.16371754 21.7924,5.6 C21.7924,7.03628246 22.9551126,8.2 24.3914,8.2 L25.1904,8.2 C25.9628855,8.2 26.5884,8.82605514 26.5884,9.6 C26.5884,10.3733546 25.962476,11 25.1904,11 L15.3984,11 L15.3984,13 Z" id="Stroke-15" fill="#4B5E69" fill-rule="nonzero"></path>
            <path d="M27,23 C25.654,23.461 23.577,24 21,24 C19.577,24 17.437,23.836 15,23 L15,18 C16.346,18.461 18.423,19 21,19 C22.423,19 24.562,18.836 27,18 L27,23 Z" id="Fill-17" fill="#D3E5EF"></path>
            <path d="M26,19.3494001 C24.2782769,19.808578 22.6128356,20 21,20 C19.2034719,20 17.5458932,19.7614222 16,19.3491868 L16,22.271073 C17.7271064,22.7882032 19.3928403,23 21,23 C22.8123603,23 24.4676004,22.729336 26,22.2708226 L26,19.3494001 Z M27.3240188,23.9460506 C25.4086176,24.6020684 23.3201879,25 21,25 C18.9766031,25 16.8703179,24.6988064 14.6755169,23.9458915 L14,23.714159 L14,16.6004778 L15.3240188,17.0539494 C17.0433048,17.6427984 18.9179748,18 21,18 C22.8153246,18 24.7052942,17.7297058 26.675636,17.0540677 L28,16.5999379 L28,23.7145296 L27.3240188,23.9460506 Z" id="Stroke-19" fill="#4B5E69" fill-rule="nonzero"></path>
        </g>
    </g>
</svg>