<?xml version="1.0" encoding="UTF-8"?>
<svg width="30px" height="48px" viewBox="0 0 30 48" version="1.1" xmlns="http://www.w3.org/2000/svg" xmlns:xlink="http://www.w3.org/1999/xlink">
    <!-- Generator: Sketch 49.3 (51167) - http://www.bohemiancoding.com/sketch -->
    <title>Icon/ Mobile</title>
    <desc>Created with Sketch.</desc>
    <defs></defs>
    <g id="Icon/-Mobile" stroke="none" stroke-width="1" fill="none" fill-rule="evenodd">
        <g id="Page-1">
            <polygon id="Fill-1" fill="#D3E5EF" points="4 39 26 39 26 9 4 9"></polygon>
            <g id="Group-12" fill="#4F5661">
                <path d="M3,2 C2.448,2 2,2.448 2,3 L2,45 C2,45.552 2.448,46 3,46 L27,46 C27.552,46 28,45.552 28,45 L28,3 C28,2.448 27.552,2 27,2 L3,2 Z M27,48 L3,48 C1.346,48 0,46.654 0,45 L0,3 C0,1.346 1.346,0 3,0 L27,0 C28.654,0 30,1.346 30,3 L30,45 C30,46.654 28.654,48 27,48 Z" id="Fill-2"></path>
                <path d="M26,10 L4,10 C3.447,10 3,9.553 3,9 C3,8.447 3.447,8 4,8 L26,8 C26.553,8 27,8.447 27,9 C27,9.553 26.553,10 26,10" id="Fill-4"></path>
                <path d="M26,40 L4,40 C3.447,40 3,39.553 3,39 C3,38.447 3.447,38 4,38 L26,38 C26.553,38 27,38.447 27,39 C27,39.553 26.553,40 26,40" id="Fill-6"></path>
                <path d="M17,44 L13,44 C12.447,44 12,43.553 12,43 C12,42.447 12.447,42 13,42 L17,42 C17.553,42 18,42.447 18,43 C18,43.553 17.553,44 17,44" id="Fill-8"></path>
                <path d="M15,4.5 C14.725,4.5 14.5,4.725 14.5,5 C14.5,5.275 14.725,5.5 15,5.5 C15.275,5.5 15.5,5.275 15.5,5 C15.5,4.725 15.275,4.5 15,4.5 M15,6.5 C14.173,6.5 13.5,5.827 13.5,5 C13.5,4.173 14.173,3.5 15,3.5 C15.827,3.5 16.5,4.173 16.5,5 C16.5,5.827 15.827,6.5 15,6.5" id="Fill-10"></path>
            </g>
        </g>
    </g>
</svg>