<?xml version="1.0" encoding="UTF-8"?>
<svg width="59px" height="58px" viewBox="0 0 59 58" version="1.1" xmlns="http://www.w3.org/2000/svg" xmlns:xlink="http://www.w3.org/1999/xlink">
    <!-- Generator: Sketch 49.3 (51167) - http://www.bohemiancoding.com/sketch -->
    <title>Icon/ Money Finder</title>
    <desc>Created with Sketch.</desc>
    <defs></defs>
    <g id="Icon/-Money-Finder" stroke="none" stroke-width="1" fill="none" fill-rule="evenodd">
        <g id="Money-Finder" transform="translate(-1.000000, -1.000000)">
            <path d="M18.04,52.25 L15.04,55.26 L13.65,56.65 C11.56,55.38 9.63,53.87 7.88,52.12 C6.13,50.37 4.62,48.45 3.36,46.36 L7.76,41.96 C8.91,44.14 10.37,46.12 12.12,47.88 C13.88,49.64 15.86,51.1 18.04,52.25" id="Fill-1" fill="#D3E5EF"></path>
            <path d="M24.2484932,30.2928932 L20.0894932,34.4518932 C19.6989689,34.8424175 19.6989689,35.4755825 20.0894932,35.8661068 C20.4800175,36.2566311 21.1131825,36.2566311 21.5037068,35.8661068 L25.6627068,31.7071068 C26.0532311,31.3165825 26.0532311,30.6834175 25.6627068,30.2928932 C25.2721825,29.9023689 24.6390175,29.9023689 24.2484932,30.2928932 Z" id="Stroke-3" fill="#4B5E69" fill-rule="nonzero"></path>
            <path d="M28.2928932,34.3372932 L24.1338932,38.4962932 C23.7433689,38.8868175 23.7433689,39.5199825 24.1338932,39.9105068 C24.5244175,40.3010311 25.1575825,40.3010311 25.5481068,39.9105068 L29.7071068,35.7515068 C30.0976311,35.3609825 30.0976311,34.7278175 29.7071068,34.3372932 C29.3165825,33.9467689 28.6834175,33.9467689 28.2928932,34.3372932 Z" id="Stroke-5" fill="#4B5E69" fill-rule="nonzero"></path>
            <path d="M17.6799999,33.4540135 L4.0656039,47.0684065 L2.12517484,49.0006134 C3.44265913,53.2055798 6.79655684,56.5588591 11.001888,57.8754712 L12.9428932,55.9426932 L14.3317176,54.5538707 L17.3325371,51.5430495 L26.5461426,42.3201561 L17.6799999,33.4540135 Z M28.6674629,43.0265505 L18.7482824,52.9557293 L15.7471068,55.9669068 L14.3556039,57.3584065 L11.9956039,59.7084065 C11.7433151,59.9596263 11.3764829,60.0577611 11.0324579,59.9660671 C5.69633118,58.5438129 1.45598714,54.3034688 0.0337329284,48.9673421 C-0.0583517532,48.6218515 0.0410324921,48.2534836 0.294396097,48.0011935 L2.65289322,45.6526932 L16.9728932,31.3326932 C17.3634175,30.9421689 17.9965825,30.9421689 18.3871068,31.3326932 L28.6671068,41.6126932 C29.057492,42.0030784 29.0576514,42.6359687 28.6674629,43.0265505 Z" id="Stroke-7" fill="#4B5E69" fill-rule="nonzero"></path>
            <path d="M40.5,0 C51.2542847,0 60,8.74571525 60,19.5 C60,30.2536216 51.2539479,39 40.5,39 C29.7460521,39 21,30.2536216 21,19.5 C21,8.74571525 29.7457153,0 40.5,0 Z M40.5,2 C30.8502847,2 23,9.85028475 23,19.5 C23,29.1490688 30.8506383,37 40.5,37 C50.1493617,37 58,29.1490688 58,19.5 C58,9.85028475 50.1497153,2 40.5,2 Z" id="Stroke-9" fill="#4B5E69" fill-rule="nonzero"></path>
            <path d="M46.4346,22.5801 C46.4346,19.6151 43.5426,18.2821 41.0386,17.3861 C38.9476,16.6271 37.9926,15.8921 37.9926,14.8121 C37.9926,14.0771 38.7926,13.2031 40.2646,13.2031 C41.6836,13.2031 43.6466,14.3521 43.8526,14.4671 C44.1636,14.6511 44.5496,14.4671 44.7566,14.1911 L45.7376,12.8811 C45.9176,12.6521 45.8496,12.2611 45.5916,12.1231 C45.1746,11.8451 43.6956,11.0201 41.8696,10.7101 L41.8696,8.4781 C41.8696,8.2141 41.6476,8.0001 41.3946,8.0001 L39.5686,8.0001 C39.3166,8.0001 39.1306,8.2141 39.1306,8.4781 L39.1306,10.6751 C36.3916,11.1221 34.6196,13.1841 34.6196,14.9961 C34.6196,17.7081 37.0416,19.0871 39.4686,19.9601 C41.6376,20.7421 42.7456,21.5461 42.7456,22.7181 C42.7456,23.7061 41.7366,24.4881 40.3946,24.4881 C38.7166,24.4881 36.6246,23.1311 36.4956,23.0631 C36.2636,22.9021 35.8236,22.9021 35.6176,23.2241 L34.6876,24.6481 C34.4556,25.0161 34.5846,25.1311 34.8166,25.3381 C35.2556,25.7091 36.7106,26.7361 39.1306,27.0391 L39.1306,29.5221 C39.1306,29.7861 39.3346,30.0001 39.5866,30.0001 L41.4136,30.0001 C41.6646,30.0001 41.8696,29.7861 41.8696,29.5221 L41.8696,27.0171 C44.7046,26.5461 46.4346,24.6341 46.4346,22.5801" id="Fill-11" fill="#5BBF89"></path>
            <path d="M17.6382,2.4404 L18.3212,4.2834 C18.3902,4.4654 18.5342,4.6094 18.7162,4.6794 L20.5592,5.3614 C20.9112,5.4954 21.0892,5.8894 20.9552,6.2424 C20.8862,6.4244 20.7422,6.5684 20.5592,6.6384 L18.7162,7.3204 C18.5342,7.3904 18.3902,7.5344 18.3212,7.7164 L17.6382,9.5594 C17.5042,9.9114 17.1102,10.0894 16.7582,9.9554 C16.5752,9.8864 16.4312,9.7424 16.3622,9.5594 L15.6792,7.7164 C15.6102,7.5344 15.4662,7.3904 15.2842,7.3204 L13.4402,6.6384 C13.0882,6.5044 12.9102,6.1104 13.0442,5.7574 C13.1142,5.5754 13.2582,5.4314 13.4402,5.3614 L15.2842,4.6794 C15.4662,4.6094 15.6102,4.4654 15.6792,4.2834 L16.3622,2.4404 C16.4952,2.0884 16.8892,1.9104 17.2422,2.0444 C17.4252,2.1134 17.5692,2.2574 17.6382,2.4404" id="Fill-13" fill="#D3E5EF"></path>
            <path d="M56.6382,38.4404 L57.3212,40.2834 C57.3902,40.4654 57.5342,40.6094 57.7162,40.6794 L59.5592,41.3614 C59.9112,41.4954 60.0892,41.8894 59.9552,42.2424 C59.8862,42.4244 59.7422,42.5684 59.5592,42.6384 L57.7162,43.3204 C57.5342,43.3904 57.3902,43.5344 57.3212,43.7164 L56.6382,45.5594 C56.5042,45.9114 56.1102,46.0894 55.7582,45.9554 C55.5752,45.8864 55.4312,45.7424 55.3622,45.5594 L54.6792,43.7164 C54.6102,43.5344 54.4662,43.3904 54.2842,43.3204 L52.4402,42.6384 C52.0882,42.5044 51.9102,42.1104 52.0442,41.7574 C52.1142,41.5754 52.2582,41.4314 52.4402,41.3614 L54.2842,40.6794 C54.4662,40.6094 54.6102,40.4654 54.6792,40.2834 L55.3622,38.4404 C55.4952,38.0884 55.8892,37.9104 56.2422,38.0444 C56.4252,38.1134 56.5692,38.2574 56.6382,38.4404" id="Fill-15" fill="#D3E5EF"></path>
            <path d="M13.2178,17.4956 L13.9858,19.5686 C14.0638,19.7746 14.2258,19.9366 14.4308,20.0146 L16.5048,20.7826 C16.9008,20.9326 17.0998,21.3756 16.9498,21.7726 C16.8718,21.9776 16.7098,22.1406 16.5048,22.2176 L14.4308,22.9856 C14.2258,23.0636 14.0638,23.2256 13.9858,23.4316 L13.2178,25.5046 C13.0678,25.9006 12.6238,26.0996 12.2278,25.9496 C12.0218,25.8716 11.8598,25.7096 11.7818,25.5046 L11.0138,23.4316 C10.9368,23.2256 10.7748,23.0636 10.5688,22.9856 L8.4958,22.2176 C8.0988,22.0676 7.8998,21.6236 8.0508,21.2276 C8.1278,21.0226 8.2898,20.8596 8.4958,20.7826 L10.5688,20.0146 C10.7748,19.9366 10.9368,19.7746 11.0138,19.5686 L11.7818,17.4956 C11.9328,17.0996 12.3758,16.8996 12.7728,17.0506 C12.9778,17.1276 13.1398,17.2896 13.2178,17.4956" id="Fill-17" fill="#D3E5EF"></path>
            <path d="M41.2178,42.4956 L41.9858,44.5686 C42.0638,44.7746 42.2258,44.9366 42.4308,45.0146 L44.5048,45.7826 C44.9008,45.9326 45.0998,46.3756 44.9498,46.7726 C44.8718,46.9776 44.7098,47.1406 44.5048,47.2176 L42.4308,47.9856 C42.2258,48.0636 42.0638,48.2256 41.9858,48.4316 L41.2178,50.5046 C41.0678,50.9006 40.6238,51.0996 40.2278,50.9496 C40.0218,50.8716 39.8598,50.7096 39.7818,50.5046 L39.0138,48.4316 C38.9368,48.2256 38.7748,48.0636 38.5688,47.9856 L36.4958,47.2176 C36.0988,47.0676 35.8998,46.6236 36.0508,46.2276 C36.1278,46.0226 36.2898,45.8596 36.4958,45.7826 L38.5688,45.0146 C38.7748,44.9366 38.9368,44.7746 39.0138,44.5686 L39.7818,42.4956 C39.9328,42.0996 40.3758,41.8996 40.7728,42.0506 C40.9778,42.1276 41.1398,42.2896 41.2178,42.4956" id="Fill-19" fill="#D3E5EF"></path>
        </g>
    </g>
</svg>