<?xml version="1.0" encoding="UTF-8"?>
<svg width="60px" height="55px" viewBox="0 0 60 55" version="1.1" xmlns="http://www.w3.org/2000/svg" xmlns:xlink="http://www.w3.org/1999/xlink">
    <!-- Generator: Sketch 49.3 (51167) - http://www.bohemiancoding.com/sketch -->
    <title>Icon/ Monitor</title>
    <desc>Created with Sketch.</desc>
    <defs></defs>
    <g id="Icon/-Monitor" stroke="none" stroke-width="1" fill="none" fill-rule="evenodd">
        <g id="Page-1">
            <path d="M30,39.999 L30,40 L30,39.999 Z M30,42 C28.897,42 28,41.103 28,40 C28,38.897 28.897,38 30,38 C31.103,38 32,38.897 32,40 C32,41.103 31.103,42 30,42 Z" id="Fill-1" fill="#4F5661"></path>
            <path d="M55,4 L5,4 C4.447,4 4,4.447 4,5 L4,36 C4,36.553 4.447,37 5,37 L55,37 C55.553,37 56,36.553 56,36 L56,5 C56,4.447 55.553,4 55,4" id="Fill-3" fill="#D3E5EF"></path>
            <path d="M56,37 L4,37 C3.447,37 3,36.553 3,36 C3,35.447 3.447,35 4,35 L56,35 C56.553,35 57,35.447 57,36 C57,36.553 56.553,37 56,37" id="Fill-5" fill="#4F5661"></path>
            <path d="M58,41 C58,42.103 57.103,43 56,43 L4,43 C2.897,43 2,42.103 2,41 L2,4 C2,2.897 2.897,2 4,2 L56,2 C57.103,2 58,2.897 58,4 L58,41 Z M37.823,53 L22.177,53 C24.357,50.968 25.709,48.13 25.95,45 L34.05,45 C34.291,48.13 35.643,50.968 37.823,53 Z M56,0 L4,0 C1.794,0 0,1.794 0,4 L0,41 C0,43.206 1.794,45 4,45 L23.934,45 C23.617,48.447 21.697,51.437 18.73,53 L17,53 C16.447,53 16,53.447 16,54 C16,54.553 16.447,55 17,55 L19,55 L41,55 L43,55 C43.553,55 44,54.553 44,54 C44,53.447 43.553,53 43,53 L41.27,53 C38.303,51.437 36.383,48.447 36.066,45 L56,45 C58.206,45 60,43.206 60,41 L60,4 C60,1.794 58.206,0 56,0 Z" id="Fill-7" fill="#4F5661"></path>
        </g>
    </g>
</svg>