<?xml version="1.0" encoding="UTF-8"?>
<svg width="56px" height="60px" viewBox="0 0 56 60" version="1.1" xmlns="http://www.w3.org/2000/svg" xmlns:xlink="http://www.w3.org/1999/xlink">
    <!-- Generator: Sketch 49.3 (51167) - http://www.bohemiancoding.com/sketch -->
    <title>Icon/ Moved</title>
    <desc>Created with Sketch.</desc>
    <defs>
        <polygon id="path-1" points="0 60 56 60 56 0 0 0"></polygon>
    </defs>
    <g id="Icon/-Moved" stroke="none" stroke-width="1" fill="none" fill-rule="evenodd">
        <g id="Moved">
            <path d="M45,20 L11,20 C10.448,20 10,19.552 10,19 L10,13 C10,12.448 10.448,12 11,12 L45,12 C45.552,12 46,12.448 46,13 L46,19 C46,19.552 45.552,20 45,20 Z" id="Fill-1" fill="#F4877A"></path>
            <path d="M25,10 L17,10 C16.448,10 16,9.552 16,9 L16,2 C16,1.448 16.448,1 17,1 L25,1 C25.552,1 26,1.448 26,2 L26,9 C26,9.552 25.552,10 25,10" id="Fill-3" fill="#F4877A"></path>
            <path d="M40,10 L29,10 C28.448,10 28,9.552 28,9 L28,4 C28,3.448 28.448,3 29,3 L40,3 C40.552,3 41,3.448 41,4 L41,9 C41,9.552 40.552,10 40,10" id="Fill-5" fill="#F4877A"></path>
            <path d="M49.034775,31 L51.4351,31 C53.9476863,31 56.0001,33.0520167 56.0001,35.565 C56.0001,37.8675109 54.2452428,39.7603465 52.0001,39.9789353 L52.0001,48 C52.0001,50.7612847 49.7613847,53 47.0001,53 L9.0001,53 C6.23881525,53 4.0001,50.7612847 4.0001,48 L4.0001,39.9849667 C1.75970047,39.7996189 0.0001,37.9233629 0.0001,35.635 C0.0001,33.0517153 2.05181525,31 4.5651,31 L6.96542503,31 L11.6211186,22.5230975 C12.5042215,20.3224886 14.6349859,19 17.1921,19 L38.8081,19 C41.3652141,19 43.4959785,20.3224886 44.3790814,22.5230975 L49.034775,31 Z M51.4351,33 L48.4431,33 C48.0781944,33 47.7422595,32.8012357 47.566596,32.4813945 L42.595596,23.4303945 L42.5395483,23.3100365 C41.9828632,21.8721274 40.5940553,21 38.8081,21 L17.1921,21 C15.4061447,21 14.0173368,21.8721274 13.4606517,23.3100365 L13.404604,23.4303945 L8.43360404,32.4813945 C8.25794051,32.8012357 7.92200556,33 7.5571,33 L4.5651,33 C3.15638475,33 2.0001,34.1562847 2.0001,35.565 C2.0001,36.9417153 3.05838475,38 4.3651,38 L5.0001,38 C5.55238475,38 6.0001,38.4477153 6.0001,39 L6.0001,48 C6.0001,49.6567153 7.34338475,51 9.0001,51 L47.0001,51 C48.6568153,51 50.0001,49.6567153 50.0001,48 L50.0001,39 C50.0001,38.4477153 50.4478153,38 51.0001,38 L51.5651,38 C52.9098153,38 54.0001,36.9097153 54.0001,35.565 C54.0001,34.1566728 52.8432034,33 51.4351,33 Z" id="Stroke-7" fill="#4B5E69" fill-rule="nonzero"></path>
            <path d="M12.9704165,33.6846433 C12.7247442,34.3179865 13.1918354,35 13.8711,35 L42.1291,35 C42.8083646,35 43.2754558,34.3179865 43.0592662,33.7529897 L38.892191,25.003404 C38.8749509,25.0019703 31.6415872,25.0008357 17.1921,25 C17.1353483,25.0037271 15.7281205,27.8986083 12.9704165,33.6846433 Z M13.8711,37 C11.7859654,37 10.3516001,34.9056413 11.1352662,32.8930103 L15.2947894,24.159539 C15.2999805,24.1483371 15.3046751,24.1367387 15.3151223,24.1073044 C15.629132,23.2577575 16.3546717,23 17.1921,23 L38.8081,23 C39.6450191,23 40.3701458,23.2579681 40.6833219,24.1052663 C40.6920141,24.1286268 40.6992518,24.1462489 40.7009338,24.1500103 L44.8944165,32.9613567 C45.6485999,34.9056413 44.2142346,37 42.1291,37 L13.8711,37 Z" id="Stroke-9" fill="#4B5E69" fill-rule="nonzero"></path>
            <path d="M18,44 C18,46.209 16.209,48 14,48 C11.791,48 10,46.209 10,44 C10,41.791 11.791,40 14,40 C16.209,40 18,41.791 18,44" id="Fill-11" fill="#D3E5EF"></path>
            <path d="M32,47 L24,47 C22.343,47 21,45.657 21,44 C21,42.343 22.343,41 24,41 L32,41 C33.657,41 35,42.343 35,44 C35,45.657 33.657,47 32,47" id="Fill-13" fill="#D3E5EF"></path>
            <path d="M46,44 C46,46.209 44.209,48 42,48 C39.791,48 38,46.209 38,44 C38,41.791 39.791,40 42,40 C44.209,40 46,41.791 46,44" id="Fill-15" fill="#D3E5EF"></path>
            <path d="M9.0002,56.764 C9.0002,57.4467153 9.55348475,58 10.2362,58 L15.7642,58 C16.4469153,58 17.0002,57.4467153 17.0002,56.764 L17.0002,53 L9.0002,53 L9.0002,56.764 Z M15.7642,60 L10.2362,60 C8.44891525,60 7.0002,58.5512847 7.0002,56.764 L7.0002,52 C7.0002,51.4477153 7.44791525,51 8.0002,51 L18.0002,51 C18.5524847,51 19.0002,51.4477153 19.0002,52 L19.0002,56.764 C19.0002,58.5512847 17.5514847,60 15.7642,60 Z" id="Stroke-17" fill="#4B5E69" fill-rule="nonzero"></path>
            <path d="M39.0002,56.764 C39.0002,57.4467153 39.5534847,58 40.2362,58 L45.7642,58 C46.4469153,58 47.0002,57.4467153 47.0002,56.764 L47.0002,53 L39.0002,53 L39.0002,56.764 Z M45.7642,60 L40.2362,60 C38.4489153,60 37.0002,58.5512847 37.0002,56.764 L37.0002,52 C37.0002,51.4477153 37.4479153,51 38.0002,51 L48.0002,51 C48.5524847,51 49.0002,51.4477153 49.0002,52 L49.0002,56.764 C49.0002,58.5512847 47.5514847,60 45.7642,60 Z" id="Stroke-19" fill="#4B5E69" fill-rule="nonzero"></path>
            <path d="M30,36 C30,34.3432847 31.3432847,33 33,33 C34.6567153,33 36,34.3432847 36,36 C36,36.5522847 36.4477153,37 37,37 C37.5522847,37 38,36.5522847 38,36 C38,33.2387153 35.7612847,31 33,31 C30.2387153,31 28,33.2387153 28,36 C28,36.5522847 28.4477153,37 29,37 C29.5522847,37 30,36.5522847 30,36 Z" id="Stroke-21" fill="#4B5E69" fill-rule="nonzero"></path>
            <mask id="mask-2" fill="white">
                <use xlink:href="#path-1"></use>
            </mask>
            <g id="Clip-24"></g>
            <polygon id="Fill-23" fill="#D3E5EF" mask="url(#mask-2)" points="9 55 17 55 17 53 9 53"></polygon>
            <polygon id="Fill-25" fill="#D3E5EF" mask="url(#mask-2)" points="39 55 47 55 47 53 39 53"></polygon>
            <path d="M19.9945055,20.1046848 L21.9945055,1.10468478 C22.0523213,0.555434589 21.653935,0.0633103571 21.1046848,0.00549454708 C20.5554346,-0.052321263 20.0633104,0.34606502 20.0054945,0.895315215 L18.0054945,19.8953152 C17.9476787,20.4445654 18.346065,20.9366896 18.8953152,20.9945055 C19.4445654,21.0523213 19.9366896,20.653935 19.9945055,20.1046848 Z" id="Stroke-26" fill="#4B5E69" fill-rule="nonzero" mask="url(#mask-2)"></path>
            <path d="M37.9931506,19.8831588 L35.9931506,2.88315875 C35.928621,2.33465682 35.4316607,1.94231976 34.8831588,2.0068494 C34.3346568,2.07137903 33.9423198,2.56833931 34.0068494,3.11684125 L36.0068494,20.1168412 C36.071379,20.6653432 36.5683393,21.0576802 37.1168412,20.9931506 C37.6653432,20.928621 38.0576802,20.4316607 37.9931506,19.8831588 Z" id="Stroke-27" fill="#4B5E69" fill-rule="nonzero" mask="url(#mask-2)"></path>
        </g>
    </g>
</svg>