<?xml version="1.0" encoding="UTF-8"?>
<svg width="60px" height="61px" viewBox="0 0 60 61" version="1.1" xmlns="http://www.w3.org/2000/svg" xmlns:xlink="http://www.w3.org/1999/xlink">
    <!-- Generator: Sketch 49.3 (51167) - http://www.bohemiancoding.com/sketch -->
    <title>Icon/ Multiple states</title>
    <desc>Created with Sketch.</desc>
    <defs>
        <polygon id="path-1" points="39.986 0.232167539 39.986 40 20.0996152 40 0.213230467 40 0.213230467 0.232167539"></polygon>
    </defs>
    <g id="Icon/-Multiple-states" stroke="none" stroke-width="1" fill="none" fill-rule="evenodd">
        <g id="Multiple-states">
            <path d="M20,2 C10.075,2 2,10.075 2,20 C2,29.925 10.075,38 20,38 C29.925,38 38,29.925 38,20 C38,10.075 29.925,2 20,2 M20,40 C8.972,40 0,31.028 0,20 C0,8.972 8.972,0 20,0 C31.028,0 40,8.972 40,20 C40,31.028 31.028,40 20,40" id="Fill-1" fill="#4F5661"></path>
            <g id="Group-5" transform="translate(20.000000, 20.013700)">
                <mask id="mask-2" fill="white">
                    <use xlink:href="#path-1"></use>
                </mask>
                <g id="Clip-4"></g>
                <path d="M19.9873,40 L19.9653,40 C10.0543,39.988 1.7533,32.883 0.2253,23.104 C0.1403,22.558 0.5133,22.047 1.0593,21.961 C1.6083,21.879 2.1173,22.25 2.2023,22.795 C3.5763,31.596 11.0483,37.99 19.9663,38 L19.9873,38 C29.9033,38 37.9753,29.938 37.9863,20.02 C37.9963,11.1 31.6183,3.614 22.8213,2.221 C22.2753,2.135 21.9033,1.622 21.9903,1.077 C22.0753,0.531 22.5883,0.154 23.1333,0.246 C32.9103,1.794 39.9983,10.111 39.9863,20.021 C39.9803,25.362 37.8943,30.382 34.1123,34.156 C30.3353,37.925 25.3193,40 19.9873,40" id="Fill-3" fill="#4F5661" mask="url(#mask-2)"></path>
            </g>
            <path d="M31,24.8272 L31,27.9602 C31,28.0092 30.992,28.0492 30.972,28.0932 C30.928,28.1812 30.848,28.3652 30.76,28.6012 C30.563,29.1422 30.351,29.9392 30.6,30.4362 C31,31.2372 30.731,32.0392 28.096,32.0392 L24.81,32.0392 C24.682,32.0392 24.562,31.9592 24.518,31.8392 C24.229,31.0772 23.1,28.4322 21.385,28.4322 C19.381,28.4322 19.782,27.2312 17.778,27.2312 C16.063,27.2312 15.815,24.8792 15.779,24.2062 C15.775,24.0942 15.707,23.9942 15.607,23.9412 L15.034,23.6572 C14.994,23.6382 14.958,23.6052 14.93,23.5732 L13.392,21.6502 C13.38,21.6302 13.367,21.6142 13.355,21.5942 L12.27,19.4232 C12.21,19.2982 12.233,19.1542 12.33,19.0572 L12.346,19.0422 C12.47,18.9182 12.67,18.9182 12.795,19.0422 L13.548,19.7952 C13.672,19.9192 13.872,19.9192 13.996,19.7952 L14.001,19.7912 C14.101,19.6902 14.121,19.5302 14.045,19.4062 L13.119,17.8642 C13.035,17.7232 12.858,17.6722 12.71,17.7482 L12.394,17.9042 C12.262,17.9682 12.102,17.9362 12.009,17.8242 L10.238,15.7002 C10.19,15.6442 10.166,15.5722 10.166,15.5002 L10.166,12.9402 C10.166,12.8552 10.134,12.7752 10.074,12.7162 L9.457,12.0982 C9.397,12.0382 9.365,11.9582 9.365,11.8742 L9.365,10.1362 C9.365,10.0522 9.397,9.9712 9.457,9.9112 L10.082,9.2862 C10.134,9.2342 10.17,9.1582 10.175,9.0822 L10.219,8.2972 C10.227,8.1322 10.362,8.0002 10.531,8.0002 L19.75,8.0002 C19.926,8.0002 20.183,8.1402 20.183,8.3162 L20.183,16.8142 C20.183,16.9102 20.166,16.9992 20.242,17.0582 L30.912,24.5832 C30.988,24.6422 31,24.7312 31,24.8272" id="Fill-6" fill="#53C27C"></path>
            <path d="M42.7041,28.0606 L48.4751,31.3066 C48.6731,31.4176 48.7651,31.6526 48.6931,31.8686 C48.4271,32.6646 47.7271,34.5136 46.7841,35.1426 C46.7841,35.1426 45.1631,35.9536 45.9741,37.1686 C46.4641,37.9046 47.1031,38.0456 47.5311,38.0436 C47.7921,38.0416 48.0001,38.2566 48.0001,38.5166 L48.0001,41.2206 C48.0001,42.4366 47.1891,44.4626 46.3791,45.6786 C45.5921,46.8606 45.5691,48.4236 43.7091,49.2556 C43.6041,49.3016 43.5181,49.3796 43.4701,49.4826 C43.1571,50.1386 41.8861,52.6436 40.5571,52.9446 C40.4101,52.9766 40.2571,52.9366 40.1421,52.8386 L40.1391,52.8346 C39.9631,52.6846 39.9211,52.4326 40.0391,52.2346 C40.4341,51.5686 41.1391,50.1366 39.8941,50.1366 C38.2741,50.1366 36.2481,49.3266 35.4371,47.2996 C34.6271,45.2736 36.6531,43.2476 37.4641,43.2476 C38.2741,43.2476 39.4891,41.6256 40.7051,41.6256 C41.9211,41.6256 41.1101,40.8156 41.9211,40.8156 C42.7311,40.8156 42.3261,40.0046 40.7051,38.7896 C39.0841,37.5746 39.8941,37.1686 38.6791,35.9536 C37.4641,34.7376 39.8941,33.9266 39.4891,33.1166 C39.2251,32.5866 39.1331,32.0576 39.1011,31.7536 C39.0851,31.5996 39.1471,31.4476 39.2671,31.3476 C39.7051,30.9826 40.8701,29.9356 42.0811,28.2066 C42.2221,28.0046 42.4901,27.9406 42.7041,28.0606" id="Fill-8" fill="#53C27C"></path>
            <path d="M38.958,6.1114 L38.958,6.0884 C38.958,3.7014 40.744,1.7464 43.287,1.7464 C44.834,1.7464 45.77,2.2854 46.573,3.0524 L45.626,4.1444 C44.954,3.5204 44.234,3.1014 43.275,3.1014 C41.68,3.1014 40.505,4.4204 40.505,6.0634 L40.505,6.0884 C40.505,7.7304 41.668,9.0614 43.275,9.0614 C44.307,9.0614 44.967,8.6544 45.686,7.9824 L46.634,8.9414 C45.758,9.8534 44.799,10.4284 43.228,10.4284 C40.78,10.4284 38.958,8.5224 38.958,6.1114" id="Fill-10" fill="#53C27C"></path>
            <path d="M53.2705,6.9512 L51.8195,3.5932 L50.3795,6.9512 L53.2705,6.9512 Z M51.1595,1.8302 L52.5265,1.8302 L56.2205,10.2852 L54.6615,10.2852 L53.8095,8.2582 L49.8395,8.2582 L48.9765,10.2852 L47.4645,10.2852 L51.1595,1.8302 Z" id="Fill-12" fill="#53C27C"></path>
            <polygon id="Fill-14" fill="#D3E5EF" points="5.3291 49.8897 6.6961 49.8897 11.1941 55.6947 11.1941 49.8897 12.6451 49.8897 12.6451 58.2857 11.4101 58.2857 6.7801 52.3127 6.7801 58.2857 5.3291 58.2857"></polygon>
            <path d="M13.9814,57.0498 L14.9534,56.0418 C15.4444,56.6778 15.9364,57.0378 16.6434,57.0378 C17.4354,57.0378 17.9754,56.5098 17.9754,55.3828 L17.9754,49.8898 L19.4984,49.8898 L19.4984,55.4308 C19.4984,56.4258 19.1984,57.1698 18.7074,57.6608 C18.2144,58.1538 17.5074,58.4048 16.6684,58.4048 C15.3734,58.4048 14.5334,57.8058 13.9814,57.0498" id="Fill-16" fill="#D3E5EF"></path>
        </g>
    </g>
</svg>