<?xml version="1.0" encoding="UTF-8"?>
<svg width="61px" height="57px" viewBox="0 0 61 57" version="1.1" xmlns="http://www.w3.org/2000/svg" xmlns:xlink="http://www.w3.org/1999/xlink">
    <!-- Generator: Sketch 49.3 (51167) - http://www.bohemiancoding.com/sketch -->
    <title>Icon/ My taxes are simple</title>
    <desc>Created with Sketch.</desc>
    <defs></defs>
    <g id="Icon/-My-taxes-are-simple" stroke="none" stroke-width="1" fill="none" fill-rule="evenodd">
        <g id="Page-1">
            <polygon id="Fill-1" fill="#D3E5EF" points="57.8124 0.0003 50.5214 7.5203 46.9094 4.2033 44.8734 6.4683 49.8184 10.9853 49.8244 10.9783 50.6434 11.7703 60.0004 2.1193"></polygon>
            <polygon id="Fill-2" fill="#D3E5EF" points="50.5215 27.5196 46.9095 24.2036 44.8735 26.4686 49.8185 30.9856 49.8245 30.9786 50.6435 31.7706 60.0005 22.1206 57.8125 19.9996"></polygon>
            <polygon id="Fill-3" fill="#53C27C" points="50.5215 47.5194 46.9095 44.2034 44.8735 46.4694 49.8185 50.9854 49.8245 50.9784 50.6435 51.7704 60.0005 42.1204 57.8125 39.9994"></polygon>
            <g id="Group-30">
                <path d="M8.5,0 C3.813,0 0,3.813 0,8.5 C0,13.187 3.813,17 8.5,17 C13.187,17 17,13.187 17,8.5 C17,3.813 13.187,0 8.5,0" id="Fill-4" fill="#D3E5EF"></path>
                <path d="M8.5,20 C3.813,20 0,23.813 0,28.5 C0,33.187 3.813,37 8.5,37 C13.187,37 17,33.187 17,28.5 C17,23.813 13.187,20 8.5,20" id="Fill-6" fill="#D3E5EF"></path>
                <path d="M8.5,40 C3.813,40 0,43.813 0,48.5 C0,53.187 3.813,57 8.5,57 C13.187,57 17,53.187 17,48.5 C17,43.813 13.187,40 8.5,40" id="Fill-8" fill="#53C27C"></path>
                <path d="M9,13 C8.448,13 8,12.553 8,12 L8,5.781 L7.243,5.97 C6.71,6.106 6.164,5.779 6.03,5.242 C5.896,4.707 6.222,4.164 6.757,4.03 L8.757,3.53 C9.055,3.453 9.373,3.522 9.615,3.712 C9.858,3.901 10,4.192 10,4.5 L10,12 C10,12.553 9.552,13 9,13" id="Fill-10" fill="#FFFFFF"></path>
                <path d="M11,33 L6,33 C5.663,33 5.348,32.83 5.163,32.547 C4.979,32.265 4.949,31.908 5.084,31.599 C5.656,30.293 6.921,29.363 8.038,28.544 C9.002,27.836 10,27.104 10,26.5 C10,25.673 9.327,25 8.5,25 C7.843,25 7.252,25.438 7.063,26.066 C6.905,26.596 6.347,26.893 5.818,26.736 C5.289,26.577 4.989,26.02 5.148,25.49 C5.589,24.024 6.968,23 8.5,23 C10.43,23 12,24.57 12,26.5 C12,28.117 10.587,29.153 9.222,30.156 C8.845,30.433 8.464,30.713 8.118,31 L11,31 C11.552,31 12,31.447 12,32 C12,32.553 11.552,33 11,33" id="Fill-12" fill="#FFFFFF"></path>
                <path d="M8.5,49.5 C7.948,49.5 7.5,49.053 7.5,48.5 C7.5,47.947 7.948,47.5 8.5,47.5 C9.327,47.5 10,46.939 10,46.25 C10,45.561 9.327,45 8.5,45 C7.964,45 7.464,45.243 7.195,45.636 C6.883,46.091 6.261,46.208 5.805,45.896 C5.35,45.583 5.233,44.961 5.546,44.505 C6.192,43.563 7.296,43 8.5,43 C10.43,43 12,44.458 12,46.25 C12,48.042 10.43,49.5 8.5,49.5" id="Fill-14" fill="#FFFFFF"></path>
                <path d="M8.5,54 C7.296,54 6.192,53.438 5.546,52.495 C5.233,52.039 5.35,51.417 5.805,51.104 C6.261,50.794 6.883,50.91 7.195,51.364 C7.464,51.757 7.964,52 8.5,52 C9.327,52 10,51.439 10,50.75 C10,50.061 9.327,49.5 8.5,49.5 C7.948,49.5 7.5,49.053 7.5,48.5 C7.5,47.947 7.948,47.5 8.5,47.5 C10.43,47.5 12,48.958 12,50.75 C12,52.542 10.43,54 8.5,54" id="Fill-16" fill="#FFFFFF"></path>
                <path d="M39,6 L23,6 C22.448,6 22,5.553 22,5 C22,4.447 22.448,4 23,4 L39,4 C39.552,4 40,4.447 40,5 C40,5.553 39.552,6 39,6" id="Fill-18" fill="#4F5661"></path>
                <path d="M42,12 L23,12 C22.448,12 22,11.553 22,11 C22,10.447 22.448,10 23,10 L42,10 C42.552,10 43,10.447 43,11 C43,11.553 42.552,12 42,12" id="Fill-20" fill="#4F5661"></path>
                <path d="M38,26 L23,26 C22.448,26 22,25.553 22,25 C22,24.447 22.448,24 23,24 L38,24 C38.552,24 39,24.447 39,25 C39,25.553 38.552,26 38,26" id="Fill-22" fill="#4F5661"></path>
                <path d="M42,32 L23,32 C22.448,32 22,31.553 22,31 C22,30.447 22.448,30 23,30 L42,30 C42.552,30 43,30.447 43,31 C43,31.553 42.552,32 42,32" id="Fill-24" fill="#4F5661"></path>
                <path d="M38,46 L23,46 C22.448,46 22,45.553 22,45 C22,44.447 22.448,44 23,44 L38,44 C38.552,44 39,44.447 39,45 C39,45.553 38.552,46 38,46" id="Fill-26" fill="#4F5661"></path>
                <path d="M42,52 L23,52 C22.448,52 22,51.553 22,51 C22,50.447 22.448,50 23,50 L42,50 C42.552,50 43,50.447 43,51 C43,51.553 42.552,52 42,52" id="Fill-28" fill="#4F5661"></path>
            </g>
        </g>
    </g>
</svg>