<?xml version="1.0" encoding="UTF-8"?>
<svg width="60px" height="55px" viewBox="0 0 60 55" version="1.1" xmlns="http://www.w3.org/2000/svg" xmlns:xlink="http://www.w3.org/1999/xlink">
    <!-- Generator: Sketch 49.3 (51167) - http://www.bohemiancoding.com/sketch -->
    <title>Icon/ My docs</title>
    <desc>Created with Sketch.</desc>
    <defs></defs>
    <g id="Icon/-My-docs" stroke="none" stroke-width="1" fill="none" fill-rule="evenodd">
        <g id="My-docs">
            <path d="M55,13 L55,19 L11,19 C9.61,22.19 8.25,25.63 7,29.31 C6.25,31.51 5.58,33.68 5,35.78 L5,13 L55,13 Z" id="Fill-1" fill="#D3E5EF"></path>
            <path d="M54,18 L11,18 C10.602,18 10.242,18.235 10.083,18.601 C9.454,20.044 8.859,21.492 8.286,22.939 C7.484,24.966 6.732,26.988 6.053,28.988 C6.053,28.99 6.052,28.992 6.051,28.995 C6.034,29.044 6.017,29.095 6,29.145 L6,14 L54,14 L54,18 Z M59.838,18.454 C59.653,18.171 59.338,18 59,18 L56,18 L56,13 C56,12.447 55.552,12 55,12 L5,12 C4.448,12 4,12.447 4,13 L4,35.698 C3.248,38.379 2.584,41.083 2,43.798 L2,2 L12.86,2 C13.867,2 14.801,2.499 15.357,3.334 L16.978,5.774 C17.906,7.168 19.462,8 21.14,8 L50,8 L50,10 C50,10.553 50.448,11 51,11 C51.552,11 52,10.553 52,10 L52,7 C52,6.447 51.552,6 51,6 L21.14,6 C20.133,6 19.199,5.501 18.643,4.666 L17.022,2.226 C16.094,0.832 14.538,0 12.86,0 L1,0 C0.448,0 0,0.447 0,1 L0,49 C0,49.553 0.448,50 1,50 L2,50 L11.62,50 L36,50 C36.552,50 37,49.553 37,49 C37,48.447 36.552,48 36,48 L11.62,48 L3.192,48 C3.977,43.666 5.006,39.353 6.241,35.101 C6.379,34.617 6.521,34.132 6.668,33.643 C7.075,32.299 7.496,30.959 7.947,29.631 C9.026,26.454 10.273,23.218 11.657,20 L55,20 L57.478,20 C55.71,24.174 54.218,28.471 53.035,32.796 C52.89,33.328 53.204,33.879 53.736,34.024 C54.27,34.164 54.819,33.856 54.965,33.323 C56.254,28.607 57.919,23.924 59.915,19.404 C60.051,19.095 60.022,18.737 59.838,18.454 Z" id="Fill-3" fill="#4F5661"></path>
            <path d="M55,52.9307 C55,52.9687 54.969,52.9997 54.931,52.9997 L41,52.9307 L41.069,44.9997 L55,45.0697 L55,52.9307 Z M44,41.3327 C44,39.0917 45.599,37.1957 47.64,37.0157 C48.761,36.9177 49.843,37.2817 50.675,38.0437 C51.517,38.8157 52,39.9177 52,41.0707 L52,42.9997 L44,42.9997 L44,41.3327 Z M54.931,42.9997 L54,42.9997 L54,41.0707 C54,39.3587 53.28,37.7177 52.026,36.5697 C50.774,35.4237 49.157,34.8767 47.464,35.0237 C44.4,35.2927 42,38.0647 42,41.3327 L42,42.9997 L41.069,42.9997 C39.928,42.9997 39,43.9287 39,45.0697 L39,52.9307 C39,54.0717 39.928,54.9997 41.069,54.9997 L54.931,54.9997 C56.072,54.9997 57,54.0717 57,52.9307 L57,45.0697 C57,43.9287 56.072,42.9997 54.931,42.9997 Z" id="Fill-5" fill="#4F5661"></path>
            <path d="M48,51 C47.448,51 47,50.553 47,50 L47,48 C47,47.447 47.448,47 48,47 C48.552,47 49,47.447 49,48 L49,50 C49,50.553 48.552,51 48,51" id="Fill-7" fill="#4F5661"></path>
            <path d="M41.7378,25.4541 C41.5528,25.1711 41.2378,25.0001 40.8998,25.0001 L26.4998,25.0001 C26.1018,25.0001 25.7418,25.2351 25.5828,25.6001 C25.1718,26.5451 24.8028,27.4961 24.4868,28.4281 C23.8888,30.1881 23.4268,32.0061 23.1138,33.8311 C23.0648,34.1221 23.1458,34.4191 23.3358,34.6441 C23.5258,34.8701 23.8048,35.0001 24.0998,35.0001 L38.7668,35.0001 C39.2788,35.0001 39.7078,34.6131 39.7608,34.1041 C39.9058,32.7281 40.1648,31.3511 40.5318,30.0131 C40.8648,28.7921 41.2968,27.5781 41.8148,26.4031 C41.9508,26.0951 41.9228,25.7371 41.7378,25.4541" id="Fill-9" fill="#F4877A"></path>
            <path d="M36,31 L29,31 C28.448,31 28,30.553 28,30 C28,29.447 28.448,29 29,29 L36,29 C36.552,29 37,29.447 37,30 C37,30.553 36.552,31 36,31" id="Fill-11" fill="#FFFFFF"></path>
        </g>
    </g>
</svg>