<?xml version="1.0" encoding="UTF-8"?>
<svg width="60px" height="57px" viewBox="0 0 60 57" version="1.1" xmlns="http://www.w3.org/2000/svg" xmlns:xlink="http://www.w3.org/1999/xlink">
    <!-- Generator: Sketch 49.3 (51167) - http://www.bohemiancoding.com/sketch -->
    <title>Icon/ Need more info</title>
    <desc>Created with Sketch.</desc>
    <defs></defs>
    <g id="Icon/-Need-more-info" stroke="none" stroke-width="1" fill="none" fill-rule="evenodd">
        <g id="Need-more-info">
            <path d="M48.733,45.912 L48.733,46.889 C48.733,47.208 48.474,47.467 48.155,47.467 L46.421,47.467 C46.103,47.467 45.844,47.208 45.844,46.889 L45.844,45.315 C45.844,44.227 46.675,43.298 47.777,43.153 C49.493,42.929 49.986,41.612 49.876,40.456 C49.77,39.346 48.817,38.396 47.659,38.246 C46.866,38.143 46.109,38.368 45.53,38.877 C45.113,39.244 44.839,39.628 44.737,40.144 C44.682,40.418 44.451,40.533 44.172,40.533 L42.42,40.533 C42.071,40.533 41.798,40.31 41.842,39.965 C42.004,38.685 42.631,37.536 43.623,36.665 C44.818,35.615 46.427,35.154 48.029,35.36 C50.531,35.683 52.517,37.713 52.752,40.172 C53.017,42.966 51.352,45.3 48.733,45.912 Z M48.733,51.223 C48.733,51.701 48.345,52.089 47.866,52.089 L46.711,52.089 C46.232,52.089 45.844,51.701 45.844,51.223 L45.844,50.066 C45.844,49.588 46.232,49.2 46.711,49.2 L47.866,49.2 C48.345,49.2 48.733,49.588 48.733,50.066 L48.733,51.223 Z M47,31 C39.832,31 34,36.832 34,44 C34,51.168 39.832,57 47,57 C54.168,57 60,51.168 60,44 C60,36.832 54.168,31 47,31 Z" id="Fill-1" fill="#F4877A"></path>
            <g id="Page-1">
                <path d="M54,0 L3,0 C1.346,0 0,1.346 0,3 L0,56 C0,56.44 0.288,56.829 0.709,56.957 C0.806,56.986 0.903,57 1,57 C1.327,57 1.642,56.839 1.831,56.557 C3.915,53.442 6.241,50.452 8.744,47.669 C10.514,45.699 12.41,43.794 14.385,42 L31,42 C31.553,42 32,41.553 32,41 C32,40.447 31.553,40 31,40 L14,40 C13.753,40 13.515,40.092 13.331,40.257 C11.202,42.172 9.158,44.216 7.257,46.331 C5.401,48.395 3.641,50.569 2,52.822 L2,3 C2,2.448 2.448,2 3,2 L54,2 C54.552,2 55,2.448 55,3 L55,31 C55,31.553 55.447,32 56,32 C56.553,32 57,31.553 57,31 L57,3 C57,1.346 55.654,0 54,0" id="Fill-1" fill="#4F5661"></path>
                <path d="M35,19 L13,19 C12.447,19 12,19.447 12,20 C12,20.553 12.447,21 13,21 L35,21 C35.553,21 36,20.553 36,20 C36,19.447 35.553,19 35,19" id="Fill-3" fill="#4F5661"></path>
                <path d="M43,24 L13,24 C12.447,24 12,24.447 12,25 C12,25.553 12.447,26 13,26 L43,26 C43.553,26 44,25.553 44,25 C44,24.447 43.553,24 43,24" id="Fill-5" fill="#4F5661"></path>
                <path d="M29,29 L13,29 C12.447,29 12,29.447 12,30 C12,30.553 12.447,31 13,31 L29,31 C29.553,31 30,30.553 30,30 C30,29.447 29.553,29 29,29" id="Fill-7" fill="#4F5661"></path>
                <path d="M29,9 L13,9 C12.447,9 12,9.447 12,10 L12,14 C12,14.553 12.447,15 13,15 L29,15 C29.553,15 30,14.553 30,14 L30,10 C30,9.447 29.553,9 29,9" id="Fill-9" fill="#D3E5EF"></path>
            </g>
        </g>
    </g>
</svg>