<?xml version="1.0" encoding="UTF-8"?>
<svg width="62px" height="60px" viewBox="0 0 62 60" version="1.1" xmlns="http://www.w3.org/2000/svg" xmlns:xlink="http://www.w3.org/1999/xlink">
    <!-- Generator: Sketch 49.3 (51167) - http://www.bohemiancoding.com/sketch -->
    <title>Icon/ New Job</title>
    <desc>Created with Sketch.</desc>
    <defs>
        <polygon id="path-1" points="0 60 62 60 62 0 0 0"></polygon>
    </defs>
    <g id="Icon/-New-Job" stroke="none" stroke-width="1" fill="none" fill-rule="evenodd">
        <g id="New-Job">
            <polygon id="Fill-1" fill="#D3E5EF" points="47 40 58 40 58 37 47 37"></polygon>
            <g id="Group-26">
                <path d="M12,58 C12,54.134 8.866,51 5,51 L5,58 L12,58 Z" id="Fill-2" fill="#F4877A"></path>
                <path d="M50,58 C50,54.134 53.134,51 57,51 L57,58 L50,58 Z" id="Fill-4" fill="#F4877A"></path>
                <path d="M41,19 L41,14 C41,12.3462847 39.6537153,11 38,11 L24,11 C22.3462847,11 21,12.3462847 21,14 L21,19 L23,19 L23,14 C23,13.4477153 23.4477153,13 24,13 L38,13 C38.5522847,13 39,13.4477153 39,14 L39,19 L41,19 Z M25,15 L25,20 C25,20.5522847 24.5522847,21 24,21 L20,21 C19.4477153,21 19,20.5522847 19,20 L19,14 C19,11.2417153 21.2417153,9 24,9 L38,9 C40.7582847,9 43,11.2417153 43,14 L43,20 C43,20.5522847 42.5522847,21 42,21 L38,21 C37.4477153,21 37,20.5522847 37,20 L37,15 L25,15 Z" id="Stroke-6" fill="#4B5E69" fill-rule="nonzero"></path>
                <path d="M15,35 L3,35 C2.45228475,35 2,34.5477153 2,34 L2,22 C2,21.4522847 2.45228475,21 3,21 L59,21 C59.5477153,21 60,21.4522847 60,22 L60,34 C60,34.5477153 59.5477153,35 59,35 L47,35 C46.4477153,35 46,35.4477153 46,36 C46,36.5522847 46.4477153,37 47,37 L59,37 C60.6522847,37 62,35.6522847 62,34 L62,22 C62,20.3477153 60.6522847,19 59,19 L3,19 C1.34771525,19 0,20.3477153 0,22 L0,34 C0,35.6522847 1.34771525,37 3,37 L15,37 C15.5522847,37 16,36.5522847 16,36 C16,35.4477153 15.5522847,35 15,35 Z" id="Stroke-8" fill="#4B5E69" fill-rule="nonzero"></path>
                <path d="M41,35 L21,35 C20.4477153,35 20,35.4477153 20,36 C20,36.5522847 20.4477153,37 21,37 L41,37 C41.5522847,37 42,36.5522847 42,36 C42,35.4477153 41.5522847,35 41,35 Z" id="Stroke-10" fill="#4B5E69" fill-rule="nonzero"></path>
                <path d="M26,35 L21,35 C20.4477153,35 20,35.4477153 20,36 C20,36.5522847 20.4477153,37 21,37 L26,37 C26.5522847,37 27,36.5522847 27,36 C27,35.4477153 26.5522847,35 26,35 Z" id="Stroke-12" fill="#4B5E69" fill-rule="nonzero"></path>
                <path d="M41,35 L36,35 C35.4477153,35 35,35.4477153 35,36 C35,36.5522847 35.4477153,37 36,37 L41,37 C41.5522847,37 42,36.5522847 42,36 C42,35.4477153 41.5522847,35 41,35 Z" id="Stroke-14" fill="#4B5E69" fill-rule="nonzero"></path>
                <path d="M57,57 C57,57.5592285 56.5759474,58 56.07,58 L5.93,58 C5.42405258,58 5,57.5592285 5,57 L5,37 L15,37 C15.5522847,37 16,36.5522847 16,36 C16,35.4477153 15.5522847,35 15,35 L4,35 C3.44771525,35 3,35.4477153 3,36 L3,57 C3,58.6468647 4.30180949,60 5.93,60 L56.07,60 C57.6981905,60 59,58.6468647 59,57 L59,36 C59,35.4477153 58.5522847,35 58,35 L47,35 C46.4477153,35 46,35.4477153 46,36 C46,36.5522847 46.4477153,37 47,37 L57,37 L57,57 Z" id="Stroke-16" fill="#4B5E69" fill-rule="nonzero"></path>
                <mask id="mask-2" fill="white">
                    <use xlink:href="#path-1"></use>
                </mask>
                <g id="Clip-19"></g>
                <polygon id="Fill-18" fill="#D3E5EF" mask="url(#mask-2)" points="5 40 15 40 15 37 5 37"></polygon>
                <polygon id="Fill-20" fill="#D3E5EF" mask="url(#mask-2)" points="21 40 41 40 41 37 21 37"></polygon>
                <path d="M20,33 L16,33 L16,39 L20,39 L20,33 Z M20.25,41 L15.75,41 C14.711,41 14,40.052 14,39 L14,33 C14,31.948 14.711,31 15.75,31 L20.25,31 C21.289,31 22,31.948 22,33 L22,39 C22,40.052 21.289,41 20.25,41 Z" id="Stroke-21" fill="#4B5E69" fill-rule="nonzero" mask="url(#mask-2)"></path>
                <path d="M46,33 L42,33 L42,39 L46,39 L46,33 Z M46.25,41 L41.75,41 C40.711,41 40,40.052 40,39 L40,33 C40,31.948 40.711,31 41.75,31 L46.25,31 C47.289,31 48,31.948 48,33 L48,39 C48,40.052 47.289,41 46.25,41 Z" id="Stroke-22" fill="#4B5E69" fill-rule="nonzero" mask="url(#mask-2)"></path>
                <path d="M32,6 L32,1 C32,0.44771525 31.5522847,0 31,0 C30.4477153,0 30,0.44771525 30,1 L30,6 C30,6.55228475 30.4477153,7 31,7 C31.5522847,7 32,6.55228475 32,6 Z" id="Stroke-23" fill="#D3E5EF" fill-rule="nonzero" mask="url(#mask-2)"></path>
                <path d="M25.8320503,5.4452998 L23.8320503,2.4452998 C23.5256978,1.98577112 22.9048285,1.86159725 22.4452998,2.16794971 C21.9857711,2.47430216 21.8615972,3.09517151 22.1679497,3.5547002 L24.1679497,6.5547002 C24.4743022,7.01422888 25.0951715,7.13840275 25.5547002,6.83205029 C26.0142289,6.52569784 26.1384028,5.90482849 25.8320503,5.4452998 Z" id="Stroke-24" fill="#D3E5EF" fill-rule="nonzero" mask="url(#mask-2)"></path>
                <path d="M37.8320503,6.5547002 L39.8320503,3.5547002 C40.1384028,3.09517151 40.0142289,2.47430216 39.5547002,2.16794971 C39.0951715,1.86159725 38.4743022,1.98577112 38.1679497,2.4452998 L36.1679497,5.4452998 C35.8615972,5.90482849 35.9857711,6.52569784 36.4452998,6.83205029 C36.9048285,7.13840275 37.5256978,7.01422888 37.8320503,6.5547002 Z" id="Stroke-25" fill="#D3E5EF" fill-rule="nonzero" mask="url(#mask-2)"></path>
            </g>
        </g>
    </g>
</svg>