<?xml version="1.0" encoding="UTF-8"?>
<svg width="56px" height="56px" viewBox="0 0 56 56" version="1.1" xmlns="http://www.w3.org/2000/svg" xmlns:xlink="http://www.w3.org/1999/xlink">
    <!-- Generator: Sketch 49.3 (51167) - http://www.bohemiancoding.com/sketch -->
    <title>Icon/ No health insurance</title>
    <desc>Created with Sketch.</desc>
    <defs></defs>
    <g id="Icon/-No-health-insurance" stroke="none" stroke-width="1" fill="none" fill-rule="evenodd">
        <g id="No-health-insurance">
            <path d="M37,47.5 C37,48.881 32.971,50 28,50 C23.029,50 19,48.881 19,47.5 C19,46.119 23.029,45 28,45 C32.971,45 37,46.119 37,47.5" id="Fill-1" fill="#D3E5EF"></path>
            <path d="M28.3701,47.5176 C28.3701,47.5176 48.3651,35.5926 48.3651,22.1786 C48.3651,16.0046 43.7291,10.9996 38.0101,10.9996 C33.1941,10.9996 29.1591,14.5536 28.0001,19.3606 C26.8411,14.5536 22.8061,10.9996 17.9901,10.9996 C12.2701,10.9996 7.6351,16.0046 7.6351,22.1786 C7.6351,35.5926 27.6301,47.5176 27.6301,47.5176" id="Fill-3" fill="#F4877A"></path>
            <path d="M12.2559,23.1787 C11.7029,23.1787 11.2559,22.7317 11.2559,22.1787 C11.2559,18.0107 14.2769,14.6197 17.9899,14.6197 C18.5429,14.6197 18.9899,15.0677 18.9899,15.6197 C18.9899,16.1727 18.5429,16.6197 17.9899,16.6197 C15.3799,16.6197 13.2559,19.1137 13.2559,22.1787 C13.2559,22.7317 12.8089,23.1787 12.2559,23.1787" id="Fill-5" fill="#FFFFFF"></path>
            <path d="M34,29.0576 L30,29.0576 L30,25.0576 C30,24.5056 29.553,24.0576 29,24.0576 L27,24.0576 C26.447,24.0576 26,24.5056 26,25.0576 L26,29.0576 L22,29.0576 C21.447,29.0576 21,29.5056 21,30.0576 L21,32.0576 C21,32.6106 21.447,33.0576 22,33.0576 L26,33.0576 L26,37.0576 C26,37.6106 26.447,38.0576 27,38.0576 L29,38.0576 C29.553,38.0576 30,37.6106 30,37.0576 L30,33.0576 L34,33.0576 C34.553,33.0576 35,32.6106 35,32.0576 L35,30.0576 C35,29.5056 34.553,29.0576 34,29.0576" id="Fill-7" fill="#FFFFFF"></path>
            <path d="M10.0303,49.1396 C9.7663,49.1396 9.5033,49.0356 9.3063,48.8286 C8.9263,48.4296 8.9403,47.7966 9.3413,47.4156 L48.3103,10.2766 C48.7093,9.8956 49.3433,9.9096 49.7233,10.3106 C50.1043,10.7096 50.0903,11.3426 49.6893,11.7236 L10.7193,48.8636 C10.5263,49.0476 10.2783,49.1396 10.0303,49.1396" id="Fill-9" fill="#4F5661"></path>
            <path d="M28,56 C22.2,56 16.648,54.246 11.943,50.928 C11.065,50.321 10.194,49.632 9.362,48.884 C8.951,48.515 8.917,47.882 9.286,47.472 C9.657,47.061 10.29,47.029 10.698,47.396 C11.468,48.087 12.271,48.724 13.088,49.288 C17.462,52.372 22.615,54 28,54 C42.337,54 54,42.337 54,28 C54,23.104 52.636,18.344 50.054,14.232 C49.76,13.765 49.9,13.147 50.368,12.854 C50.838,12.56 51.454,12.701 51.747,13.168 C54.529,17.599 56,22.728 56,28 C56,43.439 43.439,56 28,56" id="Fill-11" fill="#4F5661"></path>
            <path d="M7.6504,46.7305 C7.3724,46.7305 7.0944,46.6145 6.8974,46.3885 C2.4494,41.2975 0.0004,34.7675 0.0004,28.0005 C0.0004,12.5605 12.5604,0.0005 28.0004,0.0005 C35.3134,0.0005 42.2264,2.8025 47.4664,7.8935 C48.2644,8.6395 49.0434,9.4875 49.7644,10.3985 C50.1074,10.8325 50.0344,11.4605 49.6014,11.8035 C49.1684,12.1465 48.5384,12.0725 48.1964,11.6405 C47.5364,10.8065 46.8264,10.0335 46.0864,9.3405 C41.2094,4.6025 34.7904,2.0005 28.0004,2.0005 C13.6634,2.0005 2.0004,13.6635 2.0004,28.0005 C2.0004,34.2835 4.2744,40.3465 8.4034,45.0725 C8.7664,45.4885 8.7244,46.1205 8.3084,46.4835 C8.1194,46.6495 7.8834,46.7305 7.6504,46.7305" id="Fill-13" fill="#4F5661"></path>
        </g>
    </g>
</svg>