<?xml version="1.0" encoding="UTF-8"?>
<svg width="54px" height="54px" viewBox="0 0 54 54" version="1.1" xmlns="http://www.w3.org/2000/svg" xmlns:xlink="http://www.w3.org/1999/xlink">
    <!-- Generator: Sketch 49.3 (51167) - http://www.bohemiancoding.com/sketch -->
    <title>Icon/ not so good</title>
    <desc>Created with Sketch.</desc>
    <defs></defs>
    <g id="Icon/-not-so-good" stroke="none" stroke-width="1" fill="none" fill-rule="evenodd">
        <g id="not-so-good" transform="translate(-1.000000, -1.000000)">
            <path d="M34,14 L37,14 C38.7587559,14 40.33125,14.8985681 41.1055728,16.4472136 C41.3525621,16.9411921 41.9532351,17.1414164 42.4472136,16.8944272 C42.9411921,16.6474379 43.1414164,16.0467649 42.8944272,15.5527864 C41.76875,13.3014319 39.4912441,12 37,12 L34,12 C33.4477153,12 33,12.4477153 33,13 C33,13.5522847 33.4477153,14 34,14 Z" id="Stroke-1" fill="#4B5E69" fill-rule="nonzero"></path>
            <path d="M22,12 L19,12 C16.5087559,12 14.23125,13.3014319 13.1055728,15.5527864 C12.8585836,16.0467649 13.0588079,16.6474379 13.5527864,16.8944272 C14.0467649,17.1414164 14.6474379,16.9411921 14.8944272,16.4472136 C15.66875,14.8985681 17.2412441,14 19,14 L22,14 C22.5522847,14 23,13.5522847 23,13 C23,12.4477153 22.5522847,12 22,12 Z" id="Stroke-3" fill="#4B5E69" fill-rule="nonzero"></path>
            <path d="M20,35 L35,35 C35.5522847,35 36,34.5522847 36,34 C36,33.4477153 35.5522847,33 35,33 L20,33 C19.4477153,33 19,33.4477153 19,34 C19,34.5522847 19.4477153,35 20,35 Z" id="Stroke-5" fill="#4B5E69" fill-rule="nonzero"></path>
            <path d="M54.9775,29.0459 L54.9775,29.1029 C54.3925,43.5029 42.5355,54.9999 27.9995,54.9999 C13.4645,54.9999 1.6075,43.5029 1.0225,29.1029 L1.0225,29.0459 C1.0785,27.9329 1.1915,26.8299 1.3825,25.7499 C3.5195,38.5189 14.6345,48.2499 27.9995,48.2499 C41.3655,48.2499 52.4795,38.5189 54.6175,25.7499 C54.8085,26.8299 54.9215,27.9329 54.9775,29.0459" id="Fill-7" fill="#D3E5EF"></path>
            <path d="M54,28 C54,13.6462847 42.3537153,2 28,2 C13.6462847,2 2,13.6462847 2,28 C2,28.1533782 2.00223087,28.3149859 2.00659492,28.4993337 C2.00994472,28.6408378 2.01327636,28.7534673 2.022,29.046 C2.58609973,42.9682277 14.0432829,54 28,54 C41.9567171,54 53.4139003,42.9682277 53.978,29.103 C53.9867236,28.7534673 53.9900553,28.6408378 53.9934051,28.4993337 C53.9977691,28.3149859 54,28.1533782 54,28 Z M28,56 C12.9690682,56 0.631252701,44.1202937 0.022,29.103 C0.0141033781,28.8112171 0.0106703973,28.6951616 0.007155085,28.5466663 C0.0024424747,28.3475942 0,28.1706575 0,28 C0,12.5417153 12.5417153,0 28,0 C43.4582847,0 56,12.5417153 56,28 C56,28.1706575 55.9975575,28.3475942 55.9928449,28.5466663 C55.9893748,28.6932508 55.985985,28.808225 55.9778183,29.0675161 C55.3687473,44.1202937 43.0309318,56 28,56 Z" id="Stroke-9" fill="#4B5E69" fill-rule="nonzero"></path>
            <path d="M22,21.5 C22,23.433 20.657,25 19,25 C17.343,25 16,23.433 16,21.5 C16,19.567 17.343,18 19,18 C20.657,18 22,19.567 22,21.5" id="Fill-11" fill="#529FDD"></path>
            <path d="M40,21.5 C40,23.433 38.657,25 37,25 C35.343,25 34,23.433 34,21.5 C34,19.567 35.343,18 37,18 C38.657,18 40,19.567 40,21.5" id="Fill-13" fill="#529FDD"></path>
        </g>
    </g>
</svg>