<?xml version="1.0" encoding="UTF-8"?>
<svg width="54px" height="59px" viewBox="0 0 54 59" version="1.1" xmlns="http://www.w3.org/2000/svg" xmlns:xlink="http://www.w3.org/1999/xlink">
    <!-- Generator: Sketch 49.3 (51167) - http://www.bohemiancoding.com/sketch -->
    <title>Icon/ Other deductions &amp; credits</title>
    <desc>Created with Sketch.</desc>
    <defs>
        <polygon id="path-1" points="1.1801 1 0.1801 1 0.1801 0.99 1.1801 0.99 1.1801 1"></polygon>
    </defs>
    <g id="Icon/-Other-deductions-&amp;-credits" stroke="none" stroke-width="1" fill="none" fill-rule="evenodd">
        <g id="Other-deductions-&amp;-credits">
            <path d="M30.01,22.5 C30.01,24.985 27.995,27 25.51,27 C23.025,27 21.01,24.985 21.01,22.5 C21.01,20.015 23.025,18 25.51,18 C27.995,18 30.01,20.015 30.01,22.5" id="Fill-1" fill="#5BBF89"></path>
            <path d="M43.01,14.5 C43.01,16.985 40.995,19 38.51,19 C36.025,19 34.01,16.985 34.01,14.5 C34.01,12.015 36.025,10 38.51,10 C40.995,10 43.01,12.015 43.01,14.5" id="Fill-3" fill="#5BBF89"></path>
            <path d="M32.01,4.5 C32.01,6.985 29.995,9 27.51,9 C25.025,9 23.01,6.985 23.01,4.5 C23.01,2.015 25.025,0 27.51,0 C29.995,0 32.01,2.015 32.01,4.5" id="Fill-5" fill="#5BBF89"></path>
            <g id="Group-9" transform="translate(27.000000, 57.000000)">
                <mask id="mask-2" fill="white">
                    <use xlink:href="#path-1"></use>
                </mask>
                <g id="Clip-8"></g>
                <path d="M0.8401,1 L0.1801,1 C0.2901,1 0.4001,1 0.5101,0.99 C0.6201,1 0.7301,1 0.8401,1" id="Fill-7" fill="#4B5E69" mask="url(#mask-2)"></path>
            </g>
            <path d="M9.0002,37.5962 L9.0002,51.5612 C9.0002,52.3982 8.3722,53.1262 7.4782,53.3262 L0.0002,55.0002 L0.0002,35.0002 L7.2382,35.7912 C8.2442,35.9012 9.0002,36.6762 9.0002,37.5962" id="Fill-10" fill="#D3E5EF"></path>
            <path d="M7.2598828,52.3503221 C7.71109971,52.2493788 8.0002,51.9141569 8.0002,51.5612 L8.0002,37.5962 C8.0002,37.2053467 7.64526294,36.8416701 7.12956247,36.7852814 L1.0002,36.1154381 L1.0002,53.7515937 L7.2598828,52.3503221 Z M10.0002,37.5962 L10.0002,51.5612 C10.0002,52.8820552 9.03350108,54.0029763 7.69665009,54.3020481 L0.218650088,55.9760481 C-0.406269905,56.1159406 -0.9998,55.6405865 -0.9998,55.0002 L-0.9998,35.0002 C-0.9998,34.4049104 -0.48292882,33.9414478 0.108837526,34.0061186 L7.34689608,34.797125 C8.84271618,34.9606838 10.0002,36.146668 10.0002,37.5962 Z" id="Stroke-12" fill="#4B5E69" fill-rule="nonzero"></path>
            <path d="M52.3312312,38.625695 L52.39994,38.715686 L35.183068,50.14384 C34.4542847,50.6205677 32.5435486,51.02 31.2331,51.02 L16.0167428,50.9950013 C14.0836037,50.995 12.5322103,50.3432271 11.2977561,49.2491296 C10.7884552,48.797736 9.50634024,47 9.0001,47 C8.44781525,47 8.0001,47.4477153 8.0001,48 C8.0001,48.5522847 8.44781525,49 9.0001,49 C7.98674562,48.4107182 7.98674562,48.4107182 8.15346862,48.5342389 C8.18790236,48.5952085 8.20813791,48.6302469 8.2411947,48.6854452 C8.33742876,48.8461369 8.45011983,49.0193466 8.58242655,49.2048624 C8.95899608,49.7328748 9.41898101,50.2564437 9.9711939,50.7458704 C11.5546782,52.1493135 13.567638,52.995 16.0151,52.995 L31.2314572,53.0199987 C32.8969774,53.02 35.1643072,52.5460232 36.2835443,51.8138421 L54.396132,39.79116 C54.8779981,39.4713086 54.9888627,38.8105968 54.6377877,38.3509815 L53.9067877,37.3939815 C52.1925583,35.2507918 49.2178224,34.6335701 46.8135974,35.9085379 L46.7238302,35.9623405 L36.0118302,43.1703405 C35.553622,43.4786644 35.4321166,44.1000615 35.7404405,44.5582698 C36.0487644,45.016478 36.6701615,45.1379834 37.1283698,44.8296595 L47.7942906,37.6526657 C49.3414067,36.8584528 51.2412954,37.2632754 52.3312312,38.625695 Z" id="Stroke-14" fill="#4B5E69" fill-rule="nonzero"></path>
            <path d="M50.1977398,35.4249175 C49.7288045,35.7166675 49.5851674,36.3333249 49.8769175,36.8022602 C50.1686675,37.2711955 50.7853249,37.4148326 51.2542602,37.1230825 L53.5382602,35.7020825 C54.0159578,35.404881 54.1545538,34.7722507 53.8448682,34.3025501 L52.8868682,32.8495501 C51.1061265,30.57944 48.0605812,29.9423251 45.5907546,31.2655329 L45.3897068,31.384986 L32.4944785,39.1431233 C32.0212386,39.427838 31.8684087,40.0422815 32.1531233,40.5155215 C32.437838,40.9887614 33.0522815,41.1415913 33.5255215,40.8568767 L46.4205215,33.0988767 L46.5782932,33.004014 C48.1495894,32.1635835 50.1339931,32.5787121 51.2659364,34.0181456 L51.611814,34.5451454 L50.1977398,35.4249175 Z" id="Stroke-16" fill="#4B5E69" fill-rule="nonzero"></path>
            <path d="M10.0002,41 C10.0002,39.3432847 11.3434847,38 13.0002,38 L27.6672,38 C28.6595718,38 29.6308754,37.7161196 30.4716363,37.1803044 L41.1147388,31.2712151 C42.4895789,30.5254125 44.1885921,30.7970571 45.289898,31.9406606 C45.6729962,32.3384724 46.3060489,32.3504002 46.7038606,31.967302 C47.1016724,31.5842038 47.1136002,30.9511511 46.730502,30.5533394 C45.0080446,28.7647279 42.330108,28.3365694 40.1523468,29.518017 L29.4486612,35.4627849 C28.8767705,35.8250863 28.2782991,36 27.6672,36 L13.0002,36 C10.2389153,36 8.0002,38.2387153 8.0002,41 C8.0002,41.5522847 8.44791525,42 9.0002,42 C9.55248475,42 10.0002,41.5522847 10.0002,41 Z" id="Stroke-18" fill="#4B5E69" fill-rule="nonzero"></path>
            <path d="M22.01,47 L31.01,47 C32.1147153,47 33.01,47.8952847 33.01,49 C33.01,50.1047153 32.1147153,51 31.01,51 L19.01,51 C18.4577153,51 18.01,51.4477153 18.01,52 C18.01,52.5522847 18.4577153,53 19.01,53 L31.01,53 C33.2192847,53 35.01,51.2092847 35.01,49 C35.01,46.7907153 33.2192847,45 31.01,45 L22.01,45 C21.4577153,45 21.01,45.4477153 21.01,46 C21.01,46.5522847 21.4577153,47 22.01,47 Z" id="Stroke-20" fill="#4B5E69" fill-rule="nonzero"></path>
        </g>
    </g>
</svg>