<?xml version="1.0" encoding="UTF-8"?>
<svg width="56px" height="50px" viewBox="0 0 56 50" version="1.1" xmlns="http://www.w3.org/2000/svg" xmlns:xlink="http://www.w3.org/1999/xlink">
    <!-- Generator: Sketch 49.3 (51167) - http://www.bohemiancoding.com/sketch -->
    <title>Icon/ Other Retirement Income</title>
    <desc>Created with Sketch.</desc>
    <defs></defs>
    <g id="Icon/-Other-Retirement-Income" stroke="none" stroke-width="1" fill="none" fill-rule="evenodd">
        <g id="Other-Retirement-Income">
            <path d="M8.6665,28.8498 C8.6665,28.8498 7.7995,25.8498 7.7995,20.8498 L3.0515,22.7988 C3.0515,22.7988 -0.5835,23.2978 0.0815,25.6708 C0.7465,28.0438 8.6665,28.8498 8.6665,28.8498" id="Fill-1" fill="#D3E5EF"></path>
            <path d="M46,28.8498 C46,28.8498 46.606,24.7958 47.604,22.2248 L51.791,22.8578 C51.791,22.8578 56.756,23.3518 55.901,25.7018 C55.046,28.0518 46,28.8498 46,28.8498" id="Fill-3" fill="#D3E5EF"></path>
            <path d="M9.78601512,25.7580615 C9.62135354,25.0353254 9.48287614,24.3102557 9.37147617,23.5828234 C7.77379473,13.1352679 11.8683091,3.96574754 18.23718,2.99170625 C24.5338836,2.02883906 31.0394077,9.47153636 32.854508,20.0109221 C33.359291,22.9448378 33.3718893,25.9806499 33.0890795,28.7502784 C33.0497291,29.1356468 33.0076907,29.4796297 32.9658454,29.7770999 C32.9412181,29.9521706 32.9225408,30.0706193 32.9127051,30.1273374 C32.8183403,30.6715007 33.182974,31.18913 33.7271374,31.2834949 C34.2713007,31.3778597 34.78893,31.013226 34.8832949,30.4690626 C34.8966975,30.3917749 34.9186872,30.25232 34.9463462,30.0556979 C34.9916446,29.7336798 35.0367499,29.3646016 35.0787336,28.9534442 C35.3785223,26.0175374 35.3652048,22.8084139 34.8255199,19.6716404 C32.8488083,8.19385801 25.5550986,-0.150569332 17.934841,1.01469054 C10.2449844,2.19076051 5.65037319,12.4802302 7.3944917,23.8853666 C7.51327038,24.6609814 7.66075834,25.4332304 7.83598488,26.2023385 C7.95866859,26.7408245 8.49465252,27.0778988 9.03313851,26.9552151 C9.57162449,26.8325314 9.90869883,26.2965475 9.78601512,25.7580615 Z" id="Stroke-5" fill="#4B5E69" fill-rule="nonzero"></path>
            <path d="M29.0111399,7.18492942 C32.4303218,2.4462323 36.8920815,0.184896751 40.6528424,1.27056675 C46.3799573,2.92486683 49.0453985,11.8464088 46.3194858,21.2822603 C45.8934184,22.7592938 45.3482087,24.1889547 44.6980658,25.5483445 C44.4597795,26.0465795 44.6705095,26.6436479 45.1687445,26.8819342 C45.6669795,27.1202205 46.2640479,26.9094905 46.5023342,26.4112555 C47.1997958,24.9529266 47.78435,23.4200957 48.2410236,21.8369607 C51.2356168,11.4710613 48.2190729,1.37433749 41.2077087,-0.650923119 C36.5118286,-2.00654673 31.2542394,0.65813582 27.3892601,6.01467058 C27.066102,6.46254034 27.1672008,7.08758187 27.6150706,7.41073993 C28.0629403,7.73389798 28.6879819,7.63279917 29.0111399,7.18492942 Z" id="Stroke-7" fill="#4B5E69" fill-rule="nonzero"></path>
            <path d="M0.307302977,27.2326153 L1.84730298,33.6626153 C3.82427706,41.9261579 10.2354271,48.2402139 18.2926994,49.8600833 C21.5249253,50.5020264 24.7529604,50.8497 27.9998,50.8497 C31.1764627,50.8497 34.3954104,50.5196171 37.5773823,49.9119489 C45.6723837,48.3810306 52.1474475,42.0269133 54.1520649,33.6935824 L55.702201,27.233016 C55.8310578,26.6959738 55.5001582,26.1561559 54.963116,26.027299 C54.4260738,25.8984422 53.8862559,26.2293418 53.757399,26.766384 L52.207399,33.226384 C50.3842609,40.8052924 44.5155811,46.5643523 37.2039748,47.9471172 C34.1392155,48.5323995 31.0449202,48.8497 27.9998,48.8497 C24.8905082,48.8497 21.7916797,48.5159425 18.6846015,47.8988573 C11.4020817,46.4347448 5.58990352,40.7105895 3.79235467,33.1970255 L2.25229702,26.7667847 C2.12366145,26.2296894 1.58397997,25.8985674 1.04688469,26.027203 C0.509789419,26.1558385 0.178667405,26.69552 0.307302977,27.2326153 Z" id="Stroke-9" fill="#4B5E69" fill-rule="nonzero"></path>
            <path d="M23.9795,18.7243 C23.8025,17.1203 22.7365,16.2863 20.5225,16.0163 C18.5915,15.7873 18.3985,15.3763 18.3375,14.8203 C18.2675,14.1853 18.8105,13.6773 19.6585,13.5833 C20.4775,13.4933 21.2205,13.7053 21.9975,14.2513 L22.3465,14.4963 L23.2255,12.8853 L22.8985,12.6583 C22.0585,12.0783 21.2615,11.7903 20.3535,11.7503 L20.2095,10.4573 C20.1725,10.1193 19.8875,9.8713 19.5745,9.9063 L19.0055,9.9693 C18.6925,10.0043 18.4685,10.3073 18.5055,10.6463 L18.6525,11.9773 C17.2705,12.4543 16.4265,13.6743 16.5875,15.1353 C16.8165,17.2033 18.4295,17.6793 20.1395,17.8873 C21.9785,18.0983 22.1565,18.4863 22.2195,19.0533 C22.2945,19.7353 21.7195,20.2803 20.8205,20.3793 C19.7875,20.4943 18.9685,20.2303 17.9975,19.4693 L17.6615,19.2063 L16.7045,20.7563 L17.0215,21.0013 C17.9145,21.6913 18.8125,22.0753 19.7815,22.1823 L19.9315,23.5423 C19.9685,23.8813 20.2535,24.1283 20.5675,24.0943 L21.1355,24.0313 C21.4485,23.9963 21.6725,23.6923 21.6355,23.3543 L21.4955,22.0833 C23.1545,21.6923 24.1625,20.3773 23.9795,18.7243" id="Fill-11" fill="#5BBF89"></path>
            <path d="M2.20442165,34.6256955 C2.62979625,35.385922 3.587608,36.44115 5.22950919,37.464796 C7.06808707,38.6110604 9.40407362,39.4434895 12.2868131,39.8400694 C12.8339447,39.9153386 13.3385002,39.5328185 13.4137694,38.9856869 C13.4890386,38.4385553 13.1065185,37.9339998 12.5593869,37.8587306 C9.95242265,37.5000892 7.88444694,36.7631658 6.28761673,35.7676194 C5.49757054,35.2750638 4.87919581,34.753756 4.41280132,34.2399259 C4.14896378,33.9492542 4.00056703,33.7398737 3.94977835,33.6491045 C3.68010018,33.1671375 3.07077143,32.9950435 2.58880449,33.2647217 C2.10683755,33.5343998 1.93474349,34.1437286 2.20442165,34.6256955 Z" id="Stroke-13" fill="#4B5E69" fill-rule="nonzero"></path>
            <path d="M36.3437692,44.8491457 C36.4836445,44.8440832 36.7351199,44.8303469 37.0824596,44.8040583 C37.6555197,44.760686 38.292623,44.6969829 38.9781343,44.6090029 C40.9394582,44.3572822 42.9023816,43.9606507 44.7443532,43.3847752 C48.6006758,42.1791313 51.4357391,40.3523988 52.7763686,37.7102916 C53.0262729,37.2177814 52.8296019,36.6159356 52.3370916,36.3660314 C51.8445814,36.1161271 51.2427356,36.3127981 50.9928314,36.8053084 C49.9488632,38.8627565 47.5387852,40.4156558 44.1475583,41.4758918 C42.4289992,42.0131835 40.5770683,42.3873877 38.7235381,42.6252739 C38.0738503,42.7086563 37.471126,42.7689218 36.9315203,42.8097621 C36.6112605,42.8340011 36.3858792,42.8463121 36.2714308,42.8504543 C35.7195074,42.87043 35.2882786,43.3340459 35.3082543,43.8859692 C35.32823,44.4378926 35.7918459,44.8691214 36.3437692,44.8491457 Z" id="Stroke-15" fill="#4B5E69" fill-rule="nonzero"></path>
            <path d="M24.7652967,38.8426338 C24.8376739,38.8513456 24.9705303,38.8658479 25.1593339,38.8841812 C25.4697913,38.9143273 25.8270679,38.9443739 26.2266425,38.9723568 C30.0417658,39.2395363 34.229453,39.1365713 38.1961028,38.393963 C39.0692209,38.230504 39.9139005,38.0377105 40.7270829,37.8139706 C41.2595796,37.6674589 41.5724823,37.1170139 41.4259706,36.5845171 C41.2794589,36.0520204 40.7290139,35.7391177 40.1965171,35.8856294 C39.4385837,36.0941679 38.6479815,36.2746186 37.8280708,36.4281165 C34.0550039,37.1344836 30.0261393,37.2335435 26.3663637,36.9772432 C25.9850419,36.9505386 25.6455949,36.9219915 25.3526294,36.8935438 C25.1793793,36.8767209 25.0617386,36.8638794 25.0043033,36.8569662 C24.4559764,36.7909663 23.9579661,37.1819697 23.8919662,37.7302967 C23.8259663,38.2786236 24.2169697,38.7766339 24.7652967,38.8426338 Z" id="Stroke-17" fill="#4B5E69" fill-rule="nonzero"></path>
            <path d="M1.00755523,25.3010957 C1.09358799,24.9736215 1.84993946,24.4034557 3.28509763,23.8408084 C4.02681704,23.5366463 4.89942875,23.2608344 5.91045981,23.0104839 C6.64296539,22.8146431 7.39075749,22.6417009 8.16161036,22.4912906 C8.70367265,22.3855223 9.05735884,21.8603519 8.95159059,21.3182896 C8.84582234,20.7762274 8.32065193,20.4225412 7.77858964,20.5283094 C6.96260735,20.6875255 6.17012602,20.8708029 5.41159062,21.0737913 C4.32922842,21.3416238 3.36499275,21.6463958 2.54054364,21.9846314 C0.444200803,22.8063609 -0.808381339,23.7798868 -0.981022022,25.0668446 C-0.997212564,25.1770514 -0.9999,25.2484666 -0.9999,25.3498 C-0.9999,29.3517415 11.7226243,31.8498 28.0001,31.8498 C29.914137,31.8498 31.7045398,31.8172016 33.3905293,31.7489824 C47.2365445,31.2230516 57.0001,28.9237945 57.0001,25.3498 C57.0001,23.0695598 53.5506749,21.5173185 47.5141663,20.3868862 C46.9713179,20.2852292 46.4488432,20.6428854 46.3471862,21.1857337 C46.2455292,21.7285821 46.6031854,22.2510568 47.1460337,22.3527138 C52.0883063,23.278233 55.0001,24.5885402 55.0001,25.3498 C55.0001,25.9480732 52.9657351,27.0305035 49.2833765,27.8976762 C45.2346911,28.8511166 39.6005664,29.511658 33.3121429,29.7505206 C31.6520843,29.8176876 29.8883707,29.8498 28.0001,29.8498 C20.5343311,29.8498 13.5431708,29.269323 8.39527039,28.2585365 C3.74940088,27.3463233 1.04319036,26.0994552 1.00061014,25.3672397 C1.00365746,25.345278 1.00597399,25.3232178 1.00755523,25.3010957 Z" id="Stroke-19" fill="#4B5E69" fill-rule="nonzero"></path>
        </g>
    </g>
</svg>