<?xml version="1.0" encoding="UTF-8"?>
<svg width="61px" height="56px" viewBox="0 0 61 56" version="1.1" xmlns="http://www.w3.org/2000/svg" xmlns:xlink="http://www.w3.org/1999/xlink">
    <!-- Generator: Sketch 49.3 (51167) - http://www.bohemiancoding.com/sketch -->
    <title>Icon/ Own Business</title>
    <desc>Created with Sketch.</desc>
    <defs>
        <polygon id="path-1" points="3.9999 56 1.27054942e-21 56 1.27054942e-21 0 61 0 61 56 3.9999 56 7.9998 56 7.9998 52 -3.10472405e-06 52 -3.10472405e-06 56"></polygon>
        <polygon id="path-3" points="0 56 61 56 61 0 0 0"></polygon>
    </defs>
    <g id="Icon/-Own-Business" stroke="none" stroke-width="1" fill="none" fill-rule="evenodd">
        <g id="Own-Business">
            <path d="M51,7 L11,7 L11,1 C11,0.448 11.448,0 12,0 L50,0 C50.552,0 51,0.448 51,1 L51,7 Z" id="Fill-1" fill="#F4877A"></path>
            <g id="Group-5">
                <mask id="mask-2" fill="white">
                    <use xlink:href="#path-1"></use>
                </mask>
                <g id="Clip-4"></g>
                <path d="M6.9678,56 C3.7268,56 -2.7632,55.081 1.2938,53.241 C2.4868,52.699 5.0228,52.294 7.9998,52 L7.9998,56" id="Fill-3" fill="#D3E5EF" mask="url(#mask-2)"></path>
            </g>
            <path d="M54.9033,56 C57.7393,56 63.4183,55.081 59.8673,53.241 C58.8243,52.699 56.6053,52.294 54.0003,52 L54.0003,56" id="Fill-6" fill="#D3E5EF"></path>
            <path d="M9,54 L9,25.02 C9,24.4677153 8.55228475,24.02 8,24.02 C7.44771525,24.02 7,24.4677153 7,25.02 L7,55 C7,55.5522847 7.44771525,56 8,56 L54,56 C54.5522847,56 55,55.5522847 55,55 L55,25 C55,24.4477153 54.5522847,24 54,24 C53.4477153,24 53,24.4477153 53,25 L53,54 L9,54 Z" id="Stroke-8" fill="#4B5E69" fill-rule="nonzero"></path>
            <path d="M44,42 L44,45 C44,45.5522847 44.4477153,46 45,46 C45.5522847,46 46,45.5522847 46,45 L46,42 C46,41.4477153 45.5522847,41 45,41 C44.4477153,41 44,41.4477153 44,42 Z" id="Stroke-10" fill="#4B5E69" fill-rule="nonzero"></path>
            <mask id="mask-4" fill="white">
                <use xlink:href="#path-3"></use>
            </mask>
            <g id="Clip-13"></g>
            <path d="M37,56 C36.4477153,56 36,55.5522847 36,55 L36,32 C36,31.4477153 36.4477153,31 37,31 L49,31 C49.5522847,31 50,31.4477153 50,32 L50,55 C50,55.5522847 49.5522847,56 49,56 L37,56 Z M48,54 L48,33 L38,33 L38,54 L48,54 Z" id="Stroke-12" fill="#4B5E69" fill-rule="nonzero" mask="url(#mask-4)"></path>
            <polygon id="Fill-14" fill="#D3E5EF" mask="url(#mask-4)" points="14 44 31 44 31 32 14 32"></polygon>
            <path d="M14,45 C13.4477153,45 13,44.5522847 13,44 L13,32 C13,31.4477153 13.4477153,31 14,31 L31,31 C31.5522847,31 32,31.4477153 32,32 L32,44 C32,44.5522847 31.5522847,45 31,45 L14,45 Z M30,43 L30,33 L15,33 L15,43 L30,43 Z" id="Stroke-15" fill="#4B5E69" fill-rule="nonzero" mask="url(#mask-4)"></path>
            <path d="M3.00016602,17.0172437 C2.99239692,17.9596358 3.37838836,18.8766218 4.09894275,19.6035391 C4.97542374,20.4865916 6.25105129,21 7.5942,21 C9.34280246,21 10.9131714,20.1431858 11.6976022,18.7882601 L12.5636022,17.2912601 C12.9488031,16.6253875 13.9101809,16.6256281 14.2950484,17.2916935 L15.160075,18.7887397 C15.942478,20.1429609 17.517373,21 19.2762,21 C21.0248025,21 22.5951714,20.1431858 23.3796022,18.7882601 L24.2456022,17.2912601 C24.6308031,16.6253875 25.5921809,16.6256281 25.9770484,17.2916935 L26.8418507,18.7883515 C27.6252382,20.1428748 29.2002915,21 30.9582,21 C32.7077214,21 34.2779318,20.1432724 35.0618529,18.787827 L35.9288529,17.290827 C36.3142755,16.6253396 37.2752921,16.6258206 37.6600484,17.2916935 L38.525075,18.7887397 C39.3074271,20.1428728 40.8822555,21 42.6402,21 C44.3896852,21 45.9601201,20.1432745 46.7446022,18.7882601 L47.6106022,17.2912601 C47.9958031,16.6253875 48.9571809,16.6256281 49.3420484,17.2916935 L50.207075,18.7887397 C50.9892997,20.1426523 52.5649905,21 54.3232,21 C56.8783301,21 58.9162,19.1781916 58.9197375,16.915961 L58.9455521,16.6098743 L50.0105153,7 L11.990214,7 L3.00018172,16.6797637 L3.00016602,17.0172437 Z M13.4286998,19.7899091 C12.2770996,21.7790368 10.0393183,23 7.5942,23 C5.72636257,23 3.9376507,22.2800879 2.67899192,21.0119918 C1.58859514,19.9119668 0.987996633,18.4851464 1.0002,17.009 L1.0002,16.287 C1.0002,16.0345564 1.09567717,15.7914536 1.26746993,15.6064806 L10.8214699,5.3194806 C11.0106791,5.11575498 11.2761636,5 11.5542,5 L50.4462,5 C50.7240438,5 50.9893624,5.11559525 51.1785532,5.31907507 L60.7115532,15.5720751 C60.9034435,15.7784583 60.9993454,16.0562276 60.9756625,16.337039 L60.9162,17 C60.9162,20.3358206 57.9360562,23 54.3232,23 C51.8692007,23 49.6253441,21.779232 48.4756998,19.7899091 C47.3240231,21.779169 45.0861586,23 42.6402,23 C40.1861338,23 37.942968,21.7791188 36.7933516,19.7893065 C35.6423394,21.7789502 33.4043994,23 30.9582,23 C28.5046224,23 26.2617367,21.7795831 25.1107,19.7899088 C23.9590996,21.7790368 21.7213183,23 19.2762,23 C16.8215412,23 14.5784971,21.779497 13.4286998,19.7899091 Z" id="Stroke-16" fill="#4B5E69" fill-rule="nonzero" mask="url(#mask-4)"></path>
        </g>
    </g>
</svg>