<?xml version="1.0" encoding="UTF-8"?>
<svg width="57px" height="58px" viewBox="0 0 57 58" version="1.1" xmlns="http://www.w3.org/2000/svg" xmlns:xlink="http://www.w3.org/1999/xlink">
    <!-- Generator: Sketch 49.3 (51167) - http://www.bohemiancoding.com/sketch -->
    <title>Icon/ Own Home</title>
    <desc>Created with Sketch.</desc>
    <defs>
        <polygon id="path-1" points="0 58 56.868 58 56.868 0 0 0"></polygon>
    </defs>
    <g id="Icon/-Own-Home" stroke="none" stroke-width="1" fill="none" fill-rule="evenodd">
        <g id="Own-Home">
            <path d="M7.4016,58 C4.1606,58 -2.3294,57.081 1.7276,55.241 C2.9206,54.699 5.4566,54.294 8.4336,54 L8.4336,58 L7.4016,58 Z" id="Fill-1" fill="#D3E5EF"></path>
            <path d="M49.469,58 C52.709,58 59.196,57.081 55.14,55.241 C53.948,54.699 51.413,54.294 48.437,54 L48.437,58" id="Fill-3" fill="#D3E5EF"></path>
            <mask id="mask-2" fill="white">
                <use xlink:href="#path-1"></use>
            </mask>
            <g id="Clip-6"></g>
            <path d="M16.434,53 C15.8817153,53 15.434,52.5522847 15.434,52 L15.434,32 C15.434,31.4477153 15.8817153,31 16.434,31 L27.434,31 C27.9862847,31 28.434,31.4477153 28.434,32 L28.434,52 C28.434,52.5522847 27.9862847,53 27.434,53 L16.434,53 Z M26.434,51 L26.434,33 L17.434,33 L17.434,51 L26.434,51 Z" id="Stroke-5" fill="#4B5E69" fill-rule="nonzero" mask="url(#mask-2)"></path>
            <polygon id="Fill-7" fill="#D3E5EF" mask="url(#mask-2)" points="33.434 43 42.434 43 42.434 32 33.434 32"></polygon>
            <path d="M33.434,44 C32.8817153,44 32.434,43.5522847 32.434,43 L32.434,32 C32.434,31.4477153 32.8817153,31 33.434,31 L42.434,31 C42.9862847,31 43.434,31.4477153 43.434,32 L43.434,43 C43.434,43.5522847 42.9862847,44 42.434,44 L33.434,44 Z M41.434,42 L41.434,33 L34.434,33 L34.434,42 L41.434,42 Z" id="Stroke-8" fill="#4B5E69" fill-rule="nonzero" mask="url(#mask-2)"></path>
            <path d="M22.4339,41 L22.4339,44 C22.4339,44.5522847 22.8816153,45 23.4339,45 C23.9861847,45 24.4339,44.5522847 24.4339,44 L24.4339,41 C24.4339,40.4477153 23.9861847,40 23.4339,40 C22.8816153,40 22.4339,40.4477153 22.4339,41 Z" id="Stroke-9" fill="#4B5E69" fill-rule="nonzero" mask="url(#mask-2)"></path>
            <path d="M42.4339,11 L42.4339,5 C42.4339,4.448 42.8819,4 43.4339,4 L49.4339,4 C49.9859,4 50.4339,4.448 50.4339,5 L50.4339,18" id="Fill-10" fill="#F4877A" mask="url(#mask-2)"></path>
            <path d="M52.693521,25.5910631 L54.4581374,23.4850947 L28.9953083,2.19778436 C28.6674034,1.93366505 28.2002695,1.93366505 27.8859941,2.18621156 L2.40906574,23.4850984 L4.17367899,25.5910631 L27.7911556,5.79166771 C28.1627926,5.48011076 28.7044074,5.48011076 29.0760444,5.79166771 L52.693521,25.5910631 Z M28.4336,7.86291696 L4.69204441,27.7663323 C4.26873615,28.1212071 3.63787678,28.06565 3.28310754,27.6422533 L0.233107536,24.0022533 C-0.121880212,23.5785958 -0.0658490943,22.9473013 0.358205875,22.5927884 L26.6178562,0.639774646 C27.6789305,-0.213665047 29.1897966,-0.213665047 30.2639941,0.651788441 L56.5089941,22.5927884 C56.9330491,22.9473013 56.9890802,23.5785958 56.6340925,24.0022533 L53.5840925,27.6422533 C53.2293232,28.06565 52.5984638,28.1212071 52.1751556,27.7663323 L28.4336,7.86291696 Z" id="Stroke-11" fill="#4B5E69" fill-rule="nonzero" mask="url(#mask-2)"></path>
            <path d="M13.434,58 C12.8817153,58 12.434,57.5522847 12.434,57 L12.434,52 C12.434,51.4477153 12.8817153,51 13.434,51 L30.434,51 C30.9862847,51 31.434,51.4477153 31.434,52 L31.434,57 C31.434,57.5522847 30.9862847,58 30.434,58 L13.434,58 Z M29.434,56 L29.434,53 L14.434,53 L14.434,56 L29.434,56 Z" id="Stroke-12" fill="#4B5E69" fill-rule="nonzero" mask="url(#mask-2)"></path>
            <path d="M9.4339,56 L9.4339,24 C9.4339,23.4477153 8.98618475,23 8.4339,23 C7.88161525,23 7.4339,23.4477153 7.4339,24 L7.4339,57 C7.4339,57.5522847 7.88161525,58 8.4339,58 L48.4339,58 C48.9861847,58 49.4339,57.5522847 49.4339,57 L49.4339,24 C49.4339,23.4477153 48.9861847,23 48.4339,23 C47.8816153,23 47.4339,23.4477153 47.4339,24 L47.4339,56 L9.4339,56 Z" id="Stroke-13" fill="#4B5E69" fill-rule="nonzero" mask="url(#mask-2)"></path>
        </g>
    </g>
</svg>