<?xml version="1.0" encoding="UTF-8"?>
<svg width="54px" height="54px" viewBox="0 0 54 54" version="1.1" xmlns="http://www.w3.org/2000/svg" xmlns:xlink="http://www.w3.org/1999/xlink">
    <!-- Generator: Sketch 49.3 (51167) - http://www.bohemiancoding.com/sketch -->
    <title>Icon/ Pencil</title>
    <desc>Created with Sketch.</desc>
    <defs>
        <polygon id="path-1" points="5.757 -0.00025 5.757 5 3.257025 5 0.75705 5 0.75705 -0.00025 5.757 -0.00025"></polygon>
    </defs>
    <g id="Icon/-Pencil" stroke="none" stroke-width="1" fill="none" fill-rule="evenodd">
        <g id="Page-1">
            <path d="M51.7573,52.7545 L43.7573,52.7545 C43.4923,52.7545 43.2373,52.6495 43.0503,52.4615 L5.5503,14.9615 C5.1593,14.5705 5.1593,13.9385 5.5503,13.5475 C5.9413,13.1565 6.5733,13.1565 6.9643,13.5475 L44.1713,50.7545 L51.7573,50.7545 C52.3093,50.7545 52.7573,51.2015 52.7573,51.7545 C52.7573,52.3075 52.3093,52.7545 51.7573,52.7545" id="Fill-1" fill="#4F5661"></path>
            <path d="M51.7573,52.7545 C51.2053,52.7545 50.7573,52.3075 50.7573,51.7545 L50.7573,44.1685 L13.5503,6.9615 C13.1593,6.5705 13.1593,5.9385 13.5503,5.5475 C13.9413,5.1565 14.5733,5.1565 14.9643,5.5475 L52.4643,43.0475 C52.6523,43.2345 52.7573,43.4885 52.7573,43.7545 L52.7573,51.7545 C52.7573,52.3075 52.3093,52.7545 51.7573,52.7545" id="Fill-3" fill="#4F5661"></path>
            <path d="M41.9478,42.9449 C41.6918,42.9449 41.4358,42.8469 41.2408,42.6519 L16.5508,17.9619 C16.1598,17.5709 16.1598,16.9379 16.5508,16.5479 C16.9408,16.1569 17.5738,16.1569 17.9648,16.5479 L42.6548,41.2379 C43.0458,41.6289 43.0458,42.2609 42.6548,42.6519 C42.4598,42.8469 42.2038,42.9449 41.9478,42.9449" id="Fill-5" fill="#4F5661"></path>
            <path d="M43.7563,52.7545 C43.2893,52.7545 42.8713,52.4265 42.7773,51.9505 L41.7773,46.9505 C41.7173,46.6565 41.7943,46.3525 41.9843,46.1205 C42.1733,45.8895 42.4573,45.7545 42.7573,45.7545 L46.7573,45.7545 C47.3093,45.7545 47.7573,46.2015 47.7573,46.7545 C47.7573,47.3075 47.3093,47.7545 46.7573,47.7545 L43.9773,47.7545 L44.7373,51.5585 C44.8463,52.1005 44.4953,52.6265 43.9533,52.7345 C43.8873,52.7485 43.8213,52.7545 43.7563,52.7545" id="Fill-7" fill="#4F5661"></path>
            <path d="M46.7573,47.7545 C46.2053,47.7545 45.7573,47.3075 45.7573,46.7545 L45.7573,42.7545 C45.7573,42.4545 45.8913,42.1715 46.1233,41.9815 C46.3553,41.7915 46.6573,41.7155 46.9533,41.7745 L51.9533,42.7745 C52.4953,42.8825 52.8463,43.4085 52.7373,43.9505 C52.6293,44.4925 52.1043,44.8455 51.5613,44.7345 L47.7573,43.9745 L47.7573,46.7545 C47.7573,47.3075 47.3093,47.7545 46.7573,47.7545" id="Fill-9" fill="#4F5661"></path>
            <g id="Group-13" transform="translate(48.000000, 48.754500)">
                <mask id="mask-2" fill="white">
                    <use xlink:href="#path-1"></use>
                </mask>
                <g id="Clip-12"></g>
                <path d="M4.7573,5 C4.5013,5 4.2453,4.902 4.0503,4.707 L1.0503,1.707 C0.6593,1.316 0.6593,0.684 1.0503,0.293 C1.4413,-0.098 2.0733,-0.098 2.4643,0.293 L5.4643,3.293 C5.8553,3.684 5.8553,4.316 5.4643,4.707 C5.2693,4.902 5.0133,5 4.7573,5" id="Fill-11" fill="#4F5661" mask="url(#mask-2)"></path>
            </g>
            <path d="M13.2573,5.2545 L5.2573,13.2545 L1.8783,9.8755 C0.7073,8.7045 0.7073,6.8055 1.8783,5.6335 L5.6363,1.8755 C6.8073,0.7045 8.7073,0.7045 9.8783,1.8755 L13.2573,5.2545 Z" id="Fill-14" fill="#F4877A"></path>
            <path d="M7.7573,1.9986 C7.2453,1.9986 6.7333,2.1926 6.3433,2.5826 L2.5853,6.3406 C2.2083,6.7186 2.0003,7.2206 2.0003,7.7546 C2.0003,8.2886 2.2083,8.7906 2.5853,9.1686 L5.2573,11.8406 L11.8433,5.2546 L9.1713,2.5826 C8.7813,2.1926 8.2693,1.9986 7.7573,1.9986 M5.2573,14.2546 C5.0013,14.2546 4.7453,14.1566 4.5503,13.9616 L1.1713,10.5826 C0.4163,9.8276 0.0003,8.8226 0.0003,7.7546 C0.0003,6.6856 0.4163,5.6826 1.1713,4.9266 L4.9293,1.1686 C6.4893,-0.3904 9.0273,-0.3894 10.5853,1.1686 L13.9643,4.5476 C14.3553,4.9376 14.3553,5.5706 13.9643,5.9616 L5.9643,13.9616 C5.7693,14.1566 5.5133,14.2546 5.2573,14.2546" id="Fill-16" fill="#F4877A"></path>
            <path d="M4.7573,15.7545 C4.5013,15.7545 4.2453,15.6565 4.0503,15.4615 C3.6593,15.0705 3.6593,14.4385 4.0503,14.0475 L14.0503,4.0475 C14.4413,3.6565 15.0733,3.6565 15.4643,4.0475 C15.8553,4.4385 15.8553,5.0705 15.4643,5.4615 L5.4643,15.4615 C5.2693,15.6565 5.0133,15.7545 4.7573,15.7545" id="Fill-18" fill="#4F5661"></path>
            <path d="M7.7573,18.7545 C7.5013,18.7545 7.2453,18.6565 7.0503,18.4615 C6.6593,18.0705 6.6593,17.4385 7.0503,17.0475 L17.0503,7.0475 C17.4413,6.6565 18.0733,6.6565 18.4643,7.0475 C18.8553,7.4385 18.8553,8.0705 18.4643,8.4615 L8.4643,18.4615 C8.2693,18.6565 8.0133,18.7545 7.7573,18.7545" id="Fill-20" fill="#4F5661"></path>
        </g>
    </g>
</svg>