<?xml version="1.0" encoding="UTF-8"?>
<svg width="45px" height="59px" viewBox="0 0 45 59" version="1.1" xmlns="http://www.w3.org/2000/svg" xmlns:xlink="http://www.w3.org/1999/xlink">
    <!-- Generator: Sketch 49.3 (51167) - http://www.bohemiancoding.com/sketch -->
    <title>Icon/ Personal Info</title>
    <desc>Created with Sketch.</desc>
    <defs></defs>
    <g id="Icon/-Personal-Info" stroke="none" stroke-width="1" fill="none" fill-rule="evenodd">
        <g id="Personal-Info" transform="translate(-1.000000, 0.000000)">
            <path d="M34.6382,9.7324 C33.0142,4.6514 29.1052,0.9844 23.2392,0.9844 C16.0542,0.9844 11.2792,6.5464 11.2792,13.3884 C11.2792,13.3884 13.3352,14.6344 17.2382,10.9184 C18.6462,11.9284 20.8662,13.2224 23.7832,13.9994 C29.5142,15.5244 33.2792,14.0824 35.2792,13.4034" id="Fill-1" fill="#D3E5EF"></path>
            <polyline id="Fill-3" fill="#F4877A" points="15.9102 36 11.2792 39 17.9842 50 22.2792 47.833"></polyline>
            <polygon id="Fill-5" fill="#F4877A" points="30.8496 36 35.2796 39 28.3966 50 23.9666 47.833"></polygon>
            <path d="M22.2793,48.2703491 L15.482363,36.6184571 L11.6101207,38.8649717 C11.4576694,38.9534176 11.2845501,39 11.1083,39 C8.84532654,39 6.64422066,40.2333763 4.98223495,42.4797172 L2.20099389,46.2393811 C6.49652229,53.1984505 13.9802695,57.6479336 22.2793,57.9800165 L22.2793,48.2703491 Z M24.2793,48.2703491 L24.2793,57.9800167 C32.5681589,57.6483386 40.0420172,53.2091509 44.3476888,46.2578719 L41.5545945,42.4873164 C39.9036185,40.2415564 37.6935169,39 35.4303,39 C35.2534788,39 35.0798193,38.9531154 34.9270236,38.8641255 L31.0749625,36.620642 L24.2793,48.2703491 Z M15.2793,34.4240513 L15.2793,30.5359843 C12.3934007,27.9875676 10.2792,24.3325764 10.2792,20.6116 L10.2792,17.0156 C10.2792,16.4633153 10.7269153,16.0156 11.2792,16.0156 C11.8314847,16.0156 12.2792,16.4633153 12.2792,17.0156 L12.2792,20.6116 C12.2792,26.2782676 18.4229169,31.9996 23.2792,31.9996 C28.1084349,31.9996 34.2792,26.2655844 34.2792,20.6116 L34.2792,14.8064701 C34.2264574,14.8229806 34.1738377,14.8392652 34.1210321,14.8554149 C30.8302725,15.8618387 27.5547765,16.0530022 23.5258054,14.9809064 C21.183157,14.3568961 19.1089474,13.3834321 17.32562,12.2073256 C14.851984,14.3657794 12.7850178,14.9352383 11.2332535,14.4601834 C11.0286401,14.3975433 10.8710131,14.3255308 10.7609167,14.258809 C10.4618615,14.0775722 10.2792,13.7532867 10.2792,13.4036 C10.2792,5.80667285 15.688382,-0.0004 23.2392,-0.0004 C29.2558483,-0.0004 33.7328906,3.63054331 35.5907286,9.4431508 C35.7588712,9.9692178 35.4687162,10.5319859 34.9426492,10.7001286 C34.4165822,10.8682712 33.8538141,10.5781162 33.6856714,10.0520492 C32.0811801,5.0320858 28.3420506,1.9996 23.2392,1.9996 C17.0897274,1.9996 12.6564141,6.48745714 12.3020935,12.607215 C12.5402107,12.6024807 12.825236,12.5564189 13.1611609,12.4523516 C14.1187256,12.1557042 15.2500243,11.4457681 16.548656,10.2093562 C16.8965382,9.87814165 17.4307699,9.84106079 17.8210747,10.121038 C19.5619525,11.369821 21.647654,12.4108871 24.0403484,13.0482281 C27.6779427,14.0161798 30.5805092,13.8467811 33.5361092,12.9428603 C33.7777203,12.8689676 34.0173868,12.7912853 34.2906841,12.6992214 C34.4412407,12.6485043 34.9133895,12.4867338 34.9577217,12.4716831 C35.6062555,12.2515058 36.2792,12.7337101 36.2792,13.4186 L36.2792,20.6116 C36.2792,24.3212576 34.1623038,27.9720465 31.2793,30.5218513 L31.2793,34.4251719 L35.7083406,37.0046947 C38.5403971,37.1003645 41.2189905,38.6542334 43.1638473,41.2997591 L46.3528473,45.6047591 C46.5909576,45.9261968 46.6145992,46.3586074 46.412952,46.7040885 C41.6471721,54.8692731 32.9056372,60 23.2793,60 C13.6423439,60 4.8893905,54.8576327 0.135850948,46.6837204 C-0.0648408616,46.3386224 -0.0410529474,45.9072229 0.196365051,45.5862828 L3.37440564,41.2902279 C5.33229731,38.6439402 8.00136558,37.0994653 10.8312254,37.00464 L15.2793,34.4240513 Z M29.2793,32.0339943 C27.3516088,33.2651456 25.2488485,33.9996 23.2792,33.9996 C21.3045447,33.9996 19.2035534,33.2696365 17.2793,32.0446257 L17.2793,35.7296509 L23.2793,46.0153651 L29.2793,35.7296509 L29.2793,32.0339943 Z M18.9524937,24.4984711 C18.6771957,24.019692 18.8421497,23.4083917 19.3209289,23.1330937 C19.799708,22.8577957 20.4110083,23.0227497 20.6863063,23.5015289 C21.2166479,24.4238621 22.1940247,25 23.2794,25 C24.3647753,25 25.3421521,24.4238621 25.8724937,23.5015289 C26.1477917,23.0227497 26.759092,22.8577957 27.2378711,23.1330937 C27.7166503,23.4083917 27.8816043,24.019692 27.6063063,24.4984711 C26.7222212,26.0360105 25.0868818,27 23.2794,27 C21.4719182,27 19.8365788,26.0360105 18.9524937,24.4984711 Z" id="Combined-Shape" fill="#4B5E69" fill-rule="nonzero"></path>
        </g>
    </g>
</svg>