<?xml version="1.0" encoding="UTF-8"?>
<svg width="59px" height="61px" viewBox="0 0 59 61" version="1.1" xmlns="http://www.w3.org/2000/svg" xmlns:xlink="http://www.w3.org/1999/xlink">
    <!-- Generator: Sketch 49.3 (51167) - http://www.bohemiancoding.com/sketch -->
    <title>Icon/ Personalized to you</title>
    <desc>Created with Sketch.</desc>
    <defs></defs>
    <g id="Icon/-Personalized-to-you" stroke="none" stroke-width="1" fill="none" fill-rule="evenodd">
        <g id="Personalized-to-you" transform="translate(1.000000, 1.000000)">
            <path d="M46.7162,35.0625 C46.3752,35.0625 46.0322,34.9465 45.7522,34.7115 L40.3152,30.1495 C39.6802,29.6165 39.5972,28.6705 40.1302,28.0365 C40.6622,27.4025 41.6082,27.3185 42.2432,27.8505 L46.4542,31.3835 C48.2312,29.0485 51.3562,25.4045 55.0072,23.2135 C55.7172,22.7865 56.6392,23.0175 57.0652,23.7285 C57.4912,24.4385 57.2612,25.3605 56.5512,25.7865 C52.6172,28.1465 49.2752,32.5405 48.0202,34.3195 C47.8832,34.5125 47.7912,34.6095 47.7772,34.6235 C47.4862,34.9155 47.1012,35.0625 46.7162,35.0625" id="Fill-1" fill="#53C27C"></path>
            <path d="M34.6381,9.7324 C33.0141,4.6524 29.1051,0.9854 23.2391,0.9854 C16.0551,0.9854 11.2791,6.5464 11.2791,13.3884 C11.2791,13.3884 13.3351,14.6344 17.2381,10.9184 C18.6461,11.9284 20.8661,13.2224 23.7831,13.9994 C29.5141,15.5244 33.2791,14.0824 35.2791,13.4034" id="Fill-4" fill="#D3E5EF"></path>
            <polyline id="Fill-6" fill="#F4877A" points="15.9101 36 11.2791 39 17.9841 50 22.2791 47.833"></polyline>
            <polygon id="Fill-8" fill="#F4877A" points="30.8495 36 35.2795 39 28.3965 50 23.9665 47.833"></polygon>
            <g id="Group-12" fill="#4F5661">
                <path d="M24.2792,57.9678 L24.2792,48.2708 L31.0752,36.6208 L34.9272,38.8638 C35.0802,38.9528 35.2542,38.9998 35.4302,38.9998 C37.6922,38.9998 39.9252,40.2708 41.5562,42.4888 L44.3472,46.2568 C40.0242,53.2338 32.4552,57.6328 24.2792,57.9678 M2.2002,46.2388 L4.9832,42.4798 C6.6422,40.2358 8.8172,38.9998 11.1082,38.9998 C11.2842,38.9998 11.4582,38.9528 11.6102,38.8648 L15.4822,36.6188 L22.2792,48.2708 L22.2792,57.9678 C14.0892,57.6328 6.5172,53.2258 2.2002,46.2388 M23.2792,33.9998 C25.1232,33.9998 27.2672,33.2498 29.2792,31.9758 L29.2792,35.7298 L23.2792,46.0158 L17.2792,35.7298 L17.2792,31.9968 C19.3122,33.2678 21.4682,33.9998 23.2792,33.9998 M46.3522,45.6048 L43.1662,41.3018 C41.2192,38.6558 38.5142,37.1018 35.7092,37.0048 L31.2792,34.4248 L31.2792,30.4848 C31.4262,30.3568 31.5792,30.2378 31.7222,30.1038 C34.6612,27.3728 36.2792,24.0018 36.2792,20.6118 L36.2792,13.4178 C36.2792,13.0958 36.1242,12.7928 35.8622,12.6058 C35.6002,12.4168 35.2642,12.3688 34.9572,12.4708 L34.6982,12.5598 C32.6582,13.2598 29.2412,14.4348 24.0402,13.0468 C21.2302,12.2998 19.1072,11.0428 17.8212,10.1208 C17.4312,9.8398 16.8952,9.8778 16.5492,10.2088 C14.4202,12.2368 13.0002,12.5898 12.3012,12.6078 C12.6562,6.4138 17.1462,1.9998 23.2392,1.9998 C28.2422,1.9998 32.0502,4.9348 33.6852,10.0518 C33.8532,10.5768 34.4152,10.8728 34.9422,10.6988 C35.4682,10.5308 35.7582,9.9688 35.5912,9.4428 C33.7012,3.5298 29.0832,-0.0002 23.2392,-0.0002 C15.8512,-0.0002 10.2792,5.7618 10.2792,13.4038 C10.2792,13.7528 10.4622,14.0768 10.7612,14.2588 C11.0252,14.4178 13.3602,15.6558 17.3252,12.2058 C18.7682,13.1538 20.8692,14.2738 23.5252,14.9808 C28.4492,16.2898 32.0242,15.5138 34.2792,14.8058 L34.2792,20.6118 C34.2792,26.7878 27.5232,31.9998 23.2792,31.9998 C19.0352,31.9998 12.2792,26.7878 12.2792,20.6118 L12.2792,17.0148 C12.2792,16.4618 11.8312,16.0148 11.2792,16.0148 C10.7272,16.0148 10.2792,16.4618 10.2792,17.0148 L10.2792,20.6118 C10.2792,24.6288 12.4672,28.1138 15.2792,30.5238 L15.2792,34.4238 L10.8312,37.0048 C8.0302,37.1008 5.3262,38.6508 3.3752,41.2898 L0.1962,45.5858 C-0.0418,45.9068 -0.0648,46.3378 0.1352,46.6838 C4.9122,54.8978 13.7802,59.9998 23.2792,59.9998 C32.7622,59.9998 41.6272,54.9048 46.4122,46.7028 C46.6142,46.3578 46.5902,45.9258 46.3522,45.6048" id="Fill-10"></path>
            </g>
            <path d="M23.2792,27 C21.4972,27 19.8392,26.041 18.9522,24.498 C18.6772,24.02 18.8422,23.408 19.3212,23.133 C19.8002,22.859 20.4112,23.022 20.6862,23.502 C21.2172,24.426 22.2112,25 23.2792,25 C24.3472,25 25.3412,24.426 25.8722,23.502 C26.1482,23.023 26.7592,22.86 27.2372,23.133 C27.7162,23.408 27.8812,24.02 27.6062,24.498 C26.7192,26.041 25.0612,27 23.2792,27" id="Fill-13" fill="#4F5661"></path>
        </g>
    </g>
</svg>