<?xml version="1.0" encoding="UTF-8"?>
<svg width="58px" height="56px" viewBox="0 0 58 56" version="1.1" xmlns="http://www.w3.org/2000/svg" xmlns:xlink="http://www.w3.org/1999/xlink">
    <!-- Generator: Sketch 49.3 (51167) - http://www.bohemiancoding.com/sketch -->
    <title>Icon/ Preview taxes</title>
    <desc>Created with Sketch.</desc>
    <defs>
        <polygon id="path-1" points="51.1303231 52.2367337 51.1303231 0.247172794 0.0304707656 0.247172794 0.0304707656 52.2367337"></polygon>
    </defs>
    <g id="Icon/-Preview-taxes" stroke="none" stroke-width="1" fill="none" fill-rule="evenodd">
        <g id="Preview-taxes">
            <g id="Group-3" transform="translate(5.677782, 0.699597)">
                <mask id="mask-2" fill="white">
                    <use xlink:href="#path-1"></use>
                </mask>
                <g id="Clip-2"></g>
                <path d="M49.2379183,39.9348718 L41.6675417,39.9348718 L41.6675417,13.9391451 C41.6675417,13.68743 41.5672342,13.445178 41.3874378,13.2672741 L34.2722301,6.19938135 C34.0952726,6.02337009 33.8549131,5.9249552 33.6050907,5.9249552 L21.7953033,5.9249552 L21.7953033,2.13976693 L40.7212447,2.13976693 L40.7212447,9.71014347 C40.7212447,10.2324994 41.1442394,10.6564405 41.6675417,10.6564405 L49.2379183,10.6564405 L49.2379183,39.9348718 Z M39.7749476,14.4416288 L33.1508681,14.4416288 L33.1508681,7.81754933 L33.2152163,7.81754933 L39.7749476,14.3328046 L39.7749476,14.4416288 Z M39.7749476,45.6126542 L31.258274,45.6126542 L31.258274,18.6706304 C31.258274,18.4189154 31.1579665,18.1766633 30.97817,17.9987595 L23.8629624,10.9308667 C23.6860048,10.7548554 23.4456454,10.6564405 23.195823,10.6564405 L12.3323326,10.6564405 L12.3323326,7.81754933 L31.258274,7.81754933 L31.258274,15.3879259 C31.258274,15.9102818 31.6812688,16.3342229 32.204571,16.3342229 L39.7749476,16.3342229 L39.7749476,45.6126542 Z M29.3656798,19.1731141 L22.7416004,19.1731141 L22.7416004,12.5490347 L22.8059486,12.5490347 L29.3656798,19.06429 L29.3656798,19.1731141 Z M42.678187,2.13976693 L49.2379183,8.65502224 L49.2379183,8.7638464 L42.6138388,8.7638464 L42.6138388,2.13976693 L42.678187,2.13976693 Z M50.8504085,7.58949174 L43.7352008,0.521598943 C43.5582433,0.345587689 43.3178838,0.247172794 43.0680614,0.247172794 L20.8490062,0.247172794 C20.325704,0.247172794 19.9027092,0.670167583 19.9027092,1.19346986 L19.9027092,5.9249552 L11.3860356,5.9249552 C10.8627333,5.9249552 10.4397385,6.34794999 10.4397385,6.87125226 L10.4397385,10.6564405 L0.976767833,10.6564405 C0.453465555,10.6564405 0.0304707656,11.0794353 0.0304707656,11.6027376 L0.0304707656,39.1674249 C0.0304707656,39.6907271 0.453465555,40.1137219 0.976767833,40.1137219 C1.50007011,40.1137219 1.9230649,39.6907271 1.9230649,39.1674249 L1.9230649,12.5490347 L20.8490062,12.5490347 L20.8490062,20.1194112 C20.8490062,20.6417672 21.272001,21.0657083 21.7953033,21.0657083 L29.3656798,21.0657083 L29.3656798,50.3441395 L7.73332889,50.3441395 C7.21002661,50.3441395 6.78703182,50.7671343 6.78703182,51.2904366 C6.78703182,51.8137389 7.21002661,52.2367337 7.73332889,52.2367337 L30.3119769,52.2367337 C30.8352792,52.2367337 31.258274,51.8137389 31.258274,51.2904366 L31.258274,47.5052483 L40.7212447,47.5052483 C41.2445469,47.5052483 41.6675417,47.0822535 41.6675417,46.5589513 L41.6675417,41.8274659 L50.1842153,41.8274659 C50.7075176,41.8274659 51.1305124,41.4044711 51.1305124,40.8811689 L51.1305124,8.26136266 C51.1305124,8.00964764 51.0302049,7.76739559 50.8504085,7.58949174 Z" id="Fill-1" fill="#4F5661" mask="url(#mask-2)"></path>
            </g>
            <path d="M26.2024926,29.3823347 C24.7262692,27.9061112 22.7882528,27.1679995 20.8492901,27.1679995 C18.9103274,27.1679995 16.9713648,27.9061112 15.4960876,29.3823347 C12.5436408,32.3338352 12.5436408,37.1372391 15.4960876,40.0887397 C18.4475882,43.0411865 23.2509921,43.0411865 26.2024926,40.0887397 C29.1539932,37.1372391 29.1539932,32.3338352 26.2024926,29.3823347" id="Fill-4" fill="#D3E5EF"></path>
            <path d="M26.8715247,40.7582449 C23.5452905,44.0844791 18.1523435,44.0844791 14.8261093,40.7582449 C11.5008214,37.4320107 11.5008214,32.0390637 14.8261093,28.7128295 C18.1523435,25.3875416 23.5452905,25.3875416 26.8715247,28.7128295 C30.1977589,32.0390637 30.1977589,37.4320107 26.8715247,40.7582449" id="Fill-6" fill="#D3E5EF"></path>
            <path d="M26.2024926,40.0892128 C23.2509921,43.0407134 18.4475882,43.0407134 15.4960876,40.0892128 C12.5436408,37.1377123 12.5436408,32.3343084 15.4960876,29.3828078 C16.9713648,27.9065844 18.9103274,27.1684727 20.8492901,27.1684727 C22.7882528,27.1684727 24.7262692,27.9065844 26.2024926,29.3828078 C29.1539932,32.3343084 29.1539932,37.1377123 26.2024926,40.0892128 M27.5405567,28.0437975 C23.8518907,24.3551315 17.8466895,24.3551315 14.1570773,28.0437975 C10.6926837,31.5091373 10.4826058,37.0109085 13.5230582,40.7241782 L10.3132186,43.9330715 C9.94321643,44.3030737 9.94321643,44.9020797 10.3132186,45.2720819 C10.4977465,45.4566098 10.7399986,45.5493469 10.9822506,45.5493469 C11.2245027,45.5493469 11.4667547,45.4566098 11.6512826,45.2720819 L14.8611223,42.0622422 C16.5966311,43.4835804 18.7229606,44.1951958 20.8492901,44.1951958 C23.2718106,44.1951958 25.6962237,43.2716099 27.5405567,41.4272769 C31.230169,37.7376646 31.230169,31.734356 27.5405567,28.0437975" id="Fill-8" fill="#4F5661"></path>
            <path d="M24.1953019,31.3904717 C26.0396349,33.2348047 26.0396349,36.236459 24.1943556,38.0817382 C23.3019975,38.975989 22.1134484,39.4671171 20.8491955,39.4671171 C19.5849426,39.4671171 18.3963935,38.975989 17.5030891,38.0807919 C18.2147045,37.9672363 20.1082449,37.5660063 21.7954926,35.9591939 C23.65402,34.1886721 24.0845852,32.0765371 24.1953019,31.3904717" id="Fill-10" fill="#FFFFFF"></path>
            <path d="M13.5993298,45.3510977 L10.2333511,41.985119 C9.9797435,41.7315114 9.60217097,41.6416132 9.26528921,41.7570614 C6.60619446,42.6437418 1.85672948,47.3421067 1.32301793,47.874872 C0.470404272,48.7274856 9.46297067e-05,49.8630421 9.46297067e-05,51.0686246 C9.46297067e-05,52.274207 0.470404272,53.4097635 1.32301793,54.2614309 C2.17563159,55.1140445 3.31024177,55.5843542 4.51582423,55.5843542 C5.72235299,55.5843542 6.85696318,55.1140445 7.70957684,54.2614309 C11.1190852,50.8519225 13.6362354,46.6825377 13.7412743,46.5074727 C13.9655467,46.1346317 13.90593,45.6576979 13.5993298,45.3510977" id="Fill-12" fill="#F4877A"></path>
        </g>
    </g>
</svg>