<?xml version="1.0" encoding="UTF-8"?>
<svg width="60px" height="53px" viewBox="0 0 60 53" version="1.1" xmlns="http://www.w3.org/2000/svg" xmlns:xlink="http://www.w3.org/1999/xlink">
    <!-- Generator: Sketch 49.3 (51167) - http://www.bohemiancoding.com/sketch -->
    <title>Icon/ Printer</title>
    <desc>Created with Sketch.</desc>
    <defs>
        <polygon id="path-1" points="0 53 60 53 60 0 0 0"></polygon>
    </defs>
    <g id="Icon/-Printer" stroke="none" stroke-width="1" fill="none" fill-rule="evenodd">
        <g id="Page-1">
            <path d="M57,48 L50,48 C49.447,48 49,47.553 49,47 C49,46.447 49.447,46 50,46 L57,46 C57.552,46 58,45.552 58,45 L58,21 C58,20.448 57.552,20 57,20 L3,20 C2.448,20 2,20.448 2,21 L2,45 C2,45.552 2.448,46 3,46 L10,46 C10.553,46 11,46.447 11,47 C11,47.553 10.553,48 10,48 L3,48 C1.346,48 0,46.654 0,45 L0,21 C0,19.346 1.346,18 3,18 L57,18 C58.654,18 60,19.346 60,21 L60,45 C60,46.654 58.654,48 57,48 Z" id="Fill-1" fill="#4F5661"></path>
            <mask id="mask-2" fill="white">
                <use xlink:href="#path-1"></use>
            </mask>
            <g id="Clip-4"></g>
            <path d="M15,51 L45,51 L45,36 L15,36 L15,51 Z M53,34 L7,34 C6.447,34 6,34.447 6,35 C6,35.553 6.447,36 7,36 L13,36 L13,52 C13,52.553 13.447,53 14,53 L46,53 C46.553,53 47,52.553 47,52 L47,36 L53,36 C53.553,36 54,35.553 54,35 C54,34.447 53.553,34 53,34 Z" id="Fill-3" fill="#4F5661" mask="url(#mask-2)"></path>
            <path d="M53,25.5 C53,26.328 52.328,27 51.5,27 C50.672,27 50,26.328 50,25.5 C50,24.672 50.672,24 51.5,24 C52.328,24 53,24.672 53,25.5" id="Fill-5" fill="#53C27C" mask="url(#mask-2)"></path>
            <path d="M51.5,25 C51.225,25 51,25.225 51,25.5 C51,25.775 51.225,26 51.5,26 C51.775,26 52,25.775 52,25.5 C52,25.225 51.775,25 51.5,25 M51.5,28 C50.121,28 49,26.879 49,25.5 C49,24.121 50.121,23 51.5,23 C52.879,23 54,24.121 54,25.5 C54,26.879 52.879,28 51.5,28" id="Fill-6" fill="#53C27C" mask="url(#mask-2)"></path>
            <path d="M40,2.4141 L44.586,7.0001 L40,7.0001 L40,2.4141 Z M46.707,6.2931 L40.707,0.2931 C40.52,0.1051 40.266,0.0001 40,0.0001 L14,0.0001 C13.447,0.0001 13,0.4471 13,1.0001 L13,15.0001 C13,15.5531 13.447,16.0001 14,16.0001 C14.553,16.0001 15,15.5531 15,15.0001 L15,2.0001 L38,2.0001 L38,8.0001 C38,8.5531 38.447,9.0001 39,9.0001 L45,9.0001 L45,15.0001 C45,15.5531 45.447,16.0001 46,16.0001 C46.553,16.0001 47,15.5531 47,15.0001 L47,7.0001 C47,6.7341 46.895,6.4801 46.707,6.2931 Z" id="Fill-7" fill="#4F5661" mask="url(#mask-2)"></path>
            <path d="M40,41 L20,41 C19.447,41 19,40.553 19,40 C19,39.447 19.447,39 20,39 L40,39 C40.553,39 41,39.447 41,40 C41,40.553 40.553,41 40,41" id="Fill-8" fill="#D3E5EF" mask="url(#mask-2)"></path>
            <path d="M40,45 L24,45 C23.447,45 23,44.553 23,44 C23,43.447 23.447,43 24,43 L40,43 C40.553,43 41,43.447 41,44 C41,44.553 40.553,45 40,45" id="Fill-9" fill="#D3E5EF" mask="url(#mask-2)"></path>
            <path d="M7,36 C7,36 12,38 13,47 L13,36 L7,36 Z" id="Fill-10" fill="#D3E5EF" mask="url(#mask-2)"></path>
            <path d="M53,36 C53,36 48,38 47,47 L47,36 L53,36 Z" id="Fill-11" fill="#D3E5EF" mask="url(#mask-2)"></path>
        </g>
    </g>
</svg>