<?xml version="1.0" encoding="UTF-8"?>
<svg width="61px" height="60px" viewBox="0 0 61 60" version="1.1" xmlns="http://www.w3.org/2000/svg" xmlns:xlink="http://www.w3.org/1999/xlink">
    <!-- Generator: Sketch 49.3 (51167) - http://www.bohemiancoding.com/sketch -->
    <title>Icon/ Priority Care</title>
    <desc>Created with Sketch.</desc>
    <defs>
        <polygon id="path-1" points="0.765972109 0 42.9552017 7.10542736e-15 42.9552017 29.9998 0.765972109 29.9998 0.765972109 7.10542736e-15"></polygon>
        <polygon id="path-3" points="19.242 0.2234 19.242 19.2234 0.2425 19.2234 0.2425 0.2234"></polygon>
    </defs>
    <g id="Icon/-Priority-Care" stroke="none" stroke-width="1" fill="none" fill-rule="evenodd">
        <g id="Page-1">
            <path d="M41.2796,51.3701 C36.6306,56.0901 30.1596,59.0001 23.0006,59.0001 C13.4896,59.0001 5.1796,53.8501 0.7196,46.1811 L4.8996,41.8801 C6.5506,39.6501 9.5296,38.3001 12.0006,38.0501 L16.0296,38.0501 L20.4096,45.5601 C21.5696,47.5401 24.4296,47.5401 25.5906,45.5601 L29.9696,38.0501 L34.0006,38.0501 C35.8896,38.2501 38.0806,39.0901 39.7296,40.4701 C39.2596,41.7301 39.0006,43.0801 39.0006,44.5001 C39.0006,47.0701 39.8496,49.4501 41.2796,51.3701" id="Fill-1" fill="#D3E5EF"></path>
            <g id="Group-5" transform="translate(0.000000, 37.000200)" fill="#4F5661">
                <path d="M41.93,15.1502 C36.983,20.1292 30.208,23.0002 23.125,23.0002 C13.688,23.0002 4.877,17.9002 0.138,9.6802 C-0.09,9.2902 -0.03,8.7992 0.278,8.4802 L4.39,4.2302 C6.407,1.5202 9.794,0.2902 12.099,0.0492 C12.655,0.0002 13.132,0.4002 13.192,0.9502 C13.242,1.5002 12.844,1.9902 12.297,2.0402 C10.231,2.2502 7.47,3.4002 5.94,5.4692 C5.92,5.5092 5.89,5.5402 5.861,5.5802 L2.235,9.3202 C6.714,16.5492 14.642,21.0002 23.125,21.0002 C29.781,21.0002 36.128,18.2592 40.728,13.5302 C41.076,14.1002 41.473,14.6502 41.93,15.1502" id="Fill-3"></path>
            </g>
            <path d="M40.14,39.5205 C39.83,40.1505 39.58,40.8205 39.4,41.5095 C37.83,40.0495 35.61,39.2305 33.89,39.0405 C33.34,38.9905 32.95,38.4905 33.01,37.9405 C33.06,37.3905 33.54,36.9905 34.11,37.0605 C36.28,37.2905 38.47,38.2005 40.14,39.5205" id="Fill-6" fill="#4F5661"></path>
            <path d="M23.0003,30 C21.2183,30 19.5603,29.041 18.6733,27.498 C18.3973,27.02 18.5633,26.408 19.0423,26.133 C19.5213,25.858 20.1333,26.022 20.4073,26.502 C20.9373,27.426 21.9323,28 23.0003,28 C24.0673,28 25.0623,27.426 25.5933,26.501 C25.8683,26.022 26.4793,25.857 26.9593,26.133 C27.4373,26.408 27.6033,27.02 27.3273,27.499 C26.4393,29.042 24.7813,30 23.0003,30" id="Fill-8" fill="#4F5661"></path>
            <g id="Group-12" transform="translate(0.000000, 0.000200)">
                <mask id="mask-2" fill="white">
                    <use xlink:href="#path-1"></use>
                </mask>
                <g id="Clip-11"></g>
                <path d="M38.0013,29.9998 C37.7033,29.9998 37.4083,29.8668 37.2113,29.6138 C36.8713,29.1778 36.9503,28.5498 37.3863,28.2108 C42.2283,24.4448 41.1883,22.8718 39.7493,20.6948 C38.7983,19.2578 37.6153,17.4678 38.4963,15.0878 C39.0453,13.6008 39.5063,11.5478 38.5783,10.2168 C37.6413,8.8698 35.5173,8.5878 33.9003,8.5878 C30.7563,8.5878 29.2173,6.6678 27.8593,4.9748 C26.5803,3.3778 25.4753,1.9998 23.1063,1.9998 C20.3903,1.9998 19.0083,3.1448 17.2583,4.5928 C15.4913,6.0548 13.4893,7.7118 9.7853,8.5628 C6.3063,9.3608 6.3673,10.8538 6.4613,13.1108 C6.5273,14.7108 6.6103,16.7018 4.9803,18.2098 C3.2463,19.8148 2.4923,21.6358 2.8593,23.3348 C3.2643,25.2068 5.0183,26.7868 7.6703,27.6688 C8.1943,27.8438 8.4783,28.4098 8.3043,28.9338 C8.1293,29.4578 7.5633,29.7378 7.0393,29.5668 C3.6983,28.4548 1.4623,26.3378 0.9043,23.7568 C0.3823,21.3388 1.3483,18.8478 3.6223,16.7418 C4.5733,15.8618 4.5223,14.6258 4.4633,13.1938 C4.3683,10.9108 4.2383,7.7828 9.3383,6.6128 C12.5803,5.8688 14.3103,4.4368 15.9823,3.0518 C17.8783,1.4818 19.6693,-0.0002 23.1063,-0.0002 C26.4353,-0.0002 28.0213,1.9788 29.4203,3.7238 C30.7023,5.3238 31.7163,6.5878 33.9003,6.5878 C36.9443,6.5878 39.0703,7.4238 40.2203,9.0738 C41.3603,10.7108 41.4113,12.9678 40.3723,15.7808 C39.8683,17.1418 40.4413,18.1158 41.4173,19.5918 C43.3323,22.4888 44.4423,25.2558 38.6143,29.7888 C38.4323,29.9318 38.2153,29.9998 38.0013,29.9998" id="Fill-10" fill="#4F5661" mask="url(#mask-2)"></path>
            </g>
            <path d="M22.0003,34 L24.0003,34 C24.5523,34 25.0003,34.448 25.0003,35 C25.0003,35.552 24.5523,36 24.0003,36 L22.0003,36 C21.4483,36 21.0003,35.552 21.0003,35 C21.0003,34.448 21.4483,34 22.0003,34 M35.8123,17.278 C35.8063,17.247 35.7853,17.224 35.7773,17.194 C35.7693,17.164 35.7723,17.134 35.7613,17.104 C35.7473,17.067 35.7193,17.044 35.7013,17.012 C35.6693,16.951 35.6363,16.896 35.5933,16.844 C35.5533,16.795 35.5103,16.753 35.4613,16.713 C35.4103,16.67 35.3573,16.634 35.2993,16.602 C35.2463,16.573 35.1943,16.552 35.1383,16.533 C35.0723,16.512 35.0083,16.497 34.9383,16.489 C34.8763,16.482 34.8153,16.483 34.7523,16.489 C34.7143,16.491 34.6783,16.48 34.6393,16.488 C34.6073,16.494 34.5843,16.515 34.5543,16.523 C34.5233,16.532 34.4933,16.527 34.4643,16.539 C31.7643,17.602 28.0393,18.664 23.1733,17.461 C19.5313,16.548 16.7613,15.005 15.0783,13.871 C14.6973,13.615 14.1893,13.649 13.8503,13.958 C12.7913,14.914 11.7673,15.647 10.8053,16.14 C10.7943,16.146 10.7873,16.155 10.7773,16.161 C10.7143,16.197 10.6633,16.247 10.6093,16.296 C10.5643,16.335 10.5153,16.368 10.4793,16.414 C10.4443,16.458 10.4253,16.512 10.3973,16.562 C10.3613,16.628 10.3233,16.69 10.3043,16.763 C10.3003,16.774 10.2913,16.782 10.2883,16.795 C10.0973,17.582 10.0003,18.395 10.0003,19.21 L10.0003,23.61 C10.0003,23.612 10.0013,23.613 10.0013,23.615 L10.0013,26.248 C10.0013,31.433 15.2653,35.417 19.1653,35.938 C19.5623,37.132 20.6763,38 22.0003,38 L24.0003,38 C25.6543,38 27.0003,36.654 27.0003,35 C27.0003,33.346 25.6543,32 24.0003,32 L22.0003,32 C20.7273,32 19.6433,32.801 19.2093,33.923 C16.1423,33.408 12.0013,30.108 12.0013,26.248 L12.0013,23 C12.0013,22.998 12.0003,22.997 12.0003,22.995 L12.0003,19.21 C12.0003,18.692 12.0623,18.181 12.1583,17.675 C12.9553,17.224 13.7743,16.651 14.6073,15.951 C16.4493,17.113 19.1983,18.526 22.6893,19.401 C24.4093,19.828 25.9973,20.001 27.4593,20.001 C30.0103,20 32.1713,19.472 33.9823,18.847 C33.9883,18.968 34.0003,19.089 34.0003,19.21 L34.0003,23.61 C34.0003,26.686 32.3253,29.826 29.4053,32.228 C29.1763,32.416 29.0423,32.695 29.0403,32.992 L29.0023,37.705 L24.0973,45.412 C23.8403,45.813 23.4213,46.048 22.9463,46.055 C22.4823,46.075 22.0603,45.845 21.8193,45.494 L16.8503,37.474 C16.5613,37.004 15.9443,36.857 15.4743,37.15 C15.0043,37.44 14.8593,38.058 15.1503,38.526 L20.1443,46.583 C20.7723,47.507 21.8103,48.055 22.9263,48.055 L22.9763,48.055 C24.1173,48.038 25.1673,47.452 25.7833,46.487 L30.8443,38.537 C30.9443,38.379 30.9983,38.195 31.0003,38.008 L31.0363,33.467 C34.1973,30.722 36.0003,27.152 36.0003,23.61 L36.0003,19.21 C36.0003,18.569 35.9373,17.919 35.8123,17.278" id="Fill-13" fill="#4F5661"></path>
            <g id="Group-17" transform="translate(41.000000, 35.000200)">
                <mask id="mask-4" fill="white">
                    <use xlink:href="#path-3"></use>
                </mask>
                <g id="Clip-16"></g>
                <path d="M9.7425,0.2234 C4.5045,0.2234 0.2425,4.4854 0.2425,9.7234 C0.2425,14.9614 4.5045,19.2234 9.7425,19.2234 C14.9805,19.2234 19.2425,14.9614 19.2425,9.7234 C19.2425,4.4854 14.9805,0.2234 9.7425,0.2234" id="Fill-15" fill="#53C27C" mask="url(#mask-4)"></path>
            </g>
            <polygon id="Fill-18" fill="#FFFFFF" points="50.7425 38.7031 46.2265 43.9711 49.2365 43.9711 49.2365 50.7441 52.2475 50.7441 52.2475 43.9711 55.2585 43.9711"></polygon>
        </g>
    </g>
</svg>