<?xml version="1.0" encoding="UTF-8"?>
<svg width="57px" height="60px" viewBox="0 0 57 60" version="1.1" xmlns="http://www.w3.org/2000/svg" xmlns:xlink="http://www.w3.org/1999/xlink">
    <!-- Generator: Sketch 49.3 (51167) - http://www.bohemiancoding.com/sketch -->
    <title>Icon/ Quick Estimate</title>
    <desc>Created with Sketch.</desc>
    <defs>
        <polygon id="path-1" points="0 47.3114035 34.7593985 47.3114035 34.7593985 0 0 0"></polygon>
    </defs>
    <g id="Icon/-Quick-Estimate" stroke="none" stroke-width="1" fill="none" fill-rule="evenodd">
        <g id="Quick-Estimate">
            <g id="Page-1" transform="translate(30.897243, 0.000000)">
                <path d="M12.0692356,0 C5.41377632,0 0,5.41377632 0,12.0692356 C0,14.1934211 0.563874687,16.2731917 1.63369173,18.1154398 L0.0502080201,22.8678221 C-0.0637255639,23.2096228 0.0212418546,23.5871485 0.272281955,23.8449474 C0.457665414,24.0361241 0.707739975,24.1384712 0.965538847,24.1384712 C1.05823058,24.1384712 1.15092231,24.1249536 1.2426485,24.0979185 L6.20938033,22.6071266 C8.00624812,23.6103214 10.0222932,24.1384712 12.0692356,24.1384712 C18.7246949,24.1384712 24.1384712,18.7246949 24.1384712,12.0692356 C24.1384712,5.41377632 18.7246949,0 12.0692356,0" id="Fill-1" fill="#53C27C"></path>
                <path d="M15.931391,17.8624687 C15.5606241,17.8624687 15.1898571,17.7215 14.9069543,17.4385971 L10.6209273,13.1516046 L10.6209273,7.24154135 C10.6209273,6.44207519 11.2697694,5.79323308 12.0692356,5.79323308 C12.8687018,5.79323308 13.5175439,6.44207519 13.5175439,7.24154135 L13.5175439,11.9524054 L16.9558277,15.3897237 C17.5206679,15.9555294 17.5206679,16.8727914 16.9558277,17.4385971 C16.6729248,17.7215 16.3021579,17.8624687 15.931391,17.8624687" id="Fill-3" fill="#FFFFFF"></path>
            </g>
            <g id="Page-1" transform="translate(0.000000, 12.552005)">
                <path d="M33.7938596,14.4830827 C33.2599167,14.4830827 32.8283208,14.9146786 32.8283208,15.4486216 L32.8283208,44.414787 C32.8283208,44.9477644 32.3957594,45.3803258 31.862782,45.3803258 L2.89661654,45.3803258 C2.3636391,45.3803258 1.93107769,44.9477644 1.93107769,44.414787 L1.93107769,2.89661654 C1.93107769,2.3636391 2.3636391,1.93107769 2.89661654,1.93107769 L28.0006266,1.93107769 C28.5345695,1.93107769 28.9661654,1.49948183 28.9661654,0.965538847 C28.9661654,0.431595865 28.5345695,0 28.0006266,0 L2.89661654,0 C1.29961529,0 0,1.29961529 0,2.89661654 L0,44.414787 C0,46.0117882 1.29961529,47.3114035 2.89661654,47.3114035 L31.862782,47.3114035 C33.4597832,47.3114035 34.7593985,46.0117882 34.7593985,44.414787 L34.7593985,15.4486216 C34.7593985,14.9146786 34.3278026,14.4830827 33.7938596,14.4830827 Z" id="Fill-1" fill="#4F5661"></path>
                <path d="M7.72431078,13.5175439 L27.0350877,13.5175439 L27.0350877,7.72431078 L7.72431078,7.72431078 L7.72431078,13.5175439 Z M28.0006266,5.79323308 L6.75877193,5.79323308 C6.22482895,5.79323308 5.79323308,6.22482895 5.79323308,6.75877193 L5.79323308,14.4830827 C5.79323308,15.0170257 6.22482895,15.4486216 6.75877193,15.4486216 L28.0006266,15.4486216 C28.5345695,15.4486216 28.9661654,15.0170257 28.9661654,14.4830827 L28.9661654,6.75877193 C28.9661654,6.22482895 28.5345695,5.79323308 28.0006266,5.79323308 Z" id="Fill-21" fill="#4F5661"></path>
                <path d="M10.6209273,24.1384712 L6.75877193,24.1384712 C6.22482895,24.1384712 5.79323308,23.7068753 5.79323308,23.1729323 L5.79323308,19.3107769 C5.79323308,18.776834 6.22482895,18.3452381 6.75877193,18.3452381 L10.6209273,18.3452381 C11.1548703,18.3452381 11.5864662,18.776834 11.5864662,19.3107769 L11.5864662,23.1729323 C11.5864662,23.7068753 11.1548703,24.1384712 10.6209273,24.1384712" id="Fill-3" fill="#D3E5EF"></path>
                <path d="M19.3107769,24.1384712 L15.4486216,24.1384712 C14.9146786,24.1384712 14.4830827,23.7068753 14.4830827,23.1729323 L14.4830827,19.3107769 C14.4830827,18.776834 14.9146786,18.3452381 15.4486216,18.3452381 L19.3107769,18.3452381 C19.8447199,18.3452381 20.2763158,18.776834 20.2763158,19.3107769 L20.2763158,23.1729323 C20.2763158,23.7068753 19.8447199,24.1384712 19.3107769,24.1384712" id="Fill-5" fill="#D3E5EF"></path>
                <path d="M28.9661654,19.3107769 L28.9661654,23.1729323 C28.9661654,23.7039787 28.5316729,24.1384712 28.0006266,24.1384712 L24.1384712,24.1384712 C23.6074248,24.1384712 23.1729323,23.7039787 23.1729323,23.1729323 L23.1729323,19.3107769 C23.1729323,18.7797306 23.6074248,18.3452381 24.1384712,18.3452381 L28.0778697,18.3548935 C28.5702945,18.393515 28.9661654,18.8086967 28.9661654,19.3107769" id="Fill-7" fill="#D3E5EF"></path>
                <path d="M10.6209273,32.8283208 L6.75877193,32.8283208 C6.22482895,32.8283208 5.79323308,32.3967249 5.79323308,31.862782 L5.79323308,28.0006266 C5.79323308,27.4666836 6.22482895,27.0350877 6.75877193,27.0350877 L10.6209273,27.0350877 C11.1548703,27.0350877 11.5864662,27.4666836 11.5864662,28.0006266 L11.5864662,31.862782 C11.5864662,32.3967249 11.1548703,32.8283208 10.6209273,32.8283208" id="Fill-9" fill="#D3E5EF"></path>
                <path d="M19.3107769,32.8283208 L15.4486216,32.8283208 C14.9146786,32.8283208 14.4830827,32.3967249 14.4830827,31.862782 L14.4830827,28.0006266 C14.4830827,27.4666836 14.9146786,27.0350877 15.4486216,27.0350877 L19.3107769,27.0350877 C19.8447199,27.0350877 20.2763158,27.4666836 20.2763158,28.0006266 L20.2763158,31.862782 C20.2763158,32.3967249 19.8447199,32.8283208 19.3107769,32.8283208" id="Fill-11" fill="#D3E5EF"></path>
                <path d="M28.0006266,32.8283208 L24.1384712,32.8283208 C23.6045282,32.8283208 23.1729323,32.3967249 23.1729323,31.862782 L23.1729323,28.0006266 C23.1729323,27.4666836 23.6045282,27.0350877 24.1384712,27.0350877 L28.0006266,27.0350877 C28.5345695,27.0350877 28.9661654,27.4666836 28.9661654,28.0006266 L28.9661654,31.862782 C28.9661654,32.3967249 28.5345695,32.8283208 28.0006266,32.8283208" id="Fill-13" fill="#D3E5EF"></path>
                <path d="M10.6209273,41.5181704 L6.75877193,41.5181704 C6.22482895,41.5181704 5.79323308,41.0865746 5.79323308,40.5526316 L5.79323308,36.6904762 C5.79323308,36.1565332 6.22482895,35.7249373 6.75877193,35.7249373 L10.6209273,35.7249373 C11.1548703,35.7249373 11.5864662,36.1565332 11.5864662,36.6904762 L11.5864662,40.5526316 C11.5864662,41.0865746 11.1548703,41.5181704 10.6209273,41.5181704" id="Fill-15" fill="#D3E5EF"></path>
                <path d="M19.3107769,41.5181704 L15.4486216,41.5181704 C14.9146786,41.5181704 14.4830827,41.0865746 14.4830827,40.5526316 L14.4830827,36.6904762 C14.4830827,36.1565332 14.9146786,35.7249373 15.4486216,35.7249373 L19.3107769,35.7249373 C19.8447199,35.7249373 20.2763158,36.1565332 20.2763158,36.6904762 L20.2763158,40.5526316 C20.2763158,41.0865746 19.8447199,41.5181704 19.3107769,41.5181704" id="Fill-17" fill="#D3E5EF"></path>
                <path d="M28.0006266,41.5181704 L24.1384712,41.5181704 C23.6045282,41.5181704 23.1729323,41.0865746 23.1729323,40.5526316 L23.1729323,36.6904762 C23.1729323,36.1565332 23.6045282,35.7249373 24.1384712,35.7249373 L28.0006266,35.7249373 C28.5345695,35.7249373 28.9661654,36.1565332 28.9661654,36.6904762 L28.9661654,40.5526316 C28.9661654,41.0865746 28.5345695,41.5181704 28.0006266,41.5181704" id="Fill-19" fill="#D3E5EF"></path>
                <mask id="mask-2" fill="white">
                    <use xlink:href="#path-1"></use>
                </mask>
                <g id="Clip-22"></g>
            </g>
        </g>
    </g>
</svg>