<?xml version="1.0" encoding="UTF-8"?>
<svg width="58px" height="63px" viewBox="0 0 58 63" version="1.1" xmlns="http://www.w3.org/2000/svg" xmlns:xlink="http://www.w3.org/1999/xlink">
    <!-- Generator: Sketch 49.3 (51167) - http://www.bohemiancoding.com/sketch -->
    <title>Icon/ Refund Transfer</title>
    <desc>Created with Sketch.</desc>
    <defs>
        <polygon id="path-1" points="2.57498016e-17 7.8691 2.57498016e-17 0.767633458 20.620311 0.767633458 20.620311 7.8691 0 7.8691"></polygon>
        <polygon id="path-3" points="28.51925 30 56.519 30 56.519 0 0.5195 0 0.5195 30"></polygon>
    </defs>
    <g id="Icon/-Refund-Transfer" stroke="none" stroke-width="1" fill="none" fill-rule="evenodd">
        <g id="Page-1">
            <path d="M5.5195,28.7694 C7.7695,28.4504 8.8595,27.3254 8.5485,25.1374 L41.1355,20.5204 C41.4455,22.7074 43.5205,24.2214 45.7705,23.9034 L45.9375,26.0984 L5.5195,28.7694 Z" id="Fill-1" fill="#D3E5EF"></path>
            <path d="M50.6484,22.7089 C50.1584,22.7089 49.7294,22.3479 49.6594,21.8489 L49.0294,17.3789 L35.1404,19.3499 C34.5874,19.4199 34.0874,19.0459 34.0094,18.4999 C33.9324,17.9529 34.3124,17.4469 34.8594,17.3689 L49.7404,15.2589 C49.9974,15.2189 50.2684,15.2899 50.4814,15.4499 C50.6934,15.6089 50.8334,15.8469 50.8704,16.1089 L51.6394,21.5689 C51.7164,22.1159 51.3354,22.6219 50.7894,22.6989 C50.7414,22.7059 50.6944,22.7089 50.6484,22.7089" id="Fill-3" fill="#4F5661"></path>
            <g id="Group-7" transform="translate(0.000000, 18.769400)">
                <mask id="mask-2" fill="white">
                    <use xlink:href="#path-1"></use>
                </mask>
                <g id="Clip-6"></g>
                <path d="M1.4384,7.8691 C0.9624,7.8691 0.5424,7.5291 0.4554,7.0451 L0.0154,4.5851 C-0.0326,4.3171 0.0314,4.0431 0.1904,3.8231 C0.3494,3.6021 0.5904,3.4571 0.8594,3.4191 L19.4794,0.7791 C20.0244,0.6951 20.5324,1.0821 20.6104,1.6291 C20.6874,2.1761 20.3074,2.6821 19.7604,2.7601 L2.1674,5.2541 L2.4234,6.6931 C2.5204,7.2371 2.1594,7.7571 1.6154,7.8531 C1.5554,7.8641 1.4974,7.8691 1.4384,7.8691" id="Fill-5" fill="#4F5661" mask="url(#mask-2)"></path>
            </g>
            <path d="M6.5195,34.7694 C8.9105,34.6184 10.1935,33.0734 10.0545,30.8684 L44.6755,28.6874 C44.8145,30.8924 46.8655,32.5574 49.2545,32.4074 L49.2435,34.6094 L6.5195,34.7694 Z" id="Fill-8" fill="#D3E5EF"></path>
            <path d="M2.4599,31.8358 C1.9389,31.8358 1.4989,31.4318 1.4629,30.9028 L1.2939,28.4178 C1.2759,28.1528 1.3639,27.8918 1.5399,27.6908 C1.7159,27.4908 1.9639,27.3688 2.2299,27.3528 L54.1619,24.0818 C54.4309,24.0698 54.6919,24.1568 54.8919,24.3348 C55.0919,24.5148 55.2109,24.7658 55.2239,25.0328 L55.4799,30.5358 C55.5049,31.0878 55.0779,31.5568 54.5269,31.5818 C53.9479,31.5998 53.5079,31.1808 53.4809,30.6298 L53.2729,26.1418 L3.3569,29.2848 L3.4589,30.7688 C3.4959,31.3188 3.0799,31.7958 2.5279,31.8338 C2.5059,31.8348 2.4819,31.8358 2.4599,31.8358" id="Fill-10" fill="#4F5661"></path>
            <path d="M43.5195,58.7694 L10.5195,58.7694 C9.9665,58.7694 9.5195,58.3224 9.5195,57.7694 C9.5195,56.1154 8.1735,54.7694 6.5195,54.7694 C5.9665,54.7694 5.5195,54.3224 5.5195,53.7694 L5.5195,41.7694 C5.5195,41.2164 5.9665,40.7694 6.5195,40.7694 C8.1735,40.7694 9.5195,39.4234 9.5195,37.7694 C9.5195,37.2164 9.9665,36.7694 10.5195,36.7694 L48.5195,36.7694 C49.0725,36.7694 49.5195,37.2164 49.5195,37.7694 C49.5195,39.4234 50.8655,40.7694 52.5195,40.7694 C53.0725,40.7694 53.5195,41.2164 53.5195,41.7694 L53.5195,48.7694 C53.5195,49.3224 53.0725,49.7694 52.5195,49.7694 C51.9665,49.7694 51.5195,49.3224 51.5195,48.7694 L51.5195,42.6684 C49.5635,42.2704 48.0185,40.7254 47.6205,38.7694 L11.4185,38.7694 C11.0205,40.7254 9.4755,42.2704 7.5195,42.6684 L7.5195,52.8704 C9.4755,53.2684 11.0205,54.8134 11.4185,56.7694 L43.5195,56.7694 C44.0725,56.7694 44.5195,57.2164 44.5195,57.7694 C44.5195,58.3224 44.0725,58.7694 43.5195,58.7694" id="Fill-12" fill="#4F5661"></path>
            <path d="M14.5195,51.7694 C12.8655,51.7694 11.5195,50.4234 11.5195,48.7694 C11.5195,47.1154 12.8655,45.7694 14.5195,45.7694 C16.1735,45.7694 17.5195,47.1154 17.5195,48.7694 C17.5195,50.4234 16.1735,51.7694 14.5195,51.7694" id="Fill-14" fill="#D3E5EF"></path>
            <path d="M44.5195,51.7694 C42.8655,51.7694 41.5195,50.4234 41.5195,48.7694 C41.5195,47.1154 42.8655,45.7694 44.5195,45.7694 C46.1735,45.7694 47.5195,47.1154 47.5195,48.7694 C47.5195,50.4234 46.1735,51.7694 44.5195,51.7694" id="Fill-16" fill="#D3E5EF"></path>
            <path d="M35.5195,47.7694 C35.5195,51.6344 32.8335,54.7694 29.5195,54.7694 C26.2065,54.7694 23.5195,51.6344 23.5195,47.7694 C23.5195,43.9034 26.2065,40.7694 29.5195,40.7694 C32.8335,40.7694 35.5195,43.9034 35.5195,47.7694" id="Fill-18" fill="#D3E5EF"></path>
            <g id="Group-22" transform="translate(1.000000, 32.769400)">
                <mask id="mask-4" fill="white">
                    <use xlink:href="#path-3"></use>
                </mask>
                <g id="Clip-21"></g>
                <path d="M54.5195,18 L45.5195,18 C44.9665,18 44.5195,18.447 44.5195,19 L44.5195,28 L2.5195,28 L2.5195,2 L54.5195,2 L54.5195,18 Z M46.5195,27.586 L46.5195,20 L54.1055,20 L46.5195,27.586 Z M55.5195,0 L1.5195,0 C0.9665,0 0.5195,0.447 0.5195,1 L0.5195,29 C0.5195,29.553 0.9665,30 1.5195,30 L46.5195,30 C46.7855,30 47.0395,29.895 47.2265,29.707 L56.2265,20.707 C56.4145,20.52 56.5195,20.266 56.5195,20 L56.5195,1 C56.5195,0.447 56.0725,0 55.5195,0 Z" id="Fill-20" fill="#4F5661" mask="url(#mask-4)"></path>
            </g>
            <path d="M25.2265,17.8856 C26.0805,12.3086 30.8095,7.9436 36.6605,7.7376 L36.7755,10.9816 L43.5775,5.2436 L36.3875,-0.0004 L36.5015,3.2446 C29.8805,3.4786 24.6995,9.0336 24.9325,15.6476 C24.9585,16.4156 25.0605,17.1666 25.2265,17.8856" id="Fill-23" fill="#53C27C"></path>
            <path d="M25.2265,17.8856 C26.0805,12.3086 30.8095,7.9436 36.6605,7.7376 L36.7755,10.9816 L43.5775,5.2436 L36.3875,-0.0004 L36.5015,3.2446 C29.8805,3.4786 24.6995,9.0336 24.9325,15.6476 C24.9585,16.4156 25.0605,17.1666 25.2265,17.8856 Z" id="Stroke-25" stroke="#53C27C" stroke-width="2" stroke-linecap="round" stroke-linejoin="round"></path>
        </g>
    </g>
</svg>