<?xml version="1.0" encoding="UTF-8"?>
<svg width="60px" height="58px" viewBox="0 0 60 58" version="1.1" xmlns="http://www.w3.org/2000/svg" xmlns:xlink="http://www.w3.org/1999/xlink">
    <!-- Generator: Sketch 49.3 (51167) - http://www.bohemiancoding.com/sketch -->
    <title>Icon/ Rent Home</title>
    <desc>Created with Sketch.</desc>
    <defs>
        <polygon id="path-1" points="0 58 60 58 60 0 0 0"></polygon>
    </defs>
    <g id="Icon/-Rent-Home" stroke="none" stroke-width="1" fill="none" fill-rule="evenodd">
        <g id="Rent-Home">
            <path d="M60,56 C60,57.104 46.792,58 30.5,58 C14.208,58 1,57.104 1,56 C1,54.896 14.208,54 30.5,54 C46.792,54 60,54.896 60,56 Z" id="Fill-1" fill="#D3E5EF"></path>
            <path d="M9,2.64882444 L11,5.2694911 L11,6.8965 C11,7.44878475 11.4477153,7.8965 12,7.8965 C12.5522847,7.8965 13,7.44878475 13,6.8965 L13,4.9315 C13,4.71226457 12.9279537,4.49910423 12.7949487,4.32482332 L9.79494868,0.393823318 C9.39472144,-0.130607773 8.60527856,-0.130607773 8.20505132,0.393823318 L5.20505132,4.32482332 C5.0720463,4.49910423 5,4.71226457 5,4.9315 L5,6.8965 C5,7.44878475 5.44771525,7.8965 6,7.8965 C6.55228475,7.8965 7,7.44878475 7,6.8965 L7,5.2694911 L9,2.64882444 Z" id="Stroke-3" fill="#4B5E69" fill-rule="nonzero"></path>
            <path d="M7,53.9998 L7,14.7588 C7,14.2065153 6.55228475,13.7588 6,13.7588 C5.44771525,13.7588 5,14.2065153 5,14.7588 L5,54.9998 C5,55.5520847 5.44771525,55.9998 6,55.9998 L12,55.9998 C12.5522847,55.9998 13,55.5520847 13,54.9998 L13,14.7588 C13,14.2065153 12.5522847,13.7588 12,13.7588 C11.4477153,13.7588 11,14.2065153 11,14.7588 L11,53.9998 L7,53.9998 Z" id="Stroke-5" fill="#4B5E69" fill-rule="nonzero"></path>
            <path d="M54.6666667,13 L57.3333333,11 L54.6666667,9 L2,9 L2,13 L54.6666667,13 Z M0,14 L0,8 C0,7.44771525 0.44771525,7 1,7 L55,7 C55.2163702,7 55.4269038,7.07017787 55.6,7.2 L59.6,10.2 C60.1333333,10.6 60.1333333,11.4 59.6,11.8 L55.6,14.8 C55.4269038,14.9298221 55.2163702,15 55,15 L1,15 C0.44771525,15 0,14.5522847 0,14 Z" id="Stroke-7" fill="#4B5E69" fill-rule="nonzero"></path>
            <mask id="mask-2" fill="white">
                <use xlink:href="#path-1"></use>
            </mask>
            <g id="Clip-10"></g>
            <path d="M21,20 C20.4477153,20 20,19.5522847 20,19 L20,14 C20,13.4477153 20.4477153,13 21,13 L25,13 C25.5522847,13 26,13.4477153 26,14 L26,19 C26,19.5522847 25.5522847,20 25,20 L21,20 Z M24,18 L24,15 L22,15 L22,18 L24,18 Z" id="Stroke-9" fill="#4B5E69" fill-rule="nonzero" mask="url(#mask-2)"></path>
            <path d="M51,20 C50.4477153,20 50,19.5522847 50,19 L50,14 C50,13.4477153 50.4477153,13 51,13 L55,13 C55.5522847,13 56,13.4477153 56,14 L56,19 C56,19.5522847 55.5522847,20 55,20 L51,20 Z M54,18 L54,15 L52,15 L52,18 L54,18 Z" id="Stroke-11" fill="#4B5E69" fill-rule="nonzero" mask="url(#mask-2)"></path>
            <path d="M10,10 L8,10 C7.44771525,10 7,10.4477153 7,11 C7,11.5522847 7.44771525,12 8,12 L10,12 C10.5522847,12 11,11.5522847 11,11 C11,10.4477153 10.5522847,10 10,10 Z" id="Stroke-12" fill="#4B5E69" fill-rule="nonzero" mask="url(#mask-2)"></path>
            <path d="M57,43 L19,43 C17.896,43 17,42.104 17,41 L17,18 L59,18 L59,41 C59,42.104 58.104,43 57,43" id="Fill-13" fill="#F4877A" mask="url(#mask-2)"></path>
            <path d="M27.8853,29.8628 C28.4073,29.8628 28.8543,29.3868 28.8543,28.8628 C28.8543,28.3378 28.4073,27.9128 27.8853,27.9128 L26.0003,27.9128 L26.0003,29.8628 L27.8853,29.8628 Z M24.0003,26.3628 C24.0003,26.2378 24.1023,26.1248 24.2413,26.1248 L28.0513,26.1248 C29.5803,26.1248 30.8283,27.3378 30.8283,28.8248 C30.8283,29.9748 30.0513,30.8998 28.9433,31.3378 L30.6883,34.5128 C30.7773,34.6748 30.6883,34.8748 30.4713,34.8748 L28.7773,34.8748 C28.6753,34.8748 28.5983,34.8128 28.5733,34.7628 L26.8793,31.4498 L26.0003,31.4498 L26.0003,34.6368 C26.0003,34.7628 25.8853,34.8748 25.7583,34.8748 L24.2413,34.8748 C24.1023,34.8748 24.0003,34.7628 24.0003,34.6368 L24.0003,26.3628 Z" id="Fill-14" fill="#FFFFFF" mask="url(#mask-2)"></path>
            <path d="M32.186,26.3628 C32.186,26.2378 32.286,26.1248 32.422,26.1248 L37.577,26.1248 C37.714,26.1248 37.814,26.2378 37.814,26.3628 L37.814,27.7248 C37.814,27.8498 37.714,27.9628 37.577,27.9628 L34.128,27.9628 L34.128,29.5128 L36.967,29.5128 C37.092,29.5128 37.204,29.6248 37.204,29.7498 L37.204,31.1128 C37.204,31.2498 37.092,31.3498 36.967,31.3498 L34.128,31.3498 L34.128,33.0378 L37.577,33.0378 C37.714,33.0378 37.814,33.1498 37.814,33.2748 L37.814,34.6368 C37.814,34.7628 37.714,34.8748 37.577,34.8748 L32.422,34.8748 C32.286,34.8748 32.186,34.7628 32.186,34.6368 L32.186,26.3628 Z" id="Fill-15" fill="#FFFFFF" mask="url(#mask-2)"></path>
            <path d="M39.2793,26.2251 C39.2793,26.1001 39.3913,26.0001 39.5163,26.0001 L39.8273,26.0001 L44.7953,30.8001 L44.8083,30.8001 L44.8083,26.3631 C44.8083,26.2371 44.9073,26.1251 45.0443,26.1251 L46.5383,26.1251 C46.6633,26.1251 46.7753,26.2371 46.7753,26.3631 L46.7753,34.7751 C46.7753,34.9001 46.6633,35.0001 46.5383,35.0001 L46.3403,35.0001 C46.3013,35.0001 46.2023,34.9621 46.1773,34.9371 L41.2593,29.9751 L41.2473,29.9751 L41.2473,34.6371 C41.2473,34.7631 41.1473,34.8751 41.0103,34.8751 L39.5283,34.8751 C39.4043,34.8751 39.2923,34.7631 39.2923,34.6371 L39.2793,26.2251 Z" id="Fill-16" fill="#FFFFFF" mask="url(#mask-2)"></path>
            <path d="M50.0166,27.9624 L48.2366,27.9624 C48.0996,27.9624 47.9996,27.8504 47.9996,27.7254 L47.9996,26.3624 C47.9996,26.2374 48.0996,26.1254 48.2366,26.1254 L53.7636,26.1254 C53.9006,26.1254 53.9996,26.2374 53.9996,26.3624 L53.9996,27.7254 C53.9996,27.8504 53.9006,27.9624 53.7636,27.9624 L51.9836,27.9624 L51.9836,34.6374 C51.9836,34.7624 51.8716,34.8754 51.7466,34.8754 L50.2526,34.8754 C50.1286,34.8754 50.0166,34.7624 50.0166,34.6374 L50.0166,27.9624 Z" id="Fill-17" fill="#FFFFFF" mask="url(#mask-2)"></path>
        </g>
    </g>
</svg>