<?xml version="1.0" encoding="UTF-8"?>
<svg width="56px" height="58px" viewBox="0 0 56 58" version="1.1" xmlns="http://www.w3.org/2000/svg" xmlns:xlink="http://www.w3.org/1999/xlink">
    <!-- Generator: Sketch 49.3 (51167) - http://www.bohemiancoding.com/sketch -->
    <title>Icon/ Retirement</title>
    <desc>Created with Sketch.</desc>
    <defs></defs>
    <g id="Icon/-Retirement" stroke="none" stroke-width="1" fill="none" fill-rule="evenodd">
        <g id="Retirement">
            <path d="M10,37 C10,37 9,34 9,29 L3.521,30.949 C3.521,30.949 -0.674,31.448 0.094,33.821 C0.861,36.194 10,37 10,37" id="Fill-1" fill="#D3E5EF"></path>
            <path d="M46,37 C46,37 46.605,32.946 47.604,30.375 L51.79,31.008 C51.79,31.008 56.756,31.502 55.901,33.852 C55.046,36.202 46,37 46,37" id="Fill-3" fill="#D3E5EF"></path>
            <path d="M47.3507949,34.6090916 C47.7801286,32.2681262 48.0002,29.8563491 48.0002,27.4097 C48.0002,11.7811559 39.1402759,-1.0003 28.0002,-1.0003 C16.8601241,-1.0003 8.0002,11.7811559 8.0002,27.4097 C8.0002,29.826162 8.21311636,32.2071179 8.62906789,34.5141373 C8.7270638,35.0576584 9.24711613,35.418828 9.79063729,35.3208321 C10.3341584,35.2228362 10.695328,34.7027839 10.5973321,34.1592627 C10.202496,31.9693574 10.0002,29.7071642 10.0002,27.4097 C10.0002,12.7625665 18.1540524,0.9997 28.0002,0.9997 C37.8463476,0.9997 46.0002,12.7625665 46.0002,27.4097 C46.0002,29.7351386 45.791147,32.0261641 45.3836051,34.2483084 C45.2839776,34.7915329 45.643584,35.3126674 46.1868084,35.4122949 C46.7300329,35.5119224 47.2511674,35.152316 47.3507949,34.6090916 Z" id="Stroke-5" fill="#4B5E69" fill-rule="nonzero"></path>
            <path d="M0.307802977,35.3828153 L1.84780298,41.8128153 C3.82477706,50.0763579 10.2359271,56.3904139 18.2931994,58.0102833 C21.5254253,58.6522264 24.7534604,58.9999 28.0003,58.9999 C31.1767558,58.9999 34.3945841,58.6698794 37.5768823,58.0621489 C45.6724404,56.5313236 52.1468373,50.1775713 54.1515649,41.8437824 L55.7026668,35.3833583 C55.8316023,34.846335 55.5007817,34.3064687 54.9637583,34.1775332 C54.426735,34.0485977 53.8868687,34.3794183 53.7579332,34.9164417 L52.2069332,41.3764417 C50.3836487,48.9559589 44.515636,54.7146264 37.203498,56.0973128 C34.1383806,56.6826634 31.0452008,56.9999 28.0003,56.9999 C24.8910082,56.9999 21.7921797,56.6661425 18.6851015,56.0490573 C11.4025817,54.5849448 5.59040352,48.8607895 3.79285467,41.3472255 L2.25279702,34.9169847 C2.12416145,34.3798894 1.58447997,34.0487674 1.04738469,34.177403 C0.510289419,34.3060385 0.179167405,34.84572 0.307802977,35.3828153 Z" id="Stroke-7" fill="#4B5E69" fill-rule="nonzero"></path>
            <path d="M33,23.666 C33,21.457 31.572,20.159 28.368,19.458 C25.573,18.857 25.357,18.269 25.357,17.503 C25.357,16.628 26.237,16.018 27.496,16.018 C28.711,16.018 29.767,16.418 30.818,17.278 L31.289,17.666 L32.841,15.604 L32.398,15.246 C31.26,14.33 30.138,13.818 28.812,13.627 L28.812,11.846 C28.812,11.38 28.434,11 27.968,11 L27.125,11 C26.659,11 26.281,11.38 26.281,11.846 L26.281,13.68 C24.176,14.121 22.741,15.655 22.741,17.667 C22.741,20.517 25.029,21.408 27.504,21.948 C30.166,22.512 30.365,23.067 30.365,23.849 C30.365,24.788 29.434,25.444 28.1,25.444 C26.564,25.444 25.407,24.961 24.104,23.78 L23.655,23.372 L22,25.337 L22.426,25.718 C23.623,26.792 24.879,27.449 26.281,27.742 L26.281,29.615 C26.281,30.082 26.659,30.461 27.125,30.461 L27.968,30.461 C28.434,30.461 28.812,30.082 28.812,29.615 L28.812,27.865 C31.309,27.582 33,25.944 33,23.666" id="Fill-9" fill="#5BBF89"></path>
            <path d="M2.20442165,42.7758955 C2.62979625,43.536122 3.587608,44.59135 5.22950919,45.614996 C7.06808707,46.7612604 9.40407362,47.5936895 12.2868131,47.9902694 C12.8339447,48.0655386 13.3385002,47.6830185 13.4137694,47.1358869 C13.4890386,46.5887553 13.1065185,46.0841998 12.5593869,46.0089306 C9.95242265,45.6502892 7.88444694,44.9133658 6.28761673,43.9178194 C5.49757054,43.4252638 4.87919581,42.903956 4.41280132,42.3901259 C4.14896378,42.0994542 4.00056703,41.8900737 3.94977835,41.7993045 C3.68010018,41.3173375 3.07077143,41.1452435 2.58880449,41.4149217 C2.10683755,41.6845998 1.93474349,42.2939286 2.20442165,42.7758955 Z" id="Stroke-11" fill="#4B5E69" fill-rule="nonzero"></path>
            <path d="M36.3437663,52.9993458 C36.4836355,52.9942839 36.7351011,52.9805495 37.0824275,52.9542647 C37.6554664,52.9108986 38.2925462,52.847205 38.9780323,52.7592384 C40.9392843,52.5075562 42.9021356,52.1109872 44.7440395,51.5352045 C48.6008501,50.3295579 51.4360994,48.5027368 52.7764272,45.8603761 C53.0262677,45.3678336 52.8295187,44.7660132 52.3369761,44.5161728 C51.8444336,44.2663323 51.2426132,44.4630813 50.9927728,44.9556239 C49.949108,47.0131345 47.5389242,48.5660754 44.1473122,49.6262999 C42.4288079,50.1635078 40.5769361,50.5376547 38.7234651,50.7755057 C38.0737981,50.8588757 37.471093,50.9191326 36.9315042,50.9599673 C36.6112542,50.984203 36.3858793,50.9965124 36.2714337,51.0006542 C35.7195102,51.0206283 35.2882801,51.4842429 35.3082542,52.0361663 C35.3282283,52.5880898 35.7918429,53.0193199 36.3437663,52.9993458 Z" id="Stroke-13" fill="#4B5E69" fill-rule="nonzero"></path>
            <path d="M24.7652967,46.9928338 C24.8376739,47.0015456 24.9705303,47.0160479 25.1593339,47.0343812 C25.4697913,47.0645273 25.8270679,47.0945739 26.2266425,47.1225568 C30.0417658,47.3897363 34.229453,47.2867713 38.1961028,46.544163 C39.0692209,46.380704 39.9139005,46.1879105 40.7270829,45.9641706 C41.2595796,45.8176589 41.5724823,45.2672139 41.4259706,44.7347171 C41.2794589,44.2022204 40.7290139,43.8893177 40.1965171,44.0358294 C39.4385837,44.2443679 38.6479815,44.4248186 37.8280708,44.5783165 C34.0550039,45.2846836 30.0261393,45.3837435 26.3663637,45.1274432 C25.9850419,45.1007386 25.6455949,45.0721915 25.3526294,45.0437438 C25.1793793,45.0269209 25.0617386,45.0140794 25.0043033,45.0071662 C24.4559764,44.9411663 23.9579661,45.3321697 23.8919662,45.8804967 C23.8259663,46.4288236 24.2169697,46.9268339 24.7652967,46.9928338 Z" id="Stroke-15" fill="#4B5E69" fill-rule="nonzero"></path>
            <path d="M46.7731842,30.434408 C51.9325143,31.3623451 55.0002,32.7078213 55.0002,33.5002 C55.0002,34.2299233 52.2879928,35.48944 47.6050296,36.4089365 C42.4571292,37.419723 35.4659689,38.0002 28.0002,38.0002 C20.5344311,38.0002 13.5432708,37.419723 8.39537039,36.4089365 C3.71240719,35.48944 1.0002,34.2299233 1.0002,33.5002 C1.0002,32.7074922 4.06989311,31.3621011 9.2359387,30.4344578 C9.77952928,30.3368477 10.1410679,29.8170519 10.0434578,29.2734613 C9.94584772,28.7298707 9.42605188,28.3683321 8.8824613,28.4659422 C2.60281891,29.593549 -0.9998,31.1725118 -0.9998,33.5002 C-0.9998,37.5021415 11.7227243,40.0002 28.0002,40.0002 C44.2776757,40.0002 57.0002,37.5021415 57.0002,33.5002 C57.0002,31.1732805 53.3997881,29.5941525 47.1272158,28.465992 C46.5836528,28.3682289 46.0637551,28.7296211 45.965992,29.2731842 C45.8682289,29.8167472 46.2296211,30.3366449 46.7731842,30.434408 Z" id="Stroke-17" fill="#4B5E69" fill-rule="nonzero"></path>
        </g>
    </g>
</svg>