<?xml version="1.0" encoding="UTF-8"?>
<svg width="57px" height="55px" viewBox="0 0 57 55" version="1.1" xmlns="http://www.w3.org/2000/svg" xmlns:xlink="http://www.w3.org/1999/xlink">
    <!-- Generator: Sketch 49.3 (51167) - http://www.bohemiancoding.com/sketch -->
    <title>Icon/ Review Taxes</title>
    <desc>Created with Sketch.</desc>
    <defs></defs>
    <g id="Icon/-Review-Taxes" stroke="none" stroke-width="1" fill="none" fill-rule="evenodd">
        <g id="Review-Taxes" transform="translate(-1.000000, -1.000000)">
            <path d="M2,2 L12.86,2 C13.8644746,2 14.8027658,2.50192432 15.3579497,3.3347002 L16.9769006,5.77312335 C17.9041459,7.16399446 19.4669644,8 21.14,8 L48,8 L48,10 C48,10.5522847 48.4477153,11 49,11 C49.5522847,11 50,10.5522847 50,10 L50,7 C50,6.44771525 49.5522847,6 49,6 L21.14,6 C20.1355254,6 19.1972342,5.49807568 18.6420503,4.6652998 L17.0230994,2.22687665 C16.0958541,0.83600554 14.5330356,0 12.86,0 L1,0 C0.44771525,0 0,0.44771525 0,1 L0,49 C0,49.5522847 0.44771525,50 1,50 L2,50 C2.55228475,50 3,49.5522847 3,49 C3,48.4477153 2.55228475,48 2,48 L2,2 Z" id="Stroke-1" fill="#4B5E69" fill-rule="nonzero"></path>
            <path d="M7.94739461,29.6315441 C9.05389954,26.3739936 10.2911819,23.1751327 11.6572249,20 L55.478331,20 C53.7506375,24.0758642 52.2553963,28.3328761 51.0358572,32.7964393 C49.6248739,37.9551553 48.6725153,43.0202416 48.1041555,48 L26.2305,48 C25.6782153,48 25.2305,48.4477153 25.2305,49 C25.2305,49.5522847 25.6782153,50 26.2305,50 L49.0005,50 C49.5123013,50 49.9414962,49.6135689 49.9950171,49.1045737 C50.5379349,43.9413153 51.4988533,38.6844829 52.9650708,33.323824 C54.2982858,28.4442025 55.967948,23.8157046 57.9153434,19.4038087 C58.2071191,18.7427801 57.7230592,18 57.0005,18 L11.0005,18 C10.6026646,18 10.24267,18.2358229 10.0837501,18.6005384 C8.5926759,22.0225 7.2484307,25.4708902 6.05363319,28.988374 C3.78899057,35.6573755 2.13754014,42.2757454 1.01485017,48.8311971 C0.910234764,49.4420525 1.38075108,50 2.0005,50 L7.2305,50 C7.78278475,50 8.2305,49.5522847 8.2305,49 C8.2305,48.4477153 7.78278475,48 7.2305,48 L3.19190686,48 C4.28988937,41.9281541 5.85202992,35.8020498 7.94739461,29.6315441 Z" id="Stroke-3" fill="#4B5E69" fill-rule="nonzero"></path>
            <path d="M53,13 L53,19 L11,19 C9.61,22.19 8.25,25.63 7,29.31 C6.25,31.51 5.58,33.68 5,35.78 L5,13 L53,13 Z" id="Fill-5" fill="#D3E5EF"></path>
            <path d="M6,14 L6,29.1445728 C6.01766853,29.0925175 6.03537965,29.0404511 6.05313319,28.988374 C7.2479307,25.4708902 8.5921759,22.0225 10.0832501,18.6005384 C10.24217,18.2358229 10.6021646,18 11,18 L52,18 L52,14 L6,14 Z M11.6567249,20 C10.2906806,23.1751365 9.05337676,26.3740605 7.94651019,29.6326739 C7.20594711,31.8049923 6.54108645,33.9564515 5.96391142,36.0462232 C5.65381878,37.1689724 4,36.9447847 4,35.78 L4,13 C4,12.4477153 4.44771525,12 5,12 L53,12 C53.5522847,12 54,12.4477153 54,13 L54,19 C54,19.5522847 53.5522847,20 53,20 L11.6567249,20 Z" id="Stroke-7" fill="#4B5E69" fill-rule="nonzero"></path>
            <path d="M38.3643,40.0713 C34.8493,43.5863 29.1503,43.5863 25.6353,40.0713 C22.1213,36.5563 22.1213,30.8583 25.6353,27.3433 C29.1503,23.8283 34.8493,23.8283 38.3643,27.3433 C41.8793,30.8583 41.8793,36.5563 38.3643,40.0713" id="Fill-9" fill="#D3E5EF"></path>
            <path d="M37.6571932,39.3641932 C40.7816689,36.2397175 40.7816689,31.1748825 37.6571932,28.0504068 C34.5327175,24.9259311 29.4668825,24.9259311 26.3425074,28.0503062 C23.2188975,31.1748049 23.2188975,36.2397951 26.3424068,39.3641932 C29.4668825,42.4886689 34.5327175,42.4886689 37.6571932,39.3641932 Z M39.0714068,40.7784068 C35.1658825,44.6839311 28.8337175,44.6839311 24.9280926,40.7783062 C21.0237025,36.8728049 21.0237025,30.5417951 24.9281932,26.6361932 C28.8337175,22.7306689 35.1658825,22.7306689 39.0714068,26.6361932 C42.9769311,30.5417175 42.9769311,36.8728825 39.0714068,40.7784068 Z" id="Stroke-11" fill="#4B5E69" fill-rule="nonzero"></path>
            <path d="M35.5361,30.1719 C37.4851,32.1209 37.4851,35.2939 35.5351,37.2429 C34.5921,38.1869 33.3361,38.7079 32.0001,38.7079 C30.6641,38.7079 29.4081,38.1869 28.4641,37.2429 C29.2161,37.1219 31.2171,36.6989 33.0001,34.9999 C34.9641,33.1289 35.4191,30.8969 35.5361,30.1719" id="Fill-13" fill="#FFFFFF"></path>
            <path d="M22.2804091,44.8413044 L25.7344091,41.3863044 C26.1248769,40.9957236 26.1247852,40.3625586 25.7342044,39.9720909 C25.3436236,39.5816231 24.7104586,39.5817148 24.3199909,39.9722956 L20.8659909,43.4272956 C20.4755231,43.8178764 20.4756148,44.4510414 20.8661956,44.8415091 C21.2567764,45.2319769 21.8899414,45.2318852 22.2804091,44.8413044 Z" id="Stroke-15" fill="#4B5E69" fill-rule="nonzero"></path>
            <path d="M24.3389,44.9248 L20.7819,41.3678 C20.5149,41.1008 20.1179,41.0058 19.7589,41.1268 C16.9489,42.0638 11.9299,47.0288 11.3659,47.5918 C10.4649,48.4938 9.9679,49.6918 9.9679,50.9668 C9.9679,52.2408 10.4649,53.4398 11.3659,54.3408 C12.2679,55.2418 13.4659,55.7388 14.7399,55.7388 C16.0149,55.7388 17.2139,55.2418 18.1149,54.3408 C21.7179,50.7388 24.3779,46.3318 24.4889,46.1468 C24.7259,45.7528 24.6629,45.2488 24.3389,44.9248" id="Fill-17" fill="#F4877A"></path>
        </g>
    </g>
</svg>