<?xml version="1.0" encoding="UTF-8"?>
<svg width="60px" height="40px" viewBox="0 0 60 40" version="1.1" xmlns="http://www.w3.org/2000/svg" xmlns:xlink="http://www.w3.org/1999/xlink">
    <!-- Generator: Sketch 49.3 (51167) - http://www.bohemiancoding.com/sketch -->
    <title>Icon/ Schedule C</title>
    <desc>Created with Sketch.</desc>
    <defs>
        <polygon id="path-1" points="60 20.0002 60 40 0 40 0 20.0002 0 0.0004 60 0.0004"></polygon>
        <polygon id="path-3" points="0 40 60 40 60 0 0 0"></polygon>
    </defs>
    <g id="Icon/-Schedule-C" stroke="none" stroke-width="1" fill="none" fill-rule="evenodd">
        <g id="Page-1">
            <g id="Group-3">
                <mask id="mask-2" fill="white">
                    <use xlink:href="#path-1"></use>
                </mask>
                <g id="Clip-2"></g>
                <path d="M50,37.5234 L50,30.0004 L57.523,30.0004 L50,37.5234 Z M2,2.0004 L58,2.0004 L58,28.0004 L49,28.0004 C48.448,28.0004 48,28.4474 48,29.0004 L48,38.0004 L2,38.0004 L2,2.0004 Z M59,0.0004 L1,0.0004 C0.448,0.0004 0,0.4474 0,1.0004 L0,39.0004 C0,39.5524 0.448,40.0004 1,40.0004 L49.938,40.0004 C50.203,40.0004 50.457,39.8944 50.645,39.7074 L59.707,30.6444 C59.895,30.4574 60,30.2034 60,29.9374 L60,1.0004 C60,0.4474 59.552,0.0004 59,0.0004 Z" id="Fill-1" fill="#4F5661" mask="url(#mask-2)"></path>
            </g>
            <path d="M34.582,30.9404 C33.812,31.9914 32.537,32.7334 30.801,32.7334 C27.761,32.7334 25.575,30.5624 25.575,27.5084 C25.575,24.4134 27.845,22.3114 30.856,22.3114 C32.215,22.3114 33.686,22.8434 34.414,23.8524 L33.322,24.6934 C32.846,24.0204 31.879,23.5304 30.856,23.5304 C28.559,23.5304 27.088,25.3374 27.088,27.5084 C27.088,29.7364 28.531,31.5014 30.814,31.5014 C31.921,31.5014 32.887,31.0394 33.476,30.1844 L34.582,30.9404 Z" id="Fill-4" fill="#53C27C"></path>
            <path d="M11.707,11.6309 C11.477,11.2569 11.025,10.9819 10.498,10.9819 C10.024,10.9819 9.529,11.1689 9.529,11.6639 C9.529,12.1039 9.926,12.2689 10.717,12.4449 C11.707,12.6649 12.467,13.0719 12.467,13.9849 C12.467,15.2179 11.443,15.6679 10.387,15.6679 C9.596,15.6679 8.781,15.3599 8.286,14.7339 L9.023,14.1069 C9.299,14.5139 9.826,14.8319 10.409,14.8319 C10.926,14.8319 11.443,14.6459 11.443,14.0729 C11.443,13.5889 10.971,13.4129 10.079,13.2039 C9.387,13.0389 8.561,12.7419 8.561,11.7629 C8.561,10.6409 9.54,10.1679 10.53,10.1679 C11.268,10.1679 12.049,10.4649 12.423,11.0259 L11.707,11.6309 Z" id="Fill-6" fill="#4F5661"></path>
            <path d="M17.4277,11.6309 C17.2067,11.2899 16.7227,11.0369 16.2287,11.0369 C15.1507,11.0369 14.5237,11.9169 14.5237,12.9179 C14.5237,13.9079 15.1507,14.7989 16.2397,14.7989 C16.7677,14.7989 17.2187,14.5789 17.4937,14.2279 L18.1867,14.8549 C17.7457,15.3599 17.0747,15.6679 16.2397,15.6679 C14.6327,15.6679 13.4337,14.5789 13.4337,12.9179 C13.4337,11.2779 14.6217,10.1679 16.2167,10.1679 C16.9547,10.1679 17.7457,10.4649 18.1757,11.0259 L17.4277,11.6309 Z" id="Fill-8" fill="#4F5661"></path>
            <path d="M20.2871,11.1025 C20.5291,10.5855 21.1891,10.1675 21.9371,10.1675 C23.2791,10.1675 23.8851,11.1245 23.8851,12.2905 L23.8851,15.5255 L22.8501,15.5255 L22.8501,12.6425 C22.8501,11.7955 22.6311,11.0475 21.6741,11.0475 C20.8591,11.0475 20.2661,11.7295 20.2661,12.7635 L20.2661,15.5255 L19.2301,15.5255 L19.2301,7.2075 L20.2661,7.2075 L20.2661,11.1025 L20.2871,11.1025 Z" id="Fill-10" fill="#4F5661"></path>
            <path d="M29.4502,12.4561 C29.4282,11.6311 28.9442,10.9811 27.9872,10.9811 C27.0962,10.9811 26.4142,11.6421 26.3472,12.4561 L29.4502,12.4561 Z M30.4842,13.2261 L26.3472,13.2261 C26.3812,14.1171 27.1292,14.8101 28.0422,14.8101 C28.7462,14.8101 29.2632,14.4581 29.5602,14.0181 L30.2872,14.6021 C29.7252,15.3271 28.9672,15.6681 28.0422,15.6681 C26.4582,15.6681 25.2922,14.5681 25.2922,12.9291 C25.2922,11.3011 26.4582,10.1681 27.9872,10.1681 C29.5272,10.1681 30.4962,11.2131 30.4962,12.8741 C30.4962,12.9841 30.4962,13.1051 30.4842,13.2261 Z" id="Fill-12" fill="#4F5661"></path>
            <path d="M34.3896,14.7988 C35.4456,14.7988 36.1496,13.9188 36.1496,12.9178 C36.1496,11.9168 35.4456,11.0258 34.3896,11.0258 C33.2556,11.0258 32.6616,11.9278 32.6616,12.9068 C32.6616,13.8858 33.2556,14.7988 34.3896,14.7988 M34.2126,15.6678 C32.6076,15.6678 31.5836,14.4368 31.5836,12.9068 C31.5836,11.3668 32.6406,10.1678 34.2026,10.1678 C35.0486,10.1678 35.6996,10.5858 36.0616,11.0918 L36.0836,11.0918 L36.0836,7.2078 L37.1176,7.2078 L37.1176,15.5258 L36.1176,15.5258 L36.1176,14.6998 L36.0946,14.6998 C35.6996,15.3268 34.9516,15.6678 34.2126,15.6678" id="Fill-14" fill="#4F5661"></path>
            <path d="M42.5957,15.5254 C42.5737,15.2614 42.5507,14.8874 42.5507,14.6674 L42.5297,14.6674 C42.2657,15.2174 41.5837,15.6684 40.8247,15.6684 C39.4827,15.6684 38.8767,14.7114 38.8767,13.5454 L38.8767,10.3104 L39.9107,10.3104 L39.9107,13.1934 C39.9107,14.0504 40.1427,14.7984 41.0997,14.7984 C41.9237,14.7984 42.4957,14.1174 42.4957,13.0834 L42.4957,10.3104 L43.5317,10.3104 L43.5317,14.4034 C43.5317,14.6784 43.5407,15.1844 43.5747,15.5254 L42.5957,15.5254 Z" id="Fill-16" fill="#4F5661"></path>
            <mask id="mask-4" fill="white">
                <use xlink:href="#path-3"></use>
            </mask>
            <g id="Clip-19"></g>
            <polygon id="Fill-18" fill="#4F5661" mask="url(#mask-4)" points="45.345 15.525 46.379 15.525 46.379 7.208 45.345 7.208"></polygon>
            <path d="M52,12.4561 C51.979,11.6311 51.494,10.9811 50.537,10.9811 C49.646,10.9811 48.964,11.6421 48.898,12.4561 L52,12.4561 Z M53.034,13.2261 L48.898,13.2261 C48.931,14.1171 49.679,14.8101 50.592,14.8101 C51.296,14.8101 51.813,14.4581 52.11,14.0181 L52.836,14.6021 C52.275,15.3271 51.516,15.6681 50.592,15.6681 C49.008,15.6681 47.842,14.5681 47.842,12.9291 C47.842,11.3011 49.008,10.1681 50.537,10.1681 C52.077,10.1681 53.045,11.2131 53.045,12.8741 C53.045,12.9841 53.045,13.1051 53.034,13.2261 Z" id="Fill-20" fill="#4F5661" mask="url(#mask-4)"></path>
            <path d="M18.9048,23.7441 L8.9048,23.7441 C8.3528,23.7441 7.9048,23.2971 7.9048,22.7441 C7.9048,22.1911 8.3528,21.7441 8.9048,21.7441 L18.9048,21.7441 C19.4568,21.7441 19.9048,22.1911 19.9048,22.7441 C19.9048,23.2971 19.4568,23.7441 18.9048,23.7441" id="Fill-21" fill="#D3E5EF" mask="url(#mask-4)"></path>
            <path d="M15.9048,28.7441 L8.9048,28.7441 C8.3528,28.7441 7.9048,28.2971 7.9048,27.7441 C7.9048,27.1911 8.3528,26.7441 8.9048,26.7441 L15.9048,26.7441 C16.4568,26.7441 16.9048,27.1911 16.9048,27.7441 C16.9048,28.2971 16.4568,28.7441 15.9048,28.7441" id="Fill-22" fill="#D3E5EF" mask="url(#mask-4)"></path>
            <path d="M19.9048,33.7441 L8.9048,33.7441 C8.3528,33.7441 7.9048,33.2971 7.9048,32.7441 C7.9048,32.1911 8.3528,31.7441 8.9048,31.7441 L19.9048,31.7441 C20.4568,31.7441 20.9048,32.1911 20.9048,32.7441 C20.9048,33.2971 20.4568,33.7441 19.9048,33.7441" id="Fill-23" fill="#D3E5EF" mask="url(#mask-4)"></path>
        </g>
    </g>
</svg>