<?xml version="1.0" encoding="UTF-8"?>
<svg width="60px" height="55px" viewBox="0 0 60 55" version="1.1" xmlns="http://www.w3.org/2000/svg" xmlns:xlink="http://www.w3.org/1999/xlink">
    <!-- Generator: Sketch 49.3 (51167) - http://www.bohemiancoding.com/sketch -->
    <title>Icon/ Search Small Business Deductions</title>
    <desc>Created with Sketch.</desc>
    <defs></defs>
    <g id="Icon/-Search-Small-Business-Deductions" stroke="none" stroke-width="1" fill="none" fill-rule="evenodd">
        <g id="Page-1">
            <path d="M12,35.9999 C8.141,35.9999 5,39.1409 5,42.9999 C5,46.8589 8.141,49.9999 12,49.9999 C15.859,49.9999 19,46.8589 19,42.9999 C19,39.1409 15.859,35.9999 12,35.9999" id="Fill-1" fill="#D3E5EF"></path>
            <path d="M48,52.9999 C42.486,52.9999 38,48.5139 38,42.9999 C38,37.4859 42.486,32.9999 48,32.9999 C53.514,32.9999 58,37.4859 58,42.9999 C58,48.5139 53.514,52.9999 48,52.9999 Z M34.576,39.9999 C34.846,39.3869 35,38.7119 35,37.9999 L35,30.7419 C35.051,30.6429 35.094,30.5369 35.109,30.4189 C35.362,28.4579 36.264,26.6989 37.648,25.3739 C37.654,25.3679 37.66,25.3609 37.666,25.3539 C38.151,24.8939 38.693,24.4829 39.29,24.1389 C43.348,21.7959 48.557,23.1899 50.888,27.2259 L53.707,32.4459 C52.009,31.5239 50.064,30.9999 48,30.9999 C42.42,30.9999 37.732,34.8329 36.395,39.9999 L34.576,39.9999 Z M37.95,21.2509 C37.95,20.2349 38.637,19.1829 39.738,18.5069 C40.553,18.0139 41.5,17.8739 42.408,18.1169 C43.358,18.3719 44.156,19.0109 44.64,19.8899 L45.283,21.1519 C42.958,20.7579 40.487,21.1389 38.29,22.4059 C38.172,22.4749 38.065,22.5569 37.95,22.6289 L37.95,21.2509 Z M33,34.0249 C32.162,33.3909 31.13,32.9999 30,32.9999 C28.87,32.9999 27.838,33.3909 27,34.0249 L27,29.9999 C27,28.3459 28.346,26.9999 30,26.9999 C31.654,26.9999 33,28.3459 33,29.9999 L33,34.0249 Z M30,40.9999 C28.346,40.9999 27,39.6539 27,37.9999 C27,36.3459 28.346,34.9999 30,34.9999 C31.654,34.9999 33,36.3459 33,37.9999 C33,39.6539 31.654,40.9999 30,40.9999 Z M23.605,39.9999 C22.268,34.8329 17.58,30.9999 12,30.9999 C9.957,30.9999 8.032,31.5159 6.347,32.4209 L9.139,27.2499 C11.482,23.1899 16.691,21.7959 20.75,24.1389 C23.064,25.4749 24.589,27.7639 24.931,30.4189 C24.94,30.4929 24.976,30.5549 25,30.6219 L25,37.6869 C25,37.7249 25.018,37.7559 25.021,37.7919 C25.018,37.8619 25,37.9289 25,37.9999 C25,38.7119 25.154,39.3869 25.424,39.9999 L23.605,39.9999 Z M12,52.9999 C6.486,52.9999 2,48.5139 2,42.9999 C2,37.4859 6.486,32.9999 12,32.9999 C17.514,32.9999 22,37.4859 22,42.9999 C22,48.5139 17.514,52.9999 12,52.9999 Z M15.297,20.2609 C15.794,19.3529 16.591,18.7109 17.541,18.4559 C18.445,18.2129 19.396,18.3519 20.208,18.8429 C21.313,19.5209 22,20.5729 22,21.5899 L22,22.5699 C21.915,22.5179 21.837,22.4559 21.75,22.4059 C19.581,21.1539 17.147,20.7699 14.848,21.1399 L15.297,20.2609 Z M58.633,37.4579 C58.613,37.3809 58.603,37.3029 58.563,37.2289 L52.634,26.2499 C51.511,24.3059 49.852,22.8629 47.953,21.9859 L46.407,18.9539 C45.645,17.5649 44.408,16.5819 42.926,16.1859 C41.484,15.7979 39.986,16.0169 38.697,16.7999 C37.003,17.8389 35.95,19.5439 35.95,21.2509 L35.95,24.2599 C35.158,25.0869 34.512,26.0309 34.031,27.0679 C33.121,25.8209 31.659,24.9999 30,24.9999 C28.355,24.9999 26.907,25.8079 25.995,27.0369 C25.497,25.9719 24.825,25.0049 24,24.1649 L24,21.5899 C24,19.8819 22.947,18.1759 21.249,17.1349 C19.96,16.3539 18.46,16.1369 17.021,16.5239 C15.539,16.9229 14.304,17.9089 13.529,19.3259 L12.193,21.9429 C10.247,22.8179 8.543,24.2819 7.393,26.2739 L1.477,37.2289 C1.473,37.2369 1.473,37.2459 1.469,37.2539 C0.533,38.9619 0,40.9189 0,42.9999 C0,49.6169 5.383,54.9999 12,54.9999 C18.617,54.9999 24,49.6169 24,42.9999 C24,42.6619 23.977,42.3309 23.949,41.9999 L27,41.9999 C27.009,41.9999 27.016,41.9949 27.024,41.9949 C27.858,42.6179 28.882,42.9999 30,42.9999 C31.118,42.9999 32.142,42.6179 32.976,41.9949 C32.984,41.9949 32.991,41.9999 33,41.9999 L36.051,41.9999 C36.023,42.3309 36,42.6619 36,42.9999 C36,49.6169 41.383,54.9999 48,54.9999 C54.617,54.9999 60,49.6169 60,42.9999 C60,40.9999 59.502,39.1169 58.633,37.4579 Z" id="Fill-3" fill="#4F5661"></path>
            <path d="M48,35.9999 C44.141,35.9999 41,39.1409 41,42.9999 C41,46.8589 44.141,49.9999 48,49.9999 C51.859,49.9999 55,46.8589 55,42.9999 C55,39.1409 51.859,35.9999 48,35.9999" id="Fill-5" fill="#D3E5EF"></path>
            <path d="M35.5,12.6659 C35.5,10.4569 34.072,9.1589 30.868,8.4589 C28.073,7.8569 27.857,7.2689 27.857,6.5029 C27.857,5.6289 28.737,5.0179 29.996,5.0179 C31.211,5.0179 32.267,5.4189 33.318,6.2779 L33.789,6.6659 L35.341,4.6039 L34.898,4.2459 C33.76,3.3289 32.638,2.8179 31.312,2.6279 L31.312,0.8469 C31.312,0.3799 30.934,-0.0001 30.468,-0.0001 L29.625,-0.0001 C29.159,-0.0001 28.781,0.3799 28.781,0.8469 L28.781,2.6799 C26.676,3.1209 25.241,4.6549 25.241,6.6679 C25.241,9.5169 27.529,10.4079 30.004,10.9479 C32.666,11.5129 32.865,12.0669 32.865,12.8499 C32.865,13.7879 31.934,14.4429 30.6,14.4429 C29.064,14.4429 27.907,13.9619 26.604,12.7799 L26.155,12.3719 L24.5,14.3369 L24.926,14.7189 C26.123,15.7919 27.379,16.4489 28.781,16.7409 L28.781,18.6149 C28.781,19.0819 29.159,19.4619 29.625,19.4619 L30.468,19.4619 C30.934,19.4619 31.312,19.0819 31.312,18.6149 L31.312,16.8639 C33.809,16.5819 35.5,14.9429 35.5,12.6659" id="Fill-7" fill="#53C27C"></path>
            <path d="M5.1377,14.4403 L5.8207,16.2833 C5.8897,16.4653 6.0337,16.6103 6.2167,16.6793 L8.0597,17.3623 C8.4117,17.4963 8.5887,17.8893 8.4547,18.2423 C8.3857,18.4243 8.2417,18.5693 8.0597,18.6383 L6.2167,19.3213 C6.0337,19.3893 5.8897,19.5343 5.8207,19.7163 L5.1377,21.5593 C5.0047,21.9123 4.6107,22.0883 4.2577,21.9563 C4.0757,21.8863 3.9307,21.7423 3.8627,21.5593 L3.1797,19.7163 C3.1107,19.5343 2.9657,19.3893 2.7837,19.3213 L0.9407,18.6383 C0.5877,18.5043 0.4107,18.1103 0.5447,17.7573 C0.6147,17.5753 0.7577,17.4313 0.9407,17.3623 L2.7837,16.6793 C2.9657,16.6103 3.1107,16.4653 3.1797,16.2833 L3.8627,14.4403 C3.9947,14.0873 4.3897,13.9113 4.7417,14.0443 C4.9247,14.1143 5.0697,14.2573 5.1377,14.4403" id="Fill-9" fill="#D3E5EF"></path>
            <path d="M46.1377,5.4403 L46.8207,7.2833 C46.8897,7.4653 47.0337,7.6103 47.2167,7.6793 L49.0597,8.3623 C49.4117,8.4963 49.5887,8.8893 49.4547,9.2423 C49.3857,9.4243 49.2417,9.5693 49.0597,9.6383 L47.2167,10.3213 C47.0337,10.3893 46.8897,10.5343 46.8207,10.7163 L46.1377,12.5593 C46.0047,12.9123 45.6107,13.0883 45.2577,12.9563 C45.0757,12.8863 44.9307,12.7423 44.8627,12.5593 L44.1797,10.7163 C44.1107,10.5343 43.9657,10.3893 43.7837,10.3213 L41.9407,9.6383 C41.5877,9.5043 41.4107,9.1103 41.5447,8.7573 C41.6147,8.5753 41.7577,8.4313 41.9407,8.3623 L43.7837,7.6793 C43.9657,7.6103 44.1107,7.4653 44.1797,7.2833 L44.8627,5.4403 C44.9947,5.0873 45.3897,4.9113 45.7417,5.0443 C45.9247,5.1143 46.0697,5.2573 46.1377,5.4403" id="Fill-11" fill="#D3E5EF"></path>
            <path d="M16.0586,5.3856 L16.6556,6.9976 C16.7156,7.1576 16.8426,7.2836 17.0016,7.3446 L18.6146,7.9416 C18.9226,8.0586 19.0786,8.4036 18.9606,8.7116 C18.9006,8.8716 18.7746,8.9976 18.6146,9.0586 L17.0016,9.6556 C16.8426,9.7166 16.7156,9.8426 16.6556,10.0016 L16.0586,11.6146 C15.9416,11.9226 15.5966,12.0776 15.2876,11.9606 C15.1276,11.9006 15.0016,11.7746 14.9416,11.6146 L14.3446,10.0016 C14.2846,9.8426 14.1576,9.7166 13.9976,9.6556 L12.3856,9.0586 C12.0776,8.9416 11.9216,8.5966 12.0386,8.2876 C12.0996,8.1286 12.2256,8.0016 12.3856,7.9416 L13.9976,7.3446 C14.1576,7.2836 14.2846,7.1576 14.3446,6.9976 L14.9416,5.3856 C15.0586,5.0766 15.4036,4.9216 15.7116,5.0386 C15.8716,5.0996 15.9976,5.2256 16.0586,5.3856" id="Fill-13" fill="#D3E5EF"></path>
            <path d="M56.0586,15.3856 L56.6556,16.9976 C56.7156,17.1576 56.8426,17.2836 57.0016,17.3446 L58.6146,17.9416 C58.9226,18.0586 59.0786,18.4036 58.9606,18.7116 C58.9006,18.8716 58.7746,18.9976 58.6146,19.0586 L57.0016,19.6556 C56.8426,19.7166 56.7156,19.8426 56.6556,20.0016 L56.0586,21.6146 C55.9416,21.9226 55.5966,22.0776 55.2876,21.9606 C55.1276,21.9006 55.0016,21.7746 54.9416,21.6146 L54.3446,20.0016 C54.2846,19.8426 54.1576,19.7166 53.9976,19.6556 L52.3856,19.0586 C52.0776,18.9416 51.9216,18.5966 52.0386,18.2876 C52.0996,18.1286 52.2256,18.0016 52.3856,17.9416 L53.9976,17.3446 C54.1576,17.2836 54.2846,17.1576 54.3446,16.9976 L54.9416,15.3856 C55.0586,15.0766 55.4036,14.9216 55.7116,15.0386 C55.8716,15.0996 55.9976,15.2256 56.0586,15.3856" id="Fill-15" fill="#D3E5EF"></path>
        </g>
    </g>
</svg>