<?xml version="1.0" encoding="UTF-8"?>
<svg width="60px" height="61px" viewBox="0 0 60 61" version="1.1" xmlns="http://www.w3.org/2000/svg" xmlns:xlink="http://www.w3.org/1999/xlink">
    <!-- Generator: Sketch 49.3 (51167) - http://www.bohemiancoding.com/sketch -->
    <title>Icon/ Search</title>
    <desc>Created with Sketch.</desc>
    <defs>
        <polygon id="path-1" points="30 60 60 60 60 0 0 0 0 30 0 60"></polygon>
    </defs>
    <g id="Icon/-Search" stroke="none" stroke-width="1" fill="none" fill-rule="evenodd">
        <g id="Search">
            <path d="M38,19.5 C38,22.1 37.46,24.58 36.48,26.83 C33.34,26.14 31,23.35 31,20 C31,16.52 33.53,13.64 36.85,13.1 C37.6,15.09 38,17.25 38,19.5" id="Fill-1" fill="#D3E5EF"></path>
            <path d="M1,20.4297 C1,17.8297 1.54,15.3497 2.52,13.0997 C5.66,13.7897 8,16.5797 8,19.9297 C8,23.4097 5.47,26.2897 2.15,26.8297 C1.4,24.8397 1,22.6797 1,20.4297" id="Fill-3" fill="#D3E5EF"></path>
            <path d="M41.96,52.25 L44.96,55.26 L46.35,56.65 C48.44,55.38 50.37,53.87 52.12,52.12 C53.87,50.37 55.38,48.45 56.64,46.36 L52.24,41.96 C51.09,44.14 49.63,46.12 47.88,47.88 C46.12,49.64 44.14,51.1 41.96,52.25" id="Fill-5" fill="#D3E5EF"></path>
            <g id="Group-9">
                <mask id="mask-2" fill="white">
                    <use xlink:href="#path-1"></use>
                </mask>
                <g id="Clip-8"></g>
                <path d="M48.998,57.876 L33.454,42.32 L35.861,39.913 C35.862,39.912 35.864,39.911 35.866,39.91 C35.867,39.909 35.868,39.907 35.869,39.905 L39.906,35.868 C39.907,35.867 39.909,35.866 39.91,35.865 C39.911,35.864 39.912,35.862 39.913,35.861 L42.32,33.454 L57.875,49.001 C56.555,53.225 53.222,56.557 48.998,57.876 Z M31.9,34.531 C32.854,33.743 33.739,32.867 34.534,31.903 L37.789,35.157 L35.158,37.788 L31.9,34.531 Z M2,19.5 C2,9.851 9.851,2 19.5,2 C26.795,2 33.39,6.6 35.912,13.445 C35.913,13.447 35.914,13.45 35.915,13.452 C36.635,15.364 37,17.398 37,19.5 C37,21.91 36.517,24.242 35.562,26.434 C32.788,32.853 26.483,37 19.5,37 C9.851,37 2,29.149 2,19.5 Z M59.706,48.001 L43.027,31.333 C42.652,30.958 41.988,30.958 41.613,31.333 L39.202,33.743 L35.751,30.293 C35.745,30.287 35.736,30.285 35.73,30.278 C36.365,29.322 36.931,28.309 37.397,27.23 C38.46,24.787 39,22.187 39,19.5 C39,17.158 38.592,14.888 37.788,12.751 C34.977,5.124 27.628,0 19.5,0 C8.748,0 0,8.748 0,19.5 C0,30.252 8.748,39 19.5,39 C23.424,39 27.154,37.822 30.285,35.74 C30.289,35.744 30.29,35.749 30.293,35.752 L33.744,39.202 L31.333,41.613 C30.942,42.004 30.942,42.637 31.332,43.027 L48.004,59.709 C48.194,59.897 48.449,60 48.71,60 C48.796,60 48.882,59.989 48.967,59.966 C54.324,58.538 58.539,54.324 59.966,48.968 C60.059,48.622 59.959,48.254 59.706,48.001 Z" id="Fill-7" fill="#4F5661" mask="url(#mask-2)"></path>
            </g>
            <path d="M48,20.5 C48,21.881 46.881,23 45.5,23 C44.119,23 43,21.881 43,20.5 C43,19.119 44.119,18 45.5,18 C46.881,18 48,19.119 48,20.5" id="Fill-10" fill="#D3E5EF"></path>
            <path d="M58,20.5 C58,21.881 56.881,23 55.5,23 C54.119,23 53,21.881 53,20.5 C53,19.119 54.119,18 55.5,18 C56.881,18 58,19.119 58,20.5" id="Fill-12" fill="#D3E5EF"></path>
            <path d="M26.5,20 C26.5,23.866 23.366,27 19.5,27 C15.634,27 12.5,23.866 12.5,20 C12.5,16.134 15.634,13 19.5,13 C23.366,13 26.5,16.134 26.5,20" id="Fill-14" fill="#53C27C"></path>
        </g>
    </g>
</svg>