<?xml version="1.0" encoding="UTF-8"?>
<svg width="56px" height="61px" viewBox="0 0 56 61" version="1.1" xmlns="http://www.w3.org/2000/svg" xmlns:xlink="http://www.w3.org/1999/xlink">
    <!-- Generator: Sketch 49.3 (51167) - http://www.bohemiancoding.com/sketch -->
    <title>Icon/ Self-employed</title>
    <desc>Created with Sketch.</desc>
    <defs>
        <polygon id="path-1" points="0 59 0 0.012 56 0.012 56 60 0 60 0 59 0 60 56 60 56 58 0 58"></polygon>
    </defs>
    <g id="Icon/-Self-employed" stroke="none" stroke-width="1" fill="none" fill-rule="evenodd">
        <g id="Self-employed">
            <g id="Group-3" transform="translate(0.000000, 0.988300)">
                <mask id="mask-2" fill="white">
                    <use xlink:href="#path-1"></use>
                </mask>
                <g id="Clip-2"></g>
                <path d="M55,60 L1,60 C0.447,60 0,59.553 0,59 C0,58.447 0.447,58 1,58 L55,58 C55.553,58 56,58.447 56,59 C56,59.553 55.553,60 55,60" id="Fill-1" fill="#D3E5EF" mask="url(#mask-2)"></path>
            </g>
            <path d="M28,59.9883 L43.17,59.9883 C43.651,59.9883 44.064,59.6023 44.153,59.0703 L46.778,43.3203 C46.894,42.6283 46.421,41.9883 45.795,41.9883 L28,41.9883 L10.205,41.9883 C9.579,41.9883 9.106,42.6283 9.222,43.3203 L11.847,59.0703 C11.936,59.6023 12.349,59.9883 12.83,59.9883 L28,59.9883 Z" id="Fill-4" fill="#FFFFFF"></path>
            <path d="M10.2051,42.9883 C10.2341,42.9893 10.1911,43.0553 10.2081,43.1563 L12.8331,58.9063 C12.8431,58.9643 12.8671,58.9943 12.8751,58.9993 L43.1561,58.9883 C43.1401,58.9833 43.1591,58.9553 43.1671,58.9053 L45.7921,43.1563 C45.8091,43.0553 45.7661,42.9893 45.7491,42.9753 L10.2051,42.9883 Z M43.1701,60.9883 L12.8301,60.9883 C11.8581,60.9883 11.0301,60.2513 10.8601,59.2353 L8.2351,43.4843 C8.1271,42.8343 8.3031,42.1803 8.7191,41.6903 C9.0971,41.2443 9.6391,40.9883 10.2051,40.9883 L45.7951,40.9883 C46.3611,40.9883 46.9031,41.2443 47.2811,41.6903 C47.6971,42.1803 47.8731,42.8343 47.7651,43.4843 L45.1401,59.2343 C44.9701,60.2513 44.1421,60.9883 43.1701,60.9883 Z" id="Fill-6" fill="#4F5661"></path>
            <path d="M28,47.9883 C26.317,47.9883 25,49.0863 25,50.4883 C25,51.8903 26.317,52.9883 28,52.9883 C29.683,52.9883 31,51.8903 31,50.4883 C31,49.0863 29.683,47.9883 28,47.9883" id="Fill-8" fill="#D3E5EF"></path>
            <path d="M36.5732,8.5918 C35.3472,4.7558 32.3962,1.9878 27.9692,1.9878 C22.5452,1.9878 18.9402,6.1868 18.9402,11.3518 C18.9402,11.3518 20.4922,12.2918 23.4382,9.4868 C24.5022,10.2488 26.1772,11.2268 28.3792,11.8128 C32.7062,12.9638 35.5482,11.8748 37.0572,11.3628" id="Fill-10" fill="#D3E5EF"></path>
            <polyline id="Fill-12" fill="#F4877A" points="22.4355 28.4199 18.9405 30.6849 24.0015 37.9879 27.2445 36.3529"></polyline>
            <polygon id="Fill-14" fill="#F4877A" points="33.7139 28.4199 37.0579 30.6849 31.8609 37.9879 28.5179 36.3529"></polygon>
            <path d="M27.999,34.6553 L23.715,28.1213 L23.715,25.8243 C25.181,26.6723 26.704,27.1553 27.999,27.1553 C29.294,27.1553 30.817,26.6723 32.283,25.8243 L32.283,28.1213 L27.999,34.6553 Z M39.118,30.1903 C38.884,30.0833 38.654,29.9783 38.433,29.8743 L34.617,26.8793 C34.515,26.7983 34.4,26.7443 34.283,26.7093 L34.283,24.3873 C36.414,22.5273 38.058,19.8653 38.058,16.8033 L38.058,11.3743 C38.058,11.0513 37.902,10.7493 37.64,10.5613 C37.377,10.3713 37.038,10.3243 36.736,10.4263 L36.539,10.4943 C35.026,11.0143 32.493,11.8843 28.636,10.8563 C26.551,10.3013 24.976,9.3703 24.021,8.6853 C23.631,8.4053 23.097,8.4413 22.749,8.7733 C21.428,10.0313 20.503,10.3983 19.978,10.4943 C20.355,6.1023 23.6,3.0003 27.969,3.0003 C31.632,3.0003 34.421,5.1533 35.621,8.9073 C35.789,9.4323 36.347,9.7263 36.878,9.5543 C37.403,9.3863 37.694,8.8243 37.525,8.2983 C36.065,3.7283 32.492,1.0003 27.969,1.0003 C22.252,1.0003 17.94,5.4553 17.94,11.3623 C17.94,11.7123 18.123,12.0363 18.422,12.2173 C18.633,12.3463 20.481,13.3323 23.524,10.7633 C24.624,11.4683 26.18,12.2723 28.122,12.7903 C31.68,13.7363 34.318,13.2613 36.058,12.7533 L36.058,16.8033 C36.058,19.2753 34.58,21.5323 32.735,23.0763 C32.66,23.1273 32.592,23.1783 32.533,23.2473 C31.045,24.4333 29.349,25.1553 27.999,25.1553 C26.649,25.1553 24.953,24.4333 23.465,23.2473 C23.406,23.1783 23.338,23.1273 23.263,23.0763 C21.418,21.5313 19.94,19.2753 19.94,16.8033 L19.94,14.0893 C19.94,13.5363 19.493,13.0893 18.94,13.0893 C18.388,13.0893 17.94,13.5363 17.94,14.0893 L17.94,16.8033 C17.94,19.8653 19.584,22.5273 21.715,24.3873 L21.715,27.1793 L18.282,29.8743 C18.061,29.9783 17.831,30.0833 17.597,30.1903 C14.812,31.4663 11,33.2133 11,37.9883 C11,38.5413 11.447,38.9883 12,38.9883 C12.553,38.9883 13,38.5413 13,37.9883 C13,34.4963 15.76,33.2313 18.43,32.0093 C18.709,31.8813 18.98,31.7573 19.241,31.6333 C19.308,31.6003 19.371,31.5613 19.429,31.5153 L22.148,29.3803 L27.163,37.0273 C27.348,37.3083 27.662,37.4783 27.999,37.4783 C28.336,37.4783 28.65,37.3083 28.835,37.0273 L34.093,29.0093 L37.286,31.5153 C37.344,31.5613 37.407,31.6003 37.474,31.6333 C37.734,31.7573 38.006,31.8813 38.285,32.0093 C40.955,33.2313 43.715,34.4963 43.715,37.9883 C43.715,38.5413 44.162,38.9883 44.715,38.9883 C45.268,38.9883 45.715,38.5413 45.715,37.9883 C45.715,33.2133 41.902,31.4663 39.118,30.1903 Z" id="Fill-16" fill="#4F5661"></path>
            <path d="M27.999,21.8711 C26.566,21.8711 25.233,21.1001 24.52,19.8601 C24.244,19.3821 24.409,18.7701 24.888,18.4941 C25.367,18.2211 25.978,18.3841 26.254,18.8621 C26.617,19.4941 27.27,19.8711 27.999,19.8711 C28.728,19.8711 29.381,19.4941 29.743,18.8631 C30.018,18.3841 30.627,18.2201 31.108,18.4941 C31.587,18.7691 31.753,19.3811 31.478,19.8591 C30.765,21.1001 29.432,21.8711 27.999,21.8711" id="Fill-18" fill="#4F5661"></path>
        </g>
    </g>
</svg>