<?xml version="1.0" encoding="UTF-8"?>
<svg width="59px" height="58px" viewBox="0 0 59 58" version="1.1" xmlns="http://www.w3.org/2000/svg" xmlns:xlink="http://www.w3.org/1999/xlink">
    <!-- Generator: Sketch 49.3 (51167) - http://www.bohemiancoding.com/sketch -->
    <title>Icon/ Share with Friends</title>
    <desc>Created with Sketch.</desc>
    <defs>
        <polygon id="path-1" points="29.2690528 36 58.538 36 58.538 0.315 0.000105612024 0.315 0.000105612024 36"></polygon>
    </defs>
    <g id="Icon/-Share-with-Friends" stroke="none" stroke-width="1" fill="none" fill-rule="evenodd">
        <g id="Page-1">
            <path d="M38.7369,19.8574 C41.1369,17.5584 37.8969,15.9204 35.4999,15.0594 C34.0859,14.5514 33.6489,12.0284 29.1769,12.0284 C24.7049,12.0284 25.6019,15.0594 22.0669,15.5674 C17.6479,16.2024 22.0249,18.9434 19.3449,20.2984 C16.6649,21.6474 18.4489,24.3504 22.0249,25.0284 L23.7689,25.0284 C23.5689,24.6174 23.4489,24.1754 23.4489,23.7214 L23.4489,22.9714 L23.4649,22.0584 C23.4649,21.8584 23.4889,21.6634 23.5239,21.4704 C25.1099,21.1924 27.7499,20.3484 29.0939,18.6294 C30.4649,20.3814 33.1779,21.2234 34.7519,21.4854 C34.7859,21.6734 34.8089,21.8644 34.8089,22.0584 L34.8249,23.7214 C34.8249,24.1754 34.7049,24.6174 34.4969,25.0284 L35.4409,25.0284 C42.5929,25.0284 37.0439,21.4774 38.7369,19.8574" id="Fill-1" fill="#F4877A"></path>
            <path d="M57.5381,52.0283 C56.1001,53.0783 52.6681,56.0283 46.2691,56.0283 C44.4891,56.0283 40.1691,55.7993 35.0001,52.0283 C35.6091,50.2903 35.2181,51.5513 35.8271,49.8143 C36.8361,46.9423 39.4611,45.0283 42.4131,45.0283 L43.2691,45.0283 L43.2691,46.4543 C43.9421,47.7203 45.1051,48.3483 46.2691,48.3483 C47.4331,48.3483 48.5961,47.7203 49.2691,46.4543 L49.2691,45.0283 L50.1251,45.0283 C53.0771,45.0283 55.7021,46.9423 56.7111,49.8143 L57.5381,52.0283 Z" id="Fill-3" fill="#D3E5EF"></path>
            <path d="M40.252,34.9717 C41.756,34.3167 42.759,32.2207 44.263,33.2687 C45.768,34.3167 48.776,35.3647 52.286,33.7917 C52.286,33.7917 51.283,28.0287 45.768,28.0287 C40.252,28.0287 40.252,34.9717 40.252,34.9717" id="Fill-5" fill="#D3E5EF"></path>
            <path d="M32.2691,33.4541 L32.2691,32.0281 L33.1251,32.0281 C36.0771,32.0281 38.7021,33.9421 39.7111,36.8141 L40.5381,39.0281 C39.1001,40.0781 35.6681,43.0281 29.2691,43.0281 C27.4891,43.0281 23.1691,42.8001 18.0001,39.0281 C18.6091,37.2901 18.2181,38.5521 18.8271,36.8141 C19.8361,33.9421 22.4611,32.0281 25.4131,32.0281 L26.2691,32.0281 L26.2691,33.4541" id="Fill-7" fill="#FFFFFF"></path>
            <path d="M23.5381,52.0283 C22.1001,53.0783 18.6681,56.0283 12.2691,56.0283 C10.4891,56.0283 6.1691,55.7993 1.0001,52.0283 C1.6091,50.2903 1.2181,51.5513 1.8271,49.8143 C2.8361,46.9423 5.4611,45.0283 8.4131,45.0283 L9.2691,45.0283 L9.2691,46.4543 C9.9421,47.7203 11.1051,48.3483 12.2691,48.3483 C13.4331,48.3483 14.5961,47.7203 15.2691,46.4543 L15.2691,45.0283 L16.1251,45.0283 C19.0771,45.0283 21.7021,46.9423 22.7111,49.8143 L23.5381,52.0283 Z" id="Fill-9" fill="#F4877A"></path>
            <path d="M6.252,34.9717 C7.756,34.3167 8.759,32.2207 10.263,33.2687 C11.768,34.3167 14.776,35.3647 18.286,33.7917 C18.286,33.7917 17.283,28.0287 11.768,28.0287 C6.252,28.0287 6.252,34.9717 6.252,34.9717" id="Fill-11" fill="#D3E5EF"></path>
            <g id="Group-15" transform="translate(0.000000, 21.028300)">
                <mask id="mask-2" fill="white">
                    <use xlink:href="#path-1"></use>
                </mask>
                <g id="Clip-14"></g>
                <path d="M46.2691,34 C42.8571,34 39.4721,32.864 36.1971,30.622 C36.2671,30.434 36.2941,30.371 36.3231,30.309 C36.3811,30.181 36.4421,30.053 36.7701,29.118 C37.6201,26.702 39.8171,25.063 42.2691,25.002 L42.2691,25.426 L42.2691,25.489 L42.2791,25.507 C42.2901,25.642 42.3221,25.774 42.3861,25.895 C43.1931,27.414 44.6441,28.32 46.2691,28.32 C47.8931,28.32 49.3451,27.414 50.1521,25.896 C50.2161,25.775 50.2481,25.643 50.2591,25.507 L50.2691,25.489 L50.2691,25.426 L50.2691,25.002 C52.7211,25.063 54.9191,26.702 55.7741,29.136 L56.3391,30.646 C54.7201,31.851 51.5781,34 46.2691,34 Z M48.2691,22.563 L48.2691,24 L48.2691,24.939 C47.8051,25.607 47.0731,26 46.2691,26 C45.4651,26 44.7331,25.607 44.2691,24.939 L44.2691,24 L44.2691,22.546 C44.9701,22.835 45.6621,23 46.2781,23 C46.9081,23 47.5881,22.842 48.2691,22.563 Z M41.2691,15.688 L41.2871,13.329 L41.2871,13.315 C41.2871,10.505 43.5261,8.219 46.2781,8.219 C49.0301,8.219 51.2691,10.505 51.2691,13.323 L51.2871,15.688 C51.2871,15.875 51.2741,16.059 51.2481,16.241 C50.8881,18.868 47.9821,21 46.2781,21 C44.3911,21 41.2691,18.517 41.2691,15.688 Z M29.2691,21 C25.8571,21 22.4721,19.864 19.1971,17.622 C19.2671,17.434 19.2941,17.371 19.3231,17.309 C19.3811,17.181 19.4421,17.053 19.7701,16.118 C20.6201,13.702 22.8171,12.063 25.2691,12.002 L25.2691,12.226 L25.2691,12.426 L25.2951,12.426 C25.3161,12.528 25.3481,12.628 25.3991,12.719 C26.1051,13.964 28.2801,16.396 28.5251,16.669 C28.7151,16.88 28.9851,17 29.2691,17 C29.5531,17 29.8231,16.88 30.0131,16.669 C30.2581,16.396 32.4331,13.964 33.1391,12.719 C33.1901,12.628 33.2221,12.528 33.2431,12.426 L33.2691,12.426 L33.2691,12.226 L33.2691,12.002 C35.7211,12.063 37.9191,13.702 38.7741,16.136 L39.3391,17.646 C37.7201,18.851 34.5781,21 29.2691,21 Z M27.2691,11 L27.2691,9.546 C27.9701,9.835 28.6621,10 29.2781,10 C29.9081,10 30.5881,9.842 31.2691,9.563 L31.2691,11 L31.2691,11.945 C30.8341,12.619 29.9571,13.681 29.2691,14.482 C28.5811,13.681 27.7041,12.619 27.2691,11.945 L27.2691,11 Z M17.2481,16.241 C16.8881,18.868 13.9821,21 12.2781,21 C10.3911,21 7.2691,18.517 7.2691,15.688 L7.2871,13.329 L7.2871,13.315 C7.2871,10.505 9.5261,8.219 12.2781,8.219 C15.0301,8.219 17.2691,10.505 17.2691,13.323 L17.2871,15.688 C17.2871,15.875 17.2741,16.059 17.2481,16.241 Z M10.2691,24.939 L10.2691,24 L10.2691,22.546 C10.9701,22.835 11.6621,23 12.2781,23 C12.9081,23 13.5881,22.842 14.2691,22.563 L14.2691,24 L14.2691,24.939 C13.8051,25.607 13.0731,26 12.2691,26 C11.4651,26 10.7331,25.607 10.2691,24.939 Z M21.7741,29.136 L22.3391,30.646 C20.7201,31.851 17.5781,34 12.2691,34 C8.8571,34 5.4721,32.864 2.1971,30.622 C2.2671,30.434 2.2941,30.371 2.3231,30.309 C2.3811,30.181 2.4421,30.053 2.7701,29.118 C3.6201,26.702 5.8171,25.063 8.2691,25.002 L8.2691,25.426 L8.2691,25.489 L8.2791,25.507 C8.2901,25.642 8.3221,25.774 8.3861,25.895 C9.1931,27.414 10.6441,28.32 12.2691,28.32 C13.8931,28.32 15.3451,27.414 16.1521,25.896 C16.2161,25.775 16.2481,25.643 16.2591,25.507 L16.2691,25.489 L16.2691,25.426 L16.2691,25.002 C18.7211,25.063 20.9191,26.702 21.7741,29.136 Z M58.4751,30.65 L57.6551,28.454 C56.5241,25.239 53.5671,23.074 50.2691,23.012 L50.2691,21.373 C51.7541,20.187 52.9631,18.454 53.2301,16.514 C53.2671,16.242 53.2871,15.967 53.2871,15.68 L53.2691,13.315 C53.2691,9.402 50.1331,6.219 46.2781,6.219 C42.5151,6.219 39.4451,9.255 39.3001,13.04 C37.8341,11.205 35.6461,10.057 33.2691,10.012 L33.2691,8.373 C34.7541,7.187 35.9631,5.454 36.2301,3.514 C36.2671,3.242 36.2871,2.967 36.2871,2.675 L36.2691,1.303 C36.2621,0.75 35.8131,0.355 35.2561,0.315 C34.7041,0.322 34.2621,0.776 34.2691,1.328 L34.2871,2.688 C34.2871,2.875 34.2741,3.059 34.2481,3.241 C33.8881,5.868 30.9821,8 29.2781,8 C27.3911,8 24.2691,5.517 24.2691,2.688 L24.2681,1.676 L24.2851,1.374 C24.3171,0.822 23.8961,0.35 23.3451,0.317 C22.7831,0.294 22.3201,0.706 22.2881,1.257 L22.2691,2.688 C22.2691,5.028 23.6071,7.044 25.2691,8.362 L25.2691,10.012 C22.9011,10.057 20.7211,11.198 19.2541,13.021 C19.1011,9.245 16.0351,6.219 12.2781,6.219 C8.4251,6.219 5.2901,9.398 5.2871,13.309 L5.2691,15.688 C5.2691,18.028 6.6071,20.044 8.2691,21.362 L8.2691,23.012 C4.9711,23.074 2.0141,25.239 0.8831,28.455 C0.6021,29.256 0.5541,29.367 0.5041,29.477 C0.4451,29.604 0.3851,29.732 0.0561,30.669 C-0.0889,31.086 0.0541,31.548 0.4111,31.808 C4.2241,34.59 8.2131,36 12.2691,36 C18.5381,36 22.0881,33.336 23.7941,32.056 L24.1281,31.808 C24.4901,31.543 24.6321,31.07 24.4751,30.65 L23.6551,28.454 C22.5241,25.239 19.5671,23.074 16.2691,23.012 L16.2691,21.373 C16.9861,20.8 17.6351,20.099 18.1481,19.31 C21.7371,21.749 25.4731,23 29.2691,23 C35.1121,23 38.5911,20.687 40.4181,19.336 C40.9291,20.115 41.5661,20.804 42.2691,21.362 L42.2691,23.012 C38.9711,23.074 36.0141,25.239 34.8831,28.455 C34.6021,29.256 34.5541,29.367 34.5041,29.477 C34.4451,29.604 34.3851,29.732 34.0561,30.669 C33.9111,31.086 34.0541,31.548 34.4111,31.808 C38.2241,34.59 42.2131,36 46.2691,36 C52.5381,36 56.0881,33.336 57.7941,32.056 L58.1281,31.808 C58.4901,31.543 58.6321,31.07 58.4751,30.65 Z" id="Fill-13" fill="#4F5661" mask="url(#mask-2)"></path>
            </g>
            <path d="M21.6807,7.0625 C20.1547,4.0845 21.5327,1.6835 21.5987,1.5705 L20.3177,0.7915 L19.0437,0.0005 C18.9347,0.1755 16.6407,4.0055 19.0827,8.5645 L16.1427,10.2645 L22.9047,12.0725 L24.7127,5.3105 L21.6807,7.0625 Z" id="Fill-16" fill="#D3E5EF"></path>
            <path d="M9.0284,20.3359 C8.5724,15.4209 5.3064,13.2679 3.4584,12.8099 L2.7364,15.7219 C2.7694,15.7299 5.7904,16.5399 6.0664,20.8619 L2.4484,21.5049 L8.1874,25.5129 L12.1954,19.7739 L9.0284,20.3359 Z" id="Fill-18" fill="#D3E5EF"></path>
            <path d="M55.7418,16.7021 L55.3988,15.2421 L55.0688,13.7791 C54.8518,13.8281 50.1458,14.9691 48.7068,20.4851 L45.4618,19.6381 L49.0008,25.6781 L55.0398,22.1391 L51.6108,21.2431 C52.6008,17.5281 55.6018,16.7361 55.7418,16.7021" id="Fill-20" fill="#D3E5EF"></path>
        </g>
    </g>
</svg>