<?xml version="1.0" encoding="UTF-8"?>
<svg width="61px" height="55px" viewBox="0 0 61 55" version="1.1" xmlns="http://www.w3.org/2000/svg" xmlns:xlink="http://www.w3.org/1999/xlink">
    <!-- Generator: Sketch 49.3 (51167) - http://www.bohemiancoding.com/sketch -->
    <title>Icon/ shopping cart</title>
    <desc>Created with Sketch.</desc>
    <defs>
        <polygon id="path-1" points="58.028 52.9996 58.028 -0.0004 0.0003 -0.0004 0.0003 52.9996"></polygon>
    </defs>
    <g id="Icon/-shopping-cart" stroke="none" stroke-width="1" fill="none" fill-rule="evenodd">
        <g id="shopping-cart">
            <path d="M48.1929,25 L41.8029,25 L42.2829,19 L48.9129,19 L48.1929,25 Z M33.4009,25 L33.6409,19 L40.2769,19 L39.7969,25 L33.4009,25 Z M24.9999,25 L24.9999,19 L31.6399,19 L31.3999,25 L24.9999,25 Z M56.9999,17 L51.1669,17 L51.9929,10.119 C52.0589,9.57 51.6679,9.073 51.1189,9.007 C50.5709,8.941 50.0729,9.332 50.0069,9.881 L49.1529,17 L42.4429,17 L42.9969,10.08 C43.0409,9.529 42.6309,9.047 42.0799,9.003 C41.5369,8.965 41.0469,9.369 41.0039,9.92 L40.4369,17 L33.7209,17 L33.9989,10.04 C34.0219,9.488 33.5919,9.022 33.0399,9.001 C32.4809,8.981 32.0239,9.409 32.0009,9.96 L31.7189,17 L24.9999,17 L24.9999,10 C24.9999,9.447 24.5519,9 23.9999,9 C23.4479,9 22.9999,9.447 22.9999,10 L22.9999,17 L14.9999,17 C14.4479,17 13.9999,17.447 13.9999,18 C13.9999,18.553 14.4479,19 14.9999,19 L22.9999,19 L22.9999,25 L14.9999,25 C14.4479,25 13.9999,25.447 13.9999,26 C13.9999,26.553 14.4479,27 14.9999,27 L22.9999,27 L22.9999,35 C22.9999,35.553 23.4479,36 23.9999,36 C24.5519,36 24.9999,35.553 24.9999,35 L24.9999,27 L31.3189,27 L31.0009,34.96 C30.9789,35.512 31.4079,35.978 31.9599,35.999 C31.9739,36 31.9869,36 32.0009,36 C32.5349,36 32.9779,35.578 32.9989,35.04 L33.3209,27 L39.6369,27 L39.0039,34.92 C38.9589,35.471 39.3699,35.953 39.9209,35.997 C39.9469,35.999 39.9739,36 40.0009,36 C40.5169,36 40.9549,35.604 40.9969,35.08 L41.6429,27 L47.9529,27 L47.0069,34.881 C46.9419,35.43 47.3329,35.927 47.8809,35.993 C47.9219,35.998 47.9619,36 48.0019,36 C48.5009,36 48.9319,35.627 48.9929,35.119 L49.9669,27 L55.9999,27 C56.5519,27 56.9999,26.553 56.9999,26 C56.9999,25.447 56.5519,25 55.9999,25 L50.2069,25 L50.9269,19 L56.9999,19 C57.5519,19 57.9999,18.553 57.9999,18 C57.9999,17.447 57.5519,17 56.9999,17 Z" id="Fill-1" fill="#D3E5EF"></path>
            <g id="Group-5" transform="translate(2.000000, 2.000000)">
                <mask id="mask-2" fill="white">
                    <use xlink:href="#path-1"></use>
                </mask>
                <g id="Clip-4"></g>
                <path d="M52.4033,30.3486 C52.2463,31.3226 51.4163,32.0286 50.4303,32.0286 L50.4263,32.0286 L50.4253,32.0286 L13.9823,31.9686 L13.9993,9.0006 L55.8533,9.0326 L52.4033,30.3486 Z M44.0003,50.9996 C42.3453,50.9996 41.0003,49.6546 41.0003,47.9996 C41.0003,46.3456 42.3453,44.9996 44.0003,44.9996 C44.5903,44.9996 45.1373,45.1766 45.6023,45.4726 C45.4763,45.6656 45.3343,45.8356 45.1633,45.9436 L43.2753,47.1236 C42.8073,47.4166 42.6653,48.0346 42.9583,48.5016 C43.1473,48.8056 43.4733,48.9716 43.8063,48.9716 C43.9873,48.9716 44.1713,48.9226 44.3363,48.8196 L46.2233,47.6386 C46.4533,47.4946 46.6603,47.3156 46.8523,47.1166 C46.9393,47.3976 47.0003,47.6906 47.0003,47.9996 C47.0003,49.6546 45.6543,50.9996 44.0003,50.9996 Z M17.0003,50.9996 C15.3453,50.9996 14.0003,49.6546 14.0003,47.9996 C14.0003,46.3456 15.3453,44.9996 17.0003,44.9996 C17.5903,44.9996 18.1373,45.1766 18.6023,45.4726 C18.4763,45.6656 18.3343,45.8356 18.1633,45.9436 L16.2753,47.1236 C15.8073,47.4166 15.6653,48.0346 15.9583,48.5016 C16.1473,48.8056 16.4733,48.9716 16.8063,48.9716 C16.9873,48.9716 17.1713,48.9226 17.3363,48.8196 L19.2233,47.6386 C19.4533,47.4946 19.6603,47.3156 19.8523,47.1166 C19.9393,47.3976 20.0003,47.6906 20.0003,47.9996 C20.0003,49.6546 18.6543,50.9996 17.0003,50.9996 Z M57.7893,7.3856 C57.5993,7.1616 57.3213,7.0336 57.0283,7.0336 L14.0003,7.0006 L14.0003,3.7426 C14.0003,1.6786 12.3213,-0.0004 10.2583,-0.0004 L1.0003,-0.0004 C0.4473,-0.0004 0.0003,0.4476 0.0003,0.9996 C0.0003,1.5526 0.4473,1.9996 1.0003,1.9996 L10.2583,1.9996 C11.2183,1.9996 12.0003,2.7816 12.0003,3.7426 L12.0003,7.9986 L11.9823,32.9656 C11.9823,32.9976 11.9973,33.0246 12.0003,33.0556 L12.0003,36.9996 C12.0003,39.2056 13.7943,40.9996 16.0003,40.9996 L19.0043,40.9996 L19.0013,43.4236 C18.3873,43.1546 17.7123,42.9996 17.0003,42.9996 C14.2433,42.9996 12.0003,45.2436 12.0003,47.9996 C12.0003,50.7566 14.2433,52.9996 17.0003,52.9996 C19.7573,52.9996 22.0003,50.7566 22.0003,47.9996 C22.0003,46.8386 21.5853,45.7826 20.9183,44.9326 C20.9663,44.6586 20.9993,44.3776 21.0003,44.0896 L21.0043,40.9996 L46.0043,40.9996 L46.0013,43.4236 C45.3873,43.1546 44.7123,42.9996 44.0003,42.9996 C41.2433,42.9996 39.0003,45.2436 39.0003,47.9996 C39.0003,50.7566 41.2433,52.9996 44.0003,52.9996 C46.7573,52.9996 49.0003,50.7566 49.0003,47.9996 C49.0003,46.8386 48.5853,45.7826 47.9183,44.9326 C47.9663,44.6586 47.9993,44.3776 48.0003,44.0896 L48.0043,40.9996 L51.0003,40.9996 C51.5523,40.9996 52.0003,40.5526 52.0003,39.9996 C52.0003,39.4476 51.5523,38.9996 51.0003,38.9996 L47.1213,38.9996 C47.0813,38.9946 47.0473,38.9766 47.0063,38.9766 L47.0053,38.9766 C46.9643,38.9766 46.9283,38.9946 46.8883,38.9996 L20.1213,38.9996 C20.0813,38.9946 20.0473,38.9766 20.0063,38.9766 L20.0053,38.9766 C19.9643,38.9766 19.9283,38.9946 19.8883,38.9996 L16.0003,38.9996 C14.8973,38.9996 14.0003,38.1026 14.0003,36.9996 L14.0003,33.9686 L50.4223,34.0286 L50.4303,34.0286 C52.4033,34.0286 54.0623,32.6166 54.3783,30.6676 L58.0153,8.1936 C58.0623,7.9036 57.9793,7.6086 57.7893,7.3856 Z" id="Fill-3" fill="#4F5661" mask="url(#mask-2)"></path>
            </g>
            <path d="M10,0 L3,0 C1.346,0 0,1.346 0,3 C0,4.654 1.346,6 3,6 L10,6 C10.552,6 11,5.553 11,5 L11,1 C11,0.447 10.552,0 10,0" id="Fill-6" fill="#53C27C"></path>
        </g>
    </g>
</svg>