<?xml version="1.0" encoding="UTF-8"?>
<svg width="51px" height="60px" viewBox="0 0 51 60" version="1.1" xmlns="http://www.w3.org/2000/svg" xmlns:xlink="http://www.w3.org/1999/xlink">
    <!-- Generator: Sketch 49.3 (51167) - http://www.bohemiancoding.com/sketch -->
    <title>Icon/ Simplify Asset Depreciation</title>
    <desc>Created with Sketch.</desc>
    <defs>
        <polygon id="path-1" points="41.182 -0.0003 41.182 8.9997 0.1822 8.9997 0.1822 -0.0003 41.182 -0.0003"></polygon>
        <polygon id="path-3" points="38.1688398 7.10542736e-15 0.842271695 7.10542736e-15 0.842271695 57.9995 38.1688398 57.9995"></polygon>
    </defs>
    <g id="Icon/-Simplify-Asset-Depreciation" stroke="none" stroke-width="1" fill="none" fill-rule="evenodd">
        <g id="Page-1">
            <g id="Group-3" transform="translate(9.000000, 51.000100)">
                <mask id="mask-2" fill="white">
                    <use xlink:href="#path-1"></use>
                </mask>
                <g id="Clip-2"></g>
                <path d="M41.1822,2.6747 C41.1822,5.6137 32.0002,8.9997 20.6822,8.9997 C9.3642,8.9997 0.1822,5.6137 0.1822,2.6747 C0.1822,1.2577 2.3282,0.9587 5.8272,-0.0003 C6.0842,0.2877 6.3512,0.5647 6.6282,0.8307 C9.9362,3.9837 14.8472,5.7407 20.6822,5.7937 C26.5172,5.7407 31.4282,3.9837 34.7362,0.8307 C35.0132,0.5647 35.2802,0.2877 35.5372,-0.0003 C39.0362,0.9587 41.1822,1.2577 41.1822,2.6747" id="Fill-1" fill="#D3E5EF" mask="url(#mask-2)"></path>
            </g>
            <path d="M35.6822,43.666 C35.6822,41.457 34.2542,40.159 31.0512,39.459 C28.2552,38.857 28.0392,38.269 28.0392,37.503 C28.0392,36.629 28.9192,36.018 30.1782,36.018 C31.3932,36.018 32.4492,36.419 33.5002,37.278 L33.9722,37.666 L35.5232,35.604 L35.0802,35.246 C33.9412,34.329 32.8202,33.818 31.4942,33.628 L31.4942,31.847 C31.4942,31.38 31.1162,31 30.6502,31 L29.8072,31 C29.3422,31 28.9642,31.38 28.9642,31.847 L28.9642,33.68 C26.8582,34.121 25.4232,35.655 25.4232,37.668 C25.4232,40.517 27.7112,41.408 30.1862,41.948 C32.8482,42.513 33.0482,43.067 33.0482,43.85 C33.0482,44.788 32.1152,45.443 30.7812,45.443 C29.2472,45.443 28.0892,44.962 26.7872,43.78 L26.3372,43.372 L24.6822,45.337 L25.1082,45.719 C26.3062,46.792 27.5612,47.449 28.9642,47.741 L28.9642,49.615 C28.9642,50.082 29.3422,50.462 29.8072,50.462 L30.6502,50.462 C31.1162,50.462 31.4942,50.082 31.4942,49.615 L31.4942,47.864 C33.9902,47.582 35.6822,45.943 35.6822,43.666" id="Fill-4" fill="#53C27C"></path>
            <path d="M26.6568,22.3867 L26.2828,22.4807 C26.3688,22.4097 26.5018,22.3797 26.6568,22.3867" id="Fill-6" fill="#4F5661"></path>
            <path d="M36.1822,24 C34.8362,24.462 32.7592,25 30.1822,25 C28.7592,25 26.6202,24.836 24.1822,24 L24.1822,19 C25.5282,19.462 27.6042,20 30.1822,20 C31.6042,20 33.7442,19.836 36.1822,19 L36.1822,24 Z" id="Fill-8" fill="#D3E5EF"></path>
            <g id="Group-12" transform="translate(11.000000, 0.000100)">
                <mask id="mask-4" fill="white">
                    <use xlink:href="#path-3"></use>
                </mask>
                <g id="Clip-11"></g>
                <path d="M14.4776,23.3465 C14.5156,23.1405 14.5056,22.9225 14.4036,22.7205 C14.3476,22.6095 14.2686,22.5185 14.1826,22.4385 L14.1826,20.3485 C17.4366,21.2135 20.9206,21.2135 24.1826,20.3485 L24.1826,22.3905 C24.0806,22.4715 23.9926,22.5735 23.9266,22.6955 C23.8116,22.9075 23.7946,23.1405 23.8376,23.3605 C20.7906,24.2025 17.5276,24.1995 14.4776,23.3465 Z M6.5706,9.9995 L14.8286,9.9995 C15.2276,9.9995 15.5766,10.4995 15.5766,11.0705 C15.5766,11.3425 15.4846,11.6175 15.3496,11.7835 C15.2296,11.9205 15.0836,11.9995 14.9466,11.9995 L13.5806,11.9995 L12.3536,11.9995 L12.3536,13.9995 L13.5806,13.9995 L14.9466,13.9995 L23.3726,13.9995 C25.2466,13.9995 26.7716,12.4745 26.7716,10.6005 C26.7716,8.7255 25.2466,7.2005 23.3726,7.2005 L22.5736,7.2005 C22.2426,7.2005 21.9746,6.9315 21.9746,6.6005 C21.9746,6.2695 22.2426,5.9995 22.5736,5.9995 L31.5256,5.9995 L31.5256,6.4525 C31.5256,8.1715 29.5076,10.8255 27.7276,13.1665 C26.3136,15.0255 25.0486,16.6955 24.4706,18.1685 C20.9116,19.2965 17.0356,19.2655 13.5066,18.0535 L13.2096,17.9515 L6.5706,9.9995 Z M5.3766,7.3915 L5.3766,7.1735 C5.3766,6.4685 5.9766,5.8955 6.7136,5.8955 L11.9646,5.8955 L13.9606,5.8955 L17.1556,5.8955 L17.1556,3.8955 L13.9606,3.8955 L11.9646,3.8955 C11.4146,3.8955 10.9676,3.4695 10.9676,2.9475 C10.9676,2.4245 11.4146,1.9995 11.9646,1.9995 L29.5136,1.9995 C30.6236,1.9995 31.5256,2.8685 31.5256,3.9385 L31.5256,3.9995 L22.5736,3.9995 C21.1406,3.9995 19.9746,5.1665 19.9746,6.6005 C19.9746,8.0335 21.1406,9.2005 22.5736,9.2005 L23.3726,9.2005 C24.1446,9.2005 24.7716,9.8275 24.7716,10.6005 C24.7716,11.3715 24.1446,11.9995 23.3726,11.9995 L17.4336,11.9995 C17.5216,11.7015 17.5766,11.3905 17.5766,11.0705 C17.5766,9.3765 16.3436,7.9995 14.8286,7.9995 L5.4396,7.9995 C5.4016,7.7995 5.3766,7.5975 5.3766,7.3915 Z M36.7286,35.3185 C34.1856,28.5375 28.4776,24.3215 26.1826,22.8475 L26.1826,19.4085 C26.4096,18.2145 27.9406,16.1905 29.3186,14.3775 C31.3876,11.6585 33.5256,8.8455 33.5256,6.4525 L33.5256,3.9385 C33.5256,1.7665 31.7256,-0.0005 29.5136,-0.0005 L11.9646,-0.0005 C10.3116,-0.0005 8.9676,1.3225 8.9676,2.9475 C8.9676,3.2815 9.0366,3.5965 9.1416,3.8955 L6.7136,3.8955 C4.8736,3.8955 3.3766,5.3665 3.3766,7.1735 L3.3766,7.3915 C3.3766,8.5195 3.7316,9.6015 4.4426,10.5685 L12.1826,19.8405 L12.1826,22.7645 C9.7026,24.1855 3.6516,28.1775 0.9216,34.6095 C0.7066,35.1175 0.9436,35.7045 1.4516,35.9205 C1.5796,35.9745 1.7116,35.9995 1.8416,35.9995 C2.2306,35.9995 2.6016,35.7715 2.7626,35.3905 C5.0656,29.9645 10.1676,26.3355 12.5876,24.8535 L12.8576,24.9465 C14.8976,25.6455 17.0256,25.9995 19.1826,25.9995 C21.3406,25.9995 23.4686,25.6455 25.5066,24.9465 L25.6466,24.8985 C27.8896,26.4405 32.7006,30.2715 34.8556,36.0215 C37.0446,41.8535 36.5306,46.8585 33.3656,50.4965 C32.9686,50.9555 32.5146,51.4045 32.0126,51.8285 C28.9276,54.4635 24.1936,55.9415 18.6826,55.9905 C14.3136,55.9505 10.4446,55.0295 7.4926,53.3245 C7.0126,53.0465 6.4026,53.2125 6.1256,53.6905 C5.8506,54.1685 6.0136,54.7805 6.4926,55.0565 C9.6756,56.8945 13.7776,57.9055 18.3726,57.9865 L18.9926,57.9995 L18.9926,57.9865 C24.9296,57.8845 29.8756,56.2845 33.3086,53.3525 C33.8866,52.8625 34.4146,52.3415 34.8766,51.8065 C38.4986,47.6425 39.1566,41.7865 36.7286,35.3185 Z" id="Fill-10" fill="#4F5661" mask="url(#mask-4)"></path>
            </g>
            <g id="Group-15" transform="translate(0.000000, 37.000100)" fill="#53C27C">
                <path d="M18.2677,11.5712 C18.1017,11.2222 17.7497,11.0002 17.3637,11.0002 L12.1827,11.0002 L12.1827,1.0002 C12.1827,0.4472 11.7347,0.0002 11.1827,0.0002 L7.1827,0.0002 C6.6297,0.0002 6.1827,0.4472 6.1827,1.0002 L6.1827,11.0002 L0.9997,11.0002 C0.6137,11.0002 0.2617,11.2222 0.0967,11.5722 C-0.0693,11.9212 -0.0183,12.3342 0.2257,12.6332 L8.4087,22.6332 C8.5987,22.8652 8.8827,23.0002 9.1827,23.0002 C9.4817,23.0002 9.7667,22.8652 9.9557,22.6332 L18.1377,12.6332 C18.3827,12.3342 18.4337,11.9212 18.2677,11.5712" id="Fill-13"></path>
            </g>
        </g>
    </g>
</svg>