<?xml version="1.0" encoding="UTF-8"?>
<svg width="45px" height="58px" viewBox="0 0 45 58" version="1.1" xmlns="http://www.w3.org/2000/svg" xmlns:xlink="http://www.w3.org/1999/xlink">
    <!-- Generator: Sketch 49.3 (51167) - http://www.bohemiancoding.com/sketch -->
    <title>Icon/ Single</title>
    <desc>Created with Sketch.</desc>
    <defs></defs>
    <g id="Icon/-Single" stroke="none" stroke-width="1" fill="none" fill-rule="evenodd">
        <g id="Single" transform="translate(-1.000000, -1.000000)">
            <path d="M10.28,16 C13.53,14.585 15.697,10.057 18.947,12.321 C22.197,14.585 28.697,16.849 36.28,13.453 C36.28,13.453 34.113,1 22.197,1 C10.28,1 10.28,16 10.28,16" id="Fill-1" fill="#D3E5EF"></path>
            <path d="M3.3523,42.7739 C2.9603,42.7279 2.6183,42.4419 2.5073,42.0239 C2.4243,41.7069 0.5353,34.2509 5.6713,31.5209 C7.9393,30.3159 8.8383,28.4259 7.4653,21.4369 C7.3553,20.8769 7.7053,20.3259 8.2463,20.2069 C8.7913,20.0859 9.3153,20.4459 9.4253,21.0059 C10.6483,27.2239 10.5723,31.2389 6.5733,33.3649 C2.8773,35.3279 4.4233,41.4009 4.4403,41.4619 C4.5843,42.0139 4.2693,42.5869 3.7363,42.7409 C3.6083,42.7789 3.4783,42.7889 3.3523,42.7739" id="Fill-3" fill="#D3E5EF"></path>
            <path d="M34.28,17 L34.28,20.612 C34.28,26.2659844 28.1092349,32 23.28,32 C18.4237169,32 12.28,26.2786676 12.28,20.612 L12.28,17.015 C12.28,16.4627153 11.8322847,16.015 11.28,16.015 C10.7277153,16.015 10.28,16.4627153 10.28,17.015 L10.28,20.612 C10.28,27.4163246 17.3497235,34 23.28,34 C29.1823364,34 36.28,27.4046892 36.28,20.612 L36.28,17 C36.28,16.4477153 35.8322847,16 35.28,16 C34.7277153,16 34.28,16.4477153 34.28,17 Z" id="Stroke-5" fill="#4B5E69" fill-rule="nonzero"></path>
            <path d="M23.28,58 C14.5805632,58 6.66979851,53.4803001 2.20060949,46.2383334 L4.98402068,42.4746013 C6.64236095,40.2304345 8.84173336,39 11.11,39 L17.28,39 L17.28,37 L11.11,37 C8.17285867,37 5.39382773,38.5547233 3.37575674,41.2856998 L0.195979323,45.5853987 C-0.0413509753,45.906317 -0.0651133498,46.3376318 0.135526983,46.6826792 C4.89133399,54.8613877 13.6386991,60 23.28,60 C32.9099383,60 41.6468123,54.8727668 46.4136971,46.7040112 C46.6152228,46.3586674 46.5916615,45.9264744 46.3537884,45.6050847 L43.1637884,41.2950847 C41.1574106,38.5650857 38.3674752,37 35.43,37 L29.28,37 L29.28,39 L35.43,39 C37.6968726,39 39.9056394,40.2390643 41.5542127,42.4822051 L44.3485873,46.257685 C39.8696902,53.4907477 31.9686607,58 23.28,58 Z" id="Stroke-7" fill="#4B5E69" fill-rule="nonzero"></path>
            <path d="M18.9531937,24.4984711 C19.8374505,26.036309 21.4719392,27 23.2801,27 C25.0871594,27 26.7213757,26.0364697 27.6066941,24.4990138 C27.8822918,24.0204071 27.7177204,23.4090036 27.2391138,23.1334059 C26.7605071,22.8578082 26.1491036,23.0223796 25.8735059,23.5009862 C25.3419439,24.4241042 24.3651834,25 23.2801,25 C22.1941179,25 21.2175536,24.4242198 20.6870063,23.5015289 C20.4117083,23.0227497 19.800408,22.8577957 19.3216289,23.1330937 C18.8428497,23.4083917 18.6778957,24.019692 18.9531937,24.4984711 Z" id="Stroke-9" fill="#4B5E69" fill-rule="nonzero"></path>
            <path d="M23.0323058,46.4275681 C22.3544743,45.7817453 21.6764787,45.0709799 21.0460214,44.3196849 C19.7816938,42.8130278 18.8777626,41.3435031 18.4884472,40.0226118 C18.3500162,39.552935 18.28,39.1110828 18.28,38.7 L18.28,31 C18.28,30.4477153 17.8322847,30 17.28,30 C16.7277153,30 16.28,30.4477153 16.28,31 L16.28,38.7 C16.28,39.3126322 16.3798498,39.942756 16.5700381,40.5880376 C17.0510878,42.2201704 18.0883247,43.9064108 19.5139786,45.6053151 C20.1960213,46.4180826 20.9242757,47.181536 21.6526942,47.8755569 C21.9080061,48.1188125 22.1455898,48.3364452 22.3596521,48.5257884 C22.4902637,48.6413175 22.5855888,48.7230322 22.6398156,48.7682213 C23.0106616,49.0772596 23.5493384,49.0772596 23.9201844,48.7682213 C23.9744112,48.7230322 24.0697363,48.6413175 24.2003479,48.5257884 C24.4144102,48.3364452 24.6519939,48.1188125 24.9073058,47.8755569 C25.6357243,47.181536 26.3639787,46.4180826 27.0460214,45.6053151 C28.4716753,43.9064108 29.5089122,42.2201704 29.9899619,40.5880376 C30.1801502,39.942756 30.28,39.3126322 30.28,38.7 L30.28,31 C30.28,30.4477153 29.8322847,30 29.28,30 C28.7277153,30 28.28,30.4477153 28.28,31 L28.28,38.7 C28.28,39.1110828 28.2099838,39.552935 28.0715528,40.0226118 C27.6822374,41.3435031 26.7783062,42.8130278 25.5139786,44.3196849 C24.8835213,45.0709799 24.2055257,45.7817453 23.5276942,46.4275681 C23.4428,46.5084534 23.3601443,46.5861699 23.28,46.6605842 C23.1998557,46.5861699 23.1172,46.5084534 23.0323058,46.4275681 Z" id="Stroke-11" fill="#4B5E69" fill-rule="nonzero"></path>
            <path d="M11.28,14 C11.28,7.37228475 16.6522847,2 23.28,2 C29.9077153,2 35.28,7.37228475 35.28,14 C35.28,14.5522847 35.7277153,15 36.28,15 C36.8322847,15 37.28,14.5522847 37.28,14 C37.28,6.26771525 31.0122847,0 23.28,0 C15.5477153,0 9.28,6.26771525 9.28,14 C9.28,14.5522847 9.72771525,15 10.28,15 C10.8322847,15 11.28,14.5522847 11.28,14 Z" id="Stroke-13" fill="#4B5E69" fill-rule="nonzero"></path>
            <path d="M11.28,23 L9.903,23 C7.902,23 6.28,21.378 6.28,19.377 L6.28,16.623 C6.28,14.622 7.902,13 9.903,13 L11.28,13 C11.833,13 12.28,13.448 12.28,14 L12.28,22 C12.28,22.552 11.833,23 11.28,23" id="Fill-15" fill="#5BBF89"></path>
            <path d="M35.28,13 L36.657,13 C38.658,13 40.28,14.622 40.28,16.623 L40.28,19.377 C40.28,21.378 38.658,23 36.657,23 L35.28,23 C34.727,23 34.28,22.552 34.28,22 L34.28,14 C34.28,13.448 34.727,13 35.28,13" id="Fill-17" fill="#5BBF89"></path>
        </g>
    </g>
</svg>