<?xml version="1.0" encoding="UTF-8"?>
<svg width="53px" height="59px" viewBox="0 0 53 59" version="1.1" xmlns="http://www.w3.org/2000/svg" xmlns:xlink="http://www.w3.org/1999/xlink">
    <!-- Generator: Sketch 49.3 (51167) - http://www.bohemiancoding.com/sketch -->
    <title>Icon/ Social Security-Benefits</title>
    <desc>Created with Sketch.</desc>
    <defs>
        <polygon id="path-1" points="0.42 0 4.42 0 4.42 5.9999 0.42 5.9999"></polygon>
    </defs>
    <g id="Icon/-Social-Security-Benefits" stroke="none" stroke-width="1" fill="none" fill-rule="evenodd">
        <g id="Social-Security-Benefits">
            <path d="M41.6022,33.1665 C41.0782,20.5675 34.4912,10.6115 26.4202,10.6115 L26.4202,10.6095 C39.9302,10.6095 51.0902,19.7205 52.8402,31.5295 C51.5502,31.0295 50.1302,30.7495 48.6402,30.7495 C45.9402,30.7495 43.4802,31.6695 41.6002,33.1695" id="Fill-1" fill="#F4877A"></path>
            <path d="M11.3087,33.2231 C11.2827,33.2071 11.2647,33.1821 11.2377,33.1661 C11.7627,20.5681 18.3487,10.6111 26.4197,10.6111 L26.4197,10.6101 L26.4197,34.0401 C24.4697,32.0301 21.6097,30.7501 18.4197,30.7501 C15.6797,30.7501 13.1997,31.6901 11.3097,33.2301 C11.2997,33.2201 11.2797,33.2101 11.2697,33.2001 C11.2597,33.1801 11.2497,33.1801 11.2397,33.1701" id="Fill-3" fill="#F4877A"></path>
            <path d="M4.1979,31.75 C2.86195814,31.75 1.56499947,31.9945654 0.362171781,32.4620725 C-0.353011768,32.7400453 -1.10187119,32.1422554 -0.989274662,31.3832571 C0.854176132,18.9567994 12.5494973,9.611 26.4199,9.611 C40.2906611,9.611 51.9867275,18.9571461 53.8290868,31.383339 C53.9416321,32.1424253 53.1925687,32.7401666 52.4773839,32.4619775 C51.2760778,31.9946993 49.978178,31.75 48.6419,31.75 C46.2140148,31.75 43.9324708,32.5622563 42.1617401,34.0019128 C41.7942469,34.3006957 41.2675531,34.3006957 40.9000599,34.0019128 C39.1293292,32.5622563 36.8477852,31.75 34.4199,31.75 C31.5893435,31.75 28.965434,32.8532264 27.1370928,34.7348748 C26.7443059,35.1391138 26.0952125,35.1390308 25.702529,34.7346913 C23.8752861,32.8532109 21.2514135,31.75 18.4199,31.75 C15.9920148,31.75 13.7104708,32.5622563 11.9397401,34.0019128 C11.5722469,34.3006957 11.0455531,34.3006957 10.6780599,34.0019128 C8.90732918,32.5622563 6.62578525,31.75 4.1979,31.75 Z M4.1979,29.75 C6.80770412,29.75 9.2860504,30.5428362 11.3089,31.9717465 C13.3317496,30.5428362 15.8100959,29.75 18.4199,29.75 C21.4401445,29.75 24.2766866,30.8106146 26.4200428,32.6644493 C28.5641108,30.810622 31.4005102,29.75 34.4199,29.75 C37.0297041,29.75 39.5080504,30.5428362 41.5309,31.9717465 C43.5537496,30.5428362 46.0320959,29.75 48.6419,29.75 C49.6339057,29.75 50.60978,29.864022 51.5522048,30.0859091 C49.1358229,19.4696082 38.7228908,11.611 26.4199,11.611 C14.117214,11.611 3.70489689,19.4693507 1.28770612,30.0859859 C2.23030477,29.8640178 3.20589105,29.75 4.1979,29.75 Z" id="Stroke-5" fill="#4B5E69" fill-rule="nonzero"></path>
            <path d="M27.42,46 L27.42,9 C27.42,8.44771525 26.9722847,8 26.42,8 C25.8677153,8 25.42,8.44771525 25.42,9 L25.42,46 C25.42,46.5522847 25.8677153,47 26.42,47 C26.9722847,47 27.42,46.5522847 27.42,46 Z" id="Stroke-7" fill="#4B5E69" fill-rule="nonzero"></path>
            <path d="M26.4197,11.6111 C26.9719847,11.6111 27.4197,11.1633847 27.4197,10.6111 C27.4197,10.0588153 26.9719847,9.6111 26.4197,9.6111 C17.7366937,9.6111 10.78581,19.9927213 10.2385672,33.1244629 C10.2232401,33.492254 10.4112153,33.838728 10.7278976,34.0263915 C10.6606887,33.986564 10.6078809,33.9431412 10.5959816,33.9300367 C10.6398896,33.9722132 10.6398896,33.9722132 10.7846026,34.0747583 C11.2549605,34.3642093 11.8709073,34.2175553 12.1603583,33.7471974 C12.3251333,33.4794381 12.3485818,33.1644985 12.2514396,32.8894686 C12.8548122,20.8518666 19.1056199,11.6111 26.4197,11.6111 Z" id="Stroke-9" fill="#4B5E69" fill-rule="nonzero"></path>
            <path d="M42.6013362,33.1249453 C42.0551749,19.9931006 35.1037719,9.6115 26.4202,9.6115 C25.8679153,9.6115 25.4202,10.0592153 25.4202,10.6115 C25.4202,11.1637847 25.8679153,11.6115 26.4202,11.6115 C33.7992025,11.6115 40.095965,21.015425 40.6030638,33.2080547 C40.6260138,33.7598624 41.091947,34.1885862 41.6437547,34.1656362 C42.1955624,34.1426862 42.6242862,33.676753 42.6013362,33.1249453 Z" id="Stroke-11" fill="#4B5E69" fill-rule="nonzero"></path>
            <path d="M30.4415,58 C32.9991367,58 35.4335,55.9927926 35.4335,53.644 C35.4335,53.1513765 35.0392531,52.76 34.5245,52.76 C34.0002053,52.76 33.5865,53.1620579 33.5865,53.644 C33.5865,55.0215941 31.9988108,56.231 30.5035,56.231 C29.0118747,56.231 27.4205,55.049882 27.4205,53.685 L27.4205,48.082 C27.4205,47.6204905 26.9659732,47.197 26.4205,47.197 C25.8750268,47.197 25.4205,47.6204905 25.4205,48.082 L25.4205,53.685 C25.4205,56.0037139 27.8760544,58 30.4415,58 Z M30.4415,60 C26.8521695,60 23.4205,57.2101639 23.4205,53.685 L23.4205,48.082 C23.4205,46.4830749 24.8008273,45.197 26.4205,45.197 C28.0401727,45.197 29.4205,46.4830749 29.4205,48.082 L29.4205,53.685 C29.4205,53.7941202 30.0091283,54.231 30.5035,54.231 C30.9945782,54.231 31.5865,53.7801096 31.5865,53.644 C31.5865,52.0445045 32.908216,50.76 34.5245,50.76 C36.1405643,50.76 37.4335,52.0435223 37.4335,53.644 C37.4335,57.1917958 34.0276791,60 30.4415,60 Z" id="Stroke-13" fill="#4B5E69" fill-rule="nonzero"></path>
            <path d="M38.42,5.8569 C38.42,7.0409 37.524,7.9999 36.42,7.9999 C35.316,7.9999 34.42,7.0409 34.42,5.8569 C34.42,4.6739 36.02,1.9999 36.42,1.9999 C36.82,1.9999 38.42,4.6739 38.42,5.8569" id="Fill-15" fill="#D3E5EF"></path>
            <path d="M16.42,6.8569 C16.42,8.0409 15.524,8.9999 14.42,8.9999 C13.316,8.9999 12.42,8.0409 12.42,6.8569 C12.42,5.6739 14.02,2.9999 14.42,2.9999 C14.82,2.9999 16.42,5.6739 16.42,6.8569" id="Fill-17" fill="#D3E5EF"></path>
            <g id="Group-21" transform="translate(23.000000, 0.000000)">
                <mask id="mask-2" fill="white">
                    <use xlink:href="#path-1"></use>
                </mask>
                <g id="Clip-20"></g>
                <path d="M4.42,3.8569 C4.42,5.0409 3.524,5.9999 2.42,5.9999 C1.316,5.9999 0.42,5.0409 0.42,3.8569 C0.42,2.6739 2.02,-0.0001 2.42,-0.0001 C2.82,-0.0001 4.42,2.6739 4.42,3.8569" id="Fill-19" fill="#D3E5EF" mask="url(#mask-2)"></path>
            </g>
        </g>
    </g>
</svg>