<?xml version="1.0" encoding="UTF-8"?>
<svg width="58px" height="58px" viewBox="0 0 58 58" version="1.1" xmlns="http://www.w3.org/2000/svg" xmlns:xlink="http://www.w3.org/1999/xlink">
    <!-- Generator: Sketch 49.3 (51167) - http://www.bohemiancoding.com/sketch -->
    <title>Icon/ Start by typing</title>
    <desc>Created with Sketch.</desc>
    <defs></defs>
    <g id="Icon/-Start-by-typing" stroke="none" stroke-width="1" fill="none" fill-rule="evenodd">
        <g id="Start-by-typing">
            <path d="M25,52 L56,52 C57.6481815,52 59,50.6836085 59,49.049 L59,14.951 C59,13.3163915 57.6481815,12 56,12 L2,12 C0.351818477,12 -1,13.3163915 -1,14.951 L-1,49.049 C-1,50.6836085 0.351818477,52 2,52 L15,52 C15.5522847,52 16,51.5522847 16,51 C16,50.4477153 15.5522847,50 15,50 L2,50 C1.44467586,50 1,49.5669777 1,49.049 L1,14.951 C1,14.4330223 1.44467586,14 2,14 L56,14 C56.5553241,14 57,14.4330223 57,14.951 L57,49.049 C57,49.5669777 56.5553241,50 56,50 L25,50 C24.4477153,50 24,50.4477153 24,51 C24,51.5522847 24.4477153,52 25,52 Z" id="Stroke-1" fill="#4B5E69" fill-rule="nonzero"></path>
            <path d="M13,35 L9,35 C8.448,35 8,34.552 8,34 L8,30 C8,29.448 8.448,29 9,29 L13,29 C13.552,29 14,29.448 14,30 L14,34 C14,34.552 13.552,35 13,35" id="Fill-3" fill="#D3E5EF"></path>
            <path d="M12,44 L8,44 C7.448,44 7,43.552 7,43 L7,39 C7,38.448 7.448,38 8,38 L12,38 C12.552,38 13,38.448 13,39 L13,43 C13,43.552 12.552,44 12,44" id="Fill-5" fill="#D3E5EF"></path>
            <path d="M51,44 L47,44 C46.448,44 46,43.552 46,43 L46,39 C46,38.448 46.448,38 47,38 L51,38 C51.552,38 52,38.448 52,39 L52,43 C52,43.552 51.552,44 51,44" id="Fill-7" fill="#D3E5EF"></path>
            <path d="M49,35 L45,35 C44.448,35 44,34.552 44,34 L44,30 C44,29.448 44.448,29 45,29 L49,29 C49.552,29 50,29.448 50,30 L50,34 C50,34.552 49.552,35 49,35" id="Fill-9" fill="#5BBF89"></path>
            <path d="M20,26 L16,26 C15.448,26 15,25.552 15,25 L15,21 C15,20.448 15.448,20 16,20 L20,20 C20.552,20 21,20.448 21,21 L21,25 C21,25.552 20.552,26 20,26" id="Fill-11" fill="#D3E5EF"></path>
            <path d="M22,35 L18,35 C17.448,35 17,34.552 17,34 L17,30 C17,29.448 17.448,29 18,29 L22,29 C22.552,29 23,29.448 23,30 L23,34 C23,34.552 22.552,35 22,35" id="Fill-13" fill="#5BBF89"></path>
            <path d="M31,35 L27,35 C26.448,35 26,34.552 26,34 L26,30 C26,29.448 26.448,29 27,29 L31,29 C31.552,29 32,29.448 32,30 L32,34 C32,34.552 31.552,35 31,35" id="Fill-15" fill="#D3E5EF"></path>
            <path d="M40,35 L36,35 C35.448,35 35,34.552 35,34 L35,30 C35,29.448 35.448,29 36,29 L40,29 C40.552,29 41,29.448 41,30 L41,34 C41,34.552 40.552,35 40,35" id="Fill-17" fill="#D3E5EF"></path>
            <path d="M29,26 L25,26 C24.448,26 24,25.552 24,25 L24,21 C24,20.448 24.448,20 25,20 L29,20 C29.552,20 30,20.448 30,21 L30,25 C30,25.552 29.552,26 29,26" id="Fill-19" fill="#D3E5EF"></path>
            <path d="M38,26 L34,26 C33.448,26 33,25.552 33,25 L33,21 C33,20.448 33.448,20 34,20 L38,20 C38.552,20 39,20.448 39,21 L39,25 C39,25.552 38.552,26 38,26" id="Fill-21" fill="#5BBF89"></path>
            <path d="M51,26 L43,26 C42.448,26 42,25.552 42,25 L42,21 C42,20.448 42.448,20 43,20 L51,20 C51.552,20 52,20.448 52,21 L52,25 C52,25.552 51.552,26 51,26" id="Fill-23" fill="#D3E5EF"></path>
            <path d="M41,44 L18,44 C17.448,44 17,43.552 17,43 L17,39 C17,38.448 17.448,38 18,38 L41,38 C41.552,38 42,38.448 42,39 L42,43 C42,43.552 41.552,44 41,44" id="Fill-25" fill="#D3E5EF"></path>
            <path d="M11,26 L7,26 C6.448,26 6,25.552 6,25 L6,21 C6,20.448 6.448,20 7,20 L11,20 C11.552,20 12,20.448 12,21 L12,25 C12,25.552 11.552,26 11,26" id="Fill-27" fill="#5BBF89"></path>
            <path d="M29.8574929,13.5144958 C32.9331205,8.38844976 31.3373206,4 27,4 C25.2607662,4 24.42651,3.35826448 24.0828263,2.21265211 C23.9079342,1.62967839 23.883986,0.979655863 23.9524468,0.39284863 C23.9644729,0.28976758 23.9754876,0.221581325 23.9805807,0.196116135 C24.0888926,-0.345443618 23.7376759,-0.872268725 23.1961161,-0.980580676 C22.6545564,-1.08889263 22.1277313,-0.737675888 22.0194193,-0.196116135 C22.0041042,-0.119540508 21.9845067,0.00177760982 21.9659205,0.16108723 C21.8685651,0.995562796 21.9020148,1.90348488 22.1671737,2.78734789 C22.76099,4.76673552 24.3642338,6 27,6 C29.5717703,6 30.5008417,8.55494646 28.1425071,12.4855042 C27.8583589,12.9590845 28.011924,13.5733448 28.4855042,13.8574929 C28.9590845,14.1416411 29.5733448,13.988076 29.8574929,13.5144958 Z" id="Stroke-29" fill="#4B5E69" fill-rule="nonzero"></path>
            <path d="M21,58 L21,42 C21,41.4477153 20.5522847,41 20,41 C19.4477153,41 19,41.4477153 19,42 L19,58 C19,58.5522847 19.4477153,59 20,59 C20.5522847,59 21,58.5522847 21,58 Z" id="Stroke-31" fill="#4B5E69" fill-rule="nonzero"></path>
            <path d="M24.2928932,46.7071068 C24.6834175,47.0976311 25.3165825,47.0976311 25.7071068,46.7071068 C26.0976311,46.3165825 26.0976311,45.6834175 25.7071068,45.2928932 L20.7071068,40.2928932 C20.3165825,39.9023689 19.6834175,39.9023689 19.2928932,40.2928932 L14.2928932,45.2928932 C13.9023689,45.6834175 13.9023689,46.3165825 14.2928932,46.7071068 C14.6834175,47.0976311 15.3165825,47.0976311 15.7071068,46.7071068 L20,42.4142136 L24.2928932,46.7071068 Z" id="Stroke-33" fill="#4B5E69" fill-rule="nonzero"></path>
        </g>
    </g>
</svg>