<?xml version="1.0" encoding="UTF-8"?>
<svg width="59px" height="53px" viewBox="0 0 59 53" version="1.1" xmlns="http://www.w3.org/2000/svg" xmlns:xlink="http://www.w3.org/1999/xlink">
    <!-- Generator: Sketch 49.3 (51167) - http://www.bohemiancoding.com/sketch -->
    <title>Icon/ Star</title>
    <desc>Created with Sketch.</desc>
    <defs>
        <polygon id="path-1" points="0.000175313355 0.206 11.7208247 0.206 11.7208247 11.9269247 0.000175313355 11.9269247"></polygon>
    </defs>
    <g id="Icon/-Star" stroke="none" stroke-width="1" fill="none" fill-rule="evenodd">
        <g id="Page-1">
            <g id="Group-3" transform="translate(7.000000, 0.794300)">
                <mask id="mask-2" fill="white">
                    <use xlink:href="#path-1"></use>
                </mask>
                <g id="Clip-2"></g>
                <path d="M6.7955,0.8516 L7.7955,3.5516 C7.8975,3.8186 8.1085,4.0306 8.3755,4.1306 L11.0755,5.1306 C11.5915,5.3276 11.8515,5.9046 11.6555,6.4206 C11.5545,6.6886 11.3435,6.8996 11.0755,7.0006 L8.3755,8.0006 C8.1085,8.1026 7.8975,8.3136 7.7955,8.5806 L6.7955,11.2816 C6.5995,11.7976 6.0225,12.0576 5.5055,11.8616 C5.2385,11.7596 5.0265,11.5486 4.9255,11.2816 L3.9255,8.5806 C3.8245,8.3136 3.6125,8.1026 3.3455,8.0006 L0.6455,7.0006 C0.1295,6.8056 -0.1305,6.2286 0.0655,5.7116 C0.1665,5.4446 0.3785,5.2326 0.6455,5.1306 L3.3455,4.1306 C3.6125,4.0306 3.8245,3.8186 3.9255,3.5516 L4.9255,0.8516 C5.1215,0.3346 5.6985,0.0756 6.2155,0.2706 C6.4835,0.3726 6.6935,0.5836 6.7955,0.8516" id="Fill-1" fill="#D3E5EF" mask="url(#mask-2)"></path>
            </g>
            <path d="M53.7955,39.6459 L54.7955,42.3459 C54.8975,42.6129 55.1085,42.8249 55.3755,42.9249 L58.0755,43.9249 C58.5915,44.1219 58.8515,44.6989 58.6555,45.2149 C58.5545,45.4829 58.3435,45.6939 58.0755,45.7949 L55.3755,46.7949 C55.1085,46.8969 54.8975,47.1079 54.7955,47.3749 L53.7955,50.0759 C53.5995,50.5919 53.0225,50.8519 52.5055,50.6559 C52.2385,50.5539 52.0265,50.3429 51.9255,50.0759 L50.9255,47.3749 C50.8245,47.1079 50.6125,46.8969 50.3455,46.7949 L47.6455,45.7949 C47.1295,45.5999 46.8695,45.0229 47.0655,44.5059 C47.1665,44.2389 47.3785,44.0269 47.6455,43.9249 L50.3455,42.9249 C50.6125,42.8249 50.8245,42.6129 50.9255,42.3459 L51.9255,39.6459 C52.1215,39.1289 52.6985,38.8699 53.2155,39.0649 C53.4835,39.1669 53.6935,39.3779 53.7955,39.6459" id="Fill-4" fill="#D3E5EF"></path>
            <path d="M46.7554,3.3412 L47.6024,5.6282 C47.6884,5.8542 47.8664,6.0332 48.0934,6.1192 L50.3804,6.9662 C50.8174,7.1322 51.0374,7.6202 50.8714,8.0582 C50.7854,8.2842 50.6064,8.4632 50.3804,8.5502 L48.0934,9.3972 C47.8664,9.4832 47.6884,9.6612 47.6024,9.8882 L46.7554,12.1742 C46.5894,12.6122 46.1004,12.8312 45.6634,12.6662 C45.4364,12.5802 45.2574,12.4012 45.1714,12.1742 L44.3244,9.8882 C44.2384,9.6612 44.0594,9.4832 43.8334,9.3972 L41.5474,8.5502 C41.1094,8.3842 40.8894,7.8952 41.0554,7.4572 C41.1414,7.2312 41.3204,7.0522 41.5474,6.9662 L43.8334,6.1192 C44.0594,6.0332 44.2384,5.8542 44.3244,5.6282 L45.1714,3.3412 C45.3374,2.9042 45.8264,2.6842 46.2634,2.8502 C46.4904,2.9362 46.6694,3.1142 46.7554,3.3412" id="Fill-6" fill="#D3E5EF"></path>
            <path d="M5.7554,36.3412 L6.6024,38.6282 C6.6884,38.8542 6.8664,39.0332 7.0934,39.1192 L9.3804,39.9662 C9.8174,40.1322 10.0374,40.6202 9.8714,41.0582 C9.7854,41.2842 9.6064,41.4632 9.3804,41.5502 L7.0934,42.3972 C6.8664,42.4832 6.6884,42.6612 6.6024,42.8882 L5.7554,45.1742 C5.5894,45.6122 5.1004,45.8312 4.6634,45.6662 C4.4364,45.5802 4.2574,45.4012 4.1714,45.1742 L3.3244,42.8882 C3.2384,42.6612 3.0594,42.4832 2.8334,42.3972 L0.5474,41.5502 C0.1094,41.3842 -0.1106,40.8952 0.0554,40.4572 C0.1414,40.2312 0.3204,40.0522 0.5474,39.9662 L2.8334,39.1192 C3.0594,39.0332 3.2384,38.8542 3.3244,38.6282 L4.1714,36.3412 C4.3374,35.9042 4.8264,35.6842 5.2634,35.8502 C5.4904,35.9362 5.6694,36.1142 5.7554,36.3412" id="Fill-8" fill="#D3E5EF"></path>
            <path d="M29.0123,42.142 C29.1853,42.142 29.3583,42.187 29.5133,42.277 L42.5103,49.8 L39.3703,35.115 C39.2953,34.764 39.4133,34.401 39.6793,34.162 L50.8513,24.126 L35.9143,22.575 C35.5583,22.538 35.2493,22.313 35.1043,21.985 L29.0123,8.259 L22.9203,21.985 C22.7753,22.313 22.4663,22.538 22.1103,22.575 L7.1733,24.126 L18.3453,34.162 C18.6113,34.401 18.7293,34.764 18.6543,35.115 L15.5143,49.8 L28.5113,42.277 C28.6663,42.187 28.8393,42.142 29.0123,42.142 M43.9583,52.794 C43.7863,52.794 43.6133,52.749 43.4573,52.66 L29.0123,44.297 L14.5673,52.66 C14.2253,52.858 13.7983,52.835 13.4783,52.603 C13.1583,52.371 13.0053,51.972 13.0883,51.585 L16.5773,35.263 L4.1603,24.109 C3.8663,23.844 3.7553,23.432 3.8773,23.056 C3.9993,22.68 4.3323,22.411 4.7253,22.37 L21.3273,20.645 L28.0983,5.389 C28.2593,5.028 28.6163,4.794 29.0123,4.794 C29.4083,4.794 29.7653,5.028 29.9263,5.389 L36.6973,20.645 L53.2993,22.37 C53.6923,22.411 54.0253,22.68 54.1473,23.056 C54.2693,23.432 54.1583,23.844 53.8643,24.109 L41.4473,35.263 L44.9363,51.585 C45.0193,51.972 44.8663,52.371 44.5463,52.603 C44.3713,52.73 44.1653,52.794 43.9583,52.794" id="Fill-10" fill="#4F5661"></path>
            <path d="M28.5113,39.0492 L21.5113,43.1022 C20.7613,43.5362 19.8513,42.8752 20.0323,42.0282 L21.7223,34.1192 C21.7973,33.7692 21.6793,33.4052 21.4133,33.1662 L15.3963,27.7602 C14.7513,27.1812 15.0983,26.1112 15.9613,26.0222 L24.0073,25.1852 C24.3633,25.1492 24.6723,24.9232 24.8173,24.5962 L28.0983,17.2042 C28.4493,16.4112 29.5743,16.4112 29.9263,17.2042 L33.2073,24.5962 C33.3523,24.9232 33.6613,25.1492 34.0173,25.1852 L42.0633,26.0222 C42.9263,26.1112 43.2733,27.1812 42.6283,27.7602 L36.6113,33.1662 C36.3443,33.4052 36.2263,33.7692 36.3023,34.1192 L37.9923,42.0282 C38.1733,42.8752 37.2633,43.5362 36.5133,43.1022 L29.5133,39.0492 C29.2033,38.8692 28.8213,38.8692 28.5113,39.0492" id="Fill-12" fill="#53C27C"></path>
        </g>
    </g>
</svg>