<?xml version="1.0" encoding="UTF-8"?>
<svg width="60px" height="58px" viewBox="0 0 60 58" version="1.1" xmlns="http://www.w3.org/2000/svg" xmlns:xlink="http://www.w3.org/1999/xlink">
    <!-- Generator: Sketch 49.3 (51167) - http://www.bohemiancoding.com/sketch -->
    <title>Icon/ State Tax Return</title>
    <desc>Created with Sketch.</desc>
    <defs>
        <polygon id="path-1" points="20.5002 46 41 46 41 7.10542736e-15 0.0004 0 0.0004 46"></polygon>
    </defs>
    <g id="Icon/-State-Tax-Return" stroke="none" stroke-width="1" fill="none" fill-rule="evenodd">
        <g id="Page-1">
            <polygon id="Fill-1" fill="#D3E5EF" points="20.25 7.917 16 2 1 2 1.083 8.083"></polygon>
            <polygon id="Fill-2" fill="#D3E5EF" points="29 56 36 56 36 38 29 38"></polygon>
            <polygon id="Fill-3" fill="#D3E5EF" points="43 56 50 56 50 38 43 38"></polygon>
            <g id="Group-11">
                <path d="M42,27.5 C42,28.881 40.881,30 39.5,30 C38.119,30 37,28.881 37,27.5 C37,26.119 38.119,25 39.5,25 C40.881,25 42,26.119 42,27.5" id="Fill-4" fill="#53C27C"></path>
                <g id="Group-8" transform="translate(19.000000, 12.000000)">
                    <mask id="mask-2" fill="white">
                        <use xlink:href="#path-1"></use>
                    </mask>
                    <g id="Clip-7"></g>
                    <path d="M31.0024,44 L31.0104,41 L36.0004,41 L36.0004,44 L31.0024,44 Z M25.0004,44 L25.0004,41 C25.0004,40.236 24.5914,39.579 24.0004,39.242 L24.0004,26 L30.0004,26 L30.0004,39.242 C29.4084,39.579 29.0004,40.236 29.0004,41 L29.0004,44 L25.0004,44 Z M18.0024,44 L18.0104,41 L23.0004,41 L23.0004,44 L18.0024,44 Z M12.0004,44 L12.0004,41 C12.0004,40.236 11.5914,39.579 11.0004,39.242 L11.0004,26 L17.0004,26 L17.0004,39.242 C16.4084,39.579 16.0004,40.236 16.0004,41 L16.0004,44 L12.0004,44 Z M5.0024,44 L5.0104,41 L10.0004,41 L10.0004,44 L5.0024,44 Z M6.0004,39 L9.0004,39 L9.0004,26 L6.0004,26 L6.0004,39 Z M19.0004,39 L22.0004,39 L22.0004,26 L19.0004,26 L19.0004,39 Z M3.0004,23 L3.0004,22 L5.0004,22 L36.0004,22 L38.0004,22 L38.0004,23 C38.0004,23.552 37.5514,24 37.0004,24 L30.0004,24 L24.0004,24 L17.0004,24 L11.0004,24 L4.0004,24 C3.4484,24 3.0004,23.552 3.0004,23 Z M20.5004,10.265 L33.0744,20 L7.9254,20 L20.5004,10.265 Z M19.0004,6 L22.0004,6 L22.0004,8.896 L21.1124,8.209 C20.7524,7.93 20.2484,7.93 19.8874,8.209 L19.0004,8.896 L19.0004,6 Z M32.0004,39 L35.0004,39 L35.0004,26 L32.0004,26 L32.0004,39 Z M40.0004,44 L38.0004,44 L38.0004,41 C38.0004,40.236 37.5914,39.579 37.0004,39.242 L37.0004,26 C38.6544,26 40.0004,24.654 40.0004,23 L40.0004,21 C40.0004,20.447 39.5524,20 39.0004,20 L36.3424,20 L23.9904,10.437 C23.9914,10.421 24.0004,10.407 24.0004,10.391 L24.0004,5 C24.0004,4.447 23.5524,4 23.0004,4 L21.5004,4 L21.5004,1 C21.5004,0.447 21.0524,0 20.5004,0 C19.9474,0 19.5004,0.447 19.5004,1 L19.5004,4 L18.0004,4 C17.4474,4 17.0004,4.447 17.0004,5 L17.0004,10.36 C17.0004,10.386 17.0124,10.408 17.0144,10.434 L4.6574,20 L2.0004,20 C1.4474,20 1.0004,20.447 1.0004,21 L1.0004,23 C1.0004,24.654 2.3454,26 4.0004,26 L4.0004,39.242 C3.4084,39.579 3.0004,40.236 3.0004,41 L3.0004,44 L1.0004,44 C0.4474,44 0.0004,44.447 0.0004,45 C0.0004,45.553 0.4474,46 1.0004,46 L3.0004,46 L12.0004,46 L16.0004,46 L25.0004,46 L29.0004,46 L38.0004,46 L40.0004,46 C40.5524,46 41.0004,45.553 41.0004,45 C41.0004,44.447 40.5524,44 40.0004,44 Z" id="Fill-6" fill="#4F5661" mask="url(#mask-2)"></path>
                </g>
                <path d="M57,7 L28,7 L22.539,7 C21.893,7 21.284,6.686 20.909,6.16 L17.72,1.68 C16.97,0.628 15.752,0 14.461,0 L1,0 C0.448,0 0,0.447 0,1 L0,45 C0,47.206 1.794,49 4,49 L19.26,49 C19.812,49 20.26,48.553 20.26,48 C20.26,47.447 19.812,47 19.26,47 L4,47 C2.897,47 2,46.103 2,45 L2,2 L14.461,2 C15.107,2 15.716,2.314 16.091,2.84 L19.052,7 L5,7 C4.448,7 4,7.447 4,8 C4,8.553 4.448,9 5,9 L22.539,9 L28,9 L56,9 L56,28 C56,28.553 56.448,29 57,29 C57.552,29 58,28.553 58,28 L58,8 C58,7.447 57.552,7 57,7" id="Fill-9" fill="#4F5661"></path>
            </g>
        </g>
        <g id="Page-1">
            <polygon id="Fill-1" fill="#D3E5EF" points="20.25 7.917 16 2 1 2 1.083 8.083"></polygon>
            <polygon id="Fill-2" fill="#D3E5EF" points="29 56 36 56 36 38 29 38"></polygon>
            <polygon id="Fill-3" fill="#D3E5EF" points="43 56 50 56 50 38 43 38"></polygon>
            <g id="Group-10">
                <path d="M57,7 L28,7 L22.539,7 C21.893,7 21.284,6.686 20.909,6.16 L17.72,1.68 C16.97,0.628 15.752,0 14.461,0 L1,0 C0.448,0 0,0.447 0,1 L0,45 C0,47.206 1.794,49 4,49 L19.26,49 C19.812,49 20.26,48.553 20.26,48 C20.26,47.447 19.812,47 19.26,47 L4,47 C2.897,47 2,46.103 2,45 L2,2 L14.461,2 C15.107,2 15.716,2.314 16.091,2.84 L19.052,7 L5,7 C4.448,7 4,7.447 4,8 C4,8.553 4.448,9 5,9 L22.539,9 L28,9 L56,9 L56,27 C56,27.553 56.448,28 57,28 C57.552,28 58,27.553 58,27 L58,8 C58,7.447 57.552,7 57,7" id="Fill-4" fill="#4F5661"></path>
                <path d="M48.3223,13.3154 L48.3223,17.1374 C48.3223,17.3504 48.2303,17.5924 48.0273,17.6674 C44.0353,19.1254 43.4933,15.7044 39.8263,17.5024 L39.8263,12.5244 C43.3603,10.8034 44.0013,13.9664 47.6903,12.8194 C48.0353,12.7094 48.3223,12.9594 48.3223,13.3154" id="Fill-6" fill="#F4877A"></path>
                <path d="M55,56 L50.002,56 L50.011,53 L55,53 L55,56 Z M48,53 L48,56 L44,56 L44,53 C44,52.236 43.592,51.579 43,51.242 L43,38 L49,38 L49,51.242 C48.408,51.579 48,52.236 48,53 Z M42,56 L37.002,56 L37.011,53 L42,53 L42,56 Z M35,53 L35,56 L31,56 L31,53 C31,52.236 30.592,51.579 30,51.242 L30,38 L36,38 L36,51.242 C35.408,51.579 35,52.236 35,53 Z M29,56 L24.002,56 L24.011,53 L29,53 L29,56 Z M25,51 L28,51 L28,38 L25,38 L25,51 Z M38,51 L41,51 L41,38 L38,38 L38,51 Z M22,35 L22,34 L23.105,34 L31.576,34 L47.427,34 L55.9,34 L57,34 L57,35 C57,35.552 56.551,36 56,36 L49,36 L43,36 L36,36 L30,36 L23,36 C22.449,36 22,35.552 22,35 Z M26.177,30.079 C27.798,26.496 31.026,23.846 34.935,22.672 C33.682,24.315 32.689,26.645 32.115,29.468 C31.946,30.295 31.831,31.146 31.743,32 L25.495,32 C25.664,31.351 25.893,30.708 26.177,30.079 Z M39.5,22 C39.618,22 39.734,22.008 39.883,22.035 C42.01,22.36 44.035,25.508 44.922,29.869 C45.062,30.547 45.175,31.262 45.258,32 L33.74,32 C33.82,31.279 33.933,30.564 34.075,29.866 C35.033,25.161 37.213,22 39.5,22 Z M52.817,30.084 C53.098,30.695 53.327,31.339 53.5,32 L47.263,32 C47.171,31.122 47.047,30.269 46.882,29.468 C46.311,26.66 45.328,24.34 44.089,22.696 C47.979,23.892 51.23,26.572 52.817,30.084 Z M51,51 L54,51 L54,38 L51,38 L51,51 Z M59,56 L57,56 L57,53 C57,52.236 56.592,51.579 56,51.242 L56,38 C57.654,38 59,36.654 59,35 L59,33 C59,32.447 58.552,32 58,32 L55.546,32 C55.333,31.046 55.034,30.119 54.638,29.255 C52.263,24.002 46.944,20.475 40.772,20.051 C40.681,20.043 40.584,20.046 40.492,20.04 C40.493,20.025 40.5,20.014 40.5,20 L40.5,13.158 C40.5,12.605 40.052,12.158 39.5,12.158 C38.948,12.158 38.5,12.605 38.5,13.158 L38.5,20 C38.5,20.012 38.506,20.022 38.507,20.034 C32.258,20.376 26.771,23.914 24.355,29.255 C23.95,30.149 23.645,31.069 23.44,32 L21,32 C20.448,32 20,32.447 20,33 L20,35 C20,36.654 21.346,38 23,38 L23,51.242 C22.408,51.579 22,52.236 22,53 L22,56 L20,56 C19.448,56 19,56.447 19,57 C19,57.553 19.448,58 20,58 L22,58 L31,58 L35,58 L44,58 L48,58 L57,58 L59,58 C59.552,58 60,57.553 60,57 C60,56.447 59.552,56 59,56 Z" id="Fill-8" fill="#4F5661"></path>
            </g>
        </g>
    </g>
</svg>