<?xml version="1.0" encoding="UTF-8"?>
<svg width="60px" height="54px" viewBox="0 0 60 54" version="1.1" xmlns="http://www.w3.org/2000/svg" xmlns:xlink="http://www.w3.org/1999/xlink">
    <!-- Generator: Sketch 49.3 (51167) - http://www.bohemiancoding.com/sketch -->
    <title>Icon/ start taxes</title>
    <desc>Created with Sketch.</desc>
    <defs>
        <polygon id="path-1" points="26.3992 54 51.899 54 51.899 0 26.3992 0 0.8994 0 0.8994 54"></polygon>
    </defs>
    <g id="Icon/-start-taxes" stroke="none" stroke-width="1" fill="none" fill-rule="evenodd">
        <g id="start-taxes">
            <g id="Group-3" transform="translate(8.000000, 0.000000)">
                <mask id="mask-2" fill="white">
                    <use xlink:href="#path-1"></use>
                </mask>
                <g id="Clip-2"></g>
                <path d="M44.4854,52 L43.8164,52 L43.8164,46 L49.8994,46 L49.8994,46.586 L44.4854,52 Z M2.8994,8 L2.8994,3 C2.8994,2.448 3.3484,2 3.8994,2 L48.8994,2 C49.4504,2 49.8994,2.448 49.8994,3 L49.8994,8 L2.8994,8 Z M48.8994,0 L3.8994,0 C2.2454,0 0.8994,1.346 0.8994,3 L0.8994,17 C0.8994,17.553 1.3474,18 1.8994,18 C2.4514,18 2.8994,17.553 2.8994,17 L2.8994,10 L49.8994,10 L49.8994,44 L42.8164,44 C42.2634,44 41.8164,44.447 41.8164,45 L41.8164,52 L2.8994,52 L2.8994,37 C2.8994,36.447 2.4514,36 1.8994,36 C1.3474,36 0.8994,36.447 0.8994,37 L0.8994,53 C0.8994,53.553 1.3474,54 1.8994,54 L44.8994,54 C45.1644,54 45.4194,53.895 45.6064,53.707 L51.6064,47.707 C51.7944,47.52 51.8994,47.266 51.8994,47 L51.8994,3 C51.8994,1.346 50.5534,0 48.8994,0 Z" id="Fill-1" fill="#4F5661" mask="url(#mask-2)"></path>
            </g>
            <path d="M14.8994,6 L13.8994,6 C13.3474,6 12.8994,5.553 12.8994,5 C12.8994,4.447 13.3474,4 13.8994,4 L14.8994,4 C15.4514,4 15.8994,4.447 15.8994,5 C15.8994,5.553 15.4514,6 14.8994,6" id="Fill-4" fill="#4F5661"></path>
            <path d="M18.8994,6 L17.8994,6 C17.3474,6 16.8994,5.553 16.8994,5 C16.8994,4.447 17.3474,4 17.8994,4 L18.8994,4 C19.4514,4 19.8994,4.447 19.8994,5 C19.8994,5.553 19.4514,6 18.8994,6" id="Fill-6" fill="#4F5661"></path>
            <path d="M22.8994,6 L21.8994,6 C21.3474,6 20.8994,5.553 20.8994,5 C20.8994,4.447 21.3474,4 21.8994,4 L22.8994,4 C23.4514,4 23.8994,4.447 23.8994,5 C23.8994,5.553 23.4514,6 22.8994,6" id="Fill-8" fill="#4F5661"></path>
            <path d="M42.8994,16 L24.8994,16 C24.3474,16 23.8994,16.447 23.8994,17 L23.8994,20 C23.8994,20.553 24.3474,21 24.8994,21 L42.8994,21 C43.4514,21 43.8994,20.553 43.8994,20 L43.8994,17 C43.8994,16.447 43.4514,16 42.8994,16" id="Fill-10" fill="#53C27C"></path>
            <path d="M44.8994,26 L24.8994,26 C24.3474,26 23.8994,26.447 23.8994,27 L23.8994,28 C23.8994,28.553 24.3474,29 24.8994,29 L44.8994,29 C45.4514,29 45.8994,28.553 45.8994,28 L45.8994,27 C45.8994,26.447 45.4514,26 44.8994,26" id="Fill-12" fill="#D3E5EF"></path>
            <path d="M46.8994,33 L21.8994,33 C21.3474,33 20.8994,33.447 20.8994,34 L20.8994,35 C20.8994,35.553 21.3474,36 21.8994,36 L46.8994,36 C47.4514,36 47.8994,35.553 47.8994,35 L47.8994,34 C47.8994,33.447 47.4514,33 46.8994,33" id="Fill-14" fill="#D3E5EF"></path>
            <path d="M44.8994,40 L21.8994,40 C21.3474,40 20.8994,40.447 20.8994,41 L20.8994,42 C20.8994,42.553 21.3474,43 21.8994,43 L44.8994,43 C45.4514,43 45.8994,42.553 45.8994,42 L45.8994,41 C45.8994,40.447 45.4514,40 44.8994,40" id="Fill-16" fill="#D3E5EF"></path>
            <path d="M2.4141,32.6572 L5.2431,35.4852 L11.6061,29.1212 C11.8341,28.8932 12.1601,28.7902 12.4741,28.8412 C12.7911,28.8922 13.0641,29.0942 13.2081,29.3812 L14.7681,32.5002 L17.3701,20.5292 L5.3991,23.1322 L8.5181,24.6912 C8.8061,24.8352 9.0061,25.1082 9.0581,25.4262 C9.1091,25.7432 9.0051,26.0652 8.7781,26.2932 L2.4141,32.6572 Z M5.2431,37.8992 C4.9871,37.8992 4.7311,37.8022 4.5361,37.6062 L0.2931,33.3642 C0.1051,33.1772 0.0001,32.9232 0.0001,32.6572 C0.0001,32.3912 0.1051,32.1372 0.2931,31.9502 L6.3831,25.8602 L1.9671,23.6522 C1.5871,23.4632 1.3691,23.0542 1.4221,22.6342 C1.4751,22.2132 1.7871,21.8712 2.2021,21.7802 L18.4651,18.2442 C18.7961,18.1742 19.1441,18.2732 19.3851,18.5142 C19.6251,18.7552 19.7271,19.1012 19.6551,19.4342 L16.1191,35.6982 C16.0291,36.1122 15.6871,36.4252 15.2671,36.4772 C14.8461,36.5262 14.4371,36.3122 14.2471,35.9322 L12.0391,31.5162 L5.9501,37.6062 C5.7541,37.8022 5.4981,37.8992 5.2431,37.8992 Z" id="Fill-18" fill="#4F5661"></path>
        </g>
    </g>
</svg>