<?xml version="1.0" encoding="UTF-8"?>
<svg width="60px" height="60px" viewBox="0 0 60 60" version="1.1" xmlns="http://www.w3.org/2000/svg" xmlns:xlink="http://www.w3.org/1999/xlink">
    <!-- Generator: Sketch 49.3 (51167) - http://www.bohemiancoding.com/sketch -->
    <title>Icon/ Step by step guidance</title>
    <desc>Created with Sketch.</desc>
    <defs>
        <polygon id="path-1" points="41.9297 60 60 60 60 0 6.77626358e-21 0 6.77626358e-21 60 41.9297 60 41.9297 37.0452395 -5.63217949e-05 37.0452395 -5.63217949e-05 60.0003 41.9297 60.0003"></polygon>
        <polygon id="path-3" points="0.766600066 0 42.9552295 0 42.9552295 29.9999 0.766600066 29.9999"></polygon>
    </defs>
    <g id="Icon/-Step-by-step-guidance" stroke="none" stroke-width="1" fill="none" fill-rule="evenodd">
        <g id="Page-1">
            <path d="M41.2803,51.3701 C36.6303,56.0901 30.1603,59.0001 23.0003,59.0001 C13.4903,59.0001 5.1793,53.8501 0.7193,46.1801 L4.9003,41.8801 C6.5503,39.6501 9.5303,38.3001 12.0003,38.0501 L16.0303,38.0501 L20.4103,45.5601 C21.5703,47.5401 24.4293,47.5401 25.5903,45.5601 L29.9693,38.0501 L34.0003,38.0501 C35.8893,38.2501 38.0803,39.0901 39.7293,40.4701 C39.2593,41.7301 39.0003,43.0801 39.0003,44.5001 C39.0003,47.0701 39.8493,49.4501 41.2803,51.3701" id="Fill-1" fill="#D3E5EF"></path>
            <g id="Group-5" transform="translate(0.000000, 0.000100)">
                <mask id="mask-2" fill="white">
                    <use xlink:href="#path-1"></use>
                </mask>
                <g id="Clip-4"></g>
                <path d="M41.9297,52.1503 C36.9837,57.1293 30.2077,60.0003 23.1247,60.0003 C13.6887,60.0003 4.8767,54.9003 0.1387,46.6793 C-0.0903,46.2903 -0.0303,45.7993 0.2777,45.4803 L4.3907,41.2303 C6.4067,38.5203 9.7937,37.2903 12.0987,37.0493 C12.6557,37.0003 13.1317,37.4003 13.1917,37.9503 C13.2417,38.5003 12.8437,38.9903 12.2977,39.0403 C10.2317,39.2503 7.4697,40.4003 5.9397,42.4693 C5.9197,42.5093 5.8907,42.5403 5.8607,42.5803 L2.2347,46.3203 C6.7147,53.5493 14.6417,58.0003 23.1247,58.0003 C29.7817,58.0003 36.1287,55.2593 40.7277,50.5303 C41.0757,51.1003 41.4727,51.6503 41.9297,52.1503" id="Fill-3" fill="#4F5661" mask="url(#mask-2)"></path>
            </g>
            <path d="M40.1396,39.5205 C39.8296,40.1505 39.5796,40.8205 39.4006,41.5095 C37.8296,40.0495 35.6106,39.2305 33.8896,39.0405 C33.3396,38.9905 32.9506,38.4905 33.0096,37.9405 C33.0596,37.3905 33.5396,36.9905 34.1106,37.0605 C36.2806,37.2905 38.4696,38.2005 40.1396,39.5205" id="Fill-6" fill="#4F5661"></path>
            <path d="M23,30 C21.219,30 19.561,29.042 18.673,27.499 C18.397,27.02 18.563,26.408 19.041,26.133 C19.521,25.858 20.132,26.023 20.407,26.501 C20.938,27.426 21.933,28 23,28 C24.067,28 25.062,27.426 25.593,26.501 C25.868,26.022 26.479,25.857 26.959,26.133 C27.437,26.408 27.603,27.02 27.327,27.499 C26.439,29.042 24.781,30 23,30" id="Fill-8" fill="#4F5661"></path>
            <g id="Group-12" transform="translate(0.000000, 0.000100)">
                <mask id="mask-4" fill="white">
                    <use xlink:href="#path-3"></use>
                </mask>
                <g id="Clip-11"></g>
                <path d="M38.001,29.9999 C37.703,29.9999 37.408,29.8669 37.211,29.6139 C36.871,29.1779 36.95,28.5499 37.386,28.2109 C42.228,24.4449 41.188,22.8719 39.749,20.6939 C38.799,19.2569 37.616,17.4679 38.495,15.0879 C39.046,13.6009 39.506,11.5479 38.579,10.2169 C37.642,8.8699 35.518,8.5879 33.901,8.5879 C30.757,8.5879 29.218,6.6679 27.859,4.9739 C26.58,3.3779 25.476,1.9999 23.107,1.9999 C20.391,1.9999 19.009,3.1439 17.259,4.5929 C15.492,6.0549 13.49,7.7119 9.785,8.5629 C6.306,9.3609 6.368,10.8529 6.462,13.1109 C6.528,14.7109 6.611,16.7019 4.981,18.2099 C3.246,19.8149 2.493,21.6359 2.859,23.3349 C3.265,25.2059 5.018,26.7859 7.67,27.6679 C8.194,27.8429 8.478,28.4089 8.304,28.9329 C8.129,29.4579 7.563,29.7379 7.039,29.5659 C3.698,28.4549 1.463,26.3379 0.905,23.7569 C0.383,21.3389 1.348,18.8469 3.624,16.7409 C4.574,15.8619 4.522,14.6259 4.464,13.1939 C4.368,10.9109 4.238,7.7829 9.338,6.6129 C12.58,5.8689 14.311,4.4369 15.983,3.0519 C17.879,1.4819 19.67,-0.0001 23.107,-0.0001 C26.436,-0.0001 28.022,1.9789 29.42,3.7239 C30.703,5.3229 31.717,6.5879 33.901,6.5879 C36.945,6.5879 39.071,7.4239 40.221,9.0739 C41.36,10.7119 41.411,12.9679 40.371,15.7809 C39.869,17.1419 40.441,18.1149 41.417,19.5919 C43.332,22.4889 44.443,25.2559 38.614,29.7889 C38.432,29.9319 38.215,29.9999 38.001,29.9999" id="Fill-10" fill="#4F5661" mask="url(#mask-4)"></path>
            </g>
            <path d="M22,34 L24,34 C24.552,34 25,34.448 25,35 C25,35.552 24.552,36 24,36 L22,36 C21.448,36 21,35.552 21,35 C21,34.448 21.448,34 22,34 M35.812,17.276 C35.806,17.245 35.785,17.221 35.776,17.19 C35.768,17.162 35.772,17.132 35.761,17.104 C35.747,17.069 35.721,17.048 35.704,17.017 C35.671,16.952 35.635,16.894 35.59,16.839 C35.552,16.794 35.512,16.755 35.467,16.717 C35.414,16.673 35.36,16.635 35.3,16.603 C35.246,16.573 35.192,16.552 35.134,16.532 C35.072,16.513 35.013,16.499 34.947,16.491 C34.88,16.482 34.815,16.483 34.747,16.489 C34.71,16.492 34.675,16.481 34.637,16.488 C34.605,16.494 34.582,16.515 34.552,16.523 C34.522,16.532 34.493,16.528 34.464,16.539 C31.765,17.602 28.042,18.667 23.173,17.46 C19.531,16.548 16.761,15.005 15.078,13.871 C14.697,13.615 14.19,13.649 13.85,13.958 C12.79,14.915 11.766,15.649 10.805,16.14 C10.794,16.146 10.788,16.155 10.777,16.161 C10.714,16.197 10.663,16.247 10.609,16.295 C10.564,16.335 10.515,16.368 10.479,16.415 C10.444,16.458 10.425,16.511 10.398,16.56 C10.362,16.626 10.323,16.689 10.304,16.763 C10.3,16.774 10.291,16.782 10.288,16.795 C10.097,17.582 10,18.395 10,19.21 L10,23.61 C10,23.612 10.001,23.613 10.001,23.615 L10.001,26.248 C10.001,31.433 15.265,35.417 19.165,35.938 C19.562,37.132 20.676,38 22,38 L24,38 C25.654,38 27,36.654 27,35 C27,33.346 25.654,32 24,32 L22,32 C20.727,32 19.643,32.801 19.208,33.923 C16.142,33.408 12.001,30.109 12.001,26.248 L12.001,23 C12.001,22.998 12,22.997 12,22.995 L12,19.21 C12,18.693 12.062,18.181 12.158,17.675 C12.955,17.224 13.774,16.652 14.607,15.951 C16.45,17.113 19.199,18.526 22.688,19.4 C24.41,19.827 25.998,20 27.461,20 C30.011,20 32.171,19.472 33.982,18.847 C33.988,18.968 34,19.089 34,19.21 L34,23.61 C34,26.686 32.325,29.826 29.405,32.228 C29.176,32.416 29.042,32.695 29.04,32.992 L29.002,37.705 L24.098,45.411 C23.841,45.813 23.422,46.047 22.947,46.054 C22.939,46.055 22.933,46.055 22.926,46.055 C22.466,46.055 22.056,45.838 21.819,45.494 L16.85,37.474 C16.561,37.004 15.943,36.857 15.474,37.15 C15.004,37.44 14.859,38.058 15.15,38.526 L20.144,46.584 C20.772,47.507 21.81,48.055 22.926,48.055 C22.942,48.055 22.959,48.055 22.976,48.054 C24.118,48.037 25.167,47.452 25.784,46.487 L30.844,38.537 C30.944,38.379 30.998,38.195 31,38.008 L31.036,33.467 C34.197,30.722 36,27.152 36,23.61 L36,19.21 C36,18.563 35.937,17.913 35.812,17.276" id="Fill-13" fill="#4F5661"></path>
            <path d="M50.5,7 C47.191,7 44.5,9.691 44.5,13 C44.5,16.309 47.191,19 50.5,19 C53.809,19 56.5,16.309 56.5,13 C56.5,9.691 53.809,7 50.5,7" id="Fill-15" fill="#D3E5EF"></path>
            <path d="M50.5,21 C47.191,21 44.5,23.691 44.5,27 C44.5,30.309 47.191,33 50.5,33 C53.809,33 56.5,30.309 56.5,27 C56.5,23.691 53.809,21 50.5,21" id="Fill-17" fill="#D3E5EF"></path>
            <path d="M50.5,35 C45.262,35 41,39.262 41,44.5 C41,49.738 45.262,54 50.5,54 C55.738,54 60,49.738 60,44.5 C60,39.262 55.738,35 50.5,35" id="Fill-19" fill="#53C27C"></path>
            <polygon id="Fill-21" fill="#FFFFFF" points="55.8857 42.1259 54.3127 40.6009 49.0677 46.0099 46.4687 43.6239 45.0037 45.2539 48.5617 48.5029 48.5667 48.4979 49.1547 49.0679"></polygon>
        </g>
    </g>
</svg>