<?xml version="1.0" encoding="UTF-8"?>
<svg width="58px" height="60px" viewBox="0 0 58 60" version="1.1" xmlns="http://www.w3.org/2000/svg" xmlns:xlink="http://www.w3.org/1999/xlink">
    <!-- Generator: Sketch 49.3 (51167) - http://www.bohemiancoding.com/sketch -->
    <title>Icon/ Streamline Express Entry</title>
    <desc>Created with Sketch.</desc>
    <defs>
        <polygon id="path-1" points="0 48 0 0 19.9999 0 39.9998 0 39.9998 48"></polygon>
    </defs>
    <g id="Icon/-Streamline-Express-Entry" stroke="none" stroke-width="1" fill="none" fill-rule="evenodd">
        <g id="Page-1">
            <path d="M51.6787,37.9766 C53.1977,36.8706 54.1347,35.3336 54.1347,33.6226 C54.1347,31.1966 51.6877,29.3666 49.2317,27.5436 C46.7757,25.7136 48.2477,22.9996 48.2477,22.9996 C39.8657,24.7036 46.1447,34.0186 44.5037,33.4066 C42.8727,32.8006 40.2317,28.7616 40.2317,28.7616 C40.2317,28.7616 37.7847,30.5836 37.7847,33.6226 C37.7847,35.3426 38.7407,36.9026 40.2787,37.9996" id="Fill-1" fill="#D3E5EF"></path>
            <path d="M29.895,20.2549 C29.895,17.5599 27.266,16.3479 24.99,15.5329 C23.088,14.8439 22.22,14.1749 22.22,13.1929 C22.22,12.5249 22.948,11.7309 24.286,11.7309 C25.576,11.7309 27.361,12.7759 27.548,12.8799 C27.83,13.0469 28.182,12.8799 28.37,12.6289 L29.262,11.4379 C29.425,11.2299 29.363,10.8739 29.128,10.7489 C28.749,10.4949 27.405,9.7449 25.745,9.4639 L25.745,7.4349 C25.745,7.1939 25.543,6.9999 25.314,6.9999 L23.654,6.9999 C23.424,6.9999 23.255,7.1939 23.255,7.4349 L23.255,9.4319 C20.765,9.8389 19.154,11.7129 19.154,13.3599 C19.154,15.8249 21.356,17.0789 23.562,17.8729 C25.534,18.5829 26.541,19.3149 26.541,20.3799 C26.541,21.2779 25.624,21.9889 24.404,21.9889 C22.878,21.9889 20.977,20.7559 20.859,20.6929 C20.648,20.5469 20.249,20.5469 20.062,20.8399 L19.216,22.1349 C19.005,22.4699 19.122,22.5739 19.333,22.7619 C19.732,23.0999 21.055,24.0329 23.255,24.3089 L23.255,26.5659 C23.255,26.8059 23.441,26.9999 23.67,26.9999 L25.33,26.9999 C25.559,26.9999 25.745,26.8059 25.745,26.5659 L25.745,24.2889 C28.322,23.8599 29.895,22.1209 29.895,20.2549" id="Fill-3" fill="#F4877A"></path>
            <path d="M9,1 L9,47 L3,47 C1.9,47 1,46.101 1,45 L1,3 C1,1.9 1.9,1 3,1 L9,1 Z" id="Fill-5" fill="#D3E5EF"></path>
            <g id="Group-9">
                <mask id="mask-2" fill="white">
                    <use xlink:href="#path-1"></use>
                </mask>
                <g id="Clip-8"></g>
                <path d="M31.0498,48 L2.9998,48 C1.3458,48 -0.0002,46.654 -0.0002,45 L-0.0002,3 C-0.0002,1.346 1.3458,0 2.9998,0 L39.9998,0 L39.9998,25.51 C39.9998,26.063 39.5518,26.51 38.9998,26.51 C38.4478,26.51 37.9998,26.063 37.9998,25.51 L37.9998,2 L2.9998,2 C2.4488,2 1.9998,2.448 1.9998,3 L1.9998,45 C1.9998,45.552 2.4488,46 2.9998,46 L31.0498,46 C31.6018,46 32.0498,46.447 32.0498,47 C32.0498,47.553 31.6018,48 31.0498,48" id="Fill-7" fill="#4F5661" mask="url(#mask-2)"></path>
            </g>
            <path d="M9,45 C8.448,45 8,44.553 8,44 L8,4 C8,3.447 8.448,3 9,3 C9.552,3 10,3.447 10,4 L10,44 C10,44.553 9.552,45 9,45" id="Fill-10" fill="#4F5661"></path>
            <path d="M46,38 C40.486,38 36,42.486 36,48 C36,53.514 40.486,58 46,58 C51.514,58 56,53.514 56,48 C56,42.486 51.514,38 46,38 M46,60 C39.383,60 34,54.617 34,48 C34,41.383 39.383,36 46,36 C52.617,36 58,41.383 58,48 C58,54.617 52.617,60 46,60" id="Fill-12" fill="#4F5661"></path>
            <path d="M46,41 C48.167,41 49.833,42 51,43.417 L46,48 L46,41 Z" id="Fill-14" fill="#D3E5EF"></path>
            <path d="M47,42.0889 L47,45.7269 L49.573,43.3679 C48.945,42.8069 48.098,42.2909 47,42.0889 M46,48.9999 C45.864,48.9999 45.727,48.9729 45.597,48.9149 C45.234,48.7559 45,48.3969 45,47.9999 L45,40.9999 C45,40.4469 45.448,39.9999 46,39.9999 C48.278,39.9999 50.274,40.9619 51.772,42.7809 C52.11,43.1919 52.067,43.7949 51.676,44.1539 L46.676,48.7369 C46.488,48.9089 46.245,48.9999 46,48.9999" id="Fill-16" fill="#D3E5EF"></path>
            <path d="M52.7593,42.3496 C52.3993,41.9286 51.7673,41.8806 51.3493,42.2416 L46.6333,46.2846 C46.2913,46.1086 45.9093,45.9996 45.5003,45.9996 C44.1213,45.9996 43.0003,47.1206 43.0003,48.4996 C43.0003,49.8786 44.1213,50.9996 45.5003,50.9996 C46.8783,50.9996 48.0003,49.8786 48.0003,48.4996 C48.0003,48.2676 47.9583,48.0456 47.8983,47.8326 L52.6513,43.7586 C53.0703,43.3996 53.1183,42.7686 52.7593,42.3496" id="Fill-18" fill="#4F5661"></path>
            <path d="M32,33 L17,33 C16.448,33 16,32.553 16,32 C16,31.447 16.448,31 17,31 L32,31 C32.552,31 33,31.447 33,32 C33,32.553 32.552,33 32,33" id="Fill-20" fill="#4F5661"></path>
            <path d="M28,37 L21,37 C20.448,37 20,36.553 20,36 C20,35.447 20.448,35 21,35 L28,35 C28.552,35 29,35.447 29,36 C29,36.553 28.552,37 28,37" id="Fill-22" fill="#4F5661"></path>
        </g>
    </g>
</svg>