<?xml version="1.0" encoding="UTF-8"?>
<svg width="58px" height="50px" viewBox="0 0 58 50" version="1.1" xmlns="http://www.w3.org/2000/svg" xmlns:xlink="http://www.w3.org/1999/xlink">
    <!-- Generator: Sketch 49.3 (51167) - http://www.bohemiancoding.com/sketch -->
    <title>Icon/ Student</title>
    <desc>Created with Sketch.</desc>
    <defs></defs>
    <g id="Icon/-Student" stroke="none" stroke-width="1" fill="none" fill-rule="evenodd">
        <g id="Student" transform="translate(-1.000000, -1.000000)">
            <path d="M58,8 L58,41.1868624 L34.7960457,46.0210196 C34.3323265,46.1176278 34,46.5263243 34,47 C34,47.0603502 33.9864704,47.2118819 33.9428946,47.4210457 C33.8679494,47.7807828 33.7332287,48.1400378 33.5270017,48.4700011 C32.9318163,49.4222976 31.8486244,50 30,50 C29.4477153,50 29,50.4477153 29,51 C29,51.5522847 29.4477153,52 30,52 C32.5263756,52 34.2556837,51.0777024 35.2229983,49.5299989 C35.5923385,48.9390547 35.8051682,48.3524927 35.9118044,47.8315116 L59.2039543,42.9789804 C59.6676735,42.8823722 60,42.4736757 60,42 L60,7 C60,6.44771525 59.5522847,6 59,6 L55,6 C54.4477153,6 54,6.44771525 54,7 C54,7.55228475 54.4477153,8 55,8 L58,8 Z" id="Stroke-1" fill="#4B5E69" fill-rule="nonzero"></path>
            <g id="Group-6" transform="translate(40.000000, 38.000000)">
                <polyline id="Fill-3" fill="#F4877A" points="4 0.2036 4 12.9996 2.144 10.9996 0.173 12.9996 0.173 1.2906"></polyline>
                <polyline id="Stroke-5" stroke="#F4877A" stroke-width="2" stroke-linecap="round" stroke-linejoin="round" points="4 0.2036 4 12.9996 2.144 10.9996 0.173 12.9996 0.173 1.2906"></polyline>
            </g>
            <path d="M45.8503786,23.5166566 C41.4195317,24.1871538 37.9802025,25.5225758 35.4543105,27.1674125 C34.9915028,27.4687885 34.8606366,28.0882818 35.1620125,28.5510895 C35.4633885,29.0138972 36.0828818,29.1447634 36.5456895,28.8433875 C38.8357966,27.3520915 42.0059557,26.1211829 46.1496214,25.4941434 C46.6956893,25.4115097 47.071377,24.9018465 46.9887434,24.3557786 C46.9061097,23.8097107 46.3964465,23.434023 45.8503786,23.5166566 Z" id="Stroke-7" fill="#4B5E69" fill-rule="nonzero"></path>
            <path d="M43.6555202,28.4715826 C40.6244297,29.2013752 38.0539771,30.2303336 35.9204658,31.4592753 C35.4418975,31.7349395 35.2774111,32.3463658 35.5530753,32.8249342 C35.8287395,33.3035025 36.4401658,33.4679889 36.9187342,33.1923247 C38.8873257,32.0583799 41.2793684,31.1008394 44.1236798,30.4160174 C44.6606206,30.2867387 44.9910961,29.746661 44.8618174,29.2097202 C44.7325387,28.6727794 44.192461,28.3423039 43.6555202,28.4715826 Z" id="Stroke-9" fill="#4B5E69" fill-rule="nonzero"></path>
            <path d="M24.5456895,27.1679125 C22.0197975,25.5230758 18.5804683,24.1876538 14.1496214,23.5171566 C13.6035535,23.434523 13.0938903,23.8102107 13.0112566,24.3562786 C12.928623,24.9023465 13.3043107,25.4120097 13.8503786,25.4946434 C17.9940443,26.1216829 21.1642034,27.3525915 23.4543105,28.8438875 C23.9171182,29.1452634 24.5366115,29.0143972 24.8379875,28.5515895 C25.1393634,28.0887818 25.0084972,27.4692885 24.5456895,27.1679125 Z" id="Stroke-11" fill="#4B5E69" fill-rule="nonzero"></path>
            <path d="M22.0099698,30.2757311 C19.7974567,29.2571954 17.18364,28.4710305 14.1495875,28.0113818 C13.6035335,27.9286564 13.0938071,28.3042585 13.0110818,28.8503125 C12.9283564,29.3963665 13.3039585,29.9060929 13.8500125,29.9888182 C16.6976336,30.4202232 19.1308396,31.1520653 21.1736302,32.0924689 C21.6753085,32.3234177 22.2692201,32.1039481 22.5001689,31.6022698 C22.7311177,31.1005915 22.5116481,30.5066799 22.0099698,30.2757311 Z" id="Stroke-13" fill="#4B5E69" fill-rule="nonzero"></path>
            <path d="M14,17.3667 C19,17.9997 24,20.9997 24,20.9397 L24,13.6097 C22.32,12.3267 19.095,10.4087 14,9.5057 L14,17.3667 Z" id="Fill-15" fill="#D3E5EF"></path>
            <path d="M14,17.3667 C19,17.9997 24,20.9997 24,20.9397 L24,13.6097 C22.32,12.3267 19.095,10.4087 14,9.5057 L14,17.3667 Z" id="Stroke-17" stroke="#D3E5EF" stroke-width="2" stroke-linecap="round" stroke-linejoin="round"></path>
            <path d="M46,9.5054 C40.905,10.4094 37.68,12.3264 36,13.6094 L36,20.9394 C36,21.0004 41,18.0004 46,17.3664 L46,9.5054 Z" id="Fill-19" fill="#D3E5EF"></path>
            <path d="M46,9.5054 C40.905,10.4094 37.68,12.3264 36,13.6094 L36,20.9394 C36,21.0004 41,18.0004 46,17.3664 L46,9.5054 Z" id="Stroke-21" stroke="#D3E5EF" stroke-width="2" stroke-linecap="round" stroke-linejoin="round"></path>
            <path d="M24.7770017,49.5299989 C25.7443163,51.0777024 27.4736244,52 30,52 C30.5522847,52 31,51.5522847 31,51 C31,50.4477153 30.5522847,50 30,50 C28.1513756,50 27.0681837,49.4222976 26.4729983,48.4700011 C26.2667713,48.1400378 26.1320506,47.7807828 26.0571054,47.4210457 C26.0135296,47.2118819 26,47.0603502 26,47 C26,46.5263243 25.6676735,46.1176278 25.2039543,46.0210196 L2,41.1868624 L2,8 L5,8 C5.55228475,8 6,7.55228475 6,7 C6,6.44771525 5.55228475,6 5,6 L1,6 C0.44771525,6 0,6.44771525 0,7 L0,42 C0,42.4736757 0.332326486,42.8823722 0.796045746,42.9789804 L24.0881956,47.8315116 C24.1948318,48.3524927 24.4076615,48.9390547 24.7770017,49.5299989 Z" id="Stroke-23" fill="#4B5E69" fill-rule="nonzero"></path>
            <path d="M52,36 C52.5522847,36 53,36.4477153 53,37 C53,37.5522847 52.5522847,38 52,38 C45.4009438,38 39.9926434,39.4547974 35.6839117,41.872123 C34.1870723,42.711894 32.9358031,43.608596 31.9207742,44.5010109 C31.5700044,44.8094082 31.2748589,45.0937053 31.0342282,45.3461774 C30.8960185,45.4911884 30.8100477,45.5889514 30.7752121,45.631701 C30.1809238,46.3610009 29,45.9407747 29,45 L29,9 C29,8.76983875 29.0793948,8.54672281 29.2247879,8.36829901 C29.4624085,8.07669527 29.9174626,7.59924798 30.6001946,6.99898911 C31.7177828,6.01640395 33.0829121,5.03810596 34.7053383,4.12787701 C39.3087941,1.54520255 45.0531812,0 52,0 C52.5522847,0 53,0.44771525 53,1 L53,37 C53,37.5522847 52.5522847,38 52,38 C51.4477153,38 51,37.5522847 51,37 L51,36.0107965 C51.3305225,36.003618 51.6638536,36 52,36 Z M51,2.01127794 C44.8523644,2.15083465 39.7729815,3.57803425 35.6839117,5.87212299 C34.1870723,6.71189404 32.9358031,7.60859605 31.9207742,8.50101089 C31.5700044,8.80940815 31.2748589,9.09370531 31.0342282,9.34617739 C31.0263687,9.35442366 31.0149593,20.4578947 31,42.6565904 C32.0386488,41.7898721 33.271517,40.932293 34.7053383,40.127877 C39.0860396,37.6701744 44.4999275,36.1519694 51,36.0107965 L51,2.01127794 Z" id="Stroke-25" fill="#4B5E69" fill-rule="nonzero"></path>
            <path d="M9,37 C9,37.5522847 8.55228475,38 8,38 C7.44771525,38 7,37.5522847 7,37 L7,1 C7,0.44771525 7.44771525,0 8,0 C14.9468188,0 20.6912059,1.54520255 25.2946617,4.12787701 C26.9170879,5.03810596 28.2822172,6.01640395 29.3998054,6.99898911 C30.0825374,7.59924798 30.5375915,8.07669527 30.7752121,8.36829901 C30.9206052,8.54672281 31,8.76983875 31,9 L31,45 C31,45.9407747 29.8190762,46.3610009 29.2247879,45.631701 C29.1899523,45.5889514 29.1039815,45.4911884 28.9657718,45.3461774 C28.7251411,45.0937053 28.4299956,44.8094082 28.0792258,44.5010109 C27.0641969,43.608596 25.8129277,42.711894 24.3160883,41.872123 C20.0073566,39.4547974 14.5990562,38 8,38 C7.44771525,38 7,37.5522847 7,37 C7,36.4477153 7.44771525,36 8,36 C8.33614645,36 8.66947746,36.003618 9,36.0107965 L9,37 Z M25.2946617,40.127877 C26.728483,40.932293 27.9613512,41.7898721 29,42.6565904 L29,9.38224946 C28.7251411,9.09370531 28.4299956,8.80940815 28.0792258,8.50101089 C27.0641969,7.60859605 25.8129277,6.71189404 24.3160883,5.87212299 C20.2270185,3.57803425 15.1476356,2.15083465 9,2.01127794 L9,36.0107965 C15.5000725,36.1519694 20.9139604,37.6701744 25.2946617,40.127877 Z" id="Stroke-27" fill="#4B5E69" fill-rule="nonzero"></path>
        </g>
    </g>
</svg>