<?xml version="1.0" encoding="UTF-8"?>
<svg width="50px" height="54px" viewBox="0 0 50 54" version="1.1" xmlns="http://www.w3.org/2000/svg" xmlns:xlink="http://www.w3.org/1999/xlink">
    <!-- Generator: Sketch 49.3 (51167) - http://www.bohemiancoding.com/sketch -->
    <title>Icon/ Tablet</title>
    <desc>Created with Sketch.</desc>
    <defs></defs>
    <g id="Icon/-Tablet" stroke="none" stroke-width="1" fill="none" fill-rule="evenodd">
        <g id="Page-1">
            <polygon id="Fill-1" fill="#D3E5EF" points="14 44 46 44 46 9 14 9"></polygon>
            <g id="Group-14" fill="#4F5661">
                <path d="M13,2 C12.448,2 12,2.448 12,3 L12,50 C12,50.552 12.448,51 13,51 L47,51 C47.552,51 48,50.552 48,50 L48,3 C48,2.448 47.552,2 47,2 L13,2 Z M47,53 L13,53 C11.346,53 10,51.654 10,50 L10,3 C10,1.346 11.346,0 13,0 L47,0 C48.654,0 50,1.346 50,3 L50,50 C50,51.654 48.654,53 47,53 Z" id="Fill-2"></path>
                <path d="M46,10 L14,10 C13.447,10 13,9.553 13,9 C13,8.447 13.447,8 14,8 L46,8 C46.553,8 47,8.447 47,9 C47,9.553 46.553,10 46,10" id="Fill-4"></path>
                <path d="M46,45 L14,45 C13.447,45 13,44.553 13,44 C13,43.447 13.447,43 14,43 L46,43 C46.553,43 47,43.447 47,44 C47,44.553 46.553,45 46,45" id="Fill-6"></path>
                <path d="M32,49 L28,49 C27.447,49 27,48.553 27,48 C27,47.447 27.447,47 28,47 L32,47 C32.553,47 33,47.447 33,48 C33,48.553 32.553,49 32,49" id="Fill-8"></path>
                <path d="M30,4.5 C29.725,4.5 29.5,4.725 29.5,5 C29.5,5.275 29.725,5.5 30,5.5 C30.275,5.5 30.5,5.275 30.5,5 C30.5,4.725 30.275,4.5 30,4.5 M30,6.5 C29.173,6.5 28.5,5.827 28.5,5 C28.5,4.173 29.173,3.5 30,3.5 C30.827,3.5 31.5,4.173 31.5,5 C31.5,5.827 30.827,6.5 30,6.5" id="Fill-10"></path>
                <path d="M2,50.5859 L3,51.5859 L4,50.5859 L4,21.9999 C4,21.4479 3.552,20.9999 3,20.9999 C2.448,20.9999 2,21.4479 2,21.9999 L2,50.5859 Z M3,53.9999 C2.744,53.9999 2.488,53.9019 2.293,53.7069 L0.293,51.7069 C0.105,51.5199 0,51.2659 0,50.9999 L0,21.9999 C0,20.3459 1.346,18.9999 3,18.9999 C4.654,18.9999 6,20.3459 6,21.9999 L6,50.9999 C6,51.2659 5.895,51.5199 5.707,51.7069 L3.707,53.7069 C3.512,53.9019 3.256,53.9999 3,53.9999 Z" id="Fill-12"></path>
            </g>
        </g>
    </g>
</svg>