<?xml version="1.0" encoding="UTF-8"?>
<svg width="59px" height="59px" viewBox="0 0 59 59" version="1.1" xmlns="http://www.w3.org/2000/svg" xmlns:xlink="http://www.w3.org/1999/xlink">
    <!-- Generator: Sketch 49.3 (51167) - http://www.bohemiancoding.com/sketch -->
    <title>Icon/ Talk to Expert 2</title>
    <desc>Created with Sketch.</desc>
    <defs></defs>
    <g id="Icon/-Talk-to-Expert-2" stroke="none" stroke-width="1" fill="none" fill-rule="evenodd">
        <g id="Page-1">
            <path d="M1.4309,47 C1.4309,47 7.4309,56 23.4309,57 L20.4309,52 L19.4309,46 L14.3689,45.5 L12.8269,37.729 C12.8269,37.729 7.6369,38.273 4.2889,42.98 L1.4309,47 Z" id="Fill-1" fill="#D3E5EF"></path>
            <path d="M45.487,47 C45.487,47 37.431,56 23.431,57 L26.431,52 L27.431,45 L32.549,45.5 L34.091,37.729 C34.091,37.729 39.282,38.273 42.629,42.98 L45.487,47 Z" id="Fill-3" fill="#D3E5EF"></path>
            <path d="M48.405,58.9727 C56.509,56.5027 58.379,51.1817 58.379,51.1817 L58.379,39.1957 L48.405,34.9997 L38.431,39.1957 L38.431,51.1817 C38.431,51.1817 40.301,57.0837 48.405,58.9727" id="Fill-5" fill="#53C27C"></path>
            <path d="M23.4309,58 C22.8789,58 22.4309,57.553 22.4309,57 L22.4309,44 C22.4309,43.447 22.8789,43 23.4309,43 C23.9829,43 24.4309,43.447 24.4309,44 L24.4309,57 C24.4309,57.553 23.9829,58 23.4309,58" id="Fill-7" fill="#4F5661"></path>
            <path d="M23.4309,58 C22.8789,58 22.4309,57.553 22.4309,57 L22.4309,44 C22.4309,43.447 22.8789,43 23.4309,43 C23.9829,43 24.4309,43.447 24.4309,44 L24.4309,57 C24.4309,57.553 23.9829,58 23.4309,58" id="Fill-9" fill="#4F5661"></path>
            <path d="M23.4309,58 C22.8789,58 22.4309,57.553 22.4309,57 L22.4309,44 C22.4309,43.447 22.8789,43 23.4309,43 C23.9829,43 24.4309,43.447 24.4309,44 L24.4309,57 C24.4309,57.553 23.9829,58 23.4309,58" id="Fill-11" fill="#4F5661"></path>
            <path d="M23.4309,26.8672 C22.4979,26.8672 21.6049,26.5832 20.8489,26.0462 C20.3269,25.6762 19.8829,25.1862 19.5639,24.6312 C19.2889,24.1512 19.4539,23.5402 19.9329,23.2652 C20.4129,22.9912 21.0239,23.1552 21.2979,23.6352 C21.4739,23.9412 21.7189,24.2112 22.0069,24.4152 C22.8449,25.0122 24.0379,25.0072 24.8689,24.4052 C25.1499,24.2022 25.3909,23.9352 25.5639,23.6342 C25.8399,23.1562 26.4509,22.9922 26.9299,23.2652 C27.4089,23.5412 27.5729,24.1522 27.2979,24.6322 C26.9799,25.1832 26.5569,25.6532 26.0399,26.0272 C25.2769,26.5772 24.3749,26.8672 23.4309,26.8672" id="Fill-13" fill="#4F5661"></path>
            <path d="M32.6057,34 C32.0537,34 31.6057,33.553 31.6057,33 C31.6057,32.447 32.0537,32 32.6057,32 C34.2787,32 36.3807,31.311 37.5937,30.853 C36.7717,29.123 35.3797,25.484 36.1897,21.965 C38.4417,12.182 36.9317,8.753 35.8307,7.579 C35.0387,6.735 33.9187,6.428 32.5107,6.656 C32.1507,6.721 31.7887,6.574 31.5637,6.288 C30.1387,4.479 28.1887,2 22.4307,2 C18.2107,2 15.0087,3.272 12.9127,5.782 C10.1267,9.117 9.3957,14.578 10.7407,22.012 C11.4827,26.111 10.1857,29.372 9.3537,30.941 C10.3967,31.383 12.2337,32 14.3707,32 C14.9227,32 15.3707,32.447 15.3707,33 C15.3707,33.553 14.9227,34 14.3707,34 C10.4967,34 7.5517,32.302 7.4277,32.229 C7.1847,32.087 7.0127,31.848 6.9547,31.571 C6.8967,31.295 6.9587,31.007 7.1247,30.778 C7.1477,30.745 9.6467,27.194 8.7727,22.367 C7.3167,14.323 8.1937,8.312 11.3777,4.5 C13.8367,1.556 17.6587,0 22.4307,0 C28.2797,0 30.8227,2.215 32.7797,4.608 C34.6047,4.455 36.1527,5 37.2897,6.211 C39.7297,8.812 40.0157,14.263 38.1397,22.414 C37.2257,26.383 39.8207,30.811 39.8477,30.855 C39.9937,31.101 40.0277,31.396 39.9417,31.668 C39.8557,31.939 39.6567,32.162 39.3967,32.279 C39.2397,32.349 35.5217,34 32.6057,34" id="Fill-15" fill="#4F5661"></path>
            <path d="M33.4631,17.917 C32.9111,17.917 32.4631,17.47 32.4631,16.917 L32.4631,12.941 C32.4631,12.389 32.9111,11.941 33.4631,11.941 C34.0151,11.941 34.4631,12.389 34.4631,12.941 L34.4631,16.917 C34.4631,17.47 34.0151,17.917 33.4631,17.917" id="Fill-17" fill="#4F5661"></path>
            <path d="M9.1907,53.2598 L9.5747,52.3298 C6.8517,50.7858 4.4347,48.8018 2.3477,46.4128 L6.0897,42.5308 C7.7007,40.6548 10.1037,39.3398 12.3917,39.0678 C12.3787,39.7378 12.3847,40.4078 12.4337,41.0728 C12.5637,42.8498 12.9167,44.6138 13.4817,46.3158 C13.6467,46.8118 14.1617,47.0968 14.6737,46.9698 L17.7747,46.1948 L19.4827,51.3168 C19.6217,51.7358 20.0117,51.9998 20.4307,51.9998 C20.5357,51.9998 20.6427,51.9838 20.7477,51.9478 C21.2717,51.7748 21.5547,51.2078 21.3797,50.6838 L19.3797,44.6838 C19.2137,44.1888 18.6997,43.9018 18.1887,44.0308 L15.1087,44.7998 C14.7527,43.5308 14.5237,42.2328 14.4287,40.9268 C14.3587,39.9818 14.3587,39.0208 14.4287,38.0728 C14.4367,37.9618 14.4147,37.8578 14.3877,37.7548 L16.7127,35.8688 C16.9507,36.7158 17.3237,37.5228 17.8527,38.2288 L22.4307,44.3328 L22.4307,55.9678 C17.9497,55.8078 13.5617,54.5888 9.6837,52.3898 L9.1907,53.2598 Z M23.4337,32.9888 C24.9677,32.9888 26.7547,32.3638 28.4337,31.3098 L28.4317,33.9638 C28.4317,35.0618 28.0677,36.1508 27.4097,37.0298 L23.4307,42.3338 L19.4527,37.0298 C18.7937,36.1508 18.4307,35.0618 18.4297,33.9628 L18.4287,31.3248 C20.0977,32.3778 21.8677,32.9888 23.4337,32.9888 Z M37.6057,53.3228 C37.3517,52.8328 36.7477,52.6398 36.2577,52.8938 C32.5657,54.8018 28.5897,55.8268 24.4307,55.9708 L24.4307,44.3328 L29.0097,38.2288 C29.5387,37.5228 29.9117,36.7148 30.1487,35.8678 L32.4677,37.7458 C32.4367,37.8648 32.4227,37.9908 32.4387,38.1198 C32.5887,39.3678 32.5887,40.6328 32.4387,41.8798 C32.3177,42.8738 32.1017,43.8568 31.7927,44.8098 L28.6737,44.0308 C28.1617,43.9018 27.6467,44.1888 27.4827,44.6838 L25.4827,50.6838 C25.3077,51.2078 25.5907,51.7748 26.1147,51.9478 C26.2197,51.9838 26.3267,51.9998 26.4307,51.9998 C26.8497,51.9998 27.2397,51.7358 27.3797,51.3168 L29.0867,46.1948 L32.1887,46.9698 C32.6757,47.0938 33.1817,46.8308 33.3637,46.3618 C33.8917,44.9978 34.2477,43.5718 34.4237,42.1198 C34.5457,41.1108 34.5767,40.0908 34.5237,39.0748 C35.0357,39.1368 35.5687,39.2488 36.1177,39.4308 C36.2217,39.4648 36.3277,39.4808 36.4307,39.4808 C36.8507,39.4808 37.2417,39.2138 37.3807,38.7928 C37.5537,38.2688 37.2687,37.7028 36.7437,37.5308 C36.0937,37.3168 35.4507,37.1678 34.8287,37.0878 L30.4317,33.5248 L30.4347,30.0008 C30.4347,29.9368 30.4097,29.8798 30.3977,29.8178 C30.6057,29.6298 30.8157,29.4438 31.0127,29.2418 C33.2377,26.9728 34.4627,24.2148 34.4627,21.4758 L34.4627,15.6768 C34.4627,15.1238 34.0157,14.6768 33.4627,14.6768 C32.9107,14.6768 32.4627,15.1238 32.4627,15.6768 L32.4627,21.4758 C32.4627,23.6878 31.4407,25.9478 29.5857,27.8408 C27.7357,29.7238 25.2637,30.9888 23.4337,30.9888 C21.5987,30.9888 19.1297,29.7308 17.2897,27.8578 C15.4287,25.9698 14.4037,23.7028 14.4037,21.4758 L14.4037,16.3878 L14.4037,15.6768 L14.4037,14.6468 C15.3687,14.1998 16.7897,13.3218 17.9287,12.0728 C19.1787,12.8828 20.9467,13.8068 23.1547,14.4028 C27.5017,15.5718 31.6427,14.8398 33.8677,13.8568 C34.3727,13.6328 34.6007,13.0418 34.3777,12.5368 C34.1537,12.0308 33.5617,11.8048 33.0587,12.0268 C31.1317,12.8778 27.5177,13.5058 23.6747,12.4708 C21.2537,11.8188 19.4287,10.7238 18.3247,9.9198 C18.1087,9.7638 17.8397,9.6968 17.5787,9.7408 C17.3157,9.7828 17.0807,9.9278 16.9247,10.1438 C15.7017,11.8398 13.6317,12.8428 13.1367,13.0208 C12.9747,13.0658 12.8247,13.1518 12.7027,13.2718 C12.5117,13.4598 12.4037,13.7168 12.4037,13.9848 L12.4037,15.6768 L12.4037,16.3878 L12.4037,21.4758 C12.4037,24.2328 13.6327,26.9968 15.8637,29.2608 C16.0567,29.4578 16.2607,29.6388 16.4627,29.8228 C16.4527,29.8828 16.4277,29.9378 16.4277,30.0008 L16.4297,33.5248 L12.2807,36.8888 C12.2487,36.9088 12.2177,36.9328 12.1877,36.9568 L12.0237,37.0908 C9.2957,37.4568 6.4677,39.0208 4.6087,41.1878 L0.2717,45.6858 C0.2367,45.7218 0.2227,45.7678 0.1937,45.8068 C0.1537,45.8628 0.1127,45.9148 0.0857,45.9778 C0.0587,46.0358 0.0477,46.0968 0.0337,46.1588 C0.0187,46.2218 0.0027,46.2808 0.0007,46.3458 C-0.0023,46.4098 0.0107,46.4718 0.0207,46.5358 C0.0307,46.5988 0.0377,46.6588 0.0597,46.7188 C0.0827,46.7828 0.1207,46.8388 0.1577,46.8988 C0.1827,46.9398 0.1937,46.9858 0.2257,47.0238 L0.3427,47.1638 C0.4727,47.3218 0.6017,47.4758 0.7127,47.5928 C2.9527,50.1968 5.6017,52.3758 8.5867,54.0708 C8.5877,54.0708 8.6977,54.1298 8.6977,54.1298 C13.1647,56.6618 18.2587,57.9998 23.4307,57.9998 C28.2097,57.9998 32.9617,56.8488 37.1757,54.6708 C37.6667,54.4168 37.8587,53.8138 37.6057,53.3228 Z" id="Fill-19" fill="#4F5661"></path>
            <path d="M55.2717,43.4971 L53.8727,42.1411 C53.6757,41.9511 53.3597,41.9531 53.1677,42.1501 L47.0417,48.4151 L44.1867,45.7261 C44.0877,45.6351 43.9617,45.5831 43.8227,45.5911 C43.6887,45.5971 43.5617,45.6561 43.4717,45.7571 L42.1687,47.2061 C41.9867,47.4081 42.0007,47.7201 42.1997,47.9051 L46.2657,51.6961 C46.2827,51.7121 46.2997,51.7261 46.3187,51.7391 L46.7857,52.1921 C46.8827,52.2861 47.0077,52.3331 47.1337,52.3331 C47.2637,52.3331 47.3937,52.2821 47.4917,52.1831 L55.2817,44.2061 C55.3747,44.1101 55.4257,43.9821 55.4237,43.8501 C55.4217,43.7171 55.3667,43.5901 55.2717,43.4971" id="Fill-21" fill="#FFFFFF"></path>
        </g>
    </g>
</svg>