<?xml version="1.0" encoding="UTF-8"?>
<svg width="60px" height="59px" viewBox="0 0 60 59" version="1.1" xmlns="http://www.w3.org/2000/svg" xmlns:xlink="http://www.w3.org/1999/xlink">
    <!-- Generator: Sketch 49.3 (51167) - http://www.bohemiancoding.com/sketch -->
    <title>Icon/ Talk to Expert</title>
    <desc>Created with Sketch.</desc>
    <defs>
        <polygon id="path-1" points="1.35525272e-20 0.7038 1.35525272e-20 44.0268 38.1931301 44.0268 38.1931301 0.7038"></polygon>
    </defs>
    <g id="Icon/-Talk-to-Expert" stroke="none" stroke-width="1" fill="none" fill-rule="evenodd">
        <g id="Page-1">
            <path d="M1.4309,47 C1.4309,47 8.4309,55 15.4309,56 L11.4309,46 L13.4309,42 L11.4309,42 L12.8269,37.729 C12.8269,37.729 7.6359,38.273 4.2889,42.98 L1.4309,47 Z" id="Fill-1" fill="#D3E5EF"></path>
            <path d="M23.4309,26.8672 C22.4979,26.8672 21.6059,26.5832 20.8489,26.0462 C20.3269,25.6762 19.8829,25.1852 19.5639,24.6312 C19.2889,24.1512 19.4539,23.5402 19.9329,23.2652 C20.4129,22.9912 21.0239,23.1552 21.2979,23.6352 C21.4739,23.9412 21.7189,24.2112 22.0069,24.4152 C22.8449,25.0122 24.0369,25.0072 24.8689,24.4052 C25.1499,24.2022 25.3909,23.9352 25.5639,23.6342 C25.8399,23.1562 26.4509,22.9922 26.9299,23.2652 C27.4089,23.5412 27.5729,24.1522 27.2979,24.6322 C26.9799,25.1832 26.5569,25.6532 26.0399,26.0272 C25.2769,26.5772 24.3749,26.8672 23.4309,26.8672" id="Fill-3" fill="#4F5661"></path>
            <path d="M13.404,17.3877 C12.852,17.3877 12.404,16.9407 12.404,16.3877 L12.404,13.9847 C12.404,13.7167 12.511,13.4597 12.702,13.2717 C12.824,13.1517 12.974,13.0657 13.136,13.0207 C13.632,12.8427 15.701,11.8397 16.925,10.1437 C17.08,9.9277 17.315,9.7837 17.578,9.7417 C17.837,9.6967 18.109,9.7637 18.323,9.9197 C19.429,10.7237 21.254,11.8187 23.675,12.4707 C27.518,13.5047 31.132,12.8777 33.058,12.0267 C33.562,11.8047 34.154,12.0317 34.377,12.5367 C34.6,13.0417 34.372,13.6327 33.867,13.8567 C31.643,14.8397 27.504,15.5747 23.154,14.4027 C20.947,13.8067 19.179,12.8827 17.928,12.0737 C16.79,13.3227 15.368,14.1997 14.404,14.6467 L14.404,16.3877 C14.404,16.9407 13.956,17.3877 13.404,17.3877" id="Fill-5" fill="#4F5661"></path>
            <path d="M32.6057,34 C32.0537,34 31.6057,33.553 31.6057,33 C31.6057,32.447 32.0537,32 32.6057,32 C34.2787,32 36.3807,31.311 37.5937,30.853 C36.7717,29.123 35.3797,25.484 36.1897,21.965 C38.4417,12.182 36.9317,8.753 35.8307,7.579 C35.0387,6.735 33.9197,6.428 32.5107,6.656 C32.1497,6.721 31.7887,6.574 31.5637,6.288 C30.1387,4.479 28.1887,2 22.4307,2 C18.2107,2 15.0087,3.272 12.9127,5.782 C10.1267,9.118 9.3957,14.578 10.7407,22.012 C11.4827,26.11 10.1857,29.372 9.3537,30.941 C10.3967,31.383 12.2337,32 14.3707,32 C14.9227,32 15.3707,32.447 15.3707,33 C15.3707,33.553 14.9227,34 14.3707,34 C10.4967,34 7.5517,32.302 7.4277,32.229 C7.1847,32.087 7.0127,31.848 6.9547,31.571 C6.8967,31.295 6.9587,31.007 7.1247,30.778 C7.1477,30.745 9.6467,27.194 8.7727,22.367 C7.3167,14.323 8.1927,8.312 11.3767,4.5 C13.8357,1.556 17.6587,0 22.4307,0 C28.2797,0 30.8227,2.215 32.7797,4.608 C34.6007,4.455 36.1527,5 37.2897,6.211 C39.7297,8.812 40.0157,14.263 38.1397,22.414 C37.2257,26.383 39.8207,30.811 39.8477,30.855 C39.9937,31.101 40.0277,31.396 39.9417,31.668 C39.8557,31.939 39.6567,32.162 39.3967,32.279 C39.2397,32.349 35.5217,34 32.6057,34" id="Fill-7" fill="#4F5661"></path>
            <path d="M33.4626,17.917 C32.9106,17.917 32.4626,17.47 32.4626,16.917 L32.4626,12.941 C32.4626,12.389 32.9106,11.941 33.4626,11.941 C34.0146,11.941 34.4626,12.389 34.4626,12.941 L34.4626,16.917 C34.4626,17.47 34.0146,17.917 33.4626,17.917" id="Fill-9" fill="#4F5661"></path>
            <path d="M45.57,47 C45.57,47 38.57,55 31.57,56 L35.57,46 L33.57,42 L35.57,42 L34.173,37.729 C34.173,37.729 39.364,38.273 42.712,42.98 L45.57,47 Z" id="Fill-11" fill="#D3E5EF"></path>
            <g id="Group-15" transform="translate(0.000000, 13.972800)">
                <mask id="mask-2" fill="white">
                    <use xlink:href="#path-1"></use>
                </mask>
                <g id="Clip-14"></g>
                <path d="M30.4411,41.1688 C29.3531,41.4438 28.2481,41.6518 27.1321,41.7958 L30.1251,23.3728 L33.6891,24.6478 L33.6951,24.6518 L34.2891,27.0268 L32.5701,27.0268 C32.1911,27.0268 31.8451,27.2408 31.6751,27.5798 C31.5061,27.9188 31.5431,28.3238 31.7701,28.6268 L34.4191,32.1588 L30.4411,41.1688 Z M25.0771,41.9808 C24.5751,42.0078 24.0731,42.0268 23.5701,42.0268 L23.4311,42.0268 C22.9211,42.0268 22.4141,42.0058 21.9071,41.9788 L19.9721,31.1388 C20.9581,31.5768 22.2461,32.0268 23.4311,32.0268 C23.7811,32.0268 25.2041,31.9718 26.8131,31.2878 L25.0771,41.9808 Z M16.5581,41.1648 L12.5821,32.1588 L15.2311,28.6268 C15.4581,28.3238 15.4951,27.9188 15.3251,27.5798 C15.1561,27.2408 14.8101,27.0268 14.4311,27.0268 L12.7121,27.0268 L13.3051,24.6538 L13.3211,24.6408 L16.5591,23.3958 L19.8431,41.7958 C18.7341,41.6528 17.6381,41.4388 16.5581,41.1648 Z M9.6841,38.4168 L9.1911,39.2868 L9.5741,38.3568 C6.8521,36.8138 4.4341,34.8288 2.3471,32.4398 L6.0891,28.5588 C7.3911,27.0428 9.2091,25.8998 11.0651,25.3688 L10.4611,27.7848 C10.3861,28.0838 10.4531,28.3998 10.6431,28.6428 C10.8321,28.8858 11.1231,29.0268 11.4311,29.0268 L12.4311,29.0268 L10.6311,31.4278 C10.4141,31.7168 10.3701,32.1008 10.5161,32.4318 L14.0291,40.3898 C12.5291,39.8558 11.0721,39.2038 9.6841,38.4168 Z M23.4331,19.0158 C24.9361,19.0158 26.6831,18.4198 28.3311,17.4048 L28.3311,21.9448 L27.2201,28.7838 C25.5121,29.9778 23.6471,30.0268 23.4311,30.0268 C22.1131,30.0268 20.2501,29.0968 19.5331,28.6758 L18.3311,21.9398 L18.3311,17.2868 C20.0281,18.3788 21.8371,19.0158 23.4331,19.0158 Z M38.0751,39.1548 C37.8141,38.6678 37.2071,38.4848 36.7211,38.7448 C35.5171,39.3898 34.2591,39.9308 32.9721,40.3898 L36.4851,32.4318 C36.6311,32.1008 36.5871,31.7168 36.3701,31.4278 L34.5701,29.0268 L35.5701,29.0268 C35.8781,29.0268 36.1691,28.8858 36.3581,28.6428 C36.5471,28.3998 36.6151,28.0838 36.5401,27.7848 L35.9391,25.3798 C36.2221,25.4618 36.5061,25.5418 36.7921,25.6528 C37.3091,25.8558 37.8871,25.5998 38.0871,25.0858 C38.2881,24.5708 38.0341,23.9908 37.5201,23.7898 C36.6711,23.4588 35.8181,23.2328 34.9801,23.1188 L34.8141,22.9838 C34.7121,22.8988 34.5901,22.8378 34.4621,22.7998 L30.3311,21.3228 L30.3311,16.0268 C30.3311,15.9908 30.3141,15.9618 30.3101,15.9268 C30.5491,15.7138 30.7871,15.4988 31.0131,15.2698 C33.2371,12.9998 34.4621,10.2418 34.4621,7.5028 L34.4621,1.7038 C34.4621,1.1508 34.0151,0.7038 33.4621,0.7038 C32.9101,0.7038 32.4621,1.1508 32.4621,1.7038 L32.4621,7.5028 C32.4621,9.7158 31.4411,11.9768 29.5861,13.8678 C27.7361,15.7508 25.2631,17.0158 23.4331,17.0158 C21.5981,17.0158 19.1291,15.7578 17.2891,13.8848 C15.4281,11.9968 14.4041,9.7308 14.4041,7.5028 L14.4041,1.7038 C14.4041,1.1508 13.9561,0.7038 13.4041,0.7038 C12.8521,0.7038 12.4041,1.1508 12.4041,1.7038 L12.4041,7.5028 C12.4041,10.2598 13.6331,13.0238 15.8631,15.2878 C16.0311,15.4578 16.2081,15.6128 16.3821,15.7738 C16.3591,15.8568 16.3311,15.9378 16.3311,16.0268 L16.3311,21.3408 L12.5411,22.7978 C12.4131,22.8348 12.2931,22.8978 12.1881,22.9838 L12.0241,23.1178 C9.2961,23.4838 6.4671,25.0478 4.6091,27.2148 L0.2721,31.7128 C0.2371,31.7488 0.2221,31.7938 0.1941,31.8328 C0.1541,31.8898 0.1131,31.9418 0.0861,32.0038 C0.0591,32.0628 0.0471,32.1228 0.0331,32.1858 C0.0191,32.2478 0.0031,32.3088 0.0001,32.3728 C-0.0019,32.4368 0.0101,32.4968 0.0201,32.5608 C0.0301,32.6238 0.0371,32.6858 0.0591,32.7468 C0.0821,32.8098 0.1201,32.8648 0.1561,32.9238 C0.1811,32.9648 0.1921,33.0118 0.2251,33.0498 L0.3341,33.1818 C0.4671,33.3418 0.5991,33.4998 0.7121,33.6198 C2.9521,36.2248 5.6021,38.4028 8.5871,40.0978 C8.5871,40.0978 8.6971,40.1568 8.6971,40.1568 C10.8391,41.3718 13.1291,42.3038 15.4991,42.9518 C15.5411,42.9678 15.5821,42.9808 15.6261,42.9898 C18.1581,43.6718 20.7841,44.0268 23.4311,44.0268 L23.5701,44.0268 C26.1931,44.0268 28.8011,43.6708 31.3191,42.9978 C31.3941,42.9848 31.4661,42.9658 31.5361,42.9368 C33.6621,42.3528 35.7231,41.5478 37.6651,40.5088 C38.1511,40.2478 38.3351,39.6428 38.0751,39.1548 Z" id="Fill-13" fill="#4F5661" mask="url(#mask-2)"></path>
            </g>
            <path d="M49.3049,58.9727 C57.4089,56.5027 59.2789,51.1817 59.2789,51.1817 L59.2789,39.1957 L49.3049,34.9997 L39.3309,39.1957 L39.3309,51.1817 C39.3309,51.1817 41.2009,57.0837 49.3049,58.9727" id="Fill-16" fill="#53C27C"></path>
            <path d="M56.1716,43.4971 L54.7726,42.1411 C54.5756,41.9511 54.2596,41.9531 54.0676,42.1501 L47.9416,48.4151 L45.0866,45.7261 C44.9886,45.6351 44.8646,45.5831 44.7226,45.5911 C44.5886,45.5971 44.4616,45.6561 44.3716,45.7571 L43.0686,47.2061 C42.8866,47.4081 42.9006,47.7201 43.0996,47.9051 L47.1656,51.6961 C47.1826,51.7121 47.1996,51.7261 47.2186,51.7391 L47.6856,52.1921 C47.7826,52.2861 47.9076,52.3331 48.0336,52.3331 C48.1636,52.3331 48.2936,52.2821 48.3916,52.1831 L56.1816,44.2061 C56.2746,44.1101 56.3256,43.9821 56.3236,43.8501 C56.3216,43.7171 56.2666,43.5901 56.1716,43.4971" id="Fill-18" fill="#FFFFFF"></path>
        </g>
    </g>
</svg>