<?xml version="1.0" encoding="UTF-8"?>
<svg width="59px" height="57px" viewBox="0 0 59 57" version="1.1" xmlns="http://www.w3.org/2000/svg" xmlns:xlink="http://www.w3.org/1999/xlink">
    <!-- Generator: Sketch 49.3 (51167) - http://www.bohemiancoding.com/sketch -->
    <title>Icon/ Tax Bracket Calculator</title>
    <desc>Created with Sketch.</desc>
    <defs>
        <polygon id="path-1" points="0 57 59 57 59 0 0 0"></polygon>
    </defs>
    <g id="Icon/-Tax-Bracket-Calculator" stroke="none" stroke-width="1" fill="none" fill-rule="evenodd">
        <g id="Page-1">
            <path d="M31,26.5 C30.173,26.5 29.5,27.173 29.5,28 C29.5,28.827 30.173,29.5 31,29.5 C31.827,29.5 32.5,28.827 32.5,28 C32.5,27.173 31.827,26.5 31,26.5 Z M31,31.5 C29.07,31.5 27.5,29.93 27.5,28 C27.5,26.07 29.07,24.5 31,24.5 C32.93,24.5 34.5,26.07 34.5,28 C34.5,29.93 32.93,31.5 31,31.5 Z" id="Fill-1" fill="#4F5661"></path>
            <mask id="mask-2" fill="white">
                <use xlink:href="#path-1"></use>
            </mask>
            <g id="Clip-4"></g>
            <polygon id="Fill-3" fill="#D3E5EF" mask="url(#mask-2)" points="1 10 48 10 48 1 1 1"></polygon>
            <path d="M46.5,32 C44.3,32 42.146,32.584 40.238,33.692 L35.316,32.052 C34.964,31.931 34.571,32.022 34.304,32.282 C34.036,32.542 33.935,32.93 34.042,33.287 L35.586,38.431 C34.547,40.292 34,42.38 34,44.5 C34,51.393 39.607,57 46.5,57 C53.393,57 59,51.393 59,44.5 C59,37.607 53.393,32 46.5,32" id="Fill-5" fill="#53C27C" mask="url(#mask-2)"></path>
            <polygon id="Fill-6" fill="#FFFFFF" mask="url(#mask-2)" points="41.707 50.707 40.293 49.293 51.293 38.293 52.707 39.707"></polygon>
            <path d="M43,40.999 L43,41 L43,40.999 Z M43,43 C41.897,43 41,42.103 41,41 C41,39.897 41.897,39 43,39 C44.103,39 45,39.897 45,41 C45,42.103 44.103,43 43,43 Z" id="Fill-7" fill="#FFFFFF" mask="url(#mask-2)"></path>
            <path d="M50,47.999 L50,48 L50,47.999 Z M50,50 C48.897,50 48,49.103 48,48 C48,46.897 48.897,46 50,46 C51.103,46 52,46.897 52,48 C52,49.103 51.103,50 50,50 Z" id="Fill-8" fill="#FFFFFF" mask="url(#mask-2)"></path>
            <path d="M14,45 L24,45 L24,35 L14,35 L14,45 Z M14,33 L24,33 L24,23 L14,23 L14,33 Z M14,21 L24,21 L24,11 L14,11 L14,21 Z M26,21 L36,21 L36,11 L26,11 L26,21 Z M49,0 L1,0 C0.447,0 0,0.447 0,1 L0,44 C0,45.654 1.346,47 3,47 L32,47 C32.553,47 33,46.553 33,46 C33,45.447 32.553,45 32,45 L26,45 L26,35 L32,35 C32.553,35 33,34.553 33,34 C33,33.447 32.553,33 32,33 L26,33 L26,23 L36,23 L36,30 C36,30.553 36.447,31 37,31 C37.553,31 38,30.553 38,30 L38,23 L46,23 C46.553,23 47,22.553 47,22 C47,21.447 46.553,21 46,21 L38,21 L38,11 L46,11 C46.553,11 47,10.553 47,10 C47,9.447 46.553,9 46,9 L4,9 C3.447,9 3,9.447 3,10 C3,10.553 3.447,11 4,11 L12,11 L12,21 L4,21 C3.447,21 3,21.447 3,22 C3,22.553 3.447,23 4,23 L12,23 L12,33 L4,33 C3.447,33 3,33.447 3,34 C3,34.553 3.447,35 4,35 L12,35 L12,45 L3,45 C2.448,45 2,44.552 2,44 L2,2 L48,2 L48,30.083 C48,30.636 48.447,31.083 49,31.083 C49.553,31.083 50,30.636 50,30.083 L50,1 C50,0.447 49.553,0 49,0 Z" id="Fill-9" fill="#4F5661" mask="url(#mask-2)"></path>
        </g>
    </g>
</svg>