<?xml version="1.0" encoding="UTF-8"?>
<svg width="58px" height="59px" viewBox="0 0 58 59" version="1.1" xmlns="http://www.w3.org/2000/svg" xmlns:xlink="http://www.w3.org/1999/xlink">
    <!-- Generator: Sketch 49.3 (51167) - http://www.bohemiancoding.com/sketch -->
    <title>Icon/ Taxes</title>
    <desc>Created with Sketch.</desc>
    <defs></defs>
    <g id="Icon/-Taxes" stroke="none" stroke-width="1" fill="none" fill-rule="evenodd">
        <g id="Taxes" transform="translate(-1.000000, 0.000000)">
            <path d="M44.4967,26.7038 L30.2977,31.8658 C29.5127,32.1508 28.7067,31.4958 28.7067,30.5728 L28.7067,14.2968 C28.7067,13.5108 29.3037,12.8818 30.0057,12.9358 C36.8927,13.4738 42.6987,18.2498 45.2457,24.8838 C45.5257,25.6148 45.1727,26.4578 44.4967,26.7038" id="Fill-1" fill="#D3E5EF"></path>
            <path d="M46.0035,35.9328 C46.0035,34.6069204 45.8829232,33.2959172 45.645639,32.0201481 C45.5717785,31.6263571 45.1384988,31.3768285 44.7333906,31.5082457 L26.0173906,37.6302457 C25.3709023,37.8417119 24.7065,37.3599949 24.7065,36.6798 L24.7065,14.6018 C24.7065,14.2325847 24.4067153,13.9328 24.0365,13.9328 C11.3292645,13.9328 1.25702052,24.6090244 2.04355326,37.3354326 C2.72810127,48.2901129 11.6458813,57.2081824 22.5991252,57.8927006 C33.2010937,58.5472937 42.6231311,51.6176154 45.2775325,41.5559003 C45.7569601,39.7371811 46.0035,37.8462392 46.0035,35.9328 Z M26.7065,35.3005625 L44.1139234,29.6066005 C45.6568872,29.106051 47.3128091,30.0597073 47.6116393,31.652942 C47.8716636,33.050967 48.0035,34.4843934 48.0035,35.9328 C48.0035,38.0188315 47.7346229,40.0810982 47.2114187,42.0658848 C44.315369,53.0435866 34.0374549,60.6027413 22.4751271,59.8888529 C10.5147961,59.1413975 0.794878573,49.4211645 0.0474043651,37.4594855 C-0.810399602,23.579885 10.177781,11.9328 24.0025,11.9328 C25.5112847,11.9328 26.7065,13.1280153 26.7065,14.6018 L26.7065,35.3005625 Z" id="Stroke-3" fill="#4B5E69" fill-rule="nonzero"></path>
            <path d="M57.3355,19.5207 L34.3065,26.8367 C33.0325,27.2417 31.7275,26.3137 31.7275,25.0047 L31.7275,1.9337 C31.7275,0.8187 32.6945,-0.0733 33.8325,0.0047 C45.0025,0.7657 54.4195,7.5367 58.5495,16.9407 C59.0045,17.9767 58.4325,19.1727 57.3355,19.5207" id="Fill-5" fill="#5BBF89"></path>
            <path d="M45.7564,15.2956 C45.7564,13.4146 43.7824,12.5686 42.0744,11.9996 C40.6474,11.5186 39.9954,11.0516 39.9954,10.3666 C39.9954,9.8996 40.5414,9.3456 41.5454,9.3456 C42.5144,9.3456 43.8544,10.0746 43.9944,10.1476 C44.2064,10.2646 44.4704,10.1476 44.6104,9.9726 L45.2804,9.1416 C45.4034,8.9956 45.3514,8.7476 45.1744,8.6596 C44.8874,8.4816 43.9084,7.9466 42.5814,7.7566 L42.5814,6.3706 C42.5814,6.1286 42.3854,5.9326 42.1444,5.9326 L41.2694,5.9326 C41.0274,5.9326 40.8314,6.1286 40.8314,6.3706 L40.8314,7.7396 C38.6284,8.0046 37.6884,9.3216 37.6884,10.4826 C37.6884,12.2036 39.3434,13.0786 40.9994,13.6326 C42.4804,14.1286 43.2364,14.6396 43.2364,15.3826 C43.2364,16.0096 42.5504,16.5056 41.6344,16.5056 C40.4884,16.5056 39.0624,15.6456 38.9734,15.6016 C38.8154,15.4996 38.5154,15.4996 38.3744,15.7036 L37.7404,16.6076 C37.5814,16.8406 37.6704,16.9146 37.8284,17.0456 C38.1314,17.2836 39.1434,17.9506 40.8314,18.1336 L40.8314,19.4956 C40.8314,19.7366 41.0274,19.9326 41.2694,19.9326 L42.1444,19.9326 C42.3854,19.9326 42.5814,19.7366 42.5814,19.4956 L42.5814,18.1206 C44.5514,17.8376 45.7564,16.6116 45.7564,15.2956" id="Fill-7" fill="#FFFFFF"></path>
        </g>
    </g>
</svg>