<?xml version="1.0" encoding="UTF-8"?>
<svg width="48px" height="58px" viewBox="0 0 48 58" version="1.1" xmlns="http://www.w3.org/2000/svg" xmlns:xlink="http://www.w3.org/1999/xlink">
    <!-- Generator: Sketch 49.3 (51167) - http://www.bohemiancoding.com/sketch -->
    <title>Icon/ Tax summary</title>
    <desc>Created with Sketch.</desc>
    <defs></defs>
    <g id="Icon/-Tax-summary" stroke="none" stroke-width="1" fill="none" fill-rule="evenodd">
        <g id="Tax-summary" transform="translate(-1.000000, -1.000000)">
            <polygon id="Fill-1" fill="#D3E5EF" points="7 42 43 42 43 28 7 28"></polygon>
            <g id="Group-24">
                <path d="M18.3799,22 L14.0199,22 C13.3899,21.251 12.9999,20.333 12.9999,19.325 C12.9999,17.229 14.6199,15.473 16.7999,15 L18.3799,22 Z" id="Fill-2" fill="#5BBF89"></path>
                <path d="M11.1523241,20.1752243 C11.1574793,20.1803523 11.1343446,20.1127844 11.1135906,20.0609315 C11.1099333,20.0495852 11.1210292,20.0814114 11.1300425,20.1174644 C10.9924528,19.6784812 10.8921135,19.384266 10.6641002,18.7306278 C10.639089,18.6635573 10.639089,18.6635573 10.6229547,18.6208934 C10.4261694,18.1005319 10.3362642,17.8674085 10.2157655,17.5721468 C10.1981758,17.522756 10.1719002,17.456615 10.1212362,17.3323814 C10.0737453,17.2159473 10.0556819,17.1707505 10.0362292,17.1188766 C9.88985333,16.7746334 9.78269812,16.5365107 9.53937448,16.0042402 C9.50932719,15.9427864 9.50932719,15.9427864 9.49432719,15.9127864 L9.46432719,15.8527864 C9.28849478,15.4723101 9.08423009,15.0612274 8.8552979,14.6251661 C8.81085824,14.5234989 8.74475783,14.3944458 8.66739293,14.2655042 C8.55077144,14.0357077 8.38833527,13.7391973 8.20814314,13.4238611 C8.01901996,13.0938459 7.87875692,12.8551003 7.73155832,12.6159026 C7.63555944,12.4468396 7.54368731,12.300925 7.33834362,11.9850116 C7.20861392,11.7675392 7.13767259,11.6544166 7.03363347,11.5087618 C6.85469641,11.2293478 6.64900718,10.9208139 6.44311279,10.622267 C6.39051558,10.5478882 6.34021842,10.4769697 6.2918443,10.409009 L16.4060385,5.91381155 L15.5937615,4.08618845 L4.34376153,9.08618845 C3.75209071,9.34915326 3.56250307,10.0965059 3.95727601,10.6097108 C4.21160788,10.9403422 4.45404373,11.273428 4.80348436,11.7674647 C4.99079282,12.0391861 5.18510359,12.3306522 5.37960335,12.6321269 C5.46879408,12.7589168 5.52118608,12.8424608 5.64240707,13.0444958 C5.84611269,13.359075 5.92424056,13.4831604 6.01165686,13.6361389 C6.16242239,13.8821411 6.29324671,14.1048208 6.47227359,14.4172167 C6.63883315,14.7086975 6.78814621,14.981253 6.92168236,15.2394229 C6.98670883,15.3516654 7.01932638,15.4153472 7.05953352,15.5038029 C7.29877433,15.9629715 7.48849979,16.344794 7.66258939,16.720461 C7.69047281,16.7772136 7.69047281,16.7772136 7.70547281,16.8072136 L7.73547281,16.8672136 C7.95710188,17.3534893 8.05994667,17.5820333 8.18075497,17.8639193 C8.19194417,17.8967857 8.21465777,17.953618 8.26507985,18.0772377 C8.31169144,18.1915332 8.33191872,18.2424495 8.35165704,18.2959771 C8.47584346,18.6018222 8.56155962,18.8240835 8.75225354,19.3283374 C8.76840923,19.371058 8.76840923,19.371058 8.78461374,19.4138921 C8.99768652,20.025734 9.09401388,20.3081854 9.20697422,20.6632037 C9.20674177,20.6704727 9.22673054,20.7278061 9.24496931,20.7738511 C9.24810189,20.7846069 9.23449466,20.7448651 9.22429024,20.6995122 C9.37513836,21.1837211 9.46927197,21.5131887 9.67557385,22.264717 C9.79478521,22.6989869 10.1895649,23 10.6399,23 L18.3799,23 L18.3799,21 L11.3999853,21 C11.3084867,20.6773505 11.2379589,20.4428327 11.1523241,20.1752243 Z" id="Stroke-4" fill="#4B5E69" fill-rule="nonzero"></path>
                <path d="M37,19.3213 C37,20.3303 36.61,21.2503 35.98,22.0003 L31.62,22.0003 L33.27,15.0003 C35.42,15.5003 37,17.2503 37,19.3213" id="Fill-6" fill="#5BBF89"></path>
                <path d="M39.0128007,21 L31.6201,21 L31.6201,23 L39.7901,23 C40.2517531,23 40.6534061,22.6839781 40.7620263,22.2352853 C41.7903768,17.9873328 43.6757094,14.0372293 46.2949075,10.6068616 C46.6889631,10.0907664 46.4943104,9.34183617 45.8988261,9.08292994 L34.3988261,4.08292994 L33.6013739,5.91707006 L43.9534964,10.4179929 C41.7050494,13.6098803 40.0312014,17.1860719 39.0128007,21 Z" id="Stroke-8" fill="#4B5E69" fill-rule="nonzero"></path>
                <path d="M8,28 L8,57 C8,57.5517153 8.44828475,58 9,58 L41,58 C41.5517153,58 42,57.5517153 42,57 L42,28 L8,28 Z M41,60 L9,60 C7.34371525,60 6,58.6562847 6,57 L6,27 C6,26.4477153 6.44771525,26 7,26 L43,26 C43.5522847,26 44,26.4477153 44,27 L44,57 C44,58.6562847 42.6562847,60 41,60 Z" id="Stroke-10" fill="#4B5E69" fill-rule="nonzero"></path>
                <path d="M46.5254,26 C47.3395231,26 48.0004,25.3393075 48.0004,24.525 L48.0004,24.475 C48.0004,23.6606925 47.3395231,23 46.5254,23 L3.4744,23 C2.66059263,23 2.0004,23.6603769 2.0004,24.475 L2.0004,24.525 C2.0004,25.3396231 2.66059263,26 3.4744,26 L46.5254,26 Z M46.5254,28 L3.4744,28 C1.55589814,28 0.000400000001,26.4440676 0.000400000001,24.525 L0.000400000001,24.475 C0.000400000001,22.5559324 1.55589814,21 3.4744,21 L46.5254,21 C48.4439677,21 50.0004,22.5559981 50.0004,24.475 L50.0004,24.525 C50.0004,26.4440019 48.4439677,28 46.5254,28 Z" id="Stroke-12" fill="#4B5E69" fill-rule="nonzero"></path>
                <polygon id="Fill-14" fill="#FFFFFF" points="14 31 15.236 33.633 18 34.056 16 36.105 16.472 39 14 37.633 11.528 39 12 36.105 10 34.056 12.764 33.633"></polygon>
                <polygon id="Fill-16" fill="#FFFFFF" points="25 31 26.236 33.633 29 34.056 27 36.105 27.472 39 25 37.633 22.528 39 23 36.105 21 34.056 23.764 33.633"></polygon>
                <polygon id="Fill-18" fill="#FFFFFF" points="36 31 37.236 33.633 40 34.056 38 36.105 38.472 39 36 37.633 33.528 39 34 36.105 32 34.056 34.764 33.633"></polygon>
                <path d="M33.3140824,22.0288968 C33.2984483,22.5697026 32.8555318,23 32.3145,23 L17.7825,23 C17.2408478,23 16.7976595,22.5687498 16.7828727,22.0272995 C16.5741329,14.3838483 15.6103938,7.11442847 14.1164179,1.24673854 C13.9554553,0.614547213 14.433139,0 15.0855,0 L35.0855,0 C35.737722,0 36.2153807,0.614301825 36.054665,1.24641259 C34.5280764,7.25063623 33.531694,14.5013881 33.3140824,22.0288968 Z M33.8109619,2 L16.3594642,2 C17.655698,7.52092025 18.5052722,14.0963366 18.7515006,21 L31.3472737,21 C31.604363,14.1854947 32.4840456,7.62285486 33.8109619,2 Z" id="Stroke-20" fill="#4B5E69" fill-rule="nonzero"></path>
                <path d="M25,19 C22.238,19 20,16.985 20,14.5 C20,12.015 22.238,10 25,10 C27.762,10 30,12.015 30,14.5 C30,16.985 27.762,19 25,19" id="Fill-22" fill="#5BBF89"></path>
            </g>
        </g>
    </g>
</svg>