<?xml version="1.0" encoding="UTF-8"?>
<svg width="55px" height="58px" viewBox="0 0 55 58" version="1.1" xmlns="http://www.w3.org/2000/svg" xmlns:xlink="http://www.w3.org/1999/xlink">
    <!-- Generator: Sketch 49.3 (51167) - http://www.bohemiancoding.com/sketch -->
    <title>Icon/ Tax credit</title>
    <desc>Created with Sketch.</desc>
    <defs>
        <polygon id="path-1" points="27.1126677 0.000484154781 27.1126677 24.9973955 0.458397746 24.9973955 0.458397746 0.000484154781 27.1126677 0.000484154781"></polygon>
        <polygon id="path-3" points="-4.65902108e-05 0 8.71495331 0 8.71495331 8.71473581 -4.65902108e-05 8.71473581 -4.65902108e-05 0"></polygon>
    </defs>
    <g id="Icon/-Tax-credit" stroke="none" stroke-width="1" fill="none" fill-rule="evenodd">
        <g id="Tax-credit">
            <path d="M23.7235843,11.6197147 C11.176229,11.6197147 0.968309561,21.8276341 0.968309561,34.3749894 C0.968309561,46.9223447 11.176229,57.1302641 23.7235843,57.1302641 C26.409675,57.1302641 29.0396037,56.6664438 31.5407473,55.7542962 C32.0433,55.5712857 32.3018387,55.0145077 32.1188282,54.5129234 C31.933881,54.0084341 31.377103,53.7528004 30.8774553,53.9348426 C28.5893398,54.7704937 26.1830905,55.193645 23.7235843,55.193645 C12.2442744,55.193645 2.90492868,45.8542993 2.90492868,34.3749894 C2.90492868,22.8956796 12.2442744,13.5563339 23.7235843,13.5563339 C35.2028941,13.5563339 44.5422398,22.8956796 44.5422398,34.3749894 C44.5422398,35.6173306 44.4366941,36.8257809 44.2294758,37.9674179 C44.1326449,38.4941783 44.4812363,38.9976993 45.0070284,39.0935619 C45.5425036,39.1962027 46.0382781,38.8408331 46.1341407,38.315041 C46.3626618,37.0591435 46.4788589,35.7335277 46.4788589,34.3749894 C46.4788589,21.8276341 36.2709396,11.6197147 23.7235843,11.6197147" id="Fill-1" fill="#4F5661"></path>
            <path d="M41.9625663,32.822305 C41.1743623,23.4258291 33.1616007,16.0637715 23.7234874,16.0637715 C13.6269236,16.0637715 5.41275362,24.2789098 5.41275362,34.3754736 C5.41275362,44.4710691 13.6269236,52.6862074 23.7234874,52.6862074 C24.882554,52.6862074 26.0174128,52.578725 27.0951413,52.3676335 C27.6199651,52.2640244 27.9627467,51.7556619 27.8601059,51.2308381 C27.7564967,50.705046 27.2432927,50.3593595 26.7233104,50.4668419 C25.7666206,50.6537256 24.757642,50.7495883 23.7234874,50.7495883 C14.6949691,50.7495883 7.34937274,43.4039919 7.34937274,34.3754736 C7.34937274,25.3459869 14.6949691,18.0003906 23.7234874,18.0003906 C32.1632736,18.0003906 39.3268277,24.5819907 40.034662,33.000474 C40.0762993,33.4216887 40.0976021,33.8845406 40.0976021,34.3754736 C40.0976021,35.7223922 39.9349261,37.0460714 39.6144156,38.3097153 C39.4817572,38.8277609 39.7964578,39.3545213 40.3145034,39.4862115 C40.8257709,39.6198382 41.3593095,39.3051376 41.4909996,38.7861236 C41.852179,37.3675501 42.0342212,35.8831316 42.0342212,34.3754736 C42.0342212,33.8196639 42.0100135,33.2929035 41.9625663,32.822305" id="Fill-3" fill="#4F5661"></path>
            <path d="M29.4701142,37.3574797 C29.4701142,34.4864419 26.6697629,33.1956852 24.2451158,32.3280798 C22.2203805,31.5941012 21.2956449,30.8823937 21.2956449,29.835651 C21.2956449,29.1239435 22.0702925,28.277641 23.4946759,28.277641 C24.8696755,28.277641 26.7704671,29.3902286 26.9699389,29.5015842 C27.2710832,29.6797532 27.6448507,29.5015842 27.8452907,29.2343308 L28.7961707,27.9668136 C28.9694981,27.7441024 28.9036531,27.3654933 28.6538292,27.2318666 C28.2500441,26.9626766 26.8179143,26.1628529 25.049781,25.8636452 L25.049781,23.7023783 C25.049781,23.4467446 24.8348163,23.2395263 24.5908023,23.2395263 L22.822669,23.2395263 C22.578655,23.2395263 22.3975811,23.4467446 22.3975811,23.7023783 L22.3975811,25.8297544 C19.7453813,26.2625888 18.0295367,28.2592431 18.0295367,30.01382 C18.0295367,32.6398755 20.3747825,33.9751744 22.7248698,34.8205087 C24.8251332,35.5767584 25.8980202,36.3562476 25.8980202,37.4911064 C25.8980202,38.4477963 24.9219642,39.204046 23.6215244,39.204046 C21.996701,39.204046 19.9709974,37.8919866 19.8460854,37.8242049 C19.6214376,37.6692754 19.1963497,37.6692754 18.9959097,37.9810711 L18.0953818,39.3599439 C17.8707339,39.7172501 17.9946776,39.8276374 18.2202937,40.0280775 C18.6453816,40.3873203 20.054272,41.3817742 22.3975811,41.675172 L22.3975811,44.0785164 C22.3975811,44.3351184 22.5951163,44.5423367 22.8391303,44.5423367 L24.6082319,44.5423367 C24.8512776,44.5423367 25.049781,44.3351184 25.049781,44.0785164 L25.049781,41.6538692 C27.7949386,41.1977954 29.4701142,39.3463875 29.4701142,37.3574797" id="Fill-5" fill="#53C27C"></path>
            <g id="Group-9" transform="translate(27.112668, 30.985906)">
                <mask id="mask-2" fill="white">
                    <use xlink:href="#path-1"></use>
                </mask>
                <g id="Clip-8"></g>
                <path d="M26.815784,0.786751519 C26.7286361,0.329709406 26.3287243,0.000484154781 25.864904,0.000484154781 L25.8629674,0.000484154781 C25.3972105,0.000484154781 24.998267,0.332614334 24.9120874,0.790624757 C23.6687779,7.45453116 18.1097127,12.374512 11.5019683,12.8160612 L11.5019683,9.53349179 C11.5019683,9.16166092 11.2889402,8.82275257 10.9539051,8.66201318 C10.61887,8.49933718 10.2208947,8.54581603 9.93040188,8.77627371 L0.823450451,16.0240708 C0.592992775,16.2080496 0.458397746,16.4869227 0.458397746,16.7822572 C0.458397746,17.0766233 0.592992775,17.3554964 0.823450451,17.5394752 L9.93040188,24.786304 C10.1046976,24.9257406 10.318694,24.9973955 10.5336587,24.9973955 C10.6760002,24.9973955 10.8193101,24.9664096 10.9539051,24.9005645 C11.2889402,24.7398251 11.5019683,24.4009168 11.5019683,24.0290859 L11.5019683,20.6864813 C20.1944832,20.1771505 27.113055,12.8586668 27.113055,3.93375759 C27.113055,2.87733186 27.0123508,1.8180012 26.815784,0.786751519" id="Fill-7" fill="#53C27C" mask="url(#mask-2)"></path>
            </g>
            <path d="M5.61416201,4.40658315 L6.44013006,6.63756838 C6.52340468,6.85737465 6.69866871,7.03263868 6.91944329,7.11688161 L9.14946021,7.94188136 C9.57648473,8.10358906 9.79048114,8.58193398 9.62877345,9.00799019 C9.54549883,9.22876477 9.3712031,9.40306049 9.14946021,9.48730342 L6.91944329,10.3132715 C6.69866871,10.3975144 6.52340468,10.5718101 6.44013006,10.7925847 L5.61416201,13.0226016 C5.45245431,13.4496261 4.9750777,13.6645909 4.54805318,13.5028832 C4.3272786,13.4186402 4.15298288,13.2443445 4.06873995,13.0226016 L3.2437402,10.7925847 C3.15949727,10.5718101 2.98423324,10.3975144 2.76442697,10.3132715 L0.533441737,9.48730342 C0.10738553,9.32559572 -0.107579192,8.84821911 0.0541285045,8.42119459 C0.138371436,8.20042001 0.311698848,8.02612429 0.533441737,7.94188136 L2.76442697,7.11688161 C2.98423324,7.03263868 3.15949727,6.85737465 3.2437402,6.63756838 L4.06873995,4.40658315 C4.23044764,3.98052695 4.70782426,3.76556222 5.13484877,3.92726992 C5.35562335,4.01151285 5.52991907,4.18484026 5.61416201,4.40658315" id="Fill-10" fill="#D3E5EF"></path>
            <path d="M48.3738408,9.3549355 L49.3653898,12.0313431 C49.4660939,12.29666 49.6752488,12.5058148 49.9405656,12.6055507 L52.6169733,13.598068 C53.129209,13.7917299 53.3867794,14.3640009 53.1931174,14.8762366 C53.0914449,15.1415534 52.8822901,15.3507083 52.6169733,15.4514125 L49.9405656,16.4429615 C49.6752488,16.5436657 49.4660939,16.7528206 49.3653898,17.0181374 L48.3738408,19.694545 C48.1801788,20.2067808 47.6079079,20.4643511 47.0956721,20.2697209 C46.8303553,20.1690167 46.6202321,19.9598618 46.5204963,19.694545 L45.5289473,17.0181374 C45.4282431,16.7528206 45.2190882,16.5436657 44.9537714,16.4429615 L42.2773638,15.4514125 C41.765128,15.2577506 41.5075577,14.6854796 41.7012196,14.1732439 C41.8028921,13.9079271 42.0120469,13.6978039 42.2773638,13.598068 L44.9537714,12.6055507 C45.2190882,12.5058148 45.4282431,12.29666 45.5289473,12.0313431 L46.5204963,9.3549355 C46.7141582,8.84269975 47.2864291,8.5851294 47.7986649,8.77879131 C48.0639817,8.88046382 48.2731366,9.08961868 48.3738408,9.3549355" id="Fill-12" fill="#D3E5EF"></path>
            <g id="Group-16" transform="translate(24.207739, 0.000000)">
                <mask id="mask-4" fill="white">
                    <use xlink:href="#path-3"></use>
                </mask>
                <g id="Clip-15"></g>
                <path d="M5.05244563,0.480378373 L5.79610737,2.48768409 C5.87163552,2.68618755 6.02850167,2.8430537 6.22700513,2.91955016 L8.23431085,3.66224359 C8.61872974,3.80845834 8.81239166,4.23741947 8.66617691,4.62087006 C8.59064877,4.81937352 8.43378262,4.97720798 8.23431085,5.05273612 L6.22700513,5.79542956 C6.02850167,5.8709577 5.87163552,6.02782385 5.79610737,6.22729562 L5.05244563,8.23460134 C4.9071992,8.61805193 4.47726975,8.81171384 4.09381916,8.66646741 C3.8953157,8.59093926 3.73844955,8.43407311 3.6619531,8.23460134 L2.91925967,6.22729562 C2.84373152,6.02782385 2.68686537,5.8709577 2.48836191,5.79542956 L0.480087881,5.05273612 C0.0966372942,4.90652138 -0.0970246181,4.47756024 0.0482218162,4.09314135 C0.123749962,3.89463789 0.280616111,3.73777174 0.480087881,3.66224359 L2.48836191,2.91955016 C2.68686537,2.8430537 2.84373152,2.68618755 2.91925967,2.48768409 L3.6619531,0.480378373 C3.80816784,0.0969277871 4.23712898,-0.0977024347 4.62154787,0.048512309 C4.82005133,0.124040455 4.97691748,0.280906604 5.05244563,0.480378373" id="Fill-14" fill="#D3E5EF" mask="url(#mask-4)"></path>
            </g>
        </g>
    </g>
</svg>