<?xml version="1.0" encoding="UTF-8"?>
<svg width="56px" height="61px" viewBox="0 0 56 61" version="1.1" xmlns="http://www.w3.org/2000/svg" xmlns:xlink="http://www.w3.org/1999/xlink">
    <!-- Generator: Sketch 49.3 (51167) - http://www.bohemiancoding.com/sketch -->
    <title>Icon/ Tax return access</title>
    <desc>Created with Sketch.</desc>
    <defs>
        <polygon id="path-1" points="1.1798 1 0.1798 1 0.1798 0.99 1.1798 0.99 1.1798 1"></polygon>
        <polygon id="path-3" points="55.843 27.9996 55.843 0.862349619 0.0005 0.862349619 0.0005 27.9996"></polygon>
    </defs>
    <g id="Icon/-Tax-return-access" stroke="none" stroke-width="1" fill="none" fill-rule="evenodd">
        <g id="Tax-return-access">
            <path d="M52.0098,26 L17.0098,26 L17.0098,19 C17.0098,18.447 16.5628,18 16.0098,18 L8.0098,18 L8.0098,2 L52.0098,2 L52.0098,26 Z M9.4238,20 L15.0098,20 L15.0098,25.586 L9.4238,20 Z M53.0098,0 L7.0098,0 C6.4568,0 6.0098,0.447 6.0098,1 L6.0098,19 C6.0098,19.266 6.1148,19.52 6.3028,19.707 L14.3028,27.707 C14.4898,27.895 14.7438,28 15.0098,28 L17.0098,28 L53.0098,28 C53.5628,28 54.0098,27.553 54.0098,27 L54.0098,1 C54.0098,0.447 53.5628,0 53.0098,0 Z" id="Fill-1" fill="#4F5661"></path>
            <g id="Group-5" transform="translate(28.000000, 59.000000)">
                <mask id="mask-2" fill="white">
                    <use xlink:href="#path-1"></use>
                </mask>
                <g id="Clip-4"></g>
                <path d="M0.8398,1 L0.1798,1 C0.2898,1 0.3998,1 0.5098,0.99 C0.6198,1 0.7298,1 0.8398,1" id="Fill-3" fill="#4F5661" mask="url(#mask-2)"></path>
            </g>
            <path d="M10,39.5967 L10,53.5617 C10,54.3977 9.371,55.1267 8.478,55.3267 L1,56.9997 L1,36.9997 L8.238,37.7907 C9.243,37.9017 10,38.6757 10,39.5967" id="Fill-6" fill="#D3E5EF"></path>
            <g id="Group-10" transform="translate(0.000000, 30.000000)">
                <mask id="mask-4" fill="white">
                    <use xlink:href="#path-3"></use>
                </mask>
                <g id="Clip-9"></g>
                <path d="M36.1895,22.1396 C36.0725,22.2156 35.9215,22.2876 35.7565,22.3586 C35.9115,21.9316 36.0095,21.4786 36.0095,20.9996 C36.0095,18.7936 34.2155,16.9996 32.0095,16.9996 L23.0095,16.9996 C22.4575,16.9996 22.0095,17.4476 22.0095,17.9996 C22.0095,18.5526 22.4575,18.9996 23.0095,18.9996 L32.0095,18.9996 C33.1125,18.9996 34.0095,19.8976 34.0095,20.9996 C34.0095,22.1026 33.1125,22.9996 32.0095,22.9996 L20.0585,22.9996 L17.0145,22.9946 C13.3425,22.9946 11.5245,20.5736 11.0005,19.7266 L11.0005,12.9996 C11.0005,11.3456 12.3455,9.9996 14.0005,9.9996 L28.6665,9.9996 C29.6585,9.9996 30.6275,9.7166 31.4185,9.2116 L42.1065,3.2766 C43.3675,2.5906 44.8595,2.7536 45.9565,3.6456 L33.4945,11.1436 C33.0215,11.4276 32.8685,12.0416 33.1535,12.5156 C33.3405,12.8266 33.6715,12.9996 34.0105,12.9996 C34.1865,12.9996 34.3645,12.9536 34.5255,12.8566 L47.4185,5.1006 L47.5355,5.0286 C49.1445,4.1656 51.1345,4.5796 52.2165,5.9516 L52.6095,6.5456 L51.3405,7.3346 C50.1645,7.1506 48.9275,7.3176 47.8125,7.9086 C47.7825,7.9246 47.7525,7.9436 47.7225,7.9616 L37.0105,15.1696 C36.5525,15.4786 36.4315,16.0996 36.7395,16.5586 C37.0475,17.0166 37.6685,17.1366 38.1275,16.8296 L48.7935,9.6526 C50.3375,8.8606 52.2395,9.2636 53.3175,10.6096 L53.3985,10.7156 L36.1895,22.1396 Z M9.0005,23.5616 C9.0005,23.9286 8.6955,24.2536 8.2585,24.3516 L2.0005,25.7516 L2.0005,8.1156 L8.1285,8.7856 C8.6265,8.8396 9.0005,9.1886 9.0005,9.5966 L9.0005,23.5616 Z M55.6365,10.3506 L54.8925,9.3766 C54.5335,8.9276 54.1085,8.5626 53.6525,8.2516 L54.5385,7.7016 C54.7675,7.5596 54.9285,7.3296 54.9865,7.0666 C55.0435,6.8026 54.9935,6.5276 54.8445,6.3016 L53.8375,4.7826 C52.4045,2.9576 50.0685,2.2286 47.8805,2.7896 C47.8375,2.7076 47.7975,2.6236 47.7305,2.5536 C46.0135,0.7716 43.3105,0.3466 41.1435,1.5236 L30.3975,7.4936 C29.8765,7.8256 29.2775,7.9996 28.6665,7.9996 L14.0005,7.9996 C12.8455,7.9996 11.7945,8.4096 10.9475,9.0696 C10.7075,7.8806 9.6685,6.9426 8.3465,6.7966 L1.1085,6.0056 C0.8235,5.9726 0.5435,6.0646 0.3325,6.2556 C0.1215,6.4456 0.0005,6.7156 0.0005,6.9996 L0.0005,26.9996 C0.0005,27.3036 0.1375,27.5906 0.3755,27.7806 C0.5535,27.9236 0.7745,27.9996 1.0005,27.9996 C1.0735,27.9996 1.1455,27.9926 1.2185,27.9756 L8.6965,26.3026 C10.0525,25.9986 11.0005,24.8716 11.0005,23.5616 L11.0005,22.7636 C12.2775,23.8926 14.2325,24.9946 17.0125,24.9946 L20.0095,24.9996 L20.0565,24.9996 L32.2325,25.0196 C33.5635,25.0196 36.0095,24.6456 37.2895,23.8096 L55.3955,11.7906 C55.6265,11.6376 55.7835,11.3966 55.8295,11.1226 C55.8755,10.8496 55.8055,10.5706 55.6365,10.3506 Z" id="Fill-8" fill="#4F5661" mask="url(#mask-4)"></path>
            </g>
            <path d="M47.0098,16.6387 C47.0098,14.4637 44.7288,13.4857 42.7528,12.8277 C41.1028,12.2717 40.3498,11.7327 40.3498,10.9407 C40.3498,10.4007 40.9808,9.7597 42.1418,9.7597 C43.2618,9.7597 44.8108,10.6027 44.9728,10.6867 C45.2178,10.8227 45.5228,10.6867 45.6858,10.4847 L46.4598,9.5237 C46.6018,9.3557 46.5408,9.0687 46.3378,8.9677 C46.0048,8.7607 44.8738,8.1437 43.3398,7.9227 L43.3398,6.3207 C43.3398,6.0407 43.1138,5.8147 42.8338,5.8147 L41.8228,5.8147 C41.5428,5.8147 41.3168,6.0407 41.3168,6.3207 L41.3168,7.9037 C38.7698,8.2097 37.6818,9.7327 37.6818,11.0757 C37.6818,13.0647 39.5958,14.0757 41.5108,14.7167 C43.2218,15.2897 44.0968,15.8797 44.0968,16.7397 C44.0968,17.4647 43.3028,18.0377 42.2438,18.0377 C40.9198,18.0377 39.2708,17.0427 39.1678,16.9927 C38.9858,16.8747 38.6388,16.8747 38.4758,17.1107 L37.7418,18.1567 C37.5598,18.4257 37.6608,18.5097 37.8448,18.6617 C38.1958,18.9377 39.3638,19.7077 41.3168,19.9197 L41.3168,21.4937 C41.3168,21.7737 41.5428,21.9997 41.8228,21.9997 L42.8338,21.9997 C43.1138,21.9997 43.3398,21.7737 43.3398,21.4937 L43.3398,19.9057 C45.6168,19.5777 47.0098,18.1607 47.0098,16.6387" id="Fill-11" fill="#53C27C"></path>
            <path d="M28.0098,10 L13.0098,10 C12.4568,10 12.0098,9.553 12.0098,9 C12.0098,8.447 12.4568,8 13.0098,8 L28.0098,8 C28.5628,8 29.0098,8.447 29.0098,9 C29.0098,9.553 28.5628,10 28.0098,10" id="Fill-13" fill="#4F5661"></path>
            <path d="M28.0098,20 L21.0098,20 C20.4568,20 20.0098,19.553 20.0098,19 C20.0098,18.447 20.4568,18 21.0098,18 L28.0098,18 C28.5628,18 29.0098,18.447 29.0098,19 C29.0098,19.553 28.5628,20 28.0098,20" id="Fill-15" fill="#4F5661"></path>
            <path d="M30.0098,15 L13.0098,15 C12.4568,15 12.0098,14.553 12.0098,14 C12.0098,13.447 12.4568,13 13.0098,13 L30.0098,13 C30.5628,13 31.0098,13.447 31.0098,14 C31.0098,14.553 30.5628,15 30.0098,15" id="Fill-17" fill="#4F5661"></path>
        </g>
    </g>
</svg>