<?xml version="1.0" encoding="UTF-8"?>
<svg width="60px" height="35px" viewBox="0 0 60 35" version="1.1" xmlns="http://www.w3.org/2000/svg" xmlns:xlink="http://www.w3.org/1999/xlink">
    <!-- Generator: Sketch 49.3 (51167) - http://www.bohemiancoding.com/sketch -->
    <title>Icon/ Tax Caster</title>
    <desc>Created with Sketch.</desc>
    <defs></defs>
    <g id="Icon/-Tax-Caster" stroke="none" stroke-width="1" fill="none" fill-rule="evenodd">
        <g id="Page-1">
            <path d="M22.2881,11.5739 C24.0671,10.7799 25.9841,10.2429 28.0001,10.0309 L28.0001,-0.0001 C24.1671,0.2609 20.5381,1.2609 17.2591,2.8679 L22.2881,11.5739 Z" id="Fill-1" fill="#F4877A"></path>
            <path d="M32,-0.0003 L32,10.0307 C34.015,10.2427 35.93,10.7787 37.708,11.5717 L42.735,2.8647 C39.457,1.2607 35.831,0.2617 32,-0.0003" id="Fill-3" fill="#D3E5EF"></path>
            <path d="M12.647,21.2185 L3.939,16.1935 C2.335,19.4715 1.336,23.0985 1.076,26.9285 L11.107,26.9275 C11.318,24.9125 11.855,22.9965 12.647,21.2185" id="Fill-5" fill="#D3E5EF"></path>
            <path d="M47.3511,21.2146 C48.1441,22.9926 48.6811,24.9076 48.8931,26.9226 L58.9231,26.9216 C58.6621,23.0916 57.6631,19.4656 56.0581,16.1876 L47.3511,21.2146 Z" id="Fill-7" fill="#D3E5EF"></path>
            <path d="M41.166,13.5827 C42.766,14.7497 44.173,16.1567 45.34,17.7567 L54.058,12.7237 C51.969,9.6257 49.297,6.9537 46.199,4.8647 L41.166,13.5827 Z" id="Fill-9" fill="#D3E5EF"></path>
            <path d="M14.6572,17.7605 C15.8242,16.1605 17.2312,14.7535 18.8302,13.5855 L13.7952,4.8685 C10.6982,6.9585 8.0272,9.6305 5.9382,12.7285 L14.6572,17.7605 Z" id="Fill-11" fill="#D3E5EF"></path>
            <path d="M32.7827,24.7575 C35.0807,26.2945 35.6977,29.4035 34.1607,31.7005 C32.6237,33.9985 29.5147,34.6155 27.2177,33.0785 C24.9197,31.5415 24.3027,28.4335 25.8397,26.1355 C27.3757,23.8375 30.4847,23.2205 32.7827,24.7575" id="Fill-13" fill="#FFFFFF"></path>
            <path d="M33.3296,31.1452 C32.7346,32.0342 31.8296,32.6382 30.7796,32.8472 C29.7286,33.0532 28.6616,32.8422 27.7736,32.2482 C25.9376,31.0192 25.4426,28.5272 26.6706,26.6912 C27.2656,25.8022 28.1706,25.1982 29.2206,24.9892 C29.4826,24.9372 29.7466,24.9122 30.0086,24.9122 C30.7926,24.9122 31.5596,25.1422 32.2266,25.5882 C34.0626,26.8172 34.5576,29.3092 33.3296,31.1452 M33.3386,23.9262 C32.1426,23.1262 30.7326,22.7912 29.3176,22.9562 L24.9696,5.6792 C24.8346,5.1442 24.2906,4.8202 23.7556,4.9542 C23.2206,5.0882 22.8956,5.6312 23.0306,6.1672 L27.3986,23.5282 C26.4436,23.9872 25.6126,24.6742 25.0086,25.5802 C23.1676,28.3322 23.9096,32.0692 26.6616,33.9102 C27.6616,34.5792 28.8106,34.9252 29.9876,34.9252 C30.3796,34.9252 30.7756,34.8872 31.1686,34.8092 C32.7426,34.4972 34.1006,33.5902 34.9916,32.2562 C36.8326,29.5042 36.0906,25.7672 33.3386,23.9262" id="Fill-15" fill="#4F5661"></path>
            <path d="M21.4702,31.9235 L1.0002,31.9235 C0.4482,31.9235 0.0002,31.4765 0.0002,30.9235 C0.0002,30.3705 0.4482,29.9235 1.0002,29.9235 L21.4702,29.9235 C22.0222,29.9235 22.4702,30.3705 22.4702,30.9235 C22.4702,31.4765 22.0222,31.9235 21.4702,31.9235" id="Fill-17" fill="#4F5661"></path>
            <path d="M59,31.9235 L38.54,31.9235 C37.988,31.9235 37.54,31.4765 37.54,30.9235 C37.54,30.3705 37.988,29.9235 38.54,29.9235 L59,29.9235 C59.552,29.9235 60,30.3705 60,30.9235 C60,31.4765 59.552,31.9235 59,31.9235" id="Fill-19" fill="#4F5661"></path>
        </g>
    </g>
</svg>