<?xml version="1.0" encoding="UTF-8"?>
<svg width="58px" height="52px" viewBox="0 0 58 52" version="1.1" xmlns="http://www.w3.org/2000/svg" xmlns:xlink="http://www.w3.org/1999/xlink">
    <!-- Generator: Sketch 49.3 (51167) - http://www.bohemiancoding.com/sketch -->
    <title>Icon/ Thumbs Up</title>
    <desc>Created with Sketch.</desc>
    <defs>
        <polygon id="path-1" points="4.90648917e-16 21.1064 4.90648917e-16 0.3284 10.5286 0.3284 10.5286 21.1064"></polygon>
    </defs>
    <g id="Icon/-Thumbs-Up" stroke="none" stroke-width="1" fill="none" fill-rule="evenodd">
        <g id="Page-1">
            <path d="M20.6321,28.7523 L21.5031,44.1283 C21.5791,45.4813 20.6381,46.6803 19.3051,46.9263 L9.8461,48.7483 L9.2141,24.6913 L18.4601,26.2643 C19.6681,26.4993 20.5621,27.5233 20.6321,28.7523" id="Fill-1" fill="#53C27C"></path>
            <path d="M44.9631,8.9993 C44.7371,8.9993 44.5081,8.9483 44.2931,8.8413 C43.5521,8.4703 43.2521,7.5693 43.6221,6.8283 L46.6221,0.8283 C46.9941,0.0883 47.8951,-0.2107 48.6351,0.1573 C49.3761,0.5283 49.6761,1.4293 49.3061,2.1703 L46.3061,8.1703 C46.0431,8.6953 45.5131,8.9993 44.9631,8.9993" id="Fill-3" fill="#D3E5EF"></path>
            <path d="M49.9646,16.0755 C49.3766,16.0755 48.8186,15.7275 48.5786,15.1505 C48.2606,14.3865 48.6236,13.5085 49.3886,13.1895 L54.3886,11.1135 C55.1526,10.7955 56.0316,11.1595 56.3496,11.9245 C56.6676,12.6885 56.3046,13.5665 55.5396,13.8855 L50.5396,15.9615 C50.3516,16.0395 50.1566,16.0755 49.9646,16.0755" id="Fill-5" fill="#D3E5EF"></path>
            <path d="M24.9651,8.9993 C24.5251,8.9993 24.0891,8.8073 23.7931,8.4373 L19.7931,3.4373 C19.2751,2.7893 19.3801,1.8463 20.0271,1.3283 C20.6731,0.8113 21.6171,0.9153 22.1351,1.5623 L26.1351,6.5613 C26.6531,7.2093 26.5481,8.1523 25.9011,8.6703 C25.6251,8.8923 25.2941,8.9993 24.9651,8.9993" id="Fill-7" fill="#D3E5EF"></path>
            <path d="M19.9636,17.0755 C19.7716,17.0755 19.5766,17.0395 19.3886,16.9615 L14.3886,14.8855 C13.6236,14.5665 13.2606,13.6885 13.5786,12.9245 C13.8976,12.1595 14.7756,11.7965 15.5396,12.1135 L20.5396,14.1895 C21.3046,14.5085 21.6676,15.3865 21.3496,16.1505 C21.1096,16.7275 20.5516,17.0755 19.9636,17.0755" id="Fill-9" fill="#D3E5EF"></path>
            <g id="Group-13" transform="translate(0.000000, 25.571600)">
                <mask id="mask-2" fill="white">
                    <use xlink:href="#path-1"></use>
                </mask>
                <g id="Clip-12"></g>
                <path d="M1.7986,21.1064 C1.7986,21.1064 -2.3164,12.7744 1.9016,0.3284 L9.5436,1.5964 L10.5286,20.2924" id="Fill-11" fill="#53C27C" mask="url(#mask-2)"></path>
            </g>
            <path d="M1.1838,47.9925 L12.4448,44.6775" id="Fill-14" fill="#D3E5EF"></path>
            <path d="M10.0383,27.2112 L1.9013,25.8992" id="Fill-16" fill="#D3E5EF"></path>
            <g id="Group-20" transform="translate(0.000000, 2.571600)" fill="#4F5661">
                <path d="M53.0681,38.7549 C52.0171,39.7709 50.6111,40.2659 49.1301,40.2809 L42.1551,40.0569 C42.0091,40.0529 41.8661,40.0299 41.7251,40.0039 C41.7221,40.0029 41.7181,40.0039 41.7141,40.0029 C41.1821,39.8999 40.6931,39.6419 40.3121,39.2419 C39.8261,38.7339 39.5681,38.0699 39.5861,37.3709 C39.6041,36.6639 39.8901,36.0069 40.3841,35.5279 C40.9571,34.9869 41.6911,34.6629 42.3041,34.6889 C42.3761,34.6929 42.4401,34.6669 42.5071,34.6559 C42.7341,34.6959 42.9611,34.7359 43.1971,34.7419 L49.7581,34.9309 C51.5181,34.9419 53.2151,34.3959 54.5881,33.3189 C54.7241,33.8229 54.7941,34.3489 54.7821,34.8819 C54.7511,36.3599 54.1441,37.7339 53.0681,38.7549 M49.8841,45.5589 L49.5181,45.9459 C48.7261,46.7899 48.4981,47.0209 47.5291,46.9989 L41.1821,46.9159 C39.9401,46.8839 38.9571,45.7509 38.9911,44.3929 C39.0081,43.7219 39.2701,43.0779 39.7051,42.6319 C40.1301,42.2019 40.6821,41.9789 41.3571,41.9709 L41.3921,41.9689 C41.6251,42.0109 41.8581,42.0499 42.0981,42.0559 L49.0761,42.2799 C49.1331,42.2809 49.1901,42.2819 49.2471,42.2819 C49.9921,42.2819 50.7181,42.1759 51.4091,41.9719 C51.3511,43.3549 50.8221,44.6219 49.8841,45.5589 M19.1161,43.3719 L10.8151,44.9719 L10.2451,23.3099 L18.2691,24.6739 C19.0281,24.8219 19.5891,25.4649 19.6331,26.2369 L20.5041,41.6129 C20.5521,42.4609 19.9591,43.2169 19.1161,43.3719 M57.4621,27.5769 C57.5081,25.5719 56.8391,23.5569 55.6271,22.0439 C54.3111,20.4029 52.4851,19.4749 50.4641,19.4279 L40.4641,19.4279 L40.4641,7.4509 C40.5621,3.2359 37.5051,0.5459 32.4641,0.4279 L31.4641,0.4279 C30.9121,0.4279 30.4641,0.8749 30.4641,1.4279 L30.4641,8.4039 C30.3641,12.7169 29.9211,16.1619 25.3091,18.0129 C23.3051,18.8179 21.1801,20.3419 19.7711,23.1309 C19.4241,22.9329 19.0401,22.7859 18.6281,22.7059 L9.3811,21.1339 C9.0871,21.0889 8.7851,21.1689 8.5581,21.3639 C8.3321,21.5609 8.2061,21.8479 8.2141,22.1469 L8.2451,23.3379 L2.0611,22.3409 C1.5161,22.2489 1.0021,22.6229 0.9141,23.1689 C0.8261,23.7139 1.1971,24.2279 1.7421,24.3159 L8.2991,25.3719 L8.7401,42.1539 L0.9011,44.4619 C0.3721,44.6169 0.0681,45.1739 0.2241,45.7029 C0.3531,46.1389 0.7511,46.4209 1.1831,46.4209 C1.2771,46.4209 1.3721,46.4079 1.4661,46.3799 L8.7941,44.2229 L8.8461,46.2029 C8.8541,46.4969 8.9901,46.7729 9.2191,46.9559 C9.3991,47.0999 9.6201,47.1769 9.8461,47.1769 C9.9091,47.1769 9.9721,47.1709 10.0351,47.1589 L19.4871,45.3379 C20.6021,45.1319 21.5151,44.4319 22.0361,43.4979 C24.0911,45.7199 26.9331,46.9129 30.5061,46.9949 L34.3541,47.4219 C34.3911,47.4259 34.4281,47.4279 34.4651,47.4279 C34.9681,47.4279 35.4011,47.0499 35.4581,46.5379 C35.5191,45.9889 35.1231,45.4949 34.5741,45.4339 L30.6391,45.0009 C26.8821,44.9139 24.1841,43.5029 22.4601,40.7759 L21.6311,26.1239 C21.6021,25.6259 21.4651,25.1579 21.2571,24.7299 C22.2231,22.4159 23.8201,20.7649 26.0541,19.8679 C31.7771,17.5719 32.3591,12.9689 32.4641,8.4279 L32.4641,2.4279 C34.3211,2.4759 38.5661,3.0609 38.4641,7.4279 L38.4641,20.4279 C38.4641,20.9809 38.9121,21.4279 39.4641,21.4279 L50.4411,21.4279 C51.8391,21.4599 53.1261,22.1239 54.0671,23.2959 C54.9891,24.4459 55.4981,25.9889 55.4631,27.5299 C55.4281,29.0079 54.8211,30.3829 53.7521,31.4019 C52.6831,32.4229 51.2661,32.9699 49.8101,32.9309 L43.2501,32.7419 C41.8011,32.7089 40.6501,31.5029 40.6831,30.0549 C40.7001,29.3529 40.9881,28.6989 41.4961,28.2139 C42.0041,27.7299 42.6881,27.4859 43.3371,27.4859 L49.2611,27.8299 C49.8191,27.8539 50.2851,27.4419 50.3181,26.8899 C50.3501,26.3389 49.9291,25.8649 49.3781,25.8339 L43.4191,25.4879 C42.1861,25.4649 41.0101,25.9139 40.1151,26.7679 C39.2211,27.6209 38.7131,28.7719 38.6841,30.0079 C38.6531,31.3069 39.1691,32.4909 40.0131,33.3529 C39.6591,33.5559 39.3151,33.7879 39.0021,34.0839 C38.1211,34.9369 37.6181,36.0859 37.5871,37.3199 C37.5561,38.5559 38.0101,39.7299 38.8661,40.6239 C38.8891,40.6489 38.9181,40.6659 38.9431,40.6909 C38.7051,40.8449 38.4811,41.0249 38.2771,41.2319 C37.4781,42.0519 37.0211,43.1569 36.9921,44.3429 C36.9311,46.8029 38.7871,48.8549 41.1421,48.9159 L47.4971,48.9989 C47.5371,48.9999 47.5761,48.9999 47.6141,48.9999 C49.3971,48.9999 50.1301,48.2179 50.9771,47.3149 L51.3111,46.9609 C52.6271,45.6469 53.3771,43.8519 53.4221,41.9019 C53.4271,41.6009 53.4161,41.3179 53.3911,41.0469 C53.7661,40.7989 54.1221,40.5179 54.4511,40.1989 C55.9111,38.8149 56.7381,36.9419 56.7821,34.9249 C56.8061,33.8019 56.5691,32.7039 56.1181,31.6999 C56.9571,30.4979 57.4271,29.0759 57.4621,27.5769" id="Fill-18"></path>
            </g>
        </g>
    </g>
</svg>