<?xml version="1.0" encoding="UTF-8"?>
<svg width="59px" height="59px" viewBox="0 0 59 59" version="1.1" xmlns="http://www.w3.org/2000/svg" xmlns:xlink="http://www.w3.org/1999/xlink">
    <!-- Generator: Sketch 49.3 (51167) - http://www.bohemiancoding.com/sketch -->
    <title>Icon/ Touch ID</title>
    <desc>Created with Sketch.</desc>
    <defs></defs>
    <g id="Icon/-Touch-ID" stroke="none" stroke-width="1" fill="none" fill-rule="evenodd">
        <g id="Touch-ID">
            <path d="M55,49 C54.448,49 54,48.553 54,48 L54,45.07 C54,43.918 53.517,42.815 52.675,42.044 C51.843,41.281 50.764,40.914 49.64,41.016 C47.599,41.195 46,43.092 46,45.333 L46,48 C46,48.553 45.552,49 45,49 C44.448,49 44,48.553 44,48 L44,45.333 C44,42.064 46.4,39.293 49.464,39.023 C51.153,38.879 52.775,39.424 54.026,40.569 C55.28,41.718 56,43.358 56,45.07 L56,48 C56,48.553 55.552,49 55,49" id="Fill-1" fill="#4F5661"></path>
            <path d="M58,48 L42,48 C41.448,48 41,48.447 41,49 L41,58 C41,58.553 41.448,59 42,59 L58,59 C58.552,59 59,58.553 59,58 L59,49 C59,48.447 58.552,48 58,48" id="Fill-3" fill="#53C27C"></path>
            <path d="M50,56 C49.448,56 49,55.553 49,55 L49,53 C49,52.447 49.448,52 50,52 C50.552,52 51,52.447 51,53 L51,55 C51,55.553 50.552,56 50,56" id="Fill-5" fill="#FFFFFF"></path>
            <path d="M38,31 C38,41.493 29.494,50 19,50 C8.506,50 0,41.493 0,31 C0,20.507 8.506,12 19,12 C29.494,12 38,20.507 38,31" id="Fill-7" fill="#D3E5EF"></path>
            <path d="M12.1807,6.3604 C11.8807,6.3604 11.5847,6.2264 11.3877,5.9694 C11.0507,5.5324 11.1327,4.9044 11.5707,4.5674 C15.4557,1.5794 20.0987,0.0004 24.9997,0.0004 C29.6437,0.0004 34.0777,1.4274 37.8257,4.1294 C38.2727,4.4524 38.3747,5.0774 38.0517,5.5254 C37.7287,5.9724 37.1057,6.0744 36.6557,5.7524 C33.2517,3.2974 29.2207,2.0004 24.9997,2.0004 C20.5447,2.0004 16.3227,3.4364 12.7897,6.1534 C12.6087,6.2934 12.3937,6.3604 12.1807,6.3604" id="Fill-9" fill="#4F5661"></path>
            <path d="M24.4199,49.3604 C19.7759,49.3604 15.3419,47.9324 11.5949,45.2314 C11.1479,44.9084 11.0459,44.2834 11.3689,43.8354 C11.6919,43.3874 12.3169,43.2884 12.7649,43.6084 C16.1689,46.0634 20.1989,47.3604 24.4199,47.3604 C28.8759,47.3604 33.0979,45.9234 36.6299,43.2074 C37.0689,42.8714 37.6959,42.9534 38.0329,43.3904 C38.3699,43.8284 38.2879,44.4564 37.8499,44.7934 C33.9639,47.7814 29.3199,49.3604 24.4199,49.3604" id="Fill-11" fill="#4F5661"></path>
            <path d="M4,23 C3.448,23 3,22.553 3,22 C3,16.619 4.961,11.443 8.521,7.427 C8.888,7.013 9.521,6.975 9.933,7.342 C10.347,7.708 10.385,8.34 10.019,8.753 C6.782,12.404 5,17.108 5,22 C5,22.553 4.552,23 4,23" id="Fill-13" fill="#4F5661"></path>
            <path d="M46,23 C45.448,23 45,22.553 45,22 C45,16.857 43.056,11.978 39.525,8.259 C39.145,7.858 39.161,7.226 39.562,6.845 C39.961,6.465 40.594,6.48 40.975,6.882 C44.86,10.974 47,16.343 47,22 C47,22.553 46.552,23 46,23" id="Fill-15" fill="#4F5661"></path>
            <path d="M9,23 C8.448,23 8,22.553 8,22 C8,12.626 15.626,5 25,5 C25.15,5 25.301,5.001 25.438,5.014 C25.989,5.063 26.395,5.548 26.346,6.099 C26.297,6.647 25.811,7.053 25.262,7.006 C25.18,6.999 25.09,6.998 25,7 C16.729,7 10,13.729 10,22 C10,22.553 9.552,23 9,23" id="Fill-17" fill="#4F5661"></path>
            <path d="M20.6904,43.4102 C20.6014,43.4102 20.5114,43.3982 20.4214,43.3732 C13.1074,41.3372 8.0004,34.6032 8.0004,27.0002 C8.0004,26.4472 8.4474,26.0002 9.0004,26.0002 C9.5524,26.0002 10.0004,26.4472 10.0004,27.0002 C10.0004,33.7092 14.5064,39.6502 20.9584,41.4472 C21.4904,41.5952 21.8014,42.1462 21.6534,42.6792 C21.5304,43.1212 21.1284,43.4102 20.6904,43.4102" id="Fill-19" fill="#4F5661"></path>
            <path d="M25,44 C24.85,44 24.699,43.999 24.562,43.986 C24.011,43.938 23.605,43.452 23.654,42.901 C23.703,42.352 24.186,41.935 24.738,41.994 C24.82,42 24.908,42 25,42 C31.64,42 37.565,37.552 39.41,31.184 C39.563,30.652 40.116,30.35 40.648,30.501 C41.179,30.655 41.484,31.21 41.331,31.74 C39.24,38.959 32.525,44 25,44" id="Fill-21" fill="#4F5661"></path>
            <path d="M41,28 C40.448,28 40,27.553 40,27 L40,22 C40,15.291 35.494,9.35 29.042,7.553 C28.51,7.405 28.199,6.854 28.347,6.321 C28.495,5.789 29.048,5.477 29.578,5.627 C36.892,7.663 42,14.396 42,22 L42,27 C42,27.553 41.552,28 41,28" id="Fill-23" fill="#4F5661"></path>
            <path d="M8.0005,41 C7.7075,41 7.4165,40.872 7.2195,40.625 C3.0475,35.411 3.0005,26.382 3.0005,26 C3.0005,25.448 3.4475,25.001 3.9995,25 L4.0005,25 C4.5515,25 4.9995,25.447 5.0005,26 C5.0005,26.086 5.0515,34.713 8.7805,39.375 C9.1255,39.807 9.0565,40.436 8.6245,40.781 C8.4405,40.929 8.2195,41 8.0005,41" id="Fill-25" fill="#4F5661"></path>
            <path d="M41.9995,41 C41.7805,41 41.5595,40.929 41.3755,40.781 C40.9435,40.436 40.8745,39.807 41.2195,39.375 C44.9485,34.713 44.9995,26.086 44.9995,26 C45.0005,25.447 45.4485,25 45.9995,25 L46.0005,25 C46.5525,25.001 46.9995,25.448 46.9995,26 C46.9995,26.382 46.9525,35.411 42.7805,40.625 C42.5835,40.871 42.2925,41 41.9995,41" id="Fill-27" fill="#4F5661"></path>
            <path d="M15.8794,34.1504 C15.5584,34.1504 15.2434,33.9964 15.0494,33.7104 C13.7094,31.7244 13.0004,29.4044 13.0004,27.0004 L13.0004,22.0004 C13.0004,19.4994 13.7624,17.1014 15.2044,15.0674 C15.5234,14.6164 16.1484,14.5084 16.5984,14.8304 C17.0484,15.1494 17.1554,15.7734 16.8364,16.2234 C15.6344,17.9184 15.0004,19.9154 15.0004,22.0004 L15.0004,27.0004 C15.0004,29.0044 15.5904,30.9374 16.7074,32.5904 C17.0164,33.0474 16.8964,33.6704 16.4384,33.9794 C16.2664,34.0944 16.0714,34.1504 15.8794,34.1504" id="Fill-29" fill="#4F5661"></path>
            <path d="M25,39 C22.322,39 19.788,38.137 17.672,36.504 C17.235,36.166 17.155,35.538 17.492,35.101 C17.83,34.664 18.458,34.585 18.895,34.92 C20.657,36.281 22.768,37 25,37 C26.848,37 28.652,36.492 30.219,35.532 C30.69,35.244 31.306,35.392 31.594,35.862 C31.883,36.333 31.735,36.949 31.264,37.237 C29.383,38.391 27.217,39 25,39" id="Fill-31" fill="#4F5661"></path>
            <path d="M33.6689,34.7715 C33.4529,34.7715 33.2359,34.7025 33.0529,34.5595 C32.6179,34.2185 32.5419,33.5905 32.8819,33.1555 C34.2679,31.3835 34.9999,29.2545 34.9999,27.0005 L34.9999,22.0005 C34.9999,16.4865 30.5139,12.0005 24.9999,12.0005 C23.2559,12.0005 21.5409,12.4555 20.0389,13.3155 C19.5599,13.5895 18.9489,13.4235 18.6739,12.9455 C18.3989,12.4665 18.5649,11.8555 19.0439,11.5815 C20.8479,10.5465 22.9079,10.0005 24.9999,10.0005 C31.6169,10.0005 36.9999,15.3825 36.9999,22.0005 L36.9999,27.0005 C36.9999,29.7065 36.1209,32.2605 34.4569,34.3875 C34.2599,34.6395 33.9659,34.7715 33.6689,34.7715" id="Fill-33" fill="#4F5661"></path>
            <path d="M25,34 C24.448,34 24,33.553 24,33 C24,32.447 24.448,32 25,32 C27.757,32 30,29.757 30,27 L30,22 C30,21.447 30.448,21 31,21 C31.552,21 32,21.447 32,22 L32,27 C32,30.859 28.86,34 25,34" id="Fill-35" fill="#4F5661"></path>
            <path d="M22,31 C19.794,31 18,29.206 18,27 L18,22 C18,18.141 21.14,15 25,15 C27.218,15 29.327,16.068 30.643,17.856 C30.97,18.302 30.875,18.928 30.429,19.255 C29.984,19.582 29.358,19.486 29.031,19.042 C28.091,17.764 26.584,17 25,17 C22.243,17 20,19.243 20,22 L20,27 C20,28.103 20.897,29 22,29 C23.103,29 24,28.103 24,27 L24,22 C24,21.447 24.448,21 25,21 C25.552,21 26,21.447 26,22 L26,27 C26,29.206 24.206,31 22,31" id="Fill-37" fill="#4F5661"></path>
        </g>
    </g>
</svg>