<?xml version="1.0" encoding="UTF-8"?>
<svg width="60px" height="60px" viewBox="0 0 60 60" version="1.1" xmlns="http://www.w3.org/2000/svg" xmlns:xlink="http://www.w3.org/1999/xlink">
    <!-- Generator: Sketch 49.3 (51167) - http://www.bohemiancoding.com/sketch -->
    <title>Icon/ Track your Refund</title>
    <desc>Created with Sketch.</desc>
    <defs></defs>
    <g id="Icon/-Track-your-Refund" stroke="none" stroke-width="1" fill="none" fill-rule="evenodd">
        <g id="Page-1">
            <path d="M22,54 L8.879,54 C8.422,52 6.637,50.5 4.5,50.5 C2.019,50.5 0,52.519 0,55 C0,57.481 2.019,59.5 4.5,59.5 C6.637,59.5 8.422,58 8.879,56 L22,56 C22.552,56 23,55.553 23,55 C23,54.447 22.552,54 22,54" id="Fill-1" fill="#D3E5EF"></path>
            <path d="M55.5,50.5 C53.363,50.5 51.578,52 51.121,54 L38,54 C37.448,54 37,54.447 37,55 C37,55.553 37.448,56 38,56 L51.121,56 C51.578,58 53.363,59.5 55.5,59.5 C57.981,59.5 60,57.481 60,55 C60,52.519 57.981,50.5 55.5,50.5" id="Fill-3" fill="#D3E5EF"></path>
            <path d="M30,50 C27.243,50 25,52.243 25,55 C25,57.757 27.243,60 30,60 C32.757,60 35,57.757 35,55 C35,52.243 32.757,50 30,50" id="Fill-5" fill="#53C27C"></path>
            <path d="M30,2 C21.178,2 14,8.953 14,17.5 C14,25.797 19.603,38.412 30,45.783 C40.397,38.412 46,25.797 46,17.5 C46,8.953 38.822,2 30,2 M30,48 C29.804,48 29.607,47.942 29.438,47.827 C19.497,41.073 12,28.035 12,17.5 C12,7.851 20.075,0 30,0 C39.925,0 48,7.851 48,17.5 C48,28.035 40.503,41.073 30.562,47.827 C30.393,47.942 30.196,48 30,48" id="Fill-7" fill="#4F5661"></path>
            <path d="M42,18 C42,24.628 36.627,30 30,30 C23.373,30 18,24.628 18,18 C18,11.373 23.373,6 30,6 C36.627,6 42,11.373 42,18" id="Fill-9" fill="#53C27C"></path>
            <path d="M34.6284,20.7002 C34.6284,18.5502 32.3734,17.5842 30.4204,16.9332 C28.7894,16.3842 28.0444,15.8502 28.0444,15.0672 C28.0444,14.5332 28.6684,13.9002 29.8164,13.9002 C30.9224,13.9002 32.4544,14.7332 32.6144,14.8162 C32.8564,14.9502 33.1584,14.8162 33.3194,14.6172 L34.0854,13.6672 C34.2254,13.5002 34.1654,13.2172 33.9634,13.1172 C33.6344,12.9122 32.5174,12.3032 31.0004,12.0842 L31.0004,10.5002 C31.0004,10.2232 30.7754,10.0002 30.5004,10.0002 L29.5004,10.0002 C29.2234,10.0002 29.0004,10.2232 29.0004,10.5002 L29.0004,12.0642 C26.4824,12.3682 25.4074,13.8732 25.4074,15.2002 C25.4074,17.1672 27.2994,18.1672 29.1914,18.8002 C30.8834,19.3672 31.7494,19.9502 31.7494,20.8002 C31.7494,21.5162 30.9634,22.0842 29.9174,22.0842 C28.6074,22.0842 26.9774,21.1002 26.8764,21.0502 C26.6954,20.9332 26.3534,20.9332 26.1924,21.1672 L25.4674,22.2002 C25.2864,22.4672 25.3864,22.5502 25.5674,22.7002 C25.9144,22.9722 27.0704,23.7342 29.0004,23.9432 L29.0004,25.5002 C29.0004,25.7762 29.2234,26.0002 29.5004,26.0002 L30.5004,26.0002 C30.7754,26.0002 31.0004,25.7762 31.0004,25.5002 L31.0004,23.9292 C33.2514,23.6062 34.6284,22.2052 34.6284,20.7002" id="Fill-11" fill="#FFFFFF"></path>
        </g>
    </g>
</svg>