<?xml version="1.0" encoding="UTF-8"?>
<svg width="59px" height="55px" viewBox="0 0 59 55" version="1.1" xmlns="http://www.w3.org/2000/svg" xmlns:xlink="http://www.w3.org/1999/xlink">
    <!-- Generator: Sketch 49.3 (51167) - http://www.bohemiancoding.com/sketch -->
    <title>Icon/ Transfer</title>
    <desc>Created with Sketch.</desc>
    <defs></defs>
    <g id="Icon/-Transfer" stroke="none" stroke-width="1" fill="none" fill-rule="evenodd">
        <g id="Transfer" transform="translate(-1.000000, -1.000000)">
            <path d="M1.9999,48 L1.9999,2 L12.8599,2 C13.8643746,2 14.8026658,2.50192432 15.3578497,3.3347002 L16.9768006,5.77312335 C17.9040459,7.16399446 19.4668644,8 21.1399,8 L47.9999,8 L47.9999,10 C47.9999,10.5522847 48.4476153,11 48.9999,11 C49.5521847,11 49.9999,10.5522847 49.9999,10 L49.9999,7 C49.9999,6.44771525 49.5521847,6 48.9999,6 L21.1399,6 C20.1354254,6 19.1971342,5.49807568 18.6419503,4.6652998 L17.0229994,2.22687665 C16.0957541,0.83600554 14.5329356,0 12.8599,0 L0.9999,0 C0.44761525,0 -9.99999993e-05,0.44771525 -9.99999993e-05,1 L-9.99999993e-05,49 C-9.99999993e-05,49.5522847 0.44761525,50 0.9999,50 L32.1699,50 C32.7221847,50 33.1699,49.5522847 33.1699,49 C33.1699,48.4477153 32.7221847,48 32.1699,48 L1.9999,48 Z" id="Stroke-1" fill="#4B5E69" fill-rule="nonzero"></path>
            <path d="M55.4783901,20 C54.3713395,22.6135484 53.3667504,25.2834325 52.4691286,28.040414 C52.2981489,28.5655657 52.5852622,29.1298918 53.110414,29.3008714 C53.6355657,29.4718511 54.1998918,29.1847378 54.3708714,28.659586 C55.4083335,25.4730953 56.5920508,22.4042898 57.9150246,19.403398 C58.2064255,18.7424156 57.7223656,18 57,18 L11,18 C10.6021646,18 10.24217,18.2358229 10.0832501,18.6005384 C8.5921759,22.0225 7.2479307,25.4708902 6.05313319,28.988374 C3.78967378,35.6566569 2.13835668,42.2744924 1.01437775,48.8310362 C0.921061607,49.3753803 1.28669204,49.8923061 1.83103618,49.9856223 C2.37538033,50.0789384 2.89230612,49.713308 2.98562225,49.1689638 C4.09228109,42.7134539 5.71819679,36.1974173 7.94693521,29.6314245 C9.05340195,26.3739865 10.290682,23.1751323 11.6567249,20 L55.4783901,20 Z" id="Stroke-3" fill="#4B5E69" fill-rule="nonzero"></path>
            <path d="M53,13 L53,19 L11,19 C9.61,22.19 8.25,25.63 7,29.31 C6.25,31.51 5.58,33.68 5,35.78 L5,13 L53,13 Z" id="Fill-5" fill="#D3E5EF"></path>
            <path d="M6,14 L6,29.1445728 C6.01766853,29.0925175 6.03537965,29.0404511 6.05313319,28.988374 C7.2479307,25.4708902 8.5921759,22.0225 10.0832501,18.6005384 C10.24217,18.2358229 10.6021646,18 11,18 L52,18 L52,14 L6,14 Z M11.6567249,20 C10.2906806,23.1751365 9.05337676,26.3740605 7.94651019,29.6326739 C7.20594711,31.8049923 6.54108645,33.9564515 5.96391142,36.0462232 C5.65381878,37.1689724 4,36.9447847 4,35.78 L4,13 C4,12.4477153 4.44771525,12 5,12 L53,12 C53.5522847,12 54,12.4477153 54,13 L54,19 C54,19.5522847 53.5522847,20 53,20 L11.6567249,20 Z" id="Stroke-7" fill="#4B5E69" fill-rule="nonzero"></path>
            <path d="M60,43 C60,50.18 54.18,56 47,56 C39.82,56 34,50.18 34,43 C34,35.82 39.82,30 47,30 C54.18,30 60,35.82 60,43" id="Fill-9" fill="#5BBF89"></path>
            <polygon id="Fill-11" fill="#FFFFFF" points="55 43 48 37 48 41 39 41 39 45 48 45 48 49"></polygon>
        </g>
    </g>
</svg>