<?xml version="1.0" encoding="UTF-8"?>
<svg width="58px" height="56px" viewBox="0 0 58 56" version="1.1" xmlns="http://www.w3.org/2000/svg" xmlns:xlink="http://www.w3.org/1999/xlink">
    <!-- Generator: Sketch 49.3 (51167) - http://www.bohemiancoding.com/sketch -->
    <title>Icon/ Track your audit risk</title>
    <desc>Created with Sketch.</desc>
    <defs></defs>
    <g id="Icon/-Track-your-audit-risk" stroke="none" stroke-width="1" fill="none" fill-rule="evenodd">
        <g id="Page-1">
            <path d="M20,17 L13,17 C12.448,17 12,17.447 12,18 L12,38 C12,38.553 12.448,39 13,39 L20,39 C20.552,39 21,38.553 21,38 L21,18 C21,17.447 20.552,17 20,17" id="Fill-1" fill="#53C27C"></path>
            <path d="M8,20 L1,20 C0.448,20 0,20.447 0,21 L0,35 C0,35.553 0.448,36 1,36 L8,36 C8.552,36 9,35.553 9,35 L9,21 C9,20.447 8.552,20 8,20" id="Fill-3" fill="#D3E5EF"></path>
            <path d="M32,14 L25,14 C24.448,14 24,14.447 24,15 L24,41 C24,41.553 24.448,42 25,42 L32,42 C32.552,42 33,41.553 33,41 L33,15 C33,14.447 32.552,14 32,14" id="Fill-5" fill="#D3E5EF"></path>
            <path d="M44,11 L37,11 C36.448,11 36,11.447 36,12 L36,44 C36,44.553 36.448,45 37,45 L44,45 C44.552,45 45,44.553 45,44 L45,12 C45,11.447 44.552,11 44,11" id="Fill-7" fill="#D3E5EF"></path>
            <path d="M57,8 L50,8 C49.448,8 49,8.447 49,9 L49,47 C49,47.553 49.448,48 50,48 L57,48 C57.552,48 58,47.553 58,47 L58,9 C58,8.447 57.552,8 57,8" id="Fill-9" fill="#F4877A"></path>
            <path d="M21.1396,7.3271 C20.7686,6.9191 20.1366,6.8891 19.7266,7.2601 L16.9996,9.7391 L16.9996,1.0001 C16.9996,0.4471 16.5526,0.0001 15.9996,0.0001 C15.4476,0.0001 14.9996,0.4471 14.9996,1.0001 L14.9996,9.7391 L12.2726,7.2601 C11.8646,6.8891 11.2316,6.9191 10.8606,7.3271 C10.4886,7.7361 10.5186,8.3681 10.9276,8.7401 L15.3276,12.7401 C15.3756,12.7841 15.4356,12.8071 15.4906,12.8401 C15.5366,12.8681 15.5776,12.9041 15.6286,12.9251 C15.7476,12.9731 15.8726,13.0001 15.9996,13.0001 C16.1266,13.0001 16.2516,12.9731 16.3716,12.9251 C16.4226,12.9041 16.4626,12.8681 16.5096,12.8401 C16.5646,12.8071 16.6236,12.7841 16.6726,12.7401 L21.0726,8.7401 C21.4816,8.3681 21.5116,7.7361 21.1396,7.3271" id="Fill-11" fill="#4F5661"></path>
            <path d="M21.0728,47.2598 L16.6728,43.2598 C16.6248,43.2158 16.5668,43.1948 16.5128,43.1618 C16.4648,43.1318 16.4238,43.0958 16.3708,43.0748 C16.2598,43.0308 16.1428,43.0078 16.0258,43.0048 C16.0168,43.0048 16.0088,42.9998 15.9998,42.9998 C15.9908,42.9998 15.9838,43.0048 15.9748,43.0048 C15.8568,43.0078 15.7398,43.0308 15.6298,43.0748 C15.5768,43.0958 15.5348,43.1328 15.4868,43.1618 C15.4338,43.1948 15.3748,43.2158 15.3268,43.2598 L10.9268,47.2598 C10.5188,47.6318 10.4888,48.2638 10.8608,48.6728 C11.2318,49.0798 11.8638,49.1118 12.2728,48.7398 L14.9998,46.2608 L14.9998,54.9998 C14.9998,55.5528 15.4478,55.9998 15.9998,55.9998 C16.5518,55.9998 16.9998,55.5528 16.9998,54.9998 L16.9998,46.2608 L19.7268,48.7398 C19.9188,48.9138 20.1598,48.9998 20.3998,48.9998 C20.6718,48.9998 20.9428,48.8898 21.1398,48.6728 C21.5108,48.2638 21.4818,47.6318 21.0728,47.2598" id="Fill-13" fill="#4F5661"></path>
        </g>
    </g>
</svg>