<?xml version="1.0" encoding="UTF-8"?>
<svg width="49px" height="58px" viewBox="0 0 49 58" version="1.1" xmlns="http://www.w3.org/2000/svg" xmlns:xlink="http://www.w3.org/1999/xlink">
    <!-- Generator: Sketch 49.3 (51167) - http://www.bohemiancoding.com/sketch -->
    <title>Icon/ Understand refund</title>
    <desc>Created with Sketch.</desc>
    <defs>
        <polygon id="path-1" points="0 5.75561113 0 0.418229054 6.83897387 0.418229054 6.83897387 5.75561113 3.48649138e-16 5.75561113"></polygon>
    </defs>
    <g id="Icon/-Understand-refund" stroke="none" stroke-width="1" fill="none" fill-rule="evenodd">
        <g id="Understand-refund" transform="translate(0.377604, 0.446960)">
            <path d="M28.4746788,29.1600787 C28.4746788,27.1179366 26.3328043,26.1994476 24.4777794,25.5820559 C22.928601,25.0596474 22.220975,24.5524363 22.220975,23.8087167 C22.220975,23.3024554 22.8136711,22.7012108 23.90408,22.7012108 C24.9545958,22.7012108 26.4097408,23.4924221 26.5617141,23.5712583 C26.7915738,23.698536 27.0784236,23.5712583 27.2313468,23.3822415 L27.9589192,22.4798996 C28.0918959,22.3212774 28.0349059,22.0524745 27.8430395,21.9574912 C27.5305443,21.7627753 26.4695803,21.1833769 25.0286829,20.9763132 L25.0286829,19.4717769 C25.0286829,19.208673 24.8159201,18.9968601 24.5537661,18.9968601 L23.6039326,18.9968601 C23.3408287,18.9968601 23.1290158,19.208673 23.1290158,19.4717769 L23.1290158,20.9573165 C20.7373351,21.2460659 19.716264,22.6755653 19.716264,23.9359944 C19.716264,25.8043169 21.513349,26.7541504 23.3113839,27.355395 C24.9175523,27.8939506 25.7401082,28.4477036 25.7401082,29.255062 C25.7401082,29.9351428 24.993539,30.4736984 24.0000132,30.4736984 C22.7566811,30.4736984 21.2075026,29.5390623 21.1115695,29.4925204 C20.9396496,29.3813899 20.6148065,29.3813899 20.4618833,29.6036509 L19.7732541,30.5848289 C19.6013342,30.8384345 19.6963175,30.9172707 19.8682374,31.0597457 C20.1978296,31.3181004 21.2958372,32.0418735 23.1290158,32.2403888 L23.1290158,33.7192795 C23.1290158,33.9814336 23.3408287,34.1941963 23.6039326,34.1941963 L24.5537661,34.1941963 C24.8159201,34.1941963 25.0286829,33.9814336 25.0286829,33.7192795 L25.0286829,32.2270911 C27.1667581,31.919345 28.4746788,30.5895781 28.4746788,29.1600787" id="Fill-1" fill="#53C27C"></path>
            <g id="Group-5" transform="translate(0.000000, 15.197336)">
                <mask id="mask-2" fill="white">
                    <use xlink:href="#path-1"></use>
                </mask>
                <g id="Clip-4"></g>
                <path d="M5.41300618,5.75561113 C5.1556013,5.75561113 4.89534692,5.68627328 4.66073804,5.53904909 L0.671437307,3.05143513 C0.00370435068,2.63540805 -0.200509854,1.75681206 0.215517223,1.0890791 C0.632494133,0.421346144 1.5129898,0.218081774 2.17882309,0.63410885 L6.16812382,3.12267264 C6.83585678,3.53869972 7.03912115,4.41729572 6.62309407,5.08502867 C6.35334136,5.51815275 5.88792294,5.75561113 5.41300618,5.75561113" id="Fill-3" fill="#D3E5EF" mask="url(#mask-2)"></path>
            </g>
            <path d="M24.5533862,8.54850158 C23.7659742,8.54850158 23.1286359,7.91021346 23.1286359,7.12375132 L23.1286359,1.42475026 C23.1286359,0.638288118 23.7659742,0 24.5533862,0 C25.3407981,0 25.9781364,0.638288118 25.9781364,1.42475026 L25.9781364,7.12375132 C25.9781364,7.91021346 25.3407981,8.54850158 24.5533862,8.54850158" id="Fill-6" fill="#D3E5EF"></path>
            <path d="M12.5631629,11.5492156 C12.1309886,11.5492156 11.7035635,11.3535499 11.4233627,10.9802653 L6.91070366,4.97921722 C6.43768657,4.35042744 6.56496426,3.4566341 7.19375404,2.98361702 C7.82159399,2.51059993 8.71538733,2.63597795 9.18840441,3.2666674 L13.7010634,9.26866534 C14.1740805,9.89745513 14.0468028,10.7902986 13.418013,11.2633157 C13.161558,11.4561319 12.8614106,11.5492156 12.5631629,11.5492156" id="Fill-8" fill="#D3E5EF"></path>
            <path d="M42.6085814,20.7043758 C42.0728753,20.7043758 41.5590153,20.401379 41.3168078,19.8827699 C40.9843661,19.1703947 41.2911623,18.3221934 42.0044873,17.9888018 L46.2635407,15.9979508 C46.974966,15.6645592 47.8241172,15.9723053 48.1575087,16.6865801 C48.4909003,17.3989552 48.1831542,18.2462067 47.4707791,18.5805481 L43.2107758,20.5704493 C43.0160599,20.6616333 42.8108959,20.7043758 42.6085814,20.7043758" id="Fill-10" fill="#D3E5EF"></path>
            <path d="M36.6934932,11.1484808 C36.398095,11.1484808 36.0998472,11.0572968 35.8452919,10.8673301 C35.2136526,10.3990622 35.0816257,9.50621871 35.5498936,8.87362959 L39.7633551,3.19932421 C40.2325728,2.56768492 41.1244665,2.4337584 41.7570556,2.90487582 C42.3886949,3.37314374 42.5207218,4.26598724 42.051504,4.89857635 L37.8389924,10.5738316 C37.5587915,10.9499656 37.1285169,11.1484808 36.6934932,11.1484808" id="Fill-12" fill="#D3E5EF"></path>
            <path d="M28.8721841,41.7926744 L19.2855145,41.7926744 C19.0414073,39.1359901 17.7762291,36.6027841 15.7321874,34.7287626 C12.8750882,32.1100716 11.4351406,28.3857744 11.7818298,24.5104537 C12.3260844,18.4144222 17.3554529,13.5997162 23.4809292,13.3119166 C26.8965304,13.1532944 30.1354627,14.3576833 32.6002807,16.7104209 C35.0679481,19.0631585 36.42621,22.2365523 36.42621,25.6455047 C36.42621,29.0696545 34.9805634,32.3684263 32.4597053,34.6964682 C30.3966669,36.6008844 29.1210405,39.1454884 28.8721841,41.7926744 M29.9037033,46.5418419 L18.2530455,46.5418419 C17.8588646,46.5418419 17.3820482,45.9064033 17.3820482,45.1170917 C17.3820482,44.32778 17.8588646,43.6923414 18.2530455,43.6923414 L29.9037033,43.6923414 C30.2978842,43.6923414 30.7747007,44.32778 30.7747007,45.1170917 C30.7747007,45.9064033 30.2978842,46.5418419 29.9037033,46.5418419 M30.7747007,49.8662592 C30.7747007,50.6555709 30.2978842,51.2910095 29.9037033,51.2910095 L27.9622436,51.2910095 L20.1945052,51.2910095 L18.2530455,51.2910095 C17.8588646,51.2910095 17.3820482,50.6555709 17.3820482,49.8662592 C17.3820482,49.0769476 17.8588646,48.4415089 18.2530455,48.4415089 L29.9037033,48.4415089 C30.2978842,48.4415089 30.7747007,49.0769476 30.7747007,49.8662592 M24.0783744,55.0903435 C22.8986812,55.0903435 21.6524996,54.5726842 21.2659174,53.1906765 L26.8908314,53.1906765 C26.5042492,54.5726842 25.2580676,55.0903435 24.0783744,55.0903435 M38.3258771,25.6455047 C38.3258771,21.7122442 36.7586518,18.0515858 33.9120007,15.3360118 C31.0681992,12.6223375 27.3401027,11.2298816 23.3916448,11.4141493 C16.322034,11.746591 10.5176014,17.3040669 9.88976148,24.3413833 C9.48988157,28.8112998 11.1520902,33.1064469 14.4480125,36.1288172 C16.1463148,37.6855943 17.1873323,39.7818768 17.3877472,41.9750424 C16.2849905,42.4138655 15.4823812,43.6486491 15.4823812,45.1170917 C15.4823812,46.0469787 15.8053246,46.8875813 16.3201343,47.4916754 C15.8053246,48.0957695 15.4823812,48.9363722 15.4823812,49.8662592 C15.4823812,51.6994379 16.7247634,53.1906765 18.2530455,53.1906765 L19.3311066,53.1906765 C19.7300366,55.4683772 21.5689143,56.9900105 24.0783744,56.9900105 C26.5887844,56.9900105 28.4267122,55.4683772 28.8265921,53.1906765 L29.9037033,53.1906765 C31.4319855,53.1906765 32.6743677,51.6994379 32.6743677,49.8662592 C32.6743677,48.9363722 32.3523741,48.0957695 31.8366145,47.4916754 C32.3523741,46.8875813 32.6743677,46.0469787 32.6743677,45.1170917 C32.6743677,43.6495989 31.8717584,42.4138655 30.7699515,41.9750424 C30.9732159,39.7904253 32.0284809,37.6798953 33.7476795,36.0917737 C36.6570196,33.4056445 38.3258771,29.597762 38.3258771,25.6455047" id="Fill-14" fill="#4F5661"></path>
        </g>
    </g>
</svg>