<?xml version="1.0" encoding="UTF-8"?>
<svg width="58px" height="50px" viewBox="0 0 58 50" version="1.1" xmlns="http://www.w3.org/2000/svg" xmlns:xlink="http://www.w3.org/1999/xlink">
    <!-- Generator: Sketch 49.3 (51167) - http://www.bohemiancoding.com/sketch -->
    <title>Icon/ Unemployed</title>
    <desc>Created with Sketch.</desc>
    <defs></defs>
    <g id="Icon/-Unemployed" stroke="none" stroke-width="1" fill="none" fill-rule="evenodd">
        <g id="Unemployed" transform="translate(-1.000000, -1.000000)">
            <polygon id="Fill-1" fill="#D3E5EF" points="16 14.9997 52 14.9997 52 7.9997 16 7.9997"></polygon>
            <path d="M16,15.9997 C15.4477153,15.9997 15,15.5519847 15,14.9997 L15,7.9997 C15,7.44741525 15.4477153,6.9997 16,6.9997 L52,6.9997 C52.5522847,6.9997 53,7.44741525 53,7.9997 L53,14.9997 C53,15.5519847 52.5522847,15.9997 52,15.9997 L16,15.9997 Z M51,13.9997 L51,8.9997 L17,8.9997 L17,13.9997 L51,13.9997 Z" id="Stroke-2" fill="#4B5E69" fill-rule="nonzero"></path>
            <path d="M16,23 L27,23 C27.5522847,23 28,22.5522847 28,22 C28,21.4477153 27.5522847,21 27,21 L16,21 C15.4477153,21 15,21.4477153 15,22 C15,22.5522847 15.4477153,23 16,23 Z" id="Stroke-3" fill="#4B5E69" fill-rule="nonzero"></path>
            <path d="M16,28 L25,28 C25.5522847,28 26,27.5522847 26,27 C26,26.4477153 25.5522847,26 25,26 L16,26 C15.4477153,26 15,26.4477153 15,27 C15,27.5522847 15.4477153,28 16,28 Z" id="Stroke-4" fill="#4B5E69" fill-rule="nonzero"></path>
            <path d="M16,33 L26,33 C26.5522847,33 27,32.5522847 27,32 C27,31.4477153 26.5522847,31 26,31 L16,31 C15.4477153,31 15,31.4477153 15,32 C15,32.5522847 15.4477153,33 16,33 Z" id="Stroke-5" fill="#4B5E69" fill-rule="nonzero"></path>
            <path d="M43,23 L52,23 C52.5522847,23 53,22.5522847 53,22 C53,21.4477153 52.5522847,21 52,21 L43,21 C42.4477153,21 42,21.4477153 42,22 C42,22.5522847 42.4477153,23 43,23 Z" id="Stroke-6" fill="#4B5E69" fill-rule="nonzero"></path>
            <path d="M46,28 L52,28 C52.5522847,28 53,27.5522847 53,27 C53,26.4477153 52.5522847,26 52,26 L46,26 C45.4477153,26 45,26.4477153 45,27 C45,27.5522847 45.4477153,28 46,28 Z" id="Stroke-7" fill="#4B5E69" fill-rule="nonzero"></path>
            <path d="M46,33 L52,33 C52.5522847,33 53,32.5522847 53,32 C53,31.4477153 52.5522847,31 52,31 L46,31 C45.4477153,31 45,31.4477153 45,32 C45,32.5522847 45.4477153,33 46,33 Z" id="Stroke-8" fill="#4B5E69" fill-rule="nonzero"></path>
            <g id="Group-27" transform="translate(0.000000, 0.031700)">
                <path d="M5,39.9683 C4.44771525,39.9683 4,39.5205847 4,38.9683 L4,11.9683 C4,11.4165847 3.55171525,10.9683 3,10.9683 C2.44828475,10.9683 2,11.4165847 2,11.9683 L2,40.7963 C2,42.4208201 3.18437366,43.8093563 4.70171065,43.9537952 C6.48239441,44.1232064 8,42.73602 8,40.9683 L8,39.9683 L5,39.9683 Z M8,37.9683 L8,1.9683 C8,1.41601525 8.44771525,0.9683 9,0.9683 L59,0.9683 C59.5522847,0.9683 60,1.41601525 60,1.9683 L60,40.9683 C60,43.7295847 57.7612847,45.9683 55,45.9683 L31,45.9683 C30.4477153,45.9683 30,45.5205847 30,44.9683 C30,44.4160153 30.4477153,43.9683 31,43.9683 L55,43.9683 C56.6567153,43.9683 58,42.6250153 58,40.9683 L58,2.9683 L10,2.9683 L10,40.9683 C10,43.9130565 7.46944334,46.2261435 4.51223608,45.9447998 C1.93997193,45.69994 0,43.4255553 0,40.7963 L0,11.9683 C0,10.3120153 1.34371525,8.9683 3,8.9683 C4.65628475,8.9683 6,10.3120153 6,11.9683 L6,37.9683 L8,37.9683 Z" id="Stroke-9" fill="#4B5E69" fill-rule="nonzero"></path>
                <path d="M5,44.9683 L14.125,44.9683" id="Stroke-11" stroke="#4B5E69" stroke-width="2" stroke-linecap="round" stroke-linejoin="round"></path>
                <path d="M3,9.9683 L9,9.9683" id="Stroke-13" stroke="#4B5E69" stroke-width="2" stroke-linecap="round" stroke-linejoin="round"></path>
                <path d="M44.3643,35.3321 C40.8493,38.8471 35.1503,38.8471 31.6353,35.3321 C28.1213,31.8171 28.1213,26.1191 31.6353,22.6041 C35.1503,19.0891 40.8493,19.0891 44.3643,22.6041 C47.8793,26.1191 47.8793,31.8171 44.3643,35.3321" id="Fill-15" fill="#D3E5EF"></path>
                <path d="M43.6571932,34.6249932 C46.7816689,31.5005175 46.7816689,26.4356825 43.6571932,23.3112068 C40.5327175,20.1867311 35.4668825,20.1867311 32.3425074,23.3111062 C29.2188975,26.4356049 29.2188975,31.5005951 32.3424068,34.6249932 C35.4668825,37.7494689 40.5327175,37.7494689 43.6571932,34.6249932 Z M45.0714068,36.0392068 C41.1658825,39.9447311 34.8337175,39.9447311 30.9280926,36.0391062 C27.0237025,32.1336049 27.0237025,25.8025951 30.9281932,21.8969932 C34.8337175,17.9914689 41.1658825,17.9914689 45.0714068,21.8969932 C48.9769311,25.8025175 48.9769311,32.1336825 45.0714068,36.0392068 Z" id="Stroke-17" fill="#4B5E69" fill-rule="nonzero"></path>
                <path d="M41.5361,25.4332 C43.4851,27.3822 43.4851,30.5552 41.5351,32.5042 C40.5921,33.4482 39.3361,33.9692 38.0001,33.9692 C36.6641,33.9692 35.4081,33.4482 34.4641,32.5042 C35.2161,32.3832 37.2171,31.9602 39.0001,30.2612 C40.9641,28.3902 41.4191,26.1582 41.5361,25.4332" id="Fill-19" fill="#FFFFFF"></path>
                <path d="M28.2805091,40.1026044 L31.7345091,36.6476044 C32.1249769,36.2570236 32.1248852,35.6238586 31.7343044,35.2333909 C31.3437236,34.8429231 30.7105586,34.8430148 30.3200909,35.2335956 L26.8660909,38.6885956 C26.4756231,39.0791764 26.4757148,39.7123414 26.8662956,40.1028091 C27.2568764,40.4932769 27.8900414,40.4931852 28.2805091,40.1026044 Z" id="Stroke-21" fill="#4B5E69" fill-rule="nonzero"></path>
                <path d="M23.4082,48.8951 C21.9342,50.3681 19.5462,50.3681 18.0732,48.8951 C16.5992,47.4221 16.5992,45.0341 18.0732,43.5611 C18.0732,43.5611 23.4082,38.2261 26.0752,37.3361 L29.6322,40.8931 C29.6322,40.8931 26.9652,45.3381 23.4082,48.8951" id="Fill-23" fill="#5BBF89"></path>
                <path d="M23.4082,48.8951 C21.9342,50.3681 19.5462,50.3681 18.0732,48.8951 C16.5992,47.4221 16.5992,45.0341 18.0732,43.5611 C18.0732,43.5611 23.4082,38.2261 26.0752,37.3361 L29.6322,40.8931 C29.6322,40.8931 26.9652,45.3381 23.4082,48.8951 Z" id="Stroke-25" stroke="#5BBF89" stroke-width="2" stroke-linecap="round" stroke-linejoin="round"></path>
            </g>
        </g>
    </g>
</svg>