<?xml version="1.0" encoding="UTF-8"?>
<svg width="50px" height="58px" viewBox="0 0 50 58" version="1.1" xmlns="http://www.w3.org/2000/svg" xmlns:xlink="http://www.w3.org/1999/xlink">
    <!-- Generator: Sketch 49.3 (51167) - http://www.bohemiancoding.com/sketch -->
    <title>Icon/ Upgrade</title>
    <desc>Created with Sketch.</desc>
    <defs></defs>
    <g id="Icon/-Upgrade" stroke="none" stroke-width="1" fill="none" fill-rule="evenodd">
        <g id="Upgrade">
            <path d="M45,40.6201 L25,52.2201 L5,40.6201 L5,17.3801 L25,5.7801 L45,17.3801 L45,40.6201 Z M25,0.0001 L0,14.5001 L0,43.5001 L25,58.0001 L50,43.5001 L50,14.5001 L25,0.0001 Z" id="Fill-1" fill="#D3E5EF"></path>
            <g id="Group-8">
                <path d="M13.7422,38.0781 C20.2652,36.8441 25.2012,31.1081 25.2012,24.2271 L21.3822,24.2271 L27.8462,16.0001 L34.3102,24.2271 L30.4902,24.2271 C30.4902,32.0141 24.1732,38.3311 16.3872,38.3311 C15.4822,38.3311 14.5942,38.2421 13.7422,38.0781" id="Fill-2" fill="#5BBF89"></path>
                <path d="M13.7422,38.0781 C20.2652,36.8441 25.2012,31.1081 25.2012,24.2271 L21.3822,24.2271 L27.8462,16.0001 L34.3102,24.2271 L30.4902,24.2271 C30.4902,32.0141 24.1732,38.3311 16.3872,38.3311 C15.4822,38.3311 14.5942,38.2421 13.7422,38.0781 Z" id="Stroke-4" stroke="#5BBF89" stroke-width="2" stroke-linecap="round" stroke-linejoin="round"></path>
                <path d="M51,43.5 C51,43.8565565 50.8101506,44.1861403 50.5017181,44.3650312 L25.5017181,58.8650312 C25.191445,59.0449896 24.808555,59.0449896 24.4982819,58.8650312 L-0.50171809,44.3650312 C-0.810150588,44.1861403 -1,43.8565565 -1,43.5 L-1,14.5 C-1,14.1434435 -0.810150588,13.8138597 -0.50171809,13.6349688 L24.4982819,-0.865031189 C24.808555,-1.0449896 25.191445,-1.0449896 25.5017181,-0.865031189 L50.5017181,13.6349688 C50.8101506,13.8138597 51,14.1434435 51,14.5 L51,43.5 Z M49,42.9239723 L49,15.0760277 L25,1.15602768 L1,15.0760277 L1,42.9239723 L25,56.8439723 L49,42.9239723 Z" id="Stroke-6" fill="#4B5E69" fill-rule="nonzero"></path>
            </g>
        </g>
    </g>
</svg>