<?xml version="1.0" encoding="UTF-8"?>
<svg width="60px" height="60px" viewBox="0 0 60 60" version="1.1" xmlns="http://www.w3.org/2000/svg" xmlns:xlink="http://www.w3.org/1999/xlink">
    <!-- Generator: Sketch 49.3 (51167) - http://www.bohemiancoding.com/sketch -->
    <title>Icon/ Upgrade to Cloud</title>
    <desc>Created with Sketch.</desc>
    <defs>
        <polygon id="path-1" points="0 11.3454 0 0 34.75 0 34.75 22.6908 0 22.6908"></polygon>
    </defs>
    <g id="Icon/-Upgrade-to-Cloud" stroke="none" stroke-width="1" fill="none" fill-rule="evenodd">
        <g id="Page-1">
            <g id="Group-3" transform="translate(0.000000, -0.000100)">
                <mask id="mask-2" fill="white">
                    <use xlink:href="#path-1"></use>
                </mask>
                <g id="Clip-2"></g>
                <path d="M34.75,7.0898 C34.75,8.2398 34.45,9.3108 33.91,10.2308 C33.3,10.0798 32.66,9.9998 32,9.9998 C28.6,9.9998 25.71,12.1198 24.55,15.1108 C22.939,12.6408 20.17,10.9998 17,10.9998 C12.03,10.9998 8,15.0298 8,19.9998 C8,20.9408 8.14,21.8398 8.41,22.6908 L4.25,22.6908 C1.91,22.6908 0,20.7798 0,18.4408 C0,16.0898 1.91,14.1798 4.25,14.1798 C4.32,14.1798 4.38,14.1908 4.45,14.1908 C4.33,13.7398 4.25,13.2598 4.25,12.7598 C4.25,12.2708 4.32,11.7998 4.43,11.3508 C5.06,8.9008 7.28,7.0898 9.93,7.0898 C10.83,7.0898 11.67,7.2998 12.42,7.6798 C12.189,7.0608 12.05,6.3798 12.05,5.6698 C12.05,4.4898 12.42,3.3798 13.05,2.4698 C14.06,0.9808 15.78,-0.0002 17.729,-0.0002 C20.14,-0.0002 22.189,1.4998 23.01,3.6198 C24.15,1.8698 26.12,0.7098 28.36,0.7098 C31.89,0.7098 34.75,3.5698 34.75,7.0898" id="Fill-1" fill="#D3E5EF" mask="url(#mask-2)"></path>
            </g>
            <path d="M60,23.2704 C60,24.7804 58.78,25.9994 57.27,25.9994 L50.75,25.9994 C49.86,22.5494 46.729,19.9994 43,19.9994 C41.729,19.9994 40.54,20.2994 39.479,20.8304 C39.81,19.9504 40,18.9994 40,17.9994 C40,16.3304 39.479,14.7704 38.6,13.4904 C39.34,12.5304 40.51,11.9104 41.82,11.9104 C43.26,11.9104 44.52,12.6504 45.25,13.7804 C45.78,12.4194 47.09,11.4504 48.64,11.4504 C50.64,11.4504 52.27,13.0804 52.27,15.0894 C52.27,15.5404 52.189,15.9804 52.03,16.3794 C52.52,16.1404 53.06,15.9994 53.64,15.9994 C55.64,15.9994 57.27,17.6294 57.27,19.6404 C57.27,19.9504 57.229,20.2594 57.15,20.5494 L57.27,20.5494 C58.78,20.5494 60,21.7704 60,23.2704" id="Fill-4" fill="#D3E5EF"></path>
            <path d="M39.9033,33.8515 L30.9863,23.4495 C30.4943,22.8725 29.5063,22.8725 29.0133,23.4495 L20.0963,33.8515 C19.7653,34.2365 19.6903,34.7805 19.9023,35.2415 C20.1153,35.7025 20.5753,35.9975 21.0843,35.9975 L26.0993,35.9975 L26.0993,47.7005 C26.0993,48.4185 26.6803,48.9995 27.3993,48.9995 L32.6003,48.9995 C33.3193,48.9995 33.9003,48.4185 33.9003,47.7005 L33.9003,35.9975 L38.9163,35.9975 C39.4243,35.9975 39.8843,35.7025 40.0973,35.2415 C40.3093,34.7805 40.2343,34.2365 39.9033,33.8515" id="Fill-6" fill="#53C27C"></path>
            <path d="M51,42.9999 L38,42.9999 C37.447,42.9999 37,42.5529 37,41.9999 C37,41.4469 37.447,40.9999 38,40.9999 L51,40.9999 C53.757,40.9999 56,38.7569 56,35.9999 C56,33.2429 53.757,30.9999 51,30.9999 C50.856,31.0069 50.794,31.0099 50.73,31.0099 C50.42,31.0099 50.127,30.8649 49.938,30.6189 C49.748,30.3729 49.685,30.0529 49.764,29.7529 C49.921,29.1629 50,28.5729 50,27.9999 C50,27.4179 49.926,26.8269 49.78,26.2419 C48.984,23.1589 46.196,20.9999 43,20.9999 C41.922,20.9999 40.889,21.2439 39.928,21.7249 C39.561,21.9049 39.118,21.8489 38.812,21.5729 C38.506,21.2989 38.399,20.8649 38.544,20.4789 C38.847,19.6709 39,18.8359 39,17.9999 C39,16.5849 38.577,15.2209 37.775,14.0569 C36.795,12.6179 35.34,11.6049 33.675,11.2019 C33.129,11.0669 32.566,10.9999 32,10.9999 C29.095,10.9999 26.536,12.7559 25.482,15.4719 C25.347,15.8219 25.026,16.0659 24.653,16.1039 C24.273,16.1469 23.916,15.9699 23.712,15.6559 C22.22,13.3669 19.711,11.9999 17,11.9999 C12.589,11.9999 9,15.5889 9,19.9999 C9,20.8259 9.122,21.6299 9.363,22.3879 C9.719,23.5009 10.29,24.4979 11.062,25.3499 C11.339,25.6549 11.399,26.1009 11.214,26.4699 C11.028,26.8389 10.633,27.0459 10.224,27.0159 C10.146,27.0079 10.076,26.9999 10,26.9999 C6.141,26.9999 3,30.1409 3,33.9999 C3,37.8589 6.141,40.9999 10,40.9999 L22,40.9999 C22.553,40.9999 23,41.4469 23,41.9999 C23,42.5529 22.553,42.9999 22,42.9999 L10,42.9999 C5.037,42.9999 1,38.9629 1,33.9999 C1,29.5739 4.211,25.8849 8.425,25.1379 C8.023,24.4709 7.7,23.7539 7.458,22.9949 C7.154,22.0399 7,21.0319 7,19.9999 C7,14.4859 11.486,9.9999 17,9.9999 C19.829,9.9999 22.482,11.1889 24.365,13.2439 C25.983,10.6219 28.831,8.9999 32,8.9999 C32.728,8.9999 33.45,9.0869 34.149,9.2599 C36.293,9.7779 38.169,11.0819 39.426,12.9269 C40.455,14.4229 41,16.1779 41,17.9999 C41,18.4169 40.971,18.8329 40.912,19.2459 C41.59,19.0829 42.287,18.9999 43,18.9999 C47.108,18.9999 50.693,21.7749 51.719,25.7499 C51.906,26.4999 52,27.2549 52,27.9999 C52,28.3519 51.978,28.7059 51.933,29.0619 C55.354,29.5199 58,32.4559 58,35.9999 C58,39.8589 54.859,42.9999 51,42.9999" id="Fill-8" fill="#4F5661"></path>
            <path d="M23,54.9999 C22.447,54.9999 22,54.5529 22,53.9999 L22,45.9999 C22,45.4469 22.447,44.9999 23,44.9999 C23.553,44.9999 24,45.4469 24,45.9999 L24,53.9999 C24,54.5529 23.553,54.9999 23,54.9999" id="Fill-10" fill="#D3E5EF"></path>
            <path d="M37,54.9999 C36.447,54.9999 36,54.5529 36,53.9999 L36,45.9999 C36,45.4469 36.447,44.9999 37,44.9999 C37.553,44.9999 38,45.4469 38,45.9999 L38,53.9999 C38,54.5529 37.553,54.9999 37,54.9999" id="Fill-12" fill="#D3E5EF"></path>
            <path d="M30,59.9999 C29.447,59.9999 29,59.5529 29,58.9999 L29,51.9999 C29,51.4469 29.447,50.9999 30,50.9999 C30.553,50.9999 31,51.4469 31,51.9999 L31,58.9999 C31,59.5529 30.553,59.9999 30,59.9999" id="Fill-14" fill="#D3E5EF"></path>
        </g>
    </g>
</svg>