<?xml version="1.0" encoding="UTF-8"?>
<svg width="59px" height="49px" viewBox="0 0 59 49" version="1.1" xmlns="http://www.w3.org/2000/svg" xmlns:xlink="http://www.w3.org/1999/xlink">
    <!-- Generator: Sketch 49.3 (51167) - http://www.bohemiancoding.com/sketch -->
    <title>Icon/ USA</title>
    <desc>Created with Sketch.</desc>
    <defs></defs>
    <g id="Icon/-USA" stroke="none" stroke-width="1" fill="none" fill-rule="evenodd">
        <g id="USA">
            <path d="M58,38.8202 L58,45.4002 C56.271,46.1392 54.552,46.7102 52.842,47.1302 C44.472,49.2102 35.169,47.9102 26.477,46.5302 L24.624,46.2302 C17.309,45.0802 8.787,44.0702 0,46.5202 L0,39.5702 C0.171,39.5702 0.342,39.5602 0.513,39.5092 C2.489,38.9292 4.446,38.5402 6.384,38.2992 C9.681,38.0402 13.253,38.0202 17.091,38.2702 C19.456,38.4902 21.783,38.8302 24.063,39.1902 L26.382,39.5602 C31.73,40.4102 37.174,41.2802 42.693,41.2802 C45.41,41.2802 49.155,41.0702 51.91,40.5302 C53.934,40.1392 55.957,39.5902 58,38.8202" id="Fill-1" fill="#F4877A"></path>
            <path d="M58,25.8202 L58,32.4002 C56.271,33.1392 54.552,33.7102 52.842,34.1302 C44.472,36.2102 35.169,34.9102 26.477,33.5302 L24.624,33.2302 C17.309,32.0802 8.787,31.0702 0,33.5202 L0,26.5702 C0.171,26.5702 0.342,26.5602 0.513,26.5092 C2.489,25.9292 4.446,25.5402 6.384,25.2992 C9.681,25.0402 13.253,25.0202 17.091,25.2702 C19.456,25.4902 21.783,25.8302 24.063,26.1902 L26.382,26.5602 C31.73,27.4102 37.174,28.2802 42.693,28.2802 C45.41,28.2802 49.155,28.0702 51.91,27.5302 C53.934,27.1392 55.957,26.5902 58,25.8202" id="Fill-3" fill="#F4877A"></path>
            <path d="M58,13.4101 L58,19.6601 C56.347,20.4401 54.665,21.0301 52.946,21.4701 C45.46,23.3491 36.404,22.2301 28.5,20.9301 L28.5,15.0001 C36.936,16.4101 46.268,17.5901 54.761,14.7001 C54.979,14.6301 55.187,14.5501 55.406,14.4801 C56.3,14.1301 57.534,13.6101 57.896,13.4501 C57.934,13.4401 57.962,13.4301 58,13.4101" id="Fill-5" fill="#F4877A"></path>
            <path d="M58,0.58 L58,7.402 C56.347,8.254 54.665,8.898 52.946,9.379 C45.46,11.431 36.404,10.208 28.5,8.789 L28.5,2.315 C36.936,3.854 46.268,5.143 54.761,1.988 C54.979,1.912 55.187,1.824 55.406,1.748 C56.3,1.366 57.534,0.799 57.896,0.624 C57.934,0.613 57.962,0.601 58,0.58" id="Fill-7" fill="#F4877A"></path>
            <path d="M58.3092773,1.70364767 L57.927,0.7796 L58.1574664,1.75268029 C58.1902495,1.74491587 58.2216395,1.73645011 58.2522955,1.72709979 C58.2722413,1.71892871 58.2912536,1.71110402 58.3092773,1.70364767 Z M55.7013479,2.70842629 C55.6276398,2.73053871 55.5622296,2.75136683 55.4302588,2.79429636 C55.2354887,2.85758903 55.1449008,2.88611314 55.0640324,2.90952903 C51.6781991,3.97445052 47.857912,4.40053859 43.5536753,4.30137195 C39.6402688,4.21120977 35.7839189,3.73943312 30.4435792,2.82879358 C30.0327801,2.75874375 29.6090629,2.68556673 29.1119098,2.59898755 C28.8046237,2.54547369 28.4615604,2.485496 27.8279046,2.37468029 C27.2838598,2.27963461 26.919874,1.7615494 27.0149197,1.21750458 C27.1099654,0.673459766 27.6280506,0.309474042 28.1720954,0.404519715 C28.8062531,0.515423081 29.1485213,0.575261758 29.4550452,0.628642888 C29.9500584,0.714849415 30.3715595,0.787643685 30.7797683,0.857251823 C36.031938,1.75285653 39.8053059,2.21448138 43.5997417,2.30190255 C47.7007371,2.39638665 51.3091661,1.99392775 54.4834951,0.995747398 C54.5600422,0.973377482 54.6351098,0.94974033 54.7606574,0.908953461 C54.9576536,0.844875834 55.0337852,0.82063379 55.0710016,0.811264006 C55.8294898,0.534302174 57.0695827,0.0521171175 57.5447227,-0.144447672 C58.2906717,-0.47815781 59.0597866,0.03491681 59.03127,0.78080387 L59,1.5796 L59,45.4006 C59,45.8009834 58.7611849,46.1627708 58.3930205,46.3201297 C56.6391434,47.0697625 54.8697279,47.661283 53.0831713,48.1000826 C45.8732324,49.8917997 38.9497367,49.52338 26.3171814,47.5177464 L24.4685645,47.218446 C14.2460888,45.6099608 7.51317903,45.4639111 0.268576634,47.4838583 C-0.368834891,47.661582 -1,47.1823244 -1,46.5206 L-1,26.5796 C-1,26.0273153 -0.55228475,25.5796 0,25.5796 C0.55228475,25.5796 1,26.0273153 1,26.5796 L1,45.2233997 C8.1102928,43.4635739 14.8834832,43.685647 24.7838186,45.2434536 L26.6338027,45.5429701 C39.0048571,47.5070813 45.7353607,47.8652314 52.6034753,46.1584636 C54.0811549,45.7955247 55.5454834,45.322012 57.0000111,44.7335542 L57.0007187,2.22022947 C56.5541965,2.39208816 56.0836833,2.56964942 55.7013479,2.70842629 Z" id="Stroke-9" fill="#4B5E69" fill-rule="nonzero"></path>
            <path d="M28,1.3896 L28,25.9906 C20.503,25.1196 13.726,24.8696 7.659,25.2496 C4.97,25.4106 2.431,25.7006 0.032,26.1196 L0,1.1296 C3.303,0.3796 7.271,-0.0004 11.778,-0.0004 C14.479,-0.0004 17.361,0.1396 20.255,0.4196 C21.288,0.5096 22.32,0.6196 23.354,0.7496 C24.439,0.8796 25.516,1.0306 26.602,1.1906 C27.075,1.2496 27.537,1.3206 28,1.3896" id="Fill-11" fill="#D3E5EF"></path>
            <path d="M26.4562438,2.17992053 C25.2070655,1.99587954 24.2048389,1.85869614 23.2292567,1.74178905 C22.2057592,1.61310948 21.1864285,1.50453879 20.1586978,1.41495214 C17.3183169,1.14013989 14.4676158,0.9996 11.778,0.9996 C7.69053949,0.9996 4.06526307,1.31615624 1.00103521,1.9373934 L1.03049268,24.9418332 C3.11997007,24.618523 5.30734824,24.3886115 7.59648858,24.2515558 C13.4126498,23.8872668 19.8746786,24.0949393 27,24.8716728 L27,2.25278503 C26.8028163,2.22471989 26.6412362,2.20312682 26.4562438,2.17992053 Z M29,1.3896 L29,25.9906 C29,26.5886137 28.4786146,27.0529316 27.8845964,26.9839187 C20.4290438,26.117734 13.7137143,25.8723291 7.71876653,26.2478124 C5.06917496,26.4064529 2.56731259,26.69193 0.204051623,27.1046879 C-0.407260935,27.2114574 -0.967204538,26.7414465 -0.96799918,26.1208805 L-0.99999918,1.13088051 C-1.00059776,0.663429361 -0.677277362,0.257931307 -0.221429687,0.15442366 C3.15814165,-0.61296311 7.19826169,-1.0004 11.778,-1.0004 C14.5326342,-1.0004 17.4475788,-0.856692899 20.3417961,-0.576626099 C21.385451,-0.485697789 22.4300831,-0.374432207 23.4729648,-0.243298473 C24.4632481,-0.124647013 25.4822188,0.0148282803 26.7257765,0.198289881 C27.0750092,0.241851671 27.3522688,0.281564311 27.9496077,0.370961075 C28.0898648,0.39194126 28.0898648,0.39194126 28.1474002,0.400523071 C28.6373464,0.473538812 29,0.89424298 29,1.3896 Z" id="Stroke-13" fill="#4B5E69" fill-rule="nonzero"></path>
            <polygon id="Fill-15" fill="#FFFFFF" points="7 3.58 8.082 5.885 10.5 6.254 8.75 8.048 9.163 10.58 7 9.385 4.837 10.58 5.25 8.048 3.5 6.254 5.918 5.885"></polygon>
            <polygon id="Fill-17" fill="#FFFFFF" points="21 3.58 22.082 5.885 24.5 6.254 22.75 8.048 23.163 10.58 21 9.385 18.837 10.58 19.25 8.048 17.5 6.254 19.918 5.885"></polygon>
            <polygon id="Fill-19" fill="#FFFFFF" points="7 14.58 8.082 16.885 10.5 17.254 8.75 19.048 9.163 21.58 7 20.385 4.837 21.58 5.25 19.048 3.5 17.254 5.918 16.885"></polygon>
            <polygon id="Fill-21" fill="#FFFFFF" points="21 14.58 22.082 16.885 24.5 17.254 22.75 19.048 23.163 21.58 21 20.385 18.837 21.58 19.25 19.048 17.5 17.254 19.918 16.885"></polygon>
            <polygon id="Fill-23" fill="#FFFFFF" points="14 8.58 15.082 10.885 17.5 11.254 15.75 13.048 16.163 15.58 14 14.385 11.837 15.58 12.25 13.048 10.5 11.254 12.918 10.885"></polygon>
        </g>
    </g>
</svg>