<?xml version="1.0" encoding="UTF-8"?>
<svg width="60px" height="60px" viewBox="0 0 60 60" version="1.1" xmlns="http://www.w3.org/2000/svg" xmlns:xlink="http://www.w3.org/1999/xlink">
    <!-- Generator: Sketch 49.3 (51167) - http://www.bohemiancoding.com/sketch -->
    <title>Icon/ vehicle and mileage</title>
    <desc>Created with Sketch.</desc>
    <defs></defs>
    <g id="Icon/-vehicle-and-mileage" stroke="none" stroke-width="1" fill="none" fill-rule="evenodd">
        <g id="vehicle-and-mileage">
            <path d="M36.7017,15.1699 C36.2477,15.0309 35.7617,15.2259 35.5327,15.6399 L26.6087,31.7049 C26.4097,32.0619 26.4487,32.5029 26.7057,32.8199 C26.9627,33.1379 27.3887,33.2659 27.7777,33.1459 C27.8147,33.1339 31.5557,32.0239 33.9187,35.0699 C34.1117,35.3179 34.4057,35.4569 34.7087,35.4569 C34.8027,35.4569 34.8967,35.4439 34.9897,35.4169 C35.3837,35.3019 35.6667,34.9579 35.7047,34.5489 L37.4017,16.2169 C37.4457,15.7459 37.1537,15.3099 36.7017,15.1699" id="Fill-1" fill="#F4877A"></path>
            <path d="M30,58 C17.709,58 7.25,50.036 3.492,39 L24.35,39 C25.176,41.326 27.394,43 30,43 C32.606,43 34.824,41.326 35.65,39 L56.508,39 C52.75,50.036 42.291,58 30,58 M26,37 C26,34.794 27.794,33 30,33 C32.206,33 34,34.794 34,37 C34,39.206 32.206,41 30,41 C27.794,41 26,39.206 26,37 M30,2 C45.439,2 58,14.561 58,30 C58,32.416 57.692,34.762 57.114,37 L36,37 C36,33.691 33.309,31 30,31 C26.691,31 24,33.691 24,37 L2.886,37 C2.308,34.762 2,32.416 2,30 C2,14.561 14.561,2 30,2 M58.811,38.344 C59.58,35.693 60,32.896 60,30 C60,13.458 46.542,0 30,0 C13.458,0 0,13.458 0,30 C0,32.896 0.42,35.693 1.189,38.344 C1.196,38.361 1.198,38.382 1.205,38.399 C4.848,50.864 16.374,60 30,60 C43.626,60 55.152,50.864 58.795,38.399 C58.802,38.382 58.804,38.361 58.811,38.344" id="Fill-3" fill="#4F5661"></path>
            <path d="M17,46 L19,46 C19.552,46 20,46.447 20,47 L20,50 C20,50.553 19.552,51 19,51 L17,51 C16.448,51 16,50.553 16,50 L16,47 C16,46.447 16.448,46 17,46" id="Fill-5" fill="#D3E5EF"></path>
            <path d="M23,46 L25,46 C25.552,46 26,46.447 26,47 L26,50 C26,50.553 25.552,51 25,51 L23,51 C22.448,51 22,50.553 22,50 L22,47 C22,46.447 22.448,46 23,46" id="Fill-7" fill="#D3E5EF"></path>
            <path d="M29,46 L31,46 C31.552,46 32,46.447 32,47 L32,50 C32,50.553 31.552,51 31,51 L29,51 C28.448,51 28,50.553 28,50 L28,47 C28,46.447 28.448,46 29,46" id="Fill-9" fill="#F4877A"></path>
            <path d="M35,46 L37,46 C37.552,46 38,46.447 38,47 L38,50 C38,50.553 37.552,51 37,51 L35,51 C34.448,51 34,50.553 34,50 L34,47 C34,46.447 34.448,46 35,46" id="Fill-11" fill="#F4877A"></path>
            <path d="M41,46 L43,46 C43.552,46 44,46.447 44,47 L44,50 C44,50.553 43.552,51 43,51 L41,51 C40.448,51 40,50.553 40,50 L40,47 C40,46.447 40.448,46 41,46" id="Fill-13" fill="#F4877A"></path>
            <path d="M30,9 C29.448,9 29,8.553 29,8 L29,5 C29,4.447 29.448,4 30,4 C30.552,4 31,4.447 31,5 L31,8 C31,8.553 30.552,9 30,9" id="Fill-15" fill="#4F5661"></path>
            <path d="M21.2075,10.834 C20.8215,10.834 20.4545,10.609 20.2905,10.233 L19.0915,7.483 C18.8705,6.978 19.1025,6.388 19.6075,6.167 C20.1145,5.946 20.7035,6.179 20.9245,6.685 L22.1235,9.435 C22.3445,9.94 22.1125,10.53 21.6065,10.751 C21.4765,10.808 21.3405,10.834 21.2075,10.834" id="Fill-17" fill="#4F5661"></path>
            <path d="M13.8799,16.0283 C13.6359,16.0283 13.3919,15.9393 13.1999,15.7603 L11.0019,13.7193 C10.5969,13.3443 10.5729,12.7123 10.9489,12.3063 C11.3249,11.9023 11.9579,11.8803 12.3619,12.2553 L14.5599,14.2963 C14.9649,14.6713 14.9879,15.3033 14.6129,15.7093 C14.4159,15.9213 14.1479,16.0283 13.8799,16.0283" id="Fill-19" fill="#4F5661"></path>
            <path d="M9.2397,23.7197 C9.1297,23.7197 9.0177,23.7017 8.9087,23.6627 L6.0777,22.6697 C5.5567,22.4877 5.2817,21.9167 5.4647,21.3957 C5.6477,20.8747 6.2187,20.5987 6.7397,20.7827 L9.5707,21.7767 C10.0917,21.9587 10.3657,22.5297 10.1837,23.0507 C10.0387,23.4617 9.6527,23.7197 9.2397,23.7197" id="Fill-21" fill="#4F5661"></path>
            <path d="M5.0674,32.8447 C4.5484,32.8447 4.1094,32.4447 4.0714,31.9177 C4.0304,31.3667 4.4434,30.8877 4.9944,30.8477 L7.9864,30.6267 C8.5424,30.5737 9.0164,30.9987 9.0574,31.5507 C9.0984,32.1017 8.6844,32.5807 8.1334,32.6207 L5.1424,32.8417 C5.1164,32.8437 5.0914,32.8447 5.0674,32.8447" id="Fill-23" fill="#4F5661"></path>
            <path d="M38.8608,10.834 C38.7278,10.834 38.5918,10.808 38.4618,10.751 C37.9558,10.53 37.7238,9.94 37.9448,9.435 L39.1438,6.685 C39.3628,6.178 39.9538,5.945 40.4598,6.167 C40.9658,6.388 41.1968,6.978 40.9768,7.483 L39.7778,10.233 C39.6138,10.609 39.2468,10.834 38.8608,10.834" id="Fill-25" fill="#4F5661"></path>
            <path d="M46.1885,16.0283 C45.9205,16.0283 45.6525,15.9213 45.4555,15.7093 C45.0805,15.3033 45.1035,14.6713 45.5085,14.2963 L47.7065,12.2553 C48.1105,11.8793 48.7425,11.9013 49.1195,12.3063 C49.4955,12.7123 49.4715,13.3443 49.0665,13.7193 L46.8685,15.7603 C46.6765,15.9393 46.4325,16.0283 46.1885,16.0283" id="Fill-27" fill="#D3E5EF"></path>
            <path d="M50.8286,23.7197 C50.4156,23.7197 50.0296,23.4627 49.8846,23.0507 C49.7026,22.5297 49.9766,21.9587 50.4976,21.7767 L53.3286,20.7827 C53.8486,20.5977 54.4206,20.8737 54.6036,21.3957 C54.7866,21.9167 54.5116,22.4877 53.9906,22.6697 L51.1596,23.6627 C51.0506,23.7017 50.9386,23.7197 50.8286,23.7197" id="Fill-29" fill="#D3E5EF"></path>
            <path d="M55.001,32.8447 C54.977,32.8447 54.952,32.8437 54.926,32.8417 L51.935,32.6207 C51.384,32.5807 50.97,32.1017 51.011,31.5507 C51.052,30.9987 51.509,30.5747 52.082,30.6267 L55.074,30.8477 C55.625,30.8877 56.038,31.3667 55.997,31.9177 C55.959,32.4447 55.52,32.8447 55.001,32.8447" id="Fill-31" fill="#D3E5EF"></path>
        </g>
    </g>
</svg>