<?xml version="1.0" encoding="UTF-8"?>
<svg width="59px" height="40px" viewBox="0 0 59 40" version="1.1" xmlns="http://www.w3.org/2000/svg" xmlns:xlink="http://www.w3.org/1999/xlink">
    <!-- Generator: Sketch 49.3 (51167) - http://www.bohemiancoding.com/sketch -->
    <title>Icon/ W2</title>
    <desc>Created with Sketch.</desc>
    <defs></defs>
    <g id="Icon/-W2" stroke="none" stroke-width="1" fill="none" fill-rule="evenodd">
        <g id="W2" transform="translate(-1.000000, -1.000000)">
            <path d="M54,27.6387 C54,25.4637 51.719,24.4857 49.743,23.8277 C48.093,23.2717 47.34,22.7327 47.34,21.9407 C47.34,21.4007 47.971,20.7597 49.132,20.7597 C50.252,20.7597 51.801,21.6027 51.963,21.6867 C52.208,21.8227 52.513,21.6867 52.676,21.4847 L53.45,20.5237 C53.592,20.3557 53.531,20.0687 53.328,19.9677 C52.995,19.7607 51.864,19.1437 50.33,18.9227 L50.33,17.3207 C50.33,17.0407 50.103,16.8147 49.824,16.8147 L48.813,16.8147 C48.533,16.8147 48.307,17.0407 48.307,17.3207 L48.307,18.9037 C45.76,19.2097 44.672,20.7327 44.672,22.0757 C44.672,24.0647 46.586,25.0757 48.501,25.7167 C50.212,26.2897 51.087,26.8797 51.087,27.7397 C51.087,28.4647 50.293,29.0377 49.234,29.0377 C47.91,29.0377 46.261,28.0427 46.158,27.9927 C45.976,27.8747 45.629,27.8747 45.466,28.1107 L44.733,29.1567 C44.549,29.4257 44.651,29.5097 44.834,29.6617 C45.185,29.9377 46.354,30.7077 48.307,30.9197 L48.307,32.4937 C48.307,32.7737 48.533,32.9997 48.813,32.9997 L49.824,32.9997 C50.103,32.9997 50.33,32.7737 50.33,32.4937 L50.33,30.9057 C52.607,30.5777 54,29.1607 54,27.6387" id="Fill-1" fill="#D3E5EF"></path>
            <path d="M9,28 L18,28 C18.5522847,28 19,27.5522847 19,27 C19,26.4477153 18.5522847,26 18,26 L9,26 C8.44771525,26 8,26.4477153 8,27 C8,27.5522847 8.44771525,28 9,28 Z" id="Stroke-3" fill="#4B5E69" fill-rule="nonzero"></path>
            <path d="M9,33 L21,33 C21.5522847,33 22,32.5522847 22,32 C22,31.4477153 21.5522847,31 21,31 L9,31 C8.44771525,31 8,31.4477153 8,32 C8,32.5522847 8.44771525,33 9,33 Z" id="Stroke-5" fill="#4B5E69" fill-rule="nonzero"></path>
            <path d="M27,28 L36,28 C36.5522847,28 37,27.5522847 37,27 C37,26.4477153 36.5522847,26 36,26 L27,26 C26.4477153,26 26,26.4477153 26,27 C26,27.5522847 26.4477153,28 27,28 Z" id="Stroke-7" fill="#4B5E69" fill-rule="nonzero"></path>
            <path d="M27,33 L39,33 C39.5522847,33 40,32.5522847 40,32 C40,31.4477153 39.5522847,31 39,31 L27,31 C26.4477153,31 26,31.4477153 26,32 C26,32.5522847 26.4477153,33 27,33 Z" id="Stroke-9" fill="#4B5E69" fill-rule="nonzero"></path>
            <path d="M50.9375,0 C51.2027165,0 51.4570704,0.10535684 51.6446068,0.292893219 L60.7076068,9.35589322 C60.8951432,9.5434296 61.0005,9.79778351 61.0005,10.063 L61.0005,41 C61.0005,41.5522847 60.5527847,42 60.0005,42 L1.9995,42 C1.44721525,42 0.9995,41.5522847 0.9995,41 L0.9995,1 C0.9995,0.44771525 1.44721525,0 1.9995,0 L50.9375,0 Z M50.5232864,2 L2.9995,2 L2.9995,40 L59.0005,40 L59.0005,10.4772136 L50.5232864,2 Z" id="Stroke-11" fill="#4B5E69" fill-rule="nonzero"></path>
            <path d="M51,1 C51,0.44771525 50.5522847,0 50,0 C49.4477153,0 49,0.44771525 49,1 L49,11 C49,11.5522847 49.4477153,12 50,12 L60,12 C60.5522847,12 61,11.5522847 61,11 C61,10.4477153 60.5522847,10 60,10 L51,10 L51,1 Z" id="Stroke-13" fill="#4B5E69" fill-rule="nonzero"></path>
            <polygon id="Fill-15" fill="#5BBF89" points="10.4009 8.2217 13.4759 8.2217 15.3059 14.2967 17.3309 8.1927 19.8359 8.1927 21.8599 14.2967 23.6909 8.2217 26.7049 8.2217 23.1949 18.7967 20.6599 18.7967 18.5609 12.7517 16.4449 18.7967 13.9109 18.7967"></polygon>
            <path d="M27.7256,16.5322 L31.6556,13.5322 C32.6306,12.7662 33.0196,12.2712 33.0196,11.6412 C33.0196,10.9672 32.5556,10.5622 31.8356,10.5622 C31.1306,10.5622 30.5756,10.9822 29.7506,11.9272 L27.7856,10.2922 C28.9106,8.8372 30.0356,8.0422 32.0596,8.0422 C34.3546,8.0422 35.9306,9.4072 35.9306,11.3862 L35.9306,11.4172 C35.9306,13.0962 35.0596,13.9672 33.4996,15.0922 L31.7006,16.3512 L36.0356,16.3512 L36.0356,18.7212 L27.7256,18.7212 L27.7256,16.5322 Z" id="Fill-17" fill="#5BBF89"></path>
        </g>
    </g>
</svg>