<?xml version="1.0" encoding="UTF-8"?>
<svg width="58px" height="32px" viewBox="0 0 58 32" version="1.1" xmlns="http://www.w3.org/2000/svg" xmlns:xlink="http://www.w3.org/1999/xlink">
    <!-- Generator: Sketch 49.3 (51167) - http://www.bohemiancoding.com/sketch -->
    <title>Icon/ Wages and Income</title>
    <desc>Created with Sketch.</desc>
    <defs></defs>
    <g id="Icon/-Wages-and-Income" stroke="none" stroke-width="1" fill="none" fill-rule="evenodd">
        <g id="Wages-and-Income">
            <path d="M53,13.2114 C53,11.6054 51.962,10.6614 49.632,10.1514 C47.599,9.7144 47.441,9.2864 47.441,8.7294 C47.441,8.0934 48.081,7.6494 48.997,7.6494 C49.881,7.6494 50.648,7.9404 51.413,8.5654 L51.756,8.8474 L52.885,7.3484 L52.563,7.0874 C51.734,6.4214 50.918,6.0494 49.954,5.9114 L49.954,4.6154 C49.954,4.2764 49.679,4.0004 49.341,4.0004 L48.728,4.0004 C48.389,4.0004 48.114,4.2764 48.114,4.6154 L48.114,5.9494 C46.583,6.2704 45.539,7.3854 45.539,8.8494 C45.539,10.9214 47.203,11.5694 49.003,11.9624 C50.939,12.3724 51.084,12.7764 51.084,13.3444 C51.084,14.0274 50.406,14.5044 49.436,14.5044 C48.32,14.5044 47.478,14.1534 46.531,13.2944 L46.204,12.9974 L45,14.4264 L45.31,14.7044 C46.181,15.4854 47.094,15.9634 48.114,16.1754 L48.114,17.5384 C48.114,17.8784 48.389,18.1534 48.728,18.1534 L49.341,18.1534 C49.679,18.1534 49.954,17.8784 49.954,17.5384 L49.954,16.2654 C51.77,16.0594 53,14.8684 53,13.2114" id="Fill-1" fill="#5BBF89"></path>
            <path d="M9,33 C8.73478351,33 8.4804296,32.8946432 8.29289322,32.7071068 L-0.707106781,23.7071068 C-0.89464316,23.5195704 -1,23.2652165 -1,23 L-1,0 C-1,-0.55228475 -0.55228475,-1 0,-1 L58,-1 C58.5522847,-1 59,-0.55228475 59,0 L59,32 C59,32.5522847 58.5522847,33 58,33 L9,33 Z M57,31 L57,1 L1,1 L1,22.5857864 L9.41421356,31 L57,31 Z" id="Stroke-3" fill="#4B5E69" fill-rule="nonzero"></path>
            <path d="M9,32 C9,32.5522847 9.44771525,33 10,33 C10.5522847,33 11,32.5522847 11,32 L11,22 C11,21.4477153 10.5522847,21 10,21 L0,21 C-0.55228475,21 -1,21.4477153 -1,22 C-1,22.5522847 -0.55228475,23 0,23 L9,23 L9,32 Z" id="Stroke-5" fill="#4B5E69" fill-rule="nonzero"></path>
            <path d="M6,15 L41,15 C41.5522847,15 42,14.5522847 42,14 C42,13.4477153 41.5522847,13 41,13 L6,13 C5.44771525,13 5,13.4477153 5,14 C5,14.5522847 5.44771525,15 6,15 Z" id="Stroke-7" fill="#4B5E69" fill-rule="nonzero"></path>
            <path d="M16,27 L40,27 C40.5522847,27 41,26.5522847 41,26 C41,25.4477153 40.5522847,25 40,25 L16,25 C15.4477153,25 15,25.4477153 15,26 C15,26.5522847 15.4477153,27 16,27 Z" id="Stroke-9" fill="#4B5E69" fill-rule="nonzero"></path>
            <path d="M23.327798,20.7125462 C23.3847165,21.9603251 23.613786,22.8330439 24.2641054,23.4373198 C25.152834,24.2631254 26.4219346,24.1623444 27.9900016,23.2809215 C28.721872,22.8695314 30.0225812,21.9984129 30.75,21.5138897 C30.7502107,23.0778671 31.4670081,24.0306906 32.7826899,23.9255795 C33.456432,23.8717535 33.6897106,23.7680271 35.3988126,22.9032617 C35.8133509,22.6935151 36.1053103,22.5540548 36.3885222,22.4346394 C36.8974191,22.2200645 37.1360142,21.6335747 36.9214394,21.1246778 C36.7068645,20.6157809 36.1203747,20.3771858 35.6114778,20.5917606 C35.2764514,20.7330235 34.9482955,20.8897738 34.4958633,21.1186938 C33.406126,21.6700753 33.0265698,21.8504664 32.7725817,21.9089107 C32.7603097,21.8188075 32.75,21.6875587 32.75,21.5132 C32.75,19.5957971 31.9313479,18.5983432 30.3689915,19.3889332 C30.0727029,19.5388624 27.9054132,21.0341587 27.0099984,21.5374785 C26.4852421,21.8324482 26.0841396,21.9762127 25.8146153,21.997616 C25.6872101,22.0077334 25.6513973,21.9962539 25.6255011,21.9721913 C25.4818164,21.8386796 25.3600931,21.3749331 25.3257205,20.6214093 C25.3144037,20.37332 25.312,20.1665981 25.312,19.7212 C25.312,17.8168406 23.6762681,17.6099009 21.986571,18.5005755 C20.7483056,19.1532909 19.3215473,20.3899864 18.2155283,21.7890354 C17.8730208,22.2222872 17.9465836,22.8511643 18.3798354,23.1936717 C18.8130872,23.5361792 19.4419643,23.4626164 19.7844717,23.0293646 C20.7253597,21.8391966 21.9411543,20.7853617 22.919179,20.2698245 C23.0675804,20.1915991 23.2009486,20.131591 23.3129112,20.0881445 C23.3145071,20.3375778 23.3185619,20.5100686 23.327798,20.7125462 Z" id="Stroke-11" fill="#5BBF89" fill-rule="nonzero"></path>
            <path d="M45,27 L53,27 C53.5522847,27 54,26.5522847 54,26 C54,25.4477153 53.5522847,25 53,25 L45,25 C44.4477153,25 44,25.4477153 44,26 C44,26.5522847 44.4477153,27 45,27 Z" id="Stroke-13" fill="#4B5E69" fill-rule="nonzero"></path>
            <path d="M8,11 C8,11.5522847 8.44771525,12 9,12 C9.55228475,12 10,11.5522847 10,11 L10,6 C10,5.25661798 9.2176875,4.77312226 8.5527864,5.10557281 L6.5527864,6.10557281 C6.05880791,6.35256206 5.85858356,6.9532351 6.10557281,7.4472136 C6.35256206,7.94119209 6.9532351,8.14141644 7.4472136,7.89442719 L8,7.61803399 L8,11 Z" id="Stroke-15" fill="#D3E5EF" fill-rule="nonzero"></path>
            <path d="M14,10 L14,7 L13,7 L13,10 L14,10 Z M14,12 L13,12 C11.8949058,12 11,11.1044757 11,10 L11,7 C11,5.8955243 11.8949058,5 13,5 L14,5 C15.1050942,5 16,5.8955243 16,7 L16,10 C16,11.1044757 15.1050942,12 14,12 Z" id="Stroke-17" fill="#D3E5EF" fill-rule="nonzero"></path>
            <path d="M20,10 L20,7 L19,7 L19,10 L20,10 Z M20,12 L19,12 C17.8949058,12 17,11.1044757 17,10 L17,7 C17,5.8955243 17.8949058,5 19,5 L20,5 C21.1050942,5 22,5.8955243 22,7 L22,10 C22,11.1044757 21.1050942,12 20,12 Z" id="Stroke-19" fill="#D3E5EF" fill-rule="nonzero"></path>
            <path d="M27,10 L27,7 L26,7 L26,10 L27,10 Z M27,12 L26,12 C24.8949058,12 24,11.1044757 24,10 L24,7 C24,5.8955243 24.8949058,5 26,5 L27,5 C28.1050942,5 29,5.8955243 29,7 L29,10 C29,11.1044757 28.1050942,12 27,12 Z" id="Stroke-21" fill="#D3E5EF" fill-rule="nonzero"></path>
            <path d="M33,10 L33,7 L32,7 L32,10 L33,10 Z M33,12 L32,12 C30.8949058,12 30,11.1044757 30,10 L30,7 C30,5.8955243 30.8949058,5 32,5 L33,5 C34.1050942,5 35,5.8955243 35,7 L35,10 C35,11.1044757 34.1050942,12 33,12 Z" id="Stroke-23" fill="#D3E5EF" fill-rule="nonzero"></path>
            <path d="M39,10 L39,7 L38,7 L38,10 L39,10 Z M39,12 L38,12 C36.8949058,12 36,11.1044757 36,10 L36,7 C36,5.8955243 36.8949058,5 38,5 L39,5 C40.1050942,5 41,5.8955243 41,7 L41,10 C41,11.1044757 40.1050942,12 39,12 Z" id="Stroke-25" fill="#D3E5EF" fill-rule="nonzero"></path>
        </g>
    </g>
</svg>