<?xml version="1.0" encoding="UTF-8"?>
<svg width="51px" height="58px" viewBox="0 0 51 58" version="1.1" xmlns="http://www.w3.org/2000/svg" xmlns:xlink="http://www.w3.org/1999/xlink">
    <!-- Generator: Sketch 49.3 (51167) - http://www.bohemiancoding.com/sketch -->
    <title>Icon/ Welcome back 2</title>
    <desc>Created with Sketch.</desc>
    <defs></defs>
    <g id="Icon/-Welcome-back-2" stroke="none" stroke-width="1" fill="none" fill-rule="evenodd">
        <g id="Welcome-back-2" transform="translate(-1.000000, -1.000000)">
            <path d="M21,47 C21,44.791 23.463,43 26.5,43 C29.537,43 32,44.791 32,47" id="Fill-1" fill="#D3E5EF"></path>
            <path d="M4.26459944,59.9463309 C3.53671609,60.1949242 2.81240563,59.5630138 2.9599778,58.8081395 L5.31449726,46.7640914 C3.75812881,43.6009188 2.9414,40.1084732 2.9414,36.5 C2.9414,23.5240927 13.4787379,13 26.4704,13 C39.4629006,13 50.0004,23.5239314 50.0004,36.5 C50.0004,49.4760686 39.4629006,60 26.4704,60 C22.0569745,60 17.848406,58.7959451 14.2222806,56.5454939 L4.26459944,59.9463309 Z M14.0302006,54.4976691 C14.3209948,54.3983544 14.6413041,54.4382486 14.8988532,54.6058587 C18.2928671,56.814646 22.2756958,58 26.4704,58 C38.3589076,58 48.0004,48.3709219 48.0004,36.5 C48.0004,24.6290781 38.3589076,15 26.4704,15 C14.5827446,15 4.9414,24.6292257 4.9414,36.5 C4.9414,39.9103517 5.73749293,43.2022445 7.25188458,46.1659866 C7.35375489,46.365352 7.38577674,46.5931356 7.3428222,46.8128605 L5.25458531,57.4947963 L14.0302006,54.4976691 Z" id="Stroke-3" fill="#4B5E69" fill-rule="nonzero"></path>
            <path d="M18.665,38 L34.335,38 C37.0463785,38 38.7674298,41.0047449 37.3337341,43.3152115 C35.2265324,46.7114977 31.018365,49 26.5,49 C21.981635,49 17.7734676,46.7114977 15.6662961,43.3152601 C14.2325702,41.0047449 15.9536215,38 18.665,38 Z M18.665,40 C17.5076959,40 16.7661849,41.2945874 17.3657341,42.2607885 C19.1042339,45.0628187 22.6663815,47 26.5,47 C30.3336185,47 33.8957661,45.0628187 35.6342961,42.2607399 C36.2338151,41.2945874 35.4923041,40 34.335,40 L18.665,40 Z" id="Stroke-5" fill="#4B5E69" fill-rule="nonzero"></path>
            <path d="M22,31 C22,33.209 20.657,35 19,35 C17.343,35 16,33.209 16,31 C16,28.791 17.343,27 19,27 C20.657,27 22,28.791 22,31" id="Fill-7" fill="#5BBF89"></path>
            <path d="M37,31 C37,33.209 35.657,35 34,35 C32.343,35 31,33.209 31,31 C31,28.791 32.343,27 34,27 C35.657,27 37,28.791 37,31" id="Fill-9" fill="#5BBF89"></path>
            <path d="M6.06066017,11.9393398 L2.56066017,8.43933983 C1.97487373,7.85355339 1.02512627,7.85355339 0.439339828,8.43933983 C-0.146446609,9.02512627 -0.146446609,9.97487373 0.439339828,10.5606602 L3.93933983,14.0606602 C4.52512627,14.6464466 5.47487373,14.6464466 6.06066017,14.0606602 C6.64644661,13.4748737 6.64644661,12.5251263 6.06066017,11.9393398 Z" id="Stroke-11" fill="#D3E5EF" fill-rule="nonzero"></path>
            <path d="M28,7.5 L28,1.5 C28,0.671572875 27.3284271,0 26.5,0 C25.6715729,0 25,0.671572875 25,1.5 L25,7.5 C25,8.32842712 25.6715729,9 26.5,9 C27.3284271,9 28,8.32842712 28,7.5 Z" id="Stroke-13" fill="#D3E5EF" fill-rule="nonzero"></path>
            <path d="M16.9044938,8.97331484 L13.9044938,0.973314838 C13.6136136,0.197634349 12.7489953,-0.195373949 11.9733148,0.0955062336 C11.1976343,0.386386417 10.8046261,1.25100467 11.0955062,2.02668516 L14.0955062,10.0266852 C14.3863864,10.8023657 15.2510047,11.1953739 16.0266852,10.9044938 C16.8023657,10.6136136 17.1953739,9.74899533 16.9044938,8.97331484 Z" id="Stroke-15" fill="#D3E5EF" fill-rule="nonzero"></path>
            <path d="M49.0606602,14.0606602 L52.5606602,10.5606602 C53.1464466,9.97487373 53.1464466,9.02512627 52.5606602,8.43933983 C51.9748737,7.85355339 51.0251263,7.85355339 50.4393398,8.43933983 L46.9393398,11.9393398 C46.3535534,12.5251263 46.3535534,13.4748737 46.9393398,14.0606602 C47.5251263,14.6464466 48.4748737,14.6464466 49.0606602,14.0606602 Z" id="Stroke-17" fill="#D3E5EF" fill-rule="nonzero"></path>
            <path d="M38.892715,9.55708601 L41.892715,2.05708601 C42.2003851,1.28791074 41.8262613,0.414955074 41.057086,0.107284964 C40.2879107,-0.200385146 39.4149551,0.17373871 39.107285,0.942913985 L36.107285,8.44291399 C35.7996149,9.21208926 36.1737387,10.0850449 36.942914,10.392715 C37.7120893,10.7003851 38.5850449,10.3262613 38.892715,9.55708601 Z" id="Stroke-19" fill="#D3E5EF" fill-rule="nonzero"></path>
            <path d="M14.5891721,26.6379856 C14.865684,25.6474954 15.6120617,24.5341199 16.999897,24.0004772 C17.9663182,23.6255771 19.3014889,23.5545273 20.5619742,24.3444556 L21.6240258,22.6497444 C20.521452,21.9587768 19.3254679,21.6978657 18.1223611,21.7618879 C17.3653396,21.8021721 16.7389798,21.9564814 16.2793296,22.134794 C15.0678501,22.6006206 14.141453,23.4004017 13.4707486,24.4008949 C13.0484648,25.0308178 12.7948355,25.6273512 12.6628279,26.1002144 L14.5891721,26.6379856 Z" id="Stroke-21" fill="#4B5E69" fill-rule="nonzero"></path>
            <path d="M40.0549267,26.0964974 C39.9192314,25.6175727 39.6692304,25.0299157 39.2475514,24.4008949 C38.5767594,23.4002709 37.6502686,22.6005389 36.4355603,22.1336703 C35.9788287,21.9564847 35.3524983,21.8021735 34.5955719,21.7618883 C33.3925538,21.6978611 32.1967791,21.9588005 31.0945904,22.6498595 L32.1570096,24.3443405 C33.4166575,23.5545564 34.7515459,23.625602 35.7151296,23.999406 C37.1065031,24.5341805 37.8461563,25.637525 38.1306733,26.6417026 L40.0549267,26.0964974 Z" id="Stroke-23" fill="#4B5E69" fill-rule="nonzero"></path>
        </g>
    </g>
</svg>