<?xml version="1.0" encoding="UTF-8"?>
<svg width="60px" height="59px" viewBox="0 0 60 59" version="1.1" xmlns="http://www.w3.org/2000/svg" xmlns:xlink="http://www.w3.org/1999/xlink">
    <!-- Generator: Sketch 49.3 (51167) - http://www.bohemiancoding.com/sketch -->
    <title>Icon/ Welcome back</title>
    <desc>Created with Sketch.</desc>
    <defs>
        <polygon id="path-1" points="35.7284287 5.42101086e-20 59.645 5.42101086e-20 59.645 59 0 59 0 5.42101086e-20 35.7284287 5.42101086e-20 59.645092 -0.000476649293 59.645092 21.3734084 35.7284287 21.3734084"></polygon>
    </defs>
    <g id="Icon/-Welcome-back" stroke="none" stroke-width="1" fill="none" fill-rule="evenodd">
        <g id="Welcome-back">
            <g id="Page-1">
                <path d="M50.0498,14.396 C50.0498,14.396 51.2878,3.608 55.8128,3.74 C60.3358,3.872 53.3768,7.535 53.0668,14.484" id="Fill-1" fill="#D3E5EF"></path>
                <g id="Group-5">
                    <mask id="mask-2" fill="white">
                        <use xlink:href="#path-1"></use>
                    </mask>
                    <g id="Clip-4"></g>
                </g>
                <path d="M45.9727,12.6147 C45.9727,12.6147 47.3427,-0.0793 52.1447,0.0607 C56.9467,0.1997 49.5397,4.5327 49.1737,12.7077" id="Fill-6" fill="#D3E5EF"></path>
                <path d="M45.2568,11.0864 C45.2998,11.7884 46.1108,11.5354 46.1938,11.0424 C46.2768,10.5484 49.3098,11.2944 49.3098,11.2944 C49.3098,11.2944 49.2508,11.8894 49.8408,12.0044 C50.4298,12.1194 50.5908,11.3704 50.5908,11.3704 L53.5408,11.7494 C53.5408,11.7494 53.5058,11.9534 53.7908,11.8204 C54.0768,11.6874 54.1858,12.4444 54.1358,12.4824 C54.0868,12.5224 52.8348,15.2784 52.8348,15.2784 L41.7998,17.0324" id="Fill-8" fill="#D3E5EF"></path>
                <path d="M31.9063,29.7256 C33.1043,27.4026 33.7633,24.7766 33.7633,22.0006 C33.7633,12.6126 26.2003,5.0006 16.8823,5.0006 C7.5623,5.0006 0.0003,12.6126 0.0003,22.0006 C0.0003,31.3876 7.5623,38.9996 16.8823,38.9996 C20.2413,38.9996 23.3643,38.0176 25.9803,36.2986 L25.7873,36.2516 L33.7633,38.9996 L32.0753,29.5556" id="Fill-18" fill="#5BBF89"></path>
                <path d="M25.7002,15.3882 L24.7302,15.3882 C24.5392,15.3882 24.3882,15.5662 24.4002,15.7572 L24.6872,23.2742 C24.6992,23.4482 24.8442,23.6552 25.0172,23.6552 L25.7002,23.6552 L26.3832,23.6552 C26.5562,23.6552 26.7012,23.4562 26.7132,23.2832 L26.9992,15.7892 C27.0122,15.5982 26.8602,15.3882 26.6692,15.3882 L25.7002,15.3882 Z" id="Fill-20" fill="#FFFFFF"></path>
                <path d="M26.8574,26.3135 C26.8574,26.9525 26.3384,27.4705 25.7004,27.4705 C25.0604,27.4705 24.5434,26.9525 24.5434,26.3135 C24.5434,25.6745 25.0604,25.1555 25.7004,25.1555 C26.3384,25.1555 26.8574,25.6745 26.8574,26.3135" id="Fill-22" fill="#FFFFFF"></path>
                <path d="M6.6396,15.7754 C6.6396,15.6094 6.9376,15.4624 7.1026,15.4624 L9.0646,15.4624 C9.2446,15.4624 9.1756,15.6094 9.1756,15.7754 L9.1756,19.9004 L12.9796,19.9004 L12.9796,15.7754 C12.9796,15.6094 12.8816,15.4624 13.0626,15.4624 L15.0246,15.4624 C15.1896,15.4624 15.5156,15.6094 15.5156,15.7754 L15.5156,26.6874 C15.5156,26.8524 15.1896,26.8744 15.0246,26.8744 L13.0626,26.8744 C12.8816,26.8744 12.9796,26.8524 12.9796,26.6874 L12.9796,22.4364 L9.1756,22.4364 L9.1756,26.6874 C9.1756,26.8524 9.2446,26.8744 9.0646,26.8744 L7.1026,26.8744 C6.9376,26.8744 6.6396,26.8524 6.6396,26.6874 L6.6396,15.7754 Z" id="Fill-24" fill="#FFFFFF"></path>
                <path d="M18.0928,19.4517 C18.0928,19.2707 18.2518,19.2657 18.4138,19.2657 L20.1978,19.2657 C20.3598,19.2657 20.5868,19.2707 20.5868,19.4517 L20.5868,26.6867 C20.5868,26.8517 20.3598,26.8737 20.1978,26.8737 L18.4138,26.8737 C18.2518,26.8737 18.0928,26.8517 18.0928,26.6867 L18.0928,19.4517 Z M18.0508,16.7387 C18.0508,16.0367 18.5998,15.4627 19.2898,15.4627 C19.9808,15.4627 20.5448,16.0367 20.5448,16.7387 C20.5448,17.4397 19.9808,17.9977 19.2898,17.9977 C18.5998,17.9977 18.0508,17.4397 18.0508,16.7387 Z" id="Fill-26" fill="#FFFFFF"></path>
            </g>
            <path d="M52.0811,15.3672 C52.0811,15.3672 54.9901,7.4252 58.5501,8.3422 C62.1091,9.2592 55.9851,10.7852 54.4541,15.9782 C53.8941,17.8752 54.8961,20.3392 52.1891,21.1252 C49.4811,21.9112 40.2611,20.5792 40.2611,20.5792 C38.8271,15.8872 33.6571,12.4692 36.6401,10.1212 C38.2111,8.8842 41.9701,13.4122 41.9701,13.4122 C41.9701,13.4122 40.2321,1.3022 45.5081,0.1432 C50.7831,-1.0148 43.8051,4.9792 45.4871,12.6392" id="Fill-3" fill="#D3E5EF"></path>
            <path d="M52.5184582,21.4845675 C53.2045457,21.1736783 53.7466152,20.8575433 54.1423422,20.5817054 C55.1095889,20.8934219 55.510008,21.2946137 55.5862356,21.7459009 C55.642288,22.0777452 55.5353772,22.5025966 55.3039649,22.9446815 C55.1839819,23.1738945 55.0659424,23.3462249 55.0017983,23.425425 C54.6841832,23.8175906 54.7085396,24.3849542 55.0585949,24.7484574 C55.9587593,25.6921027 55.7777216,26.6176905 54.799387,27.6999649 C54.5931249,27.9281406 54.369513,28.1375396 54.1464261,28.3211933 C54.0157975,28.4287318 53.9189275,28.5006462 53.8736093,28.5315412 C53.5892281,28.7254142 53.4245321,29.0519068 53.4376237,29.3958369 L54.2746237,51.3848369 C54.3208508,52.5968546 53.5235656,53.6795955 52.3526061,53.9952706 L38.1257324,57.0217068 C37.5855465,57.1366746 37.240839,57.6677817 37.3558068,58.2079676 C37.4707746,58.7481535 38.0018817,59.092861 38.5420676,58.9778932 L52.8210676,55.9388932 C54.9444826,55.3679376 56.3549394,53.4524886 56.2731734,51.3086871 L55.4558891,29.8376419 C55.7110785,29.6252555 55.9965184,29.3581108 56.2830491,29.0411386 C57.706213,27.4667755 58.1788424,25.6678167 57.0146198,23.9863176 C57.0350212,23.9492623 57.0554645,23.9112156 57.075885,23.8722048 C57.4913077,23.0785904 57.6997554,22.2502428 57.5583008,21.412796 C57.3235563,20.0230491 56.1813009,19.016549 54.1754251,18.5129054 C53.8570447,18.4329651 53.5197055,18.5143723 53.2728261,18.7307218 C53.2268408,18.7710204 53.1068526,18.8637927 52.9145833,18.992284 C52.5762109,19.2184142 52.1684855,19.4474015 51.6929848,19.6628667 C49.0321169,20.8685949 45.6598418,21.1162215 41.5768167,19.7710194 C41.2944918,19.6780041 40.9854198,19.7154105 40.7334363,19.8730924 C37.7693782,21.7278889 37.6293555,23.9844411 39.3213581,25.7831868 C39.434718,25.9036982 39.5478198,26.0136314 39.6578774,26.1128907 C39.3020191,27.442794 39.6675184,28.6395336 40.5900259,29.5931945 C41.1492148,30.1712675 41.8492427,30.6086294 42.5943112,30.9323546 L44.2231901,42.4666249 C43.1464555,42.4724291 41.8670866,42.5341609 40.4456448,42.6801108 C37.6601068,42.9661226 34.9081908,43.5253081 32.3244783,44.4249651 C28.8375316,45.639131 25.8733412,47.4011107 23.6086856,49.8003896 C23.2295916,50.202019 23.2478602,50.8349203 23.6494896,51.2140144 C24.051119,51.5931084 24.6840203,51.5748398 25.0631144,51.1732104 C27.086915,49.0291042 29.7781211,47.4293924 32.9821549,46.3137376 C35.4060488,45.46973 38.0089971,44.9408144 40.6499256,44.6696508 C42.418359,44.4880727 43.9505825,44.4438033 45.1068277,44.4756826 C45.2174244,44.4787319 45.2909594,44.4816831 45.3249965,44.4834521 C45.9530848,44.5160961 46.4550213,43.9677235 46.3670751,43.3449667 L44.4930751,30.0749667 C44.4408327,29.7050329 44.1867326,29.3950725 43.8342314,29.2712856 C43.1452634,29.0293425 42.4718376,28.6619736 42.0275241,28.2026555 C41.4852437,27.642062 41.3592224,27.0414588 41.7533656,26.1847596 C41.9643508,25.726168 41.8004667,25.1822376 41.3712546,24.9165349 C41.2406164,24.8356636 41.0080278,24.657254 40.7781358,24.4128588 C39.9733251,23.5572751 39.9546798,22.8334277 41.4150369,21.8180646 C45.7879021,23.1566479 49.5184069,22.8439909 52.5184582,21.4845675 Z" id="Stroke-10" fill="#4B5E69" fill-rule="nonzero"></path>
            <path d="M55.0018204,23.4257918 C54.8967338,23.5557038 54.5771402,23.8202245 53.9948,24.1104105 C53.0305969,24.5908826 51.7523715,24.9029046 50.112523,24.9501141 C49.5604669,24.9660073 49.125821,25.426421 49.1417141,25.978477 C49.1576073,26.5305331 49.618021,26.965179 50.170077,26.9492859 C52.0958994,26.8938434 53.6590775,26.5122629 54.8868063,25.9004733 C55.7354154,25.4776028 56.2773356,25.0290671 56.5567796,24.6836082 C56.904116,24.2542181 56.8375983,23.6245569 56.4082082,23.2772204 C55.9788181,22.929884 55.3491569,22.9964017 55.0018204,23.4257918 Z" id="Stroke-12" fill="#4B5E69" fill-rule="nonzero"></path>
            <g id="Group-17" transform="translate(40.000000, 25.000000)">
                <path d="M4.0244,1.459 C4.0244,1.459 2.0164,1.472 0.4904,0.506" id="Fill-14" fill="#D3E5EF"></path>
                <path d="M4.0244,1.459 C4.0244,1.459 2.0164,1.472 0.4904,0.506" id="Stroke-16" stroke="#4B5E69" stroke-width="2" stroke-linecap="round" stroke-linejoin="round"></path>
            </g>
        </g>
    </g>
</svg>