<?xml version="1.0" encoding="UTF-8"?>
<svg width="56px" height="46px" viewBox="0 0 56 46" version="1.1" xmlns="http://www.w3.org/2000/svg" xmlns:xlink="http://www.w3.org/1999/xlink">
    <!-- Generator: Sketch 49.3 (51167) - http://www.bohemiancoding.com/sketch -->
    <title>Icon/ Your refund</title>
    <desc>Created with Sketch.</desc>
    <defs></defs>
    <g id="Icon/-Your-refund" stroke="none" stroke-width="1" fill="none" fill-rule="evenodd">
        <g id="Your-refund" transform="translate(-1.000000, -1.000000)">
            <path d="M5.52,13.5181 C7.77,13.1991 8.859,12.0741 8.549,9.8871 L41.135,5.2691 C41.446,7.4561 43.521,8.9711 45.77,8.6521 L45.938,10.8471" id="Fill-1" fill="#D3E5EF"></path>
            <path d="M2.16817163,8.77126939 L49.0290308,2.13027487 L49.6576411,6.60093816 C49.7345402,7.14784307 50.2402333,7.52885804 50.7871382,7.45195892 C51.3340431,7.37505981 51.715058,6.86936674 51.6381589,6.32246184 L50.8701589,0.860461836 C50.7932007,0.313136217 50.2868263,-0.0679604752 49.7395847,0.00959312515 L0.860584725,6.93659313 C0.29958361,7.01609669 -0.0833624978,7.545363 0.0165789,8.10308586 L0.4575789,10.5640859 C0.554994121,11.1077114 1.07466033,11.4694363 1.61828586,11.3720211 C2.16191139,11.2746059 2.52363632,10.7549397 2.4262211,10.2113141 L2.16817163,8.77126939 Z" id="Stroke-3" fill="#4B5E69" fill-rule="nonzero"></path>
            <path d="M6.52,19.5181 C8.91,19.3681 10.194,17.8221 10.054,15.6171 L44.676,13.4361 C44.815,15.6421 46.865,17.3071 49.255,17.1561 L49.244,19.3581" id="Fill-5" fill="#D3E5EF"></path>
            <path d="M55.52,37.1038864 L55.52,19.5181 L3.52,19.5181 L3.52,45.5181 L47.1057864,45.5181 L55.52,37.1038864 Z M47.52,47.5181 L2.52,47.5181 C1.96771525,47.5181 1.52,47.0703847 1.52,46.5181 L1.52,18.5181 C1.52,17.9658153 1.96771525,17.5181 2.52,17.5181 L56.52,17.5181 C57.0722847,17.5181 57.52,17.9658153 57.52,18.5181 L57.52,37.5181 C57.52,37.7833165 57.4146432,38.0376704 57.2271068,38.2252068 L48.2271068,47.2252068 C48.0395704,47.4127432 47.7852165,47.5181 47.52,47.5181 Z" id="Stroke-7" fill="#4B5E69" fill-rule="nonzero"></path>
            <path d="M53.2735429,10.8919148 L53.4814723,15.3782971 C53.5070415,15.9299896 53.9750045,16.3564969 54.5266971,16.3309277 C55.0783896,16.3053585 55.5048969,15.8373955 55.4793277,15.2857029 L55.2243277,9.78370291 C55.1984585,9.22553553 54.7202209,8.79686285 54.1625587,8.83197647 L2.22955871,12.1019765 C1.67640766,12.136806 1.2570982,12.6148821 1.29470456,13.1678513 L1.46370456,15.6528513 C1.50117781,16.2038633 1.97823934,16.6201687 2.52925132,16.5826954 C3.0802633,16.5452222 3.49656869,16.0681607 3.45909544,15.5171487 L3.35828829,14.0348659 L53.2735429,10.8919148 Z" id="Stroke-9" fill="#4B5E69" fill-rule="nonzero"></path>
            <path d="M7.52,37.6181318 L7.52,27.4180682 C9.47904082,27.0203545 11.0222545,25.4771408 11.4199682,23.5181 L47.6200318,23.5181 C48.0177455,25.4771408 49.5609592,27.0203545 51.52,27.4180682 L51.52,33.5181 C51.52,34.0703847 51.9677153,34.5181 52.52,34.5181 C53.0722847,34.5181 53.52,34.0703847 53.52,33.5181 L53.52,26.5181 C53.52,25.9658153 53.0722847,25.5181 52.52,25.5181 C50.8632847,25.5181 49.52,24.1748153 49.52,22.5181 C49.52,21.9658153 49.0722847,21.5181 48.52,21.5181 L10.52,21.5181 C9.96771525,21.5181 9.52,21.9658153 9.52,22.5181 C9.52,24.1748153 8.17671525,25.5181 6.52,25.5181 C5.96771525,25.5181 5.52,25.9658153 5.52,26.5181 L5.52,38.5181 C5.52,39.0703847 5.96771525,39.5181 6.52,39.5181 C8.17671525,39.5181 9.52,40.8613847 9.52,42.5181 C9.52,43.0703847 9.96771525,43.5181 10.52,43.5181 L43.52,43.5181 C44.0722847,43.5181 44.52,43.0703847 44.52,42.5181 C44.52,41.9658153 44.0722847,41.5181 43.52,41.5181 L11.4199682,41.5181 C11.0222545,39.5590592 9.47904082,38.0158455 7.52,37.6181318 Z" id="Stroke-11" fill="#4B5E69" fill-rule="nonzero"></path>
            <path d="M14.52,36.5181 C12.866,36.5181 11.52,35.1721 11.52,33.5181 C11.52,31.8641 12.866,30.5181 14.52,30.5181 C16.174,30.5181 17.52,31.8641 17.52,33.5181 C17.52,35.1721 16.174,36.5181 14.52,36.5181" id="Fill-13" fill="#5BBF89"></path>
            <path d="M44.52,36.5181 C42.866,36.5181 41.52,35.1721 41.52,33.5181 C41.52,31.8641 42.866,30.5181 44.52,30.5181 C46.174,30.5181 47.52,31.8641 47.52,33.5181 C47.52,35.1721 46.174,36.5181 44.52,36.5181" id="Fill-15" fill="#5BBF89"></path>
            <path d="M35.52,32.5181 C35.52,36.3841 32.833,39.5181 29.52,39.5181 C26.207,39.5181 23.52,36.3841 23.52,32.5181 C23.52,28.6521 26.207,25.5181 29.52,25.5181 C32.833,25.5181 35.52,28.6521 35.52,32.5181" id="Fill-17" fill="#5BBF89"></path>
            <path d="M56.52,37.5181 C57.0722847,37.5181 57.52,37.0703847 57.52,36.5181 C57.52,35.9658153 57.0722847,35.5181 56.52,35.5181 L46.52,35.5181 C45.9677153,35.5181 45.52,35.9658153 45.52,36.5181 L45.52,46.5181 C45.52,47.0703847 45.9677153,47.5181 46.52,47.5181 C47.0722847,47.5181 47.52,47.0703847 47.52,46.5181 L47.52,37.5181 L56.52,37.5181 Z" id="Stroke-19" fill="#4B5E69" fill-rule="nonzero"></path>
        </g>
    </g>
</svg>