<?xml version="1.0" encoding="UTF-8"?>
<svg width="58px" height="58px" viewBox="0 0 58 58" version="1.1" xmlns="http://www.w3.org/2000/svg" xmlns:xlink="http://www.w3.org/1999/xlink">
    <!-- Generator: Sketch 49.3 (51167) - http://www.bohemiancoding.com/sketch -->
    <title>Icon/ You and your family</title>
    <desc>Created with Sketch.</desc>
    <defs></defs>
    <g id="Icon/-You-and-your-family" stroke="none" stroke-width="1" fill="none" fill-rule="evenodd">
        <g id="You-and-your-family">
            <path d="M57.4099,58 L28.1099,58 L30.2899,52 C31.4899,48.69 34.6399,46.49 38.1599,46.49 L39.1799,46.49 L39.1799,47.65 C39.9799,49.33 41.3699,50.17 42.7599,50.17 C44.1499,50.17 45.5399,49.33 46.3399,47.65 L46.3399,46.49 L47.3599,46.49 C50.8799,46.49 54.0299,48.69 55.2299,52 L57.4099,58 Z" id="Fill-1" fill="#D3E5EF"></path>
            <path d="M54.2897753,52.3408307 C53.2342933,49.4294596 50.4621994,47.49 47.3599,47.49 L47.3399,47.65 C47.3399,47.7987523 47.3067141,47.945631 47.2427605,48.0799336 C46.3169022,50.0242361 44.6221264,51.17 42.7599,51.17 C40.8976736,51.17 39.2028978,50.0242361 38.2770395,48.0799336 C38.2130859,47.945631 38.1799,47.7987523 38.1799,47.65 L38.1799,47.49 C35.0576006,47.49 32.2855067,49.4294596 31.2297849,52.3414915 L29.5371934,57 L55.9826066,57 L54.2897753,52.3408307 Z M45.3399,46.49 C45.3399,45.9377153 45.7876153,45.49 46.3399,45.49 L47.3599,45.49 C51.3031129,45.49 54.82738,47.9557077 56.1697849,51.6585085 L58.3497849,57.6585085 C58.5867291,58.3106486 58.1037511,59 57.4099,59 L28.1099,59 C27.4160489,59 26.9330709,58.3106486 27.1700151,57.6585085 L29.3497753,51.6591693 C30.69242,47.9557077 34.2166871,45.49 38.1599,45.49 L39.1799,45.49 C39.7321847,45.49 40.1799,45.9377153 40.1799,46.49 L40.1799,47.4125825 C40.7914922,48.5574956 41.7498403,49.17 42.7599,49.17 C43.7699597,49.17 44.7283078,48.5574956 45.3399,47.4125825 L45.3399,46.49 Z" id="Stroke-3" fill="#4B5E69" fill-rule="nonzero"></path>
            <path d="M25.5198,51 L-0.0002,51 L1.8998,45.77 C2.9498,42.89 5.6798,40.97 8.7498,40.97 L9.6398,40.97 L9.6398,42.4 C10.3398,43.67 11.5498,44.3 12.7598,44.3 C13.9698,44.3 15.1798,43.67 15.8798,42.4 L15.8798,40.97 L16.7698,40.97 C19.8398,40.97 22.5698,42.89 23.6198,45.77 L25.5198,51 Z" id="Fill-5" fill="#F4877A"></path>
            <path d="M22.6802926,46.1125287 C21.7854395,43.6580743 19.4807416,42.0160626 16.8798,41.9709535 L16.8798,42.4 C16.8798,42.5688099 16.8370655,42.7348726 16.7555788,42.8827127 C15.9101124,44.4166302 14.3982582,45.3 12.7598,45.3 C11.1213418,45.3 9.60948755,44.4166302 8.76402124,42.8827127 C8.68253454,42.7348726 8.6398,42.5688099 8.6398,42.4 L8.6398,41.9709535 C6.03885846,42.0160624 3.73416595,43.6580594 2.83969832,46.1114545 L1.42703359,50 L24.0925666,50 L22.6802926,46.1125287 Z M14.8798,40.97 C14.8798,40.4177153 15.3275153,39.97 15.8798,39.97 L16.7698,39.97 C20.2568734,39.97 23.3643014,42.1497407 24.5596983,45.4285455 L26.4596983,50.6585455 C26.6966112,51.3106793 26.2136344,52 25.5198,52 L-0.0002,52 C-0.694034407,52 -1.17701117,51.3106793 -0.940098321,50.6585455 L0.960292643,45.4274713 C2.15529857,42.1497407 5.26272658,39.97 8.7498,39.97 L9.6398,39.97 C10.1920847,39.97 10.6398,40.4177153 10.6398,40.97 L10.6398,42.1231644 C11.1418448,42.8848887 11.9193408,43.3 12.7598,43.3 C13.6002592,43.3 14.3777552,42.8848887 14.8798,42.1231644 L14.8798,40.97 Z" id="Stroke-7" fill="#4B5E69" fill-rule="nonzero"></path>
            <path d="M18.9602,9 C20.9102,8.151 22.2102,5.434 24.1602,6.792 C26.1102,8.151 30.0102,9.509 34.5602,7.472 C34.5602,7.472 33.2602,0 26.1102,0 C18.9602,0 18.9602,9 18.9602,9" id="Fill-9" fill="#D3E5EF"></path>
            <path d="M23.7131,22.2899891 L23.7131,18 L21.7131,18 L21.7131,22.8175335 L21.8365919,23.0423872 C24.0243806,27.025905 29.4950295,27.025905 31.6817204,23.0421826 L31.8051,22.8174091 L31.8051,18 L29.8051,18 L29.8051,22.2901144 C28.3522462,24.6099749 25.16679,24.6099906 23.7131,22.2899891 Z" id="Stroke-11" fill="#4B5E69" fill-rule="nonzero"></path>
            <path d="M16.4730856,24.7078008 C17.9289578,23.6067975 19.7138884,23.0002 21.5599,23.0002 L21.9699,23.0002 C22.5221847,23.0002 22.9699,22.5524847 22.9699,22.0002 C22.9699,21.4479153 22.5221847,21.0002 21.9699,21.0002 L21.5599,21.0002 C19.2756817,21.0002 17.067784,21.7505402 15.2667144,23.1125992 C14.8262116,23.4457294 14.7391689,24.0728829 15.0722992,24.5133856 C15.4054294,24.9538884 16.0325829,25.0409311 16.4730856,24.7078008 Z" id="Stroke-13" fill="#4B5E69" fill-rule="nonzero"></path>
            <path d="M31.55,23 L31.96,23 C33.8081434,23 35.5846536,23.6047546 37.0462162,24.7089046 C37.4868867,25.0418129 38.1139963,24.9544543 38.4469046,24.5137838 C38.7798129,24.0731133 38.6924543,23.4460037 38.2517838,23.1130954 C36.4455851,21.7485872 34.2465563,21 31.96,21 L31.55,21 C30.9977153,21 30.55,21.4477153 30.55,22 C30.55,22.5522847 30.9977153,23 31.55,23 Z" id="Stroke-15" fill="#4B5E69" fill-rule="nonzero"></path>
            <path d="M18.76,36 L34.76,36 C35.3122847,36 35.76,35.5522847 35.76,35 C35.76,34.4477153 35.3122847,34 34.76,34 L18.76,34 C18.2077153,34 17.76,34.4477153 17.76,35 C17.76,35.5522847 18.2077153,36 18.76,36 Z" id="Stroke-17" fill="#4B5E69" fill-rule="nonzero"></path>
            <path d="M19.76,8 L19.736,9.708 L19.736,11.113 C19.736,14.7136125 23.6904745,18.396 26.76,18.396 C29.8116408,18.396 33.784,14.7049842 33.7840297,11.1207094 L33.76,8 C33.76,4.13428475 30.6257153,1 26.76,1 C22.8942847,1 19.76,4.13428475 19.76,8 Z M26.76,-1 C31.7302847,-1 35.76,3.02971525 35.7599703,7.99229062 L35.784,11.113 C35.784,15.8437139 30.8847212,20.396 26.76,20.396 C22.616505,20.396 17.736,15.8512974 17.736,11.113 L17.7360987,9.69394986 L17.7600028,7.99277243 C17.7639071,3.02580928 21.7921247,-1 26.76,-1 Z" id="Stroke-19" fill="#4B5E69" fill-rule="nonzero"></path>
            <path d="M42.7601,49.17 C41.7500403,49.17 40.7916922,48.5574956 40.1801,47.4125825 L40.1801,43 L38.1801,43 L38.1801,47.8759407 L38.2772395,48.0799336 C39.2030978,50.0242361 40.8978736,51.17 42.7601,51.17 C44.6223264,51.17 46.3171022,50.0242361 47.2429605,48.0799336 L47.3401,47.8759407 L47.3401,43 L45.3401,43 L45.3401,47.4125825 C44.7285078,48.5574956 43.7701597,49.17 42.7601,49.17 Z" id="Stroke-21" fill="#4B5E69" fill-rule="nonzero"></path>
            <path d="M6.7429,30.9429 C8.2469,30.2879 9.2499,28.1919 10.7539,29.2399 C12.2589,30.2879 15.2669,31.3359 18.7769,29.7639 C18.7769,29.7639 17.7739,23.9999 12.2589,23.9999 C6.7429,23.9999 6.7429,30.9429 6.7429,30.9429" id="Fill-23" fill="#D3E5EF"></path>
            <path d="M12.7601,43.3001 C11.9196408,43.3001 11.1421448,42.8849887 10.6401,42.1232644 L10.6401,37.8901 L8.6401,37.8901 L8.6401,42.6574399 L8.76432124,42.8828127 C9.60978755,44.4167302 11.1216418,45.3001 12.7601,45.3001 C14.3985582,45.3001 15.9104124,44.4167302 16.7558788,42.8828127 L16.8801,42.6574399 L16.8801,37.8901 L14.8801,37.8901 L14.8801,42.1232644 C14.3780552,42.8849887 13.6005592,43.3001 12.7601,43.3001 Z" id="Stroke-25" fill="#4B5E69" fill-rule="nonzero"></path>
            <path d="M54.76,31 C57.76,27 52.87,24.705 49.52,24.705 C46.17,24.705 48.4,20 42.81,20 C37.22,20 39.46,23.526 34.99,24.705 C30.52,25.884 33.87,29.411 30.52,31.769 C27.17,34.116 29.4,38.821 33.87,40 L36.05,40 C35.8,39.284 35.65,38.516 35.65,37.726 L35.65,36.421 L35.67,34.832 C35.67,34.483 35.7,34.144 35.744,33.809 C37.727,33.323 41.026,31.855 42.707,28.865 C44.42,31.913 47.812,33.378 49.78,33.834 C49.821,34.162 49.85,34.493 49.85,34.832 L49.87,37.726 C49.87,38.516 49.72,39.284 49.46,40 L50.64,40 C59.58,40 52.644,33.821 54.76,31" id="Fill-27" fill="#F4877A"></path>
            <path d="M7.5886,30.1714 L7.5696,31.4894 L7.5696,32.5734 C7.5696,35.2204635 10.5153436,37.9634 12.7596,37.9634 C14.9911754,37.9634 17.9496,35.2141899 17.9496281,32.5808935 L17.9316,30.1714 C17.9316,27.3155552 15.6161857,25.0004 12.7596,25.0004 C9.90388475,25.0004 7.5886,27.3156847 7.5886,30.1714 Z M12.7596,23.0004 C16.7207051,23.0004 19.9316,26.2109356 19.9315719,30.1639065 L19.9496,32.5734 C19.9496,36.3528642 16.0643029,39.9634 12.7596,39.9634 C9.44139286,39.9634 5.5696,36.3581704 5.5696,32.5734 L5.56970389,31.4749857 L5.58860381,30.1639282 C5.59263918,26.2070776 8.80180615,23.0004 12.7596,23.0004 Z" id="Stroke-29" fill="#4B5E69" fill-rule="nonzero"></path>
            <path d="M48.845929,34.0935168 L48.866929,36.8505168 C48.8669,39.9593688 45.4013877,43.1799 42.7599,43.1799 C40.1024947,43.1799 36.6529,39.9671341 36.6529,36.8429 L36.6529,35.5989 L36.6738037,34.0997784 C36.6814685,33.5475468 36.2400099,33.0936611 35.6877784,33.0859963 C35.1355468,33.0783315 34.6816611,33.5197901 34.6739963,34.0720216 L34.6529963,35.5850216 L34.6529,36.8429 C34.6529,41.1047412 39.0284588,45.1799 42.7599,45.1799 C46.4745271,45.1799 50.8669,41.0980291 50.8669,36.8429 L50.845871,34.0782832 C50.8416644,33.5260145 50.390552,33.0817224 49.8382832,33.085929 C49.2860145,33.0901356 48.8417224,33.541248 48.845929,34.0935168 Z" id="Stroke-31" fill="#4B5E69" fill-rule="nonzero"></path>
        </g>
    </g>
</svg>