<?xml version="1.0" encoding="UTF-8"?>
<svg width="52px" height="55px" viewBox="0 0 52 55" version="1.1" xmlns="http://www.w3.org/2000/svg" xmlns:xlink="http://www.w3.org/1999/xlink">
    <!-- Generator: Sketch 49.3 (51167) - http://www.bohemiancoding.com/sketch -->
    <title>Icon/ YOY Transfer</title>
    <desc>Created with Sketch.</desc>
    <defs>
        <polygon id="path-1" points="36 23.9998 36 0 0 0 0 47.9996 36 47.9996"></polygon>
    </defs>
    <g id="Icon/-YOY-Transfer" stroke="none" stroke-width="1" fill="none" fill-rule="evenodd">
        <g id="Page-1">
            <path d="M35,46 L18,46 L18,18 C18,17.676 17.843,17.371 17.577,17.184 C17.312,16.996 16.973,16.95 16.667,17.057 L13.834,18.057 C13.828,18.059 13.823,18.063 13.817,18.065 C13.734,18.095 13.663,18.139 13.592,18.188 C13.578,18.196 13.564,18.204 13.552,18.215 C13.31,18.397 13.143,18.673 13.143,19 L13.143,20.54 L11.106,23.675 C8.789,25.499 6.692,28.63 6.159,29.459 C5.86,29.924 5.995,30.543 6.459,30.841 C6.627,30.949 6.813,31 6.999,31 C7.328,31 7.65,30.838 7.841,30.541 C9.194,28.436 11.476,25.63 13.136,24.671 L13.078,35.016 C13.051,35.014 13.027,35 13,35 L6,35 C5.447,35 5,35.447 5,36 C5,36.553 5.447,37 6,37 L13,37 C13.023,37 13.044,36.988 13.066,36.986 L13.05,40.01 C13.032,40.009 13.018,40 13,40 L6,40 C5.447,40 5,40.447 5,41 C5,41.553 5.447,42 6,42 L13,42 C13.014,42 13.025,41.993 13.039,41.992 L13.022,45.005 C13.015,45.004 13.008,45 13,45 L6,45 C5.447,45 5,45.447 5,46 C5,46.553 5.447,47 6,47 L13,47 C13.004,47 13.007,46.998 13.011,46.998 L13,48.994 C12.998,49.261 13.104,49.517 13.291,49.705 C13.479,49.894 13.733,50 14,50 L35,50 C35.553,50 36,49.553 36,49 L36,47 C36,46.447 35.553,46 35,46" id="Fill-1" fill="#D3E5EF"></path>
            <path d="M35,55 L1,55 C0.447,55 0,54.553 0,54 L0,8 C0,7.447 0.447,7 1,7 L13,7 C13.553,7 14,7.447 14,8 C14,8.553 13.553,9 13,9 L2,9 L2,53 L34,53 L34,51 C34,50.447 34.447,50 35,50 C35.553,50 36,50.447 36,51 L36,54 C36,54.553 35.553,55 35,55" id="Fill-3" fill="#4F5661"></path>
            <g id="Group-7" transform="translate(16.000000, 0.000000)">
                <mask id="mask-2" fill="white">
                    <use xlink:href="#path-1"></use>
                </mask>
                <g id="Clip-6"></g>
                <path d="M25,2.4766 L32.523,9.9996 L25,9.9996 L25,2.4766 Z M36,10.9996 C36,10.6396 35.8,10.3386 35.514,10.1626 L25.645,0.2926 C25.457,0.1056 25.203,-0.0004 24.938,-0.0004 L1,-0.0004 C0.447,-0.0004 0,0.4476 0,0.9996 L0,6.9996 C0,7.5526 0.447,7.9996 1,7.9996 C1.553,7.9996 2,7.5526 2,6.9996 L2,1.9996 L23,1.9996 L23,10.9996 C23,11.5526 23.447,11.9996 24,11.9996 L34,11.9996 L34,45.9996 L2,45.9996 L2,21.9996 C2,21.4476 1.553,20.9996 1,20.9996 C0.447,20.9996 0,21.4476 0,21.9996 L0,46.9996 C0,47.5526 0.447,47.9996 1,47.9996 L35,47.9996 C35.553,47.9996 36,47.5526 36,46.9996 L36,11.0626 C36,11.0516 35.994,11.0416 35.994,11.0316 C35.994,11.0206 36,11.0106 36,10.9996 Z" id="Fill-5" fill="#4F5661" mask="url(#mask-2)"></path>
            </g>
            <path d="M45,30 L23,30 C22.447,30 22,29.553 22,29 C22,28.447 22.447,28 23,28 L45,28 C45.553,28 46,28.447 46,29 C46,29.553 45.553,30 45,30" id="Fill-8" fill="#D3E5EF"></path>
            <path d="M41,35 L23,35 C22.447,35 22,34.553 22,34 C22,33.447 22.447,33 23,33 L41,33 C41.553,33 42,33.447 42,34 C42,34.553 41.553,35 41,35" id="Fill-10" fill="#D3E5EF"></path>
            <path d="M44,25 L29,25 C28.447,25 28,24.553 28,24 C28,23.447 28.447,23 29,23 L44,23 C44.553,23 45,23.447 45,24 C45,24.553 44.553,25 44,25" id="Fill-12" fill="#D3E5EF"></path>
            <path d="M45,40 L23,40 C22.447,40 22,39.553 22,39 C22,38.447 22.447,38 23,38 L45,38 C45.553,38 46,38.447 46,39 C46,39.553 45.553,40 45,40" id="Fill-14" fill="#D3E5EF"></path>
            <path d="M33.0273,12.7031 L23.6233,5.2181 C23.3223,4.9791 22.9133,4.9321 22.5653,5.0991 C22.2193,5.2661 22.0003,5.6161 22.0003,6.0001 L22.0003,9.4521 C13.0223,9.9771 5.8783,17.5371 5.8783,26.7541 C5.8783,27.8441 5.9813,28.9371 6.1843,30.0041 C6.2743,30.4751 6.6873,30.8161 7.1673,30.8161 L7.1693,30.8161 C7.6493,30.8151 8.0613,30.4731 8.1503,30.0001 C9.4353,23.1181 15.1753,18.0361 22.0003,17.5801 L22.0003,20.9701 C22.0003,21.3531 22.2193,21.7041 22.5653,21.8701 C22.9133,22.0391 23.3223,21.9911 23.6233,21.7521 L33.0273,14.2671 C33.2653,14.0781 33.4043,13.7901 33.4043,13.4851 C33.4043,13.1811 33.2653,12.8921 33.0273,12.7031" id="Fill-16" fill="#53C27C"></path>
        </g>
    </g>
</svg>