<?xml version="1.0" encoding="UTF-8"?>
<svg width="65px" height="64px" viewBox="0 0 65 64" version="1.1" xmlns="http://www.w3.org/2000/svg" xmlns:xlink="http://www.w3.org/1999/xlink">
    <!-- Generator: Sketch 49.3 (51167) - http://www.bohemiancoding.com/sketch -->
    <title>DIFM</title>
    <desc>Created with Sketch.</desc>
    <defs></defs>
    <g id="⚙️-Icons-–-2017" stroke="none" stroke-width="1" fill="none" fill-rule="evenodd">
        <g id="DIFM" transform="translate(-11.000000, -10.000000)">
            <g transform="translate(11.000000, 9.000000)">
                <g id="Group-2" transform="translate(0.000000, 36.612931)" fill-rule="nonzero">
                    <path d="M1.72472908,14.1516412 C1.72472908,14.1516412 9.34984713,23.1568027 16.9749652,24.2824479 L12.6177549,13.025996 L14.79636,8.5234153 L12.6177549,8.5234153 L14.1427785,3.683141 C14.1427785,3.683141 8.47840507,4.24596359 4.88370656,9.64906048 C1.72472908,14.1516412 1.72472908,14.1516412 1.72472908,14.1516412 Z" id="Shape" fill="#D3E5EF"></path>
                    <path d="M14.4795255,5.02206137 C14.3128565,5.15123359 14.1133517,5.22905275 13.9046252,5.24630798 C11.4397159,5.4500797 8.77446369,6.9114779 6.86237181,9.19476342 L5.78413406,10.3088077 L2.0805053,14.2485659 C1.6618438,14.6939196 0.968086211,14.7091745 0.530954354,14.2826385 C0.0938224964,13.8561024 0.0788493111,13.1492961 0.497510808,12.7039424 L4.21220441,8.75258332 L5.24749623,7.68698166 C7.39274857,5.12013189 10.4402386,3.3995684 13.3995343,3.05324084 L13.588171,2.90704322 C13.6710019,2.84284737 13.7623858,2.79099905 13.8595693,2.75306041 L18.7614309,0.839463589 C19.4054566,0.588047773 20.1146167,0.997931864 20.2332018,1.69012545 L24.2636213,25.2161098 C24.3676933,25.8235888 23.9686928,25.2925189 23.3724288,25.3985483 C22.7761648,25.5045777 22.2084304,26.2075553 22.1043584,25.6000763 L18.3027975,3.40996395 L14.7903666,4.78115252 L14.4795255,5.02206137 Z" id="Shape" fill="#4F5661"></path>
                    <path d="M20.2177716,6.72777433 C19.7007153,6.40719017 19.5366453,5.72026457 19.851311,5.19348308 C20.1659767,4.66670159 20.8402205,4.49954563 21.3572768,4.82012979 C21.4262786,4.86291209 21.5668046,4.94533109 21.7655517,5.0540606 C22.1019515,5.23809641 22.4709001,5.42257604 22.8583882,5.59418286 C23.5346312,5.89367055 24.1909039,6.11972655 24.7877089,6.24306982 C25.1169061,6.31110589 25.4195349,6.34585316 25.6893858,6.34585316 C26.0450197,6.34585316 26.4253301,6.31784184 26.9393858,6.21769691 C27.7436846,6.06100875 28.5362207,5.77229747 29.2714669,5.32151703 C29.5279792,5.16424897 29.7743615,4.98884186 30.0096271,4.79435004 C30.4796383,4.40579618 31.1698278,4.47899695 31.5512083,4.95784854 C31.9325889,5.43670013 31.8607395,6.13987118 31.3907283,6.52842505 C31.0749914,6.7894417 30.7447158,7.0245751 30.401654,7.23490671 C29.4294986,7.83093654 28.3954435,8.20763026 27.3510566,8.41109078 C26.6821734,8.54139818 26.1718354,8.57898652 25.6893858,8.57898652 C25.2632934,8.57898652 24.8170267,8.52774701 24.3519408,8.43162649 C23.5871176,8.27355846 22.7909868,7.99932771 21.984568,7.64218904 C21.5380587,7.44444353 21.1155609,7.23318853 20.7285958,7.0214897 C20.4933239,6.89277843 20.3189734,6.79052127 20.2177716,6.72777433 Z" id="Shape" fill="#4F5661"></path>
                    <path d="M12.6177549,9.63998198 C11.9062589,9.63998198 11.3833756,8.9600169 11.5536484,8.25620237 L12.642951,3.75362162 C12.7878041,3.15487811 13.3816474,2.78913589 13.9693372,2.93671352 C14.557027,3.08429115 14.9160171,3.68930397 14.7711639,4.28804748 L14.0166371,7.40684861 L15.8856626,7.40684861 C16.7853508,7.40684861 17.3017828,8.45026211 16.766873,9.18727031 L13.8746502,13.1722257 L18.4161119,23.8380878 C18.6569945,24.4038133 18.402124,25.0613711 17.8468427,25.3067844 C17.2915614,25.5521977 16.6461431,25.2925334 16.4052605,24.726808 L11.6123292,13.4703561 C11.4566906,13.1048308 11.5040271,12.6825075 11.7365445,12.362141 L13.712248,9.63998198 L12.6177549,9.63998198 Z" id="Shape" fill="#4F5661"></path>
                    <path d="M49.7629728,14.1516412 C49.7629728,14.1516412 42.1378548,23.1568027 34.5127367,24.2824479 L38.869947,13.025996 L36.6913419,8.5234153 L38.869947,8.5234153 L37.3449234,3.683141 C37.3449234,3.683141 43.0092968,4.24596359 46.6039953,9.64906048 C49.7629728,14.1516412 49.7629728,14.1516412 49.7629728,14.1516412 Z" id="Shape" fill="#D3E5EF"></path>
                    <path d="M29.4947653,25.4723527 C29.3989109,26.0812337 28.8367226,26.4956623 28.2390825,26.398005 C27.6414425,26.3003477 27.2346648,25.7275853 27.3305192,25.1187044 L31.034148,1.59272 C31.1428548,0.902198384 31.8407671,0.482290277 32.4867851,0.718721745 L37.7154374,2.63231856 C37.820659,2.67082784 37.9194771,2.72551408 38.0084612,2.7944787 L38.2154789,2.95492206 C39.1047947,3.09014435 40.0472905,3.3227619 40.9638483,3.63847427 C41.5372412,3.83598198 41.8449123,4.46966326 41.6510509,5.05384102 C41.4571895,5.63801878 40.8352069,5.95147678 40.261814,5.75396906 C39.3797989,5.45015508 38.47113,5.23552995 37.6427967,5.12853381 C37.4517192,5.10385224 37.2704005,5.02830298 37.1171067,4.90949685 L36.8156477,4.67585937 L32.9891634,3.27543196 L29.4947653,25.4723527 Z" id="Shape" fill="#4F5661"></path>
                    <path d="M10.5275843,20.1452504 C10.4611418,20.1316732 10.3963139,20.1266392 10.3302195,20.1266392 C10.4001145,20.1266392 10.4695769,20.1334496 10.5376928,20.1468292 L10.5275843,20.1452504 Z M25.7983161,24.2915264 C30.9806242,24.2915264 35.8202088,23.0275251 40.1978551,20.6001747 C40.729495,20.305387 41.395035,20.5054998 41.6843805,21.0471391 C41.9737259,21.5887785 41.7773075,22.2668365 41.2456677,22.5616242 C36.547644,25.1666199 31.3480064,26.5246598 25.9072463,26.5246598 C20.2140915,26.5246598 14.8360434,25.045248 9.91642006,22.2859888 C9.87208661,22.2692271 9.82669546,22.2490614 9.78005176,22.2249615 C9.65134424,22.1584607 9.53646797,22.0696482 9.44025053,21.9631777 C6.32094235,20.142125 3.46121559,17.6576738 1.16215718,14.8229893 C1.02421234,14.6804422 0.941165226,14.5748203 0.78905357,14.3652382 C0.696072146,14.2371267 0.661111482,14.1926626 0.617505895,14.1476022 C0.192555692,13.7084743 0.19747698,13.0015212 0.628497901,12.5685782 C1.05951882,12.1356352 1.75342052,12.1406491 2.17837072,12.579777 C2.31631557,12.7223241 2.39936268,12.827946 2.55147434,13.0375281 C2.64445576,13.1656396 2.67941643,13.2101037 2.786664,13.3268924 C5.04043494,16.0994685 7.78230338,18.4605901 10.7564887,20.1562666 C10.8468702,20.2077959 10.9282733,20.2712662 10.9992273,20.3441221 C15.5956374,22.9167687 20.6030242,24.2915264 25.7983161,24.2915264 Z" id="Shape" fill="#4F5661"></path>
                    <path d="M36.716538,4.28804748 C36.5716848,3.68930397 36.9306749,3.08429115 37.5183647,2.93671352 C38.1060545,2.78913589 38.6998978,3.15487811 38.8447509,3.75362162 L39.9340535,8.25620237 C40.1043263,8.9600169 39.581443,9.63998198 38.869947,9.63998198 L37.7754539,9.63998198 L39.7511574,12.362141 C39.9836748,12.6825075 40.0310113,13.1048308 39.8753727,13.4703561 L35.0824414,24.726808 C34.8415588,25.2925334 34.1961405,25.5521977 33.6408592,25.3067844 C33.0855779,25.0613711 32.8307074,24.4038133 33.07159,23.8380878 L37.6130517,13.1722257 L34.7208289,9.18727031 C34.185919,8.45026211 34.7023511,7.40684861 35.6020393,7.40684861 L37.4710648,7.40684861 L36.716538,4.28804748 Z" id="Shape" fill="#4F5661"></path>
                </g>
                <path d="M20.1405932,38.7269302 C20.1405932,39.1533556 19.6499183,39.4990417 19.0446401,39.4990417 C18.4393619,39.4990417 17.9486869,39.1533556 17.9486869,38.7269302 L17.9486869,34.0565941 C17.9486869,33.6301687 18.4393619,33.2844826 19.0446401,33.2844826 C19.6499183,33.2844826 20.1405932,33.6301687 20.1405932,34.0565941 L20.1405932,38.7269302 Z" id="Shape" fill="#4F5661" fill-rule="nonzero"></path>
                <path d="M32.116271,38.382475 L32.116271,33.2533635" id="Shape" stroke="#4F5661" stroke-width="2.19190629" stroke-linecap="round" stroke-linejoin="round"></path>
                <g id="man" transform="translate(11.434500, 0.000000)">
                    <path d="M11.4235455,20.8341297 C11.4235455,19.489693 10.3857179,18.4085069 9.11556535,18.4085069 C7.84541276,18.4085069 6.80758524,19.489693 6.80758524,20.8341297 C6.80758524,22.1785663 7.84541276,23.2597525 9.11556535,23.2597525 C10.3857179,23.2597525 11.4235455,22.1785663 11.4235455,20.8341297 Z M13.2711554,20.8341297 C13.2711554,23.2088885 11.415458,25.1421137 9.11556535,25.1421137 C6.81567265,25.1421137 4.95997524,23.2088885 4.95997524,20.8341297 C4.95997524,18.4593708 6.81567265,16.5261456 9.11556535,16.5261456 C11.415458,16.5261456 13.2711554,18.4593708 13.2711554,20.8341297 Z" id="Stroke-35" fill="#4F5661" fill-rule="nonzero"></path>
                    <path d="M22.1961625,20.8341297 C22.1961625,19.489693 21.1583349,18.4085069 19.8881824,18.4085069 C18.6180298,18.4085069 17.5802023,19.489693 17.5802023,20.8341297 C17.5802023,22.1785663 18.6180298,23.2597525 19.8881824,23.2597525 C21.1583349,23.2597525 22.1961625,22.1785663 22.1961625,20.8341297 Z M24.0437725,20.8341297 C24.0437725,23.2088885 22.1880751,25.1421137 19.8881824,25.1421137 C17.5882897,25.1421137 15.7325923,23.2088885 15.7325923,20.8341297 C15.7325923,18.4593708 17.5882897,16.5261456 19.8881824,16.5261456 C22.1880751,16.5261456 24.0437725,18.4593708 24.0437725,20.8341297 Z" id="Stroke-37" fill="#4F5661" fill-rule="nonzero"></path>
                    <path d="M13.2711554,20.8341297 C13.2711554,21.3539294 12.8575539,21.7753103 12.3473505,21.7753103 C11.837147,21.7753103 11.4235455,21.3539294 11.4235455,20.8341297 C11.4235455,19.0799849 12.7977069,17.6484134 14.5018739,17.6484134 C16.2060408,17.6484134 17.5802023,19.0799849 17.5802023,20.8341297 C17.5802023,21.3539294 17.1666007,21.7753103 16.6563973,21.7753103 C16.1461938,21.7753103 15.7325923,21.3539294 15.7325923,20.8341297 C15.7325923,20.1103071 15.1763007,19.5307747 14.5018739,19.5307747 C13.827447,19.5307747 13.2711554,20.1103071 13.2711554,20.8341297 Z" id="Stroke-39" fill="#4F5661" fill-rule="nonzero"></path>
                    <path d="M1.8811347,19.7524675 C1.39799233,19.5854296 1.13923917,19.0509875 1.30319334,18.5587578 C1.46714751,18.0665282 1.9917229,17.8029082 2.47486528,17.9699461 L3.59686134,18.3578593 L6.17855492,19.2434331 C6.66208757,19.4092947 6.92209312,19.9431055 6.75929356,20.4357328 C6.596494,20.9283601 6.07253822,21.1932561 5.58900557,21.0273944 L3.00522138,20.1411006 L1.8811347,19.7524675 Z" id="Stroke-43" fill="#4F5661" fill-rule="nonzero"></path>
                    <path d="M23.1962841,19.588213 C22.7314783,19.373868 22.5252318,18.8162203 22.7356197,18.342672 C22.9460076,17.8691238 23.4933602,17.658998 23.9581661,17.873343 L24.6979385,18.2144933 L26.4026835,18.9944694 C26.8681081,19.2074163 27.0759687,19.7644416 26.8669531,20.2386202 C26.6579376,20.7127988 26.1111959,20.9245691 25.6457713,20.7116222 L23.9385415,19.9305047 L23.1962841,19.588213 Z" id="Stroke-43" fill="#4F5661" fill-rule="nonzero"></path>
                    <path d="M25.5360785,11.4702503 C23.9130731,6.09737655 20.0040599,2.21896551 14.1380402,2.21896551 C6.95301604,2.21896551 2.17799999,8.10057003 2.17799999,15.3370272 C2.17799999,15.3370272 4.2340069,15.3282376 8.13702003,11.3980016 C9.54502476,12.4662304 11.7650322,13.8348325 14.682042,14.6566284 C20.4130613,16.2695481 24.178074,16.0710379 26.1780807,15.352892" id="Fill-1" fill="#D3E5EF"></path>
                    <path d="M8.25144531,12.969344 C6.74917817,14.3860495 5.40226774,15.3498798 4.21290812,15.935544 C3.30433627,16.3829427 2.62186824,16.5502881 2.18300476,16.5521643 C1.52233733,16.5549887 0.98528571,16.0101269 0.98528571,15.3370272 C0.98528571,7.22681691 6.46655261,1.00381773 14.1380402,1.00381773 C20.2547476,1.00381773 24.8000818,4.90259968 26.6760295,11.1128253 C26.8697855,11.7542445 26.5164824,12.434242 25.8869049,12.6316424 C25.2573273,12.8290427 24.5898836,12.4690944 24.3961276,11.8276753 C22.8118359,6.58296142 19.1408003,3.43411328 14.1380402,3.43411328 C8.39388784,3.43411328 4.16502536,7.66644594 3.47105916,13.5937366 C4.54082492,13.0111344 5.81916268,12.0241552 7.29869885,10.5347004 C7.71773009,10.1128601 8.37628784,10.0658807 8.84893111,10.4241119 C10.5728768,11.7307447 12.6351756,12.8192234 14.9996242,13.4853487 C19.8708744,14.8562978 23.633564,14.9792822 25.7811008,14.2070268 C26.5571083,13.927974 27.370795,14.5144864 27.370795,15.352892 L27.370795,22.9605851 C27.370795,30.2238975 20.192971,37.2789874 14.1780403,37.2789874 C8.13438849,37.2789874 0.98528571,30.2364369 0.98528571,22.9605851 L0.98528571,19.1572673 C0.98528571,18.4861597 1.51928208,17.9421196 2.17799999,17.9421196 C2.8367179,17.9421196 3.37071427,18.4861597 3.37071427,19.1572673 L3.37071427,22.9605851 C3.37071427,28.8755813 9.43419667,34.8486918 14.1780403,34.8486918 C18.8943065,34.8486918 24.9853664,28.8617834 24.9853664,22.9605851 L24.9853664,16.9086245 C22.3464271,17.3650902 18.7130785,17.0517693 14.3641573,15.8278228 C12.0627758,15.1794651 10.0192573,14.1789294 8.25144531,12.969344 Z" id="Stroke-3" fill="#4F5661" fill-rule="nonzero"></path>
                </g>
                <g id="ExpertShield" transform="translate(42.471000, 36.612931)" fill-rule="nonzero">
                    <path d="M11.4313228,27.6593835 C20.2546737,24.8452705 22.3243486,18.879351 22.3243486,18.879351 L22.3243486,5.37160877 L11.4313228,0.643898993 L0.538297024,5.37160877 L0.538297024,18.879351 C0.538297024,18.879351 2.60797192,25.5206576 11.4313228,27.6593835 Z" id="Shape" fill="#396598"></path>
                    <polygon id="Shape" stroke="#FFFFFF" stroke-width="1.09595314" fill="#FFFFFF" stroke-linejoin="round" points="18.5117896 10.6621411 16.986766 9.08623789 9.9062992 16.6280606 6.42053095 13.1385606 5.0044376 14.8270283 9.47057817 19.10448 9.47057817 19.10448 10.0152295 19.6673026"></polygon>
                </g>
            </g>
        </g>
    </g>
</svg>