<?xml version="1.0" encoding="UTF-8"?>
<svg width="67px" height="67px" viewBox="0 0 67 67" version="1.1" xmlns="http://www.w3.org/2000/svg" xmlns:xlink="http://www.w3.org/1999/xlink">
    <!-- Generator: Sketch 49.3 (51167) - http://www.bohemiancoding.com/sketch -->
    <title>DIWM</title>
    <desc>Created with Sketch.</desc>
    <defs></defs>
    <g id="⚙️-Icons-–-2017" stroke="none" stroke-width="1" fill="none" fill-rule="evenodd">
        <g id="DIWM" transform="translate(-10.000000, -7.000000)" fill-rule="nonzero">
            <g transform="translate(10.000000, 7.000000)">
                <g id="Group" transform="translate(6.120000, 0.000000)">
                    <path d="M0.723753414,40.3386132 C0.723753414,40.3386132 7.72552926,49.281349 13.5755292,50.1319549 L9.33758889,41.3634537 L11.8430317,37.7666038 L10.4425889,37.7666038 L10.1053544,33.8973182 C10.1053544,33.8973182 6.35142854,33.9522593 3.59357141,38.0351673 C0.901589351,39.8755882 0.723753414,40.3386132 0.723753414,40.3386132 Z" id="Shape" fill="#D3E5EF"></path>
                    <path d="M39.2622022,41.1999643 C38.3848404,42.1638025 36.13114,44.2614707 32.501101,47.492969 C34.042935,51.0905468 34.5847845,53.619557 34.1266497,55.0799997 C34.1266497,55.0799997 25.7399999,51.02442 25.7399999,51.02442 L30.4544219,40.3749097 L28.6928658,37.0746912 L30.4544219,37.0746912 L29.2213326,33.5269564 C29.2213326,33.5269564 33.8013784,33.9394837 36.7079459,37.8997458 C39.2622022,41.1999643 40.578245,39.754207 39.2622022,41.1999643 Z" id="Shape" fill="#D3E5EF"></path>
                    <path d="M11.1031665,34.184985 C10.9736346,34.2776152 10.8185835,34.3334197 10.6563653,34.3457936 C8.74068604,34.4919194 6.66930418,35.5398964 5.1832638,37.1772535 L4.34527853,37.9761411 L1.46689074,40.8013642 C1.14151522,41.1207299 0.602340403,41.1316692 0.26261008,40.8257978 C-0.0771202433,40.5199264 -0.0887571099,40.0130716 0.236618411,39.6937058 L3.12360557,36.8601637 L3.92821411,36.0960146 C5.59546224,34.255312 7.96391186,33.0214861 10.2638186,32.7731326 L10.4104233,32.6682934 C10.4747979,32.6222582 10.5458196,32.5850775 10.6213487,32.5578715 L14.4309796,31.1856203 C14.9315038,31.0053285 15.4826492,31.2992588 15.5748111,31.7956347 L18.7071743,50.9638685 C18.788057,51.3994952 18.4779617,51.0186619 18.014557,51.0946962 C17.5511523,51.1707305 17.1099202,51.6748398 17.0290375,51.2392131 L14.0745387,33.0289408 L11.3447462,34.0122279 L11.1031665,34.184985 Z" id="Shape" fill="#4F5661"></path>
                    <path d="M20.5919714,25.1451917 C19.7933316,25.1451917 19.0100236,24.8937163 18.305996,24.3833983 C17.9249177,24.0737191 17.6987419,23.7909507 17.2547775,23.1495589 C16.9653304,22.7313969 17.0480142,22.1417499 17.439457,21.8325456 C17.8308998,21.5233413 18.3828701,21.611669 18.6723173,22.029831 C19.0168802,22.5276183 19.1703655,22.719508 19.3334558,22.8538801 C19.7032007,23.1209639 20.1421099,23.2618725 20.5919714,23.2618725 C21.1185401,23.2618725 21.4839735,23.1298878 21.7165414,22.877896 L21.8105614,22.7895551 C22.0135774,22.6245764 22.1670627,22.4326867 22.5113545,21.9352914 C22.8010727,21.5167374 23.3530431,21.4284097 23.7444859,21.737614 C24.1359287,22.0468184 24.2186125,22.6364653 23.9294365,23.0542354 C23.5040413,23.6688008 23.2786135,23.9541423 22.9256532,24.2491576 C22.3304132,24.8648504 21.5302856,25.1451917 20.5919714,25.1451917 Z" id="Shape" fill="#4F5661"></path>
                    <path d="M12.6212006,15.5865362 C12.621168,16.1073107 12.208628,16.5294548 11.6997666,16.5294214 C11.1909052,16.529388 10.778418,16.1071898 10.7784507,15.5864153 L10.7786249,12.8032565 C10.7786576,12.2825056 11.1911616,11.8603713 11.6999999,11.8603713 C12.5359167,11.8603713 13.8797483,11.1729745 15.6410299,9.75489757 C15.9273003,9.52441005 16.3193778,9.48815148 16.6413833,9.6623868 C16.7085647,9.69873825 18.1302409,10.476061 18.4893928,10.6657442 C19.0887131,10.9822703 19.5506659,11.2039101 19.9890957,11.3802471 C22.0036075,12.1904864 24.0766854,12.1837141 29.081529,11.2311084 C29.6481707,11.1232557 30.1713749,11.5683056 30.1713749,12.1581573 L30.1713749,15.3097499 C30.1713749,15.8305244 29.7588612,16.2526956 29.2499999,16.2526956 C28.7411385,16.2526956 28.3286249,15.8305244 28.3286249,15.3097499 L28.3286249,13.2857053 C23.7653878,14.0929621 21.5533222,14.0356828 19.3150766,13.1354575 C18.8094316,12.9320864 18.2946312,12.685091 17.6443176,12.3416332 C17.4119847,12.2189285 16.7676587,11.8682649 16.3010998,11.6138597 C14.8912491,12.6941907 13.6752543,13.3706741 12.6213233,13.628099 L12.6212006,15.5865362 Z" id="Path-2" fill="#4F5661"></path>
                    <path d="M8.3623925,26.4369247 C9.58863299,26.8439926 10.8370361,27.0597941 12.061124,27.0597941 C12.6159741,27.0597941 13.0695575,27.4865956 13.0695575,28.0183318 C13.0695575,28.550068 12.6159741,28.9768694 12.061124,28.9768694 C10.6030096,28.9768694 9.13569644,28.7243323 7.69703771,28.2467492 C6.95686434,28.0010381 6.31495363,27.7292849 5.88853461,27.4967289 C5.36780682,27.2127398 5.22094848,26.5600083 5.57755689,26.0981102 C5.62359767,26.0384757 5.70628221,25.9158241 5.79975501,25.7643085 C5.99598011,25.4462355 6.18313143,25.08896 6.35329715,24.7022799 C7.13663986,22.9222325 7.37339314,21.0163786 6.99336371,19.0577949 C5.51018368,11.3296978 6.69225011,5.915719 10.3835522,2.79978759 C12.6960945,0.847705905 15.5687913,-1.24344979e-14 19.237918,-1.24344979e-14 C23.6102424,-1.24344979e-14 26.0405918,1.08408744 28.3855769,3.91701654 C33.8545938,3.3904366 35.7336723,8.88111056 33.2460067,19.097406 C33.1885193,19.3388155 33.1459836,19.5883203 33.1183178,19.8457609 C32.9690886,21.2343935 33.2485904,22.809598 33.9078213,24.4710373 C34.0839049,24.9148154 34.2782875,25.3406778 34.4829619,25.7358691 C34.5840115,25.9309786 34.6741318,26.0934728 34.7292559,26.1836619 C35.0311973,26.677671 34.8142429,27.3091394 34.26846,27.5406476 C34.1353273,27.5971193 33.9301036,27.6783797 33.6908638,27.7682144 C33.2288371,27.9417056 32.748024,28.1056679 32.2610197,28.2544024 C31.3697514,28.526602 30.528681,28.7262228 29.7484646,28.846568 C29.1880979,28.9330024 28.6678893,28.9768694 28.1867598,28.9768694 C27.6319098,28.9768694 27.1783264,28.550068 27.1783264,28.0183318 C27.1783264,27.4865956 27.6319098,27.0597941 28.1867598,27.0597941 C28.5561717,27.0597941 28.9709773,27.0243221 29.4251835,26.9542626 C30.1012598,26.8499805 30.8482717,26.6722019 31.6437034,26.4292715 C31.9194646,26.345052 32.1937473,26.2552503 32.4634545,26.1611969 C32.3074165,25.8354157 32.1590645,25.4964714 32.0207628,25.1479138 C31.250691,23.2071257 30.9286683,21.3558351 31.1118992,19.6508036 C31.1478476,19.31629 31.2035202,18.9905816 31.2800243,18.6693655 C33.5254642,9.447795 32.2580691,5.21319724 28.1800582,5.8776921 C27.8121433,5.93764229 27.4386937,5.79966952 27.2103687,5.51766485 C25.0132946,2.80405435 23.1399566,1.9170753 19.237918,1.9170753 C16.0762452,1.9170753 13.6254176,2.62738889 11.7229914,4.23328004 C8.60327098,6.86672343 7.62084131,11.6448364 8.97711033,18.7116744 C9.42996329,21.0455625 9.14714405,23.3217286 8.21388648,25.4424386 C8.08839235,25.7276081 7.95772189,25.9961882 7.8246422,26.2448474 C7.99833474,26.3114769 8.17790215,26.3756805 8.3623925,26.4369247 Z" id="Combined-Shape" fill="#4F5661"></path>
                    <path d="M28.3285013,15.5660869 C28.3285013,15.0452426 28.7410703,14.6230148 29.2499999,14.6230148 C29.7589294,14.6230148 30.1714984,15.0452426 30.1714984,15.5660869 L30.1714984,20.2528087 C30.1714984,22.6127726 29.0247806,24.8880308 27.0895578,26.6879227 C25.1243801,28.5156746 22.5663535,29.6804632 20.4749999,29.6804632 C18.3836463,29.6804632 15.8256197,28.5156746 13.8422794,26.6705668 C11.9346532,24.7977737 10.7785014,22.5536661 10.7785014,20.2528087 L10.7785014,15.5660869 C10.7785014,15.0452426 11.1910704,14.6230148 11.6999999,14.6230148 C12.2089295,14.6230148 12.6214985,15.0452426 12.6214985,15.5660869 L12.6214985,20.2528087 C12.6214985,21.9746622 13.5427633,23.7628509 15.0999539,25.2920824 C16.7465512,26.8235325 18.8785243,27.7943191 20.4749999,27.7943191 C22.0714755,27.7943191 24.2034486,26.8235325 25.8500459,25.2920824 C27.4258452,23.8264795 28.3285013,22.0354758 28.3285013,20.2528087 L28.3285013,15.5660869 Z" id="Shape" fill="#4F5661"></path>
                    <path d="M15.6170074,37.5415717 C15.2171937,37.3036903 15.0903266,36.7939744 15.3336418,36.4030894 C15.576957,36.0122044 16.098316,35.8881706 16.4981297,36.126052 C16.5514853,36.1577975 16.660147,36.2189545 16.8138282,36.2996345 C17.0739494,36.4361936 17.3592388,36.5730821 17.6588639,36.7004186 C18.1817687,36.9226459 18.6892315,37.0903851 19.1507109,37.1819089 C19.4052626,37.2323933 19.6392703,37.2581767 19.8479325,37.2581767 C20.1229263,37.2581767 20.4170013,37.2373916 20.8144948,37.1630816 C21.4364188,37.046815 22.0492472,36.8325841 22.6177763,36.4980938 C22.8161244,36.381397 23.0066394,36.2512405 23.1885585,36.1069228 C23.5519947,35.8186061 24.0856836,35.8729229 24.380586,36.2282427 C24.6754885,36.5835625 24.619931,37.1053329 24.2564948,37.3936496 C24.0123514,37.5873304 23.7569657,37.7618053 23.4916933,37.9178765 C22.7399742,38.3601455 21.9403912,38.6396616 21.1328192,38.7906344 C20.6156053,38.8873257 20.2209866,38.9152172 19.8479325,38.9152172 C19.5184566,38.9152172 19.1733809,38.8771962 18.8137533,38.8058724 C18.2223538,38.688582 17.6067458,38.4850959 16.9831825,38.2200902 C16.6379193,38.0733581 16.3112229,37.9166016 16.0120022,37.7595158 C15.8300782,37.6640088 15.6952617,37.5881315 15.6170074,37.5415717 Z" id="Shape" fill="#4F5661"></path>
                    <path d="M32.1631664,34.184985 C32.0336345,34.2776152 31.8785834,34.3334197 31.7163652,34.3457936 C29.8006859,34.4919194 27.7293041,35.5398964 26.2432637,37.1772535 L25.4052784,37.9761411 L22.5268906,40.8013642 C22.2015151,41.1207299 21.6623403,41.1316692 21.32261,40.8257978 C20.9828797,40.5199264 20.9712428,40.0130716 21.2966183,39.6937058 L24.1836055,36.8601637 L24.988214,36.0960146 C26.6554621,34.255312 29.0239118,33.0214861 31.3238184,32.7731326 L31.4704232,32.6682934 C31.5347978,32.6222582 31.6058195,32.5850775 31.6813486,32.5578715 L35.4909795,31.1856203 C35.9915037,31.0053285 36.5426491,31.2992588 36.634811,31.7956347 L39.7671742,50.9638685 C39.8480569,51.3994952 39.5379616,51.0186619 39.0745569,51.0946962 C38.6111522,51.1707305 38.1699201,51.6748398 38.0890374,51.2392131 L35.1345386,33.0289408 L32.4047461,34.0122279 L32.1631664,34.184985 Z" id="Shape" fill="#4F5661" transform="translate(30.420000, 41.273345) scale(-1, 1) translate(-30.420000, -41.273345) "></path>
                    <path d="M28.892963,34.5559669 C28.7727515,34.1108114 29.0706721,33.6609948 29.5583874,33.5512734 C30.0461028,33.441552 30.5389248,33.713475 30.6591363,34.1586305 L31.5631329,37.5062215 C31.7044399,38.0294954 31.2705065,38.5350377 30.6800462,38.5350377 L29.7717421,38.5350377 L31.4113501,40.558916 C31.6043129,40.7971029 31.6435967,41.111093 31.5144346,41.3828547 L26.3141353,52.185232 C26.1142303,52.6058391 25.808833,52.1858983 25.348013,52.0034377 C24.8871931,51.8209772 24.4454536,51.9450911 24.6453586,51.524484 L29.6369668,41.1611999 L27.2367527,38.1984544 C26.7928387,37.6505016 27.2214182,36.8747416 27.9680565,36.8747416 L29.519134,36.8747416 L28.892963,34.5559669 Z" id="Shape" fill="#4F5661"></path>
                    <path d="M12.2779371,34.5559669 C12.1577256,34.1108114 12.4556462,33.6609948 12.9433616,33.5512734 C13.4310769,33.441552 13.9238989,33.713475 14.0441105,34.1586305 L14.948107,37.5062215 C15.089414,38.0294954 14.6554806,38.5350377 14.0650203,38.5350377 L13.1567162,38.5350377 L14.7963242,40.558916 C14.989287,40.7971029 15.0285709,41.111093 14.8994087,41.3828547 L10.1859243,51.1328798 C9.98601928,51.5534868 9.68062199,51.133546 9.21980204,50.9510855 C8.75898209,50.7686249 8.24229646,50.9508206 8.44220146,50.5302135 L13.0219409,41.1611999 L10.6217268,38.1984544 C10.1778128,37.6505016 10.6063923,36.8747416 11.3530306,36.8747416 L12.9041081,36.8747416 L12.2779371,34.5559669 Z" id="Shape" fill="#4F5661" transform="translate(11.686487, 42.420400) scale(-1, 1) translate(-11.686487, -42.420400) "></path>
                    <path d="M15.7949999,32.8448058 C15.7949999,33.4199369 15.4021298,33.8861728 14.9174999,33.8861728 C14.4328701,33.8861728 14.0399999,33.4199369 14.0399999,32.8448058 L14.0399999,26.5458008 C14.0399999,25.9706697 14.4328701,25.5044337 14.9174999,25.5044337 C15.4021298,25.5044337 15.7949999,25.9706697 15.7949999,26.5458008 L15.7949999,32.8448058 Z" id="Shape" fill="#4F5661"></path>
                    <path d="M25.8570003,32.3495229 C25.8570003,32.8014117 25.4641302,33.1677399 24.9795003,33.1677399 C24.4948705,33.1677399 24.1020003,32.8014117 24.1020003,32.3495229 L24.1020003,27.4003047 C24.1020003,26.948416 24.4948705,26.5820877 24.9795003,26.5820877 C25.4641302,26.5820877 25.8570003,26.948416 25.8570003,27.4003047 L25.8570003,32.3495229 Z" id="Shape" fill="#4F5661"></path>
                </g>
                <path d="M9.17999996,44.7520694 C9.28776179,44.866088 9.39552363,44.9801066 9.6110473,45.2081437 C13.8137589,49.4268304 19.5251363,52.0492573 25.8830847,52.0492573 C26.960703,52.0492573 28.1460832,51.9352387 29.2237016,51.8212202 L39.8921234,56.6099997 C39.8921234,56.6099997 37.8446485,48.6287005 37.8446485,48.6287005 C37.7368867,48.6287005 41.5468578,45.624204 42.8399998,44.3699998" id="Shape" stroke="#4F5661" stroke-width="2.2651202" stroke-linecap="round" stroke-linejoin="round"></path>
                <path d="M42.1487644,11.1992769 C41.6787879,10.8357128 41.5757586,10.1370155 41.918642,9.63869274 C42.2615253,9.14037002 42.9204784,9.03112659 43.3904548,9.39469069 C47.5239711,12.5922939 50.4899998,18.3308102 50.4899998,27.9751796 C50.4899998,35.6011253 48.4890127,40.2369779 44.5301827,44.278414 C43.8852224,44.9368323 41.8276531,46.8560338 41.5533705,47.1283625 C41.1287201,47.5499877 40.4621207,47.5267724 40.064479,47.0765096 C39.6668372,46.6262468 39.688732,45.9194419 40.1133823,45.4978167 C40.4238848,45.1895262 42.4665582,43.2842189 43.0689874,42.6692193 C46.6291378,39.0347816 48.3832537,34.9708758 48.3832537,27.9751796 C48.3832537,19.0716231 45.7570417,13.990566 42.1487644,11.1992769 Z" id="Path-3" fill="#4F5661"></path>
                <path d="M0.997606829,9.63986934 C0.52763039,9.28159996 0.424601089,8.59307806 0.767484445,8.10201262 C1.1103678,7.61094718 1.76932086,7.5032947 2.2392973,7.86156407 C6.34814451,10.9937937 10.7099999,18.5823273 10.7099999,26.7285081 C10.7099999,33.2032172 8.60338432,38.0905403 4.79933829,42.4667294 C3.92806035,43.4690509 3.3008848,44.1082101 1.77337065,45.6027553 C1.34872034,46.0182403 0.682120914,45.995363 0.284479161,45.5516576 C-0.113162592,45.1079522 -0.0912678319,44.4114408 0.333382477,43.9959559 C1.81958374,42.5418319 2.41938109,41.930574 3.23983218,40.9867239 C6.71473563,36.9891816 8.60325393,32.6078418 8.60325393,26.7285081 C8.60325393,19.3504155 4.60026985,12.3862279 0.997606829,9.63986934 Z" id="Path-3" fill="#4F5661" transform="translate(5.355000, 26.775000) scale(-1, 1) translate(-5.355000, -26.775000) "></path>
                <g id="Group-2" transform="translate(44.370000, 39.780000)">
                    <path d="M11.3419432,27.0557742 C20.2613354,24.2949809 22.3535385,18.4420992 22.3535385,18.4420992 L22.3535385,5.19029138 L11.3419432,0.552158657 L0.330347859,5.19029138 L0.330347859,18.4420992 C0.330347859,18.5525309 2.42255097,25.068003 11.3419432,27.0557742 Z" id="Shape" fill="#396598"></path>
                    <polygon id="Shape" stroke="#FFFFFF" stroke-width="1.07399854" fill="#FFFFFF" stroke-linejoin="round" points="18.4994801 10.3805828 16.9578568 8.94497025 9.91043578 16.2334645 6.38672528 12.9205126 4.95521789 14.4665568 9.35985601 18.6629626 9.35985601 18.6629626 10.0205517 19.2151213"></polygon>
                </g>
            </g>
        </g>
    </g>
</svg>