<?xml version="1.0" encoding="UTF-8"?>
<svg width="68px" height="70px" viewBox="0 0 68 70" version="1.1" xmlns="http://www.w3.org/2000/svg" xmlns:xlink="http://www.w3.org/1999/xlink">
    <!-- Generator: Sketch 49.3 (51167) - http://www.bohemiancoding.com/sketch -->
    <title>DIY</title>
    <desc>Created with Sketch.</desc>
    <defs></defs>
    <g id="⚙️-Icons-–-2017" stroke="none" stroke-width="1" fill="none" fill-rule="evenodd">
        <g id="DIY" transform="translate(-3.000000, -4.000000)">
            <g transform="translate(3.000000, 6.000000)">
                <path d="M45.97382,12.5232825 C44.6389885,8.09582504 41.4131459,4.94999998 36.6299998,4.94999998 C30.7344942,4.94999998 26.7299999,9.72699359 26.7299999,15.6691076 C26.7299999,15.6691076 28.3985392,16.7177159 31.6243819,13.5718909 C32.7367414,14.3874752 34.6277526,15.5525956 37.0749436,16.2516678 C41.7468537,17.5333002 44.8614605,16.3681798 46.5299998,15.7856196" id="Shape" fill="#D3E5EF" fill-rule="nonzero"></path>
                <path d="M45.862584,11.9382352 C44.4165166,7.86176467 41.3019099,4.94999998 36.6299998,4.94999998 C30.7344942,4.94999998 26.7299999,9.72529407 26.7299999,15.665294 C26.7299999,15.665294 28.3985392,16.7135293 31.6243819,13.5688235 C32.7367414,14.3841176 34.6277526,15.5488235 37.0749436,16.247647 C41.7468537,17.5288234 44.8614605,16.3641176 46.5299998,15.7817646 C46.5299998,17.5288234 46.5299998,20.207647 46.5299998,21.9547058 C46.5299998,27.8947057 40.5232582,32.6699998 36.6299998,32.6699998 C32.7367414,32.6699998 26.7299999,27.8947057 26.7299999,21.9547058 C26.7299999,21.4888234 26.7299999,20.4405881 26.7299999,19.625294" id="Shape" stroke="#3E444E" stroke-width="2.25815078" stroke-linecap="round" stroke-linejoin="round"></path>
                <path d="M31.6799998,30.6899999 L31.6799998,36.6299998" id="Shape" stroke="#3E444E" stroke-width="2.25815078" stroke-linecap="round"></path>
                <g id="Group" transform="translate(42.570000, 6.930000)" stroke="#3E444E" stroke-linecap="round" stroke-linejoin="round" stroke-width="2.25815078">
                    <path d="M15.5129464,28.6914341 L22.4075892,24.119094 C23.5566963,22.976009 24.1312499,21.9472325 24.0163392,20.8041475 C24.0163392,20.8041475 25.0505356,1.37170203 21.9479463,0.685851015 C21.9479463,0.685851015 18.8453571,3.54356358 15.7427678,1.48601053 C14.3638392,6.97281865 16.2024106,17.8321264 16.2024106,17.8321264 C16.2024106,17.8321264 5.40080355,23.5475515 0.574553569,28.6914341 L0.574553569,22.976009" id="Shape"></path>
                </g>
                <path d="M57.3299997,8.90999996 C55.1699997,8.90999996 54.0899997,3.95999998 58.4099997,3.95999998" id="Shape" stroke="#3E444E" stroke-width="2.25815078" stroke-linecap="round" stroke-linejoin="round"></path>
                <path d="M56.5220908,3.55527052 C56.5220908,3.55527052 55.3939755,-0.944368733 61.0345517,0.180541081 C66.6751279,1.3054509 65.5470127,4.68018034 64.4188974,6.92999997" id="Shape" stroke="#3E444E" stroke-width="2.25815078" stroke-linecap="round" stroke-linejoin="round"></path>
                <path d="M37.1249998,27.7199999 C39.1049998,27.7199999 39.5999998,23.7599999 39.5999998,23.7599999 L37.1249998,23.7599999 L34.6499998,23.7599999 C34.6499998,23.7599999 35.2687498,27.7199999 37.1249998,27.7199999 Z" id="Shape" stroke="#3E444E" stroke-width="2.25815078" fill="#3E444E" fill-rule="nonzero" stroke-linecap="round" stroke-linejoin="round"></path>
                <path d="M55.4399997,61.3799997 L18.8099999,61.3799997 L18.8099999,41.8926314 C18.8099999,40.631684 19.8402187,39.5999998 21.0993749,39.5999998 L53.1506247,39.5999998 C54.409781,39.5999998 55.4399997,40.631684 55.4399997,41.8926314 L55.4399997,61.3799997 Z" id="Shape" stroke="#3E444E" stroke-width="2.25815078" stroke-linecap="round" stroke-linejoin="round"></path>
                <path d="M57.1073681,66.3299997 L18.1326315,66.3299997 C16.8716841,66.3299997 15.8399999,65.2162497 15.8399999,63.8549997 L15.8399999,61.3799997 L59.3999997,61.3799997 L59.3999997,63.8549997 C59.3999997,65.3399997 58.3683155,66.3299997 57.1073681,66.3299997 Z" id="Shape" stroke="#3E444E" stroke-width="2.25815078" stroke-linecap="round" stroke-linejoin="round"></path>
                <path d="M22.2961136,29.9121427 C23.0843601,28.2621427 23.6473933,26.2585713 23.6473933,24.2549999 C23.6473933,17.4192856 18.3548814,11.8799999 11.8236966,11.8799999 C5.29251182,11.8799999 0,17.4192856 0,24.2549999 C0,31.0907141 5.29251182,36.6299998 11.8236966,36.6299998 C14.188436,36.6299998 16.327962,35.922857 18.2422748,34.6264284 L18.1296682,34.6264284 L23.7599999,36.6299998 L22.5213269,29.7942856" id="Shape" fill="#1999E3" fill-rule="nonzero"></path>
                <path d="M17.8199999,20.6465216 L15.9007894,18.8099999 L9.6915789,25.3526086 L6.64342102,22.4830434 L4.94999998,24.4343477 L9.35289469,28.451739 C9.6915789,28.7960868 10.1431578,28.7960868 10.4818421,28.451739 L17.8199999,20.6465216 Z" id="Shape" fill="#FFFFFF" fill-rule="nonzero"></path>
            </g>
        </g>
    </g>
</svg>