<?xml version="1.0" encoding="UTF-8"?>
<svg width="60px" height="50px" viewBox="0 0 60 50" version="1.1" xmlns="http://www.w3.org/2000/svg" xmlns:xlink="http://www.w3.org/1999/xlink">
    <!-- Generator: Sketch 49.3 (51167) - http://www.bohemiancoding.com/sketch -->
    <title>driver</title>
    <desc>Created with Sketch.</desc>
    <defs>
        <polygon id="path-1" points="0 50 60 50 60 0 0 0"></polygon>
    </defs>
    <g id="⚙️-Icons-–-2017" stroke="none" stroke-width="1" fill="none" fill-rule="evenodd">
        <g id="Icons" transform="translate(-2437.000000, -2572.000000)">
            <g id="driver" transform="translate(2437.000000, 2572.000000)">
                <path d="M58,47.5 C58,48.88 45.46,50 30,50 C14.54,50 2,48.88 2,47.5 C2,46.9 4.38,46.35 8.32,45.92 C8.72,46.57 9.43,47 10.24,47 L15.76,47 C16.83,47 17.72,46.25 17.94,45.25 C21.59,45.09 25.68,45 30,45 C34.32,45 38.41,45.09 42.06,45.25 C42.28,46.25 43.17,47 44.24,47 L49.76,47 C50.57,47 51.28,46.57 51.68,45.92 C55.62,46.35 58,46.9 58,47.5 Z" id="Fill-1" fill="#D3E5EF"></path>
                <path d="M55.4346,14 C57.9478847,14 59.9996,16.0517153 59.9996,18.565 C59.9996,20.8676181 58.2444697,22.760809 55.9996,22.9790172 L55.9996,34 C55.9996,36.7612847 53.7608847,39 50.9996,39 L8.9996,39 C6.23831525,39 3.9996,36.7612847 3.9996,34 L3.9996,22.9849306 C1.7479858,22.7985968 -0.0004,20.9067439 -0.0004,18.565 C-0.0004,16.0518182 2.05221214,14 4.5656,14 L6.9099939,14 L11.5950483,3.58796352 C12.4620535,1.34850246 14.6094587,0 17.1916,0 L42.8086,0 C45.3907413,0 47.5381465,1.34850246 48.3845817,3.53876915 L53.0902897,14 L55.4346,14 Z M55.4346,16 L52.4436,16 C52.0500363,16 51.6930703,15.7691538 51.5316183,15.4102308 L46.5400483,4.31003648 C45.9833632,2.8721274 44.5945553,2 42.8086,2 L17.1916,2 C15.4056447,2 14.0168368,2.8721274 13.4395817,4.35923085 L8.46858172,15.4102308 C8.30712974,15.7691538 7.9501637,16 7.5566,16 L4.5656,16 C3.15660848,16 1.9996,17.156561 1.9996,18.565 C1.9996,19.9337788 3.05114743,21 4.3656,21 L4.9996,21 C5.55188475,21 5.9996,21.4477153 5.9996,22 L5.9996,34 C5.9996,35.6567153 7.34288475,37 8.9996,37 L50.9996,37 C52.6563153,37 53.9996,35.6567153 53.9996,34 L53.9996,22 C53.9996,21.4477153 54.4473153,21 54.9996,21 L55.5656,21 C56.9094249,21 57.9996,19.9096056 57.9996,18.565 C57.9996,17.1562847 56.8433153,16 55.4346,16 Z" id="Stroke-3" fill="#4B5E69" fill-rule="nonzero"></path>
                <path d="M12.9704165,16.6846433 C12.7247442,17.3179865 13.1918354,18 13.8711,18 L46.1291,18 C46.8083646,18 47.2754558,17.3179865 47.0296903,16.6844031 L42.8919208,6.00338155 C42.8747283,6.00195704 34.3077881,6.00082985 17.1911,6 C17.172234,6 15.7653395,9.56154778 12.9704165,16.6846433 Z M13.8711,20 C11.7859654,20 10.3516001,17.9056413 11.1056903,15.9615969 L15.2947894,5.15953899 C15.3009482,5.14624888 15.3081859,5.12862675 15.3153518,5.10939622 C15.627781,4.25829599 16.3538294,4 17.1911,4 L42.8081,4 C43.6450191,4 44.3701458,4.2579681 44.6833219,5.10526629 C44.6920141,5.12862675 44.6992518,5.14624888 44.7305097,5.21859687 L48.8944165,15.9613567 C49.6485999,17.9056413 48.2142346,20 46.1291,20 L13.8711,20 Z" id="Stroke-5" fill="#4B5E69" fill-rule="nonzero"></path>
                <path d="M18,28 C18,30.209 16.209,32 14,32 C11.791,32 10,30.209 10,28 C10,25.791 11.791,24 14,24 C16.209,24 18,25.791 18,28" id="Fill-7" fill="#D3E5EF"></path>
                <path d="M36,31 L24,31 C22.343,31 21,29.657 21,28 C21,26.343 22.343,25 24,25 L36,25 C37.657,25 39,26.343 39,28 C39,29.657 37.657,31 36,31" id="Fill-9" fill="#5BBF89"></path>
                <path d="M50,28 C50,30.209 48.209,32 46,32 C43.791,32 42,30.209 42,28 C42,25.791 43.791,24 46,24 C48.209,24 50,25.791 50,28" id="Fill-11" fill="#D3E5EF"></path>
                <path d="M8.9997,44.764 C8.9997,45.4468007 9.55307023,46 10.2367,46 L15.7637,46 C16.4464153,46 16.9997,45.4467153 16.9997,44.764 L16.9997,39 L8.9997,39 L8.9997,44.764 Z M15.7637,48 L10.2367,48 C8.448639,48 6.9997,46.5515085 6.9997,44.764 L6.9997,38 C6.9997,37.4477153 7.44741525,37 7.9997,37 L17.9997,37 C18.5519847,37 18.9997,37.4477153 18.9997,38 L18.9997,44.764 C18.9997,46.5512847 17.5509847,48 15.7637,48 Z" id="Stroke-13" fill="#4B5E69" fill-rule="nonzero"></path>
                <path d="M42.9997,44.764 C42.9997,45.4468007 43.5530702,46 44.2367,46 L49.7637,46 C50.4464153,46 50.9997,45.4467153 50.9997,44.764 L50.9997,39 L42.9997,39 L42.9997,44.764 Z M49.7637,48 L44.2367,48 C42.448639,48 40.9997,46.5515085 40.9997,44.764 L40.9997,38 C40.9997,37.4477153 41.4474153,37 41.9997,37 L51.9997,37 C52.5519847,37 52.9997,37.4477153 52.9997,38 L52.9997,44.764 C52.9997,46.5512847 51.5509847,48 49.7637,48 Z" id="Stroke-15" fill="#4B5E69" fill-rule="nonzero"></path>
                <path d="M33,19 C33,16.7909084 34.790661,15 37,15 C39.209339,15 41,16.7909084 41,19 C41,19.5522847 41.4477153,20 42,20 C42.5522847,20 43,19.5522847 43,19 C43,15.6864008 40.3139703,13 37,13 C33.6860297,13 31,15.6864008 31,19 C31,19.5522847 31.4477153,20 32,20 C32.5522847,20 33,19.5522847 33,19 Z" id="Stroke-17" fill="#4B5E69" fill-rule="nonzero"></path>
                <mask id="mask-2" fill="white">
                    <use xlink:href="#path-1"></use>
                </mask>
                <g id="Clip-20"></g>
                <polygon id="Fill-19" fill="#D3E5EF" mask="url(#mask-2)" points="9 42 17 42 17 39 9 39"></polygon>
                <polygon id="Fill-21" fill="#D3E5EF" mask="url(#mask-2)" points="43 42 51 42 51 39 43 39"></polygon>
            </g>
        </g>
    </g>
</svg>