<?xml version="1.0" encoding="UTF-8"?>
<svg width="60px" height="60px" viewBox="0 0 60 60" version="1.1" xmlns="http://www.w3.org/2000/svg" xmlns:xlink="http://www.w3.org/1999/xlink">
    <!-- Generator: Sketch 49.3 (51167) - http://www.bohemiancoding.com/sketch -->
    <title>expert review canada</title>
    <desc>Created with Sketch.</desc>
    <defs>
        <circle id="path-1" cx="30" cy="30" r="25.9322034"></circle>
        <path d="M3.07769317,0.0982398958 L75.0095754,0.0982398958 C76.4090975,0.0982398958 77.5436343,1.23277671 77.5436343,2.63229879 L77.5436343,66.4659411 C77.5436343,67.8654632 76.4090975,69 75.0095754,69 L3.07769317,69 C1.67817109,69 0.543634274,67.8654632 0.543634274,66.4659411 L0.543634274,2.63229879 C0.543634274,1.23277671 1.67817109,0.0982398958 3.07769317,0.0982398958 Z" id="path-3"></path>
    </defs>
    <g id="⚙️-Icons-–-2017" stroke="none" stroke-width="1" fill="none" fill-rule="evenodd">
        <g id="Icons" transform="translate(-2919.000000, -2163.000000)">
            <g id="expert-review-canada" transform="translate(2919.000000, 2163.000000)">
                <circle id="Oval-5" stroke="#396598" stroke-width="2" cx="30" cy="30" r="29"></circle>
                <mask id="mask-2" fill="white">
                    <use xlink:href="#path-1"></use>
                </mask>
                <use id="mask" fill="#F1F1F1" xlink:href="#path-1"></use>
                <g id="agent-icon" mask="url(#mask-2)">
                    <g transform="translate(-9.152542, 1.016949)">
                        <mask id="mask-4" fill="white">
                            <use xlink:href="#path-3"></use>
                        </mask>
                        <g id="Mask" stroke="none" fill="none"></g>
                        <path d="M39.6371056,7.01605295 C44.5723731,7.28106088 46.381932,8.5319201 48.128444,11.6181943 C49.8749559,14.7044686 50.6730067,16.0937821 50.6730067,21.9291527 C50.6730067,27.7645234 50.6549037,28.3357649 50.2908787,29.7101688 C49.9268536,31.0845726 47.9334704,34.8730627 46.0838998,36.0664644 C46.0838998,36.1203513 46.0838998,37.934318 46.0838998,41.5083646 L43.6988284,54.9322575 L36.2560895,54.9322575 L33.5338403,41.1336584 L33.5338403,36.0664644 C30.3065942,33.4331285 28.5573879,30.8558928 28.2862214,28.3347571 C27.8794718,24.5530536 27.9305681,20.8570879 28.2862214,17.4844434 C28.6418748,14.111799 30.4469887,10.9952134 31.0898783,10.4210295 C31.7327679,9.84684569 34.7018382,6.75104503 39.6371056,7.01605295 Z" id="Path-3" stroke="none" fill="#FFFFFF" fill-rule="evenodd" mask="url(#mask-4)"></path>
                        <path d="M17.1088323,52.4887027 C4.62691043,59.9385919 24.1345801,60.6009943 31.1603279,61.6150308 L27.1456149,51.4746663 L29.1529714,47.4185205 L27.1456149,47.4185205 L28.5467497,43.0875708 C28.5467497,43.0875708 23.3366559,43.6392067 19.9773448,48.4122762 L17.1088323,52.4887027 Z" id="Fill-1" stroke="none" fill="#D3E5EF" fill-rule="evenodd" mask="url(#mask-4)"></path>
                        <path d="M11.3495867,57.4107439 L20.04971,48.3209115 L21.0232779,47.2967347 C22.910193,45.0759949 25.6703082,43.6664842 28.1493935,43.4129751 L28.540828,43.0884835 L32.825616,40.9694322 L36.8061184,62.5022112 L11.3495867,57.4107439 Z" id="Stroke-3" stroke="#4F5661" stroke-width="2" fill="none" stroke-linecap="round" stroke-linejoin="round" mask="url(#mask-4)"></path>
                        <path d="M69.6039875,59.8835491 C71.0129573,59.7255646 55.8468887,60.1964868 47.5949579,61.3951115 L52.2226768,51.8247104 L49.6756497,48.1419158 L52.2226768,47.9344103 L50.5758272,42.8150845 C50.5758272,42.8150845 56.6952233,43.4671363 60.642004,49.1090625 L69.6039875,59.8835491 Z" id="Fill-19" stroke="none" fill="#D3E5EF" fill-rule="evenodd" mask="url(#mask-4)"></path>
                        <path d="M41.8773504,57.4107439 L50.8955924,47.4782955 L51.8691603,46.4541187 C53.7560755,44.2333789 56.5161907,42.8238682 58.995276,42.5703591 L59.3867105,42.2458675 L64.1110436,40.4724821 L67.6520009,61.6595952 L41.8773504,57.4107439 Z" id="Stroke-3" stroke="#4F5661" stroke-width="2" fill="none" stroke-linecap="round" stroke-linejoin="round" mask="url(#mask-4)" transform="translate(54.764676, 51.066039) scale(-1, 1) translate(-54.764676, -51.066039) "></path>
                        <path d="M34.1241062,44.5224398 C34.1241062,44.5224398 37.0756475,46.0449252 39.3442832,46.0449252 C39.6915234,46.0449252 42.3652726,46.0056353 44.7265056,44.4536824" id="Stroke-15" stroke="#4F5661" stroke-width="2" fill="none" stroke-linecap="round" stroke-linejoin="round" mask="url(#mask-4)"></path>
                        <polyline id="Stroke-17" stroke="#4F5661" stroke-width="2" fill="none" stroke-linecap="round" stroke-linejoin="round" mask="url(#mask-4)" points="28.1492931 43.3623747 27.1456149 47.4185205 30.1566496 47.4185205 27.1456149 51.4746663 31.5738433 61.6089465"></polyline>
                        <polyline id="Stroke-25" stroke="#4F5661" stroke-width="2" fill="none" stroke-linecap="round" stroke-linejoin="round" mask="url(#mask-4)" points="50.3699268 43.3623747 51.373605 47.4185205 48.3625703 47.4185205 51.373605 51.4746663 46.9453766 61.6089465"></polyline>
                        <path d="M33,41.9853851 L33,35.9811128" id="Stroke-27" stroke="#4F5661" stroke-width="2" fill="none" stroke-linejoin="round" mask="url(#mask-4)"></path>
                        <path d="M45,42.9847123 L45,35.9813894" id="Stroke-27-Copy" stroke="#4F5661" stroke-width="2" fill="none" stroke-linejoin="round" mask="url(#mask-4)"></path>
                        <path d="M50.0842733,15.5691118 C48.5189473,10.5389696 44.7488553,6.90795952 39.0913062,6.90795952 C32.1616282,6.90795952 27.5563099,12.4143809 27.5563099,19.1892298 C27.5563099,19.1892298 29.5392491,19.1810009 33.3035543,15.5014717 C34.6615204,16.5015591 36.8026317,17.782859 39.6159749,18.5522332 C45.1433213,20.062266 48.7745304,19.8764185 50.7034596,19.2040826" id="Fill-1" stroke="none" fill="#D3E5EF" fill-rule="evenodd" mask="url(#mask-4)"></path>
                        <path d="M50.0842733,15.5691118 C48.5189473,10.5389696 44.7488553,6.90795952 39.0913062,6.90795952 C32.1616282,6.90795952 27.5563099,12.4143809 27.5563099,19.1892298 C27.5563099,19.1892298 29.5392491,19.1810009 33.3035543,15.5024619 C34.6615204,16.5015591 36.8026317,17.782859 39.6159749,18.5522332 C45.1433213,20.062266 48.7745304,19.8774087 50.7034596,19.2040826 L50.7034596,26.3264867 C50.7034596,33.1013356 43.6628682,38.5938944 39.1298847,38.5938944 C34.5554293,38.5938944 27.5563099,33.1013356 27.5563099,26.3264867 L27.5563099,22.7657797" id="Stroke-3" stroke="#4F5661" stroke-width="2" fill="none" stroke-linecap="round" stroke-linejoin="round" mask="url(#mask-4)"></path>
                        <g id="GLASSES" stroke="none" stroke-width="1" fill="none" fill-rule="evenodd" mask="url(#mask-4)" stroke-linecap="round">
                            <g transform="translate(27.276954, 21.373244)" stroke="#4F5661" stroke-width="1.5">
                                <path d="M9.80794524,3.62771675 C9.80794524,5.36869216 8.41259879,6.77975431 6.69101349,6.77975431 C4.96942819,6.77975431 3.57408174,5.36869216 3.57408174,3.62771675 C3.57408174,1.88674134 4.96942819,0.475679187 6.69101349,0.475679187 C8.41259879,0.475679187 9.80794524,1.88674134 9.80794524,3.62771675 Z" id="Stroke-35"></path>
                                <path d="M20.1977177,3.62771675 C20.1977177,5.36869216 18.8023713,6.77975431 17.080786,6.77975431 C15.3592007,6.77975431 13.9638542,5.36869216 13.9638542,3.62771675 C13.9638542,1.88674134 15.3592007,0.475679187 17.080786,0.475679187 C18.8023713,0.475679187 20.1977177,1.88674134 20.1977177,3.62771675 Z" id="Stroke-37"></path>
                                <path d="M9.80794524,3.62771675 C9.80794524,2.46776693 10.7388689,1.52635837 11.8858997,1.52635837 C13.0329306,1.52635837 13.9638542,2.46776693 13.9638542,3.62771675" id="Stroke-39"></path>
                                <polyline id="Stroke-43" points="0.303510662 1.14013925 1.29558389 1.69933606 3.57408174 2.97357143"></polyline>
                                <polyline id="Stroke-43" transform="translate(21.818745, 2.183876) scale(-1, 1) translate(-21.818745, -2.183876) " points="20.638725 1.65853633 21.3546036 1.97899348 22.9987641 2.70921552"></polyline>
                            </g>
                        </g>
                    </g>
                </g>
            </g>
        </g>
    </g>
</svg>