<?xml version="1.0" encoding="UTF-8"?>
<svg width="44px" height="63px" viewBox="0 0 44 63" version="1.1" xmlns="http://www.w3.org/2000/svg" xmlns:xlink="http://www.w3.org/1999/xlink">
    <!-- Generator: Sketch 49.3 (51167) - http://www.bohemiancoding.com/sketch -->
    <title>freelancer-2</title>
    <desc>Created with Sketch.</desc>
    <defs></defs>
    <g id="⚙️-Icons-–-2017" stroke="none" stroke-width="1" fill="none" fill-rule="evenodd">
        <g id="freelance_icon" transform="translate(-29.000000, -22.000000)">
            <g id="freelancer-2" transform="translate(30.000000, 22.000000)">
                <g id="Group-18-Copy" transform="translate(0.000000, 41.000000)">
                    <path d="M21,20.8437714 L37.687,20.8437714 C38.2161,20.8437714 38.6704,20.4026286 38.7683,19.7946286 L41.6558,1.79462857 C41.7834,1.00377143 41.2631,0.272342857 40.5745,0.272342857 L21,0.272342857 L1.4255,0.272342857 C0.7369,0.272342857 0.2166,1.00377143 0.3442,1.79462857 L3.2317,19.7946286 C3.3296,20.4026286 3.7839,20.8437714 4.313,20.8437714 L21,20.8437714 Z" id="Fill-4" stroke="#4B5E69" stroke-width="1.6" fill="#FFFFFF"></path>
                    <path d="M21,7.12948571 C19.1487,7.12948571 17.7,8.38434286 17.7,9.98662857 C17.7,11.5889143 19.1487,12.8437714 21,12.8437714 C22.8513,12.8437714 24.3,11.5889143 24.3,9.98662857 C24.3,8.38434286 22.8513,7.12948571 21,7.12948571" id="Fill-8" fill="#D3E5EF"></path>
                </g>
                <g id="Group-20" transform="translate(3.000000, 0.000000)">
                    <g id="Page-1-Copy-5" transform="translate(1.000000, 0.000000)">
                        <path d="M6.58153846,12.7346939 C9.16487179,11.6084694 10.887359,8.00455102 13.4706923,9.8065102 C16.0540256,11.6084694 21.2206923,13.4104286 27.2482051,10.7074898 C27.2482051,10.7074898 25.5257179,0.795918367 16.0540256,0.795918367 C6.58153846,0.795918367 6.58153846,12.7346939 6.58153846,12.7346939" id="Fill-1" fill="#D3E5EF"></path>
                        <path d="M1.07490513,34.0445327 C0.763315385,34.0079204 0.491469231,33.7802878 0.403238462,33.4475939 C0.337264103,33.1952878 -1.16424872,27.2609204 2.91821282,25.0880633 C4.72098205,24.1289816 5.43557179,22.6246959 4.34421282,17.0620224 C4.25677692,16.6163082 4.53498205,16.1777571 4.96500769,16.0830429 C5.39821282,15.9867367 5.81472564,16.2732673 5.90216154,16.7189816 C6.87428974,21.668002 6.81387949,24.8636143 3.63518718,26.5557367 C0.697341026,28.1181245 1.92621282,32.9517367 1.93972564,33.0002878 C2.05418718,33.4396347 1.80380256,33.8956959 1.3801359,34.0182673 C1.27839231,34.0485122 1.17505897,34.0564714 1.07490513,34.0445327" id="Fill-3" fill="#D3E5EF"></path>
                        <path d="M25.6584615,13.5306122 L25.6584615,16.4054694 C25.6584615,20.9055794 20.7534944,25.4693878 16.9148718,25.4693878 C13.0547493,25.4693878 8.17128205,20.9156742 8.17128205,16.4054694 L8.17128205,13.542551 C8.17128205,13.1029774 7.81540583,12.7466327 7.37641026,12.7466327 C6.93741469,12.7466327 6.58153846,13.1029774 6.58153846,13.542551 L6.58153846,16.4054694 C6.58153846,21.8211563 12.2010623,27.0612245 16.9148718,27.0612245 C21.6064725,27.0612245 27.2482051,21.8118955 27.2482051,16.4054694 L27.2482051,13.5306122 C27.2482051,13.0910387 26.8923289,12.7346939 26.4533333,12.7346939 C26.0143378,12.7346939 25.6584615,13.0910387 25.6584615,13.5306122 Z" id="Stroke-5" fill="#4B5E69" fill-rule="nonzero"></path>
                        <path d="M13.4756155,19.4987831 C14.1784863,20.7227766 15.4776953,21.4897959 16.9149513,21.4897959 C18.3513319,21.4897959 19.6503243,20.7229044 20.3540389,19.499215 C20.5731037,19.1182832 20.4422906,18.6316559 20.0618596,18.4123027 C19.6814287,18.1929494 19.1954413,18.3239348 18.9763765,18.7048666 C18.5538528,19.4395931 17.7774535,19.8979592 16.9149513,19.8979592 C16.0517348,19.8979592 15.2754913,19.4396852 14.8537742,18.7052985 C14.6349476,18.3242294 14.1490423,18.1929394 13.7684742,18.4120542 C13.3879062,18.6311689 13.2567889,19.117714 13.4756155,19.4987831 Z" id="Stroke-9" fill="#4B5E69" fill-rule="nonzero"></path>
                        <path d="M16.7179867,36.2643961 C16.1791975,35.7774277 15.6402779,35.2414907 15.1391452,34.6749933 C14.1341668,33.5389318 13.4156574,32.4308691 13.1062017,31.4348802 C12.9961667,31.0807308 12.9405128,30.7475619 12.9405128,30.437594 L12.9405128,24.6315789 C12.9405128,24.2151408 12.5846366,23.877551 12.145641,23.877551 C11.7066455,23.877551 11.3507692,24.2151408 11.3507692,24.6315789 L11.3507692,30.437594 C11.3507692,30.8995358 11.430137,31.3746667 11.5813123,31.8612271 C11.9636851,33.0919007 12.7881555,34.3633732 13.9213676,35.6443944 C14.4635041,36.2572438 15.042373,36.832909 15.6213723,37.3562202 C15.8243126,37.5396416 16.0131611,37.7037428 16.1833132,37.8465129 C16.2871327,37.933625 16.3629039,37.9952402 16.4060073,38.029314 C16.7007823,38.2623375 17.1289613,38.2623375 17.4237363,38.029314 C17.4668397,37.9952402 17.5426109,37.933625 17.6464304,37.8465129 C17.8165824,37.7037428 18.005431,37.5396416 18.2083713,37.3562202 C18.7873706,36.832909 19.3662395,36.2572438 19.9083759,35.6443944 C21.0415881,34.3633732 21.8660584,33.0919007 22.2484312,31.8612271 C22.3996065,31.3746667 22.4789744,30.8995358 22.4789744,30.437594 L22.4789744,24.6315789 C22.4789744,24.2151408 22.1230981,23.877551 21.6841026,23.877551 C21.245107,23.877551 20.8892308,24.2151408 20.8892308,24.6315789 L20.8892308,30.437594 C20.8892308,30.7475619 20.8335769,31.0807308 20.7235419,31.4348802 C20.4140862,32.4308691 19.6955767,33.5389318 18.6905984,34.6749933 C18.1894657,35.2414907 17.6505461,35.7774277 17.1117569,36.2643961 C17.0442769,36.3253859 16.9785763,36.3839863 16.9148718,36.4400968 C16.8511673,36.3839863 16.7854667,36.3253859 16.7179867,36.2643961 Z" id="Stroke-11" fill="#4B5E69" fill-rule="nonzero"></path>
                        <path d="M7.37641026,11.1428571 C7.37641026,5.86773684 11.6466879,1.59183673 16.9148718,1.59183673 C22.1830557,1.59183673 26.4533333,5.86773684 26.4533333,11.1428571 C26.4533333,11.5824307 26.8092096,11.9387755 27.2482051,11.9387755 C27.6872007,11.9387755 28.0430769,11.5824307 28.0430769,11.1428571 C28.0430769,4.98858969 23.0610469,0 16.9148718,0 C10.7686967,0 5.78666667,4.98858969 5.78666667,11.1428571 C5.78666667,11.5824307 6.14254289,11.9387755 6.58153846,11.9387755 C7.02053403,11.9387755 7.37641026,11.5824307 7.37641026,11.1428571 Z" id="Stroke-13" fill="#4B5E69" fill-rule="nonzero"></path>
                        <path d="M7.37641026,18.3061224 L6.28187179,18.3061224 C4.69133333,18.3061224 3.40205128,17.0151429 3.40205128,15.4225102 L3.40205128,13.230551 C3.40205128,11.6379184 4.69133333,10.3469388 6.28187179,10.3469388 L7.37641026,10.3469388 C7.81597436,10.3469388 8.17128205,10.7035102 8.17128205,11.1428571 L8.17128205,17.5102041 C8.17128205,17.949551 7.81597436,18.3061224 7.37641026,18.3061224" id="Fill-15" fill="#5BBF89"></path>
                        <path d="M26.4533333,10.3469388 L27.5478718,10.3469388 C29.1384103,10.3469388 30.4276923,11.6379184 30.4276923,13.230551 L30.4276923,15.4225102 C30.4276923,17.0151429 29.1384103,18.3061224 27.5478718,18.3061224 L26.4533333,18.3061224 C26.0137692,18.3061224 25.6584615,17.949551 25.6584615,17.5102041 L25.6584615,11.1428571 C25.6584615,10.7035102 26.0137692,10.3469388 26.4533333,10.3469388" id="Fill-17" fill="#5BBF89"></path>
                    </g>
                    <g id="Group-19" transform="translate(0.000000, 28.000000)" stroke="#4B5E69" stroke-linecap="round" stroke-linejoin="round" stroke-width="1.6">
                        <path d="M13,0 C11.0758888,0.965101939 9.84668192,1.64512564 9.31237941,2.04007111 C8.77807691,2.43501658 7.78549528,2.94351287 6.33463454,3.56555999 C2.11154485,4.80965422 7.24635054e-13,6.95446756 0,10" id="Path-3"></path>
                        <path d="M36,0 C34.0758888,0.965101939 32.8466819,1.64512564 32.3123794,2.04007111 C31.7780769,2.43501658 30.7854953,2.94351287 29.3346345,3.56555999 C25.1115448,4.80965422 23,6.95446756 23,10" id="Path-3" transform="translate(29.500000, 5.000000) scale(-1, 1) translate(-29.500000, -5.000000) "></path>
                    </g>
                </g>
            </g>
        </g>
    </g>
</svg>