<?xml version="1.0" encoding="UTF-8"?>
<svg width="44px" height="65px" viewBox="0 0 44 65" version="1.1" xmlns="http://www.w3.org/2000/svg" xmlns:xlink="http://www.w3.org/1999/xlink">
    <!-- Generator: Sketch 49.3 (51167) - http://www.bohemiancoding.com/sketch -->
    <title>freelancer-1</title>
    <desc>Created with Sketch.</desc>
    <defs>
        <rect id="path-1" x="10" y="0" width="4" height="3" rx="1.5"></rect>
    </defs>
    <g id="⚙️-Icons-–-2017" stroke="none" stroke-width="1" fill="none" fill-rule="evenodd">
        <g id="freelance_icon-copy" transform="translate(-29.000000, -20.000000)">
            <g id="freelancer-1" transform="translate(30.000000, 20.000000)">
                <g id="Group-18-Copy" transform="translate(0.000000, 43.000000)">
                    <path d="M21,20.8437714 L37.687,20.8437714 C38.2161,20.8437714 38.6704,20.4026286 38.7683,19.7946286 L41.6558,1.79462857 C41.7834,1.00377143 41.2631,0.272342857 40.5745,0.272342857 L21,0.272342857 L1.4255,0.272342857 C0.7369,0.272342857 0.2166,1.00377143 0.3442,1.79462857 L3.2317,19.7946286 C3.3296,20.4026286 3.7839,20.8437714 4.313,20.8437714 L21,20.8437714 Z" id="Fill-4" stroke="#4B5E69" stroke-width="1.6" fill="#FFFFFF"></path>
                    <path d="M21,7.12948571 C19.1487,7.12948571 17.7,8.38434286 17.7,9.98662857 C17.7,11.5889143 19.1487,12.8437714 21,12.8437714 C22.8513,12.8437714 24.3,11.5889143 24.3,9.98662857 C24.3,8.38434286 22.8513,7.12948571 21,7.12948571" id="Fill-8" fill="#D3E5EF"></path>
                </g>
                <g id="Group-20" transform="translate(3.000000, 0.000000)">
                    <g id="Page-1-Copy-5" transform="translate(6.000000, 0.000000)">
                        <g id="Rectangle">
                            <use fill="#D3E5EF" fill-rule="evenodd" xlink:href="#path-1"></use>
                            <rect stroke="#4B5E69" stroke-width="1.6" x="10.8" y="0.8" width="2.4" height="1.4" rx="0.7"></rect>
                        </g>
                        <path d="M1.58153846,12.0981445 C4.16487179,10.97192 5.88735897,9.00455102 8.47069231,10.8065102 C11.0540256,12.6084694 16.2206923,14.4104286 22.2482051,11.7074898 C22.2482051,11.7074898 20.5257179,1.79591837 11.0540256,1.79591837 C1.58153846,1.79591837 1.58153846,13.7346939 1.58153846,13.7346939 L1.58153846,12.0981445 Z" id="Fill-1" fill="#D3E5EF"></path>
                        <path d="M20.6584615,15.5306122 L20.6584615,18.4054694 C20.6584615,22.9055794 15.7534944,27.4693878 11.9148718,27.4693878 C8.05474933,27.4693878 3.17128205,22.9156742 3.17128205,18.4054694 L3.17128205,15.542551 C3.17128205,15.1029774 2.81540583,14.7466327 2.37641026,14.7466327 C1.93741469,14.7466327 1.58153846,15.1029774 1.58153846,15.542551 L1.58153846,18.4054694 C1.58153846,23.8211563 7.20106226,29.0612245 11.9148718,29.0612245 C16.6064725,29.0612245 22.2482051,23.8118955 22.2482051,18.4054694 L22.2482051,15.5306122 C22.2482051,15.0910387 21.8923289,14.7346939 21.4533333,14.7346939 C21.0143378,14.7346939 20.6584615,15.0910387 20.6584615,15.5306122 Z" id="Stroke-5" fill="#4B5E69" fill-rule="nonzero"></path>
                        <path d="M8.4756155,21.4987831 C9.17848629,22.7227766 10.4776953,23.4897959 11.9149513,23.4897959 C13.3513319,23.4897959 14.6503243,22.7229044 15.3540389,21.499215 C15.5731037,21.1182832 15.4422906,20.6316559 15.0618596,20.4123027 C14.6814287,20.1929494 14.1954413,20.3239348 13.9763765,20.7048666 C13.5538528,21.4395931 12.7774535,21.8979592 11.9149513,21.8979592 C11.0517348,21.8979592 10.2754913,21.4396852 9.85377424,20.7052985 C9.63494763,20.3242294 9.14904226,20.1929394 8.76847423,20.4120542 C8.38790621,20.6311689 8.25678889,21.117714 8.4756155,21.4987831 Z" id="Stroke-9" fill="#4B5E69" fill-rule="nonzero"></path>
                        <path d="M11.7179867,38.2643961 C11.1791975,37.7774277 10.6402779,37.2414907 10.1391452,36.6749933 C9.13416684,35.5389318 8.41565743,34.4308691 8.10620166,33.4348802 C7.99616673,33.0807308 7.94051282,32.7475619 7.94051282,32.437594 L7.94051282,26.6315789 C7.94051282,26.2151408 7.5846366,25.877551 7.14564103,25.877551 C6.70664546,25.877551 6.35076923,26.2151408 6.35076923,26.6315789 L6.35076923,32.437594 C6.35076923,32.8995358 6.43013704,33.3746667 6.58131235,33.8612271 C6.96368514,35.0919007 7.78815553,36.3633732 8.92136764,37.6443944 C9.46350413,38.2572438 10.042373,38.832909 10.6213723,39.3562202 C10.8243126,39.5396416 11.0131611,39.7037428 11.1833132,39.8465129 C11.2871327,39.933625 11.3629039,39.9952402 11.4060073,40.029314 C11.7007823,40.2623375 12.1289613,40.2623375 12.4237363,40.029314 C12.4668397,39.9952402 12.5426109,39.933625 12.6464304,39.8465129 C12.8165824,39.7037428 13.005431,39.5396416 13.2083713,39.3562202 C13.7873706,38.832909 14.3662395,38.2572438 14.9083759,37.6443944 C16.0415881,36.3633732 16.8660584,35.0919007 17.2484312,33.8612271 C17.3996065,33.3746667 17.4789744,32.8995358 17.4789744,32.437594 L17.4789744,26.6315789 C17.4789744,26.2151408 17.1230981,25.877551 16.6841026,25.877551 C16.245107,25.877551 15.8892308,26.2151408 15.8892308,26.6315789 L15.8892308,32.437594 C15.8892308,32.7475619 15.8335769,33.0807308 15.7235419,33.4348802 C15.4140862,34.4308691 14.6955767,35.5389318 13.6905984,36.6749933 C13.1894657,37.2414907 12.6505461,37.7774277 12.1117569,38.2643961 C12.0442769,38.3253859 11.9785763,38.3839863 11.9148718,38.4400968 C11.8511673,38.3839863 11.7854667,38.3253859 11.7179867,38.2643961 Z" id="Stroke-11" fill="#4B5E69" fill-rule="nonzero"></path>
                        <path d="M2.37641026,12.1428571 C2.37641026,6.86773684 6.64668788,2.59183673 11.9148718,2.59183673 C17.1830557,2.59183673 21.4533333,6.86773684 21.4533333,12.1428571 C21.4533333,12.5824307 21.8092096,12.9387755 22.2482051,12.9387755 C22.6872007,12.9387755 23.0430769,12.5824307 23.0430769,12.1428571 C23.0430769,5.98858969 18.0610469,1 11.9148718,1 C5.76869674,1 0.786666667,5.98858969 0.786666667,12.1428571 C0.786666667,12.5824307 1.14254289,12.9387755 1.58153846,12.9387755 C2.02053403,12.9387755 2.37641026,12.5824307 2.37641026,12.1428571 Z" id="Stroke-13" fill="#4B5E69" fill-rule="nonzero"></path>
                    </g>
                    <g id="Group-19" transform="translate(0.000000, 30.000000)" stroke="#4B5E69" stroke-linecap="round" stroke-linejoin="round" stroke-width="1.6">
                        <path d="M13,0 C11.0758888,0.965101939 9.84668192,1.64512564 9.31237941,2.04007111 C8.77807691,2.43501658 7.78549528,2.94351287 6.33463454,3.56555999 C2.11154485,4.80965422 7.24635054e-13,6.95446756 0,10" id="Path-3"></path>
                        <path d="M36,0 C34.0758888,0.965101939 32.8466819,1.64512564 32.3123794,2.04007111 C31.7780769,2.43501658 30.7854953,2.94351287 29.3346345,3.56555999 C25.1115448,4.80965422 23,6.95446756 23,10" id="Path-3" transform="translate(29.500000, 5.000000) scale(-1, 1) translate(-29.500000, -5.000000) "></path>
                    </g>
                </g>
                <path d="M9.54565354,13.3481445 C13.2967115,12.5623372 17.0477694,12.1694336 20.7988274,12.1694336 C24.5498853,12.1694336 28.3009432,12.5623372 32.0520012,13.3481445 C29.0852038,9.90120443 25.3341459,8.17773438 20.7988274,8.17773438 C16.2635089,8.17773438 12.5124509,9.90120443 9.54565354,13.3481445 Z" id="Path-2" stroke="#4B5E69" stroke-width="1.6" fill="#D8D8D8" stroke-linecap="round" stroke-linejoin="round"></path>
            </g>
        </g>
    </g>
</svg>