<?xml version="1.0" encoding="UTF-8"?>
<svg width="72px" height="54px" viewBox="0 0 72 54" version="1.1" xmlns="http://www.w3.org/2000/svg" xmlns:xlink="http://www.w3.org/1999/xlink">
    <!-- Generator: Sketch 49.3 (51167) - http://www.bohemiancoding.com/sketch -->
    <title>icon/jreer</title>
    <desc>Created with Sketch.</desc>
    <defs></defs>
    <g id="⚙️-Icons-–-2017" stroke="none" stroke-width="1" fill="none" fill-rule="evenodd">
        <g id="Icons" transform="translate(-2535.000000, -2278.000000)">
            <g id="icon/jreer" transform="translate(2536.000000, 2279.000000)">
                <g id="Group-3-Copy">
                    <g id="Group">
                        <path d="M52,26.6 C52,24.4 49.7,23.4 47.7,22.8 C46,22.2 45.3,21.7 45.3,20.9 C45.3,20.4 45.9,19.7 47.1,19.7 C48.2,19.7 49.8,20.5 49.9,20.6 C50.1,20.7 50.4,20.6 50.6,20.4 L51.4,19.4 C51.5,19.2 51.5,18.9 51.3,18.8 C51,18.6 49.8,18 48.3,17.8 L48.3,16.2 C48.3,15.9 48.1,15.7 47.8,15.7 L46.8,15.7 C46.5,15.7 46.3,15.9 46.3,16.2 L46.3,17.8 C43.8,18.1 42.7,19.6 42.7,21 C42.7,23 44.6,24 46.5,24.6 C48.2,25.2 49.1,25.8 49.1,26.6 C49.1,27.3 48.3,27.9 47.2,27.9 C45.9,27.9 44.2,26.9 44.1,26.9 C43.9,26.8 43.6,26.8 43.4,27 L42.7,28 C42.5,28.3 42.6,28.4 42.8,28.5 C43.2,28.8 44.3,29.5 46.3,29.8 L46.3,31.4 C46.3,31.7 46.5,31.9 46.8,31.9 L47.8,31.9 C48.1,31.9 48.3,31.7 48.3,31.4 L48.3,29.8 C50.6,29.6 52,28.2 52,26.6 Z" id="Shape" fill="#D3E5EF" fill-rule="nonzero"></path>
                        <path d="M7,26 L16,26" id="Shape" stroke="#4F5661" stroke-width="2" stroke-linecap="round"></path>
                        <path d="M7,31 L19,31" id="Shape" stroke="#4F5661" stroke-width="2" stroke-linecap="round"></path>
                        <path d="M25,26 L34,26" id="Shape" stroke="#4F5661" stroke-width="2" stroke-linecap="round"></path>
                        <path d="M25,31 L37,31" id="Shape" stroke="#4F5661" stroke-width="2" stroke-linecap="round"></path>
                        <path d="M48.9,0 L0,0 L0,40 L58,40 L58,9.1 C54.5,5.5 52.5,3.5 48.9,0 Z" id="Shape" stroke="#4F5661" stroke-width="2" stroke-linecap="round" stroke-linejoin="round"></path>
                        <polyline id="Shape" stroke="#4F5661" stroke-width="2" stroke-linecap="round" stroke-linejoin="round" points="48 0 48 10 58 10"></polyline>
                    </g>
                    <text id="REER" font-family="AvenirNextforINTUIT-Bold, AvenirNext forINTUIT" font-size="15" font-weight="bold" letter-spacing="-0.681818187" fill="#53C27C">
                        <tspan x="4.31363637" y="18">REER</tspan>
                    </text>
                </g>
                <path d="M70,40.5 C70,46.852 64.851,52 58.5,52 C52.149,52 47,46.852 47,40.5 C47,34.148 52.149,29 58.5,29 C64.851,29 70,34.148 70,40.5" id="Fill-3" stroke="#FFFFFF" stroke-width="2" fill="#53C27C"></path>
                <path d="M65.230873,37.4970348 L63.831873,36.1410348 C63.634873,35.9500348 63.318873,35.9530348 63.126873,36.1500348 L57.000873,42.4150348 L54.145873,39.7260348 C54.047873,39.6350348 53.923873,39.5830348 53.781873,39.5910348 C53.647873,39.5970348 53.520873,39.6560348 53.430873,39.7570348 L52.127873,41.2060348 C51.945873,41.4080348 51.959873,41.7200348 52.158873,41.9050348 L56.224873,45.6960348 C56.241873,45.7120348 56.258873,45.7260348 56.277873,45.7390348 L56.744873,46.1920348 C56.841873,46.2860348 56.966873,46.3330348 57.092873,46.3330348 C57.222873,46.3330348 57.352873,46.2820348 57.450873,46.1830348 L65.240873,38.2060348 C65.333873,38.1100348 65.384873,37.9820348 65.382873,37.8500348 C65.380873,37.7170348 65.325873,37.5900348 65.230873,37.4970348" id="Fill-5" fill="#FFFFFF"></path>
            </g>
        </g>
    </g>
</svg>