<?xml version="1.0" encoding="UTF-8"?>
<svg width="45px" height="45px" viewBox="0 0 45 45" version="1.1" xmlns="http://www.w3.org/2000/svg" xmlns:xlink="http://www.w3.org/1999/xlink">
    <!-- Generator: Sketch 49.3 (51167) - http://www.bohemiancoding.com/sketch -->
    <title>no-download</title>
    <desc>Created with Sketch.</desc>
    <defs></defs>
    <g id="⚙️-Icons-–-2017" stroke="none" stroke-width="1" fill="none" fill-rule="evenodd">
        <g id="Icons" transform="translate(-2234.000000, -2570.000000)">
            <g id="no-download" transform="translate(2234.000000, 2570.000000)">
                <g id="Group-2" transform="translate(22.500000, 22.500000) rotate(-180.000000) translate(-22.500000, -22.500000) translate(12.000000, 4.000000)">
                    <path d="M20.12006,10.83475 L11.20306,0.43275 C10.71106,-0.14425 9.72305999,-0.14425 9.23005999,0.43275 L0.313059993,10.83475 C-0.0179400072,11.21975 -0.0929400072,11.76375 0.119059993,12.22475 C0.332059993,12.68575 0.792059993,12.98075 1.30105999,12.98075 L6.31605999,12.98075 L6.31605999,24.68375 C6.31605999,25.40175 6.89705999,25.98275 7.61605999,25.98275 L12.81706,25.98275 C13.53606,25.98275 14.11706,25.40175 14.11706,24.68375 L14.11706,12.98075 L19.13306,12.98075 C19.64106,12.98075 20.10106,12.68575 20.31406,12.22475 C20.52606,11.76375 20.45106,11.21975 20.12006,10.83475" id="Fill-6" fill="#53C27C"></path>
                    <path d="M3,32 C2.447,32 2,31.553 2,31 L2,23 C2,22.447 2.447,22 3,22 C3.553,22 4,22.447 4,23 L4,31 C4,31.553 3.553,32 3,32" id="Fill-10" fill="#D3E5EF"></path>
                    <path d="M17,32 C16.447,32 16,31.553 16,31 L16,23 C16,22.447 16.447,22 17,22 C17.553,22 18,22.447 18,23 L18,31 C18,31.553 17.553,32 17,32" id="Fill-12" fill="#D3E5EF"></path>
                    <path d="M10,37 C9.447,37 9,36.553 9,36 L9,29 C9,28.447 9.447,28 10,28 C10.553,28 11,28.447 11,29 L11,36 C11,36.553 10.553,37 10,37" id="Fill-14" fill="#D3E5EF"></path>
                </g>
                <g id="Page-1" fill="#4F5661">
                    <path d="M8.0600625,39.4871786 C7.84791964,39.4871786 7.63658036,39.4036071 7.47827679,39.2372679 C7.17291964,38.9166429 7.18416964,38.4079821 7.50640179,38.1018214 L38.8207768,8.25798214 C39.1414018,7.95182143 39.6508661,7.96307143 39.9562232,8.28530357 C40.2623839,8.60592857 40.2511339,9.11458929 39.9289018,9.42075 L8.61372321,39.2653929 C8.45863393,39.41325 8.25934821,39.4871786 8.0600625,39.4871786" id="Fill-9"></path>
                    <path d="M22.5,45 C17.8392857,45 13.3778571,43.5905357 9.59705357,40.9242857 C8.89151786,40.4365179 8.19160714,39.8828571 7.52303571,39.2817857 C7.19276786,38.9852679 7.16544643,38.4766071 7.46196429,38.1471429 C7.76008929,37.816875 8.26875,37.7911607 8.59660714,38.0860714 C9.21535714,38.6413393 9.860625,39.1532143 10.5171429,39.6064286 C14.0319643,42.0846429 18.1727679,43.3928571 22.5,43.3928571 C34.0208036,43.3928571 43.3928571,34.0208036 43.3928571,22.5 C43.3928571,18.5657143 42.2967857,14.7407143 40.2219643,11.4364286 C39.9857143,11.0611607 40.0982143,10.5645536 40.4742857,10.3291071 C40.8519643,10.0928571 41.3469643,10.2061607 41.5824107,10.5814286 C43.8179464,14.1420536 45,18.2635714 45,22.5 C45,34.9063393 34.9063393,45 22.5,45" id="Fill-11"></path>
                    <path d="M6.14764286,37.5512946 C5.92425,37.5512946 5.70085714,37.4580804 5.54255357,37.2764732 C1.96826786,33.1854911 0.000321428571,27.9381696 0.000321428571,22.5004018 C0.000321428571,10.0932589 10.0931786,0.000401785714 22.5003214,0.000401785714 C28.3768393,0.000401785714 33.9319286,2.25200893 38.1426429,6.34299107 C38.7838929,6.94245536 39.409875,7.62388393 39.98925,8.3559375 C40.264875,8.7046875 40.2062143,9.20933036 39.8582679,9.48495536 C39.5103214,9.76058036 39.0040714,9.70111607 38.72925,9.35397321 C38.1988929,8.68379464 37.6283571,8.06263393 37.0337143,7.50575893 C33.1146964,3.6984375 27.9565714,1.60754464 22.5003214,1.60754464 C10.9795179,1.60754464 1.60746429,10.9795982 1.60746429,22.5004018 C1.60746429,27.5492411 3.43478571,32.4212946 6.75273214,36.2189732 C7.04442857,36.5532589 7.01067857,37.0611161 6.67639286,37.3528125 C6.52451786,37.4862054 6.334875,37.5512946 6.14764286,37.5512946" id="Fill-13"></path>
                </g>
            </g>
        </g>
    </g>
</svg>