<?xml version="1.0" encoding="UTF-8"?>
<svg width="60px" height="60px" viewBox="0 0 60 60" version="1.1" xmlns="http://www.w3.org/2000/svg" xmlns:xlink="http://www.w3.org/1999/xlink">
    <!-- Generator: Sketch 49.3 (51167) - http://www.bohemiancoding.com/sketch -->
    <title>smart look canada</title>
    <desc>Created with Sketch.</desc>
    <defs>
        <circle id="path-1" cx="30" cy="30" r="26.25"></circle>
    </defs>
    <g id="⚙️-Icons-–-2017" stroke="none" stroke-width="1" fill="none" fill-rule="evenodd">
        <g id="Icons" transform="translate(-2774.000000, -2163.000000)">
            <g id="smart-look-canada" transform="translate(2774.000000, 2163.000000)">
                <circle id="Oval-5" stroke="#4F5661" stroke-width="2" cx="30" cy="30" r="29"></circle>
                <mask id="mask-2" fill="white">
                    <use xlink:href="#path-1"></use>
                </mask>
                <use id="mask" fill="#E5F1F8" xlink:href="#path-1"></use>
                <g id="hair-3" mask="url(#mask-2)">
                    <g transform="translate(12.000000, 12.000000)">
                        <path d="M17.8326538,1.41321578 C21.0879619,0.958237887 22.2555238,0.730748941 23.5340836,0.958237887 C24.8126435,1.18572683 29.7245863,7.96398822 28.7218166,12.9043435 C28.0533034,16.1979137 27.4486866,21.3324838 26.9079663,28.3080538 L22.9275727,28.3080538 L13.9090851,32.529006 L12.7669049,31.1057321 L12.7062917,28.3080538 L8.0144506,28.3080538 L6.58397889,24.420853 L10.5799046,3.02363294 C13.2448653,2.25334009 15.6624484,1.71653437 17.8326538,1.41321578 Z" id="Path-2" stroke="none" fill="#FFFFFF" fill-rule="evenodd"></path>
                        <path d="M8.7159,28.3165691 C2.0978,29.1537852 1.0659,25.5059758 1.0659,25.5059758 C1.0659,25.5059758 2.6265,24.2003275 3.3711,21.6520564 C4.67925,17.1729928 3.99245,9.68318771 7.6211,3.5041411 C10.45415,-1.32241398 17.67065,0.757425 17.67065,0.757425" id="Stroke-21" stroke="#4F5661" stroke-width="2" fill="#FFFFFF" fill-rule="evenodd" stroke-linecap="round" stroke-linejoin="round"></path>
                        <path d="M26.79336,28.3165691 C33.41146,29.1537852 34.44336,25.5059758 34.44336,25.5059758 C34.44336,25.5059758 32.88361,24.2003275 32.13901,21.6520564 C30.83086,17.1729928 31.51681,9.68318771 27.88901,3.5041411 C25.05511,-1.32241398 17.83946,0.757425 17.83946,0.757425" id="Stroke-23" stroke="#4F5661" stroke-width="2" fill="#FFFFFF" fill-rule="evenodd" stroke-linecap="round" stroke-linejoin="round"></path>
                        <path d="M34.2159,39.2039555 C30.63655,43.6753538 24.05925,46.4995742 17.2159,46.4995742 C10.3649,46.4995742 4.03665,43.2367309 0.2159,39.2039555 L4.17775,34.1431843 C5.36605,32.5334809 7.5123,31.5591419 9.2922,31.3785826 L12.19495,31.3785826 L15.35015,36.7996208 C16.1857,38.2279131 18.2461,38.2279131 19.0808,36.7996208 L22.236,31.3785826 L25.13875,31.3785826 C26.91865,31.5659555 29.0581,32.5411462 30.23875,34.1499979 L34.2159,39.2039555 Z" id="Fill-53" stroke="none" fill="#00ADC4" fill-rule="evenodd" opacity="0.261831975"></path>
                        <path d="M12.600655,31.3399157 L16.170655,37.1314411 C16.868505,38.1449581 18.372155,38.1194072 19.035155,37.0803394 L22.741155,31.1695767 L22.741155,26.8855513 C24.560155,25.761314 26.141155,23.8109326 26.141155,21.5880089 L26.141155,12.4322886 C24.258405,11.8079962 17.216155,7.06746229 17.216155,7.06746229 C17.216155,7.06746229 8.716155,12.112903 8.716155,12.4109962 L8.716155,22.0053394 C8.716155,25.429153 12.490155,28.2227123 15.057155,28.3163987" id="Stroke-71" stroke="#4F5661" stroke-width="2" fill="#FFFFFF" fill-rule="evenodd" stroke-linecap="round" stroke-linejoin="round"></path>
                        <path d="M17.2159,46.4999148 C10.3649,46.4999148 4.5373,44.6696225 0.2159,39.2042962 L4.17775,34.1426733 C5.36605,32.5338216 7.5123,31.5594826 9.2922,31.3789233" id="Stroke-59" stroke="#4F5661" stroke-width="2" fill="none" stroke-linecap="round" stroke-linejoin="round"></path>
                        <path d="M17.2159,46.4999148 C24.0669,46.4999148 29.8945,44.6696225 34.2159,39.2042962 L30.25405,34.1426733 C29.06575,32.5338216 26.9195,31.5594826 25.1396,31.3789233" id="Stroke-61" stroke="#4F5661" stroke-width="2" fill="none" stroke-linecap="round" stroke-linejoin="round"></path>
                        <path d="M14.72319,22.5517869 C15.22044,23.4179606 16.14949,23.9945581 17.21624,23.9945581 C18.28214,23.9945581 19.21034,23.4179606 19.70759,22.5517869" id="Stroke-63" stroke="#4F5661" stroke-width="2" fill="none" stroke-linecap="round"></path>
                    </g>
                </g>
            </g>
        </g>
    </g>
</svg>