<svg width="144" height="32" viewBox="0 0 144 32" xmlns="http://www.w3.org/2000/svg"><title>ui/logo-turbotax</title><g fill="none" fill-rule="evenodd"><path d="M142.23 29.292a1.249 1.249 0 1 1 1.248-1.248c0 .682-.558 1.248-1.248 1.248zm0-2.724c-.819 0-1.481.656-1.481 1.475 0 .82.662 1.463 1.481 1.463.82 0 1.483-.644 1.483-1.463 0-.819-.664-1.475-1.483-1.475zm-.279 1.365v-.475h.273c.156 0 .332.046.332.228 0 .201-.195.247-.364.247h-.241zm.903-.24c0-.358-.305-.488-.617-.488h-.585v1.664h.299v-.695h.215l.39.695h.364l-.449-.728c.234-.052.383-.208.383-.449zM106.49 12.997h-3.508V16.6h-2.178v2.847h2.178v5.675c0 1.989.484 4.664 4.312 4.664.747 0 1.691-.152 2.253-.366l-.087-2.787a4.949 4.949 0 0 1-1.56.266c-1.04 0-1.41-.73-1.41-1.803v-5.65h3.112v-2.846h-3.111v-3.604zm27.337 9.662l4.631-6.058h-4.148l-2.657 3.699-2.582-3.7h-4.307l4.66 6.06-5.229 6.836h4.252l3.151-4.377 3.127 4.377h4.357l-5.255-6.837zm-41.103 4.158c-2.322 0-3.38-1.98-3.38-3.82 0-1.815 1.058-3.769 3.38-3.769s3.38 1.954 3.38 3.769c0 1.84-1.058 3.82-3.38 3.82zm0-10.58c-4.052 0-6.992 2.843-6.992 6.76 0 4.052 3.006 6.897 6.992 6.897s6.992-2.872 6.992-6.897c0-3.917-2.94-6.76-6.992-6.76zm27.177 7.797c0 1.912-1.081 3.11-3.043 3.11-.73 0-2.032-.219-2.032-1.377 0-1.245 1.557-2.012 4.6-2.012h.475v.279zm-2.369-7.796c-2.048 0-4.13.827-5.524 2.117l1.826 2.044c.84-.839 2.281-1.37 3.439-1.37 1.27 0 2.565.636 2.565 2.153v.226c-3.741.019-8.494.47-8.494 4.311 0 2.824 2.457 4.088 4.892 4.088 1.522 0 2.835-.866 3.637-1.805h.08v1.494h3.353V21.7c0-2.04-.75-5.462-5.774-5.462zM63.661 18.59h-.053V16.6h-3.431v12.896h3.561v-6.888c0-.032.158-3.15 3.243-3.15.255 0 .697.037 1.106.14v-3.254c-.25-.062-.805-.106-1.021-.106-1.401 0-2.597 1.148-3.405 2.352zm-24.3-5.593h-3.509V16.6h-2.178v2.847h2.178v5.675c0 1.989.485 4.664 4.312 4.664.748 0 1.692-.152 2.253-.366l-.086-2.787a4.948 4.948 0 0 1-1.56.266c-1.04 0-1.41-.73-1.41-1.803v-5.65h3.112v-2.846H39.36v-3.604zM53.593 23.67c0 1.515-.988 3.146-2.829 3.146-1.42 0-2.177-1.012-2.177-3.094V16.6h-3.561v8.003c0 2.663 1.329 5.255 4.882 5.255 1.676 0 3.08-1.319 3.787-2.292h.053v1.93h3.405V16.6h-3.56v7.07zm23.41 3.146c-2.149 0-3.432-1.916-3.432-3.769 0-1.837 1.312-3.82 3.431-3.82 2.305 0 3.451 1.954 3.451 3.769 0 1.898-1.249 3.82-3.45 3.82zm.7-10.58c-1.63 0-2.829.713-3.962 1.774h-.066V9.495h-3.561v20.001h3.405v-1.823h.053c.803 1.317 2.398 2.186 4.053 2.186 3.676 0 6.462-2.886 6.462-6.862 0-3.917-2.754-6.76-6.385-6.76z" fill="#FFF"/><path d="M0 16.998c0-8.285 6.716-15 15-15 8.284 0 15 6.715 15 15 0 8.284-6.716 15-15 15-8.284 0-15-6.716-15-15" fill="#D52B1E"/><path d="M11.652 22.498a63.875 63.875 0 0 1-4.966-3.976 45.66 45.66 0 0 0-1.571 3.929c2.53 2.147 5.912 4.605 8.234 5.988 3.011-7.793 7.705-12.876 12.202-16.424a11.693 11.693 0 0 0-2.305-3.27 42.003 42.003 0 0 0-11.594 13.753M46.03 4.371h1.84v5.112h1.64V4.37h1.839V2.918h-5.318V4.37zm10.862 2.16c0 .874-.492 1.776-1.53 1.776-1.053 0-1.231-.97-1.231-1.75V2.922h-1.64v4.1c0 1.34.71 2.652 2.42 2.652.97 0 1.749-.588 2.036-1.244h.027v1.053h1.558V2.922h-1.64V6.53zm3.32 2.952h1.64V2.922h-1.64v6.56zM48.69 2.063a.991.991 0 1 0 0-1.983.991.991 0 0 0 0 1.982zm16.97 0a.991.991 0 1 0 0-1.983.991.991 0 0 0 0 1.982zm-2.659.855V4.37h1.84v5.112h1.64V4.37h1.838V2.918h-5.318zM35.833 9.483h1.64V2.922h-1.64v6.56zm6.942-6.753c-.97 0-1.749.588-2.036 1.244h-.027V2.922h-1.558v6.56h1.64V5.875c0-.875.492-1.777 1.53-1.777 1.053 0 1.23.97 1.23 1.75v3.636h1.641V5.382c0-1.34-.71-2.652-2.42-2.652z" fill="#FFF"/></g></svg>