<?xml version="1.0" encoding="UTF-8"?>
<svg width="60px" height="52px" viewBox="0 0 60 52" version="1.1" xmlns="http://www.w3.org/2000/svg" xmlns:xlink="http://www.w3.org/1999/xlink">
    <!-- Generator: Sketch 49.3 (51167) - http://www.bohemiancoding.com/sketch -->
    <title>Icon/ Tractor/Farming</title>
    <desc>Created with Sketch.</desc>
    <defs>
        <polygon id="path-1" points="0.2314 1.42108547e-14 15.7054 1.42108547e-14 15.7054 10.4996 0.2314 10.4996 0.2314 0"></polygon>
        <polygon id="path-3" points="59.968 41 59.968 0 0.968482788 0 0.968482788 41"></polygon>
    </defs>
    <g id="Icon/-Tractor/Farming" stroke="none" stroke-width="1" fill="none" fill-rule="evenodd">
        <g id="Tractor/Farming">
            <g id="Group-3" transform="translate(33.000000, 0.000000)">
                <mask id="mask-2" fill="white">
                    <use xlink:href="#path-1"></use>
                </mask>
                <g id="Clip-2"></g>
                <path d="M14.0474,7.1846 C13.8364,7.1846 13.6364,7.2276 13.4504,7.2996 C13.2474,6.2886 12.3554,5.5266 11.2834,5.5266 C11.2654,5.5266 11.2464,5.5316 11.2274,5.5326 C11.2644,5.3516 11.2834,5.1646 11.2834,4.9736 C11.2834,3.4476 10.0474,2.2106 8.5214,2.2106 C8.5174,2.2106 8.5134,2.2116 8.5094,2.2116 C8.0054,1.5436 7.2124,1.1056 6.3104,1.1056 C5.9624,1.1056 5.6334,1.1766 5.3264,1.2936 C4.8374,0.5186 3.9794,-0.0004 2.9944,-0.0004 C1.4684,-0.0004 0.2314,1.2376 0.2314,2.7626 C0.2314,3.7476 0.7504,4.6066 1.5254,5.0956 C1.4074,5.4026 1.3364,5.7316 1.3364,6.0796 C1.3364,7.6046 2.5734,8.8416 4.1004,8.8416 C4.4474,8.8416 4.7764,8.7706 5.0834,8.6536 C5.5724,9.4286 6.4314,9.9476 7.4154,9.9476 C8.2404,9.9476 8.9724,9.5796 9.4784,9.0056 C9.8784,9.5746 10.5364,9.9476 11.2834,9.9476 C11.7564,9.9476 12.1924,9.7966 12.5504,9.5446 C12.8164,10.1076 13.3834,10.4996 14.0474,10.4996 C14.9624,10.4996 15.7054,9.7576 15.7054,8.8416 C15.7054,7.9266 14.9624,7.1846 14.0474,7.1846" id="Fill-1" fill="#D3E5EF" mask="url(#mask-2)"></path>
            </g>
            <path d="M32.9683,21 L26.8583,21 C25.1783,21 23.7283,19.81 23.3983,18.17 L20.9683,4 L26.9683,4 L32.9683,21 Z" id="Fill-4" fill="#D3E5EF"></path>
            <g id="Group-8" transform="translate(0.000000, 25.000000)" fill="#53C27C">
                <path d="M25.7789,13.75 C25.6469,13.563 25.4449,13.435 25.2179,13.394 L24.2239,13.219 C24.2249,13.146 24.2349,13.073 24.2349,13 C24.2349,12.923 24.2249,12.848 24.2229,12.771 L25.2179,12.595 C25.4449,12.556 25.6459,12.427 25.7779,12.238 C25.9099,12.05 25.9619,11.817 25.9209,11.591 L25.6189,9.884 C25.5349,9.413 25.0839,9.096 24.6149,9.182 L23.6199,9.357 C23.5709,9.217 23.5189,9.076 23.4659,8.938 L24.3419,8.431 C24.5409,8.316 24.6859,8.126 24.7459,7.904 C24.8039,7.682 24.7729,7.446 24.6589,7.246 L23.7919,5.746 C23.5509,5.331 23.0199,5.189 22.6069,5.429 L21.7319,5.935 C21.6379,5.819 21.5379,5.709 21.4399,5.597 L22.0929,4.817 C22.2419,4.642 22.3139,4.414 22.2939,4.186 C22.2729,3.956 22.1629,3.744 21.9869,3.596 L20.6589,2.482 C20.2919,2.176 19.7449,2.224 19.4389,2.59 L18.7849,3.369 C18.6569,3.292 18.5329,3.209 18.4019,3.136 L18.7459,2.19 C18.9099,1.741 18.6769,1.243 18.2269,1.08 L16.5989,0.487 C16.1519,0.324 15.6519,0.556 15.4889,1.006 L15.1449,1.948 C14.9999,1.92 14.8489,1.904 14.7019,1.881 L14.7019,0.866 C14.7019,0.388 14.3139,0 13.8349,0 L12.1009,0 C11.6229,0 11.2349,0.388 11.2349,0.866 L11.2349,1.881 C11.0819,1.904 10.9259,1.921 10.7749,1.951 L10.4299,1.009 C10.2649,0.56 9.7679,0.329 9.3189,0.492 L7.6899,1.088 C7.4729,1.166 7.2989,1.328 7.2009,1.536 C7.1049,1.745 7.0939,1.983 7.1739,2.199 L7.5189,3.146 C7.3879,3.219 7.2639,3.301 7.1369,3.378 L6.4829,2.6 C6.3349,2.424 6.1219,2.313 5.8929,2.294 C5.6579,2.269 5.4359,2.347 5.2609,2.495 L3.9349,3.611 C3.5689,3.919 3.5209,4.466 3.8299,4.832 L4.4839,5.61 C4.3859,5.723 4.2879,5.833 4.1939,5.949 L3.3169,5.444 C3.1179,5.33 2.8819,5.3 2.6589,5.359 C2.4369,5.419 2.2489,5.564 2.1329,5.764 L1.2689,7.266 C1.0309,7.682 1.1739,8.21 1.5889,8.45 L2.4659,8.954 C2.4119,9.093 2.3599,9.232 2.3109,9.374 L1.3159,9.199 C1.0899,9.162 0.8559,9.212 0.6689,9.345 C0.4789,9.477 0.3509,9.678 0.3119,9.903 L0.0129,11.61 C-0.0691,12.082 0.2459,12.531 0.7169,12.614 L1.7129,12.789 C1.7109,12.859 1.7019,12.929 1.7019,13 C1.7019,13.08 1.7119,13.157 1.7139,13.236 L0.7189,13.413 C0.2479,13.497 -0.0671,13.946 0.0169,14.418 L0.3199,16.124 C0.3949,16.544 0.7599,16.84 1.1729,16.84 C1.2219,16.84 1.2729,16.835 1.3249,16.826 L2.3199,16.649 C2.3689,16.791 2.4209,16.932 2.4739,17.07 L1.5979,17.577 C1.3989,17.692 1.2549,17.882 1.1959,18.104 C1.1359,18.326 1.1679,18.562 1.2829,18.762 L2.1509,20.261 C2.3119,20.539 2.6019,20.693 2.9019,20.693 C3.0499,20.693 3.1979,20.656 3.3349,20.577 L4.2099,20.07 C4.3029,20.187 4.4039,20.296 4.5019,20.408 L3.8489,21.187 C3.7019,21.364 3.6299,21.593 3.6499,21.821 C3.6709,22.05 3.7799,22.262 3.9569,22.409 L5.2849,23.521 C5.4479,23.658 5.6449,23.725 5.8419,23.725 C6.0899,23.725 6.3349,23.618 6.5069,23.414 L7.1599,22.635 C7.2879,22.712 7.4109,22.795 7.5419,22.867 L7.1989,23.813 C7.0359,24.263 7.2679,24.76 7.7179,24.924 L9.3459,25.515 C9.4429,25.55 9.5429,25.566 9.6429,25.566 C9.7679,25.566 9.8939,25.54 10.0099,25.485 C10.2179,25.388 10.3799,25.212 10.4579,24.995 L10.7999,24.052 C10.9459,24.08 11.0959,24.097 11.2439,24.12 L11.2439,25.134 C11.2439,25.363 11.3359,25.584 11.4989,25.747 C11.6619,25.908 11.8819,26 12.1109,26 L12.1119,26 L13.8449,25.998 C14.3229,25.997 14.7109,25.609 14.7109,25.131 L14.7109,24.117 C14.8579,24.094 15.0079,24.078 15.1539,24.049 L15.4979,24.992 C15.5759,25.208 15.7379,25.384 15.9459,25.48 C16.0619,25.534 16.1859,25.562 16.3109,25.562 C16.4119,25.562 16.5119,25.544 16.6079,25.509 L18.2369,24.915 C18.6859,24.751 18.9189,24.254 18.7539,23.804 L18.4099,22.858 C18.5409,22.786 18.6649,22.703 18.7919,22.626 L19.4459,23.404 C19.6179,23.608 19.8629,23.713 20.1109,23.713 C20.3069,23.713 20.5059,23.646 20.6679,23.51 L21.9949,22.396 C22.1709,22.247 22.2809,22.036 22.2999,21.808 C22.3209,21.578 22.2489,21.351 22.0999,21.174 L21.4459,20.396 C21.5449,20.283 21.6439,20.173 21.7369,20.057 L22.6129,20.562 C22.7509,20.641 22.8989,20.679 23.0459,20.679 C23.3449,20.679 23.6359,20.522 23.7979,20.245 L24.6639,18.743 C24.7779,18.544 24.8089,18.308 24.7499,18.085 C24.6899,17.863 24.5449,17.675 24.3459,17.56 L23.4679,17.054 C23.5219,16.915 23.5739,16.775 23.6219,16.634 L24.6189,16.809 C24.6699,16.817 24.7189,16.821 24.7689,16.821 C25.1819,16.821 25.5479,16.525 25.6219,16.104 L25.9219,14.397 C25.9629,14.172 25.9099,13.939 25.7789,13.75" id="Fill-6"></path>
            </g>
            <path d="M16.9683,38 C16.9683,40.209 15.1773,42 12.9683,42 C10.7593,42 8.9683,40.209 8.9683,38 C8.9683,35.791 10.7593,34 12.9683,34 C15.1773,34 16.9683,35.791 16.9683,38" id="Fill-9" fill="#FFFFFF"></path>
            <path d="M12.9683,41 C11.3143,41 9.9683,39.654 9.9683,38 C9.9683,36.346 11.3143,35 12.9683,35 C14.6223,35 15.9683,36.346 15.9683,38 C15.9683,39.654 14.6223,41 12.9683,41 M12.9683,33 C10.2113,33 7.9683,35.243 7.9683,38 C7.9683,40.757 10.2113,43 12.9683,43 C15.7253,43 17.9683,40.757 17.9683,38 C17.9683,35.243 15.7253,33 12.9683,33" id="Fill-11" fill="#4F5661"></path>
            <path d="M46.9683,36 C42.5573,36 38.9683,39.589 38.9683,44 C38.9683,48.411 42.5573,52 46.9683,52 C51.3793,52 54.9683,48.411 54.9683,44 C54.9683,39.589 51.3793,36 46.9683,36" id="Fill-13" fill="#53C27C"></path>
            <path d="M49.8853,44 C49.8853,45.61 48.5783,46.917 46.9683,46.917 C45.3583,46.917 44.0513,45.61 44.0513,44 C44.0513,42.39 45.3583,41.083 46.9683,41.083 C48.5783,41.083 49.8853,42.39 49.8853,44" id="Fill-15" fill="#FFFFFF"></path>
            <path d="M46.9683,45.917 C45.9113,45.917 45.0513,45.057 45.0513,44 C45.0513,42.943 45.9113,42.083 46.9683,42.083 C48.0253,42.083 48.8853,42.943 48.8853,44 C48.8853,45.057 48.0253,45.917 46.9683,45.917 M46.9683,40.083 C44.8083,40.083 43.0513,41.84 43.0513,44 C43.0513,46.16 44.8083,47.917 46.9683,47.917 C49.1283,47.917 50.8853,46.16 50.8853,44 C50.8853,41.84 49.1283,40.083 46.9683,40.083" id="Fill-17" fill="#4F5661"></path>
            <g id="Group-21" transform="translate(0.000000, 3.000000)">
                <mask id="mask-4" fill="white">
                    <use xlink:href="#path-3"></use>
                </mask>
                <g id="Clip-20"></g>
                <path d="M50.9683,22 C50.9683,22.552 50.5203,23 49.9683,23 C49.4163,23 48.9683,22.552 48.9683,22 L48.9683,14 C48.9683,13.448 49.4163,13 49.9683,13 C50.5203,13 50.9683,13.448 50.9683,14 L50.9683,22 Z M26.8593,17 C25.6583,17 24.6173,16.146 24.3873,14.997 L22.1553,2 L26.2613,2 L31.5543,17 L26.8593,17 Z M56.0223,19.748 L52.9683,19.367 L52.9683,14 C52.9683,12.698 52.1293,11.599 50.9683,11.185 L50.9683,8 C50.9683,6.346 49.6223,5 47.9683,5 C47.4153,5 46.9683,5.447 46.9683,6 C46.9683,6.553 47.4153,7 47.9683,7 C48.5203,7 48.9683,7.448 48.9683,8 L48.9683,11.185 C47.8073,11.599 46.9683,12.698 46.9683,14 L46.9683,18.627 L33.7033,17.079 L28.3823,2 L29.9683,2 C30.5213,2 30.9683,1.553 30.9683,1 C30.9683,0.447 30.5213,0 29.9683,0 L26.9683,0 L20.9683,0 L14.9683,0 L10.9683,0 L7.9683,0 C7.4153,0 6.9683,0.447 6.9683,1 C6.9683,1.553 7.4153,2 7.9683,2 L9.7873,2 L7.1493,17.836 C7.1403,17.886 7.1553,17.933 7.1543,17.982 C5.0343,18.708 3.0483,19.816 1.3203,21.289 C0.8993,21.646 0.8493,22.278 1.2073,22.698 C1.5653,23.12 2.1973,23.17 2.6163,22.811 C5.5013,20.354 9.1773,19 12.9683,19 C21.7903,19 28.9683,26.178 28.9683,35 C28.9683,36.622 28.7283,38.203 28.2553,39.698 C28.1583,40.002 28.2133,40.334 28.4023,40.591 C28.5903,40.848 28.8903,41 29.2083,41 L36.0483,41 C36.6013,41 37.0483,40.553 37.0483,40 C37.0483,39.447 36.6013,39 36.0483,39 L30.5173,39 C30.8173,37.704 30.9683,36.364 30.9683,35 C30.9683,25.075 22.8933,17 12.9683,17 C11.7093,17 10.4653,17.148 9.2473,17.406 L11.8153,2 L14.9683,2 L20.1253,2 L22.4213,15.362 C22.8423,17.47 24.7083,19 26.8593,19 L32.9103,19 L46.9683,20.64 L46.9683,22 C46.9683,23.654 48.3143,25 49.9683,25 C51.6223,25 52.9683,23.654 52.9683,22 L52.9683,21.382 L55.8123,21.736 C57.0213,21.841 57.9683,22.87 57.9683,24.08 L57.9683,37.352 L56.4543,38.079 C55.9573,38.318 55.7473,38.916 55.9873,39.414 C56.1583,39.771 56.5163,39.98 56.8893,39.98 C57.0333,39.98 57.1823,39.949 57.3223,39.882 L59.4023,38.882 C59.7473,38.715 59.9683,38.365 59.9683,37.98 L59.9683,24.08 C59.9683,21.842 58.2183,19.937 56.0223,19.748 Z" id="Fill-19" fill="#4F5661" mask="url(#mask-4)"></path>
            </g>
            <path d="M37.9683,35 C37.4153,35 36.9683,34.553 36.9683,34 L36.9683,30 C36.9683,29.447 37.4153,29 37.9683,29 C38.5213,29 38.9683,29.447 38.9683,30 L38.9683,34 C38.9683,34.553 38.5213,35 37.9683,35" id="Fill-22" fill="#4F5661"></path>
            <path d="M41.9683,35 C41.4153,35 40.9683,34.553 40.9683,34 L40.9683,29 C40.9683,28.447 41.4153,28 41.9683,28 C42.5213,28 42.9683,28.447 42.9683,29 L42.9683,34 C42.9683,34.553 42.5213,35 41.9683,35" id="Fill-24" fill="#4F5661"></path>
            <path d="M45.9683,35 C45.4153,35 44.9683,34.553 44.9683,34 L44.9683,30 C44.9683,29.447 45.4153,29 45.9683,29 C46.5213,29 46.9683,29.447 46.9683,30 L46.9683,34 C46.9683,34.553 46.5213,35 45.9683,35" id="Fill-26" fill="#4F5661"></path>
        </g>
    </g>
</svg>