<?xml version="1.0" encoding="UTF-8"?>
<svg width="116px" height="116px" viewBox="0 0 116 116" version="1.1" xmlns="http://www.w3.org/2000/svg" xmlns:xlink="http://www.w3.org/1999/xlink">
    <!-- Generator: Sketch 49.3 (51167) - http://www.bohemiancoding.com/sketch -->
    <title>Group 6 Copy 2</title>
    <desc>Created with Sketch.</desc>
    <defs>
        <path d="M57.723905,112.822686 L51.4931604,116.052623 C51.1232123,116.244399 50.6732293,116.187513 50.3626451,115.909705 L45.1288086,111.2282 C44.8858118,111.010847 44.5523492,110.92513 44.2346585,110.998359 L37.3979293,112.57425 C36.9920341,112.667811 36.5705494,112.500816 36.3388776,112.154647 L32.4307124,106.314991 C32.2494932,106.04421 31.9480563,105.878304 31.6223339,105.870074 L24.6084538,105.692848 C24.1923324,105.682334 23.8259319,105.415941 23.6876063,105.023342 L21.3511106,98.3918584 C21.2429248,98.0848037 20.9924666,97.8493393 20.679326,97.7602905 L13.9284982,95.8405361 C13.5284414,95.7267707 13.2400727,95.3779471 13.2035723,94.9636336 L12.5862857,87.9568595 C12.5577398,87.6328374 12.3738658,87.3427674 12.0930053,87.1786862 L6.02941643,83.6362842 C5.67055478,83.4266341 5.4781259,83.0174133 5.54555757,82.6073063 L6.68689546,75.665898 C6.73963492,75.3451463 6.6336944,75.0187223 6.40264753,74.7900731 L1.40780918,69.8470681 C1.11253747,69.5548606 1.02790636,69.1108955 1.19497308,68.7305544 L4.02341063,62.2913841 C4.15409655,61.9938668 4.13257988,61.6514783 3.96567556,61.3726625 L0.354173166,55.3396014 C0.140827074,54.983204 0.169182601,54.5321875 0.42548592,54.2053171 L4.76295001,48.6736345 C4.96348241,48.4178902 5.0277031,48.0808489 4.93526757,47.7692818 L2.93459257,41.0257217 C2.81641422,40.6273847 2.95601975,40.1974198 3.28565977,39.9444852 L8.85890795,35.6681015 C9.11687459,35.4701623 9.26290744,35.1594721 9.25070231,34.8345448 L8.98665179,27.8049454 C8.97104586,27.3894814 9.21332402,27.0074429 9.59578782,26.8444236 L16.0539573,24.0917293 C16.3533119,23.964134 16.5721804,23.6992654 16.6410656,23.3812268 L18.1297908,16.5078817 C18.2178705,16.1012236 18.5478369,15.7911462 18.9591792,15.7284855 L25.8961989,14.6717532 C26.2181812,14.6227049 26.4963136,14.4203992 26.6421434,14.1291742 L29.789372,7.84409666 C29.9758175,7.47176139 30.372893,7.25331366 30.7871935,7.29515368 L37.7674523,8.00008684 C38.0917397,8.03283648 38.411724,7.90600119 38.6255086,7.65997076 L43.2328634,2.35767385 C43.50614,2.0431781 43.94536,1.93032627 44.3363923,2.07413658 L50.9219661,4.49611919 C51.2279998,4.60866951 51.5696427,4.56546075 51.8380192,4.38026277 L57.6158223,0.393187198 C57.9588073,0.15650428 58.4123984,0.15650428 58.7553834,0.393187198 L64.5331864,4.38026277 C64.801563,4.56546075 65.1432059,4.60866951 65.4492396,4.49611919 L72.0348134,2.07413658 C72.4258457,1.93032627 72.8650657,2.0431781 73.1383423,2.35767385 L77.7456971,7.65997076 C77.9594817,7.90600119 78.279466,8.03283648 78.6037534,8.00008684 L85.5840122,7.29515368 C85.9983127,7.25331366 86.3953882,7.47176139 86.5818337,7.84409666 L89.7290623,14.1291742 C89.8748921,14.4203992 90.1530245,14.6227049 90.4750068,14.6717532 L97.4120265,15.7284855 C97.8233687,15.7911462 98.1533352,16.1012236 98.2414149,16.5078817 L99.7301401,23.3812268 C99.7990253,23.6992654 100.017894,23.964134 100.317248,24.0917293 L106.775418,26.8444236 C107.157882,27.0074429 107.40016,27.3894814 107.384554,27.8049454 L107.120503,34.8345448 C107.108298,35.1594721 107.254331,35.4701623 107.512298,35.6681015 L113.085546,39.9444852 C113.415186,40.1974198 113.554791,40.6273847 113.436613,41.0257217 L111.435938,47.7692818 C111.343503,48.0808489 111.407723,48.4178902 111.608256,48.6736345 L115.94572,54.2053171 C116.202023,54.5321875 116.230379,54.983204 116.017033,55.3396014 L112.40553,61.3726625 C112.238626,61.6514783 112.217109,61.9938668 112.347795,62.2913841 L115.176233,68.7305544 C115.343299,69.1108955 115.258668,69.5548606 114.963397,69.8470681 L109.968558,74.7900731 C109.737511,75.0187223 109.631571,75.3451463 109.68431,75.665898 L110.825648,82.6073063 C110.89308,83.0174133 110.700651,83.4266341 110.341789,83.6362842 L104.2782,87.1786862 C103.99734,87.3427674 103.813466,87.6328374 103.78492,87.9568595 L103.167633,94.9636336 C103.131133,95.3779471 102.842764,95.7267707 102.442708,95.8405361 L95.6918797,97.7602905 C95.3787391,97.8493393 95.1282808,98.0848037 95.0200951,98.3918584 L92.6835994,105.023342 C92.5452737,105.415941 92.1788733,105.682334 91.7627519,105.692848 L84.7488718,105.870074 C84.4231494,105.878304 84.1217124,106.04421 83.9404933,106.314991 L80.0323281,112.154647 C79.8006563,112.500816 79.3791716,112.667811 78.9732764,112.57425 L72.1365471,110.998359 C71.8188565,110.92513 71.4853939,111.010847 71.2423971,111.2282 L66.0085606,115.909705 C65.6979764,116.187513 65.2479934,116.244399 64.8780453,116.052623 L58.6473007,112.822686 C58.3577955,112.67261 58.0134102,112.67261 57.723905,112.822686 Z" id="path-1"></path>
        <path d="M57.723905,112.822686 L51.4931604,116.052623 C51.1232123,116.244399 50.6732293,116.187513 50.3626451,115.909705 L45.1288086,111.2282 C44.8858118,111.010847 44.5523492,110.92513 44.2346585,110.998359 L37.3979293,112.57425 C36.9920341,112.667811 36.5705494,112.500816 36.3388776,112.154647 L32.4307124,106.314991 C32.2494932,106.04421 31.9480563,105.878304 31.6223339,105.870074 L24.6084538,105.692848 C24.1923324,105.682334 23.8259319,105.415941 23.6876063,105.023342 L21.3511106,98.3918584 C21.2429248,98.0848037 20.9924666,97.8493393 20.679326,97.7602905 L13.9284982,95.8405361 C13.5284414,95.7267707 13.2400727,95.3779471 13.2035723,94.9636336 L12.5862857,87.9568595 C12.5577398,87.6328374 12.3738658,87.3427674 12.0930053,87.1786862 L6.02941643,83.6362842 C5.67055478,83.4266341 5.4781259,83.0174133 5.54555757,82.6073063 L6.68689546,75.665898 C6.73963492,75.3451463 6.6336944,75.0187223 6.40264753,74.7900731 L1.40780918,69.8470681 C1.11253747,69.5548606 1.02790636,69.1108955 1.19497308,68.7305544 L4.02341063,62.2913841 C4.15409655,61.9938668 4.13257988,61.6514783 3.96567556,61.3726625 L0.354173166,55.3396014 C0.140827074,54.983204 0.169182601,54.5321875 0.42548592,54.2053171 L4.76295001,48.6736345 C4.96348241,48.4178902 5.0277031,48.0808489 4.93526757,47.7692818 L2.93459257,41.0257217 C2.81641422,40.6273847 2.95601975,40.1974198 3.28565977,39.9444852 L8.85890795,35.6681015 C9.11687459,35.4701623 9.26290744,35.1594721 9.25070231,34.8345448 L8.98665179,27.8049454 C8.97104586,27.3894814 9.21332402,27.0074429 9.59578782,26.8444236 L16.0539573,24.0917293 C16.3533119,23.964134 16.5721804,23.6992654 16.6410656,23.3812268 L18.1297908,16.5078817 C18.2178705,16.1012236 18.5478369,15.7911462 18.9591792,15.7284855 L25.8961989,14.6717532 C26.2181812,14.6227049 26.4963136,14.4203992 26.6421434,14.1291742 L29.789372,7.84409666 C29.9758175,7.47176139 30.372893,7.25331366 30.7871935,7.29515368 L37.7674523,8.00008684 C38.0917397,8.03283648 38.411724,7.90600119 38.6255086,7.65997076 L43.2328634,2.35767385 C43.50614,2.0431781 43.94536,1.93032627 44.3363923,2.07413658 L50.9219661,4.49611919 C51.2279998,4.60866951 51.5696427,4.56546075 51.8380192,4.38026277 L57.6158223,0.393187198 C57.9588073,0.15650428 58.4123984,0.15650428 58.7553834,0.393187198 L64.5331864,4.38026277 C64.801563,4.56546075 65.1432059,4.60866951 65.4492396,4.49611919 L72.0348134,2.07413658 C72.4258457,1.93032627 72.8650657,2.0431781 73.1383423,2.35767385 L77.7456971,7.65997076 C77.9594817,7.90600119 78.279466,8.03283648 78.6037534,8.00008684 L85.5840122,7.29515368 C85.9983127,7.25331366 86.3953882,7.47176139 86.5818337,7.84409666 L89.7290623,14.1291742 C89.8748921,14.4203992 90.1530245,14.6227049 90.4750068,14.6717532 L97.4120265,15.7284855 C97.8233687,15.7911462 98.1533352,16.1012236 98.2414149,16.5078817 L99.7301401,23.3812268 C99.7990253,23.6992654 100.017894,23.964134 100.317248,24.0917293 L106.775418,26.8444236 C107.157882,27.0074429 107.40016,27.3894814 107.384554,27.8049454 L107.120503,34.8345448 C107.108298,35.1594721 107.254331,35.4701623 107.512298,35.6681015 L113.085546,39.9444852 C113.415186,40.1974198 113.554791,40.6273847 113.436613,41.0257217 L111.435938,47.7692818 C111.343503,48.0808489 111.407723,48.4178902 111.608256,48.6736345 L115.94572,54.2053171 C116.202023,54.5321875 116.230379,54.983204 116.017033,55.3396014 L112.40553,61.3726625 C112.238626,61.6514783 112.217109,61.9938668 112.347795,62.2913841 L115.176233,68.7305544 C115.343299,69.1108955 115.258668,69.5548606 114.963397,69.8470681 L109.968558,74.7900731 C109.737511,75.0187223 109.631571,75.3451463 109.68431,75.665898 L110.825648,82.6073063 C110.89308,83.0174133 110.700651,83.4266341 110.341789,83.6362842 L104.2782,87.1786862 C103.99734,87.3427674 103.813466,87.6328374 103.78492,87.9568595 L103.167633,94.9636336 C103.131133,95.3779471 102.842764,95.7267707 102.442708,95.8405361 L95.6918797,97.7602905 C95.3787391,97.8493393 95.1282808,98.0848037 95.0200951,98.3918584 L92.6835994,105.023342 C92.5452737,105.415941 92.1788733,105.682334 91.7627519,105.692848 L84.7488718,105.870074 C84.4231494,105.878304 84.1217124,106.04421 83.9404933,106.314991 L80.0323281,112.154647 C79.8006563,112.500816 79.3791716,112.667811 78.9732764,112.57425 L72.1365471,110.998359 C71.8188565,110.92513 71.4853939,111.010847 71.2423971,111.2282 L66.0085606,115.909705 C65.6979764,116.187513 65.2479934,116.244399 64.8780453,116.052623 L58.6473007,112.822686 C58.3577955,112.67261 58.0134102,112.67261 57.723905,112.822686 Z" id="path-3"></path>
        <path d="M57.5121749,112.607011 L51.2814303,115.836948 C50.9114821,116.028724 50.4614992,115.971838 50.150915,115.69403 L44.9170784,111.012525 C44.6740817,110.795172 44.3406191,110.709455 44.0229284,110.782684 L37.1861992,112.358575 C36.7803039,112.452136 36.3588193,112.285141 36.1271475,111.938972 L32.2189823,106.099316 C32.0377631,105.828535 31.7363262,105.662629 31.4106038,105.654399 L24.3967237,105.477173 C23.9806023,105.466659 23.6142018,105.200266 23.4758761,104.807667 L21.1393805,98.1761834 C21.0311947,97.8691287 20.7807365,97.6336642 20.4675959,97.5446155 L13.7167681,95.6248611 C13.3167113,95.5110957 13.0283426,95.1622721 12.9918422,94.7479586 L12.3745556,87.7411845 C12.3460097,87.4171624 12.1621357,87.1270924 11.8812752,86.9630112 L5.81768631,83.4206092 C5.45882467,83.2109591 5.26639578,82.8017383 5.33382745,82.3916312 L6.47516535,75.450223 C6.5279048,75.1294713 6.42196429,74.8030473 6.19091741,74.5743981 L1.19607907,69.6313931 C0.900807358,69.3391855 0.816176246,68.8952204 0.983242966,68.5148793 L3.81168052,62.075709 C3.94236643,61.7781918 3.92084976,61.4358033 3.75394545,61.1569875 L0.142443052,55.1239264 C-0.0709030403,54.767529 -0.0425475141,54.3165125 0.213755806,53.9896421 L4.55121989,48.4579595 C4.7517523,48.2022152 4.81597298,47.8651739 4.72353746,47.5536068 L2.72286246,40.8100467 C2.60468411,40.4117097 2.74428963,39.9817448 3.07392966,39.7288102 L8.64717783,35.4524265 C8.90514448,35.2544873 9.05117733,34.9437971 9.03897219,34.6188698 L8.77492168,27.5892703 C8.75931574,27.1738064 9.0015939,26.7917679 9.38405771,26.6287486 L15.8422272,23.8760543 C16.1415818,23.748459 16.3604503,23.4835904 16.4293355,23.1655518 L17.9180607,16.2922067 C18.0061404,15.8855486 18.3361068,15.5754712 18.7474491,15.5128105 L25.6844688,14.4560782 C26.0064511,14.4070298 26.2845835,14.2047242 26.4304133,13.9134992 L29.5776419,7.62842166 C29.7640874,7.25608638 30.1611629,7.03763865 30.5754634,7.07947867 L37.5557222,7.78441183 C37.8800096,7.81716147 38.1999939,7.69032618 38.4137785,7.44429575 L43.0211333,2.14199885 C43.2944098,1.82750309 43.7336299,1.71465126 44.1246622,1.85846158 L50.7102359,4.28044418 C51.0162697,4.3929945 51.3579126,4.34978574 51.6262891,4.16458777 L57.4040922,0.177512189 C57.7470772,-0.0591707297 58.2006683,-0.0591707297 58.5436533,0.177512189 L64.3214563,4.16458777 C64.5898328,4.34978574 64.9314758,4.3929945 65.2375095,4.28044418 L71.8230833,1.85846158 C72.2141156,1.71465126 72.6533356,1.82750309 72.9266122,2.14199885 L77.5339669,7.44429575 C77.7477516,7.69032618 78.0677359,7.81716147 78.3920233,7.78441183 L85.3722821,7.07947867 C85.7865825,7.03763865 86.1836581,7.25608638 86.3701036,7.62842166 L89.5173322,13.9134992 C89.663162,14.2047242 89.9412944,14.4070298 90.2632767,14.4560782 L97.2002964,15.5128105 C97.6116386,15.5754712 97.9416051,15.8855486 98.0296848,16.2922067 L99.5184099,23.1655518 C99.5872952,23.4835904 99.8061636,23.748459 100.105518,23.8760543 L106.563688,26.6287486 C106.946152,26.7917679 107.18843,27.1738064 107.172824,27.5892703 L106.908773,34.6188698 C106.896568,34.9437971 107.042601,35.2544873 107.300568,35.4524265 L112.873816,39.7288102 C113.203456,39.9817448 113.343061,40.4117097 113.224883,40.8100467 L111.224208,47.5536068 C111.131772,47.8651739 111.195993,48.2022152 111.396526,48.4579595 L115.73399,53.9896421 C115.990293,54.3165125 116.018648,54.767529 115.805302,55.1239264 L112.1938,61.1569875 C112.026896,61.4358033 112.005379,61.7781918 112.136065,62.075709 L114.964502,68.5148793 C115.131569,68.8952204 115.046938,69.3391855 114.751666,69.6313931 L109.756828,74.5743981 C109.525781,74.8030473 109.419841,75.1294713 109.47258,75.450223 L110.613918,82.3916312 C110.68135,82.8017383 110.488921,83.2109591 110.130059,83.4206092 L104.06647,86.9630112 C103.78561,87.1270924 103.601736,87.4171624 103.57319,87.7411845 L102.955903,94.7479586 C102.919403,95.1622721 102.631034,95.5110957 102.230977,95.6248611 L95.4801496,97.5446155 C95.167009,97.6336642 94.9165507,97.8691287 94.808365,98.1761834 L92.4718693,104.807667 C92.3335436,105.200266 91.9671432,105.466659 91.5510218,105.477173 L84.5371417,105.654399 C84.2114192,105.662629 83.9099823,105.828535 83.7287632,106.099316 L79.820598,111.938972 C79.5889262,112.285141 79.1674415,112.452136 78.7615463,112.358575 L71.924817,110.782684 C71.6071264,110.709455 71.2736638,110.795172 71.030667,111.012525 L65.7968305,115.69403 C65.4862463,115.971838 65.0362633,116.028724 64.6663152,115.836948 L58.4355706,112.607011 C58.1460654,112.456935 57.8016801,112.456935 57.5121749,112.607011 Z" id="path-5"></path>
    </defs>
    <g id="🛡-RTBs" stroke="none" stroke-width="1" fill="none" fill-rule="evenodd">
        <g id="revenue-quebec-netfile-copy">
            <g id="Group-6-Copy-2">
                <mask id="mask-2" fill="white">
                    <use xlink:href="#path-1"></use>
                </mask>
                <g id="Mask">
                    <use fill="#00A9B1" fill-rule="evenodd" xlink:href="#path-1"></use>
                    <path stroke="#4F5661" stroke-width="2.0064001" d="M57.2622071,111.932043 C57.8412175,111.631891 58.5299882,111.631891 59.1089986,111.932043 L65.3397431,115.161979 L70.5735797,110.480474 C71.0595732,110.045768 71.7264985,109.874335 72.3618797,110.020793 L79.198609,111.596684 L83.1067741,105.757028 C83.4692125,105.215466 84.0720863,104.883655 84.7235311,104.867194 L91.7374112,104.689968 L94.0739069,98.0584843 C94.2902784,97.444375 94.7911948,96.9734461 95.4174761,96.7953485 L102.168304,94.8755942 L102.785591,87.8688201 C102.842682,87.2207757 103.21043,86.6406357 103.772151,86.3124734 L109.83574,82.7700714 L108.694402,75.8286632 C108.588923,75.1871598 108.800804,74.5343118 109.262898,74.0770134 L114.257736,69.1340084 L111.429299,62.6948381 C111.167927,62.0998036 111.21096,61.4150265 111.544769,60.8573949 L115.156271,54.8243338 L110.818807,49.2926512 C110.417743,48.7811626 110.289301,48.1070799 110.474172,47.4839457 L112.474847,40.7403856 L106.901599,36.4640019 C106.385666,36.0681235 106.0936,35.4467431 106.11801,34.7968885 L106.382061,27.767289 L99.9238914,25.0145947 C99.3251821,24.7594042 98.8874452,24.2296669 98.7496747,23.5935897 L97.2609495,16.7202446 L90.3239298,15.6635123 C89.6799652,15.5654156 89.1237004,15.1608043 88.8320408,14.5783543 L85.6848122,8.29327676 L78.7045534,8.99820993 C78.0559786,9.0637092 77.41601,8.81003862 76.9884407,8.31797776 L72.381086,3.01568086 L65.7955122,5.43766346 C65.1834447,5.6627641 64.5001589,5.57634658 63.9634059,5.20595063 L58.1856028,1.21887506 L52.4077998,5.20595063 C51.8710468,5.57634658 51.187761,5.6627641 50.5756934,5.43766346 L43.9901197,3.01568086 L39.3827649,8.31797776 C38.9551957,8.81003862 38.315227,9.0637092 37.6666523,8.99820993 L30.6863935,8.29327676 L27.5391649,14.5783543 C27.2475053,15.1608043 26.6912405,15.5654156 26.0472758,15.6635123 L19.1102562,16.7202446 L17.621531,23.5935897 C17.4837605,24.2296669 17.0460236,24.7594042 16.4473143,25.0145947 L9.98914486,27.767289 L10.2531954,34.7968885 C10.2776056,35.4467431 9.98553994,36.0681235 9.46960665,36.4640019 L3.89635848,40.7403856 L5.89703348,47.4839457 C6.08190453,48.1070799 5.95346317,48.7811626 5.55239835,49.2926512 L1.21493426,54.8243338 L4.82643666,60.8573949 C5.16024529,61.4150265 5.20327863,62.0998036 4.9419068,62.6948381 L2.11346925,69.1340084 L7.10830759,74.0770134 C7.57040133,74.5343118 7.78228237,75.1871598 7.67680346,75.8286632 L6.53546556,82.7700714 L12.5990545,86.3124734 C13.1607754,86.6406357 13.5285234,87.2207757 13.5856151,87.8688201 L14.2029018,94.8755942 L20.9537296,96.7953485 C21.5800108,96.9734461 22.0809273,97.444375 22.2972988,98.0584843 L24.6337944,104.689968 L31.6476746,104.867194 C32.2991194,104.883655 32.9019932,105.215466 33.2644316,105.757028 L37.1725967,111.596684 L44.009326,110.020793 C44.6447072,109.874335 45.3116325,110.045768 45.797626,110.480474 L51.0314626,115.161979 L57.2622071,111.932043 Z"></path>
                </g>
                <mask id="mask-4" fill="white">
                    <use xlink:href="#path-3"></use>
                </mask>
                <g id="Mask">
                    <use fill="#00A9B1" fill-rule="evenodd" xlink:href="#path-3"></use>
                    <path stroke="#4F5661" stroke-width="2.0064001" d="M57.2622071,111.932043 C57.8412175,111.631891 58.5299882,111.631891 59.1089986,111.932043 L65.3397431,115.161979 L70.5735797,110.480474 C71.0595732,110.045768 71.7264985,109.874335 72.3618797,110.020793 L79.198609,111.596684 L83.1067741,105.757028 C83.4692125,105.215466 84.0720863,104.883655 84.7235311,104.867194 L91.7374112,104.689968 L94.0739069,98.0584843 C94.2902784,97.444375 94.7911948,96.9734461 95.4174761,96.7953485 L102.168304,94.8755942 L102.785591,87.8688201 C102.842682,87.2207757 103.21043,86.6406357 103.772151,86.3124734 L109.83574,82.7700714 L108.694402,75.8286632 C108.588923,75.1871598 108.800804,74.5343118 109.262898,74.0770134 L114.257736,69.1340084 L111.429299,62.6948381 C111.167927,62.0998036 111.21096,61.4150265 111.544769,60.8573949 L115.156271,54.8243338 L110.818807,49.2926512 C110.417743,48.7811626 110.289301,48.1070799 110.474172,47.4839457 L112.474847,40.7403856 L106.901599,36.4640019 C106.385666,36.0681235 106.0936,35.4467431 106.11801,34.7968885 L106.382061,27.767289 L99.9238914,25.0145947 C99.3251821,24.7594042 98.8874452,24.2296669 98.7496747,23.5935897 L97.2609495,16.7202446 L90.3239298,15.6635123 C89.6799652,15.5654156 89.1237004,15.1608043 88.8320408,14.5783543 L85.6848122,8.29327676 L78.7045534,8.99820993 C78.0559786,9.0637092 77.41601,8.81003862 76.9884407,8.31797776 L72.381086,3.01568086 L65.7955122,5.43766346 C65.1834447,5.6627641 64.5001589,5.57634658 63.9634059,5.20595063 L58.1856028,1.21887506 L52.4077998,5.20595063 C51.8710468,5.57634658 51.187761,5.6627641 50.5756934,5.43766346 L43.9901197,3.01568086 L39.3827649,8.31797776 C38.9551957,8.81003862 38.315227,9.0637092 37.6666523,8.99820993 L30.6863935,8.29327676 L27.5391649,14.5783543 C27.2475053,15.1608043 26.6912405,15.5654156 26.0472758,15.6635123 L19.1102562,16.7202446 L17.621531,23.5935897 C17.4837605,24.2296669 17.0460236,24.7594042 16.4473143,25.0145947 L9.98914486,27.767289 L10.2531954,34.7968885 C10.2776056,35.4467431 9.98553994,36.0681235 9.46960665,36.4640019 L3.89635848,40.7403856 L5.89703348,47.4839457 C6.08190453,48.1070799 5.95346317,48.7811626 5.55239835,49.2926512 L1.21493426,54.8243338 L4.82643666,60.8573949 C5.16024529,61.4150265 5.20327863,62.0998036 4.9419068,62.6948381 L2.11346925,69.1340084 L7.10830759,74.0770134 C7.57040133,74.5343118 7.78228237,75.1871598 7.67680346,75.8286632 L6.53546556,82.7700714 L12.5990545,86.3124734 C13.1607754,86.6406357 13.5285234,87.2207757 13.5856151,87.8688201 L14.2029018,94.8755942 L20.9537296,96.7953485 C21.5800108,96.9734461 22.0809273,97.444375 22.2972988,98.0584843 L24.6337944,104.689968 L31.6476746,104.867194 C32.2991194,104.883655 32.9019932,105.215466 33.2644316,105.757028 L37.1725967,111.596684 L44.009326,110.020793 C44.6447072,109.874335 45.3116325,110.045768 45.797626,110.480474 L51.0314626,115.161979 L57.2622071,111.932043 Z"></path>
                </g>
                <path d="M58.5143866,103.277434 C33.8329363,103.277434 13.7529607,83.1970946 13.7529607,58.5151973 C13.7529607,33.8333 33.8329363,13.7529607 58.5143866,13.7529607 C83.1958368,13.7529607 103.275813,33.8333 103.275813,58.5151973 C103.275813,83.1970946 83.1958368,103.277434 58.5143866,103.277434" id="Fill-5" stroke="#FFFFFF" stroke-width="1.05792005" opacity="0.5" mask="url(#mask-4)"></path>
                <g id="Group-7" mask="url(#mask-4)">
                    <g transform="translate(48.336001, 0.000000)">
                        <polygon id="Fill-80" fill="#018E8D" points="0 6.38400017 0 29.191819 9.61121858 23.0981207 19.1523418 29.191819 19.1523418 6.38400017"></polygon>
                        <path d="M0.170992527,0.886534553 L0,27.6850269 L9.5802462,21.5913286 L19.090397,27.6850269 L19.3942447,0.933969059 C19.3942447,0.933969059 15.5406286,0 9.57600026,0 C3.61218697,0 0,4.53453465 0,4.53453465 L0.170992527,0.886534553 Z" id="Fill-82" fill="#E43834"></path>
                        <path d="M10.2039653,7.75200021 C10.3546762,8.05927276 10.5741532,8.62570489 10.741228,9.01226566 C10.8064341,9.16310967 10.8501546,9.31941548 10.9146111,9.42104187 C11.0273476,9.59876532 11.2014177,9.68277893 11.434573,9.59127835 C11.6775342,9.49591156 11.8985727,9.23969768 12.1452189,9.14844258 C12.0006913,9.90843125 11.8021377,10.8452228 11.6425578,11.651913 C11.603022,11.8513609 11.5380033,12.0959762 11.6945228,12.1458688 C11.8820213,12.2055805 12.0407268,11.993552 12.127918,11.89033 C12.439458,11.5215048 12.7531839,11.1003935 13.063787,10.8174842 C13.1229971,10.9647075 13.1514779,11.1398535 13.2198068,11.2772577 C13.2753319,11.38901 13.3791993,11.5258619 13.5144831,11.5497343 C13.6933001,11.5813391 13.9924109,11.5064081 14.2424298,11.4646161 C14.4908873,11.4230695 14.7293515,11.3641557 14.9184115,11.3453769 C14.8104843,11.6651686 14.6740763,12.1227329 14.5544694,12.5034636 C14.508313,12.6500118 14.4395469,12.7893799 14.450477,12.8951794 C14.4839545,13.2203715 14.8983001,13.2133755 15.1610604,13.3550142 C14.5091874,13.8487246 13.8489451,14.3415758 13.1850802,14.8366362 C12.971849,14.995765 12.7161464,15.1238412 12.5611884,15.3475911 C12.5099105,15.8066282 12.7581806,15.9713415 12.8211381,16.3181968 C12.2298493,16.1894455 11.5764774,16.0786752 10.9492753,15.960602 C10.7507216,15.9232899 10.5303078,15.8481134 10.3599226,15.9946616 C10.3910267,16.8571358 10.442367,17.7977323 10.463915,18.5662512 L9.89198815,18.5662512 C9.93602096,17.6486679 9.96094166,16.9180135 9.99591807,16.0117221 C9.84783042,15.8350419 9.60249584,15.9245173 9.40662791,15.960602 C8.80965543,16.0707587 8.1359222,16.1890159 7.55206587,16.3181968 C7.56818001,16.0047874 7.85492417,15.8098194 7.79471476,15.3645289 C7.64912543,15.133292 7.40685129,14.9823253 7.18799885,14.8195757 C6.5386242,14.3365435 5.85377347,13.8590959 5.19478031,13.3720133 C5.33830853,13.2468828 5.59975724,13.2516082 5.7494688,13.1506568 C5.8084915,13.1108286 5.89087346,13.0098773 5.90542614,12.9291776 C5.92928506,12.7975419 5.85033829,12.6754798 5.80143376,12.5205241 C5.68863482,12.1629293 5.55460019,11.68272 5.45479249,11.3453769 C5.64478938,11.3714585 5.88331605,11.4236218 6.13071174,11.4646161 C6.41277156,11.5113789 6.74467277,11.5990133 6.92804913,11.5156747 C7.16551401,11.4078501 7.18356434,11.0833944 7.29199123,10.8174842 C7.37899507,10.8314763 7.41191038,10.9259839 7.46543678,10.9877821 C7.71520587,11.2765213 7.96915964,11.5464818 8.24534842,11.8733309 C8.37494853,12.0268138 8.55613886,12.2949331 8.76531033,12.0606892 C8.6217821,11.0663339 8.39693371,10.1519418 8.22798513,9.18256351 C8.25196895,9.13199579 8.34190831,9.21208181 8.40130576,9.25068265 C8.54995553,9.34721545 8.78404769,9.54893402 8.95599426,9.60833882 C9.20513877,9.69425485 9.30806936,9.56225101 9.45859287,9.42104187 C9.68943722,8.84730688 9.95094839,8.30382661 10.2039653,7.75200021" id="Fill-1" fill="#FFFFFF"></path>
                    </g>
                </g>
                <text id="Agence-du-revenu-du" mask="url(#mask-4)" font-family="AvenirNext-DemiBold, Avenir Next" font-size="5.47200015" font-weight="500" line-spacing="11.9107207" fill="#FFFFFF">
                    <tspan x="21.2340966" y="46.0400011">Agence du revenu du Canada</tspan>
                </text>
                <text id="TRANSFERT-SÉCURISÉ" mask="url(#mask-4)" font-family="AvenirNext-DemiBold, Avenir Next" font-size="7.2960002" font-weight="500" line-spacing="11.9107207" fill="#FFFFFF">
                    <tspan x="20.2427526" y="73.5760018">TRANSFERT SÉCURISÉ</tspan>
                </text>
                <text id="IMPÔTNET" mask="url(#mask-4)" font-family="AvenirNext-Bold, Avenir Next" font-size="14.5920004" font-weight="bold" line-spacing="12.8227207" letter-spacing="0.162133347" fill="#FFFFFF">
                    <tspan x="18.8680016" y="68.8080015">IMPÔTNET</tspan>
                </text>
                <mask id="mask-6" fill="white">
                    <use xlink:href="#path-5"></use>
                </mask>
                <path stroke="#4F5661" stroke-width="2.0064001" d="M57.050477,111.716368 C57.6294874,111.416216 58.3182581,111.416216 58.8972684,111.716368 L65.128013,114.946304 L70.3618496,110.264799 C70.8478431,109.830093 71.5147683,109.65866 72.1501496,109.805118 L78.9868789,111.381009 L82.895044,105.541353 C83.2574823,104.999791 83.8603562,104.66798 84.511801,104.651519 L91.5256811,104.474293 L93.8621768,97.8428093 C94.0785483,97.2287 94.5794647,96.7577711 95.205746,96.5796735 L101.956574,94.6599192 L102.57386,87.653145 C102.630952,87.0051007 102.9987,86.4249607 103.560421,86.0967984 L109.62401,82.5543964 L108.482672,75.6129882 C108.377193,74.9714848 108.589074,74.3186368 109.051168,73.8613383 L114.046006,68.9183333 L111.217569,62.4791631 C110.956197,61.8841286 110.99923,61.1993515 111.333039,60.6417199 L114.944541,54.6086588 L110.607077,49.0769762 C110.206012,48.5654876 110.077571,47.8914049 110.262442,47.2682707 L112.263117,40.5247106 L106.689869,36.2483269 C106.173936,35.8524485 105.88187,35.2310681 105.90628,34.5812135 L106.170331,27.551614 L99.7121612,24.7989197 C99.113452,24.5437292 98.6757151,24.0139919 98.5379446,23.3779147 L97.0492194,16.5045696 L90.1121997,15.4478372 C89.4682351,15.3497406 88.9119703,14.9451293 88.6203107,14.3626793 L85.4730821,8.07760175 L78.4928233,8.78253492 C77.8442485,8.84803419 77.2042798,8.59436361 76.7767106,8.10230275 L72.1693559,2.80000585 L65.5837821,5.22198845 C64.9717146,5.44708909 64.2884288,5.36067157 63.7516758,4.99027563 L57.9738727,1.00320005 L52.1960697,4.99027563 C51.6593167,5.36067157 50.9760308,5.44708909 50.3639633,5.22198845 L43.7783896,2.80000585 L39.1710348,8.10230275 C38.7434656,8.59436361 38.1034969,8.84803419 37.4549222,8.78253492 L30.4746634,8.07760175 L27.3274348,14.3626793 C27.0357751,14.9451293 26.4795104,15.3497406 25.8355457,15.4478372 L18.8985261,16.5045696 L17.4098009,23.3779147 C17.2720304,24.0139919 16.8342935,24.5437292 16.2355842,24.7989197 L9.77741474,27.551614 L10.0414653,34.5812135 C10.0658755,35.2310681 9.77380982,35.8524485 9.25787654,36.2483269 L3.68462836,40.5247106 L5.68530336,47.2682707 C5.87017441,47.8914049 5.74173305,48.5654876 5.34066823,49.0769762 L1.00320415,54.6086588 L4.61470654,60.6417199 C4.94851518,61.1993515 4.99154851,61.8841286 4.73017668,62.4791631 L1.90173913,68.9183333 L6.89657748,73.8613383 C7.35867122,74.3186368 7.57055225,74.9714848 7.46507334,75.6129882 L6.32373545,82.5543964 L12.3873244,86.0967984 C12.9490453,86.4249607 13.3167933,87.0051007 13.373885,87.653145 L13.9911717,94.6599192 L20.7419995,96.5796735 C21.3682807,96.7577711 21.8691972,97.2287 22.0855686,97.8428093 L24.4220643,104.474293 L31.4359444,104.651519 C32.0873893,104.66798 32.6902631,104.999791 33.0527014,105.541353 L36.9608666,111.381009 L43.7975959,109.805118 C44.4329771,109.65866 45.0999024,109.830093 45.5858959,110.264799 L50.8197324,114.946304 L57.050477,111.716368 Z"></path>
            </g>
        </g>
    </g>
</svg>