<?xml version="1.0" encoding="UTF-8"?>
<svg width="116px" height="116px" viewBox="0 0 116 116" version="1.1" xmlns="http://www.w3.org/2000/svg" xmlns:xlink="http://www.w3.org/1999/xlink">
    <!-- Generator: Sketch 49.3 (51167) - http://www.bohemiancoding.com/sketch -->
    <title>Group 6 Copy 3</title>
    <desc>Created with Sketch.</desc>
    <defs>
        <path d="M57.7239027,112.822681 L51.4931584,116.052618 C51.1232102,116.244394 50.6732273,116.187508 50.3626431,115.9097 L45.1288068,111.228195 C44.88581,111.010842 44.5523474,110.925126 44.2346568,110.998355 L37.3979278,112.574246 C36.9920326,112.667806 36.5705479,112.500811 36.3388761,112.154643 L32.4307111,106.314987 C32.249492,106.044206 31.9480551,105.8783 31.6223327,105.87007 L24.6084528,105.692844 C24.1923314,105.68233 23.825931,105.415937 23.6876053,105.023338 L21.3511097,98.3918545 C21.242924,98.0847998 20.9924658,97.8493354 20.6793252,97.7602866 L13.9284976,95.8405323 C13.5284409,95.7267669 13.2400722,95.3779434 13.2035718,94.9636299 L12.5862852,87.956856 C12.5577393,87.6328339 12.3738653,87.3427639 12.0930049,87.1786827 L6.02941619,83.6362809 C5.67055456,83.4266308 5.47812568,83.01741 5.54555735,82.607303 L6.6868952,75.665895 C6.73963465,75.3451433 6.63369414,75.0187193 6.40264728,74.7900701 L1.40780913,69.8470653 C1.11253743,69.5548578 1.02790632,69.1108927 1.19497303,68.7305516 L4.02341047,62.2913816 C4.15409638,61.9938644 4.13257971,61.6514758 3.9656754,61.37266 L0.354173152,55.3395992 C0.140827069,54.9832018 0.169182594,54.5321854 0.425485904,54.205315 L4.76294982,48.6736326 C4.96348222,48.4178883 5.0277029,48.080847 4.93526737,47.7692799 L2.93459245,41.02572 C2.81641411,40.6273831 2.95601963,40.1974182 3.28565964,39.9444836 L8.8589076,35.6681001 C9.11687423,35.4701609 9.26290707,35.1594707 9.25070194,34.8345434 L8.98665144,27.8049442 C8.9710455,27.3894803 9.21332365,27.0074418 9.59578744,26.8444226 L16.0539567,24.0917283 C16.3533113,23.9641331 16.5721797,23.6992645 16.641065,23.3812259 L18.1297901,16.5078811 C18.2178698,16.101223 18.5478362,15.7911456 18.9591784,15.7284849 L25.8961978,14.6717526 C26.2181801,14.6227043 26.4963125,14.4203986 26.6421423,14.1291736 L29.7893708,7.84409635 C29.9758163,7.47176109 30.3728918,7.25331337 30.7871923,7.29515339 L37.7674508,8.00008653 C38.0917382,8.03283616 38.4117225,7.90600087 38.6255071,7.65997045 L43.2328617,2.35767376 C43.5061382,2.04317802 43.9453583,1.93032619 44.3363906,2.0741365 L50.921964,4.49611901 C51.2279978,4.60866933 51.5696407,4.56546057 51.8380172,4.3802626 L57.61582,0.393187183 C57.958805,0.156504273 58.412396,0.156504273 58.7553811,0.393187183 L64.5331839,4.3802626 C64.8015604,4.56546057 65.1432033,4.60866933 65.449237,4.49611901 L72.0348105,2.0741365 C72.4258428,1.93032619 72.8650628,2.04317802 73.1383394,2.35767376 L77.745694,7.65997045 C77.9594786,7.90600087 78.2794629,8.03283616 78.6037502,8.00008653 L85.5840088,7.29515339 C85.9983092,7.25331337 86.3953848,7.47176109 86.5818302,7.84409635 L89.7290587,14.1291736 C89.8748885,14.4203986 90.1530209,14.6227043 90.4750032,14.6717526 L97.4120226,15.7284849 C97.8233649,15.7911456 98.1533313,16.101223 98.241411,16.5078811 L99.7301361,23.3812259 C99.7990213,23.6992645 100.01789,23.9641331 100.317244,24.0917283 L106.775414,26.8444226 C107.157877,27.0074418 107.400156,27.3894803 107.38455,27.8049442 L107.120499,34.8345434 C107.108294,35.1594707 107.254327,35.4701609 107.512293,35.6681001 L113.085541,39.9444836 C113.415181,40.1974182 113.554787,40.6273831 113.436609,41.02572 L111.435934,47.7692799 C111.343498,48.080847 111.407719,48.4178883 111.608251,48.6736326 L115.945715,54.205315 C116.202018,54.5321854 116.230374,54.9832018 116.017028,55.3395992 L112.405526,61.37266 C112.238621,61.6514758 112.217105,61.9938644 112.347791,62.2913816 L115.176228,68.7305516 C115.343295,69.1108927 115.258664,69.5548578 114.963392,69.8470653 L109.968554,74.7900701 C109.737507,75.0187193 109.631566,75.3451433 109.684306,75.665895 L110.825644,82.607303 C110.893075,83.01741 110.700647,83.4266308 110.341785,83.6362809 L104.278196,87.1786827 C103.997336,87.3427639 103.813462,87.6328339 103.784916,87.956856 L103.167629,94.9636299 C103.131129,95.3779434 102.84276,95.7267669 102.442703,95.8405323 L95.6918759,97.7602866 C95.3787353,97.8493354 95.1282771,98.0847998 95.0200913,98.3918545 L92.6835958,105.023338 C92.5452701,105.415937 92.1788696,105.68233 91.7627482,105.692844 L84.7488684,105.87007 C84.423146,105.8783 84.1217091,106.044206 83.9404899,106.314987 L80.0323249,112.154643 C79.8006531,112.500811 79.3791685,112.667806 78.9732733,112.574246 L72.1365443,110.998355 C71.8188537,110.925126 71.485391,111.010842 71.2423943,111.228195 L66.008558,115.9097 C65.6979738,116.187508 65.2479908,116.244394 64.8780427,116.052618 L58.6472984,112.822681 C58.3577932,112.672606 58.0134079,112.672606 57.7239027,112.822681 Z" id="path-1"></path>
        <path d="M57.7239027,112.822681 L51.4931584,116.052618 C51.1232102,116.244394 50.6732273,116.187508 50.3626431,115.9097 L45.1288068,111.228195 C44.88581,111.010842 44.5523474,110.925126 44.2346568,110.998355 L37.3979278,112.574246 C36.9920326,112.667806 36.5705479,112.500811 36.3388761,112.154643 L32.4307111,106.314987 C32.249492,106.044206 31.9480551,105.8783 31.6223327,105.87007 L24.6084528,105.692844 C24.1923314,105.68233 23.825931,105.415937 23.6876053,105.023338 L21.3511097,98.3918545 C21.242924,98.0847998 20.9924658,97.8493354 20.6793252,97.7602866 L13.9284976,95.8405323 C13.5284409,95.7267669 13.2400722,95.3779434 13.2035718,94.9636299 L12.5862852,87.956856 C12.5577393,87.6328339 12.3738653,87.3427639 12.0930049,87.1786827 L6.02941619,83.6362809 C5.67055456,83.4266308 5.47812568,83.01741 5.54555735,82.607303 L6.6868952,75.665895 C6.73963465,75.3451433 6.63369414,75.0187193 6.40264728,74.7900701 L1.40780913,69.8470653 C1.11253743,69.5548578 1.02790632,69.1108927 1.19497303,68.7305516 L4.02341047,62.2913816 C4.15409638,61.9938644 4.13257971,61.6514758 3.9656754,61.37266 L0.354173152,55.3395992 C0.140827069,54.9832018 0.169182594,54.5321854 0.425485904,54.205315 L4.76294982,48.6736326 C4.96348222,48.4178883 5.0277029,48.080847 4.93526737,47.7692799 L2.93459245,41.02572 C2.81641411,40.6273831 2.95601963,40.1974182 3.28565964,39.9444836 L8.8589076,35.6681001 C9.11687423,35.4701609 9.26290707,35.1594707 9.25070194,34.8345434 L8.98665144,27.8049442 C8.9710455,27.3894803 9.21332365,27.0074418 9.59578744,26.8444226 L16.0539567,24.0917283 C16.3533113,23.9641331 16.5721797,23.6992645 16.641065,23.3812259 L18.1297901,16.5078811 C18.2178698,16.101223 18.5478362,15.7911456 18.9591784,15.7284849 L25.8961978,14.6717526 C26.2181801,14.6227043 26.4963125,14.4203986 26.6421423,14.1291736 L29.7893708,7.84409635 C29.9758163,7.47176109 30.3728918,7.25331337 30.7871923,7.29515339 L37.7674508,8.00008653 C38.0917382,8.03283616 38.4117225,7.90600087 38.6255071,7.65997045 L43.2328617,2.35767376 C43.5061382,2.04317802 43.9453583,1.93032619 44.3363906,2.0741365 L50.921964,4.49611901 C51.2279978,4.60866933 51.5696407,4.56546057 51.8380172,4.3802626 L57.61582,0.393187183 C57.958805,0.156504273 58.412396,0.156504273 58.7553811,0.393187183 L64.5331839,4.3802626 C64.8015604,4.56546057 65.1432033,4.60866933 65.449237,4.49611901 L72.0348105,2.0741365 C72.4258428,1.93032619 72.8650628,2.04317802 73.1383394,2.35767376 L77.745694,7.65997045 C77.9594786,7.90600087 78.2794629,8.03283616 78.6037502,8.00008653 L85.5840088,7.29515339 C85.9983092,7.25331337 86.3953848,7.47176109 86.5818302,7.84409635 L89.7290587,14.1291736 C89.8748885,14.4203986 90.1530209,14.6227043 90.4750032,14.6717526 L97.4120226,15.7284849 C97.8233649,15.7911456 98.1533313,16.101223 98.241411,16.5078811 L99.7301361,23.3812259 C99.7990213,23.6992645 100.01789,23.9641331 100.317244,24.0917283 L106.775414,26.8444226 C107.157877,27.0074418 107.400156,27.3894803 107.38455,27.8049442 L107.120499,34.8345434 C107.108294,35.1594707 107.254327,35.4701609 107.512293,35.6681001 L113.085541,39.9444836 C113.415181,40.1974182 113.554787,40.6273831 113.436609,41.02572 L111.435934,47.7692799 C111.343498,48.080847 111.407719,48.4178883 111.608251,48.6736326 L115.945715,54.205315 C116.202018,54.5321854 116.230374,54.9832018 116.017028,55.3395992 L112.405526,61.37266 C112.238621,61.6514758 112.217105,61.9938644 112.347791,62.2913816 L115.176228,68.7305516 C115.343295,69.1108927 115.258664,69.5548578 114.963392,69.8470653 L109.968554,74.7900701 C109.737507,75.0187193 109.631566,75.3451433 109.684306,75.665895 L110.825644,82.607303 C110.893075,83.01741 110.700647,83.4266308 110.341785,83.6362809 L104.278196,87.1786827 C103.997336,87.3427639 103.813462,87.6328339 103.784916,87.956856 L103.167629,94.9636299 C103.131129,95.3779434 102.84276,95.7267669 102.442703,95.8405323 L95.6918759,97.7602866 C95.3787353,97.8493354 95.1282771,98.0847998 95.0200913,98.3918545 L92.6835958,105.023338 C92.5452701,105.415937 92.1788696,105.68233 91.7627482,105.692844 L84.7488684,105.87007 C84.423146,105.8783 84.1217091,106.044206 83.9404899,106.314987 L80.0323249,112.154643 C79.8006531,112.500811 79.3791685,112.667806 78.9732733,112.574246 L72.1365443,110.998355 C71.8188537,110.925126 71.485391,111.010842 71.2423943,111.228195 L66.008558,115.9097 C65.6979738,116.187508 65.2479908,116.244394 64.8780427,116.052618 L58.6472984,112.822681 C58.3577932,112.672606 58.0134079,112.672606 57.7239027,112.822681 Z" id="path-3"></path>
        <path d="M57.5121726,112.607006 L51.2814283,115.836943 C50.9114801,116.028719 50.4614972,115.971833 50.150913,115.694025 L44.9170767,111.01252 C44.6740799,110.795167 44.3406173,110.709451 44.0229267,110.78268 L37.1861977,112.358571 C36.7803025,112.452131 36.3588178,112.285136 36.127146,111.938968 L32.218981,106.099312 C32.0377619,105.828531 31.736325,105.662625 31.4106026,105.654395 L24.3967227,105.477169 C23.9806013,105.466655 23.6142009,105.200262 23.4758752,104.807663 L21.1393796,98.1761795 C21.0311939,97.8691248 20.7807357,97.6336604 20.4675951,97.5446116 L13.7167675,95.6248573 C13.3167108,95.5110919 13.0283421,95.1622683 12.9918417,94.7479549 L12.3745551,87.741181 C12.3460092,87.4171589 12.1621352,87.1270889 11.8812747,86.9630077 L5.81768608,83.4206059 C5.45882445,83.2109558 5.26639557,82.801735 5.33382724,82.391628 L6.47516509,75.45022 C6.52790454,75.1294683 6.42196403,74.8030443 6.19091717,74.5743951 L1.19607902,69.6313903 C0.900807322,69.3391828 0.816176214,68.8952177 0.983242927,68.5148766 L3.81168037,62.0757066 C3.94236628,61.7781894 3.92084961,61.4358008 3.7539453,61.156985 L0.142443046,55.1239242 C-0.0709030375,54.7675268 -0.0425475124,54.3165104 0.213755797,53.98964 L4.55121971,48.4579576 C4.75175211,48.2022133 4.81597279,47.865172 4.72353727,47.5536049 L2.72286235,40.810045 C2.604684,40.4117081 2.74428952,39.9817432 3.07392954,39.7288086 L8.64717749,35.4524251 C8.90514412,35.2544859 9.05117697,34.9437957 9.03897183,34.6188684 L8.77492133,27.5892692 C8.7593154,27.1738053 9.00159354,26.7917668 9.38405733,26.6287476 L15.8422265,23.8760533 C16.1415812,23.7484581 16.3604496,23.4835895 16.4293349,23.1655509 L17.91806,16.2922061 C18.0061397,15.885548 18.3361061,15.5754706 18.7474483,15.5128099 L25.6844677,14.4560776 C26.00645,14.4070293 26.2845824,14.2047236 26.4304122,13.9134986 L29.5776407,7.62842135 C29.7640862,7.25608609 30.1611617,7.03763837 30.5754622,7.07947839 L37.5557207,7.78441153 C37.8800081,7.81716116 38.1999924,7.69032587 38.413777,7.44429545 L43.0211316,2.14199876 C43.2944081,1.82750301 43.7336282,1.71465119 44.1246605,1.8584615 L50.7102339,4.28044401 C51.0162677,4.39299432 51.3579106,4.34978557 51.6262871,4.1645876 L57.4040899,0.177512182 C57.7470749,-0.0591707274 58.2006659,-0.0591707274 58.543651,0.177512182 L64.3214538,4.1645876 C64.5898303,4.34978557 64.9314732,4.39299432 65.2375069,4.28044401 L71.8230804,1.8584615 C72.2141127,1.71465119 72.6533327,1.82750301 72.9266093,2.14199876 L77.5339639,7.44429545 C77.7477485,7.69032587 78.0677328,7.81716116 78.3920201,7.78441153 L85.3722787,7.07947839 C85.7865791,7.03763837 86.1836547,7.25608609 86.3701001,7.62842135 L89.5173286,13.9134986 C89.6631584,14.2047236 89.9412908,14.4070293 90.2632731,14.4560776 L97.2002925,15.5128099 C97.6116347,15.5754706 97.9416012,15.885548 98.0296809,16.2922061 L99.518406,23.1655509 C99.5872912,23.4835895 99.8061597,23.7484581 100.105514,23.8760533 L106.563684,26.6287476 C106.946147,26.7917668 107.188425,27.1738053 107.17282,27.5892692 L106.908769,34.6188684 C106.896564,34.9437957 107.042597,35.2544859 107.300563,35.4524251 L112.873811,39.7288086 C113.203451,39.9817432 113.343057,40.4117081 113.224879,40.810045 L111.224204,47.5536049 C111.131768,47.865172 111.195989,48.2022133 111.396521,48.4579576 L115.733985,53.98964 C115.990288,54.3165104 116.018644,54.7675268 115.805298,55.1239242 L112.193796,61.156985 C112.026891,61.4358008 112.005375,61.7781894 112.13606,62.0757066 L114.964498,68.5148766 C115.131565,68.8952177 115.046934,69.3391828 114.751662,69.6313903 L109.756824,74.5743951 C109.525777,74.8030443 109.419836,75.1294683 109.472576,75.45022 L110.613914,82.391628 C110.681345,82.801735 110.488916,83.2109558 110.130055,83.4206059 L104.066466,86.9630077 C103.785606,87.1270889 103.601732,87.4171589 103.573186,87.741181 L102.955899,94.7479549 C102.919399,95.1622683 102.63103,95.5110919 102.230973,95.6248573 L95.4801458,97.5446116 C95.1670052,97.6336604 94.916547,97.8691248 94.8083612,98.1761795 L92.4718656,104.807663 C92.33354,105.200262 91.9671395,105.466655 91.5510181,105.477169 L84.5371383,105.654395 C84.2114159,105.662625 83.909979,105.828531 83.7287598,106.099312 L79.8205948,111.938968 C79.588923,112.285136 79.1674384,112.452131 78.7615432,112.358571 L71.9248142,110.78268 C71.6071236,110.709451 71.2736609,110.795167 71.0306642,111.01252 L65.7968279,115.694025 C65.4862437,115.971833 65.0362607,116.028719 64.6663126,115.836943 L58.4355683,112.607006 C58.1460631,112.456931 57.8016778,112.456931 57.5121726,112.607006 Z" id="path-5"></path>
    </defs>
    <g id="🛡-RTBs" stroke="none" stroke-width="1" fill="none" fill-rule="evenodd">
        <g id="revenue-quebec-netfile">
            <g id="Group-6-Copy-3">
                <mask id="mask-2" fill="white">
                    <use xlink:href="#path-1"></use>
                </mask>
                <g id="Mask">
                    <use fill="#00A9B1" fill-rule="evenodd" xlink:href="#path-1"></use>
                    <path stroke="#4F5661" stroke-width="2.00640002" d="M57.2622049,111.932038 C57.8412152,111.631887 58.5299859,111.631887 59.1089962,111.932038 L65.3397405,115.161975 L70.5735769,110.48047 C71.0595704,110.045764 71.7264956,109.874331 72.3618768,110.020789 L79.1986058,111.59668 L83.1067708,105.757024 C83.4692091,105.215462 84.072083,104.883651 84.7235278,104.86719 L91.7374076,104.689964 L94.0739032,98.0584804 C94.2902746,97.4443711 94.7911911,96.9734422 95.4174723,96.7953446 L102.1683,94.8755904 L102.785586,87.8688166 C102.842678,87.2207723 103.210426,86.6406323 103.772147,86.31247 L109.835736,82.7700681 L108.694398,75.8286602 C108.588919,75.1871568 108.8008,74.5343088 109.262894,74.0770104 L114.257732,69.1340056 L111.429294,62.6948356 C111.167923,62.0998012 111.210956,61.4150241 111.544765,60.8573925 L115.156267,54.8243316 L110.818803,49.2926493 C110.417738,48.7811607 110.289297,48.107078 110.474168,47.4839438 L112.474843,40.740384 L106.901595,36.4640005 C106.385662,36.0681221 106.093596,35.4467417 106.118006,34.7968871 L106.382057,27.7672879 L99.9238874,25.0145937 C99.3251781,24.7594032 98.8874413,24.229666 98.7496708,23.5935887 L97.2609457,16.7202439 L90.3239263,15.6635116 C89.6799616,15.565415 89.1236969,15.1608037 88.8320373,14.5783537 L85.6848088,8.29327643 L78.7045502,8.99820957 C78.0559755,9.06370884 77.4160069,8.81003827 76.9884377,8.31797743 L72.3810831,3.01568074 L65.7955096,5.43766324 C65.1834421,5.66276388 64.5001563,5.57634636 63.9634033,5.20595043 L58.1856005,1.21887501 L52.4077977,5.20595043 C51.8710447,5.57634636 51.1877589,5.66276388 50.5756914,5.43766324 L43.990118,3.01568074 L39.3827634,8.31797743 C38.9551942,8.81003827 38.3152255,9.06370884 37.6666508,8.99820957 L30.6863923,8.29327643 L27.5391638,14.5783537 C27.2475042,15.1608037 26.6912394,15.565415 26.0472748,15.6635116 L19.1102554,16.7202439 L17.6215303,23.5935887 C17.4837598,24.229666 17.0460229,24.7594032 16.4473137,25.0145937 L9.98914446,27.7672879 L10.253195,34.7968871 C10.2776052,35.4467417 9.98553954,36.0681221 9.46960628,36.4640005 L3.89635832,40.740384 L5.89703324,47.4839438 C6.08190428,48.107078 5.95346293,48.7811607 5.55239813,49.2926493 L1.21493421,54.8243316 L4.82643647,60.8573925 C5.16024509,61.4150241 5.20327842,62.0998012 4.9419066,62.6948356 L2.11346916,69.1340056 L7.10830731,74.0770104 C7.57040103,74.5343088 7.78228206,75.1871568 7.67680315,75.8286602 L6.5354653,82.7700681 L12.599054,86.31247 C13.1607749,86.6406323 13.5285228,87.2207723 13.5856146,87.8688166 L14.2029012,94.8755904 L20.9537288,96.7953446 C21.58001,96.9734422 22.0809264,97.4443711 22.2972979,98.0584804 L24.6337935,104.689964 L31.6476733,104.86719 C32.2991181,104.883651 32.9019919,105.215462 33.2644302,105.757024 L37.1725952,111.59668 L44.0093242,110.020789 C44.6447055,109.874331 45.3116307,110.045764 45.7976242,110.48047 L51.0314605,115.161975 L57.2622049,111.932038 Z"></path>
                </g>
                <mask id="mask-4" fill="white">
                    <use xlink:href="#path-3"></use>
                </mask>
                <g id="Mask">
                    <use fill="#00A9B1" fill-rule="evenodd" xlink:href="#path-3"></use>
                    <path stroke="#4F5661" stroke-width="2.00640002" d="M57.2622049,111.932038 C57.8412152,111.631887 58.5299859,111.631887 59.1089962,111.932038 L65.3397405,115.161975 L70.5735769,110.48047 C71.0595704,110.045764 71.7264956,109.874331 72.3618768,110.020789 L79.1986058,111.59668 L83.1067708,105.757024 C83.4692091,105.215462 84.072083,104.883651 84.7235278,104.86719 L91.7374076,104.689964 L94.0739032,98.0584804 C94.2902746,97.4443711 94.7911911,96.9734422 95.4174723,96.7953446 L102.1683,94.8755904 L102.785586,87.8688166 C102.842678,87.2207723 103.210426,86.6406323 103.772147,86.31247 L109.835736,82.7700681 L108.694398,75.8286602 C108.588919,75.1871568 108.8008,74.5343088 109.262894,74.0770104 L114.257732,69.1340056 L111.429294,62.6948356 C111.167923,62.0998012 111.210956,61.4150241 111.544765,60.8573925 L115.156267,54.8243316 L110.818803,49.2926493 C110.417738,48.7811607 110.289297,48.107078 110.474168,47.4839438 L112.474843,40.740384 L106.901595,36.4640005 C106.385662,36.0681221 106.093596,35.4467417 106.118006,34.7968871 L106.382057,27.7672879 L99.9238874,25.0145937 C99.3251781,24.7594032 98.8874413,24.229666 98.7496708,23.5935887 L97.2609457,16.7202439 L90.3239263,15.6635116 C89.6799616,15.565415 89.1236969,15.1608037 88.8320373,14.5783537 L85.6848088,8.29327643 L78.7045502,8.99820957 C78.0559755,9.06370884 77.4160069,8.81003827 76.9884377,8.31797743 L72.3810831,3.01568074 L65.7955096,5.43766324 C65.1834421,5.66276388 64.5001563,5.57634636 63.9634033,5.20595043 L58.1856005,1.21887501 L52.4077977,5.20595043 C51.8710447,5.57634636 51.1877589,5.66276388 50.5756914,5.43766324 L43.990118,3.01568074 L39.3827634,8.31797743 C38.9551942,8.81003827 38.3152255,9.06370884 37.6666508,8.99820957 L30.6863923,8.29327643 L27.5391638,14.5783537 C27.2475042,15.1608037 26.6912394,15.565415 26.0472748,15.6635116 L19.1102554,16.7202439 L17.6215303,23.5935887 C17.4837598,24.229666 17.0460229,24.7594032 16.4473137,25.0145937 L9.98914446,27.7672879 L10.253195,34.7968871 C10.2776052,35.4467417 9.98553954,36.0681221 9.46960628,36.4640005 L3.89635832,40.740384 L5.89703324,47.4839438 C6.08190428,48.107078 5.95346293,48.7811607 5.55239813,49.2926493 L1.21493421,54.8243316 L4.82643647,60.8573925 C5.16024509,61.4150241 5.20327842,62.0998012 4.9419066,62.6948356 L2.11346916,69.1340056 L7.10830731,74.0770104 C7.57040103,74.5343088 7.78228206,75.1871568 7.67680315,75.8286602 L6.5354653,82.7700681 L12.599054,86.31247 C13.1607749,86.6406323 13.5285228,87.2207723 13.5856146,87.8688166 L14.2029012,94.8755904 L20.9537288,96.7953446 C21.58001,96.9734422 22.0809264,97.4443711 22.2972979,98.0584804 L24.6337935,104.689964 L31.6476733,104.86719 C32.2991181,104.883651 32.9019919,105.215462 33.2644302,105.757024 L37.1725952,111.59668 L44.0093242,110.020789 C44.6447055,109.874331 45.3116307,110.045764 45.7976242,110.48047 L51.0314605,115.161975 L57.2622049,111.932038 Z"></path>
                </g>
                <path d="M58.5143843,103.27743 C33.832935,103.27743 13.7529601,83.1970913 13.7529601,58.515195 C13.7529601,33.8332987 33.832935,13.7529601 58.5143843,13.7529601 C83.1958335,13.7529601 103.275808,33.8332987 103.275808,58.515195 C103.275808,83.1970913 83.1958335,103.27743 58.5143843,103.27743" id="Fill-5" stroke="#FFFFFF" stroke-width="1.05792001" opacity="0.5" mask="url(#mask-4)"></path>
                <g id="Group-7" mask="url(#mask-4)">
                    <g transform="translate(48.335999, 0.000000)">
                        <polygon id="Fill-80" fill="#018E8D" points="0 6.38399992 0 29.1918178 9.6112182 23.0981198 19.152341 29.1918178 19.152341 6.38399992"></polygon>
                        <path d="M0.17099252,0.886534518 L0,27.6850258 L9.58024582,21.5913277 L19.0903963,27.6850258 L19.394244,0.933969022 C19.394244,0.933969022 15.540628,0 9.57599988,0 C3.61218682,0 0,4.53453447 0,4.53453447 L0.17099252,0.886534518 Z" id="Fill-82" fill="#005DBB"></path>
                        <path d="M11.8843759,12.4583655 C10.8766006,13.2416151 10.9120066,14.8288396 10.9120066,14.8288396 L10.4128685,14.8383387 C10.270381,12.2027516 11.565722,12.1405752 11.7323892,10.1915188 C11.8947386,8.30982012 10.0035408,7.35817628 9.87487025,7.29599991 C9.7375641,7.35817628 7.84722982,8.30982012 8.00871566,10.1915188 C8.17624643,12.1405752 9.47158742,12.2027516 9.32909991,14.8383387 L8.82996185,14.8288396 C8.82996185,14.8288396 8.86450427,13.2416151 7.85672898,12.4583655 C6.84981725,11.675116 5.7643215,11.561126 4.91112357,12.4583655 C4.20559451,13.2001641 4.62960279,14.2208928 5.59333649,14.6483554 C5.84463264,14.7597547 6.15033312,14.6043138 6.12269918,14.379788 C6.08297539,14.04559 6.19782895,13.6397165 6.96380726,13.5879029 C8.29109999,13.4989561 8.02944111,14.8487014 8.02944111,14.8487014 L7.74187541,14.8521557 C7.41717661,14.8564735 7.15724485,15.0654552 7.16156265,15.319342 C7.16501689,15.5715017 7.42753933,15.7744385 7.75051102,15.775302 L9.16847763,15.7787563 C9.16847763,15.7787563 9.09939277,16.3607962 8.4577672,16.693267 C8.36536621,16.7416264 8.33082379,16.8340274 8.3765925,16.9126114 C8.47590198,17.0827329 8.71597184,17.3366197 9.27469559,17.3599358 C9.27469559,17.3599358 9.1822946,18.0205598 9.86537108,18.3677111 C10.5596739,18.0205598 10.4672729,17.3599358 10.4672729,17.3599358 C11.0259966,17.3366197 11.2660665,17.0827329 11.3645124,16.9126114 C11.4111447,16.8340274 11.3766022,16.7416264 11.2842012,16.693267 C10.6425757,16.3607962 10.5734908,15.7787563 10.5734908,15.7787563 L11.9914574,15.775302 C12.3144291,15.7744385 12.576088,15.5715017 12.5804058,15.319342 C12.5847236,15.0654552 12.3247918,14.8564735 12.000093,14.8521557 L11.7125273,14.8487014 C11.7125273,14.8487014 11.4508685,13.4989561 12.7781612,13.5879029 C13.5441395,13.6397165 13.6589931,14.04559 13.6184057,14.379788 C13.5916353,14.6043138 13.8973358,14.7597547 14.148632,14.6483554 C15.1123657,14.2208928 15.5363739,13.2001641 14.8308449,12.4583655 C13.9776469,11.561126 12.8921512,11.675116 11.8843759,12.4583655 Z" id="Fill-9" fill="#FFFFFF"></path>
                    </g>
                </g>
                <text id="Revenu-Québec" mask="url(#mask-4)" font-family="AvenirNext-DemiBold, Avenir Next" font-size="7.29599991" font-weight="500" line-spacing="11.9107202" fill="#FFFFFF">
                    <tspan x="31.7959676" y="45.3039995">Revenu Québec</tspan>
                </text>
                <text id="SECURE-TRANSFER" mask="url(#mask-4)" font-family="AvenirNext-DemiBold, Avenir Next" font-size="7.29599991" font-weight="500" line-spacing="11.9107202" fill="#FFFFFF">
                    <tspan x="25.4375037" y="73.5759992">SECURE TRANSFER</tspan>
                </text>
                <text id="NETFILE" mask="url(#mask-4)" font-family="AvenirNext-Bold, Avenir Next" font-size="17.3279998" font-weight="bold" line-spacing="12.8227202" letter-spacing="0.192533326" fill="#FFFFFF">
                    <tspan x="22.8679993" y="69.8959993">NETFILE</tspan>
                </text>
                <mask id="mask-6" fill="white">
                    <use xlink:href="#path-5"></use>
                </mask>
                <path stroke="#4F5661" stroke-width="2.00640002" d="M57.0504747,111.716363 C57.6294851,111.416212 58.3182558,111.416212 58.8972661,111.716363 L65.1280104,114.9463 L70.3618468,110.264795 C70.8478403,109.830089 71.5147655,109.658656 72.1501467,109.805114 L78.9868757,111.381005 L82.8950407,105.541349 C83.257479,104.999786 83.8603528,104.667976 84.5117977,104.651515 L91.5256775,104.474289 L93.8621731,97.8428054 C94.0785445,97.2286961 94.579461,96.7577672 95.2057422,96.5796696 L101.95657,94.6599154 L102.573856,87.6531416 C102.630948,87.0050973 102.998696,86.4249573 103.560417,86.096795 L109.624006,82.5543931 L108.482668,75.6129852 C108.377189,74.9714818 108.58907,74.3186338 109.051164,73.8613354 L114.046002,68.9183306 L111.217564,62.4791606 C110.956193,61.8841262 110.999226,61.1993491 111.333034,60.6417175 L114.944537,54.6086566 L110.607073,49.0769742 C110.206008,48.5654857 110.077567,47.891403 110.262438,47.2682688 L112.263113,40.524709 L106.689865,36.2483255 C106.173931,35.8524471 105.881866,35.2310667 105.906276,34.5812121 L106.170326,27.5516129 L99.7121573,24.7989187 C99.113448,24.5437282 98.6757112,24.013991 98.5379407,23.3779137 L97.0492155,16.5045689 L90.1121962,15.4478366 C89.4682315,15.34974 88.9119668,14.9451287 88.6203071,14.3626787 L85.4730787,8.07760143 L78.4928201,8.78253457 C77.8442454,8.84803384 77.2042768,8.59436327 76.7767076,8.10230243 L72.169353,2.80000574 L65.5837795,5.22198824 C64.971712,5.44708888 64.2884262,5.36067136 63.7516732,4.99027543 L57.9738704,1.00320001 L52.1960676,4.99027543 C51.6593146,5.36067136 50.9760288,5.44708888 50.3639613,5.22198824 L43.7783878,2.80000574 L39.1710333,8.10230243 C38.7434641,8.59436327 38.1034954,8.84803384 37.4549207,8.78253457 L30.4746622,8.07760143 L27.3274337,14.3626787 C27.0357741,14.9451287 26.4795093,15.34974 25.8355447,15.4478366 L18.8985253,16.5045689 L17.4098002,23.3779137 C17.2720297,24.013991 16.8342928,24.5437282 16.2355836,24.7989187 L9.77741435,27.5516129 L10.0414649,34.5812121 C10.0658751,35.2310667 9.77380943,35.8524471 9.25787617,36.2483255 L3.68462822,40.524709 L5.68530314,47.2682688 C5.87017418,47.891403 5.74173282,48.5654857 5.34066802,49.0769742 L1.00320411,54.6086566 L4.61470636,60.6417175 C4.94851498,61.1993491 4.99154831,61.8841262 4.73017649,62.4791606 L1.90173906,68.9183306 L6.8965772,73.8613354 C7.35867093,74.3186338 7.57055195,74.9714818 7.46507305,75.6129852 L6.3237352,82.5543931 L12.3873239,86.096795 C12.9490448,86.4249573 13.3167927,87.0050973 13.3738845,87.6531416 L13.9911711,94.6599154 L20.7419987,96.5796696 C21.3682799,96.7577672 21.8691963,97.2286961 22.0855678,97.8428054 L24.4220634,104.474289 L31.4359432,104.651515 C32.087388,104.667976 32.6902618,104.999786 33.0527001,105.541349 L36.9608651,111.381005 L43.7975941,109.805114 C44.4329753,109.658656 45.0999006,109.830089 45.5858941,110.264795 L50.8197304,114.9463 L57.0504747,111.716363 Z"></path>
            </g>
        </g>
    </g>
</svg>