<?xml version="1.0" encoding="UTF-8"?>
<svg width="22px" height="21px" viewBox="0 0 22 21" version="1.1" xmlns="http://www.w3.org/2000/svg" xmlns:xlink="http://www.w3.org/1999/xlink">
    <!-- Generator: Sketch 49.3 (51167) - http://www.bohemiancoding.com/sketch -->
    <title>Glyph/ achievement</title>
    <desc>Created with Sketch.</desc>
    <defs></defs>
    <g id="Glyph/-achievement" stroke="none" stroke-width="1" fill="none" fill-rule="evenodd">
        <path d="M18.973,9.164 C18.892,9.648 18.477,10 17.987,10 L16.753,10 C17.123,8.737 17.385,7.372 17.565,6 L19.5,6 L18.973,9.164 Z M13.678,10 L10.931,8.633 L8.184,10 L8.709,7.105 L6.486,5.056 L9.557,4.633 L10.931,2 L12.305,4.633 L15.376,5.056 L13.153,7.105 L13.678,10 Z M3.875,10 C3.385,10 2.97,9.648 2.889,9.164 L2.362,6 L4.297,6 C4.477,7.372 4.739,8.737 5.109,10 L3.875,10 Z M17.775,4 C17.889,2.581 17.931,1.209 17.931,0 L10.931,0 L3.931,0 C3.931,1.209 3.973,2.581 4.087,4 L-3.01980663e-13,4 L0.916,9.493 C1.158,10.946 2.403,12 3.875,12 L5.832,12 C6.735,14.016 8.047,15.508 9.931,15.897 L9.931,19 L7.931,19 C7.379,19 6.931,19.448 6.931,20 L6.931,21 L14.931,21 L14.931,20 C14.931,19.448 14.483,19 13.931,19 L11.931,19 L11.931,15.897 C13.815,15.508 15.127,14.016 16.03,12 L17.987,12 C19.459,12 20.704,10.946 20.946,9.493 L21.862,4 L17.775,4 Z" id="Fill-1" fill="#4A5D68"></path>
    </g>
</svg>