<?xml version="1.0" encoding="UTF-8"?>
<svg width="22px" height="22px" viewBox="0 0 22 22" version="1.1" xmlns="http://www.w3.org/2000/svg" xmlns:xlink="http://www.w3.org/1999/xlink">
    <!-- Generator: Sketch 49.3 (51167) - http://www.bohemiancoding.com/sketch -->
    <title>Glyph/ Answer Questions</title>
    <desc>Created with Sketch.</desc>
    <defs>
        <polygon id="path-1" points="4.0001 0.293 7.907 0.293 7.907 6 0.0932 6 0.0932 0.293"></polygon>
        <polygon id="path-3" points="7.907 5.9999 7.907 0.2929 0.0932 0.2929 0.0932 5.9999 7.907 5.9999"></polygon>
    </defs>
    <g id="Glyph/-Answer-Questions" stroke="none" stroke-width="1" fill="none" fill-rule="evenodd">
        <g id="Page-1">
            <path d="M5.6001,7.414 L5.6001,7.276 C5.9211,7.139 6.2121,6.937 6.4561,6.686 C6.9361,7.051 7.4791,7.325 8.0561,7.495 C8.8101,7.704 9.6061,7.704 10.3601,7.495 L10.4001,7.491 L10.4001,8.743 C10.3561,10.076 9.2501,11.116 7.9331,11.088 C7.6981,11.081 7.4671,11.04 7.2251,10.958 C6.2511,10.658 5.5981,9.764 5.6001,8.731 L5.6001,7.414 Z M6.7391,12.5 C7.1091,12.624 7.4941,12.693 7.8861,12.705 C7.9251,12.706 7.9631,12.707 8.0021,12.707 C10.1551,12.707 11.9371,10.969 11.9991,8.78 L12.0001,7.532 C11.9541,5.38 10.1791,3.642 8.0721,3.709 L7.9431,3.709 C5.8411,3.666 4.0441,5.38 4.0001,7.551 L4.0001,8.73 C3.9961,10.478 5.1041,11.996 6.7391,12.5 Z" id="Fill-1" fill="#616974"></path>
            <path d="M12.7314,13.916 C12.1714,13.786 11.6234,13.686 11.0544,13.608 L10.6614,13.555 L8.0004,16.123 L5.3334,13.55 L4.9324,13.61 C4.4014,13.69 3.8614,13.789 3.2914,13.912 C1.3954,14.297 0.0424,15.875 0.0004,17.767 L0.0004,19.013 L0.3194,19.245 C2.5814,20.887 5.2904,21.707 8.0004,21.707 C10.7094,21.707 13.4184,20.887 15.6804,19.245 L16.0004,19.013 L16.0004,17.75 C15.9584,15.875 14.6044,14.297 12.7314,13.916" id="Fill-3" fill="#616974"></path>
            <g id="Group-7" transform="translate(14.000000, 0.707000)">
                <mask id="mask-2" fill="white">
                    <use xlink:href="#path-1"></use>
                </mask>
                <g id="Clip-6"></g>
                <path d="M3.2002,6 C3.4562,6 3.7122,5.902 3.9072,5.707 L7.9072,1.707 L6.4932,0.293 L3.2002,3.586 L1.5072,1.893 L0.0932,3.307 L2.4932,5.707 C2.6882,5.902 2.9442,6 3.2002,6" id="Fill-5" fill="#616974" mask="url(#mask-2)"></path>
            </g>
            <g id="Group-10" transform="translate(14.000000, 5.707000)">
                <mask id="mask-4" fill="white">
                    <use xlink:href="#path-3"></use>
                </mask>
                <g id="Clip-9"></g>
                <path d="M3.2002,3.5859 L1.5072,1.8929 L0.0932,3.3069 L2.4932,5.7069 C2.6882,5.9019 2.9442,5.9999 3.2002,5.9999 C3.4562,5.9999 3.7122,5.9019 3.9072,5.7069 L7.9072,1.7069 L6.4932,0.2929 L3.2002,3.5859 Z" id="Fill-8" fill="#616974" mask="url(#mask-4)"></path>
            </g>
        </g>
    </g>
</svg>