<?xml version="1.0" encoding="UTF-8"?>
<svg width="22px" height="22px" viewBox="0 0 22 22" version="1.1" xmlns="http://www.w3.org/2000/svg" xmlns:xlink="http://www.w3.org/1999/xlink">
    <!-- Generator: Sketch 49.3 (51167) - http://www.bohemiancoding.com/sketch -->
    <title>Glyph/ App pin</title>
    <desc>Created with Sketch.</desc>
    <defs>
        <polygon id="path-1" points="12.955 0.0002 12.955 13 0.5189 13 0.5189 0.0002 12.955 0.0002"></polygon>
    </defs>
    <g id="Glyph/-App-pin" stroke="none" stroke-width="1" fill="none" fill-rule="evenodd">
        <g id="Page-1">
            <path d="M2,0 C0.896,0 0,0.896 0,2 C0,3.104 0.896,4 2,4 C3.104,4 4,3.104 4,2 C4,0.896 3.104,0 2,0" id="Fill-1" fill="#616974"></path>
            <path d="M7,0 C5.896,0 5,0.896 5,2 C5,3.104 5.896,4 7,4 C8.104,4 9,3.104 9,2 C9,0.896 8.104,0 7,0" id="Fill-3" fill="#616974"></path>
            <path d="M12,4 C13.104,4 14,3.104 14,2 C14,0.896 13.104,0 12,0 C10.896,0 10,0.896 10,2 C10,3.104 10.896,4 12,4" id="Fill-5" fill="#616974"></path>
            <path d="M2,5 C0.896,5 0,5.896 0,7 C0,8.104 0.896,9 2,9 C3.104,9 4,8.104 4,7 C4,5.896 3.104,5 2,5" id="Fill-7" fill="#616974"></path>
            <path d="M7,5 C5.896,5 5,5.896 5,7 C5,8.104 5.896,9 7,9 C8.104,9 9,8.104 9,7 C9,5.896 8.104,5 7,5" id="Fill-9" fill="#616974"></path>
            <path d="M12,9 C13.104,9 14,8.104 14,7 C14,5.896 13.104,5 12,5 C10.896,5 10,5.896 10,7 C10,8.104 10.896,9 12,9" id="Fill-11" fill="#616974"></path>
            <path d="M2,10 C0.896,10 0,10.896 0,12 C0,13.104 0.896,14 2,14 C3.104,14 4,13.104 4,12 C4,10.896 3.104,10 2,10" id="Fill-13" fill="#616974"></path>
            <path d="M7,10 C5.896,10 5,10.896 5,12 C5,13.104 5.896,14 7,14 C8.104,14 9,13.104 9,12 C9,10.896 8.104,10 7,10" id="Fill-15" fill="#616974"></path>
            <path d="M12,14 C12.36,14 12.71,13.9 13,13.73 L13,10.45 C13,10.39 13,10.34 13.01,10.28 C12.71,10.1 12.37,10 12,10 C10.9,10 10,10.9 10,12 C10,13.1 10.9,14 12,14" id="Fill-17" fill="#616974"></path>
            <g id="Group-21" transform="translate(9.000000, 9.000000)">
                <mask id="mask-2" fill="white">
                    <use xlink:href="#path-1"></use>
                </mask>
                <g id="Clip-20"></g>
                <path d="M11.8799,6.4702 L7.9999,5.3852 L7.9999,1.5452 C7.9999,0.8942 7.7499,0.0002 6.5089,0.0002 C5.3749,0.0002 4.9999,0.8632 4.9999,1.5452 L4.9999,7.8732 L4.9999,8.6652 L3.8739,7.1252 C3.2059,6.2422 1.9359,6.0822 1.0669,6.7722 L0.5189,7.1602 L4.2789,12.1972 C4.6569,12.7022 5.2529,13.0002 5.8869,13.0002 L10.1799,13.0002 C11.1059,13.0002 11.9099,12.3702 12.1249,11.4762 L12.9239,8.1542 C13.0829,7.4072 12.6239,6.6672 11.8799,6.4702" id="Fill-19" fill="#616974" mask="url(#mask-2)"></path>
            </g>
        </g>
    </g>
</svg>