<?xml version="1.0" encoding="UTF-8"?>
<svg width="21px" height="22px" viewBox="0 0 21 22" version="1.1" xmlns="http://www.w3.org/2000/svg" xmlns:xlink="http://www.w3.org/1999/xlink">
    <!-- Generator: Sketch 49.3 (51167) - http://www.bohemiancoding.com/sketch -->
    <title>Glyph/ bank</title>
    <desc>Created with Sketch.</desc>
    <defs></defs>
    <g id="Glyph/-bank" stroke="none" stroke-width="1" fill="none" fill-rule="evenodd">
        <g id="Page-1" fill="#4A5D68">
            <polygon id="Fill-1" points="17.0001 11.0002 17.0001 20.0002 14.0001 20.0002 14.0001 11.0002 12.0001 11.0002 12.0001 20.0002 9.0001 20.0002 9.0001 11.0002 7.0001 11.0002 7.0001 20.0002 3.9991 20.0002 3.9991 11.0002 2.0001 11.0002 2.0001 20.0002 0.0001 20.0002 0.0001 22.0002 21.0001 22.0002 21.0001 20.0002 19.0001 20.0002 19.0001 11.0002"></polygon>
            <path d="M10.5,8 C9.396,8 8.5,7.104 8.5,6 C8.5,4.896 9.396,4 10.5,4 C11.604,4 12.5,4.896 12.5,6 C12.5,7.104 11.604,8 10.5,8 Z M19.175,8 L10.5,0 L1.803,8 L0,8 L0,10 L2,10 L4,10 L7,10 L8,10 L12,10 L14,10 L17,10 L19,10 L21,10 L21,8 L19.175,8 Z" id="Fill-2"></path>
        </g>
    </g>
</svg>