<?xml version="1.0" encoding="UTF-8"?>
<svg width="21px" height="21px" viewBox="0 0 21 21" version="1.1" xmlns="http://www.w3.org/2000/svg" xmlns:xlink="http://www.w3.org/1999/xlink">
    <!-- Generator: Sketch 49.3 (51167) - http://www.bohemiancoding.com/sketch -->
    <title>Glyph/ Calender</title>
    <desc>Created with Sketch.</desc>
    <defs></defs>
    <g id="Glyph/-Calender" stroke="none" stroke-width="1" fill="none" fill-rule="evenodd">
        <path d="M19,7 L2,7 L2,4 L4,4 C4,4.553 4.447,5 5,5 C5.553,5 6,4.553 6,4 L15,4 C15,4.553 15.447,5 16,5 C16.553,5 17,4.553 17,4 L19,4 L19,7 Z M14,13 L17,13 L17,10 L14,10 L14,13 Z M14,18 L17,18 L17,15 L14,15 L14,18 Z M9,13 L12,13 L12,10 L9,10 L9,13 Z M9,18 L12,18 L12,15 L9,15 L9,18 Z M4,13 L7,13 L7,10 L4,10 L4,13 Z M4,18 L7,18 L7,15 L4,15 L4,18 Z M19,2 L17,2 L17,1 C17,0.447 16.553,0 16,0 C15.447,0 15,0.447 15,1 L15,2 L6,2 L6,1 C6,0.447 5.553,0 5,0 C4.447,0 4,0.447 4,1 L4,2 L2,2 C0.896,2 0,2.896 0,4 L0,19 C0,20.104 0.896,21 2,21 L19,21 C20.104,21 21,20.104 21,19 L21,4 C21,2.896 20.104,2 19,2 Z" id="Page-1" fill="#616974"></path>
    </g>
</svg>