<?xml version="1.0" encoding="UTF-8"?>
<svg width="22px" height="18px" viewBox="0 0 22 18" version="1.1" xmlns="http://www.w3.org/2000/svg" xmlns:xlink="http://www.w3.org/1999/xlink">
    <!-- Generator: Sketch 49.3 (51167) - http://www.bohemiancoding.com/sketch -->
    <title>Glyph/ Camera</title>
    <desc>Created with Sketch.</desc>
    <defs></defs>
    <g id="Glyph/-Camera" stroke="none" stroke-width="1" fill="none" fill-rule="evenodd">
        <g id="Page-1" fill="#616974">
            <path d="M14,8 C12.346,8 11,9.346 11,11 C11,12.654 12.346,14 14,14 C15.654,14 17,12.654 17,11 C17,9.346 15.654,8 14,8" id="Fill-1"></path>
            <path d="M14,16 C11.239,16 9,13.762 9,11 C9,8.238 11.239,6 14,6 C16.761,6 19,8.238 19,11 C19,13.762 16.761,16 14,16 Z M12.5,2 L15.5,2 L16.5,4 L11.5,4 L12.5,2 Z M3.5,9 C2.671,9 2,8.328 2,7.5 C2,6.672 2.671,6 3.5,6 C4.329,6 5,6.672 5,7.5 C5,8.328 4.329,9 3.5,9 Z M20,4 L19,4 L17.276,0.553 C17.107,0.214 16.761,0 16.382,0 L11.618,0 C11.239,0 10.893,0.214 10.724,0.553 L9,4 L7,4 L7,3 C7,2.447 6.552,2 6,2 L4,2 C3.448,2 3,2.447 3,3 L3,4 L2,4 C0.896,4 0,4.896 0,6 L0,16 C0,17.104 0.896,18 2,18 L20,18 C21.104,18 22,17.104 22,16 L22,6 C22,4.896 21.104,4 20,4 Z" id="Fill-3"></path>
        </g>
    </g>
</svg>