<?xml version="1.0" encoding="UTF-8"?>
<svg width="22px" height="16px" viewBox="0 0 22 16" version="1.1" xmlns="http://www.w3.org/2000/svg" xmlns:xlink="http://www.w3.org/1999/xlink">
    <!-- Generator: Sketch 49.3 (51167) - http://www.bohemiancoding.com/sketch -->
    <title>Glyph/ card</title>
    <desc>Created with Sketch.</desc>
    <defs></defs>
    <g id="Glyph/-card" stroke="none" stroke-width="1" fill="none" fill-rule="evenodd">
        <g id="Page-1" fill="#4B5E69">
            <path d="M2,14 L7,14 L7,13 L2,13 L2,14 Z M2,12 L5,12 L5,11 L2,11 L2,12 Z M16,11.5 C16,11.224 16.224,11 16.5,11 L19.5,11 C19.776,11 20,11.224 20,11.5 L20,13.5 C20,13.776 19.776,14 19.5,14 L16.5,14 C16.224,14 16,13.776 16,13.5 L16,11.5 Z M0,15 C0,15.552 0.448,16 1,16 L21,16 C21.552,16 22,15.552 22,15 L22,7 L0,7 L0,15 Z" id="Fill-1"></path>
            <path d="M21,0 L1,0 C0.448,0 0,0.448 0,1 L0,4 L22,4 L22,1 C22,0.448 21.552,0 21,0" id="Fill-3"></path>
        </g>
    </g>
</svg>