<?xml version="1.0" encoding="UTF-8"?>
<svg width="22px" height="24px" viewBox="0 0 22 24" version="1.1" xmlns="http://www.w3.org/2000/svg" xmlns:xlink="http://www.w3.org/1999/xlink">
    <!-- Generator: Sketch 49.3 (51167) - http://www.bohemiancoding.com/sketch -->
    <title>Glyph/ charity donation</title>
    <desc>Created with Sketch.</desc>
    <defs>
        <polygon id="path-1" points="0 6.9988 0 0.998 22 0.998 22 6.9988 22 12.9996 0 12.9996 0 6.9988"></polygon>
    </defs>
    <g id="Glyph/-charity-donation" stroke="none" stroke-width="1" fill="none" fill-rule="evenodd">
        <g id="Page-1">
            <path d="M2,21.0022 C2,22.1062 2.896,23.0022 4,23.0022 L18,23.0022 C19.104,23.0022 20,22.1062 20,21.0022 L20,14.0022 L2,14.0022 L2,21.0022 Z" id="Fill-1" fill="#616974"></path>
            <g id="Group-5" transform="translate(0.000000, 0.002200)">
                <mask id="mask-2" fill="white">
                    <use xlink:href="#path-1"></use>
                </mask>
                <g id="Clip-4"></g>
                <path d="M7.46,3.1816 C7.742,2.9536 7.956,2.8906 8.113,2.8906 C8.248,2.8906 8.34,2.9366 8.397,2.9656 C8.981,3.2596 9.579,4.3786 9.789,5.9006 C8.402,5.4926 7.366,4.6456 7.164,3.9236 C7.105,3.7106 7.099,3.4736 7.46,3.1816 M13.627,3.0126 C13.712,2.9696 13.813,2.9326 13.934,2.9326 C14.09,2.9326 14.28,2.9946 14.518,3.1836 C14.979,3.5536 14.902,3.8296 14.864,3.9626 C14.668,4.6696 13.612,5.5036 12.191,5.9056 C12.41,4.4206 13.027,3.3176 13.627,3.0126 M20,8.9996 L13.249,8.9996 C16.117,8.6136 18.669,7.4986 20.576,5.7426 L19.041,4.1616 C18.041,5.0836 16.814,5.7936 15.433,6.2726 C16.019,5.7466 16.439,5.1366 16.621,4.4866 C16.912,3.4426 16.553,2.4226 15.637,1.6876 C14.75,0.9766 13.75,0.8426 12.823,1.3136 C12.076,1.6936 11.451,2.4466 11.007,3.4266 C10.569,2.4126 9.946,1.6426 9.199,1.2656 C8.271,0.7966 7.255,0.9476 6.336,1.6906 C5.454,2.4026 5.116,3.4086 5.408,4.4506 C5.596,5.1206 6.043,5.7556 6.659,6.2996 C5.24,5.8216 3.981,5.1036 2.959,4.1616 L1.424,5.7426 C3.331,7.4986 5.883,8.6136 8.751,8.9996 L2,8.9996 C0.896,8.9996 0,9.8956 0,10.9996 L0,12.9996 L22,12.9996 L22,10.9996 C22,9.8956 21.105,8.9996 20,8.9996" id="Fill-3" fill="#616974" mask="url(#mask-2)"></path>
            </g>
        </g>
    </g>
</svg>