<?xml version="1.0" encoding="UTF-8"?>
<svg width="22px" height="23px" viewBox="0 0 22 23" version="1.1" xmlns="http://www.w3.org/2000/svg" xmlns:xlink="http://www.w3.org/1999/xlink">
    <!-- Generator: Sketch 49.3 (51167) - http://www.bohemiancoding.com/sketch -->
    <title>Glyph/ child development</title>
    <desc>Created with Sketch.</desc>
    <defs>
        <polygon id="path-1" points="16 0 16 7 0.0004 7 0.0004 0 16 0"></polygon>
    </defs>
    <g id="Glyph/-child-development" stroke="none" stroke-width="1" fill="none" fill-rule="evenodd">
        <g id="Page-1">
            <g id="Group-3" transform="translate(6.000000, 0.419100)">
                <mask id="mask-2" fill="white">
                    <use xlink:href="#path-1"></use>
                </mask>
                <g id="Clip-2"></g>
                <path d="M14.1304,0 L11.9564,0 C11.4504,0 11.0494,0.382 10.9834,0.87 L10.6554,0.87 C9.8304,0.87 9.0504,1.187 8.4594,1.762 C8.4204,1.8 8.3854,1.841 8.3534,1.884 L6.7074,4.112 C5.6974,3.88 4.7164,3.938 3.8854,4.36 C3.6174,3.571 2.8794,3 2.0004,3 C0.8954,3 0.0004,3.896 0.0004,5 C0.0004,6.104 0.8954,7 2.0004,7 L11.0004,7 C10.2874,6.111 9.4644,5.412 8.6114,4.9 L9.9054,3.148 C10.1134,2.968 10.3774,2.87 10.6554,2.87 L10.9834,2.87 C11.0494,3.357 11.4504,3.739 11.9564,3.739 L14.1304,3.739 C15.1614,3.739 16.0004,2.9 16.0004,1.87 C16.0004,0.839 15.1614,0 14.1304,0" id="Fill-1" fill="#616974" mask="url(#mask-2)"></path>
            </g>
            <path d="M17.1304,20.4191 C16.6034,20.4191 16.1734,19.9901 16.1734,19.4621 C16.1734,18.9351 16.6034,18.5061 17.1304,18.5061 C17.6574,18.5061 18.0874,18.9351 18.0874,19.4621 C18.0874,19.9901 17.6574,20.4191 17.1304,20.4191 M2.9564,20.4191 C2.4294,20.4191 2.0004,19.9901 2.0004,19.4621 C2.0004,18.9351 2.4294,18.5061 2.9564,18.5061 C3.4844,18.5061 3.9134,18.9351 3.9134,19.4621 C3.9134,19.9901 3.4844,20.4191 2.9564,20.4191 M17.1304,16.5061 C17.1244,16.5061 17.1184,16.5081 17.1114,16.5081 L15.9714,14.1011 C17.6564,12.6341 18.8604,10.6081 19.2634,8.4191 L6.2624,8.4191 C5.0004,6.4191 4.0004,3.4191 3.6694,0.0001 C1.8694,1.6891 0.7444,4.0811 0.7444,6.7341 C0.7444,10.0421 2.4624,13.1111 5.0654,14.8751 L3.7664,16.6331 C3.5074,16.5591 3.2394,16.5061 2.9564,16.5061 C1.3264,16.5061 0.0004,17.8321 0.0004,19.4621 C0.0004,21.0931 1.3264,22.4191 2.9564,22.4191 C4.5874,22.4191 5.9134,21.0931 5.9134,19.4621 C5.9134,18.8441 5.7204,18.2701 5.3944,17.7951 L6.8574,15.8151 C7.8374,16.1971 8.8914,16.4191 10.0004,16.4191 C11.5474,16.4191 13.0124,15.9901 14.3104,15.2651 L15.2334,17.2141 C14.5904,17.7571 14.1734,18.5581 14.1734,19.4621 C14.1734,21.0931 15.5004,22.4191 17.1304,22.4191 C18.7604,22.4191 20.0874,21.0931 20.0874,19.4621 C20.0874,17.8321 18.7604,16.5061 17.1304,16.5061" id="Fill-4" fill="#616974"></path>
        </g>
    </g>
</svg>