<?xml version="1.0" encoding="UTF-8"?>
<svg width="22px" height="22px" viewBox="0 0 22 22" version="1.1" xmlns="http://www.w3.org/2000/svg" xmlns:xlink="http://www.w3.org/1999/xlink">
    <!-- Generator: Sketch 49.3 (51167) - http://www.bohemiancoding.com/sketch -->
    <title>Glyph/ comment</title>
    <desc>Created with Sketch.</desc>
    <defs></defs>
    <g id="Glyph/-comment" stroke="none" stroke-width="1" fill="none" fill-rule="evenodd">
        <path d="M4,6.9996 L18,6.9996 L18,4.9996 L4,4.9996 L4,6.9996 Z M4,10.9996 L13,10.9996 L13,8.9996 L4,8.9996 L4,10.9996 Z M20,-0.0004 L2,-0.0004 C0.897,-0.0004 0,0.8966 0,1.9996 L0,13.9996 C0,15.1026 0.897,15.9996 2,15.9996 L6.52,15.9996 L11,21.6006 L15.48,15.9996 L20,15.9996 C21.103,15.9996 22,15.1026 22,13.9996 L22,1.9996 C22,0.8966 21.103,-0.0004 20,-0.0004 Z" id="Page-1" fill="#4B5E69"></path>
    </g>
</svg>