<?xml version="1.0" encoding="UTF-8"?>
<svg width="22px" height="23px" viewBox="0 0 22 23" version="1.1" xmlns="http://www.w3.org/2000/svg" xmlns:xlink="http://www.w3.org/1999/xlink">
    <!-- Generator: Sketch 49.3 (51167) - http://www.bohemiancoding.com/sketch -->
    <title>Glyph/ credit card</title>
    <desc>Created with Sketch.</desc>
    <defs>
        <polygon id="path-1" points="0 2.39995 0 0.9 21 0.9 21 3.8999 0 3.8999 0 2.39995"></polygon>
        <polygon id="path-3" points="0 22.1001 22 22.1001 22 1.0001 0 1.0001"></polygon>
    </defs>
    <g id="Glyph/-credit-card" stroke="none" stroke-width="1" fill="none" fill-rule="evenodd">
        <g id="Page-1">
            <g id="Group-3" transform="translate(0.000000, 0.100100)">
                <mask id="mask-2" fill="white">
                    <use xlink:href="#path-1"></use>
                </mask>
                <g id="Clip-2"></g>
                <path d="M20,0.8999 L1,0.8999 C0.448,0.8999 0,1.3479 0,1.8999 L0,3.8999 L21,3.8999 L21,1.8999 C21,1.3479 20.552,0.8999 20,0.8999" id="Fill-1" fill="#4B5E69" mask="url(#mask-2)"></path>
            </g>
            <mask id="mask-4" fill="white">
                <use xlink:href="#path-3"></use>
            </mask>
            <g id="Clip-5"></g>
            <path d="M2,14.0001 L7,14.0001 L7,12.0001 L2,12.0001 L2,14.0001 Z M0,7.0001 L0,15.0001 C0,15.5501 0.45,16.0001 1,16.0001 L15.27,16.0001 C16.07,14.6001 17.54,13.7001 19.3,13.7001 C19.92,13.7001 20.49,13.7901 21,13.9701 L21,7.0001 L0,7.0001 Z" id="Fill-4" fill="#4B5E69" mask="url(#mask-4)"></path>
            <path d="M19.3018,15 C20.3688,15 21.1598,15.326 21.8658,16.057 L21.9538,16.147 L20.9078,17.415 L20.8118,17.322 C20.2968,16.831 19.8288,16.612 19.2928,16.612 C18.3288,16.612 17.6018,17.438 17.6018,18.531 C17.6018,19.655 18.3288,20.487 19.2928,20.487 C19.9548,20.487 20.3678,20.217 20.8568,19.75 L20.9478,19.664 L21.9998,20.782 L21.9148,20.878 C21.1548,21.735 20.3568,22.1 19.2478,22.1 C17.3398,22.1 15.8998,20.582 15.8998,18.569 C15.8998,16.526 17.3628,15 19.3018,15" id="Fill-6" fill="#4B5E69" mask="url(#mask-4)"></path>
        </g>
    </g>
</svg>