<?xml version="1.0" encoding="UTF-8"?>
<svg width="22px" height="15px" viewBox="0 0 22 15" version="1.1" xmlns="http://www.w3.org/2000/svg" xmlns:xlink="http://www.w3.org/1999/xlink">
    <!-- Generator: Sketch 49.3 (51167) - http://www.bohemiancoding.com/sketch -->
    <title>Glyph/ Credit Score</title>
    <desc>Created with Sketch.</desc>
    <defs>
        <polygon id="path-1" points="5 0.0415 5 3.9975 0.5982 3.9975 0.5982 0.0415 5 0.0415"></polygon>
        <polygon id="path-3" points="8.84507572 10 0.0005 10 0.0005 0.403259406 8.84507572 0.403259406"></polygon>
    </defs>
    <g id="Glyph/-Credit-Score" stroke="none" stroke-width="1" fill="none" fill-rule="evenodd">
        <g id="Page-1">
            <path d="M10.2393,3.6966 L10.2393,0.0006 C8.7823,0.0956 7.4023,0.4656 6.1543,1.0566 L8.0673,4.2646 C8.7443,3.9726 9.4723,3.7746 10.2393,3.6966" id="Fill-1" fill="#616974"></path>
            <path d="M15.8437,1.056 C14.5967,0.464 13.2177,0.096 11.7607,0 L11.7607,3.697 C12.5277,3.775 13.2557,3.972 13.9317,4.264 L15.8437,1.056 Z" id="Fill-3" fill="#616974"></path>
            <path d="M0,9.9242 L3.814,9.9232 C3.896,9.1812 4.1,8.4752 4.4,7.8202 L1.089,5.9672 C0.479,7.1762 0.099,8.5122 0,9.9242" id="Fill-5" fill="#616974"></path>
            <g id="Group-9" transform="translate(17.000000, 5.923700)">
                <mask id="mask-2" fill="white">
                    <use xlink:href="#path-1"></use>
                </mask>
                <g id="Clip-8"></g>
                <path d="M3.9102,0.0415 L0.5982,1.8945 C0.9002,2.5495 1.1042,3.2555 1.1852,3.9975 L5.0002,3.9975 C4.9002,2.5855 4.5202,1.2495 3.9102,0.0415" id="Fill-7" fill="#616974" mask="url(#mask-2)"></path>
            </g>
            <path d="M20.1504,4.6937 C19.3494,3.5437 18.3394,2.5637 17.1604,1.7937 L15.7004,4.2437 C16.2904,4.0237 16.9504,4.1327 17.4504,4.5637 C17.8394,4.9037 18.0404,5.3737 18.0404,5.8637 L20.1504,4.6937 Z" id="Fill-10" fill="#616974"></path>
            <path d="M1.8496,4.6908 L5.1646,6.5448 C5.6096,5.9558 6.1436,5.4368 6.7516,5.0058 L4.8366,1.7948 C3.6596,2.5648 2.6436,3.5488 1.8496,4.6908" id="Fill-12" fill="#616974"></path>
            <g id="Group-16" transform="translate(8.000000, 4.923700)">
                <mask id="mask-4" fill="white">
                    <use xlink:href="#path-3"></use>
                </mask>
                <g id="Clip-15"></g>
                <path d="M7.9795,0.5151 L3.2935,4.0301 C3.1955,4.0201 3.1005,4.0001 3.0005,4.0001 C1.3455,4.0001 0.0005,5.3461 0.0005,7.0001 C0.0005,8.6551 1.3455,10.0001 3.0005,10.0001 C4.6545,10.0001 6.0005,8.6551 6.0005,7.0001 C6.0005,6.7731 5.9695,6.5531 5.9215,6.3401 L8.7735,1.2071 C9.0555,0.7001 8.4445,0.1661 7.9795,0.5151" id="Fill-14" fill="#616974" mask="url(#mask-4)"></path>
            </g>
        </g>
    </g>
</svg>