<?xml version="1.0" encoding="UTF-8"?>
<svg width="21px" height="23px" viewBox="0 0 21 23" version="1.1" xmlns="http://www.w3.org/2000/svg" xmlns:xlink="http://www.w3.org/1999/xlink">
    <!-- Generator: Sketch 49.3 (51167) - http://www.bohemiancoding.com/sketch -->
    <title>Glyph/ Debt</title>
    <desc>Created with Sketch.</desc>
    <defs>
        <polygon id="path-1" points="1.8437 1 0.8437 1 0.8437 0.996 1.8437 0.996"></polygon>
        <polygon id="path-3" points="0.1417 0 9.8577 0 9.8577 4.00007509 0.1417 4.00007509"></polygon>
        <polygon id="path-5" points="16 0.5312 16 16.9962 0.000178709869 16.9962 0.000178709869 0.5312 16 0.5312"></polygon>
    </defs>
    <g id="Glyph/-Debt" stroke="none" stroke-width="1" fill="none" fill-rule="evenodd">
        <g id="Page-1">
            <g id="Group-3" transform="translate(12.000000, 21.000000)">
                <mask id="mask-2" fill="white">
                    <use xlink:href="#path-1"></use>
                </mask>
                <g id="Clip-2"></g>
                <path d="M0.8437,1 L1.1557,1 C1.1037,1 1.0507,1 1.0017,0.996 C0.9487,1 0.8967,1 0.8437,1" id="Fill-1" fill="#616974" mask="url(#mask-2)"></path>
            </g>
            <g id="Group-6" transform="translate(8.000000, 0.000000)">
                <mask id="mask-4" fill="white">
                    <use xlink:href="#path-3"></use>
                </mask>
                <g id="Clip-5"></g>
                <path d="M8.0527,3.5977 C8.4917,2.0667 9.8577,-0.0003 9.8577,-0.0003 L5.3237,-0.0003 L4.6767,-0.0003 L0.1417,-0.0003 C0.1417,-0.0003 1.5087,2.0667 1.9477,3.5977 C3.9337,4.1347 6.0657,4.1337 8.0527,3.5977" id="Fill-4" fill="#616974" mask="url(#mask-4)"></path>
            </g>
            <g id="Group-9" transform="translate(5.000000, 5.000000)">
                <mask id="mask-6" fill="white">
                    <use xlink:href="#path-5"></use>
                </mask>
                <g id="Clip-8"></g>
                <path d="M8.8589,12.5322 L8.8589,13.5212 C8.8589,13.7852 8.6109,14.0002 8.3069,14.0002 L7.7549,14.0002 C7.4499,14.0002 7.2019,13.7852 7.2019,13.5212 L7.2019,12.4632 C6.2829,12.2982 5.4609,11.9262 4.6769,11.3192 L4.3979,11.1032 L5.4819,9.9922 L5.7759,10.2232 C6.6289,10.8912 7.3879,11.1642 8.3929,11.1642 C9.2659,11.1642 9.8769,10.7932 9.8769,10.2622 C9.8769,9.8202 9.7459,9.5072 8.0029,9.1882 C6.3819,8.8832 4.8829,8.3792 4.8829,6.7682 C4.8829,5.6312 5.8229,4.7632 7.2019,4.5142 L7.2019,3.4782 C7.2019,3.2152 7.4499,3.0002 7.7549,3.0002 L8.3069,3.0002 C8.6109,3.0002 8.8589,3.2152 8.8589,3.4782 L8.8589,4.4852 C9.7279,4.5932 10.4629,4.8822 11.2079,5.4002 L11.4979,5.6022 L10.4819,6.7672 L10.1729,6.5492 C9.4849,6.0622 8.7929,5.8362 7.9979,5.8362 C7.1729,5.8362 6.5969,6.1812 6.5969,6.6762 C6.5969,7.1082 6.7379,7.4412 8.5689,7.7812 C10.6669,8.1772 11.6029,8.9102 11.6029,10.1592 C11.6029,11.4462 10.4939,12.3722 8.8589,12.5322 M15.4009,6.2822 C14.4609,3.3692 12.4329,1.4112 11.3559,0.5312 C10.2689,0.9042 9.1419,1.1002 7.9999,1.1002 C6.9379,1.1002 5.8899,0.9282 4.8739,0.6052 C3.6549,1.5192 1.5129,3.4512 0.5999,6.2822 C-0.5991,10.0002 0.0749,12.9342 1.9529,14.7822 C3.3749,16.1902 5.4879,16.9702 8.0019,16.9962 C10.5119,16.9702 12.6249,16.1902 14.0469,14.7822 C15.9249,12.9342 16.5999,10.0002 15.4009,6.2822" id="Fill-7" fill="#616974" mask="url(#mask-6)"></path>
            </g>
            <path d="M7,6.5 L7,5.5 C7,5.224 6.776,5 6.5,5 L0.5,5 C0.224,5 0,5.224 0,5.5 L0,6.5 C0,6.776 0.224,7 0.5,7 L6.5,7 C6.776,7 7,6.776 7,6.5" id="Fill-10" fill="#616974"></path>
        </g>
    </g>
</svg>