<?xml version="1.0" encoding="UTF-8"?>
<svg width="20px" height="19px" viewBox="0 0 20 19" version="1.1" xmlns="http://www.w3.org/2000/svg" xmlns:xlink="http://www.w3.org/1999/xlink">
    <!-- Generator: Sketch 49.3 (51167) - http://www.bohemiancoding.com/sketch -->
    <title>Glyph/ deductions &amp; credits</title>
    <desc>Created with Sketch.</desc>
    <defs></defs>
    <g id="Glyph/-deductions-&amp;-credits" stroke="none" stroke-width="1" fill="none" fill-rule="evenodd">
        <path d="M0,19 L2,19 L2,13 L0,13 L0,19 Z M16.195,12.472 C16.926,11.927 17.933,11.946 18.644,12.518 L19.858,13.493 L14.349,18.496 C13.983,18.821 13.511,19 13.021,19 L3,19 L3,14.97 C3,13.33 4.33,12 5.97,12 L11,12 L11,13 C11,14.104 10.104,15 9,15 L7,15 L7,16 L11.8,16 L16.195,12.472 Z M12.979,4.5 C12.979,3.009 11.869,1.8 10.5,1.8 C9.131,1.8 8.021,3.009 8.021,4.5 C8.021,5.991 9.131,7.2 10.5,7.2 C11.869,7.2 12.979,5.991 12.979,4.5 Z M2,9 L19,9 L19,0 L2,0 L2,9 Z" id="Page-1" fill="#4A5D68"></path>
    </g>
</svg>