<?xml version="1.0" encoding="UTF-8"?>
<svg width="22px" height="22px" viewBox="0 0 22 22" version="1.1" xmlns="http://www.w3.org/2000/svg" xmlns:xlink="http://www.w3.org/1999/xlink">
    <!-- Generator: Sketch 49.3 (51167) - http://www.bohemiancoding.com/sketch -->
    <title>Glyph/ Edit</title>
    <desc>Created with Sketch.</desc>
    <defs>
        <polygon id="path-1" points="6.6057 0 0 0 0 6.6058 6.6057 6.6058 6.6057 0"></polygon>
    </defs>
    <g id="Glyph/-Edit" stroke="none" stroke-width="1" fill="none" fill-rule="evenodd">
        <g id="Page-1">
            <g id="Group-3" transform="translate(2.000000, 2.000000)" fill="#616974">
                <path d="M16.1289,16.1289 C15.9339,16.3239 15.6779,16.4219 15.4219,16.4219 C15.1659,16.4219 14.9099,16.3239 14.7149,16.1289 L4.2149,5.6289 C3.8239,5.2379 3.8239,4.6059 4.2149,4.2149 C4.6059,3.8239 5.2379,3.8239 5.6289,4.2149 L16.1289,14.7149 C16.5199,15.1059 16.5199,15.7379 16.1289,16.1289 M19.7069,18.2929 L18.9999,17.5859 L18.9999,14.6029 L5.2309,0.8329 L0.8329,5.2309 L14.6029,18.9999 L17.5859,18.9999 L18.2929,19.7069 C18.4879,19.9019 18.7439,19.9999 18.9999,19.9999 C19.2559,19.9999 19.5119,19.9019 19.7069,19.7069 C20.0979,19.3169 20.0979,18.6839 19.7069,18.2929" id="Fill-1"></path>
            </g>
            <g id="Group-6">
                <mask id="mask-2" fill="white">
                    <use xlink:href="#path-1"></use>
                </mask>
                <g id="Clip-5"></g>
                <path d="M5.1387,0.6338 C4.7317,0.2258 4.1897,-0.0002 3.6127,-0.0002 L3.6117,-0.0002 C3.0347,-0.0002 2.4927,0.2248 2.0837,0.6328 L0.6327,2.0838 C0.2247,2.4918 -0.0003,3.0348 -0.0003,3.6128 C-0.0003,4.1898 0.2257,4.7318 0.6317,5.1378 L2.0987,6.6058 L6.6057,2.0988 L5.1387,0.6338 Z" id="Fill-4" fill="#616974" mask="url(#mask-2)"></path>
            </g>
        </g>
    </g>
</svg>