<?xml version="1.0" encoding="UTF-8"?>
<svg width="23px" height="23px" viewBox="0 0 23 23" version="1.1" xmlns="http://www.w3.org/2000/svg" xmlns:xlink="http://www.w3.org/1999/xlink">
    <!-- Generator: Sketch 49.3 (51167) - http://www.bohemiancoding.com/sketch -->
    <title>Glyph/ Email</title>
    <desc>Created with Sketch.</desc>
    <defs></defs>
    <g id="Glyph/-Email" stroke="none" stroke-width="1" fill="none" fill-rule="evenodd">
        <path d="M13.6719032,11.6220215 C13.5179032,12.5630215 13.0459032,13.3900215 12.3399032,13.9490215 C11.6619032,14.4870215 10.8469032,14.7120215 10.0499032,14.5810215 C9.25090321,14.4510215 8.55090321,13.9800215 8.07990321,13.2550215 C7.58890321,12.5000215 7.40290321,11.5660215 7.55690321,10.6250215 C7.71090321,9.68402152 8.18290321,8.85702152 8.88890321,8.29802152 C9.44090321,7.85902152 10.0819032,7.63002152 10.7329032,7.63002152 C10.8809032,7.63002152 11.0299032,7.64202152 11.1779032,7.66602152 C12.8639032,7.94102152 13.9829032,9.71602152 13.6719032,11.6220215 M13.2579032,0.227021518 C9.63090321,-0.496978482 6.04190321,0.529021518 3.40890321,3.04302152 C0.775903207,5.55502152 -0.418096793,9.07802152 0.130903207,12.7110215 C0.850903207,17.4760215 4.69390321,21.2550215 9.47690321,21.8990215 C9.99290321,21.9690215 10.5059032,22.0030215 11.0159032,22.0030215 C13.0289032,22.0030215 14.9719032,21.4630215 16.7049032,20.4090215 L15.6669032,18.7000215 C13.8899032,19.7790215 11.8429032,20.2000215 9.74390321,19.9170215 C5.83690321,19.3910215 2.69590321,16.3050215 2.10890321,12.4120215 C1.65790321,9.43302152 2.63490321,6.54502152 4.78990321,4.49002152 C6.94490321,2.43302152 9.88690321,1.59602152 12.8669032,2.18802152 C16.7139032,2.95602152 20.0479032,7.11502152 20.0009032,11.0900215 C19.9839032,12.5430215 19.5209032,13.6220215 18.7309032,14.0500215 C18.0399032,14.4220215 17.1219032,14.3050215 16.2129032,13.7260215 C15.8989032,13.5260215 15.7299032,13.1550215 15.7719032,12.8470215 L16.9799032,7.11702152 L15.0229032,6.70502152 L14.7829032,7.84802152 C14.0319032,6.72602152 12.8799032,5.91702152 11.5009032,5.69102152 C10.1369032,5.47002152 8.76990321,5.83902152 7.64590321,6.73002152 C6.54890321,7.60102152 5.81690321,8.86902152 5.58290321,10.3030215 C5.34890321,11.7360215 5.64090321,13.1720215 6.40290321,14.3460215 C7.18590321,15.5490215 8.36590321,16.3330215 9.72790321,16.5560215 C9.98690321,16.5980215 10.2459032,16.6180215 10.5029032,16.6180215 C11.6009032,16.6180215 12.6719032,16.2390215 13.5829032,15.5170215 C13.8819032,15.2790215 14.1479032,15.0080215 14.3899032,14.7160215 C14.5949032,14.9850215 14.8429032,15.2250215 15.1379032,15.4130215 C16.6789032,16.3930215 18.3349032,16.5350215 19.6829032,15.8090215 C20.5329032,15.3490215 21.9649032,14.1260215 22.0009032,11.1130215 C22.0599032,6.16902152 18.0559032,1.18402152 13.2579032,0.227021518" id="Fill-1" fill="#616974"></path>
    </g>
</svg>