<?xml version="1.0" encoding="UTF-8"?>
<svg width="22px" height="22px" viewBox="0 0 22 22" version="1.1" xmlns="http://www.w3.org/2000/svg" xmlns:xlink="http://www.w3.org/1999/xlink">
    <!-- Generator: Sketch 49.3 (51167) - http://www.bohemiancoding.com/sketch -->
    <title>Glyph/ Employment expenses</title>
    <desc>Created with Sketch.</desc>
    <defs>
        <polygon id="path-1" points="0 22 22 22 22 0 0 0"></polygon>
    </defs>
    <g id="Glyph/-Employment-expenses" stroke="none" stroke-width="1" fill="none" fill-rule="evenodd">
        <g id="Page-1">
            <path d="M17.0498,12.2998 C15.5198,12.8698 14.8098,14.1198 14.8098,15.2098 C14.8098,15.8898 15.0098,16.4798 15.4198,16.9998 L1.9998,16.9998 C1.4498,16.9998 0.9998,16.5498 0.9998,15.9998 L0.9998,8.9998 L3.9998,8.9998 L3.9998,10.4998 C3.9998,10.7798 4.2198,10.9998 4.4998,10.9998 L5.4998,10.9998 C5.7798,10.9998 5.9998,10.7798 5.9998,10.4998 L5.9998,8.9998 L13.9998,8.9998 L13.9998,10.4998 C13.9998,10.7798 14.2198,10.9998 14.4998,10.9998 L15.4998,10.9998 C15.7798,10.9998 15.9998,10.7798 15.9998,10.4998 L15.9998,8.9998 L18.9998,8.9998 L18.9998,10.7998 L18.5198,10.7998 C17.7098,10.7998 17.0498,11.4398 17.0498,12.2198 L17.0498,12.2998 Z" id="Fill-1" fill="#616974"></path>
            <mask id="mask-2" fill="white">
                <use xlink:href="#path-1"></use>
            </mask>
            <g id="Clip-4"></g>
            <path d="M9,3 L11,3 L11,2 L9,2 L9,3 Z M4,8 L4,7.5 C4,7.22 4.22,7 4.5,7 L5.5,7 C5.78,7 6,7.22 6,7.5 L6,8 L14,8 L14,7.5 C14,7.22 14.22,7 14.5,7 L15.5,7 C15.78,7 16,7.22 16,7.5 L16,8 L19,8 C19.55,8 20,7.55 20,7 L20,4 C20,3.45 19.55,3 19,3 L13,3 L13,1 C13,0.45 12.55,0 12,0 L8,0 C7.45,0 7,0.45 7,1 L7,3 L1,3 C0.45,3 0,3.45 0,4 L0,7 C0,7.55 0.45,8 1,8 L4,8 Z" id="Fill-3" fill="#616974" mask="url(#mask-2)"></path>
            <path d="M19.2764,16.313 C18.2254,15.964 17.7384,15.626 17.7384,15.13 C17.7384,14.792 18.1364,14.391 18.8764,14.391 C19.5884,14.391 20.5734,14.919 20.6764,14.972 C20.8324,15.056 21.0254,14.972 21.1294,14.845 L21.6224,14.243 C21.7124,14.138 21.7064,13.958 21.5774,13.895 C21.3674,13.767 20.4814,13.388 19.7364,13.245 L19.7364,12.22 C19.7364,12.098 19.5674,12 19.4404,12 L18.5234,12 C18.3964,12 18.2464,12.098 18.2464,12.22 L18.2464,13.23 C16.7554,13.435 16.0084,14.382 16.0084,15.215 C16.0084,16.461 17.2394,17.095 18.4584,17.496 C19.5474,17.855 20.1114,18.225 20.1114,18.763 C20.1114,19.217 19.6084,19.576 18.9344,19.576 C18.0914,19.576 17.0434,18.953 16.9774,18.922 C16.8614,18.848 16.6414,18.848 16.5384,18.996 L16.0714,19.65 C15.9554,19.819 15.9914,19.872 16.1074,19.967 C16.3284,20.138 16.7554,20.609 18.2464,20.749 L18.2464,21.89 C18.2464,22.011 18.4054,22 18.5324,22 L19.4494,22 C19.5764,22 19.7364,22.011 19.7364,21.89 L19.7364,20.739 C21.2264,20.522 22.0004,19.644 22.0004,18.7 C22.0004,17.337 20.5334,16.725 19.2764,16.313" id="Fill-5" fill="#616974" mask="url(#mask-2)"></path>
        </g>
    </g>
</svg>