<?xml version="1.0" encoding="UTF-8"?>
<svg width="14px" height="22px" viewBox="0 0 14 22" version="1.1" xmlns="http://www.w3.org/2000/svg" xmlns:xlink="http://www.w3.org/1999/xlink">
    <!-- Generator: Sketch 49.3 (51167) - http://www.bohemiancoding.com/sketch -->
    <title>Glyph/ Estimate paid</title>
    <desc>Created with Sketch.</desc>
    <defs></defs>
    <g id="Glyph/-Estimate-paid" stroke="none" stroke-width="1" fill="none" fill-rule="evenodd">
        <path d="M6.25,7.25 C6.058,7.25 5.866,7.177 5.72,7.03 L3.72,5.03 L4.78,3.97 L6.25,5.439 L9.22,2.47 L10.28,3.53 L6.78,7.03 C6.634,7.177 6.442,7.25 6.25,7.25 Z M2,8 L12,8 L12,2 L2,2 L2,8 Z M10,12 L12,12 L12,10 L10,10 L10,12 Z M10,16 L12,16 L12,14 L10,14 L10,16 Z M10,20 L12,20 L12,18 L10,18 L10,20 Z M6,12 L8,12 L8,10 L6,10 L6,12 Z M6,16 L8,16 L8,14 L6,14 L6,16 Z M6,20 L8,20 L8,18 L6,18 L6,20 Z M2,12 L4,12 L4,10 L2,10 L2,12 Z M2,16 L4,16 L4,14 L2,14 L2,16 Z M2,20 L4,20 L4,18 L2,18 L2,20 Z M13,0 L1,0 C0.447,0 0,0.448 0,1 L0,21 C0,21.552 0.447,22 1,22 L13,22 C13.553,22 14,21.552 14,21 L14,1 C14,0.448 13.553,0 13,0 Z" id="Page-1" fill="#616974"></path>
    </g>
</svg>