<?xml version="1.0" encoding="UTF-8"?>
<svg width="18px" height="23px" viewBox="0 0 18 23" version="1.1" xmlns="http://www.w3.org/2000/svg" xmlns:xlink="http://www.w3.org/1999/xlink">
    <!-- Generator: Sketch 49.3 (51167) - http://www.bohemiancoding.com/sketch -->
    <title>Glyph/ federal income</title>
    <desc>Created with Sketch.</desc>
    <defs></defs>
    <g id="Glyph/-federal-income" stroke="none" stroke-width="1" fill="none" fill-rule="evenodd">
        <path d="M10,20.0029 L14,20.0029 L14,13.0029 L10,13.0029 L10,20.0029 Z M4,20.0029 L8,20.0029 L8,13.0029 L4,13.0029 L4,20.0029 Z M18,13.0029036 L18,11.0029044 L15.92,11.0029044 C15.479,7.94390564 13.059,5.52390661 10,5.08290679 L10,3.39290747 C11,3.66290736 11.73,4.39290707 13.43,3.76290732 C13.562,3.69790735 14,3.41290746 14,3.41290746 L14,0.872908482 C14.016,0.696908552 13.876,0.541908615 13.688,0.52790862 C13.643,0.523908622 13.596,0.52890862 13.552,0.542908614 C10.952,1.30290831 10.494,-0.787090852 8,0.342908695 L8,5.08290679 C4.941,5.52390661 2.521,7.94390564 2.08,11.0029044 L0,11.0029044 L0,13.0029036 L2,13.0029036 L2,20.0029008 L0,20.0029008 L0,22.0029 L18,22.0029 L18,20.0029008 L16,20.0029008 L16,13.0029036 L18,13.0029036 Z" id="Page-1" fill="#4A5D68"></path>
    </g>
</svg>