<?xml version="1.0" encoding="UTF-8"?>
<svg width="24px" height="24px" viewBox="0 0 24 24" version="1.1" xmlns="http://www.w3.org/2000/svg" xmlns:xlink="http://www.w3.org/1999/xlink">
    <!-- Generator: Sketch 49.3 (51167) - http://www.bohemiancoding.com/sketch -->
    <title>Glyph/ Fleurs-de-lys</title>
    <desc>Created with Sketch.</desc>
    <defs></defs>
    <g id="Glyph/-Fleurs-de-lys" stroke="none" stroke-width="1" fill="none" fill-rule="evenodd">
        <path d="M17.9780888,16.32 C18.3700947,15.744 18.3455943,14.496 17.5615827,14.04 C16.9490735,13.752 16.2875637,13.872 15.969059,14.112 C15.4545513,14.424 14.9645441,15.384 14.9645441,16.368 L16.7285703,16.368 L16.7285703,18.312 L13.0535157,18.312 C13.1025164,19.296 13.6660248,20.112 14.6950401,20.544 C14.5725382,20.952 13.9355288,21.816 13.078016,21.768 C12.9065135,22.68 12.7595113,23.184 11.9754996,24 C11.2159883,23.184 11.0444858,22.68 10.8729833,21.768 C10.0154705,21.816 9.4029614,20.976 9.25595922,20.544 C10.2849745,20.112 10.8484829,19.296 10.8974836,18.312 L7.222429,18.312 L7.222429,16.368 L8.98645521,16.368 C8.98645521,15.384 8.49644793,14.424 7.98194029,14.112 C7.66343555,13.848 6.97742536,13.752 6.38941662,14.04 C5.60540497,14.472 5.55640424,15.744 5.97291043,16.32 C2.24885509,15.648 2.61636055,12.12 3.89037948,10.848 C4.91939477,9.816 6.02191116,9.648 6.90392427,9.984 C8.86395339,10.68 10.1869731,12.96 10.2359738,16.392 L11.2649891,16.392 C11.2649891,13.272 10.7014807,12.288 9.28045958,8.376 C8.54544866,6.528 8.98645521,4.248 10.2849745,2.16 C10.7504814,1.416 11.3384902,0.72 12,0 C12.6615098,0.72 13.2495186,1.416 13.7150255,2.16 C15.0135448,4.272 15.4545513,6.552 14.7195404,8.376 C13.2740189,12.288 12.7350109,13.272 12.7350109,16.392 L13.7640262,16.392 C13.8375273,12.984 15.1360466,10.68 17.0960757,9.984 C17.9535885,9.648 19.0806052,9.816 20.1096205,10.848 C21.3836395,12.12 21.7511449,15.648 18.0270896,16.32 L17.9780888,16.32 Z" id="Fleurs-de-lys" fill="#396598" fill-rule="nonzero"></path>
    </g>
</svg>