<?xml version="1.0" encoding="UTF-8"?>
<svg width="22px" height="22px" viewBox="0 0 22 22" version="1.1" xmlns="http://www.w3.org/2000/svg" xmlns:xlink="http://www.w3.org/1999/xlink">
    <!-- Generator: Sketch 49.3 (51167) - http://www.bohemiancoding.com/sketch -->
    <title>Glyph/ Gambling</title>
    <desc>Created with Sketch.</desc>
    <defs></defs>
    <g id="Glyph/-Gambling" stroke="none" stroke-width="1" fill="none" fill-rule="evenodd">
        <g id="Page-1" fill="#616974">
            <g id="Group-3">
                <path d="M8.8428,19.8999 L9.0938,18.0729 C9.7028,18.2369 10.3398,18.3339 10.9998,18.3339 C11.9748,18.3339 12.9048,18.1379 13.7568,17.7909 L14.0708,19.6269 C13.1088,19.9699 12.0778,20.1669 10.9998,20.1669 C10.2558,20.1669 9.5358,20.0679 8.8428,19.8999 Z M5.1168,3.9799 L6.6108,5.1399 C5.3228,6.1069 4.3648,7.4839 3.9308,9.0789 L2.2048,8.4379 C2.7188,6.6749 3.7458,5.1299 5.1168,3.9799 Z M13.5358,2.1979 L13.2868,4.0369 C12.5658,3.7989 11.7988,3.6669 10.9998,3.6669 C10.1708,3.6669 9.3768,3.8119 8.6338,4.0659 L8.3188,2.2349 C9.1668,1.9749 10.0668,1.8339 10.9998,1.8339 C11.8808,1.8339 12.7298,1.9649 13.5358,2.1979 Z M19.7598,8.3019 L18.0498,9.0019 C17.5998,7.4169 16.6298,6.0529 15.3358,5.0989 L16.7818,3.8949 C18.1688,5.0249 19.2198,6.5519 19.7598,8.3019 Z M18.2978,11.6999 L20.0558,12.3489 C19.7738,14.2509 18.9098,15.9619 17.6448,17.2959 L16.1938,16.1709 C17.3608,14.9999 18.1328,13.4379 18.2978,11.6999 Z M5.4998,10.9999 C5.4998,7.9669 7.9678,5.4999 10.9998,5.4999 C14.0328,5.4999 16.4998,7.9669 16.4998,10.9999 C16.4998,14.0329 14.0328,16.4999 10.9998,16.4999 C7.9678,16.4999 5.4998,14.0329 5.4998,10.9999 Z M4.4638,17.4159 C3.1718,16.0999 2.2808,14.3959 1.9668,12.4989 L3.7108,11.7879 C3.8978,13.5249 4.6938,15.0809 5.8798,16.2399 L4.4638,17.4159 Z M10.9998,-0.0001 C4.9348,-0.0001 -0.0002,4.9349 -0.0002,10.9999 C-0.0002,17.0659 4.9348,21.9999 10.9998,21.9999 C17.0658,21.9999 21.9998,17.0659 21.9998,10.9999 C21.9998,4.9349 17.0658,-0.0001 10.9998,-0.0001 Z" id="Fill-1"></path>
            </g>
            <path d="M9.437,14.6665 L12.562,14.6665 C11.456,13.8275 11.348,12.2105 11.348,12.2105 L11.996,12.9045 C12.61,13.5295 13.608,13.5295 14.225,12.9045 C14.841,12.2765 14.841,11.2595 14.225,10.6335 L13.754,10.1355 L10.995,7.3335 L8.242,10.1355 L7.774,10.6335 C7.161,11.2595 7.158,12.2765 7.774,12.9045 C8.391,13.5295 9.389,13.5295 10.003,12.9045 L10.651,12.2105 C10.651,12.2105 10.543,13.8275 9.437,14.6665" id="Fill-4"></path>
        </g>
    </g>
</svg>