<?xml version="1.0" encoding="UTF-8"?>
<svg width="22px" height="22px" viewBox="0 0 22 22" version="1.1" xmlns="http://www.w3.org/2000/svg" xmlns:xlink="http://www.w3.org/1999/xlink">
    <!-- Generator: Sketch 49.3 (51167) - http://www.bohemiancoding.com/sketch -->
    <title>Glyph/ goal</title>
    <desc>Created with Sketch.</desc>
    <defs>
        <polygon id="path-1" points="11.91405 0 21.914 0 21.914 22 0 22 0 0 11.91405 0 1.9141 0 1.9141 20 21.9141 20 21.9141 0"></polygon>
    </defs>
    <g id="Glyph/-goal" stroke="none" stroke-width="1" fill="none" fill-rule="evenodd">
        <g id="Page-1">
            <g id="Group-3">
                <mask id="mask-2" fill="white">
                    <use xlink:href="#path-1"></use>
                </mask>
                <g id="Clip-2"></g>
                <path d="M11.9141,0 C6.4041,0 1.9141,4.49 1.9141,10 C1.9141,10.848 2.0191,11.668 2.2201,12.454 L4.5941,13.21 C4.1541,12.22 3.9141,11.14 3.9141,10 C3.9141,5.59 7.5041,2 11.9141,2 C16.3241,2 19.9141,5.59 19.9141,10 C19.9141,14.41 16.3241,18 11.9141,18 C10.7941,18 9.7341,17.77 8.7641,17.35 L9.4861,19.701 C10.2651,19.894 11.0781,20 11.9141,20 C17.4241,20 21.9141,15.51 21.9141,10 C21.9141,4.49 17.4241,0 11.9141,0" id="Fill-1" fill="#4A5D68" mask="url(#mask-2)"></path>
            </g>
            <path d="M11.9141,14 C11.6841,14 11.4541,13.98 11.2341,13.94 L9.6241,15.55 C10.3341,15.84 11.1041,16 11.9141,16 C15.2241,16 17.9141,13.31 17.9141,10 C17.9141,6.69 15.2241,4 11.9141,4 C8.6041,4 5.9141,6.69 5.9141,10 C5.9141,10.81 6.0741,11.58 6.3641,12.29 L7.9741,10.68 C7.9341,10.46 7.9141,10.23 7.9141,10 C7.9141,7.79 9.7041,6 11.9141,6 C14.1241,6 15.9141,7.79 15.9141,10 C15.9141,12.21 14.1241,14 11.9141,14" id="Fill-4" fill="#4A5D68"></path>
            <path d="M11.4023,11.9258 C11.5663,11.9688 11.7363,11.9998 11.9143,11.9998 C13.0183,11.9998 13.9143,11.1048 13.9143,9.9998 C13.9143,8.8958 13.0183,7.9998 11.9143,7.9998 C10.8093,7.9998 9.9143,8.8958 9.9143,9.9998 C9.9143,10.1778 9.9443,10.3468 9.9883,10.5118 L5.6143,14.8858 L3.0003,14.0858 L0.0003,17.0858 L2.3793,18.1208 L1.2073,19.2928 C0.8163,19.6838 0.8163,20.3168 1.2073,20.7068 C1.4023,20.9028 1.6583,20.9998 1.9143,20.9998 C2.1703,20.9998 2.4253,20.9028 2.6213,20.7068 L3.8103,19.5178 L4.9143,21.9998 L7.9143,18.9998 L7.0733,16.2548 L11.4023,11.9258 Z" id="Fill-6" fill="#4A5D68"></path>
        </g>
    </g>
</svg>