<?xml version="1.0" encoding="UTF-8"?>
<svg width="22px" height="18px" viewBox="0 0 22 18" version="1.1" xmlns="http://www.w3.org/2000/svg" xmlns:xlink="http://www.w3.org/1999/xlink">
    <!-- Generator: Sketch 49.3 (51167) - http://www.bohemiancoding.com/sketch -->
    <title>Glyph/ group</title>
    <desc>Created with Sketch.</desc>
    <defs>
        <polygon id="path-1" points="8.88164867e-16 17.9997 8.88164867e-16 0 21.9998 0 21.9998 17.9997"></polygon>
    </defs>
    <g id="Glyph/-group" stroke="none" stroke-width="1" fill="none" fill-rule="evenodd">
        <g id="Page-1">
            <mask id="mask-2" fill="white">
                <use xlink:href="#path-1"></use>
            </mask>
            <g id="Clip-2"></g>
            <path d="M15.0098,5.4697 C15.4198,5.7997 15.9398,5.9997 16.4998,5.9997 C17.7998,5.9997 18.8598,4.9397 18.8598,3.6397 L18.8598,2.3597 C18.8598,1.7097 18.5998,1.1197 18.1698,0.6897 C17.7398,0.2597 17.1498,-0.0003 16.4998,-0.0003 C15.1998,-0.0003 14.1398,1.0597 14.1398,2.3597 L14.1398,3.6397 C14.1398,3.8097 14.1598,3.9797 14.1898,4.1297 C14.3098,4.6697 14.5998,5.1297 15.0098,5.4697 M19.7498,6.2697 C19.5598,6.2197 19.3698,6.1797 19.1798,6.1397 L19.1698,6.1397 C18.4998,6.8497 17.5498,7.2997 16.4998,7.2997 C16.0898,7.2997 15.6898,7.2297 15.2998,7.0997 L15.2998,7.9997 C15.2998,8.1697 15.2898,8.3297 15.2698,8.4997 C15.2498,8.6597 15.2198,8.8097 15.1898,8.9597 C15.1798,8.9797 15.1798,8.9907 15.1698,9.0097 C15.1398,9.1697 15.0898,9.3197 15.0308,9.4697 C14.9798,9.6297 14.9098,9.7797 14.8298,9.9297 L14.8398,9.9297 C15.0398,9.9697 15.2298,9.9997 15.4298,10.0497 C16.6198,10.2897 17.6298,10.9297 18.3098,11.8097 C19.5498,11.5397 20.7398,11.0097 21.7808,10.1897 L21.9998,10.0197 L21.9998,9.0897 C21.9698,7.7097 21.0398,6.5497 19.7498,6.2697 M5.4998,5.9997 C6.0598,5.9997 6.5798,5.7997 6.9898,5.4697 C7.3998,5.1297 7.6898,4.6697 7.8098,4.1297 C7.8398,3.9797 7.8598,3.8097 7.8598,3.6397 L7.8598,2.3597 C7.8598,1.7097 7.5998,1.1197 7.1698,0.6897 C6.7398,0.2597 6.1498,-0.0003 5.4998,-0.0003 C4.1998,-0.0003 3.1398,1.0597 3.1398,2.3597 L3.1398,3.6397 C3.1398,4.9397 4.1998,5.9997 5.4998,5.9997 M6.6298,10.0397 C6.8098,9.9997 6.9798,9.9597 7.1598,9.9297 L7.1698,9.9297 C7.0898,9.7797 7.0198,9.6297 6.9698,9.4697 C6.9098,9.3197 6.8598,9.1697 6.8298,9.0097 C6.8198,8.9907 6.8198,8.9797 6.8098,8.9597 C6.7808,8.8097 6.7498,8.6597 6.7298,8.4997 C6.7098,8.3297 6.6998,8.1697 6.6998,7.9997 L6.6998,7.0997 C6.3098,7.2297 5.9098,7.2997 5.4998,7.2997 C4.4498,7.2997 3.4998,6.8497 2.8298,6.1397 C2.6398,6.1797 2.4498,6.2297 2.2598,6.2697 C0.9598,6.5497 0.0308,7.7097 -0.0002,9.0997 L-0.0002,10.0197 L0.2198,10.1897 C1.2698,11.0097 2.4698,11.5497 3.7198,11.8097 C4.4098,10.9197 5.4298,10.2797 6.6298,10.0397 M10.9998,10.9997 C12.6568,10.9997 13.9998,9.6567 13.9998,7.9997 L13.9998,6.9997 C13.9998,5.3437 12.6568,3.9997 10.9998,3.9997 C9.3428,3.9997 7.9998,5.3437 7.9998,6.9997 L7.9998,7.9997 C7.9998,9.6567 9.3428,10.9997 10.9998,10.9997 M17.9998,14.5997 L17.9998,15.6897 L17.7198,15.8897 C15.7398,17.2997 13.3698,17.9997 10.9998,17.9997 C8.6298,17.9997 6.2598,17.2997 4.2808,15.8897 L3.9998,15.6897 L3.9998,14.6197 C4.0398,12.9997 5.2198,11.6397 6.8798,11.3097 C7.2808,11.2297 7.6598,11.1597 8.0308,11.0997 C8.7998,11.8497 9.8498,12.2997 10.9998,12.2997 C12.1498,12.2997 13.2098,11.8397 13.9798,11.0997 C14.3698,11.1497 14.7498,11.2197 15.1398,11.3097 C16.7808,11.6397 17.9598,12.9997 17.9998,14.5997" id="Fill-1" fill="#4A5D68" mask="url(#mask-2)"></path>
        </g>
    </g>
</svg>