<?xml version="1.0" encoding="UTF-8"?>
<svg width="22px" height="22px" viewBox="0 0 22 22" version="1.1" xmlns="http://www.w3.org/2000/svg" xmlns:xlink="http://www.w3.org/1999/xlink">
    <!-- Generator: Sketch 49.3 (51167) - http://www.bohemiancoding.com/sketch -->
    <title>Glyph/ Help</title>
    <desc>Created with Sketch.</desc>
    <defs>
        <polygon id="path-1" points="14 -0.0004 14 13.9996 0.0004 13.9996 0.0004 -0.0004"></polygon>
    </defs>
    <g id="Glyph/-Help" stroke="none" stroke-width="1" fill="none" fill-rule="evenodd">
        <g id="Page-1">
            <g id="Group-3" fill="#616974">
                <path d="M6.2021,9.2627 L5.6961,8.7687 L5.6921,8.7737 L2.6341,5.9597 L3.8931,4.5477 L6.1271,6.6147 L10.6361,1.9297 L11.9891,3.2507 L6.2021,9.2627 Z M15.0001,6.9997 L15.0001,-0.0003 L2.0501,-0.0003 C0.9201,-0.0003 0.0001,0.8697 0.0001,1.9407 L0.0001,16.0797 L4.5301,11.9997 L7.5901,11.9997 C8.7801,9.0707 11.6501,6.9997 15.0001,6.9997 Z" id="Fill-1"></path>
            </g>
            <g id="Group-6" transform="translate(8.000000, 8.000000)">
                <mask id="mask-2" fill="white">
                    <use xlink:href="#path-1"></use>
                </mask>
                <g id="Clip-5"></g>
                <path d="M8.0464,7.5566 C7.9704,7.5836 7.9344,7.6196 7.9264,7.6296 L7.9404,8.9996 L5.9404,8.9996 L5.9404,7.5776 C5.9404,6.7376 6.4984,5.9916 7.3624,5.6776 C7.7374,5.5406 8.0754,5.1936 7.9854,4.7246 C7.9204,4.3866 7.5644,4.0826 7.1564,4.0176 C6.7904,3.9586 6.4354,4.0506 6.1804,4.2676 C6.0684,4.3636 5.8794,4.5696 5.8794,4.8746 L3.8794,4.8746 C3.8794,4.0656 4.2454,3.2896 4.8824,2.7456 C5.5834,2.1486 6.5264,1.8936 7.4714,2.0426 C8.7064,2.2396 9.7254,3.1866 9.9494,4.3456 C10.2124,5.7086 9.4114,7.0596 8.0464,7.5566 M7.0004,12.3906 C6.2394,12.3906 5.6204,11.7666 5.6204,10.9996 C5.6204,10.2336 6.2394,9.6096 7.0004,9.6096 C7.7604,9.6096 8.3794,10.2336 8.3794,10.9996 C8.3794,11.7666 7.7604,12.3906 7.0004,12.3906 M7.0004,-0.0004 C3.1404,-0.0004 0.0004,3.1406 0.0004,6.9996 C0.0004,10.8596 3.1404,13.9996 7.0004,13.9996 C10.8594,13.9996 14.0004,10.8596 14.0004,6.9996 C14.0004,3.1406 10.8594,-0.0004 7.0004,-0.0004" id="Fill-4" fill="#616974" mask="url(#mask-2)"></path>
            </g>
        </g>
    </g>
</svg>