<?xml version="1.0" encoding="UTF-8"?>
<svg width="18px" height="22px" viewBox="0 0 18 22" version="1.1" xmlns="http://www.w3.org/2000/svg" xmlns:xlink="http://www.w3.org/1999/xlink">
    <!-- Generator: Sketch 49.3 (51167) - http://www.bohemiancoding.com/sketch -->
    <title>Glyph/ Hold Steady</title>
    <desc>Created with Sketch.</desc>
    <defs></defs>
    <g id="Glyph/-Hold-Steady" stroke="none" stroke-width="1" fill="none" fill-rule="evenodd">
        <g id="Page-1" fill="#616974">
            <path d="M5,15 L13,15 L13,5 L5,5 L5,15 Z M9,18 C8.448,18 8,17.553 8,17 C8,16.447 8.448,16 9,16 C9.552,16 10,16.447 10,17 C10,17.553 9.552,18 9,18 Z M15,18 L15,4 C15,3.447 14.552,3 14,3 L4,3 C3.448,3 3,3.447 3,4 L3,18 C3,18.553 3.448,19 4,19 L14,19 C14.552,19 15,18.553 15,18 Z" id="Fill-1"></path>
            <path d="M2,3.5 C2,2.673 2.673,2 3.5,2 L4,2 L4,0 L3.5,0 C1.57,0 0,1.57 0,3.5 L0,4 L2,4 L2,3.5 Z" id="Fill-3"></path>
            <path d="M2,18.5 L2,18 L0,18 L0,18.5 C0,20.43 1.57,22 3.5,22 L4,22 L4,20 L3.5,20 C2.673,20 2,19.327 2,18.5" id="Fill-4"></path>
            <path d="M16,18.5 C16,19.327 15.327,20 14.5,20 L14,20 L14,22 L14.5,22 C16.43,22 18,20.43 18,18.5 L18,18 L16,18 L16,18.5 Z" id="Fill-5"></path>
            <path d="M14.5,0 L14,0 L14,2 L14.5,2 C15.327,2 16,2.673 16,3.5 L16,4 L18,4 L18,3.5 C18,1.57 16.43,0 14.5,0" id="Fill-6"></path>
        </g>
    </g>
</svg>