<?xml version="1.0" encoding="UTF-8"?>
<svg width="22px" height="22px" viewBox="0 0 22 22" version="1.1" xmlns="http://www.w3.org/2000/svg" xmlns:xlink="http://www.w3.org/1999/xlink">
    <!-- Generator: Sketch 49.3 (51167) - http://www.bohemiancoding.com/sketch -->
    <title>Glyph/ home</title>
    <desc>Created with Sketch.</desc>
    <defs>
        <polygon id="path-1" points="21.338 5.3716 21.338 0 0 0 0 5.3716 0 10.7432 21.338 10.7432"></polygon>
    </defs>
    <g id="Glyph/-home" stroke="none" stroke-width="1" fill="none" fill-rule="evenodd">
        <g id="Page-1">
            <g id="Group-3" transform="translate(0.000000, 0.000200)">
                <mask id="mask-2" fill="white">
                    <use xlink:href="#path-1"></use>
                </mask>
                <g id="Clip-2"></g>
                <path d="M20,10.7432 L10.669,2.3452 L1.338,10.7432 L0,9.2572 L10,0.2572 C10.381,-0.0858 10.957,-0.0858 11.338,0.2572 L21.338,9.2572 L20,10.7432 Z" id="Fill-1" fill="#4A5D68" mask="url(#mask-2)"></path>
            </g>
            <g id="Group-6" transform="translate(3.000000, 4.000200)" fill="#4A5D68">
                <path d="M14.6689,6.3901 L14.6689,17.0001 C14.6689,17.5501 14.2189,18.0001 13.6689,18.0001 L9.6689,18.0001 L9.6689,13.0001 L5.6689,13.0001 L5.6689,18.0001 L1.6689,18.0001 C1.1189,18.0001 0.6689,17.5501 0.6689,17.0001 L0.6689,6.3901 L7.6689,0.0901 L14.6689,6.3901 Z" id="Fill-4"></path>
            </g>
        </g>
    </g>
</svg>