<?xml version="1.0" encoding="UTF-8"?>
<svg width="22px" height="22px" viewBox="0 0 22 22" version="1.1" xmlns="http://www.w3.org/2000/svg" xmlns:xlink="http://www.w3.org/1999/xlink">
    <!-- Generator: Sketch 49.3 (51167) - http://www.bohemiancoding.com/sketch -->
    <title>Glyph/ insurance</title>
    <desc>Created with Sketch.</desc>
    <defs>
        <polygon id="path-1" points="0 5.84695 0 0 21.861 0 21.861 5.84695 21.861 11.6939 0 11.6939"></polygon>
    </defs>
    <g id="Glyph/-insurance" stroke="none" stroke-width="1" fill="none" fill-rule="evenodd">
        <g id="Page-1">
            <g id="Group-3" transform="translate(9.000000, 12.000000)" fill="#4A5D68">
                <path d="M4.9619,6.0791 C4.4139,6.0791 3.9689,6.5171 3.9689,7.0591 C3.9689,7.6001 3.5249,8.0391 2.9769,8.0391 C2.4299,8.0391 1.9839,7.6001 1.9839,7.0591 L1.9839,1.2041 C1.4679,0.6241 0.7789,0.2001 -0.0001,0.0001 L-0.0001,7.0591 C-0.0001,8.6811 1.3349,10.0001 2.9769,10.0001 C4.6179,10.0001 5.9539,8.6811 5.9539,7.0591 C5.9539,6.5171 5.5099,6.0791 4.9619,6.0791" id="Fill-1"></path>
            </g>
            <g id="Group-6">
                <mask id="mask-2" fill="white">
                    <use xlink:href="#path-1"></use>
                </mask>
                <g id="Clip-5"></g>
                <path d="M12,2.0479 L12,0.9999 C12,0.4479 11.553,-0.0001 11,-0.0001 C10.447,-0.0001 10,0.4479 10,0.9999 L10,2.0389 C4.836,2.4309 0.684,6.0439 0,10.6559 C0.533,10.4489 1.12,10.3339 1.736,10.3339 C2.869,10.3339 3.897,10.7229 4.679,11.3579 C5.46,10.7229 6.489,10.3339 7.621,10.3339 C8.94,10.3339 10.122,10.8609 10.931,11.6939 C11.739,10.8609 12.921,10.3339 14.24,10.3339 C15.372,10.3339 16.401,10.7229 17.183,11.3579 C17.964,10.7229 18.992,10.3339 20.125,10.3339 C20.741,10.3339 21.328,10.4489 21.861,10.6559 C21.184,6.0849 17.1,2.4929 12,2.0479" id="Fill-4" fill="#4A5D68" mask="url(#mask-2)"></path>
            </g>
        </g>
    </g>
</svg>