<?xml version="1.0" encoding="UTF-8"?>
<svg width="22px" height="21px" viewBox="0 0 22 21" version="1.1" xmlns="http://www.w3.org/2000/svg" xmlns:xlink="http://www.w3.org/1999/xlink">
    <!-- Generator: Sketch 49.3 (51167) - http://www.bohemiancoding.com/sketch -->
    <title>Glyph/ like</title>
    <desc>Created with Sketch.</desc>
    <defs></defs>
    <g id="Glyph/-like" stroke="none" stroke-width="1" fill="none" fill-rule="evenodd">
        <path d="M0,21 L4,21 L4,10 L0,10 L0,21 Z M19.326,9 C20.574,9 21.517,10.13 21.293,11.358 L20.021,19.358 C19.848,20.309 19.02,21 18.053,21 L5,21 L5,10 C5,10 10,9.75 10,5 L10,0 L12,0 C13.657,0 15,1.343 15,3 L15,5.125 C15,7.016 14.762,7.984 14.518,8.479 C14.399,8.721 14.584,9 14.853,9 L19.326,9 Z" id="Page-1" fill="#4A5D68"></path>
    </g>
</svg>