<?xml version="1.0" encoding="UTF-8"?>
<svg width="20px" height="22px" viewBox="0 0 20 22" version="1.1" xmlns="http://www.w3.org/2000/svg" xmlns:xlink="http://www.w3.org/1999/xlink">
    <!-- Generator: Sketch 49.3 (51167) - http://www.bohemiancoding.com/sketch -->
    <title>Glyph/ loan</title>
    <desc>Created with Sketch.</desc>
    <defs>
        <polygon id="path-1" points="-0.0004 7 16.858 7 16.858 0.0001 -0.0004 0.0001"></polygon>
        <polygon id="path-3" points="0.986181704 3.55271368e-15 7.9995 3.55271368e-15 7.9995 12.999982 0.986181704 12.999982 0.986181704 0"></polygon>
    </defs>
    <g id="Glyph/-loan" stroke="none" stroke-width="1" fill="none" fill-rule="evenodd">
        <g id="Page-1">
            <polygon id="Fill-1" fill="#4A5D68" points="0 22 2 22 2 16 0 16"></polygon>
            <g id="Group-8" transform="translate(3.000000, 0.000000)">
                <g id="Group-4" transform="translate(0.000000, 15.000000)">
                    <mask id="mask-2" fill="white">
                        <use xlink:href="#path-1"></use>
                    </mask>
                    <g id="Clip-3"></g>
                    <path d="M15.6436,0.5181 C14.9336,-0.0539 13.9266,-0.0729 13.1946,0.4721 L8.7996,4.0001 L3.9996,4.0001 L3.9996,3.0001 L5.9996,3.0001 C7.1046,3.0001 7.9996,2.1041 7.9996,1.0001 L7.9996,0.0001 L2.9696,0.0001 C1.3296,0.0001 -0.0004,1.3301 -0.0004,2.9701 L-0.0004,7.0001 L10.0216,7.0001 C10.5106,7.0001 10.9836,6.8201 11.3496,6.4961 L16.8586,1.4931 L15.6436,0.5181 Z" id="Fill-2" fill="#4A5D68" mask="url(#mask-2)"></path>
                </g>
                <g id="Group-7" transform="translate(3.000000, 0.000000)">
                    <mask id="mask-4" fill="white">
                        <use xlink:href="#path-3"></use>
                    </mask>
                    <g id="Clip-6"></g>
                    <path d="M4.4165,9.8496 C3.4315,9.8496 2.2055,9.0386 2.1295,8.9976 C1.9935,8.9026 1.7365,8.9026 1.6155,9.0946 L1.0695,9.9456 C0.9335,10.1646 0.9755,10.2336 1.1125,10.3576 C1.3705,10.5786 1.8695,11.1926 3.6115,11.3736 L3.6115,12.8566 C3.6115,13.0146 3.7985,12.9996 3.9465,12.9996 L5.0185,12.9996 C5.1665,12.9996 5.3535,13.0146 5.3535,12.8566 L5.3535,11.3606 C7.0955,11.0786 7.9995,9.9366 7.9995,8.7096 C7.9995,6.9386 6.2855,6.1426 4.8155,5.6066 C3.5875,5.1536 3.0185,4.7146 3.0185,4.0696 C3.0185,3.6296 3.4845,3.1086 4.3485,3.1086 C5.1815,3.1086 6.3325,3.7946 6.4535,3.8636 C6.6345,3.9736 6.8605,3.8636 6.9825,3.6986 L7.5585,2.9156 C7.6635,2.7786 7.6565,2.5456 7.5055,2.4626 C7.2605,2.2966 6.2245,1.8046 5.3535,1.6196 L5.3535,0.2856 C5.3535,0.1276 5.1565,-0.0004 5.0075,-0.0004 L3.9365,-0.0004 C3.7885,-0.0004 3.6115,0.1276 3.6115,0.2856 L3.6115,1.5986 C1.8695,1.8656 0.9965,3.0966 0.9965,4.1796 C0.9965,5.7996 2.4355,6.6226 3.8605,7.1446 C5.1335,7.6116 5.7915,8.0916 5.7915,8.7916 C5.7915,9.3826 5.2045,9.8496 4.4165,9.8496" id="Fill-5" fill="#4A5D68" mask="url(#mask-4)"></path>
                </g>
            </g>
        </g>
    </g>
</svg>