<?xml version="1.0" encoding="UTF-8"?>
<svg width="18px" height="21px" viewBox="0 0 18 21" version="1.1" xmlns="http://www.w3.org/2000/svg" xmlns:xlink="http://www.w3.org/1999/xlink">
    <!-- Generator: Sketch 49.3 (51167) - http://www.bohemiancoding.com/sketch -->
    <title>Glyph/ Lock</title>
    <desc>Created with Sketch.</desc>
    <defs></defs>
    <g id="Glyph/-Lock" stroke="none" stroke-width="1" fill="none" fill-rule="evenodd">
        <g id="Page-1" fill="#616974">
            <path d="M5,6.187 C5,4.176 6.33,2.45 8.162,2.083 C9.391,1.836 10.588,2.128 11.533,2.903 C12.466,3.666 13,4.795 13,5.999 L13,7.999 L15,7.999 L15,5.999 C15,4.194 14.198,2.501 12.801,1.356 C11.403,0.21 9.569,-0.239 7.77,0.122 C5.006,0.675 3,3.226 3,6.187 L3,7.999 L5,7.999 L5,6.187 Z" id="Fill-1"></path>
            <g id="Group-5" transform="translate(0.000000, 8.998500)">
                <path d="M17,3.55271368e-14 L1,3.55271368e-14 C0.447,3.55271368e-14 0,0.447 0,1 L0,11 C0,11.553 0.447,12 1,12 L17,12 C17.553,12 18,11.553 18,11 L18,1 C18,0.447 17.553,3.55271368e-14 17,3.55271368e-14" id="Fill-3"></path>
            </g>
        </g>
    </g>
</svg>