<?xml version="1.0" encoding="UTF-8"?>
<svg width="24px" height="24px" viewBox="0 0 24 24" version="1.1" xmlns="http://www.w3.org/2000/svg" xmlns:xlink="http://www.w3.org/1999/xlink">
    <!-- Generator: Sketch 49.3 (51167) - http://www.bohemiancoding.com/sketch -->
    <title>Glyph/ Maple Leaf 2</title>
    <desc>Created with Sketch.</desc>
    <defs></defs>
    <g id="Glyph/-Maple-Leaf-2" stroke="none" stroke-width="1" fill="none" fill-rule="evenodd">
        <path d="M11.9995257,0 L9.90361559,3.9079929 C9.66578995,4.33272668 9.23967836,4.29333183 8.81356616,4.05610469 L7.29618309,3.27060446 L8.42711224,9.27319953 C8.66493788,10.3698397 7.90188687,10.3698397 7.52531743,9.89567163 L4.87718892,6.93199907 L4.44726989,8.43702246 C4.39769272,8.63466435 4.17971036,8.84225046 3.85268552,8.79281618 L0.504096768,8.08897406 L1.38362511,11.285667 C1.57190861,11.996967 1.71877417,12.2914695 1.19354511,12.4790713 L0,13.0398696 L5.76437883,17.7207411 C5.99253627,17.8977292 6.10781061,18.2162324 6.02658509,18.5046149 L5.52207913,20.159758 C7.50683996,19.9310402 9.28521646,19.58694 11.2709825,19.3750188 C11.4462849,19.3563102 11.7397623,19.6455262 11.7385587,19.8486181 L11.5669473,24 L12.5319479,24 L12.2886789,19.8616223 C12.2874685,19.6585305 12.5537139,19.3563102 12.7290163,19.3750188 C14.7147823,19.5869407 16.4931613,19.9310402 18.4779215,20.159758 L17.9734168,18.5046149 C17.8921912,18.2162324 18.007465,17.8977292 18.2356224,17.7207411 L24,13.0398696 L22.8064561,12.4790713 C22.2812258,12.2914695 22.4280914,11.996967 22.6163749,11.285667 L23.4959051,8.08897406 L20.1473145,8.79281618 C19.8202896,8.84225046 19.6023073,8.63466435 19.5527289,8.43702246 L19.1228105,6.93199907 L16.4746832,9.89567163 C16.0981125,10.3698397 15.3350609,10.3698397 15.5728865,9.27319953 L16.7038138,3.27060446 L15.1864338,4.05610469 C14.7603112,4.29333183 14.33421,4.33272668 14.0963838,3.9079929" id="Canadian-Maple-Leaf" fill="#616974" fill-rule="nonzero"></path>
    </g>
</svg>