<?xml version="1.0" encoding="UTF-8"?>
<svg width="22px" height="22px" viewBox="0 0 22 22" version="1.1" xmlns="http://www.w3.org/2000/svg" xmlns:xlink="http://www.w3.org/1999/xlink">
    <!-- Generator: Sketch 49.3 (51167) - http://www.bohemiancoding.com/sketch -->
    <title>Glyph/ married</title>
    <desc>Created with Sketch.</desc>
    <defs>
        <polygon id="path-1" points="0 11.0001 0 22 22 22 22 11.0001 22 0.0002 0 0.0002"></polygon>
    </defs>
    <g id="Glyph/-married" stroke="none" stroke-width="1" fill="none" fill-rule="evenodd">
        <g id="Page-1">
            <mask id="mask-2" fill="white">
                <use xlink:href="#path-1"></use>
            </mask>
            <g id="Clip-2"></g>
            <path d="M9.5,8.9302 C7.96,10.2902 7,12.2802 7,14.5002 C7,15.2302 7.1,15.9302 7.3,16.5902 C7.44,17.0802 7.63,17.5402 7.87,17.9802 C7.75,18.0002 7.63,18.0002 7.5,18.0002 C7.07,18.0002 6.66,17.9502 6.26,17.8602 C3.83,17.3002 2,15.1002 2,12.5002 C2,9.4702 4.47,7.0002 7.5,7.0002 C8.12,7.0002 8.72,7.1002 9.28,7.3002 C9.79,7.4702 10.28,7.7202 10.71,8.0402 C10.27,8.2902 9.87,8.5902 9.5,8.9302 M14.5,7.0002 L14.49,7.0002 C13.91,7.0002 13.34,7.0702 12.8,7.2002 C12.39,6.7902 11.94,6.4302 11.45,6.1402 C10.524,5.5472 9.451,5.1802 8.306,5.0562 L12,2.1162 L9.588,0.0002 L5.412,0.0002 L3,2.1162 L6.682,5.0472 C2.927,5.4552 0,8.6372 0,12.5002 C0,16.6402 3.36,20.0002 7.5,20.0002 L7.51,20.0002 C8.09,20.0002 8.66,19.9302 9.2,19.8002 C9.95,19.6302 10.65,19.3502 11.29,18.9602 C11.73,18.7102 12.13,18.4102 12.5,18.0702 C14.04,16.7102 15,14.7202 15,12.5002 C15,11.7702 14.9,11.0702 14.7,10.4102 C14.63,10.4002 14.57,10.4002 14.5,10.4002 C13.87,10.4002 13.27,10.5402 12.73,10.8002 C12.91,11.3402 13,11.9102 13,12.5002 C13,14.1802 12.24,15.6902 11.05,16.7002 C10.69,17.0002 10.3,17.2602 9.87,17.4502 C9.61,17.0602 9.41,16.6402 9.27,16.2002 C9.09,15.6602 9,15.0902 9,14.5002 C9,12.8202 9.76,11.3102 10.95,10.3002 C11.31,10.0002 11.7,9.7402 12.13,9.5502 C12.74,9.2502 13.41,9.0602 14.13,9.0202 C14.25,9.0002 14.37,9.0002 14.5,9.0002 C14.93,9.0002 15.34,9.0502 15.74,9.1402 C18.17,9.7002 20,11.9002 20,14.5002 C20,17.5302 17.53,20.0002 14.5,20.0002 C13.88,20.0002 13.28,19.9002 12.72,19.7002 C12.06,20.1802 11.33,20.5802 10.55,20.8602 C11.69,21.5902 13.05,22.0002 14.5,22.0002 C18.64,22.0002 22,18.6402 22,14.5002 C22,10.3602 18.64,7.0002 14.5,7.0002" id="Fill-1" fill="#616974" mask="url(#mask-2)"></path>
        </g>
    </g>
</svg>