<?xml version="1.0" encoding="UTF-8"?>
<svg width="22px" height="18px" viewBox="0 0 22 18" version="1.1" xmlns="http://www.w3.org/2000/svg" xmlns:xlink="http://www.w3.org/1999/xlink">
    <!-- Generator: Sketch 49.3 (51167) - http://www.bohemiancoding.com/sketch -->
    <title>Glyph/ Medical Expenses</title>
    <desc>Created with Sketch.</desc>
    <defs></defs>
    <g id="Glyph/-Medical-Expenses" stroke="none" stroke-width="1" fill="none" fill-rule="evenodd">
        <path d="M17,17 L19,17 L19,5 L17,5 L17,17 Z M14,12 L12,12 L12,14 L10,14 L10,12 L8,12 L8,10 L10,10 L10,8 L12,8 L12,10 L14,10 L14,12 Z M8.958,4 L13,4 L13,2 L8.958,2 L8.958,4 Z M3,17 L5,17 L5,5 L3,5 L3,17 Z M21,4 L20,4 L20,3 C20,2.448 19.552,2 19,2 L17,2 C16.448,2 16,2.448 16,3 L16,4 L15,4 L15,1 C15,0.448 14.552,0 14,0 L7.958,0 C7.406,0 6.958,0.448 6.958,1 L6.958,4 L6,4 L6,3 C6,2.448 5.552,2 5,2 L3,2 C2.448,2 2,2.448 2,3 L2,4 L1,4 C0.448,4 0,4.448 0,5 L0,17 C0,17.552 0.448,18 1,18 L21,18 C21.552,18 22,17.552 22,17 L22,5 C22,4.448 21.552,4 21,4 Z" id="Page-1" fill="#616974"></path>
    </g>
</svg>