<?xml version="1.0" encoding="UTF-8"?>
<svg width="22px" height="22px" viewBox="0 0 22 22" version="1.1" xmlns="http://www.w3.org/2000/svg" xmlns:xlink="http://www.w3.org/1999/xlink">
    <!-- Generator: Sketch 49.3 (51167) - http://www.bohemiancoding.com/sketch -->
    <title>Glyph/ Military</title>
    <desc>Created with Sketch.</desc>
    <defs>
        <polygon id="path-1" points="0 0.8795 0 18.9995 21.9218704 18.9995 21.9218704 0.8795"></polygon>
    </defs>
    <g id="Glyph/-Military" stroke="none" stroke-width="1" fill="none" fill-rule="evenodd">
        <g id="Page-1">
            <g id="Group-3" transform="translate(0.000000, 2.468100)">
                <mask id="mask-2" fill="white">
                    <use xlink:href="#path-1"></use>
                </mask>
                <g id="Clip-2"></g>
                <path d="M13.8875,13.5625 L10.9625,11.4375 L8.0385,13.5625 L9.1555,10.1245 L6.2315,8.0005 L9.8455,8.0005 L10.9625,4.5625 L12.0795,8.0005 L15.6945,8.0005 L12.7705,10.1245 L13.8875,13.5625 Z M21.7845,7.0005 L17.9625,7.0005 L17.9625,3.9375 L10.9625,0.8795 L3.9625,3.9375 L3.9625,7.0005 L0.1405,7.0005 C0.0605,7.2795 -0.1315,8.0695 0.1405,9.0005 C0.2595,9.4185 0.4375,9.7495 0.6105,9.9995 L3.9625,9.9995 L3.9625,10.9995 L0.9375,10.9995 C0.8825,11.3835 0.8635,11.9045 1.0335,12.5005 C1.2695,13.3145 1.7265,13.8055 1.9325,13.9995 L4.2495,13.9995 C4.8775,15.2675 6.6785,17.9625 10.9625,18.9995 C15.1795,17.6655 16.9885,15.1915 17.6435,13.9995 L20.0075,13.9995 C20.2115,13.8045 20.6645,13.3155 20.8965,12.5005 C21.0665,11.9035 21.0455,11.3835 20.9915,10.9995 L17.9625,10.9995 L17.9625,9.9995 L21.3165,9.9995 C21.4895,9.7495 21.6655,9.4185 21.7845,9.0005 C22.0495,8.0685 21.8635,7.2795 21.7845,7.0005 Z" id="Fill-1" fill="#616974" mask="url(#mask-2)"></path>
            </g>
            <path d="M17.9626,5.1683 L17.9626,2.9783 L11.3636,0.0843 C11.1086,-0.0277 10.8166,-0.0277 10.5616,0.0843 L3.9626,2.9783 L3.9626,5.1683 L10.9626,2.0983 L17.9626,5.1683 Z" id="Fill-4" fill="#616974"></path>
        </g>
    </g>
</svg>