<?xml version="1.0" encoding="UTF-8"?>
<svg width="18px" height="23px" viewBox="0 0 18 23" version="1.1" xmlns="http://www.w3.org/2000/svg" xmlns:xlink="http://www.w3.org/1999/xlink">
    <!-- Generator: Sketch 49.3 (51167) - http://www.bohemiancoding.com/sketch -->
    <title>Glyph/ misc income</title>
    <desc>Created with Sketch.</desc>
    <defs>
        <polygon id="path-1" points="0.8468 1 1.8468 1 1.8468 0.996 0.8468 0.996"></polygon>
        <polygon id="path-3" points="0.2499 0 9.7499 0 9.7499 4.0897 0.2499 4.0897"></polygon>
    </defs>
    <g id="Glyph/-misc-income" stroke="none" stroke-width="1" fill="none" fill-rule="evenodd">
        <g id="Page-1">
            <g id="Group-3" transform="translate(8.000000, 21.000000)">
                <mask id="mask-2" fill="white">
                    <use xlink:href="#path-1"></use>
                </mask>
                <g id="Clip-2"></g>
                <path d="M1.1528,1 C1.1018,1 1.0498,1 1.0018,0.996 C0.9498,1 0.8988,1 0.8468,1 L1.1528,1 Z" id="Fill-1" fill="#616974" mask="url(#mask-2)"></path>
            </g>
            <g id="Group-6" transform="translate(4.000000, 0.000000)">
                <mask id="mask-4" fill="white">
                    <use xlink:href="#path-3"></use>
                </mask>
                <g id="Clip-5"></g>
                <path d="M7.9849,3.6787 C8.4149,2.1127 9.7499,-0.0003 9.7499,-0.0003 L5.3169,-0.0003 L4.6839,-0.0003 L0.2499,-0.0003 C0.2499,-0.0003 1.5859,2.1127 2.0149,3.6787 C3.9579,4.2267 6.0419,4.2267 7.9849,3.6787" id="Fill-4" fill="#616974" mask="url(#mask-4)"></path>
            </g>
            <g id="Group-9" transform="translate(0.000000, 5.000000)" fill="#616974">
                <path d="M9.7935,12.5322 L9.7935,13.5212 C9.7935,13.7852 9.5625,14.0002 9.2765,14.0002 L8.7605,14.0002 C8.4755,14.0002 8.2435,13.7852 8.2435,13.5212 L8.2435,12.4622 C7.3845,12.2972 6.6145,11.9262 5.8815,11.3192 L5.6205,11.1032 L6.6345,9.9922 L6.9105,10.2232 C7.7075,10.8912 8.4175,11.1642 9.3565,11.1642 C10.1745,11.1642 10.7455,10.7932 10.7455,10.2622 C10.7455,9.8212 10.6235,9.5072 8.9925,9.1882 C7.4765,8.8832 6.0745,8.3792 6.0745,6.7682 C6.0745,5.6312 6.9535,4.7642 8.2435,4.5142 L8.2435,3.4782 C8.2435,3.2152 8.4755,3.0002 8.7605,3.0002 L9.2765,3.0002 C9.5625,3.0002 9.7935,3.2152 9.7935,3.4782 L9.7935,4.4852 C10.6055,4.5932 11.2935,4.8822 11.9905,5.4002 L12.2625,5.6022 L11.3115,6.7672 L11.0225,6.5492 C10.3785,6.0622 9.7315,5.8362 8.9875,5.8362 C8.2165,5.8362 7.6775,6.1812 7.6775,6.6752 C7.6775,7.1082 7.8095,7.4412 9.5225,7.7812 C11.4845,8.1772 12.3595,8.9102 12.3595,10.1592 C12.3595,11.4462 11.3235,12.3722 9.7935,12.5322 M17.3255,6.2822 C16.2685,3.3692 13.9865,1.4102 12.7745,0.5322 C11.5515,0.9042 10.2845,1.1002 9.0005,1.1002 C7.8045,1.1002 6.6265,0.9282 5.4825,0.6052 C4.1125,1.5192 1.7015,3.4512 0.6745,6.2822 C-0.6745,10.0002 0.0855,12.9342 2.1975,14.7822 C3.7965,16.1902 6.1745,16.9702 9.0015,16.9962 C11.8255,16.9702 14.2035,16.1902 15.8025,14.7822 C17.9155,12.9342 18.6745,10.0002 17.3255,6.2822" id="Fill-7"></path>
            </g>
        </g>
    </g>
</svg>