<?xml version="1.0" encoding="UTF-8"?>
<svg width="14px" height="22px" viewBox="0 0 14 22" version="1.1" xmlns="http://www.w3.org/2000/svg" xmlns:xlink="http://www.w3.org/1999/xlink">
    <!-- Generator: Sketch 49.3 (51167) - http://www.bohemiancoding.com/sketch -->
    <title>Glyph/ Mobile Phone</title>
    <desc>Created with Sketch.</desc>
    <defs></defs>
    <g id="Glyph/-Mobile-Phone" stroke="none" stroke-width="1" fill="none" fill-rule="evenodd">
        <path d="M2,18 L12,18 L12,4 L2,4 L2,18 Z M8,21 L6,21 C5.448,21 5,20.553 5,20 C5,19.447 5.448,19 6,19 L8,19 C8.552,19 9,19.447 9,20 C9,20.553 8.552,21 8,21 Z M7,1 C7.552,1 8,1.447 8,2 C8,2.553 7.552,3 7,3 C6.448,3 6,2.553 6,2 C6,1.447 6.448,1 7,1 Z M12,0 L2,0 C0.896,0 0,0.896 0,2 L0,20 C0,21.104 0.896,22 2,22 L12,22 C13.104,22 14,21.104 14,20 L14,2 C14,0.896 13.104,0 12,0 Z" id="Page-1" fill="#616974"></path>
    </g>
</svg>