<?xml version="1.0" encoding="UTF-8"?>
<svg width="21px" height="5px" viewBox="0 0 21 5" version="1.1" xmlns="http://www.w3.org/2000/svg" xmlns:xlink="http://www.w3.org/1999/xlink">
    <!-- Generator: Sketch 49.3 (51167) - http://www.bohemiancoding.com/sketch -->
    <title>Glyph/ More Info</title>
    <desc>Created with Sketch.</desc>
    <defs></defs>
    <g id="Glyph/-More-Info" stroke="none" stroke-width="1" fill="none" fill-rule="evenodd">
        <g id="Page-1" fill="#616974">
            <path d="M2.5,0 C1.119,0 0,1.119 0,2.5 C0,3.881 1.119,5 2.5,5 C3.881,5 5,3.881 5,2.5 C5,1.119 3.881,0 2.5,0" id="Fill-1"></path>
            <path d="M10.5,0 C9.119,0 8,1.119 8,2.5 C8,3.881 9.119,5 10.5,5 C11.881,5 13,3.881 13,2.5 C13,1.119 11.881,0 10.5,0" id="Fill-3"></path>
            <path d="M18.5,0 C17.119,0 16,1.119 16,2.5 C16,3.881 17.119,5 18.5,5 C19.881,5 21,3.881 21,2.5 C21,1.119 19.881,0 18.5,0" id="Fill-5"></path>
        </g>
    </g>
</svg>