<?xml version="1.0" encoding="UTF-8"?>
<svg width="22px" height="22px" viewBox="0 0 22 22" version="1.1" xmlns="http://www.w3.org/2000/svg" xmlns:xlink="http://www.w3.org/1999/xlink">
    <!-- Generator: Sketch 49.3 (51167) - http://www.bohemiancoding.com/sketch -->
    <title>Glyph/ Moved to a new state</title>
    <desc>Created with Sketch.</desc>
    <defs></defs>
    <g id="Glyph/-Moved-to-a-new-state" stroke="none" stroke-width="1" fill="none" fill-rule="evenodd">
        <path d="M6,4.5 L6,3.5 C6,3.224 6.224,3 6.5,3 L7,3 L7,0.5 C7,0.224 7.224,0 7.5,0 L9.5,0 C9.776,0 10,0.224 10,0.5 L10,3 L11,3 L11,1.5 C11,1.224 11.224,1 11.5,1 L14.5,1 C14.776,1 15,1.224 15,1.5 L15,3 L15.5,3 C15.776,3 16,3.224 16,3.5 L16,4.5 C16,4.776 15.776,5 15.5,5 L6.5,5 C6.224,5 6,4.776 6,4.5 Z M16.5,17 C15.67,17 15,16.33 15,15.5 C15,14.67 15.67,14 16.5,14 C17.33,14 18,14.67 18,15.5 C18,16.33 17.33,17 16.5,17 Z M5.24,12 C4.75,12 4.41,11.5 4.59,11.04 C4.59,11.04 6.08,8.17 6.09,8.17 C6.15,8.02 6.32,8 6.42,8 L15.58,8 C15.68,8 15.85,8.02 15.91,8.17 C15.92,8.17 17.41,11.04 17.41,11.04 C17.59,11.5 17.25,12 16.76,12 L5.24,12 Z M13,16 L9,16 C8.45,16 8,15.55 8,15 C8,14.45 8.45,14 9,14 L13,14 C13.55,14 14,14.45 14,15 C14,15.55 13.55,16 13,16 Z M5.5,17 C4.67,17 4,16.33 4,15.5 C4,14.67 4.67,14 5.5,14 C6.33,14 7,14.67 7,15.5 C7,16.33 6.33,17 5.5,17 Z M20.5,10 L19.01,10 L17.24,7.06 C16.98,6.4 16.35,6 15.58,6 L6.42,6 C5.65,6 5.02,6.4 4.76,7.06 L2.99,10 L1.5,10 C0.67,10 0,10.67 0,11.5 C0,12.33 0.67,13 1.5,13 L2,13 L2,17.49 C2,18.141 2.42,18.693 3,18.904 L3,21.184 C3,21.634 3.366,22 3.816,22 L6.184,22 C6.634,22 7,21.634 7,21.184 L7,19 L15,19 L15,21.184 C15,21.634 15.366,22 15.816,22 L18.184,22 C18.634,22 19,21.634 19,21.184 L19,18.904 C19.58,18.693 20,18.141 20,17.49 L20,13 L20.5,13 C21.33,13 22,12.33 22,11.5 C22,10.67 21.33,10 20.5,10 Z" id="Page-1" fill="#616974"></path>
    </g>
</svg>