<?xml version="1.0" encoding="UTF-8"?>
<svg width="22px" height="20px" viewBox="0 0 22 20" version="1.1" xmlns="http://www.w3.org/2000/svg" xmlns:xlink="http://www.w3.org/1999/xlink">
    <!-- Generator: Sketch 49.3 (51167) - http://www.bohemiancoding.com/sketch -->
    <title>Glyph/ New job</title>
    <desc>Created with Sketch.</desc>
    <defs>
        <polygon id="path-1" points="0 20 22 20 22 0 0 0"></polygon>
    </defs>
    <g id="Glyph/-New-job" stroke="none" stroke-width="1" fill="none" fill-rule="evenodd">
        <g id="Page-1">
            <path d="M18,12.5 C18,12.776 17.776,13 17.5,13 L15.5,13 C15.224,13 15,12.776 15,12.5 L15,11 L7,11 L7,12.5 C7,12.776 6.776,13 6.5,13 L4.5,13 C4.224,13 4,12.776 4,12.5 L4,11 L1,11 L1,19 C1,19.552 1.447,20 2,20 L20,20 C20.553,20 21,19.552 21,19 L21,11 L18,11 L18,12.5 Z" id="Fill-1" fill="#616974"></path>
            <mask id="mask-2" fill="white">
                <use xlink:href="#path-1"></use>
            </mask>
            <g id="Clip-4"></g>
            <path d="M9,4 L13,4 L13,2 L9,2 L9,4 Z M21,4 L15,4 L15,1 C15,0.448 14.553,0 14,0 L8,0 C7.447,0 7,0.448 7,1 L7,4 L1,4 C0.447,4 0,4.448 0,5 L0,9 C0,9.552 0.447,10 1,10 L4,10 L4,9.5 C4,9.224 4.224,9 4.5,9 L6.5,9 C6.776,9 7,9.224 7,9.5 L7,10 L15,10 L15,9.5 C15,9.224 15.224,9 15.5,9 L17.5,9 C17.776,9 18,9.224 18,9.5 L18,10 L21,10 C21.553,10 22,9.552 22,9 L22,5 C22,4.448 21.553,4 21,4 Z" id="Fill-3" fill="#616974" mask="url(#mask-2)"></path>
        </g>
    </g>
</svg>