<?xml version="1.0" encoding="UTF-8"?>
<svg width="22px" height="22px" viewBox="0 0 22 22" version="1.1" xmlns="http://www.w3.org/2000/svg" xmlns:xlink="http://www.w3.org/1999/xlink">
    <!-- Generator: Sketch 49.3 (51167) - http://www.bohemiancoding.com/sketch -->
    <title>Glyph/ notification</title>
    <desc>Created with Sketch.</desc>
    <defs></defs>
    <g id="Glyph/-notification" stroke="none" stroke-width="1" fill="none" fill-rule="evenodd">
        <g id="Page-1" fill="#4B5E69">
            <path d="M11,22 C12.66,22 14,20.66 14,19 L8,19 C8,20.66 9.34,22 11,22" id="Fill-1"></path>
            <path d="M20.5,15 L20,15 C18.896,15 18,14.104 18,13 L18,9 C18,5.475 15.391,2.566 12,2.08 L12,0 L10,0 L10,2.08 C6.609,2.566 4,5.475 4,9 L4,13 C4,14.104 3.104,15 2,15 L1.5,15 C0.672,15 0,15.671 0,16.5 L0,18 L11,18 L22,18 L22,16.5 C22,15.671 21.328,15 20.5,15" id="Fill-3"></path>
        </g>
    </g>
</svg>