<?xml version="1.0" encoding="UTF-8"?>
<svg width="22px" height="22px" viewBox="0 0 22 22" version="1.1" xmlns="http://www.w3.org/2000/svg" xmlns:xlink="http://www.w3.org/1999/xlink">
    <!-- Generator: Sketch 49.3 (51167) - http://www.bohemiancoding.com/sketch -->
    <title>Glyph/ offers</title>
    <desc>Created with Sketch.</desc>
    <defs>
        <polygon id="path-1" points="11.00005 0 22 0 22 22 11.00005 22 0.0001 22 0.0001 0"></polygon>
    </defs>
    <g id="Glyph/-offers" stroke="none" stroke-width="1" fill="none" fill-rule="evenodd">
        <g id="Page-1">
            <mask id="mask-2" fill="white">
                <use xlink:href="#path-1"></use>
            </mask>
            <g id="Clip-2"></g>
            <path d="M10.4351,14 L9.8151,15 L5.9351,11.6 L7.2551,10.09 L9.3951,11.96 C10.8931,9.773 12.8491,7.938 15.1251,6.58 L16.0651,8.35 C13.7681,9.763 11.8391,11.699 10.4351,14 M19.3171,7.555 C18.8101,6.333 19.6991,4.143 18.7781,3.222 C17.8571,2.301 15.6671,3.189 14.4451,2.683 C13.2661,2.193 12.3561,0 11.0001,0 C9.6441,0 8.7341,2.193 7.5551,2.683 C6.3331,3.189 4.1431,2.301 3.2221,3.222 C2.3011,4.143 3.1891,6.333 2.6831,7.555 C2.1931,8.734 0.0001,9.644 0.0001,11 C0.0001,12.356 2.1931,13.266 2.6831,14.445 C3.1891,15.667 2.3011,17.857 3.2221,18.778 C4.1431,19.699 6.3331,18.811 7.5551,19.317 C8.7341,19.807 9.6441,22 11.0001,22 C12.3561,22 13.2661,19.807 14.4451,19.317 C15.6671,18.811 17.8571,19.699 18.7781,18.778 C19.6991,17.857 18.8101,15.667 19.3171,14.445 C19.8071,13.266 22.0001,12.356 22.0001,11 C22.0001,9.644 19.8071,8.734 19.3171,7.555" id="Fill-1" fill="#4A5D68" mask="url(#mask-2)"></path>
        </g>
    </g>
</svg>