<?xml version="1.0" encoding="UTF-8"?>
<svg width="22px" height="23px" viewBox="0 0 22 23" version="1.1" xmlns="http://www.w3.org/2000/svg" xmlns:xlink="http://www.w3.org/1999/xlink">
    <!-- Generator: Sketch 49.3 (51167) - http://www.bohemiancoding.com/sketch -->
    <title>Glyph/ Other Retirement Income</title>
    <desc>Created with Sketch.</desc>
    <defs>
        <polygon id="path-1" points="0.127147874 0.814 12.4889884 0.814 12.4889884 14.2405356 0.127147874 14.2405356 0.127147874 0.814"></polygon>
    </defs>
    <g id="Glyph/-Other-Retirement-Income" stroke="none" stroke-width="1" fill="none" fill-rule="evenodd">
        <g id="Page-1">
            <g id="Group-3" transform="translate(0.000000, 11.185900)" fill="#616974">
                <path d="M18.0601,0.0601 L17.6601,0.0001 L17.1701,0.0001 C17.7701,0.3701 18.1201,0.8001 18.1201,1.2501 C18.1201,1.3701 18.1001,1.4901 18.0401,1.6001 C20.0401,2.0601 20.4501,2.5401 20.5001,2.5401 C20.3401,2.8501 19.4101,3.2801 17.8001,3.6301 C16.1801,3.9801 13.8801,4.2501 11.0001,4.2501 C5.3701,4.2501 1.9801,3.2101 1.5301,2.5901 C1.6301,2.4801 2.0001,2.1501 3.1601,1.8101 C3.0401,1.6301 2.9801,1.4401 2.9801,1.2501 C2.9801,0.8301 3.2701,0.4401 3.7901,0.1001 C1.2401,0.6701 0.0001,1.4801 0.0001,2.5801 C0.0001,3.2801 0.5401,3.8201 1.4001,4.2601 L1.6501,5.1401 C2.3701,5.6901 3.4601,6.2601 5.0801,6.5201 C5.3501,6.5701 5.5401,6.8301 5.4901,7.1001 C5.4501,7.3401 5.2401,7.5201 5.0001,7.5201 C4.9701,7.5201 4.9501,7.5201 4.9201,7.5101 C3.7701,7.3201 2.8601,6.9901 2.1201,6.6101 C2.9901,8.7101 5.0401,10.2701 7.5601,10.7001 C8.6001,10.8801 9.7601,11.0001 11.0001,11.0001 C12.2001,11.0001 13.3601,10.8901 14.4001,10.7201 C16.6201,10.3601 18.4701,9.1101 19.4901,7.3901 C17.8301,8.2101 16.1501,8.3201 16.0301,8.3301 L16.0001,8.3301 C15.7401,8.3301 15.5201,8.1201 15.5001,7.8601 C15.4901,7.5801 15.7001,7.3401 15.9701,7.3301 C16.0101,7.3301 18.4801,7.1601 20.1801,5.7601 L20.6001,4.2601 C21.4601,3.8201 22.0001,3.2801 22.0001,2.5801 C22.0001,1.4601 20.7201,0.6401 18.0601,0.0601" id="Fill-1"></path>
            </g>
            <path d="M19.3501,10.516 L19.3501,10.526 C19.2001,11.016 19.0201,11.476 18.8101,11.926 C18.7401,12.106 18.6601,12.276 18.5701,12.446 L17.7801,13.906 C17.0801,14.046 16.2601,14.166 15.3401,14.256 C15.4401,13.516 15.6401,11.466 15.2701,9.276 C14.7901,6.446 13.6401,4.016 12.1401,2.366 C13.4801,1.366 14.9901,0.936 16.3901,1.306 C19.3601,2.106 20.6801,6.226 19.3501,10.516" id="Fill-4" fill="#616974"></path>
            <g id="Group-8" transform="translate(2.000000, 0.185900)">
                <mask id="mask-2" fill="white">
                    <use xlink:href="#path-1"></use>
                </mask>
                <g id="Clip-7"></g>
                <path d="M6.9639,11.6021 L7.0279,12.4981 C7.0449,12.7371 6.8489,12.9471 6.5899,12.9651 L6.1219,12.9981 C5.8629,13.0171 5.6389,12.8381 5.6219,12.5991 L5.5539,11.6401 C4.7639,11.5451 4.0419,11.2591 3.3379,10.7571 L3.0869,10.5781 L3.9349,9.5061 L4.1999,9.6981 C4.9659,10.2511 5.6269,10.4521 6.4799,10.3911 C7.2209,10.3381 7.7149,9.9651 7.6799,9.4851 C7.6519,9.0841 7.5209,8.8081 6.0209,8.6251 C4.6269,8.4471 3.3229,8.0811 3.2179,6.6221 C3.1449,5.5921 3.8859,4.7491 5.0399,4.4401 L4.9729,3.5011 C4.9559,3.2631 5.1519,3.0531 5.4109,3.0351 L5.8789,3.0011 C6.1379,2.9831 6.3609,3.1621 6.3789,3.4011 L6.4429,4.3131 C7.1879,4.3581 7.8289,4.5751 8.4959,4.9991 L8.7549,5.1651 L7.9679,6.2821 L7.6919,6.1021 C7.0759,5.7041 6.4749,5.5411 5.7999,5.5891 C5.1009,5.6391 4.6339,5.9861 4.6659,6.4341 C4.6939,6.8261 4.8359,7.1191 6.4109,7.3161 C8.2159,7.5481 9.0569,8.1551 9.1369,9.2871 C9.2209,10.4531 8.3399,11.3581 6.9639,11.6021 M12.2859,9.2621 C11.4029,4.1311 8.1769,0.3531 4.8659,0.8591 C1.5549,1.3661 -0.4921,5.9491 0.2959,11.0951 C0.3509,11.4551 0.5939,12.5471 0.5939,12.5471 C2.0909,14.7001 12.3139,14.1871 12.3139,14.1871 C12.3139,14.1871 12.7259,11.8131 12.2859,9.2621" id="Fill-6" fill="#616974" mask="url(#mask-2)"></path>
            </g>
        </g>
    </g>
</svg>