<?xml version="1.0" encoding="UTF-8"?>
<svg width="22px" height="22px" viewBox="0 0 22 22" version="1.1" xmlns="http://www.w3.org/2000/svg" xmlns:xlink="http://www.w3.org/1999/xlink">
    <!-- Generator: Sketch 49.3 (51167) - http://www.bohemiancoding.com/sketch -->
    <title>Glyph/ Own business</title>
    <desc>Created with Sketch.</desc>
    <defs>
        <polygon id="path-1" points="0 22 22 22 22 0 0 0"></polygon>
    </defs>
    <g id="Glyph/-Own-business" stroke="none" stroke-width="1" fill="none" fill-rule="evenodd">
        <g id="Page-1">
            <mask id="mask-2" fill="white">
                <use xlink:href="#path-1"></use>
            </mask>
            <g id="Clip-2"></g>
            <path d="M13,20 L17,20 L17,13 L13,13 L13,20 Z M10.5,13 L5.5,13 C5.224,13 5,13.224 5,13.5 L5,16.5 C5,16.776 5.224,17 5.5,17 L10.5,17 C10.776,17 11,16.776 11,16.5 L11,13.5 C11,13.224 10.776,13 10.5,13 Z M22,20 L22,22 L6.6616092e-16,22 L6.6616092e-16,20 L2,20 L2,9.45 C2.21,9.48 2.42,9.5 2.63,9.5 C3.66,9.5 4.63,9.13 5.37,8.49 C6.12,9.13 7.09,9.5 8.12,9.5 C9.15,9.5 10.12,9.13 10.87,8.49 C11.61,9.13 12.58,9.5 13.62,9.5 C14.65,9.5 15.62,9.13 16.36,8.49 C17.1,9.13 18.08,9.5 19.11,9.5 C19.41,9.5 19.71,9.47 20,9.4 L20,20 L22,20 Z M16.984,0 L22,5.333 L21.854,5.896 L21.447,6.645 C20.992,7.48 20.097,8 19.11,8 C18.12,8 17.222,7.48 16.768,6.645 L16.361,5.896 L15.954,6.645 C15.499,7.48 14.604,8 13.617,8 C12.626,8 11.729,7.48 11.274,6.645 L10.868,5.896 L10.46,6.645 C10.005,7.48 9.11,8 8.124,8 C7.133,8 6.236,7.48 5.781,6.645 L5.375,5.896 L4.967,6.645 C4.512,7.48 3.617,8 2.63,8 C1.875,8 1.155,7.691 0.653,7.154 C0.227,6.697 -0.005,6.111 1.35525272e-20,5.504 L1.35525272e-20,5.144 L4.493,0 L16.984,0 Z" id="Fill-1" fill="#616974" mask="url(#mask-2)"></path>
        </g>
    </g>
</svg>