<?xml version="1.0" encoding="UTF-8"?>
<svg width="22px" height="15px" viewBox="0 0 22 15" version="1.1" xmlns="http://www.w3.org/2000/svg" xmlns:xlink="http://www.w3.org/1999/xlink">
    <!-- Generator: Sketch 49.3 (51167) - http://www.bohemiancoding.com/sketch -->
    <title>Glyph/ Paper Check</title>
    <desc>Created with Sketch.</desc>
    <defs>
        <polygon id="path-1" points="21.9998 15 0 15 0 0.0002 21.9998 0.0002"></polygon>
    </defs>
    <g id="Glyph/-Paper-Check" stroke="none" stroke-width="1" fill="none" fill-rule="evenodd">
        <g id="Page-1">
            <path d="M0.293,11.6084 L3.392,14.7074 C3.555,14.8704 3.772,14.9574 4,14.9804 L4,11.0004 L0.02,11.0004 C0.043,11.2284 0.13,11.4454 0.293,11.6084" id="Fill-1" fill="#616974"></path>
            <g id="Group-5">
                <mask id="mask-2" fill="white">
                    <use xlink:href="#path-1"></use>
                </mask>
                <g id="Clip-4"></g>
                <path d="M17.7148,11.5322 L17.7148,12.5212 C17.7148,12.7852 17.5088,13.0002 17.2558,13.0002 L16.7948,13.0002 C16.5418,13.0002 16.3348,12.7852 16.3348,12.5212 L16.3348,11.4632 C15.5698,11.2982 14.8858,10.9262 14.2328,10.3192 L13.9998,10.1032 L14.9028,8.9922 L15.1488,9.2232 C15.8588,9.8912 16.4898,10.1642 17.3268,10.1642 C18.0548,10.1642 18.5628,9.7932 18.5628,9.2622 C18.5628,8.8202 18.4538,8.5072 17.0018,8.1882 C15.6518,7.8832 14.4038,7.3792 14.4038,5.7682 C14.4038,4.6312 15.1868,3.7632 16.3348,3.5142 L16.3348,2.4782 C16.3348,2.2152 16.5418,2.0002 16.7948,2.0002 L17.2558,2.0002 C17.5088,2.0002 17.7148,2.2152 17.7148,2.4782 L17.7148,3.4852 C18.4388,3.5932 19.0508,3.8822 19.6718,4.4002 L19.9128,4.6022 L19.0678,5.7672 L18.8108,5.5492 C18.2358,5.0622 17.6598,4.8362 16.9978,4.8362 C16.3118,4.8362 15.8308,5.1812 15.8308,5.6762 C15.8308,6.1082 15.9488,6.4412 17.4738,6.7812 C19.2208,7.1772 19.9998,7.9102 19.9998,9.1592 C19.9998,10.4462 19.0768,11.3722 17.7148,11.5322 Z M2.9998,6.0002 L11.9998,6.0002 L11.9998,4.0002 L2.9998,4.0002 L2.9998,6.0002 Z M5.9998,10.0002 L10.9998,10.0002 L10.9998,8.0002 L5.9998,8.0002 L5.9998,10.0002 Z M-0.0002,0.0002 L-0.0002,10.0002 L4.4998,10.0002 C4.7768,10.0002 4.9998,10.2232 4.9998,10.5002 L4.9998,15.0002 L21.9998,15.0002 L21.9998,0.0002 L-0.0002,0.0002 Z" id="Fill-3" fill="#616974" mask="url(#mask-2)"></path>
            </g>
        </g>
    </g>
</svg>