<?xml version="1.0" encoding="UTF-8"?>
<svg width="22px" height="23px" viewBox="0 0 22 23" version="1.1" xmlns="http://www.w3.org/2000/svg" xmlns:xlink="http://www.w3.org/1999/xlink">
    <!-- Generator: Sketch 49.3 (51167) - http://www.bohemiancoding.com/sketch -->
    <title>Glyph/ Printer</title>
    <desc>Created with Sketch.</desc>
    <defs></defs>
    <g id="Glyph/-Printer" stroke="none" stroke-width="1" fill="none" fill-rule="evenodd">
        <path d="M5,23 L17,23 L17,16 L5,16 L5,23 Z M19,11.5 C19,10.672 18.329,10 17.5,10 C16.671,10 16,10.672 16,11.5 C16,12.328 16.671,13 17.5,13 C18.329,13 19,12.328 19,11.5 Z M22,10 L22,18 C22,19.104 21.104,20 20,20 L18,20 L18,17 L18.941,17 C19.526,17 20,16.553 20,16 C20,15.447 19.526,15 18.941,15 L3.059,15 C2.474,15 2,15.447 2,16 C2,16.553 2.474,17 3.059,17 L4,17 L4,20 L2,20 C0.896,20 0,19.104 0,18 L0,10 C0,8.896 0.896,8 2,8 L20,8 C21.104,8 22,8.896 22,10 Z M5,7 L17,7 L17,0 L5,0 L5,7 Z" id="Page-1" fill="#616974"></path>
    </g>
</svg>