<?xml version="1.0" encoding="UTF-8"?>
<svg width="15px" height="22px" viewBox="0 0 15 22" version="1.1" xmlns="http://www.w3.org/2000/svg" xmlns:xlink="http://www.w3.org/1999/xlink">
    <!-- Generator: Sketch 49.3 (51167) - http://www.bohemiancoding.com/sketch -->
    <title>Glyph/ Question Mark</title>
    <desc>Created with Sketch.</desc>
    <defs></defs>
    <g id="Glyph/-Question-Mark" stroke="none" stroke-width="1" fill="none" fill-rule="evenodd">
        <path d="M4.779,22 L8.937,22 L8.937,17.718 L4.779,17.718 L4.779,22 Z M5.057,10.085 L5.213,9.93 C9.154,9.805 10.954,8.533 10.954,6.485 L10.954,6.424 C10.954,4.686 9.62,3.476 7.385,3.476 C5.43,3.476 3.817,4.345 2.328,5.927 L0,3.444 C1.799,1.396 4.126,0 7.478,0 C11.822,0 14.77,2.421 14.77,6.3 L14.77,6.361 C14.77,10.271 11.947,12.039 8.502,12.629 L8.192,15.111 L5.678,15.111 L5.057,10.085 Z" id="Page-1" fill="#616974"></path>
    </g>
</svg>