<?xml version="1.0" encoding="UTF-8"?>
<svg width="21px" height="22px" viewBox="0 0 21 22" version="1.1" xmlns="http://www.w3.org/2000/svg" xmlns:xlink="http://www.w3.org/1999/xlink">
    <!-- Generator: Sketch 49.3 (51167) - http://www.bohemiancoding.com/sketch -->
    <title>Glyph/ rent home</title>
    <desc>Created with Sketch.</desc>
    <defs></defs>
    <g id="Glyph/-rent-home" stroke="none" stroke-width="1" fill="none" fill-rule="evenodd">
        <g id="Page-1" fill="#616974">
            <polygon id="Fill-1" points="1.9998 0.0004 0.9998 1.3104 0.9998 2.0004 -0.0002 2.0004 -0.0002 4.0004 0.9998 4.0004 0.9998 22.0004 2.9998 22.0004 2.9998 4.0004 6.9998 4.0004 6.9998 5.9994 8.9998 5.9994 8.9998 4.0004 16.9998 4.0004 16.9998 5.9994 18.9998 5.9994 18.9998 4.0004 20.3338 3.0004 18.9998 2.0004 2.9998 2.0004 2.9998 1.3104"></polygon>
            <path d="M20,7 L6,7 C5.448,7 5,7.448 5,8 L5,16 C5,16.552 5.448,17 6,17 L20,17 C20.552,17 21,16.552 21,16 L21,8 C21,7.448 20.552,7 20,7" id="Fill-2"></path>
        </g>
    </g>
</svg>