<?xml version="1.0" encoding="UTF-8"?>
<svg width="22px" height="22px" viewBox="0 0 22 22" version="1.1" xmlns="http://www.w3.org/2000/svg" xmlns:xlink="http://www.w3.org/1999/xlink">
    <!-- Generator: Sketch 49.3 (51167) - http://www.bohemiancoding.com/sketch -->
    <title>Glyph/ retirement</title>
    <desc>Created with Sketch.</desc>
    <defs></defs>
    <g id="Glyph/-retirement" stroke="none" stroke-width="1" fill="none" fill-rule="evenodd">
        <path d="M11,15.25 C5.367,15.25 1.98,14.214 1.525,13.59 C1.652,13.446 2.205,12.973 4.217,12.539 L4.414,12.499 C4.434,12.739 4.451,12.981 4.48,13.218 C4.49,13.281 4.5,13.345 4.51,13.397 C5.96,13.715 8.13,14 11,14 C13.86,14 16.03,13.704 17.49,13.387 C17.5,13.324 17.51,13.271 17.51,13.208 C17.541,12.976 17.559,12.739 17.58,12.505 L17.779,12.537 C20.005,13.018 20.446,13.544 20.502,13.544 L20.503,13.544 C20.188,14.162 16.773,15.25 11,15.25 M10.507,7.946 C9.397,7.585 8.276,7.015 8.276,5.893 C8.276,5.144 8.956,4.291 10.313,4.106 L10.313,3.198 C10.313,3.088 10.451,3 10.566,3 L11.401,3 C11.517,3 11.67,3.088 11.67,3.198 L11.67,4.121 C12.349,4.249 13.155,4.59 13.346,4.705 C13.464,4.762 13.47,4.924 13.387,5.019 L12.938,5.561 C12.844,5.675 12.668,5.751 12.526,5.675 C12.433,5.627 11.536,5.152 10.887,5.152 C10.214,5.152 9.852,5.513 9.852,5.817 C9.852,6.264 10.295,6.568 11.251,6.882 C12.396,7.252 13.731,7.804 13.731,9.03 C13.731,9.879 13.026,10.67 11.67,10.865 L11.67,11.901 C11.67,12.01 11.524,12 11.409,12 L10.574,12 C10.459,12 10.313,12.01 10.313,11.901 L10.313,10.874 C8.956,10.749 8.567,10.324 8.367,10.17 C8.261,10.085 8.228,10.037 8.334,9.885 L8.759,9.296 C8.853,9.163 9.053,9.163 9.159,9.229 C9.218,9.258 10.173,9.819 10.94,9.819 C11.554,9.819 12.012,9.496 12.012,9.087 C12.012,8.602 11.499,8.27 10.507,7.946 M18.058,11.064 L17.658,10.999 C17.658,10.978 17.66,10.957 17.66,10.936 C17.66,10.439 17.64,9.964 17.6,9.488 C17.17,4.131 14.38,0 11,0 C7.63,0 4.84,4.11 4.4,9.457 C4.36,9.942 4.34,10.429 4.34,10.936 C4.34,10.952 4.342,10.967 4.342,10.982 L3.908,11.071 C1.278,11.638 0,12.459 0,13.583 C0,14.276 0.544,14.824 1.399,15.261 L1.647,16.138 C2.369,16.69 3.464,17.259 5.081,17.523 C5.354,17.568 5.538,17.825 5.493,18.098 C5.453,18.343 5.241,18.517 5.001,18.517 C4.974,18.517 4.946,18.515 4.919,18.511 C3.771,18.323 2.855,17.99 2.12,17.608 C2.988,19.707 5.035,21.274 7.557,21.703 C8.596,21.877 9.758,22 11,22 C12.202,22 13.357,21.887 14.399,21.718 C16.621,21.363 18.471,20.108 19.49,18.391 C17.833,19.21 16.148,19.32 16.027,19.327 C16.018,19.328 16.009,19.328 16,19.328 C15.736,19.328 15.516,19.122 15.501,18.855 C15.485,18.58 15.696,18.344 15.973,18.329 C16.006,18.326 18.478,18.164 20.18,16.757 L20.604,15.259 C21.458,14.823 22,14.275 22,13.583 C22,12.46 20.723,11.638 18.058,11.064" id="Page-1" fill="#616974"></path>
    </g>
</svg>