<?xml version="1.0" encoding="UTF-8"?>
<svg width="20px" height="20px" viewBox="0 0 20 20" version="1.1" xmlns="http://www.w3.org/2000/svg" xmlns:xlink="http://www.w3.org/1999/xlink">
    <!-- Generator: Sketch 49.3 (51167) - http://www.bohemiancoding.com/sketch -->
    <title>Glyph/ Save</title>
    <desc>Created with Sketch.</desc>
    <defs></defs>
    <g id="Glyph/-Save" stroke="none" stroke-width="1" fill="none" fill-rule="evenodd">
        <path d="M2,18 L18,18 L18,11 L2,11 L2,18 Z M5,6 L13,6 L13,1 L5,1 L5,6 Z M19.707,4.293 L15.707,0.293 C15.52,0.105 15.266,0 15,0 L2,0 C0.897,0 0,0.897 0,2 L0,18 C0,19.103 0.897,20 2,20 L18,20 C19.103,20 20,19.103 20,18 L20,5 C20,4.734 19.895,4.48 19.707,4.293 Z" id="Page-1" fill="#616974"></path>
    </g>
</svg>