<?xml version="1.0" encoding="UTF-8"?>
<svg width="18px" height="23px" viewBox="0 0 18 23" version="1.1" xmlns="http://www.w3.org/2000/svg" xmlns:xlink="http://www.w3.org/1999/xlink">
    <!-- Generator: Sketch 49.3 (51167) - http://www.bohemiancoding.com/sketch -->
    <title>Glyph/ Self-employed</title>
    <desc>Created with Sketch.</desc>
    <defs>
        <polygon id="path-1" points="8.99976377 22.0017 0 22.0017 0 1.48051651e-05 17.9995275 1.48051651e-05 17.9995275 22.0017"></polygon>
    </defs>
    <g id="Glyph/-Self-employed" stroke="none" stroke-width="1" fill="none" fill-rule="evenodd">
        <g id="Page-1">
            <mask id="mask-2" fill="white">
                <use xlink:href="#path-1"></use>
            </mask>
            <g id="Clip-2"></g>
            <path d="M16.25,12.0017 L1.75,12.0017 C1.91,10.3517 3.09,9.0117 4.72,8.6617 C5.24,8.5517 5.73,8.4517 6.21,8.3817 L6.58,8.3217 L9,10.7417 L11.42,8.3317 L11.78,8.3817 C12.29,8.4517 12.79,8.5517 13.3,8.6717 C14.91,9.0117 16.1,10.3617 16.25,12.0017 Z M6.82,3.1717 C7.11,3.0517 7.37,2.8717 7.6,2.6517 C8.03,2.9717 8.53,3.2217 9.05,3.3717 C9.74,3.5517 10.46,3.5517 11.15,3.3717 L11.18,3.3617 L11.18,4.4817 C11.14,5.6617 10.14,6.5917 8.94,6.5617 C8.73,6.5517 8.52,6.5217 8.3,6.4517 C7.41,6.1817 6.82,5.3817 6.82,4.4717 L6.82,3.1717 Z M7.85,7.8217 C8.19,7.9317 8.54,7.9917 8.9,8.0017 L9,8.0017 C10.96,8.0017 12.58,6.4517 12.64,4.5117 L12.64,3.4017 C12.59,1.4917 10.98,-0.0583 9.07,0.0017 L8.95,0.0017 C7.04,-0.0383 5.4,1.4917 5.36,3.4217 L5.36,4.4617 C5.36,6.0217 6.37,7.3717 7.85,7.8217 Z M9,18.0017 C8.033,18.0017 7.25,17.5537 7.25,17.0017 C7.25,16.4497 8.033,16.0017 9,16.0017 C9.967,16.0017 10.75,16.4497 10.75,17.0017 C10.75,17.5537 9.967,18.0017 9,18.0017 Z M17.521,13.0017 L9,13.0017 L0.479,13.0017 C0.179,13.0017 -0.047,13.3217 0.008,13.6677 L1.266,21.5427 C1.308,21.8087 1.506,22.0017 1.736,22.0017 L9,22.0017 L16.264,22.0017 C16.494,22.0017 16.692,21.8087 16.734,21.5427 L17.991,13.6677 C18.047,13.3217 17.82,13.0017 17.521,13.0017 Z" id="Fill-1" fill="#616974" mask="url(#mask-2)"></path>
        </g>
    </g>
</svg>