<?xml version="1.0" encoding="UTF-8"?>
<svg width="19px" height="20px" viewBox="0 0 19 20" version="1.1" xmlns="http://www.w3.org/2000/svg" xmlns:xlink="http://www.w3.org/1999/xlink">
    <!-- Generator: Sketch 49.3 (51167) - http://www.bohemiancoding.com/sketch -->
    <title>Glyph/ Settings</title>
    <desc>Created with Sketch.</desc>
    <defs></defs>
    <g id="Glyph/-Settings" stroke="none" stroke-width="1" fill="none" fill-rule="evenodd">
        <path d="M9.313,13 C7.659,13 6.313,11.654 6.313,10 C6.313,8.346 7.659,7 9.313,7 C10.967,7 12.313,8.346 12.313,10 C12.313,11.654 10.967,13 9.313,13 M16.313,10 C16.313,9.451 16.243,8.92 16.124,8.407 L18.626,6.131 L17.32,3.869 L14.092,4.9 C13.317,4.173 12.38,3.617 11.337,3.301 L10.619,0 L8.007,0 L7.289,3.301 C6.246,3.617 5.309,4.173 4.534,4.9 L1.306,3.869 L0,6.131 L2.502,8.407 C2.383,8.92 2.313,9.451 2.313,10 C2.313,10.549 2.383,11.08 2.502,11.593 L0,13.869 L1.305,16.131 L4.534,15.1 C5.309,15.827 6.246,16.383 7.289,16.699 L8.006,20 L10.619,20 L11.337,16.699 C12.38,16.383 13.317,15.827 14.092,15.1 L17.32,16.131 L18.626,13.869 L16.124,11.593 C16.243,11.08 16.313,10.549 16.313,10" id="Page-1" fill="#4A5D68"></path>
    </g>
</svg>