<?xml version="1.0" encoding="UTF-8"?>
<svg width="16px" height="22px" viewBox="0 0 16 22" version="1.1" xmlns="http://www.w3.org/2000/svg" xmlns:xlink="http://www.w3.org/1999/xlink">
    <!-- Generator: Sketch 49.3 (51167) - http://www.bohemiancoding.com/sketch -->
    <title>Glyph/ Share with friends</title>
    <desc>Created with Sketch.</desc>
    <defs></defs>
    <g id="Glyph/-Share-with-friends" stroke="none" stroke-width="1" fill="none" fill-rule="evenodd">
        <g id="Page-1" fill="#616974">
            <path d="M15,9 L12,9 L12,11 L14,11 L14,20 L2,20 L2,11 L4,11 L4,9 L1,9 C0.447,9 0,9.447 0,10 L0,21 C0,21.553 0.447,22 1,22 L15,22 C15.553,22 16,21.553 16,21 L16,10 C16,9.447 15.553,9 15,9" id="Fill-1"></path>
            <polygon id="Fill-3" points="7 15 9 15 9 6 13 6 8 0 3 6 7 6"></polygon>
        </g>
    </g>
</svg>