<?xml version="1.0" encoding="UTF-8"?>
<svg width="22px" height="20px" viewBox="0 0 22 20" version="1.1" xmlns="http://www.w3.org/2000/svg" xmlns:xlink="http://www.w3.org/1999/xlink">
    <!-- Generator: Sketch 49.3 (51167) - http://www.bohemiancoding.com/sketch -->
    <title>Glyph/ Shopping Cart</title>
    <desc>Created with Sketch.</desc>
    <defs></defs>
    <g id="Glyph/-Shopping-Cart" stroke="none" stroke-width="1" fill="none" fill-rule="evenodd">
        <g id="Page-1" fill="#616974">
            <path d="M21.7734,3.3662 C21.5834,3.1352 21.2994,3.0002 21.0004,3.0002 L6.0004,3.0002 L6.0004,2.5002 C6.0004,1.1212 4.8784,0.0002 3.5004,0.0002 L1.0004,0.0002 C0.4474,0.0002 0.0004,0.4472 0.0004,1.0002 C0.0004,1.5532 0.4474,2.0002 1.0004,2.0002 L3.5004,2.0002 C3.7754,2.0002 4.0004,2.2242 4.0004,2.5002 L4.0004,14.0002 C4.0004,14.5532 4.4474,15.0002 5.0004,15.0002 L19.0004,15.0002 C19.4764,15.0002 19.8874,14.6632 19.9804,14.1962 L21.9804,4.1962 C22.0394,3.9022 21.9634,3.5972 21.7734,3.3662" id="Fill-1"></path>
            <path d="M6,16 C4.897,16 4,16.897 4,18 C4,19.103 4.897,20 6,20 C7.103,20 8,19.103 8,18 C8,16.897 7.103,16 6,16" id="Fill-3"></path>
            <path d="M17,16 C15.897,16 15,16.897 15,18 C15,19.103 15.897,20 17,20 C18.103,20 19,19.103 19,18 C19,16.897 18.103,16 17,16" id="Fill-5"></path>
        </g>
    </g>
</svg>