<?xml version="1.0" encoding="UTF-8"?>
<svg width="22px" height="23px" viewBox="0 0 22 23" version="1.1" xmlns="http://www.w3.org/2000/svg" xmlns:xlink="http://www.w3.org/1999/xlink">
    <!-- Generator: Sketch 49.3 (51167) - http://www.bohemiancoding.com/sketch -->
    <title>Glyph/ side job</title>
    <desc>Created with Sketch.</desc>
    <defs>
        <polygon id="path-1" points="0.111186244 0.067 7.25 0.067 7.25 8.7182 0.111186244 8.7182 0.111186244 0.067"></polygon>
        <polygon id="path-3" points="2.66984785e-17 9.55213933 2.66984785e-17 0.9985 5.30566539 0.9985 5.30566539 9.55213933"></polygon>
    </defs>
    <g id="Glyph/-side-job" stroke="none" stroke-width="1" fill="none" fill-rule="evenodd">
        <g id="Page-1">
            <path d="M17.3223,11.1541 C15.1433,10.6811 12.8433,9.8061 12.8763,8.4861 C12.9343,6.0851 10.2083,8.4861 6.6513,10.2641 L5.7613,16.4891 C5.7613,16.4891 8.1333,17.9421 14.2653,18.5161 C15.3583,18.6181 16.3213,17.7861 15.5443,16.4891 C16.7663,16.7301 17.6553,14.7481 16.4323,13.8211 C18.0083,14.0991 18.8423,11.4841 17.3223,11.1541" id="Fill-1" fill="#616974"></path>
            <path d="M9.1904,20.4314 C8.7904,21.3314 9.2004,22.3814 10.1104,22.7814 C11.0094,23.1814 12.0594,22.7614 12.4604,21.8614 L13.2594,19.9214 C11.8604,19.7614 10.6604,19.5614 9.6394,19.3414 L9.1904,20.4314 Z" id="Fill-3" fill="#616974"></path>
            <g id="Group-7" transform="translate(14.000000, 0.933100)">
                <mask id="mask-2" fill="white">
                    <use xlink:href="#path-1"></use>
                </mask>
                <g id="Clip-6"></g>
                <path d="M6.2402,1.1482 L4.9102,4.1782 L2.4602,3.0982 L3.7802,0.0682 C2.3702,0.0282 1.0102,0.8282 0.4102,2.2082 C-0.1198,3.4182 0.0802,4.7582 0.8092,5.7482 L0.3302,6.9182 C0.3602,7.0982 0.3802,7.2782 0.3802,7.4682 C0.5702,7.6882 1.4102,8.2482 3.4502,8.7182 L4.0802,7.1782 C5.3002,7.0482 6.4202,6.2782 6.9502,5.0682 C7.5502,3.6982 7.2192,2.1582 6.2402,1.1482" id="Fill-5" fill="#616974" mask="url(#mask-2)"></path>
            </g>
            <g id="Group-10" transform="translate(0.000000, 7.933100)">
                <mask id="mask-4" fill="white">
                    <use xlink:href="#path-3"></use>
                </mask>
                <g id="Clip-9"></g>
                <path d="M4.5488,1.8855 L0.9998,0.9985 L-0.0002,8.9985 L3.2618,9.5385 C3.8108,9.6295 4.3278,9.2555 4.4128,8.7045 L5.2938,3.0085 C5.3728,2.4975 5.0498,2.0105 4.5488,1.8855" id="Fill-8" fill="#616974" mask="url(#mask-4)"></path>
            </g>
        </g>
    </g>
</svg>