<?xml version="1.0" encoding="UTF-8"?>
<svg width="20px" height="22px" viewBox="0 0 20 22" version="1.1" xmlns="http://www.w3.org/2000/svg" xmlns:xlink="http://www.w3.org/1999/xlink">
    <!-- Generator: Sketch 49.3 (51167) - http://www.bohemiancoding.com/sketch -->
    <title>Glyph/ single</title>
    <desc>Created with Sketch.</desc>
    <defs>
        <polygon id="path-1" points="20 0.443 20 10 10.00005 10 0.0001 10 0.0001 0.443"></polygon>
        <polygon id="path-3" points="14 0 8.8817842e-16 0 0 11.9998 14 11.9998 14 3.55271368e-15"></polygon>
    </defs>
    <g id="Glyph/-single" stroke="none" stroke-width="1" fill="none" fill-rule="evenodd">
        <g id="Page-1">
            <g id="Group-3" transform="translate(0.000000, 12.000000)">
                <mask id="mask-2" fill="white">
                    <use xlink:href="#path-1"></use>
                </mask>
                <g id="Clip-2"></g>
                <path d="M15.9141,0.918 C15.2151,0.75 13.0491,0.45 13.0491,0.45 C12.8821,1.059 12.6431,2.103 11.9061,3 C11.3771,3.644 10.8271,4.171 10.3631,4.523 C10.1461,4.688 9.8531,4.688 9.6371,4.523 C9.1721,4.17 8.6231,3.643 8.0941,3 C7.3531,2.101 7.1121,1.055 6.9441,0.443 C6.7911,0.469 4.8271,0.753 4.1141,0.912 C1.7441,1.411 0.0531,3.453 0.0001,5.9 L0.0001,6.514 L0.4001,6.814 C3.2261,8.939 6.6131,10 10.0001,10 C13.3871,10 16.7731,8.939 19.6001,6.814 L20.0001,6.514 L20.0001,5.879 C19.9471,3.453 18.2561,1.411 15.9141,0.918" id="Fill-1" fill="#616974" mask="url(#mask-2)"></path>
            </g>
            <g id="Group-6" transform="translate(3.000000, 0.000000)">
                <mask id="mask-4" fill="white">
                    <use xlink:href="#path-3"></use>
                </mask>
                <g id="Clip-5"></g>
                <path d="M4,4.5308 L4,4.3628 C4.401,4.1948 4.765,3.9488 5.07,3.6408 C5.671,4.0878 6.349,4.4218 7.07,4.6298 C8.013,4.8848 9.008,4.8848 9.95,4.6298 L10,4.6248 L10,7.1558 C9.945,8.7838 8.562,10.0558 6.916,10.0208 C6.623,10.0118 6.334,9.9618 6.031,9.8628 C4.813,9.4958 3.997,8.4028 4,7.1408 L4,4.5308 Z M1,7.9998 L2.08,7.9998 C2.394,9.7608 3.662,11.2158 5.424,11.7468 C5.887,11.8988 6.367,11.9838 6.857,11.9978 C6.906,11.9988 6.954,11.9998 7.002,11.9998 C9.417,11.9998 11.445,10.2838 11.896,7.9998 L13,7.9998 C13.553,7.9998 14,7.5518 14,6.9998 L14,4.9998 C14,4.4478 13.553,3.9998 13,3.9998 L11.924,3.9998 C11.573,1.7068 9.735,-0.0002 7,-0.0002 C4.271,-0.0002 2.434,1.6978 2.078,3.9998 L1,3.9998 C0.447,3.9998 0,4.4478 0,4.9998 L0,6.9998 C0,7.5518 0.447,7.9998 1,7.9998 Z" id="Fill-4" fill="#616974" mask="url(#mask-4)"></path>
            </g>
        </g>
    </g>
</svg>