<?xml version="1.0" encoding="UTF-8"?>
<svg width="22px" height="22px" viewBox="0 0 22 22" version="1.1" xmlns="http://www.w3.org/2000/svg" xmlns:xlink="http://www.w3.org/1999/xlink">
    <!-- Generator: Sketch 49.3 (51167) - http://www.bohemiancoding.com/sketch -->
    <title>Glyph/ social security benefits</title>
    <desc>Created with Sketch.</desc>
    <defs>
        <polygon id="path-1" points="0 5.71195 0 0 22 0 22 5.71195 22 11.4239 0 11.4239"></polygon>
    </defs>
    <g id="Glyph/-social-security-benefits" stroke="none" stroke-width="1" fill="none" fill-rule="evenodd">
        <g id="Page-1">
            <g id="Group-3">
                <mask id="mask-2" fill="white">
                    <use xlink:href="#path-1"></use>
                </mask>
                <g id="Clip-2"></g>
                <path d="M12,1.7129 L12,0.9999 C12,0.4479 11.552,-0.0001 11,-0.0001 C10.448,-0.0001 10,0.4479 10,0.9999 L10,1.7129 C4.832,2.1309 0.686,5.7579 0,10.3799 C0.537,10.1719 1.127,10.0559 1.748,10.0559 C2.887,10.0559 3.922,10.4479 4.708,11.0869 C5.495,10.4479 6.53,10.0559 7.669,10.0559 C8.998,10.0559 10.186,10.5869 11,11.4239 C11.814,10.5869 13.002,10.0559 14.331,10.0559 C15.47,10.0559 16.505,10.4479 17.292,11.0869 C18.078,10.4479 19.113,10.0559 20.252,10.0559 C20.873,10.0559 21.463,10.1719 22,10.3799 C21.314,5.7579 17.168,2.1309 12,1.7129" id="Fill-1" fill="#616974" mask="url(#mask-2)"></path>
            </g>
            <path d="M14,18 C13.448,18 13,18.448 13,19 L13,19.5 C13,19.776 12.776,20 12.5,20 C12.224,20 12,19.776 12,19.5 L12,12 L11,12.781 L10,12 L10,19.5 C10,20.878 11.122,22 12.5,22 C13.878,22 15,20.878 15,19.5 L15,19 C15,18.448 14.552,18 14,18" id="Fill-4" fill="#616974"></path>
        </g>
    </g>
</svg>