<?xml version="1.0" encoding="UTF-8"?>
<svg width="22px" height="22px" viewBox="0 0 22 22" version="1.1" xmlns="http://www.w3.org/2000/svg" xmlns:xlink="http://www.w3.org/1999/xlink">
    <!-- Generator: Sketch 49.3 (51167) - http://www.bohemiancoding.com/sketch -->
    <title>Glyph/ something else</title>
    <desc>Created with Sketch.</desc>
    <defs></defs>
    <g id="Glyph/-something-else" stroke="none" stroke-width="1" fill="none" fill-rule="evenodd">
        <g id="Page-1" fill="#616974">
            <path d="M7,17.5 C7,18.878 5.879,20 4.5,20 C3.121,20 2,18.878 2,17.5 C2,16.122 3.121,15 4.5,15 C4.641,15 4.777,15.019 4.912,15.042 L3.713,16.441 C3.363,16.871 3.43,17.502 3.86,17.85 L3.864,17.853 C4.293,18.2 4.921,18.133 5.269,17.705 L6.598,16.15 C6.85,16.54 7,17.002 7,17.5 Z M6.323,13.394 C5.765,13.145 5.15,13 4.5,13 C2.019,13 0,15.019 0,17.5 C0,19.981 2.019,22 4.5,22 C6.981,22 9,19.981 9,17.5 C9,16.393 8.583,15.391 7.917,14.606 L9,13.34 L9,12.42 L7.38,12.16 L6.323,13.394 Z" id="Fill-1"></path>
            <path d="M17.5,20 C16.121,20 15,18.878 15,17.5 C15,16.767 15.323,16.112 15.828,15.655 L16.158,17.388 C16.25,17.867 16.669,18.2 17.14,18.2 C17.201,18.2 17.265,18.194 17.328,18.183 C17.87,18.079 18.227,17.555 18.123,17.013 L17.744,15.024 C19.007,15.149 20,16.205 20,17.5 C20,18.878 18.879,20 17.5,20 M17.5,13 C17.452,13 17.408,13.013 17.36,13.014 L16.595,9 L19.484,9 C19.755,9 19.976,9.22 19.976,9.491 C19.976,9.762 19.755,9.982 19.484,9.982 L19,9.982 C18.447,9.982 18,10.43 18,10.982 C18,11.534 18.447,11.982 19,11.982 L19.484,11.982 C20.858,11.982 21.976,10.864 21.976,9.491 C21.976,8.117 20.858,7 19.484,7 L15.386,7 C15.353,7 15.324,7.016 15.291,7.019 C15.26,7.022 15.23,7.012 15.198,7.018 L15.197,7.018 C14.832,6.933 14.158,6.7 13.582,6.068 C13.125,5.566 12.915,5.018 12.811,4.573 C12.827,4.549 12.846,4.526 12.86,4.501 C13.301,4.897 13.869,5.146 14.5,5.146 C15.881,5.146 17,3.994 17,2.573 C17,1.152 15.881,0 14.5,0 C13.119,0 12,1.152 12,2.573 C12,2.609 12.009,2.644 12.011,2.68 C11.384,2.231 10.628,1.992 9.847,2.037 C6.317,2.242 -0.067,3.31 1,5.732 C2,8 5.798,6.521 5.795,6.529 C6.472,6.281 7.658,5.801 8.209,5.296 L8,6.286 C8,6.286 6.815,7.293 5.359,7.762 C5.135,8.531 5,9.297 5,10 C5,10.351 5.185,10.677 5.485,10.857 L10,11.566 L10,15 C10,15.552 10.447,16 11,16 C11.553,16 12,15.552 12,15 L12,10 C12,9.649 11.815,9.323 11.515,9.143 L9.139,8.717 C9.405,7.97 10.009,6.599 11.058,5.687 C11.264,6.242 11.588,6.847 12.104,7.414 C12.754,8.129 13.613,8.643 14.539,8.901 L14.749,10 L13,10 L13,12 L15.131,12 L15.423,13.532 C13.99,14.286 13,15.771 13,17.5 C13,19.981 15.019,22 17.5,22 C19.981,22 22,19.981 22,17.5 C22,15.019 19.981,13 17.5,13" id="Fill-3"></path>
        </g>
    </g>
</svg>