<?xml version="1.0" encoding="UTF-8"?>
<svg width="22px" height="21px" viewBox="0 0 22 21" version="1.1" xmlns="http://www.w3.org/2000/svg" xmlns:xlink="http://www.w3.org/1999/xlink">
    <!-- Generator: Sketch 49.3 (51167) - http://www.bohemiancoding.com/sketch -->
    <title>Glyph/ Start by typing</title>
    <desc>Created with Sketch.</desc>
    <defs></defs>
    <g id="Glyph/-Start-by-typing" stroke="none" stroke-width="1" fill="none" fill-rule="evenodd">
        <path d="M20,10.4998 C20,10.7758 19.776,10.9998 19.5,10.9998 L18.5,10.9998 C18.224,10.9998 18,10.7758 18,10.4998 L18,9.4998 C18,9.2238 18.224,8.9998 18.5,8.9998 L19.5,8.9998 C19.776,8.9998 20,9.2238 20,9.4998 L20,10.4998 Z M20,14.4998 C20,14.7758 19.776,14.9998 19.5,14.9998 L18.5,14.9998 C18.224,14.9998 18,14.7758 18,14.4998 L18,13.4998 C18,13.2238 18.224,12.9998 18.5,12.9998 L19.5,12.9998 C19.776,12.9998 20,13.2238 20,13.4998 L20,14.4998 Z M20,18.4998 C20,18.7758 19.776,18.9998 19.5,18.9998 L18.5,18.9998 C18.224,18.9998 18,18.7758 18,18.4998 L18,17.4998 C18,17.2238 18.224,16.9998 18.5,16.9998 L19.5,16.9998 C19.776,16.9998 20,17.2238 20,17.4998 L20,18.4998 Z M16,10.4998 C16,10.7758 15.776,10.9998 15.5,10.9998 L14.5,10.9998 C14.224,10.9998 14,10.7758 14,10.4998 L14,9.4998 C14,9.2238 14.224,8.9998 14.5,8.9998 L15.5,8.9998 C15.776,8.9998 16,9.2238 16,9.4998 L16,10.4998 Z M16,14.4998 C16,14.7758 15.776,14.9998 15.5,14.9998 L14.5,14.9998 C14.224,14.9998 14,14.7758 14,14.4998 L14,13.4998 C14,13.2238 14.224,12.9998 14.5,12.9998 L15.5,12.9998 C15.776,12.9998 16,13.2238 16,13.4998 L16,14.4998 Z M16,18.4998 C16,18.7758 15.776,18.9998 15.5,18.9998 L6.5,18.9998 C6.224,18.9998 6,18.7758 6,18.4998 L6,17.4998 C6,17.2238 6.224,16.9998 6.5,16.9998 L15.5,16.9998 C15.776,16.9998 16,17.2238 16,17.4998 L16,18.4998 Z M4,10.4998 C4,10.7758 3.776,10.9998 3.5,10.9998 L2.5,10.9998 C2.224,10.9998 2,10.7758 2,10.4998 L2,9.4998 C2,9.2238 2.224,8.9998 2.5,8.9998 L3.5,8.9998 C3.776,8.9998 4,9.2238 4,9.4998 L4,10.4998 Z M4,14.4998 C4,14.7758 3.776,14.9998 3.5,14.9998 L2.5,14.9998 C2.224,14.9998 2,14.7758 2,14.4998 L2,13.4998 C2,13.2238 2.224,12.9998 2.5,12.9998 L3.5,12.9998 C3.776,12.9998 4,13.2238 4,13.4998 L4,14.4998 Z M4,18.4998 C4,18.7758 3.776,18.9998 3.5,18.9998 L2.5,18.9998 C2.224,18.9998 2,18.7758 2,18.4998 L2,17.4998 C2,17.2238 2.224,16.9998 2.5,16.9998 L3.5,16.9998 C3.776,16.9998 4,17.2238 4,17.4998 L4,18.4998 Z M6,13.4998 C6,13.2238 6.224,12.9998 6.5,12.9998 L7.5,12.9998 C7.776,12.9998 8,13.2238 8,13.4998 L8,14.4998 C8,14.7758 7.776,14.9998 7.5,14.9998 L6.5,14.9998 C6.224,14.9998 6,14.7758 6,14.4998 L6,13.4998 Z M6,9.4998 C6,9.2238 6.224,8.9998 6.5,8.9998 L7.5,8.9998 C7.776,8.9998 8,9.2238 8,9.4998 L8,10.4998 C8,10.7758 7.776,10.9998 7.5,10.9998 L6.5,10.9998 C6.224,10.9998 6,10.7758 6,10.4998 L6,9.4998 Z M10,13.4998 C10,13.2238 10.224,12.9998 10.5,12.9998 L11.5,12.9998 C11.776,12.9998 12,13.2238 12,13.4998 L12,14.4998 C12,14.7758 11.776,14.9998 11.5,14.9998 L10.5,14.9998 C10.224,14.9998 10,14.7758 10,14.4998 L10,13.4998 Z M10,9.4998 C10,9.2238 10.224,8.9998 10.5,8.9998 L11.5,8.9998 C11.776,8.9998 12,9.2238 12,9.4998 L12,10.4998 C12,10.7758 11.776,10.9998 11.5,10.9998 L10.5,10.9998 C10.224,10.9998 10,10.7758 10,10.4998 L10,9.4998 Z M21,6.9998 L12.763,6.9998 C13.225,5.5428 12.905,4.5638 12.612,4.0518 C12.126,3.2008 11.208,2.6918 10.158,2.6918 C9.711,2.6918 9.4,2.5918 9.234,2.3928 C8.948,2.0508 8.989,1.3898 9.024,1.1918 C9.13,0.6498 8.777,0.1248 8.235,0.0188 C7.693,-0.0862 7.168,0.2648 7.062,0.8078 C7.028,0.9798 6.757,2.5288 7.686,3.6588 C8.074,4.1308 8.818,4.6918 10.158,4.6918 C10.394,4.6918 10.709,4.7538 10.876,5.0448 C11.064,5.3738 11.071,6.0448 10.614,6.9998 L1,6.9998 C0.448,6.9998 0,7.4468 0,7.9998 L0,19.9998 C0,20.5528 0.448,20.9998 1,20.9998 L21,20.9998 C21.552,20.9998 22,20.5528 22,19.9998 L22,7.9998 C22,7.4468 21.552,6.9998 21,6.9998 Z" id="Page-1" fill="#616974"></path>
    </g>
</svg>