<?xml version="1.0" encoding="UTF-8"?>
<svg width="20px" height="22px" viewBox="0 0 20 22" version="1.1" xmlns="http://www.w3.org/2000/svg" xmlns:xlink="http://www.w3.org/1999/xlink">
    <!-- Generator: Sketch 49.3 (51167) - http://www.bohemiancoding.com/sketch -->
    <title>Glyph/ state taxes</title>
    <desc>Created with Sketch.</desc>
    <defs></defs>
    <g id="Glyph/-state-taxes" stroke="none" stroke-width="1" fill="none" fill-rule="evenodd">
        <path d="M11,19 L16,19 L16,11 L11,11 L11,19 Z M8,7 C8,5.896 8.896,5 10,5 C11.104,5 12,5.896 12,7 C12,8.104 11.104,9 10,9 C8.896,9 8,8.104 8,7 Z M4,19 L9,19 L9,11 L4,11 L4,19 Z M20,10 L20,9 L17.92,9 L11,2.884 L11,0 L9,0 L9,2.884 L2.08,9 L0,9 L0,10 C0,10.552 0.447,11 1,11 L2,11 L2,19 L1,19 C0.447,19 0,19.448 0,20 L0,22 L20,22 L20,20 C20,19.448 19.553,19 19,19 L18,19 L18,11 L19,11 C19.553,11 20,10.552 20,10 Z" id="Page-1" fill="#616974"></path>
    </g>
</svg>