<?xml version="1.0" encoding="UTF-8"?>
<svg width="22px" height="22px" viewBox="0 0 22 22" version="1.1" xmlns="http://www.w3.org/2000/svg" xmlns:xlink="http://www.w3.org/1999/xlink">
    <!-- Generator: Sketch 49.3 (51167) - http://www.bohemiancoding.com/sketch -->
    <title>Glyph/ stocks bonds</title>
    <desc>Created with Sketch.</desc>
    <defs></defs>
    <g id="Glyph/-stocks-bonds" stroke="none" stroke-width="1" fill="none" fill-rule="evenodd">
        <g id="Page-1" fill="#616974">
            <path d="M2,20 L2,0 L0,0 L0,20.149 C0,21.169 0.758,22 1.689,22 L22,22 L22,20 L2,20 Z" id="Fill-1"></path>
            <path d="M5,18 L7,18 C7.552,18 8,17.552 8,17 L8,15 C8,14.448 7.552,14 7,14 L5,14 C4.448,14 4,14.448 4,15 L4,17 C4,17.552 4.448,18 5,18" id="Fill-3"></path>
            <path d="M11,11 C10.448,11 10,11.448 10,12 L10,17 C10,17.552 10.448,18 11,18 L13,18 C13.552,18 14,17.552 14,17 L14,12 C14,11.448 13.552,11 13,11 L11,11 Z" id="Fill-5"></path>
            <path d="M17,18 L19,18 C19.552,18 20,17.552 20,17 L20,7 C20,6.448 19.552,6 19,6 L17,6 C16.448,6 16,6.448 16,7 L16,17 C16,17.552 16.448,18 17,18" id="Fill-7"></path>
            <path d="M4.7788,7.0171 L5.2388,8.9631 C5.4618,8.9111 9.9438,7.8061 13.2428,4.2431 L14.9998,6.0001 L14.9998,1.0001 L9.9998,1.0001 L11.8268,2.8271 C8.9288,5.9841 4.8268,7.0061 4.7788,7.0171" id="Fill-9"></path>
        </g>
    </g>
</svg>