<?xml version="1.0" encoding="UTF-8"?>
<svg width="22px" height="20px" viewBox="0 0 22 20" version="1.1" xmlns="http://www.w3.org/2000/svg" xmlns:xlink="http://www.w3.org/1999/xlink">
    <!-- Generator: Sketch 49.3 (51167) - http://www.bohemiancoding.com/sketch -->
    <title>Glyph/ student in family</title>
    <desc>Created with Sketch.</desc>
    <defs></defs>
    <g id="Glyph/-student-in-family" stroke="none" stroke-width="1" fill="none" fill-rule="evenodd">
        <g id="Page-1" fill="#616974">
            <path d="M4,2.0312 C7.499,2.2562 9.372,3.6182 10,4.1762 L10,14.1472 C8.741,13.4012 6.776,12.6002 4,12.4422 L4,2.0312 Z M18,12.4422 C15.224,12.6002 13.259,13.4012 12,14.1472 L12,4.1772 C12.634,3.6142 14.507,2.2552 18,2.0312 L18,12.4422 Z M21,2.0692 L20,2.0692 L20,0.0002 L19,0.0002 C14.726,0.0002 12.168,1.4992 11,2.4162 C9.834,1.5002 7.275,0.0002 3,0.0002 L2,0.0002 L2,2.0692 L1,2.0692 C0.447,2.0692 0,2.5162 0,3.0692 L0,15.1372 C0,15.6112 0.332,16.0202 0.796,16.1162 L8.45,17.7112 C8.768,18.4892 9.547,19.2412 11,19.2412 C12.453,19.2412 13.233,18.4892 13.551,17.7112 L21.204,16.1162 C21.668,16.0202 22,15.6112 22,15.1372 L22,3.0692 C22,2.5162 21.553,2.0692 21,2.0692 Z" id="Fill-1"></path>
            <path d="M13.5186,7.0625 C13.6746,7.0625 13.8316,7.0135 13.9666,6.9125 C14.3586,6.6195 15.2266,6.0905 16.6466,5.8435 C17.0546,5.7725 17.3276,5.3845 17.2566,4.9765 C17.1856,4.5685 16.7976,4.2925 16.3886,4.3665 C14.7476,4.6515 13.6776,5.2555 13.0686,5.7125 C12.7366,5.9605 12.6686,6.4305 12.9166,6.7625 C13.0646,6.9585 13.2896,7.0625 13.5186,7.0625" id="Fill-3"></path>
            <path d="M13.5186,10.0625 C13.6746,10.0625 13.8316,10.0135 13.9666,9.9125 C14.3586,9.6195 15.2266,9.0905 16.6466,8.8435 C17.0546,8.7725 17.3276,8.3845 17.2566,7.9765 C17.1856,7.5675 16.7976,7.2955 16.3886,7.3665 C14.7476,7.6515 13.6776,8.2555 13.0686,8.7125 C12.7366,8.9605 12.6686,9.4305 12.9166,9.7625 C13.0646,9.9585 13.2896,10.0625 13.5186,10.0625" id="Fill-5"></path>
            <path d="M5.6465,4.3662 C5.2365,4.2932 4.8495,4.5682 4.7785,4.9762 C4.7085,5.3842 4.9805,5.7732 5.3885,5.8442 C6.8085,6.0912 7.6765,6.6192 8.0685,6.9122 C8.2035,7.0132 8.3605,7.0622 8.5165,7.0622 C8.7455,7.0622 8.9705,6.9592 9.1185,6.7622 C9.3665,6.4302 9.2985,5.9602 8.9665,5.7122 C8.3575,5.2562 7.2875,4.6522 5.6465,4.3662" id="Fill-7"></path>
            <path d="M5.6465,7.3662 C5.2365,7.2962 4.8495,7.5682 4.7785,7.9762 C4.7085,8.3842 4.9805,8.7732 5.3885,8.8442 C6.8085,9.0912 7.6765,9.6192 8.0685,9.9122 C8.2035,10.0132 8.3605,10.0622 8.5165,10.0622 C8.7455,10.0622 8.9705,9.9592 9.1185,9.7622 C9.3665,9.4302 9.2985,8.9602 8.9665,8.7122 C8.3575,8.2562 7.2875,7.6522 5.6465,7.3662" id="Fill-9"></path>
        </g>
    </g>
</svg>