<?xml version="1.0" encoding="UTF-8"?>
<svg width="23px" height="22px" viewBox="0 0 23 22" version="1.1" xmlns="http://www.w3.org/2000/svg" xmlns:xlink="http://www.w3.org/1999/xlink">
    <!-- Generator: Sketch 49.3 (51167) - http://www.bohemiancoding.com/sketch -->
    <title>Glyph/ Talk to an expert</title>
    <desc>Created with Sketch.</desc>
    <defs></defs>
    <g id="Glyph/-Talk-to-an-expert" stroke="none" stroke-width="1" fill="none" fill-rule="evenodd">
        <g id="Page-1" fill="#616974">
            <path d="M20.9231,15.5772 C20.9221,15.5112 20.8951,15.4482 20.8471,15.4012 L20.2471,14.8202 C20.1491,14.7242 19.9901,14.7272 19.8951,14.8252 L17.2941,17.4842 L16.0951,16.3572 C16.0471,16.3112 15.9761,16.2882 15.9141,16.2892 C15.8461,16.2922 15.7831,16.3222 15.7381,16.3722 L15.1801,16.9932 C15.0891,17.0952 15.0961,17.2502 15.1951,17.3432 L16.9381,18.9672 C16.9441,18.9732 16.9501,18.9772 16.9571,18.9822 L17.1601,19.1802 C17.2091,19.2262 17.2721,19.2502 17.3341,19.2502 C17.3991,19.2502 17.4641,19.2242 17.5131,19.1752 L20.8521,15.7562 C20.8981,15.7082 20.9241,15.6442 20.9231,15.5772 Z M22.0101,13.8572 L22.0101,18.6922 C22.0101,18.6922 21.2601,20.8382 18.0101,21.8342 C14.7601,21.0722 14.0101,18.6922 14.0101,18.6922 L14.0101,13.8572 L18.0101,12.1662 L22.0101,13.8572 Z M13.8401,12.8402 C13.1401,12.7002 12.2001,12.5192 11.5501,12.4202 L9.0301,15.4002 L6.5001,12.4202 C5.8201,12.5192 4.8201,12.7202 4.1101,12.8602 C1.7401,13.3092 0.0501,15.1502 0.0001,17.3402 L0.0001,17.8902 L0.4001,18.1602 C3.2301,20.0592 5.6201,21.0102 9.0101,21.0102 L9.0401,21.0102 C10.8101,21.0102 12.3101,20.7502 13.7301,20.2302 C13.2401,19.5592 13.0701,19.0402 13.0601,18.9902 L13.0101,18.8492 L13.0101,13.1902 L13.8401,12.8402 Z M3.2681,10.0072 C3.2681,10.0072 4.2841,8.3892 3.9451,6.8802 C2.9811,2.5842 4.9641,1.4242 5.7361,1.2502 C6.3721,0.5102 7.6611,0.0002 9.0301,0.0002 C9.3691,0.0002 15.4921,0.0042 14.1341,6.8802 C13.7751,8.6992 14.8121,10.0072 14.8121,10.0072 C14.4081,10.3282 12.9971,11.3722 10.8561,11.7952 L10.8561,10.0952 C11.0791,9.9482 11.2951,9.7842 11.4941,9.5982 C12.1491,8.9852 12.6301,8.1642 12.6301,7.2682 L12.6301,5.3572 L12.6301,4.4552 C11.9621,4.7262 10.5671,5.0002 9.0251,4.6182 C8.1161,4.3932 7.4261,4.0182 6.9871,3.7252 C6.4151,4.4552 5.4551,4.7992 5.4331,4.7992 L5.4331,5.3572 L5.4331,5.5922 L5.4331,6.7942 L5.4331,7.2682 C5.4331,8.1672 5.9141,8.9912 6.5711,9.6042 C6.7591,9.7792 6.9601,9.9372 7.1691,10.0762 L7.1691,11.7852 C5.0641,11.3552 3.6761,10.3322 3.2681,10.0072 Z" id="Fill-1"></path>
        </g>
    </g>
</svg>