<?xml version="1.0" encoding="UTF-8"?>
<svg width="22px" height="16px" viewBox="0 0 22 16" version="1.1" xmlns="http://www.w3.org/2000/svg" xmlns:xlink="http://www.w3.org/1999/xlink">
    <!-- Generator: Sketch 49.3 (51167) - http://www.bohemiancoding.com/sketch -->
    <title>Glyph/ Tax Caster</title>
    <desc>Created with Sketch.</desc>
    <defs></defs>
    <g id="Glyph/-Tax-Caster" stroke="none" stroke-width="1" fill="none" fill-rule="evenodd">
        <g id="Page-1" fill="#616974">
            <path d="M11.4009,12.04 L9.9489,7.684 C9.7749,7.16 9.2099,6.876 8.6839,7.052 C8.1599,7.226 7.8769,7.792 8.0509,8.316 L9.5059,12.682 C9.1949,13.034 8.9999,13.492 8.9999,14 C8.9999,15.104 9.8959,16 10.9999,16 C12.1049,16 12.9999,15.104 12.9999,14 C12.9999,13.033 12.3139,12.227 11.4009,12.04" id="Fill-1"></path>
            <path d="M11,0 L11,4.618 C12.047,4.771 13.021,5.152 13.867,5.719 L17.525,2.061 C15.699,0.771 13.447,0 11,0" id="Fill-3"></path>
            <path d="M9,0.1816 C6.831,0.5626 4.888,1.5466 3.365,2.9516 L6.133,5.7186 C6.979,5.1526 7.953,4.7706 9,4.6186 L9,0.1816 Z" id="Fill-5"></path>
            <path d="M19.0518,3.3623 L15.3568,7.0573 C16.2678,8.1423 16.8678,9.5033 16.9998,11.0003 L21.9898,11.0003 C21.9998,10.8303 21.9998,10.6703 21.9998,10.5003 C21.9998,7.7393 20.8758,5.2363 19.0518,3.3623" id="Fill-7"></path>
            <path d="M0,10.5 C0,10.67 0,10.83 0.011,11 L3,11 C3.132,9.503 3.732,8.143 4.644,7.058 L2.026,4.44 C0.754,6.153 0,8.24 0,10.5" id="Fill-9"></path>
        </g>
    </g>
</svg>