<?xml version="1.0" encoding="UTF-8"?>
<svg width="22px" height="20px" viewBox="0 0 22 20" version="1.1" xmlns="http://www.w3.org/2000/svg" xmlns:xlink="http://www.w3.org/1999/xlink">
    <!-- Generator: Sketch 49.3 (51167) - http://www.bohemiancoding.com/sketch -->
    <title>Glyph/ Tax Center</title>
    <desc>Created with Sketch.</desc>
    <defs></defs>
    <g id="Glyph/-Tax-Center" stroke="none" stroke-width="1" fill="none" fill-rule="evenodd">
        <g id="Page-1" fill="#616974">
            <polygon id="Fill-1" points="0 10.9995 0 17.9995 4 17.9995 4 9.9995"></polygon>
            <g id="Group-8" transform="translate(2.000000, -0.000500)">
                <path d="M9,2.2285 L16.119,7.3135 L17.281,5.6865 L9.581,0.1865 C9.233,-0.0615 8.767,-0.0615 8.419,0.1865 L0.719,5.6865 L1.881,7.3135 L9,2.2285 Z" id="Fill-2"></path>
                <polygon id="Fill-4" points="16 10 16 18 20 18 20 11"></polygon>
                <path d="M9.793,6.4785 L9.793,7.4855 C10.605,7.5925 11.293,7.8815 11.991,8.4005 L12.263,8.6025 L11.312,9.7675 L11.023,9.5485 C10.379,9.0625 9.731,8.8355 8.987,8.8355 C8.216,8.8355 7.678,9.1815 7.678,9.6755 C7.678,10.1085 7.81,10.4415 9.522,10.7815 C11.484,11.1765 12.359,11.9105 12.359,13.1595 C12.359,14.4465 11.323,15.3725 9.793,15.5325 L9.793,16.5215 C9.793,16.7855 9.562,16.9995 9.277,16.9995 L8.76,16.9995 C8.475,16.9995 8.243,16.7855 8.243,16.5215 L8.243,15.4625 C7.384,15.2975 6.615,14.9255 5.881,14.3195 L5.62,14.1035 L6.635,12.9925 L6.91,13.2235 C7.708,13.8915 8.417,14.1645 9.357,14.1645 C10.175,14.1645 10.745,13.7925 10.745,13.2625 C10.745,12.8205 10.623,12.5065 8.992,12.1885 C7.477,11.8825 6.074,11.3785 6.074,9.7685 C6.074,8.6305 6.953,7.7635 8.243,7.5145 L8.243,6.4785 C8.243,6.2145 8.475,5.9995 8.76,5.9995 L9.277,5.9995 C9.562,5.9995 9.793,6.2145 9.793,6.4785 Z M3,7.7495 L3,19.9995 L15,19.9995 L15,7.7495 L9,3.4595 L3,7.7495 Z" id="Fill-6"></path>
            </g>
        </g>
    </g>
</svg>