<?xml version="1.0" encoding="UTF-8"?>
<svg width="22px" height="22px" viewBox="0 0 22 22" version="1.1" xmlns="http://www.w3.org/2000/svg" xmlns:xlink="http://www.w3.org/1999/xlink">
    <!-- Generator: Sketch 49.3 (51167) - http://www.bohemiancoding.com/sketch -->
    <title>Glyph/ Timer</title>
    <desc>Created with Sketch.</desc>
    <defs>
        <polygon id="path-1" points="0 10.0152 0 20 22 20 22 10.0152 22 0.0304 0 0.0304"></polygon>
    </defs>
    <g id="Glyph/-Timer" stroke="none" stroke-width="1" fill="none" fill-rule="evenodd">
        <g id="Page-1">
            <path d="M11,15 C13.209,15 15,13.209 15,11 C15,10.26 14.785,9.574 14.435,8.979 L19.707,3.707 C20.098,3.316 20.098,2.684 19.707,2.293 C19.316,1.902 18.684,1.902 18.293,2.293 L13.021,7.565 C12.426,7.215 11.74,7 11,7 C8.791,7 7,8.791 7,11 C7,13.209 8.791,15 11,15" id="Fill-1" fill="#616974"></path>
            <g id="Group-5" transform="translate(0.000000, 2.000000)">
                <mask id="mask-2" fill="white">
                    <use xlink:href="#path-1"></use>
                </mask>
                <g id="Clip-4"></g>
                <path d="M20.29,3.1104 L18.83,4.5704 C19.6,5.9104 20,7.4294 20,9.0004 C20,13.9604 15.96,18.0004 11,18.0004 C6.04,18.0004 2,13.9604 2,9.0004 C2,6.6704 2.9,4.4504 4.49,2.7804 L5.85,4.1504 L7.269,2.7304 L4.56,0.0304 L3.86,0.6304 C1.41,2.7194 0,5.7694 0,9.0004 C0,15.0704 4.93,20.0004 11,20.0004 C17.07,20.0004 22,15.0704 22,9.0004 C22,6.9004 21.41,4.8604 20.29,3.1104" id="Fill-3" fill="#616974" mask="url(#mask-2)"></path>
            </g>
            <path d="M16.8896,1.71 C15.1396,0.59 13.0996,0 10.9996,0 L10.9996,2 C12.5706,2 14.0896,2.4 15.4296,3.17 L16.8896,1.71 Z" id="Fill-6" fill="#616974"></path>
        </g>
    </g>
</svg>