<?xml version="1.0" encoding="UTF-8"?>
<svg width="22px" height="16px" viewBox="0 0 22 16" version="1.1" xmlns="http://www.w3.org/2000/svg" xmlns:xlink="http://www.w3.org/1999/xlink">
    <!-- Generator: Sketch 49.3 (51167) - http://www.bohemiancoding.com/sketch -->
    <title>Glyph/ Topic List</title>
    <desc>Created with Sketch.</desc>
    <defs>
        <polygon id="path-1" points="0 16 22 16 22 0 0 0"></polygon>
    </defs>
    <g id="Glyph/-Topic-List" stroke="none" stroke-width="1" fill="none" fill-rule="evenodd">
        <g id="Page-1">
            <path d="M2,0 C3.104,0 4,0.896 4,2 C4,3.104 3.104,4 2,4 C0.896,4 0,3.104 0,2 C0,0.896 0.896,0 2,0 Z" id="Fill-1" fill="#616974"></path>
            <mask id="mask-2" fill="white">
                <use xlink:href="#path-1"></use>
            </mask>
            <g id="Clip-4"></g>
            <polygon id="Fill-3" fill="#616974" mask="url(#mask-2)" points="6 3 22 3 22 1 6 1"></polygon>
            <path d="M2,12 C0.896,12 0,12.896 0,14 C0,15.104 0.896,16 2,16 C3.104,16 4,15.104 4,14 C4,12.896 3.104,12 2,12" id="Fill-5" fill="#616974" mask="url(#mask-2)"></path>
            <polygon id="Fill-6" fill="#616974" mask="url(#mask-2)" points="6 15 22 15 22 13 6 13"></polygon>
            <path d="M2,6 C0.896,6 0,6.896 0,8 C0,9.104 0.896,10 2,10 C3.104,10 4,9.104 4,8 C4,6.896 3.104,6 2,6" id="Fill-7" fill="#616974" mask="url(#mask-2)"></path>
            <polygon id="Fill-8" fill="#616974" mask="url(#mask-2)" points="6 9 18 9 18 7 6 7"></polygon>
        </g>
    </g>
</svg>