<?xml version="1.0" encoding="UTF-8"?>
<svg width="18px" height="22px" viewBox="0 0 18 22" version="1.1" xmlns="http://www.w3.org/2000/svg" xmlns:xlink="http://www.w3.org/1999/xlink">
    <!-- Generator: Sketch 49.3 (51167) - http://www.bohemiancoding.com/sketch -->
    <title>Glyph/ Touch ID</title>
    <desc>Created with Sketch.</desc>
    <defs>
        <polygon id="path-1" points="11.1759555 4 0.115336227 4 0.115336227 0.305244715 11.1759555 0.305244715"></polygon>
    </defs>
    <g id="Glyph/-Touch-ID" stroke="none" stroke-width="1" fill="none" fill-rule="evenodd">
        <g id="Page-1">
            <path d="M2,12.8521 L2,9.1481 C2,7.6551 2.446,6.2251 3.29,5.0131 C3.605,4.5591 3.493,3.9361 3.04,3.6211 C2.587,3.3041 1.963,3.4161 1.647,3.8701 C0.57,5.4191 0,7.2451 0,9.1481 L0,12.8521 C0,14.3621 0.37,15.8591 1.069,17.1801 C1.249,17.5191 1.596,17.7121 1.954,17.7121 C2.111,17.7121 2.271,17.6751 2.421,17.5961 C2.909,17.3371 3.096,16.7321 2.837,16.2441 C2.289,15.2101 2,14.0371 2,12.8521" id="Fill-1" fill="#616974"></path>
            <g id="Group-5" transform="translate(3.000000, 18.000000)">
                <mask id="mask-2" fill="white">
                    <use xlink:href="#path-1"></use>
                </mask>
                <g id="Clip-4"></g>
                <path d="M9.6465,0.9551 C8.5515,1.6391 7.2915,2.0001 6.0005,2.0001 C4.4415,2.0001 2.9655,1.4881 1.7335,0.5191 C1.2965,0.1771 0.6695,0.2541 0.3295,0.6871 C-0.0125,1.1211 0.0635,1.7501 0.4975,2.0911 C2.0855,3.3401 3.9885,4.0001 6.0005,4.0001 C7.6665,4.0001 9.2925,3.5341 10.7055,2.6511 C11.1735,2.3591 11.3165,1.7421 11.0245,1.2731 C10.7305,0.8051 10.1145,0.6621 9.6465,0.9551" id="Fill-3" fill="#616974" mask="url(#mask-2)"></path>
            </g>
            <path d="M9,0 C7.43,0 5.883,0.418 4.526,1.208 C4.05,1.486 3.889,2.099 4.166,2.576 C4.445,3.053 5.059,3.215 5.534,2.936 C6.584,2.324 7.783,2 9,2 C12.859,2 16,5.207 16,9.148 L16,12.852 C16,14.246 15.607,15.597 14.864,16.758 C14.566,17.223 14.702,17.841 15.167,18.139 C15.334,18.246 15.521,18.297 15.705,18.297 C16.034,18.297 16.357,18.134 16.548,17.836 C17.498,16.353 18,14.629 18,12.852 L18,9.148 C18,4.104 13.963,0 9,0" id="Fill-6" fill="#616974"></path>
            <path d="M12,10 L12,12.852 C12,14.751 10.491,16.296 8.637,16.296 C8.084,16.296 7.637,16.744 7.637,17.296 C7.637,17.849 8.084,18.296 8.637,18.296 C11.594,18.296 14,15.854 14,12.852 L14,10 C14,9.448 13.553,9 13,9 C12.447,9 12,9.448 12,10" id="Fill-8" fill="#616974"></path>
            <path d="M7,15.6421 C8.654,15.6421 10,14.2801 10,12.6051 L10,9.0001 C10,8.4481 9.553,8.0001 9,8.0001 C8.447,8.0001 8,8.4481 8,9.0001 L8,12.6051 C8,13.1771 7.552,13.6421 7,13.6421 C6.448,13.6421 6,13.1771 6,12.6051 L6,9.2101 C6,7.5151 7.346,6.1361 9,6.1361 C9.833,6.1361 10.608,6.4781 11.182,7.1001 C11.557,7.5061 12.191,7.5311 12.595,7.1571 C13.001,6.7821 13.026,6.1491 12.652,5.7441 C11.709,4.7221 10.378,4.1361 9,4.1361 C6.243,4.1361 4,6.4121 4,9.2101 L4,12.6051 C4,14.2801 5.346,15.6421 7,15.6421" id="Fill-10" fill="#616974"></path>
        </g>
    </g>
</svg>