<?xml version="1.0" encoding="UTF-8"?>
<svg width="21px" height="22px" viewBox="0 0 21 22" version="1.1" xmlns="http://www.w3.org/2000/svg" xmlns:xlink="http://www.w3.org/1999/xlink">
    <!-- Generator: Sketch 49.3 (51167) - http://www.bohemiancoding.com/sketch -->
    <title>Glyph/ unemployed</title>
    <desc>Created with Sketch.</desc>
    <defs>
        <polygon id="path-1" points="0 21.6647 21 21.6647 21 -0.0003 0 -0.0003"></polygon>
    </defs>
    <g id="Glyph/-unemployed" stroke="none" stroke-width="1" fill="none" fill-rule="evenodd">
        <g id="Page-1">
            <path d="M14.4082,17.3233 C15.4272,16.3043 15.4272,14.6463 14.4082,13.6273 C13.8982,13.1173 13.2292,12.8633 12.5592,12.8633 C11.8892,12.8633 11.2212,13.1173 10.7122,13.6273 C9.6932,14.6463 9.6932,16.3043 10.7122,17.3233 C11.7312,18.3423 13.3882,18.3423 14.4082,17.3233 Z M9.4192,12.3343 C11.1502,10.6023 13.9692,10.6023 15.7012,12.3333 C17.4322,14.0663 17.4322,16.8843 15.7012,18.6153 L15.7012,18.6163 C14.8352,19.4823 13.6972,19.9153 12.5592,19.9153 C11.7132,19.9153 10.8682,19.6733 10.1342,19.1943 L7.6632,21.6643 L6.3702,20.3723 L8.8412,17.9013 C7.7172,16.1793 7.9082,13.8443 9.4192,12.3343 Z" id="Fill-1" fill="#616974"></path>
            <mask id="mask-2" fill="white">
                <use xlink:href="#path-1"></use>
            </mask>
            <g id="Clip-4"></g>
            <path d="M5,3.9997 L19,3.9997 L19,1.9997 L5,1.9997 L5,3.9997 Z M13,6.9997 L19,6.9997 L19,5.9997 L13,5.9997 L13,6.9997 Z M13,8.9997 L19,8.9997 L19,7.9997 L13,7.9997 L13,8.9997 Z M5,6.9997 L11,6.9997 L11,5.9997 L5,5.9997 L5,6.9997 Z M5,8.9997 L11,8.9997 L11,7.9997 L5,7.9997 L5,8.9997 Z M3,-0.0003 L3,13.4997 C3,13.7797 2.78,13.9997 2.5,13.9997 C2.22,13.9997 2,13.7797 2,13.4997 L2,3.9997 L0,3.9997 L0,13.4997 C0,14.8797 1.12,15.9997 2.5,15.9997 L6.96,15.9997 C6.8,14.3697 7.36,12.7007 8.57,11.4907 C9.63,10.4197 11.05,9.8297 12.56,9.8297 C14.07,9.8297 15.48,10.4197 16.55,11.4797 C17.78,12.7197 18.33,14.3897 18.17,15.9997 L18.5,15.9997 C19.88,15.9997 21,14.8797 21,13.4997 L21,-0.0003 L3,-0.0003 Z" id="Fill-3" fill="#616974" mask="url(#mask-2)"></path>
        </g>
    </g>
</svg>