<?xml version="1.0" encoding="UTF-8"?>
<svg width="19px" height="22px" viewBox="0 0 19 22" version="1.1" xmlns="http://www.w3.org/2000/svg" xmlns:xlink="http://www.w3.org/1999/xlink">
    <!-- Generator: Sketch 49.3 (51167) - http://www.bohemiancoding.com/sketch -->
    <title>Glyph/ Upgrade</title>
    <desc>Created with Sketch.</desc>
    <defs></defs>
    <g id="Glyph/-Upgrade" stroke="none" stroke-width="1" fill="none" fill-rule="evenodd">
        <path d="M12.298,9.57225 C12.298,14.84625 8.549,16.00025 4.503,16.00025 C4.033,16.00025 3.572,15.95525 3.129,15.87225 C6.519,15.24825 8.617,14.23325 8.617,9.57225 L5.959,9.57225 L10.457,4.00025 L14.955,9.57225 L12.298,9.57225 Z M18.507,5.13725 L10.007,0.13725 C9.694,-0.04575 9.306,-0.04575 8.993,0.13725 L0.493,5.13725 C0.188,5.31725 0,5.64525 0,6.00025 L0,16.00025 C0,16.35425 0.188,16.68225 0.493,16.86225 L8.993,21.86225 C9.15,21.95425 9.325,22.00025 9.5,22.00025 C9.675,22.00025 9.851,21.95425 10.007,21.86225 L18.507,16.86225 C18.813,16.68225 19,16.35425 19,16.00025 L19,6.00025 C19,5.64525 18.813,5.31725 18.507,5.13725 Z" id="Fill-1" fill="#616974"></path>
    </g>
</svg>