<?xml version="1.0" encoding="UTF-8"?>
<svg width="22px" height="18px" viewBox="0 0 22 18" version="1.1" xmlns="http://www.w3.org/2000/svg" xmlns:xlink="http://www.w3.org/1999/xlink">
    <!-- Generator: Sketch 49.3 (51167) - http://www.bohemiancoding.com/sketch -->
    <title>Glyph/ USA</title>
    <desc>Created with Sketch.</desc>
    <defs>
        <polygon id="path-1" points="4.06575815e-20 0.684934631 4.06575815e-20 5 21.9998 5 21.9998 0.684934631 0 0.684934631"></polygon>
        <polygon id="path-3" points="13 0.6515 13 4.68246986 0.3442 4.68246986 0.3442 0.6515 13 0.6515"></polygon>
        <polygon id="path-5" points="0.3441 0 13 0 13 4.25279293 0.3441 4.25279293"></polygon>
        <polygon id="path-7" points="8.88164867e-16 4.48391644 8.88164867e-16 0.0926458205 21.9998 0.0926458205 21.9998 4.48391644"></polygon>
        <polygon id="path-9" points="0 3.9524 0 0 8 0 8 7.9048 0 7.9048 0 3.9524"></polygon>
    </defs>
    <g id="Glyph/-USA" stroke="none" stroke-width="1" fill="none" fill-rule="evenodd">
        <g id="Page-1">
            <g id="Group-3" transform="translate(0.000000, 13.000000)">
                <mask id="mask-2" fill="white">
                    <use xlink:href="#path-1"></use>
                </mask>
                <g id="Clip-2"></g>
                <path d="M16.1938,2.043 C14.0998,2.043 12.0358,1.672 10.0068,1.31 L9.1278,1.152 C8.2628,0.999 7.3798,0.854 6.4828,0.76 C5.0268,0.654 3.6718,0.662 2.4218,0.773 C1.6868,0.876 0.9438,1.042 0.1938,1.289 C0.1298,1.31 0.0648,1.314 -0.0002,1.314 L-0.0002,4.276 C3.3328,3.232 6.5658,3.663 9.3398,4.153 L10.0428,4.28 C13.3398,4.869 16.8688,5.423 20.0438,4.536 C20.6918,4.357 21.3438,4.114 21.9998,3.799 L21.9998,0.995 C21.2248,1.323 20.4578,1.557 19.6908,1.724 C18.6448,1.954 17.2248,2.043 16.1938,2.043" id="Fill-1" fill="#616974" mask="url(#mask-2)"></path>
            </g>
            <g id="Group-6" transform="translate(9.000000, 4.000000)">
                <mask id="mask-4" fill="white">
                    <use xlink:href="#path-3"></use>
                </mask>
                <g id="Clip-5"></g>
                <path d="M11.8872,1.1275 C11.7932,1.1585 11.7042,1.1945 11.6102,1.2255 C7.9662,2.5115 3.9632,1.9865 0.3442,1.3585 L0.3442,3.9985 C3.7352,4.5765 7.6202,5.0745 10.8312,4.2385 C11.5692,4.0425 12.2912,3.7795 13.0002,3.4325 L13.0002,0.6515 C12.9842,0.6605 12.9712,0.6645 12.9552,0.6695 C12.8002,0.7405 12.2702,0.9715 11.8872,1.1275" id="Fill-4" fill="#616974" mask="url(#mask-4)"></path>
            </g>
            <g id="Group-9" transform="translate(9.000000, 0.000000)">
                <mask id="mask-6" fill="white">
                    <use xlink:href="#path-5"></use>
                </mask>
                <g id="Clip-8"></g>
                <path d="M12.9551,0.0186 C12.8001,0.0936 12.2701,0.3376 11.8871,0.5026 C11.7931,0.5356 11.7041,0.5726 11.6101,0.6056 C7.9661,1.9626 3.9631,1.4086 0.3441,0.7466 L0.3441,3.5306 C3.7351,4.1406 7.6201,4.6666 10.8311,3.7846 C11.5691,3.5776 12.2911,3.3006 13.0001,2.9346 L13.0001,-0.0004 C12.9841,0.0096 12.9721,0.0146 12.9551,0.0186" id="Fill-7" fill="#616974" mask="url(#mask-6)"></path>
            </g>
            <g id="Group-12" transform="translate(0.000000, 9.000000)">
                <mask id="mask-8" fill="white">
                    <use xlink:href="#path-7"></use>
                </mask>
                <g id="Clip-11"></g>
                <path d="M16.1938,1.4746 C14.0998,1.4746 12.0358,1.0976 10.0068,0.7286 L9.1278,0.5686 C8.2628,0.4126 7.3798,0.2646 6.4828,0.1696 C5.0268,0.0606 3.6718,0.0696 2.4218,0.1826 C1.6868,0.2866 0.9438,0.4556 0.1938,0.7066 C0.1298,0.7286 0.0648,0.7336 -0.0002,0.7336 L-0.0002,3.7476 C3.3328,2.6846 6.5658,3.1226 9.3398,3.6216 L10.0428,3.7516 C13.3398,4.3506 16.8688,4.9136 20.0438,4.0126 C20.6918,3.8296 21.3438,3.5826 21.9998,3.2616 L21.9998,0.4076 C21.2248,0.7416 20.4578,0.9806 19.6908,1.1496 C18.6448,1.3836 17.2248,1.4746 16.1938,1.4746" id="Fill-10" fill="#616974" mask="url(#mask-8)"></path>
            </g>
            <g id="Group-15">
                <mask id="mask-10" fill="white">
                    <use xlink:href="#path-9"></use>
                </mask>
                <g id="Clip-14"></g>
                <path d="M8,7.6748 L8,0.5958 C8,0.5958 3,-0.9252 0,0.8918 L0,7.9048 C0,7.9048 2,6.6208 8,7.6748" id="Fill-13" fill="#616974" mask="url(#mask-10)"></path>
            </g>
        </g>
    </g>
</svg>