<?xml version="1.0" encoding="UTF-8"?>
<svg width="22px" height="22px" viewBox="0 0 22 22" version="1.1" xmlns="http://www.w3.org/2000/svg" xmlns:xlink="http://www.w3.org/1999/xlink">
    <!-- Generator: Sketch 49.3 (51167) - http://www.bohemiancoding.com/sketch -->
    <title>Glyph/ You and your family</title>
    <desc>Created with Sketch.</desc>
    <defs></defs>
    <g id="Glyph/-You-and-your-family" stroke="none" stroke-width="1" fill="none" fill-rule="evenodd">
        <g id="Page-1" fill="#616974">
            <path d="M6.53,12 C5.373,12 4.435,12.968 4.435,14.162 L4.428,14.623 L4.428,15.003 C4.428,16.239 5.699,17.241 6.53,17.241 C7.298,17.241 8.463,16.368 8.615,15.247 C8.626,15.167 8.632,15.085 8.632,15.003 L8.625,14.162 C8.625,12.968 7.687,12 6.53,12" id="Fill-1"></path>
            <path d="M8.2097,17.7676 C7.6827,18.1386 7.0767,18.3536 6.5297,18.3536 C5.9827,18.3536 5.3777,18.1386 4.8507,17.7676 C4.0107,17.8946 3.2977,18.4806 2.9947,19.3006 L2.3797,20.9996 C4.1257,21.8926 5.7237,21.9996 6.5297,21.9996 C8.4907,21.9996 9.9627,21.3676 10.6807,20.9996 L10.0647,19.3006 C9.7627,18.4806 9.0497,17.8946 8.2097,17.7676" id="Fill-3"></path>
            <path d="M20.2439,13.7344 C19.8399,12.6404 18.8899,11.8594 17.7699,11.6904 C17.0669,12.1844 16.2589,12.4714 15.5299,12.4714 C14.8009,12.4714 13.9939,12.1844 13.2899,11.6904 C12.1709,11.8594 11.2199,12.6404 10.8159,13.7344 C10.5429,14.4894 10.2689,15.2444 9.9959,16.0004 C12.2649,16.8474 14.2629,17.0004 15.5299,17.0004 C17.9519,17.0004 19.8769,16.4434 21.0639,16.0004 L20.2439,13.7344 Z" id="Fill-5"></path>
            <path d="M5.53,6 C6.554,6 8.107,5.001 8.31,3.717 C8.324,3.625 8.332,3.532 8.332,3.437 L8.323,2.475 C8.323,1.108 7.073,0 5.53,0 C3.987,0 2.737,1.108 2.737,2.475 L2.728,3.003 L2.728,3.437 C2.728,4.853 4.423,6 5.53,6" id="Fill-7"></path>
            <path d="M6.53,10.7002 C7.43,10.7002 8.24,11.0602 8.85,11.6402 C9.74,11.4502 10.49,11.2102 11.06,11.0002 L10.24,8.7302 C9.84,7.6402 8.89,6.8602 7.77,6.6902 C7.07,7.1802 6.26,7.4702 5.53,7.4702 C4.8,7.4702 3.99,7.1802 3.29,6.6902 C2.17,6.8602 1.22,7.6402 0.82,8.7302 C0.54,9.4902 0.27,10.2402 0,11.0002 C1.47,11.5502 2.83,11.8102 3.95,11.9202 C4.57,11.1702 5.5,10.7002 6.53,10.7002" id="Fill-9"></path>
            <path d="M12.6233,7 L12.7343,7 L12.7283,7.498 L12.7283,8.003 C12.7283,9.652 14.4223,10.988 15.5303,10.988 C16.5543,10.988 18.1073,9.824 18.3103,8.329 C18.3243,8.222 18.3313,8.114 18.3313,8.003 L18.3243,6.985 C20.5313,6.839 18.5993,5.418 19.2343,4.75 C20.1833,3.75 18.6363,3.176 17.5763,3.176 C16.5163,3.176 17.2213,2 15.4523,2 C13.6833,2 14.3923,2.881 12.9773,3.176 C11.5633,3.471 12.6233,4.353 11.5633,4.942 C10.5023,5.529 11.2083,6.705 12.6233,7" id="Fill-11"></path>
        </g>
    </g>
</svg>