<?xml version="1.0" encoding="UTF-8"?>
<svg width="22px" height="18px" viewBox="0 0 22 18" version="1.1" xmlns="http://www.w3.org/2000/svg" xmlns:xlink="http://www.w3.org/1999/xlink">
    <!-- Generator: Sketch 49.3 (51167) - http://www.bohemiancoding.com/sketch -->
    <title>Glyph/ Your Car</title>
    <desc>Created with Sketch.</desc>
    <defs></defs>
    <g id="Glyph/-Your-Car" stroke="none" stroke-width="1" fill="none" fill-rule="evenodd">
        <g id="Page-1" fill="#616974">
            <path d="M3,17.1836 C3,17.6346 3.365,17.9996 3.816,17.9996 L6.184,17.9996 C6.635,17.9996 7,17.6346 7,17.1836 L7,14.9996 L3,14.9996 L3,17.1836 Z" id="Fill-1"></path>
            <path d="M16.5,12 C15.672,12 15,11.329 15,10.5 C15,9.671 15.672,9 16.5,9 C17.328,9 18,9.671 18,10.5 C18,11.329 17.328,12 16.5,12 M13,11 L9,11 C8.447,11 8,10.552 8,10 C8,9.448 8.447,9 9,9 L13,9 C13.553,9 14,9.448 14,10 C14,10.552 13.553,11 13,11 M5.5,12 C4.672,12 4,11.329 4,10.5 C4,9.671 4.672,9 5.5,9 C6.328,9 7,9.671 7,10.5 C7,11.329 6.328,12 5.5,12 M4.591,6.042 C4.591,6.042 6.083,2.175 6.092,2.166 C6.147,2.019 6.322,2 6.424,2 L15.576,2 C15.678,2 15.853,2.019 15.908,2.166 C15.917,2.175 17.409,6.042 17.409,6.042 C17.593,6.503 17.252,7 16.755,7 L5.245,7 C4.748,7 4.407,6.503 4.591,6.042 M20.5,5 L19.01,5 L17.236,1.057 C16.981,0.396 16.349,0 15.575,0 L6.425,0 C5.651,0 5.019,0.396 4.764,1.057 L2.99,5 L1.5,5 C0.672,5 0,5.671 0,6.5 C0,7.329 0.672,8 1.5,8 L2,8 L2,12.49 C2,13.32 2.68,14 3.51,14 L18.49,14 C19.32,14 20,13.32 20,12.49 L20,8 L20.5,8 C21.328,8 22,7.329 22,6.5 C22,5.671 21.328,5 20.5,5" id="Fill-3"></path>
            <path d="M15,17.1836 C15,17.6346 15.365,17.9996 15.816,17.9996 L18.184,17.9996 C18.635,17.9996 19,17.6346 19,17.1836 L19,14.9996 L15,14.9996 L15,17.1836 Z" id="Fill-5"></path>
        </g>
    </g>
</svg>