<?xml version="1.0" encoding="UTF-8"?>
<svg width="61px" height="60px" viewBox="0 0 61 60" version="1.1" xmlns="http://www.w3.org/2000/svg" xmlns:xlink="http://www.w3.org/1999/xlink">
    <!-- Generator: Sketch 49.3 (51167) - http://www.bohemiancoding.com/sketch -->
    <title>Icon / Extra Guidance for New Business</title>
    <desc>Created with Sketch.</desc>
    <defs>
        <polygon id="path-1" points="0 60.0001 61 60.0001 61 0.0001 0 0.0001"></polygon>
    </defs>
    <g id="Icon-/-Extra-Guidance-for-New-Business" stroke="none" stroke-width="1" fill="none" fill-rule="evenodd">
        <g id="Page-1">
            <g id="Group-3" transform="translate(0.000000, 56.000100)" fill="#D3E5EF">
                <path d="M6.9678,3.9999 C3.7268,3.9999 -2.7632,3.0809 1.2938,1.2409 C2.4868,0.6989 5.0228,0.2939 7.9998,-0.0001 L7.9998,3.9999 L6.9678,3.9999 Z" id="Fill-1"></path>
            </g>
            <path d="M54.9033,60 C57.7393,60 63.4183,59.081 59.8673,57.241 C58.8243,56.699 56.6053,56.294 54.0003,56 L54.0003,60 L54.9033,60 Z" id="Fill-4" fill="#D3E5EF"></path>
            <path d="M45,51 C44.448,51 44,50.553 44,50 L44,47 C44,46.447 44.448,46 45,46 C45.552,46 46,46.447 46,47 L46,50 C46,50.553 45.552,51 45,51" id="Fill-6" fill="#4F5661"></path>
            <mask id="mask-2" fill="white">
                <use xlink:href="#path-1"></use>
            </mask>
            <g id="Clip-9"></g>
            <path d="M38,58.0001 L48,58.0001 L48,39.0001 L38,39.0001 L38,58.0001 Z M54,34.0001 C53.448,34.0001 53,34.4471 53,35.0001 L53,58.0001 L50,58.0001 L50,38.0001 C50,37.4471 49.552,37.0001 49,37.0001 L37,37.0001 C36.448,37.0001 36,37.4471 36,38.0001 L36,58.0001 L9,58.0001 L9,35.0201 C9,34.4681 8.552,34.0201 8,34.0201 C7.448,34.0201 7,34.4681 7,35.0201 L7,59.0001 C7,59.5531 7.448,60.0001 8,60.0001 L37,60.0001 L49,60.0001 L54,60.0001 C54.552,60.0001 55,59.5531 55,59.0001 L55,35.0001 C55,34.4471 54.552,34.0001 54,34.0001 Z" id="Fill-8" fill="#4F5661" mask="url(#mask-2)"></path>
            <polygon id="Fill-10" fill="#D3E5EF" mask="url(#mask-2)" points="14 48.0001 31 48.0001 31 38.0001 14 38.0001"></polygon>
            <path d="M15,47.0001 L30,47.0001 L30,39.0001 L15,39.0001 L15,47.0001 Z M31,49.0001 L14,49.0001 C13.448,49.0001 13,48.5531 13,48.0001 L13,38.0001 C13,37.4471 13.448,37.0001 14,37.0001 L31,37.0001 C31.552,37.0001 32,37.4471 32,38.0001 L32,48.0001 C32,48.5531 31.552,49.0001 31,49.0001 Z" id="Fill-11" fill="#4F5661" mask="url(#mask-2)"></path>
            <path d="M54.3198,33 C51.8638,33 49.6248,31.771 48.4748,29.792 C47.3258,31.771 45.0898,33 42.6398,33 C40.1838,33 37.9448,31.771 36.7958,29.792 L36.7948,29.792 C35.6418,31.772 33.4078,33 30.9598,33 C28.4938,33 26.2548,31.771 25.1148,29.792 C23.9618,31.772 21.7278,33 19.2798,33 C16.8178,33 14.5738,31.771 13.4248,29.792 C12.2878,31.77 10.0518,33 7.5898,33 C5.7318,33 3.9438,32.277 2.6828,31.018 C1.5848,29.907 0.9878,28.482 0.9998,27.002 L0.9998,26.29 C0.9998,26.081 1.0658,25.877 1.1878,25.706 L10.7378,12.416 C10.9258,12.155 11.2278,12 11.5498,12 L18.7998,12 C19.3518,12 19.7998,12.447 19.7998,13 C19.7998,13.553 19.3518,14 18.7998,14 L12.0628,14 L2.9998,26.612 L2.9998,27.01 C2.9918,27.962 3.3828,28.882 4.1008,29.607 C4.9858,30.491 6.2578,31 7.5898,31 C9.3378,31 10.9098,30.154 11.6928,28.792 L12.5648,27.288 C12.7438,26.979 13.0738,26.79 13.4298,26.79 L13.4328,26.79 C13.7898,26.791 14.1198,26.982 14.2978,27.293 L15.1578,28.793 C15.9468,30.152 17.5278,31 19.2798,31 C21.0198,31 22.5918,30.152 23.3848,28.788 L24.2418,27.293 C24.4198,26.982 24.7498,26.791 25.1078,26.79 L25.1098,26.79 C25.4658,26.79 25.7958,26.979 25.9748,27.288 L26.8448,28.788 C27.6298,30.154 29.2058,31 30.9598,31 C32.6998,31 34.2728,30.152 35.0658,28.788 L35.9228,27.293 C36.0998,26.982 36.4298,26.791 36.7878,26.79 L36.7898,26.79 C37.1468,26.79 37.4758,26.979 37.6548,27.288 L38.5258,28.788 C39.3178,30.152 40.8938,31 42.6398,31 C44.3798,31 45.9528,30.152 46.7448,28.788 L47.6148,27.288 C47.7938,26.979 48.1238,26.79 48.4798,26.79 L48.4828,26.79 C48.8398,26.791 49.1698,26.982 49.3478,27.293 L50.2078,28.793 C50.9978,30.152 52.5738,31 54.3198,31 C56.8568,31 58.9198,29.206 58.9198,27 L58.9548,26.538 L49.9378,14 L43.1998,14 C42.6478,14 42.1998,13.553 42.1998,13 C42.1998,12.447 42.6478,12 43.1998,12 L50.4498,12 C50.7718,12 51.0738,12.155 51.2618,12.416 L60.7918,25.666 C60.9298,25.858 60.9958,26.094 60.9768,26.33 L60.9168,27.08 C60.9198,30.309 57.9588,33 54.3198,33" id="Fill-12" fill="#4F5661" mask="url(#mask-2)"></path>
            <path d="M31.1636,25 C31.1636,25 39.9996,19.775 39.9996,13.898 C39.9996,11.193 37.9516,9 35.4236,9 C33.2956,9 31.5126,10.557 30.9996,12.663 C30.4876,10.557 28.7046,9 26.5766,9 C24.0486,9 21.9996,11.193 21.9996,13.898 C21.9996,19.775 30.8366,25 30.8366,25" id="Fill-13" fill="#F4877A" mask="url(#mask-2)"></path>
            <path d="M31,7.0566 C30.171,7.0566 29.5,6.3846 29.5,5.5566 L29.5,1.4996 C29.5,0.6716 30.171,-0.0004 31,-0.0004 C31.829,-0.0004 32.5,0.6716 32.5,1.4996 L32.5,5.5566 C32.5,6.3846 31.829,7.0566 31,7.0566" id="Fill-14" fill="#D3E5EF" mask="url(#mask-2)"></path>
            <path d="M22.001,8.0761 C21.554,8.0761 21.111,7.8771 20.815,7.4961 L18.815,4.9201 C18.307,4.2651 18.426,3.3231 19.08,2.8151 C19.734,2.3061 20.677,2.4251 21.185,3.0801 L23.185,5.6561 C23.693,6.3101 23.574,7.2531 22.92,7.7611 C22.647,7.9731 22.322,8.0761 22.001,8.0761" id="Fill-15" fill="#D3E5EF" mask="url(#mask-2)"></path>
            <path d="M39.9995,7.8525 C39.6555,7.8525 39.3105,7.7355 39.0285,7.4955 C38.3975,6.9585 38.3205,6.0115 38.8565,5.3805 L40.8565,3.0285 C41.3945,2.3975 42.3405,2.3215 42.9715,2.8575 C43.6025,3.3935 43.6795,4.3405 43.1435,4.9715 L41.1435,7.3245 C40.8465,7.6725 40.4235,7.8525 39.9995,7.8525" id="Fill-16" fill="#D3E5EF" mask="url(#mask-2)"></path>
        </g>
    </g>
</svg>